<svg width="24" height="25" viewBox="0 0 24 25" fill="none" xmlns="http://www.w3.org/2000/svg">
<path fill-rule="evenodd" clip-rule="evenodd" d="M6.55988 5.12437C7.72133 3.62698 9.52115 2.49463 11.9959 2.49463C14.4701 2.49463 16.2699 3.62701 17.4315 5.12433C18.5747 6.59808 19.1068 8.42914 19.1068 9.91415C19.1068 10.3404 19.0939 10.6568 19.0841 10.8969C19.082 10.9463 19.0801 10.9924 19.0785 11.0356C19.0689 11.2939 19.0708 11.418 19.0907 11.5409C19.1359 11.8205 19.2789 12.1649 19.8503 13.4242C19.856 13.4368 19.8614 13.4496 19.8664 13.4625C20.2792 14.5249 20.1869 15.5023 19.6959 16.3305C19.2273 17.1209 18.4398 17.7028 17.5885 18.1275C15.8862 18.9767 13.6359 19.3422 11.9959 19.3422C10.3554 19.3422 8.10479 18.9767 6.40247 18.1275C5.5512 17.7028 4.7637 17.1208 4.29528 16.3304C3.80439 15.5021 3.71229 14.5247 4.1254 13.4623C4.13039 13.4495 4.13574 13.4368 4.14144 13.4242C4.71285 12.1649 4.85587 11.8205 4.90104 11.5409C4.9209 11.418 4.92286 11.2939 4.9132 11.0356C4.91158 10.9924 4.90969 10.9463 4.90767 10.8969C4.89784 10.6568 4.88489 10.3404 4.88489 9.91415C4.88489 8.42922 5.41674 6.59815 6.55988 5.12437ZM7.74513 6.0437C6.81637 7.24111 6.38489 8.7448 6.38489 9.91415C6.38489 10.3072 6.39647 10.5912 6.40622 10.8303C6.40833 10.8819 6.41035 10.9314 6.41215 10.9795C6.4221 11.2454 6.42733 11.4986 6.38184 11.7802C6.29733 12.3032 6.04041 12.8694 5.52644 14.0021L5.51641 14.0241C5.26753 14.6768 5.34736 15.1635 5.58569 15.5657C5.8487 16.0095 6.35286 16.4265 7.07207 16.7853C8.51071 17.5029 10.5163 17.8422 11.9959 17.8422C13.4749 17.8422 15.4803 17.5029 16.9189 16.7853C17.6382 16.4265 18.1424 16.0095 18.4056 15.5656C18.644 15.1634 18.7239 14.6767 18.4753 14.0241L18.4653 14.002C17.9513 12.8694 17.6944 12.3032 17.6099 11.7802C17.5644 11.4986 17.5696 11.2454 17.5796 10.9795C17.5814 10.9315 17.5834 10.8819 17.5855 10.8303C17.5953 10.5912 17.6068 10.3073 17.6068 9.91415C17.6068 8.74488 17.1752 7.24119 16.2463 6.04374C15.3356 4.86987 13.955 3.99463 11.9959 3.99463C10.0363 3.99463 8.65559 4.8699 7.74513 6.0437Z" fill="#3D444F"/>
<path fill-rule="evenodd" clip-rule="evenodd" d="M9.18592 20.6833C9.49485 20.4074 9.96897 20.4341 10.2449 20.7431C11.2505 21.8688 12.7477 21.8584 13.7468 20.7424C14.023 20.4338 14.4972 20.4076 14.8058 20.6839C15.1144 20.9602 15.1406 21.4343 14.8643 21.7429C13.2749 23.5184 10.734 23.5423 9.1262 21.7423C8.85027 21.4334 8.877 20.9593 9.18592 20.6833Z" fill="#3D444F"/>
<path fill-rule="evenodd" clip-rule="evenodd" d="M6.5589 5.12388C7.72035 3.62649 9.52017 2.49414 11.9949 2.49414C14.4691 2.49414 16.2689 3.62652 17.4305 5.12384C18.5737 6.59759 19.1058 8.42865 19.1058 9.91366C19.1058 10.3399 19.0929 10.6563 19.0831 10.8965C19.081 10.9459 19.0791 10.992 19.0775 11.0352C19.0679 11.2935 19.0698 11.4176 19.0897 11.5405C19.1349 11.8201 19.2779 12.1645 19.8493 13.4238C19.855 13.4364 19.8604 13.4492 19.8654 13.4621C20.2782 14.5245 20.1859 15.5019 19.6949 16.3301C19.2263 17.1205 18.4388 17.7024 17.5875 18.1271C15.8852 18.9763 13.6349 19.3417 11.9949 19.3417C10.3544 19.3417 8.10381 18.9763 6.40149 18.1271C5.55022 17.7024 4.76272 17.1204 4.2943 16.33C3.80341 15.5017 3.71131 14.5243 4.12442 13.4619C4.12941 13.4491 4.13476 13.4364 4.14046 13.4238C4.71187 12.1645 4.85489 11.8201 4.90006 11.5405C4.91992 11.4176 4.92188 11.2935 4.91222 11.0352C4.9106 10.992 4.90871 10.9459 4.90669 10.8965C4.89686 10.6564 4.88391 10.3399 4.88391 9.91366C4.88391 8.42873 5.41576 6.59766 6.5589 5.12388ZM7.74415 6.04321C6.81539 7.24062 6.38391 8.74431 6.38391 9.91366C6.38391 10.3068 6.39549 10.5907 6.40524 10.8299C6.40735 10.8815 6.40937 10.931 6.41117 10.9791C6.42112 11.245 6.42635 11.4982 6.38086 11.7798C6.29635 12.3028 6.03943 12.869 5.52546 14.0017L5.51543 14.0237C5.26655 14.6764 5.34638 15.1631 5.58471 15.5653C5.84772 16.0091 6.35188 16.4261 7.07109 16.7849C8.50973 17.5024 10.5153 17.8418 11.9949 17.8418C13.4739 17.8418 15.4793 17.5024 16.9179 16.7849C17.6372 16.4261 18.1414 16.0091 18.4046 15.5652C18.643 15.163 18.7229 14.6763 18.4743 14.0237L18.4643 14.0016C17.9503 12.869 17.6934 12.3028 17.6089 11.7798C17.5634 11.4982 17.5686 11.245 17.5786 10.9791C17.5804 10.9311 17.5824 10.8815 17.5845 10.8299C17.5943 10.5908 17.6058 10.3068 17.6058 9.91366C17.6058 8.74439 17.1742 7.2407 16.2453 6.04325C15.3346 4.86938 13.954 3.99414 11.9949 3.99414C10.0353 3.99414 8.65461 4.86941 7.74415 6.04321Z" fill="#3D444F"/>
<path fill-rule="evenodd" clip-rule="evenodd" d="M9.18495 20.6828C9.49388 20.4069 9.968 20.4336 10.2439 20.7426C11.2495 21.8683 12.7467 21.8579 13.7458 20.7419C14.022 20.4333 14.4962 20.4071 14.8048 20.6834C15.1134 20.9597 15.1396 21.4338 14.8633 21.7424C13.2739 23.5179 10.733 23.5418 9.12523 21.7418C8.8493 21.4329 8.87603 20.9588 9.18495 20.6828Z" fill="#3D444F"/>
</svg>
