<svg width="25" height="24" viewBox="0 0 25 24" fill="none" xmlns="http://www.w3.org/2000/svg">
<rect x="0.351562" width="24" height="24" rx="7.5" fill="#9FCD86"/>
<path d="M5.06156 15.5L8.03306 8.1185H9.19856L12.1596 15.5H10.6371L8.34806 9.4415H8.87306L6.55256 15.5H5.06156ZM6.63656 14.1245V12.9275H10.6056V14.1245H6.63656ZM16.034 15.605C15.495 15.605 14.9945 15.5105 14.5325 15.3215C14.0705 15.1255 13.6645 14.856 13.3145 14.513C12.9715 14.163 12.7055 13.757 12.5165 13.295C12.3345 12.833 12.2435 12.336 12.2435 11.804C12.2435 11.272 12.3345 10.775 12.5165 10.313C12.7055 9.851 12.9715 9.4485 13.3145 9.1055C13.6645 8.7625 14.067 8.493 14.522 8.297C14.984 8.101 15.488 8.003 16.034 8.003C16.622 8.003 17.14 8.101 17.588 8.297C18.036 8.486 18.4315 8.7485 18.7745 9.0845L17.8085 10.0505C17.6055 9.8265 17.357 9.6515 17.063 9.5255C16.769 9.3995 16.426 9.3365 16.034 9.3365C15.691 9.3365 15.376 9.396 15.089 9.515C14.809 9.627 14.564 9.795 14.354 10.019C14.144 10.236 13.983 10.4985 13.871 10.8065C13.759 11.1075 13.703 11.44 13.703 11.804C13.703 12.175 13.759 12.511 13.871 12.812C13.983 13.113 14.144 13.3755 14.354 13.5995C14.564 13.8165 14.809 13.9845 15.089 14.1035C15.376 14.2225 15.691 14.282 16.034 14.282C16.447 14.282 16.8005 14.219 17.0945 14.093C17.3955 13.967 17.6475 13.7885 17.8505 13.5575L18.8165 14.5235C18.4735 14.8665 18.0745 15.1325 17.6195 15.3215C17.1645 15.5105 16.636 15.605 16.034 15.605Z" fill="#24272D"/>
</svg>
