<svg width="25" height="24" viewBox="0 0 25 24" fill="none" xmlns="http://www.w3.org/2000/svg">
<path d="M15.2786 22.5H9.41863C4.11863 22.5 1.84863 20.234 1.84863 14.93V9.07C1.84863 3.77 4.11463 1.5 9.41863 1.5H15.2786C20.5786 1.5 22.8486 3.766 22.8486 9.07V14.93C22.8486 20.234 20.5826 22.5 15.2786 22.5ZM9.41863 2.965C4.91863 2.965 3.31863 4.565 3.31863 9.065V14.925C3.31863 19.425 4.91863 21.025 9.41863 21.025H15.2786C19.7786 21.025 21.3786 19.425 21.3786 14.925V9.07C21.3786 4.57 19.7786 2.97 15.2786 2.97L9.41863 2.965Z" fill="#3D444F"/>
<path d="M16.0986 9.825H8.59863C8.39972 9.825 8.20895 9.74598 8.0683 9.60533C7.92765 9.46468 7.84863 9.27391 7.84863 9.075C7.84863 8.87609 7.92765 8.68532 8.0683 8.54467C8.20895 8.40402 8.39972 8.325 8.59863 8.325H16.0986C16.2975 8.325 16.4883 8.40402 16.629 8.54467C16.7696 8.68532 16.8486 8.87609 16.8486 9.075C16.8486 9.27391 16.7696 9.46468 16.629 9.60533C16.4883 9.74598 16.2975 9.825 16.0986 9.825Z" fill="#3D444F"/>
<path d="M16.0986 15.675H8.59863C8.39972 15.675 8.20895 15.596 8.0683 15.4553C7.92765 15.3147 7.84863 15.1239 7.84863 14.925C7.84863 14.7261 7.92765 14.5353 8.0683 14.3947C8.20895 14.254 8.39972 14.175 8.59863 14.175H16.0986C16.2975 14.175 16.4883 14.254 16.629 14.3947C16.7696 14.5353 16.8486 14.7261 16.8486 14.925C16.8486 15.1239 16.7696 15.3147 16.629 15.4553C16.4883 15.596 16.2975 15.675 16.0986 15.675Z" fill="#3D444F"/>
</svg>
