<svg width="24" height="25" viewBox="0 0 24 25" fill="none" xmlns="http://www.w3.org/2000/svg">
<path d="M13.4646 10.0547H2.2326C2.13453 10.0583 2.03673 10.0422 1.94505 10.0071C1.85338 9.97212 1.76971 9.91897 1.69904 9.85087C1.62837 9.78277 1.57216 9.70112 1.53377 9.6108C1.49537 9.52049 1.47559 9.42335 1.47559 9.32521C1.47559 9.22708 1.49537 9.12994 1.53377 9.03963C1.57216 8.94931 1.62837 8.86766 1.69904 8.79956C1.76971 8.73146 1.85338 8.67831 1.94505 8.64329C2.03673 8.60826 2.13453 8.59208 2.2326 8.59571H13.4646C13.5627 8.59208 13.6605 8.60826 13.7521 8.64329C13.8438 8.67831 13.9275 8.73146 13.9982 8.79956C14.0688 8.86766 14.125 8.94931 14.1634 9.03963C14.2018 9.12994 14.2216 9.22708 14.2216 9.32521C14.2216 9.42335 14.2018 9.52049 14.1634 9.6108C14.125 9.70112 14.0688 9.78277 13.9982 9.85087C13.9275 9.91897 13.8438 9.97212 13.7521 10.0071C13.6605 10.0422 13.5627 10.0583 13.4646 10.0547Z" fill="#3D444F"/>
<path d="M8.09283 17.8386H6.13983C6.04175 17.8423 5.94396 17.8261 5.85228 17.7911C5.76061 17.7561 5.67693 17.7029 5.60627 17.6348C5.5356 17.5667 5.47939 17.4851 5.44099 17.3947C5.4026 17.3044 5.38281 17.2073 5.38281 17.1092C5.38281 17.011 5.4026 16.9139 5.44099 16.8236C5.47939 16.7332 5.5356 16.6516 5.60627 16.5835C5.67693 16.5154 5.76061 16.4622 5.85228 16.4272C5.94396 16.3922 6.04175 16.376 6.13983 16.3797H8.09283C8.1909 16.376 8.2887 16.3922 8.38037 16.4272C8.47205 16.4622 8.55572 16.5154 8.62639 16.5835C8.69705 16.6516 8.75327 16.7332 8.79166 16.8236C8.83005 16.9139 8.84984 17.011 8.84984 17.1092C8.84984 17.2073 8.83005 17.3044 8.79166 17.3947C8.75327 17.4851 8.69705 17.5667 8.62639 17.6348C8.55572 17.7029 8.47205 17.7561 8.38037 17.7911C8.2887 17.8261 8.1909 17.8423 8.09283 17.8386Z" fill="#3D444F"/>
<path d="M14.4414 17.8386H10.5344C10.4363 17.8423 10.3385 17.8261 10.2468 17.7911C10.1551 17.7561 10.0715 17.7029 10.0008 17.6348C9.93013 17.5667 9.87392 17.4851 9.83553 17.3947C9.79713 17.3044 9.77734 17.2073 9.77734 17.1092C9.77734 17.011 9.79713 16.9139 9.83553 16.8236C9.87392 16.7332 9.93013 16.6516 10.0008 16.5835C10.0715 16.5154 10.1551 16.4622 10.2468 16.4272C10.3385 16.3922 10.4363 16.376 10.5344 16.3797H14.4414C14.5394 16.376 14.6372 16.3922 14.7289 16.4272C14.8206 16.4622 14.9043 16.5154 14.9749 16.5835C15.0456 16.6516 15.1018 16.7332 15.1402 16.8236C15.1786 16.9139 15.1984 17.011 15.1984 17.1092C15.1984 17.2073 15.1786 17.3044 15.1402 17.3947C15.1018 17.4851 15.0456 17.5667 14.9749 17.6348C14.9043 17.7029 14.8206 17.7561 14.7289 17.7911C14.6372 17.8261 14.5394 17.8423 14.4414 17.8386Z" fill="#3D444F"/>
<path d="M17.431 21.7307H6.569C2.682 21.7307 1.5 20.5627 1.5 16.7307V8.73072C1.5 4.89672 2.682 3.73072 6.569 3.73072H13.469C13.5671 3.72709 13.6649 3.74327 13.7565 3.7783C13.8482 3.81332 13.9319 3.86647 14.0026 3.93457C14.0732 4.00267 14.1294 4.08432 14.1678 4.17464C14.2062 4.26495 14.226 4.36209 14.226 4.46022C14.226 4.55836 14.2062 4.6555 14.1678 4.74581C14.1294 4.83613 14.0732 4.91778 14.0026 4.98588C13.9319 5.05398 13.8482 5.10713 13.7565 5.14215C13.6649 5.17718 13.5671 5.19336 13.469 5.18972H6.569C3.502 5.18972 2.969 5.71472 2.969 8.73172V16.7197C2.969 19.7357 3.506 20.2617 6.569 20.2617H17.421C20.488 20.2617 21.021 19.7367 21.021 16.7197V12.7497C21.028 12.5601 21.1082 12.3807 21.2449 12.249C21.3815 12.1174 21.5638 12.0438 21.7535 12.0438C21.9432 12.0438 22.1255 12.1174 22.2621 12.249C22.3988 12.3807 22.479 12.5601 22.486 12.7497V16.7197C22.5 20.5627 21.318 21.7307 17.431 21.7307Z" fill="#3D444F"/>
<path d="M21.7677 7.86575H16.3957C16.2976 7.86938 16.1998 7.8532 16.1081 7.81818C16.0165 7.78315 15.9328 7.73 15.8621 7.6619C15.7915 7.5938 15.7352 7.51215 15.6969 7.42184C15.6585 7.33152 15.6387 7.23439 15.6387 7.13625C15.6387 7.03811 15.6585 6.94098 15.6969 6.85066C15.7352 6.76035 15.7915 6.6787 15.8621 6.6106C15.9328 6.5425 16.0165 6.48935 16.1081 6.45432C16.1998 6.4193 16.2976 6.40312 16.3957 6.40675H21.7677C21.8658 6.40312 21.9636 6.4193 22.0552 6.45432C22.1469 6.48935 22.2306 6.5425 22.3012 6.6106C22.3719 6.6787 22.4281 6.76035 22.4665 6.85066C22.5049 6.94098 22.5247 7.03811 22.5247 7.13625C22.5247 7.23439 22.5049 7.33152 22.4665 7.42184C22.4281 7.51215 22.3719 7.5938 22.3012 7.6619C22.2306 7.73 22.1469 7.78315 22.0552 7.81818C21.9636 7.8532 21.8658 7.86938 21.7677 7.86575Z" fill="#3D444F"/>
<path d="M19.0816 10.5418C18.888 10.541 18.7025 10.464 18.5652 10.3273C18.428 10.1907 18.3502 10.0055 18.3486 9.81181V4.46081C18.3556 4.27123 18.4359 4.09174 18.5725 3.96009C18.7091 3.82844 18.8914 3.75488 19.0811 3.75488C19.2708 3.75488 19.4532 3.82844 19.5898 3.96009C19.7264 4.09174 19.8066 4.27123 19.8136 4.46081V9.81181C19.8121 10.0053 19.7344 10.1903 19.5974 10.327C19.4604 10.4636 19.2751 10.5408 19.0816 10.5418Z" fill="#3D444F"/>
</svg>
