<svg width="25" height="24" viewBox="0 0 25 24" fill="none" xmlns="http://www.w3.org/2000/svg">
<g clip-path="url(#clip0_9010_13984)">
<path d="M9.85898 21.9993C4.80793 21.9993 2.65039 19.8409 2.65039 14.7896V9.20742C2.65039 4.15617 4.80793 1.99854 9.85898 1.99854H15.441C20.4929 1.99854 22.6504 4.157 22.6504 9.20742V14.7896C22.6504 19.8417 20.492 21.9993 15.441 21.9993H9.85898ZM4.04345 9.21068V14.7929C4.04345 19.0809 5.57034 20.6087 9.85898 20.6087H15.441C19.7288 20.6087 21.2565 19.0817 21.2565 14.7929V9.21068C21.2565 4.92269 19.7296 3.39572 15.441 3.39572H9.85898C5.57284 3.39655 4.04589 4.92356 4.04589 9.20905L4.04345 9.21068ZM11.9502 15.7206V12.6975H8.92729C8.74233 12.6975 8.56498 12.6241 8.43419 12.4933C8.3034 12.3625 8.22995 12.1851 8.22995 12.0002C8.22995 11.8152 8.3034 11.6378 8.43419 11.507C8.56498 11.3762 8.74233 11.3028 8.92729 11.3028H11.9502V8.27732C11.9502 8.09235 12.0236 7.91499 12.1544 7.7842C12.2852 7.6534 12.4626 7.57995 12.6475 7.57995C12.8325 7.57995 13.0099 7.6534 13.1406 7.7842C13.2714 7.91499 13.3449 8.09235 13.3449 8.27732V11.3028H16.3678C16.5528 11.3028 16.7301 11.3762 16.8609 11.507C16.9917 11.6378 17.0651 11.8152 17.0651 12.0002C17.0651 12.1851 16.9917 12.3625 16.8609 12.4933C16.7301 12.6241 16.5528 12.6975 16.3678 12.6975H13.3449V15.7206C13.3449 15.9055 13.2714 16.0829 13.1406 16.2137C13.0099 16.3445 12.8325 16.4179 12.6475 16.4179C12.4626 16.4179 12.2852 16.3445 12.1544 16.2137C12.0236 16.0829 11.9502 15.9055 11.9502 15.7206Z" fill="#3D444F"/>
</g>
<defs>
<clipPath id="clip0_9010_13984">
<rect width="24" height="24.0004" fill="white" transform="translate(0.651367)"/>
</clipPath>
</defs>
</svg>
