<svg width="24" height="25" viewBox="0 0 24 25" fill="none" xmlns="http://www.w3.org/2000/svg">
<path d="M15.4774 22.0544C15.0632 22.0582 14.6533 21.9701 14.2774 21.7964L9.07735 19.1914C8.89042 19.1178 8.69062 19.0826 8.48981 19.0878C8.289 19.0929 8.09127 19.1383 7.90835 19.2214L5.57135 20.5594C5.15856 20.8399 4.6784 21.0052 4.1804 21.0383C3.68239 21.0713 3.18459 20.9709 2.73835 20.7474C2.32282 20.4704 1.98892 20.0874 1.77124 19.638C1.55356 19.1885 1.46004 18.6891 1.50035 18.1914V8.56336C1.51967 8.08636 1.65522 7.62129 1.8952 7.2086C2.13518 6.79591 2.47234 6.44808 2.87735 6.19536L7.16635 3.73936C7.5605 3.533 7.99662 3.41951 8.44136 3.40755C8.8861 3.39559 9.32768 3.48548 9.73235 3.67036L14.9324 6.27536C15.3108 6.41923 15.7307 6.40846 16.1014 6.24536L18.4294 4.92236C18.8415 4.6414 19.321 4.4754 19.8186 4.44148C20.3163 4.40755 20.8139 4.50693 21.2604 4.72936C21.6762 5.00606 22.0106 5.38898 22.2286 5.83842C22.4466 6.28786 22.5405 6.78744 22.5004 7.28536V16.9224C22.4809 17.3992 22.3453 17.8641 22.1053 18.2766C21.8653 18.6891 21.5282 19.0367 21.1234 19.2894L16.8344 21.7464C16.4123 21.9537 15.9475 22.0592 15.4774 22.0544ZM8.53335 17.6074C8.94751 17.6035 9.35736 17.6917 9.73335 17.8654L14.9334 20.4704C15.3118 20.6142 15.7317 20.6035 16.1024 20.4404L20.3914 17.9834C20.5668 17.861 20.7134 17.7019 20.8212 17.5171C20.929 17.3323 20.9952 17.1263 21.0154 16.9134V7.27536C21.048 7.03838 21.0187 6.79697 20.9302 6.57472C20.8417 6.35248 20.697 6.15699 20.5104 6.00736C20.2869 5.92626 20.0467 5.90208 19.8116 5.937C19.5764 5.97191 19.3536 6.06483 19.1634 6.20736L16.8344 7.53336C16.4402 7.73972 16.0041 7.85321 15.5593 7.86517C15.1146 7.87713 14.673 7.78724 14.2684 7.60236L9.06835 4.99736C8.68986 4.85349 8.26997 4.86426 7.89935 5.02736L3.61035 7.48336C3.43376 7.60687 3.28638 7.76757 3.17858 7.95416C3.07077 8.14074 3.00516 8.34869 2.98635 8.56336V18.2014C2.95476 18.4378 2.98411 18.6784 3.07162 18.9003C3.15913 19.1222 3.30189 19.3181 3.48635 19.4694C3.7111 19.5529 3.95329 19.5783 4.1905 19.5434C4.4277 19.5084 4.65225 19.4142 4.84335 19.2694L7.17135 17.9424C7.58863 17.7145 8.05799 17.5991 8.53335 17.6074Z" fill="#3D444F"/>
<path d="M8.45394 18.4294C8.25729 18.4281 8.06906 18.3494 7.93001 18.2103C7.79095 18.0713 7.71225 17.8831 7.71094 17.6864V4.80941C7.71094 4.61235 7.78922 4.42337 7.92856 4.28403C8.0679 4.14469 8.25688 4.06641 8.45394 4.06641C8.65099 4.06641 8.83998 4.14469 8.97932 4.28403C9.11866 4.42337 9.19694 4.61235 9.19694 4.80941V17.6864C9.19563 17.8831 9.11693 18.0713 8.97787 18.2103C8.83881 18.3494 8.65059 18.4281 8.45394 18.4294Z" fill="#3D444F"/>
<path d="M15.5565 21.4014C15.3598 21.4001 15.1716 21.3214 15.0325 21.1823C14.8935 21.0433 14.8148 20.855 14.8135 20.6584V7.40438C14.8135 7.20732 14.8918 7.01834 15.0311 6.879C15.1704 6.73966 15.3594 6.66138 15.5565 6.66138C15.7535 6.66138 15.9425 6.73966 16.0819 6.879C16.2212 7.01834 16.2995 7.20732 16.2995 7.40438V20.6584C16.2982 20.855 16.2195 21.0433 16.0804 21.1823C15.9414 21.3214 15.7531 21.4001 15.5565 21.4014Z" fill="#3D444F"/>
</svg>
