<svg width="24" height="25" viewBox="0 0 24 25" fill="none" xmlns="http://www.w3.org/2000/svg">
<path d="M14.93 23.2305H9.07C3.77 23.2305 1.5 20.9645 1.5 15.6605V9.80047C1.5 4.50047 3.766 2.23047 9.07 2.23047H14.93C20.23 2.23047 22.5 4.49647 22.5 9.80047V15.6605C22.5 20.9645 20.234 23.2305 14.93 23.2305ZM9.07 3.69547C4.57 3.69547 2.97 5.29547 2.97 9.79547V15.6555C2.97 20.1555 4.57 21.7555 9.07 21.7555H14.93C19.43 21.7555 21.03 20.1555 21.03 15.6555V9.80047C21.03 5.30047 19.43 3.70047 14.93 3.70047L9.07 3.69547Z" fill="#3D444F"/>
<path d="M15.75 10.5554H8.25C8.05109 10.5554 7.86032 10.4764 7.71967 10.3357C7.57902 10.1951 7.5 10.0043 7.5 9.80542C7.5 9.60651 7.57902 9.41574 7.71967 9.27509C7.86032 9.13444 8.05109 9.05542 8.25 9.05542H15.75C15.9489 9.05542 16.1397 9.13444 16.2803 9.27509C16.421 9.41574 16.5 9.60651 16.5 9.80542C16.5 10.0043 16.421 10.1951 16.2803 10.3357C16.1397 10.4764 15.9489 10.5554 15.75 10.5554Z" fill="#3D444F"/>
<path d="M15.75 16.4055H8.25C8.05109 16.4055 7.86032 16.3265 7.71967 16.1858C7.57902 16.0452 7.5 15.8544 7.5 15.6555C7.5 15.4566 7.57902 15.2658 7.71967 15.1252C7.86032 14.9845 8.05109 14.9055 8.25 14.9055H15.75C15.9489 14.9055 16.1397 14.9845 16.2803 15.1252C16.421 15.2658 16.5 15.4566 16.5 15.6555C16.5 15.8544 16.421 16.0452 16.2803 16.1858C16.1397 16.3265 15.9489 16.4055 15.75 16.4055Z" fill="#3D444F"/>
</svg>
