<svg width="25" height="25" viewBox="0 0 25 25" fill="none" xmlns="http://www.w3.org/2000/svg">
<g clip-path="url(#clip0_9394_7076)">
<path d="M17.8157 4.64568H15.2719C15.2719 3.95731 14.9986 3.29702 14.5115 2.81023C14.0247 2.32346 13.3643 2.05005 12.676 2.05005H4.02337C3.335 2.05005 2.67471 2.32347 2.18792 2.81023C1.70114 3.297 1.42773 3.95733 1.42773 4.64568V17.6247C1.42773 18.313 1.70115 18.9733 2.18792 19.4602C2.67469 19.9472 3.33502 20.2206 4.02337 20.2206H4.14468C4.41206 21.2051 5.10041 22.0214 6.0254 22.4514C6.9507 22.8815 8.01838 22.8815 8.94359 22.4514C9.86858 22.0214 10.5569 21.2051 10.8243 20.2206H12.7973C13.0648 21.2051 13.7531 22.0214 14.678 22.4514C15.6034 22.8815 16.671 22.8815 17.5963 22.4514C18.5212 22.0214 19.2096 21.2051 19.477 20.2206H19.5983C20.2867 20.2206 20.947 19.9472 21.4338 19.4602C21.9205 18.9734 22.1939 18.313 22.1939 17.6247V9.02841C22.1939 7.86656 21.7328 6.75269 20.912 5.93091C20.0911 5.10914 18.9772 4.64691 17.8157 4.64568ZM17.8157 6.37606C18.5186 6.37697 19.1918 6.65732 19.6882 7.15464C20.1846 7.65167 20.4635 8.32553 20.4635 9.02841V12.4331H16.2452C15.7077 12.4331 15.2719 11.9973 15.2719 11.4595V6.37629L17.8157 6.37606ZM7.48426 21.0856C7.02526 21.0856 6.58524 20.9033 6.26053 20.5786C5.93611 20.2542 5.75384 19.8139 5.75384 19.3551C5.75384 18.8962 5.93611 18.4558 6.26053 18.1315C6.58525 17.8067 7.02524 17.6244 7.48426 17.6244C7.94329 17.6244 8.38329 17.8067 8.708 18.1315C9.03241 18.4558 9.21469 18.8961 9.21469 19.3551C9.21469 19.8139 9.03241 20.2542 8.708 20.5786C8.38328 20.9033 7.94329 21.0856 7.48426 21.0856ZM16.1369 21.0856C15.6779 21.0856 15.2379 20.9033 14.9132 20.5786C14.5888 20.2542 14.4065 19.8139 14.4065 19.3551C14.4065 18.8962 14.5888 18.4558 14.9132 18.1315C15.2379 17.8067 15.6779 17.6244 16.1369 17.6244C16.596 17.6244 17.036 17.8067 17.3607 18.1315C17.6851 18.4558 17.8674 18.8961 17.8674 19.3551C17.8674 19.8139 17.6851 20.2542 17.3607 20.5786C17.036 20.9033 16.596 21.0856 16.1369 21.0856ZM19.5981 18.4897H19.4768C19.2094 17.5052 18.5211 16.6888 17.596 16.2589C16.6708 15.8288 15.6031 15.8288 14.6778 16.2589C13.7529 16.6889 13.0645 17.5052 12.7971 18.4897H10.8241C10.5567 17.5052 9.86836 16.6888 8.94337 16.2589C8.01808 15.8288 6.9504 15.8288 6.02519 16.2589C5.1002 16.6889 4.41185 17.5052 4.14446 18.4897H4.02315C3.54543 18.4897 3.15796 18.1025 3.15796 17.6244V4.64545C3.15796 4.16773 3.54544 3.78026 4.02315 3.78026H12.6758C12.9055 3.78026 13.1255 3.87139 13.2878 4.03375C13.4499 4.19581 13.541 4.4161 13.541 4.64546V11.4593C13.541 12.1767 13.8259 12.8645 14.3332 13.3714C14.8402 13.8785 15.528 14.1633 16.245 14.1633H20.4633V17.6245C20.4633 17.8542 20.3722 18.0741 20.2098 18.2365C20.0478 18.3985 19.8275 18.4897 19.5981 18.4897Z" fill="#3D444F"/>
<path d="M10.9452 8.97203H9.21445V7.24165C9.21445 6.76364 8.82725 6.37646 8.34925 6.37646C7.87154 6.37646 7.48406 6.76365 7.48406 7.24165V8.97203H5.75368C5.27566 8.97203 4.88818 9.35952 4.88818 9.83722C4.88818 10.3152 5.27567 10.7027 5.75368 10.7027H7.48406V12.4331C7.48406 12.9112 7.87155 13.2983 8.34925 13.2983C8.82727 13.2983 9.21445 12.9111 9.21445 12.4331V10.7027H10.9452C11.4229 10.7027 11.8103 10.3152 11.8103 9.83722C11.8103 9.3595 11.4229 8.97203 10.9452 8.97203Z" fill="#3D444F"/>
</g>
<defs>
<clipPath id="clip0_9394_7076">
<rect width="22" height="21.0435" fill="white" transform="translate(1.10547 1.73047)"/>
</clipPath>
</defs>
</svg>
