<svg width="25" height="24" viewBox="0 0 25 24" fill="none" xmlns="http://www.w3.org/2000/svg">
<path d="M22.115 8.42279V12.2689M10.817 6.01894H7.49966C5.88412 6.01894 5.07636 6.01894 4.4593 6.33334C3.91653 6.6099 3.47524 7.05119 3.19868 7.59397C2.88428 8.21102 2.88428 9.01879 2.88428 10.6343L2.88428 11.7882C2.88428 12.6842 2.88428 13.1322 3.03067 13.4856C3.22585 13.9568 3.60022 14.3312 4.07142 14.5264C4.42483 14.6728 4.87285 14.6728 5.7689 14.6728V18.7593C5.7689 18.9826 5.7689 19.0942 5.77816 19.1882C5.86808 20.1012 6.59044 20.8236 7.50348 20.9135C7.5975 20.9228 7.70912 20.9228 7.93236 20.9228C8.1556 20.9228 8.26722 20.9228 8.36124 20.9135C9.27427 20.8236 9.99663 20.1012 10.0866 19.1882C10.0958 19.0942 10.0958 18.9826 10.0958 18.7593V14.6728H10.817C12.5155 14.6728 14.5932 15.5833 16.1961 16.4571C17.1312 16.9668 17.5988 17.2217 17.905 17.1842C18.189 17.1494 18.4037 17.0219 18.5702 16.7892C18.7497 16.5383 18.7497 16.0362 18.7497 15.0321V5.6596C18.7497 4.65547 18.7497 4.15341 18.5702 3.90249C18.4037 3.66981 18.189 3.5423 17.905 3.50752C17.5988 3.47002 17.1312 3.7249 16.1961 4.23466C14.5932 5.10847 12.5155 6.01894 10.817 6.01894Z" stroke="#3D444F" stroke-width="1.44231" stroke-linecap="round" stroke-linejoin="round"/>
</svg>
