<svg width="25" height="25" viewBox="0 0 25 25" fill="none" xmlns="http://www.w3.org/2000/svg">
<path d="M11.6356 10.0547H2.35565C2.25757 10.0583 2.15978 10.0422 2.0681 10.0071C1.97643 9.97212 1.89275 9.91897 1.82209 9.85087C1.75142 9.78277 1.69521 9.70112 1.65681 9.6108C1.61842 9.52049 1.59863 9.42335 1.59863 9.32521C1.59863 9.22708 1.61842 9.12994 1.65681 9.03963C1.69521 8.94931 1.75142 8.86766 1.82209 8.79956C1.89275 8.73146 1.97643 8.67831 2.0681 8.64329C2.15978 8.60826 2.25757 8.59208 2.35565 8.59571H11.6356C11.7337 8.59208 11.8315 8.60826 11.9232 8.64329C12.0149 8.67831 12.0985 8.73146 12.1692 8.79956C12.2399 8.86766 12.2961 8.94931 12.3345 9.03963C12.3729 9.12994 12.3927 9.22708 12.3927 9.32521C12.3927 9.42335 12.3729 9.52049 12.3345 9.6108C12.2961 9.70112 12.2399 9.78277 12.1692 9.85087C12.0985 9.91897 12.0149 9.97212 11.9232 10.0071C11.8315 10.0422 11.7337 10.0583 11.6356 10.0547Z" fill="#3D444F"/>
<path d="M17.5556 21.7307H6.69256C2.80456 21.7307 1.62256 20.5627 1.62256 16.7307V8.73072C1.62256 4.89672 2.80456 3.73072 6.69256 3.73072H14.5666C14.6646 3.72709 14.7624 3.74327 14.8541 3.7783C14.9458 3.81332 15.0295 3.86647 15.1001 3.93457C15.1708 4.00267 15.227 4.08432 15.2654 4.17464C15.3038 4.26495 15.3236 4.36209 15.3236 4.46022C15.3236 4.55836 15.3038 4.6555 15.2654 4.74581C15.227 4.83613 15.1708 4.91778 15.1001 4.98588C15.0295 5.05398 14.9458 5.10713 14.8541 5.14215C14.7624 5.17718 14.6646 5.19336 14.5666 5.18972H6.69256C3.62556 5.18972 3.09256 5.71472 3.09256 8.73172V16.7197C3.09256 19.7357 3.62956 20.2617 6.69256 20.2617H17.5456C20.6126 20.2617 21.1456 19.7367 21.1456 16.7197V12.7497C21.1526 12.5601 21.2328 12.3807 21.3694 12.249C21.506 12.1174 21.6883 12.0438 21.8781 12.0438C22.0678 12.0438 22.2501 12.1174 22.3867 12.249C22.5233 12.3807 22.6036 12.5601 22.6106 12.7497V16.7197C22.6256 20.5627 21.4436 21.7307 17.5556 21.7307Z" fill="#3D444F"/>
<path d="M15.5628 12.1858C15.3778 12.1899 15.1939 12.1566 15.022 12.0879C14.8502 12.0191 14.694 11.9164 14.5628 11.7858C14.4072 11.6259 14.2916 11.4315 14.2254 11.2185C14.1592 11.0054 14.1443 10.7797 14.1818 10.5598L14.3758 9.17981C14.442 8.79986 14.6187 8.44785 14.8838 8.16781L18.5078 4.55781C18.7079 4.31162 18.9604 4.11315 19.2469 3.97683C19.5333 3.84051 19.8466 3.76978 20.1638 3.76978C20.4811 3.76978 20.7943 3.84051 21.0808 3.97683C21.3673 4.11315 21.6197 4.31162 21.8198 4.55781C22.0673 4.75577 22.2671 5.00685 22.4043 5.29247C22.5416 5.57808 22.6129 5.89092 22.6129 6.20781C22.6129 6.5247 22.5416 6.83754 22.4043 7.12316C22.2671 7.40877 22.0673 7.65985 21.8198 7.85781L18.1958 11.4678C17.914 11.7323 17.5607 11.9082 17.1798 11.9738L15.7928 12.1688C15.7166 12.1791 15.6398 12.1848 15.5628 12.1858ZM20.1628 5.21981C19.9628 5.21981 19.7918 5.35581 19.5478 5.58981L15.9328 9.19981C15.8899 9.25939 15.8561 9.32514 15.8328 9.39481L15.6328 10.7088L16.9618 10.5238C17.0332 10.5009 17.1007 10.4672 17.1618 10.4238L20.7858 6.81381C21.2448 6.35681 21.3138 6.10381 20.7858 5.58781C20.5348 5.33581 20.3488 5.21981 20.1628 5.21981Z" fill="#3D444F"/>
<path d="M20.7908 8.58666C20.723 8.58779 20.6555 8.57799 20.5908 8.55766C19.9312 8.37189 19.33 8.02051 18.8445 7.5369C18.3589 7.0533 18.0052 6.45354 17.8168 5.79466C17.7699 5.60888 17.7974 5.41215 17.8933 5.24628C17.9892 5.0804 18.146 4.95847 18.3304 4.90638C18.5147 4.85429 18.7122 4.87617 18.8807 4.96734C19.0492 5.05852 19.1755 5.21182 19.2328 5.39466C19.3552 5.81338 19.5815 6.19436 19.8906 6.50222C20.1997 6.81009 20.5816 7.03486 21.0008 7.15566C21.0934 7.18107 21.1801 7.22457 21.2559 7.28365C21.3317 7.34273 21.395 7.41622 21.4422 7.49988C21.4894 7.58355 21.5196 7.67573 21.531 7.77112C21.5425 7.8665 21.5349 7.96321 21.5088 8.05566C21.459 8.20773 21.3631 8.34055 21.2345 8.4357C21.1058 8.53084 20.9508 8.5836 20.7908 8.58666Z" fill="#3D444F"/>
<path d="M17.1064 17.2302C17.1064 18.0586 16.4348 18.7302 15.6064 18.7302C14.778 18.7302 14.1064 18.0586 14.1064 17.2302C14.1064 16.4018 14.778 15.7302 15.6064 15.7302C16.4348 15.7302 17.1064 16.4018 17.1064 17.2302Z" fill="#3D444F"/>
<path d="M19.1064 17.2302C19.1064 18.0586 18.4348 18.7302 17.6064 18.7302C16.778 18.7302 16.1064 18.0586 16.1064 17.2302C16.1064 16.4018 16.778 15.7302 17.6064 15.7302C18.4348 15.7302 19.1064 16.4018 19.1064 17.2302Z" fill="#3D444F"/>
<path fill-rule="evenodd" clip-rule="evenodd" d="M19.508 17.2298C19.508 18.2791 18.6573 19.1298 17.608 19.1298C16.5587 19.1298 15.708 18.2791 15.708 17.2298C15.708 16.1804 16.5587 15.3298 17.608 15.3298C18.6573 15.3298 19.508 16.1804 19.508 17.2298ZM17.608 18.7298C18.4364 18.7298 19.108 18.0582 19.108 17.2298C19.108 16.4013 18.4364 15.7298 17.608 15.7298C16.7796 15.7298 16.108 16.4013 16.108 17.2298C16.108 18.0582 16.7796 18.7298 17.608 18.7298Z" fill="white"/>
</svg>
