<svg width="25" height="24" viewBox="0 0 25 24" fill="none" xmlns="http://www.w3.org/2000/svg">
<path d="M15.0848 18.8201C15.2748 18.8201 15.4648 18.7501 15.6148 18.6001L21.6848 12.5301C21.9748 12.2401 21.9748 11.7601 21.6848 11.4701L15.6148 5.40012C15.3248 5.11012 14.8448 5.11012 14.5548 5.40012C14.2648 5.69012 14.2648 6.17012 14.5548 6.46012L20.0948 12.0001L14.5548 17.5401C14.2648 17.8301 14.2648 18.3101 14.5548 18.6001C14.6948 18.7501 14.8948 18.8201 15.0848 18.8201Z" fill="#3D444F"/>
<path d="M4.15484 12.7501H20.9848C21.3948 12.7501 21.7348 12.4101 21.7348 12.0001C21.7348 11.5901 21.3948 11.2501 20.9848 11.2501H4.15484C3.74484 11.2501 3.40484 11.5901 3.40484 12.0001C3.40484 12.4101 3.74484 12.7501 4.15484 12.7501Z" fill="#3D444F"/>
</svg>
