<svg width="25" height="24" viewBox="0 0 25 24" fill="none" xmlns="http://www.w3.org/2000/svg">
<path d="M10.2218 18.8201C10.0318 18.8201 9.8418 18.7501 9.6918 18.6001L3.6218 12.5301C3.3318 12.2401 3.3318 11.7601 3.6218 11.4701L9.6918 5.40012C9.9818 5.11012 10.4618 5.11012 10.7518 5.40012C11.0418 5.69012 11.0418 6.17012 10.7518 6.46012L5.2118 12.0001L10.7518 17.5401C11.0418 17.8301 11.0418 18.3101 10.7518 18.6001C10.6118 18.7501 10.4118 18.8201 10.2218 18.8201Z" fill="#3D444F"/>
<path d="M21.1513 12.75H4.32129C3.91129 12.75 3.57129 12.41 3.57129 12C3.57129 11.59 3.91129 11.25 4.32129 11.25H21.1513C21.5613 11.25 21.9013 11.59 21.9013 12C21.9013 12.41 21.5613 12.75 21.1513 12.75Z" fill="#3D444F"/>
</svg>
