<svg width="24" height="25" viewBox="0 0 24 25" fill="none" xmlns="http://www.w3.org/2000/svg">
<path d="M12 16.7C14.2091 16.7 16 14.9091 16 12.7C16 10.4908 14.2091 8.69995 12 8.69995C9.79086 8.69995 8 10.4908 8 12.7C8 14.9091 9.79086 16.7 12 16.7Z" stroke="#3D444F" stroke-width="1.5" stroke-linecap="round" stroke-linejoin="round"/>
<path d="M16 8.70006V13.7001C16 14.4957 16.3161 15.2588 16.8787 15.8214C17.4413 16.384 18.2044 16.7001 19 16.7001C19.7957 16.7001 20.5587 16.384 21.1213 15.8214C21.6839 15.2588 22 14.4957 22 13.7001V12.7001C21.9999 10.4431 21.2362 8.25254 19.8333 6.48459C18.4303 4.71665 16.4706 3.47529 14.2726 2.96236C12.0747 2.44943 9.76794 2.6951 7.72736 3.65943C5.68677 4.62376 4.03241 6.25002 3.03327 8.27379C2.03413 10.2976 1.74898 12.5998 2.22418 14.8062C2.69938 17.0126 3.90699 18.9933 5.65064 20.4263C7.39429 21.8594 9.57144 22.6604 11.8281 22.6992C14.0847 22.738 16.2881 22.0123 18.08 20.6401" stroke="#3D444F" stroke-width="1.5" stroke-linecap="round" stroke-linejoin="round"/>
</svg>
