<svg width="25" height="25" viewBox="0 0 25 25" fill="none" xmlns="http://www.w3.org/2000/svg">
<g clip-path="url(#clip0_9394_7073)">
<path d="M6.00141 13.5546C6.00141 13.8114 5.79599 14.0424 5.51357 14.0424H3.87046C2.86919 14.0424 2.02197 13.2208 2.02197 12.1939V7.4957C2.02197 6.49444 2.84362 5.64722 3.87046 5.64722H20.3785C21.3798 5.64722 22.227 6.46886 22.227 7.4957V12.1939C22.227 13.1952 21.4053 14.0424 20.3785 14.0424H18.6584C18.4015 14.0424 18.1705 13.837 18.1705 13.5546C18.1705 13.2722 18.3759 13.0668 18.6584 13.0668H20.3785C20.8663 13.0668 21.2513 12.6817 21.2513 12.1939V7.49566C21.2513 7.00782 20.8663 6.62281 20.3785 6.62281H3.87046C3.38262 6.62281 2.99761 7.00783 2.99761 7.49566V12.1939C2.99761 12.6817 3.38264 13.0668 3.87046 13.0668H5.51357C5.79598 13.0668 6.00141 13.2722 6.00141 13.5546ZM17.2978 18.946V8.1375C17.2978 7.88068 17.0923 7.64966 16.8099 7.64966C16.5531 7.64966 16.3221 7.85506 16.3221 8.1375V18.4839H7.90115V8.1375C7.90115 7.88068 7.69574 7.64966 7.41331 7.64966C7.13089 7.64966 6.92547 7.85506 6.92547 8.1375V18.946C6.92547 19.2028 7.13088 19.4339 7.41331 19.4339H16.7842C17.0923 19.4337 17.2978 19.2285 17.2978 18.946ZM12.1374 8.39423C13.8575 8.39423 15.244 9.7805 15.244 11.5008C15.244 13.2208 13.8575 14.6072 12.1374 14.6072C10.4173 14.6072 9.03078 13.2209 9.03078 11.5006C9.03078 9.7805 10.4173 8.39423 12.1374 8.39423ZM12.1374 9.36968C10.9563 9.36968 9.98084 10.3196 9.98084 11.5262C9.98084 12.7073 10.9307 13.6827 12.1374 13.6827C13.3184 13.6827 14.2938 12.7329 14.2938 11.5262C14.2938 10.3197 13.3184 9.36968 12.1374 9.36968Z" fill="#3D444F"/>
<path fill-rule="evenodd" clip-rule="evenodd" d="M3.87069 5.83053C2.94674 5.83053 2.20553 6.59403 2.20553 7.49569V12.1939C2.20553 13.1179 2.96902 13.8591 3.87069 13.8591H5.51379C5.68875 13.8591 5.8183 13.7165 5.8183 13.5546C5.8183 13.3734 5.69496 13.2501 5.51379 13.2501H3.87069C3.28161 13.2501 2.81451 12.783 2.81451 12.1939V7.49564C2.81451 6.90657 3.2816 6.43946 3.87069 6.43946H20.3787C20.9678 6.43946 21.4349 6.90655 21.4349 7.49564V12.1939C21.4349 12.783 20.9679 13.2501 20.3787 13.2501H18.6586C18.4775 13.2501 18.3541 13.3734 18.3541 13.5546C18.3541 13.7295 18.4967 13.8591 18.6586 13.8591H20.3787C21.3026 13.8591 22.0438 13.0956 22.0438 12.1939V7.49569C22.0438 6.57174 21.2804 5.83053 20.3787 5.83053H3.87069ZM1.83887 7.49569C1.83887 6.39483 2.74095 5.46387 3.87069 5.46387H20.3787C21.4795 5.46387 22.4105 6.36595 22.4105 7.49569V12.1939C22.4105 13.2948 21.5084 14.2258 20.3787 14.2258H18.6586C18.3069 14.2258 17.9874 13.9445 17.9874 13.5546C17.9874 13.1709 18.2749 12.8834 18.6586 12.8834H20.3787C20.7653 12.8834 21.0682 12.5805 21.0682 12.1939V7.49564C21.0682 7.10906 20.7653 6.80612 20.3787 6.80612H3.87069C3.48411 6.80612 3.18117 7.10907 3.18117 7.49564V12.1939C3.18117 12.5805 3.48411 12.8834 3.87069 12.8834H5.51379C5.89746 12.8834 6.18496 13.1709 6.18496 13.5546C6.18496 13.9063 5.90369 14.2258 5.51379 14.2258H3.87069C2.76983 14.2258 1.83887 13.3237 1.83887 12.1939V7.49569ZM6.74236 8.13748C6.74236 7.75379 7.02987 7.46631 7.41353 7.46631C7.80343 7.46631 8.08471 7.78575 8.08471 8.13748V18.3005H16.139V8.13748C16.139 7.74758 16.4584 7.46631 16.8101 7.46631C17.2 7.46631 17.4813 7.78575 17.4813 8.13748V18.946C17.4813 19.1332 17.4124 19.304 17.284 19.4278C17.1558 19.5512 16.98 19.6171 16.7845 19.6172H7.41353C7.02364 19.6172 6.74236 19.2977 6.74236 18.946V8.13748ZM7.41353 7.83297C7.23236 7.83297 7.10903 7.9563 7.10903 8.13748V18.946C7.10903 19.1079 7.23857 19.2505 7.41353 19.2505H16.7842C16.8969 19.2505 16.9779 19.2135 17.0295 19.1638C17.0808 19.1143 17.1147 19.0413 17.1147 18.946V8.13748C17.1147 7.9756 16.985 7.83297 16.8101 7.83297C16.6483 7.83297 16.5056 7.96252 16.5056 8.13748V18.6672H7.71804V8.13748C7.71804 7.9756 7.5885 7.83297 7.41353 7.83297ZM12.1376 8.57755C10.5187 8.57755 9.21434 9.88175 9.21434 11.5006C9.21434 13.1197 10.5187 14.4239 12.1376 14.4239C13.7564 14.4239 15.0609 13.1195 15.0609 11.5008C15.0609 9.88175 13.7564 8.57755 12.1376 8.57755ZM8.84768 11.5006C8.84768 9.67922 10.3162 8.21088 12.1376 8.21088C13.9589 8.21088 15.4275 9.67923 15.4275 11.5008C15.4275 13.322 13.9589 14.7905 12.1376 14.7905C10.3162 14.7905 8.84768 13.3222 8.84768 11.5006ZM9.79773 11.5262C9.79773 10.2169 10.8567 9.18633 12.1376 9.18633C13.4185 9.18633 14.4774 10.2171 14.4774 11.5262C14.4774 12.8355 13.4185 13.8661 12.1376 13.8661C10.8282 13.8661 9.79773 12.8071 9.79773 11.5262ZM12.1376 9.553C11.0563 9.553 10.1644 10.4222 10.1644 11.5262C10.1644 12.6074 11.0336 13.4994 12.1376 13.4994C13.2188 13.4994 14.1107 12.6302 14.1107 11.5262C14.1107 10.4224 13.2188 9.553 12.1376 9.553Z" fill="#3D444F"/>
</g>
<defs>
<clipPath id="clip0_9394_7073">
<rect width="22" height="15.5833" fill="white" transform="translate(1.10547 4.73047)"/>
</clipPath>
</defs>
</svg>
