<svg width="24" height="25" viewBox="0 0 24 25" fill="none" xmlns="http://www.w3.org/2000/svg">
<path d="M6.31756 7.61447C6.50679 7.61578 6.68789 7.69153 6.8217 7.82533C6.9555 7.95914 7.03125 8.14024 7.03256 8.32947L7.00156 18.7005C7.00156 20.8275 7.00156 21.8005 10.1016 21.8005H13.9146C17.0146 21.8005 17.0146 20.8275 17.0146 18.7005L17.0466 8.33047C17.0479 8.14124 17.1236 7.96014 17.2574 7.82633C17.3912 7.69253 17.5723 7.61678 17.7616 7.61547C17.9508 7.61678 18.1319 7.69253 18.2657 7.82633C18.3995 7.96014 18.4753 8.14124 18.4766 8.33047L18.4446 18.7005C18.4446 20.8305 18.4446 23.2305 13.9146 23.2305H10.1006C5.57056 23.2305 5.57056 20.8305 5.57056 18.7005L5.60256 8.33047C5.60361 8.14107 5.67924 7.95971 5.81308 7.82569C5.94691 7.69167 6.12816 7.61578 6.31756 7.61447Z" fill="#3D444F"/>
<path d="M9.14736 2.23046L14.8684 2.23046C20.0474 2.23046 22.2594 4.44346 22.2594 9.62046V11.1895C22.2675 11.2911 22.2545 11.3933 22.2213 11.4898C22.1881 11.5862 22.1354 11.6747 22.0664 11.7498C21.9974 11.8249 21.9136 11.8849 21.8204 11.9262C21.7271 11.9674 21.6263 11.989 21.5244 11.9895C21.1664 11.9895 20.8244 11.8985 20.8244 11.1895V9.62046C20.8244 5.22046 19.2604 3.66046 14.8644 3.66046L9.14237 3.66046C4.74236 3.66046 3.18237 5.22446 3.18237 9.62046V11.3285C3.18237 11.5181 3.10703 11.6999 2.97295 11.834C2.83886 11.9681 2.657 12.0435 2.46737 12.0435C2.27773 12.0435 2.09587 11.9681 1.96178 11.834C1.8277 11.6999 1.75237 11.5181 1.75237 11.3285V9.62046C1.75937 4.44346 3.96936 2.23046 9.14736 2.23046Z" fill="#3D444F"/>
<path d="M18.6646 8.3194L5.31363 8.3194C5.12441 8.31809 4.9433 8.24234 4.8095 8.10854C4.67569 7.97473 4.59994 7.79363 4.59863 7.6044C4.59994 7.41518 4.67569 7.23408 4.8095 7.10027C4.9433 6.96646 5.12441 6.89071 5.31363 6.8894L18.6646 6.8894C18.8539 6.89071 19.035 6.96646 19.1688 7.10027C19.3026 7.23408 19.3783 7.41518 19.3796 7.6044C19.3783 7.79363 19.3026 7.97473 19.1688 8.10854C19.035 8.24234 18.8539 8.31809 18.6646 8.3194Z" fill="#3D444F"/>
<path d="M8.88789 13.4564C8.88789 12.8433 9.0697 12.244 9.41033 11.7342C9.75097 11.2244 10.2351 10.8271 10.8016 10.5924C11.368 10.3578 11.9913 10.2964 12.5927 10.416C13.194 10.5356 13.7464 10.8309 14.1799 11.2644C14.6135 11.698 14.9087 12.2503 15.0283 12.8517C15.1479 13.453 15.0865 14.0763 14.8519 14.6428C14.6173 15.2092 14.2199 15.6934 13.7102 16.034C13.2004 16.3746 12.601 16.5564 11.9879 16.5564C11.1661 16.5551 10.3784 16.2281 9.79732 15.647C9.21624 15.0659 8.88921 14.2782 8.88789 13.4564ZM13.6559 13.4564C13.6561 13.1263 13.5583 12.8034 13.375 12.5288C13.1917 12.2542 12.9311 12.0401 12.626 11.9137C12.321 11.7872 11.9854 11.7541 11.6615 11.8185C11.3377 11.8828 11.0402 12.0418 10.8067 12.2753C10.5733 12.5088 10.4143 12.8062 10.3499 13.1301C10.2855 13.4539 10.3187 13.7896 10.4451 14.0946C10.5716 14.3996 10.7856 14.6603 11.0603 14.8436C11.3349 15.0269 11.6577 15.1246 11.9879 15.1244C12.4299 15.1226 12.8533 14.9463 13.166 14.634C13.4788 14.3216 13.6555 13.8984 13.6579 13.4564H13.6559Z" fill="#3D444F"/>
<path d="M8.88789 19.6545C8.88921 19.4649 8.96523 19.2835 9.09947 19.1496C9.2337 19.0158 9.41532 18.9402 9.60489 18.9395H14.3729C14.5621 18.9408 14.7432 19.0165 14.877 19.1503C15.0108 19.2841 15.0866 19.4652 15.0879 19.6545C15.0866 19.8437 15.0108 20.0248 14.877 20.1586C14.7432 20.2924 14.5621 20.3681 14.3729 20.3695H9.60489C9.41532 20.3687 9.2337 20.2931 9.09947 20.1593C8.96523 20.0254 8.88921 19.844 8.88789 19.6545Z" fill="#3D444F"/>
<path d="M6.1473 12.1346L2.4523 12.1346C2.26308 12.1333 2.08198 12.0575 1.94817 11.9237C1.81436 11.7899 1.73861 11.6088 1.7373 11.4196C1.73861 11.2304 1.81436 11.0493 1.94817 10.9155C2.08198 10.7817 2.26308 10.7059 2.4523 10.7046L6.1473 10.7046C6.33653 10.7059 6.51763 10.7817 6.65144 10.9155C6.78524 11.0493 6.861 11.2304 6.8623 11.4196C6.861 11.6088 6.78524 11.7899 6.65144 11.9237C6.51763 12.0575 6.33653 12.1333 6.1473 12.1346Z" fill="#3D444F"/>
<path d="M21.5252 12.1346L17.8722 12.1346C17.683 12.1333 17.5019 12.0575 17.3681 11.9237C17.2343 11.7899 17.1585 11.6088 17.1572 11.4196C17.1585 11.2304 17.2343 11.0493 17.3681 10.9155C17.5019 10.7817 17.683 10.7059 17.8722 10.7046L21.5252 10.7046C21.7145 10.7059 21.8956 10.7817 22.0294 10.9155C22.1632 11.0493 22.2389 11.2304 22.2402 11.4196C22.2389 11.6088 22.1632 11.7899 22.0294 11.9237C21.8956 12.0575 21.7145 12.1333 21.5252 12.1346Z" fill="#3D444F"/>
</svg>
