<svg width="24" height="25" viewBox="0 0 24 25" fill="none" xmlns="http://www.w3.org/2000/svg">
<path d="M20.044 12.4328H3.95804C3.54398 12.431 3.14739 12.2657 2.85451 11.973C2.56163 11.6804 2.39615 11.2839 2.39404 10.8698V7.90281C2.40264 7.59281 2.49977 7.29175 2.67395 7.03517C2.84814 6.77859 3.0921 6.57721 3.37704 6.45481L11.42 3.23781C11.7958 3.10367 12.2063 3.10367 12.582 3.23781L20.624 6.45481C20.9083 6.57822 21.1516 6.77985 21.3256 7.03621C21.4996 7.29257 21.5972 7.59311 21.607 7.90281V10.8698C21.6049 11.2837 21.4396 11.68 21.1469 11.9727C20.8543 12.2654 20.4579 12.4307 20.044 12.4328ZM12 4.47081C11.9701 4.46841 11.9399 4.47146 11.911 4.47981L3.87704 7.69681C3.80458 7.74445 3.75334 7.81826 3.73404 7.90281V10.8698C3.73378 10.8992 3.73936 10.9283 3.75047 10.9555C3.76159 10.9826 3.778 11.0073 3.79876 11.0281C3.81952 11.0488 3.84421 11.0653 3.87139 11.0764C3.89857 11.0875 3.92768 11.0931 3.95704 11.0928H20.044C20.0734 11.0931 20.1025 11.0875 20.1297 11.0764C20.1569 11.0653 20.1816 11.0488 20.2023 11.0281C20.2231 11.0073 20.2395 10.9826 20.2506 10.9555C20.2617 10.9283 20.2673 10.8992 20.267 10.8698V7.90281C20.2595 7.86019 20.2428 7.81971 20.2181 7.78415C20.1934 7.74859 20.1613 7.7188 20.124 7.69681L12.081 4.47981C12.0549 4.47128 12.0274 4.46822 12 4.47081Z" fill="#3D444F"/>
<path d="M20.937 22.2629H3.06404C2.88675 22.2616 2.71709 22.1906 2.59173 22.0652C2.46636 21.9398 2.39535 21.7702 2.39404 21.5929V18.9119C2.39588 18.4977 2.56125 18.1009 2.85416 17.808C3.14707 17.5151 3.54381 17.3497 3.95804 17.3479H20.044C20.4583 17.3497 20.855 17.5151 21.1479 17.808C21.4408 18.1009 21.6062 18.4977 21.608 18.9119V21.5929C21.6067 21.7704 21.5356 21.9402 21.41 22.0656C21.2844 22.191 21.1145 22.2619 20.937 22.2629ZM3.73704 20.9229H20.266V18.9119C20.2663 18.8825 20.2607 18.8534 20.2496 18.8262C20.2385 18.7991 20.2221 18.7744 20.2013 18.7536C20.1806 18.7329 20.1559 18.7164 20.1287 18.7053C20.1015 18.6942 20.0724 18.6886 20.043 18.6889H3.95804C3.92868 18.6886 3.89957 18.6942 3.87239 18.7053C3.84521 18.7164 3.82052 18.7329 3.79976 18.7536C3.779 18.7744 3.76259 18.7991 3.75147 18.8262C3.74036 18.8534 3.73478 18.8825 3.73504 18.9119L3.73704 20.9229Z" fill="#3D444F"/>
<path d="M4.85115 18.6888C4.67386 18.6875 4.5042 18.6165 4.37884 18.4911C4.25347 18.3657 4.18246 18.1961 4.18115 18.0188V11.7628C4.18115 11.5851 4.25174 11.4147 4.37739 11.289C4.50304 11.1634 4.67346 11.0928 4.85115 11.0928C5.02885 11.0928 5.19926 11.1634 5.32491 11.289C5.45056 11.4147 5.52115 11.5851 5.52115 11.7628V18.0178C5.52011 18.1952 5.44921 18.3651 5.32382 18.4907C5.19842 18.6163 5.02862 18.6875 4.85115 18.6888Z" fill="#3D444F"/>
<path d="M8.42488 18.6888C8.24759 18.6875 8.07793 18.6165 7.95257 18.4911C7.8272 18.3657 7.75619 18.1961 7.75488 18.0188V11.7628C7.75488 11.5851 7.82547 11.4147 7.95112 11.289C8.07677 11.1634 8.24719 11.0928 8.42488 11.0928C8.60258 11.0928 8.773 11.1634 8.89864 11.289C9.02429 11.4147 9.09488 11.5851 9.09488 11.7628V18.0178C9.09384 18.1952 9.02294 18.3651 8.89755 18.4907C8.77215 18.6163 8.60235 18.6875 8.42488 18.6888Z" fill="#3D444F"/>
<path d="M12.0001 18.6888C11.8228 18.6875 11.6531 18.6165 11.5278 18.4911C11.4024 18.3657 11.3314 18.1961 11.3301 18.0188V11.7628C11.3301 11.5851 11.4007 11.4147 11.5263 11.289C11.652 11.1634 11.8224 11.0928 12.0001 11.0928C12.1778 11.0928 12.3482 11.1634 12.4738 11.289C12.5995 11.4147 12.6701 11.5851 12.6701 11.7628V18.0178C12.669 18.1952 12.5981 18.3651 12.4727 18.4907C12.3473 18.6163 12.1775 18.6875 12.0001 18.6888Z" fill="#3D444F"/>
<path d="M15.5738 18.6888C15.3965 18.6875 15.2269 18.6165 15.1015 18.4911C14.9761 18.3657 14.9051 18.1961 14.9038 18.0188V11.7628C14.9038 11.5851 14.9744 11.4147 15.1 11.289C15.2257 11.1634 15.3961 11.0928 15.5738 11.0928C15.7515 11.0928 15.9219 11.1634 16.0476 11.289C16.1732 11.4147 16.2438 11.5851 16.2438 11.7628V18.0178C16.2428 18.1952 16.1719 18.3651 16.0465 18.4907C15.9211 18.6163 15.7513 18.6875 15.5738 18.6888Z" fill="#3D444F"/>
<path d="M19.149 18.6888C18.9717 18.6875 18.8021 18.6165 18.6767 18.4911C18.5513 18.3657 18.4803 18.1961 18.479 18.0188V11.7628C18.479 11.5851 18.5496 11.4147 18.6752 11.289C18.8009 11.1634 18.9713 11.0928 19.149 11.0928C19.3267 11.0928 19.4971 11.1634 19.6228 11.289C19.7484 11.4147 19.819 11.5851 19.819 11.7628V18.0178C19.818 18.1952 19.7471 18.3651 19.6217 18.4907C19.4963 18.6163 19.3265 18.6875 19.149 18.6888Z" fill="#3D444F"/>
<path d="M21.83 22.2629H2.17C1.9923 22.2629 1.82189 22.1923 1.69624 22.0666C1.57059 21.941 1.5 21.7705 1.5 21.5929C1.5 21.4152 1.57059 21.2447 1.69624 21.1191C1.82189 20.9934 1.9923 20.9229 2.17 20.9229H21.83C22.0077 20.9229 22.1781 20.9934 22.3038 21.1191C22.4294 21.2447 22.5 21.4152 22.5 21.5929C22.5 21.7705 22.4294 21.941 22.3038 22.0666C22.1781 22.1923 22.0077 22.2629 21.83 22.2629Z" fill="#3D444F"/>
<path d="M11.9998 10.1988C11.602 10.1988 11.2132 10.0808 10.8825 9.85984C10.5518 9.63887 10.2941 9.3248 10.1418 8.95734C9.98964 8.58987 9.94982 8.18553 10.0274 7.79543C10.105 7.40534 10.2965 7.04701 10.5778 6.76577C10.859 6.48452 11.2173 6.29299 11.6074 6.2154C11.9975 6.1378 12.4019 6.17763 12.7693 6.32984C13.1368 6.48204 13.4509 6.7398 13.6719 7.07051C13.8928 7.40121 14.0108 7.79002 14.0108 8.18776C14.01 8.72087 13.7978 9.23191 13.4209 9.60887C13.0439 9.98584 12.5329 10.198 11.9998 10.1988ZM11.9998 7.51776C11.8673 7.51776 11.7377 7.55705 11.6275 7.63067C11.5174 7.70429 11.4315 7.80893 11.3808 7.93136C11.3301 8.05379 11.3168 8.1885 11.3426 8.31847C11.3685 8.44844 11.4323 8.56782 11.526 8.66152C11.6197 8.75522 11.7391 8.81903 11.8691 8.84489C11.999 8.87074 12.1337 8.85747 12.2562 8.80676C12.3786 8.75605 12.4832 8.67017 12.5569 8.55999C12.6305 8.44981 12.6698 8.32027 12.6698 8.18776C12.6685 8.01047 12.5975 7.84081 12.4721 7.71544C12.3467 7.59008 12.1771 7.51907 11.9998 7.51776Z" fill="#3D444F"/>
</svg>
