<svg width="25" height="25" viewBox="0 0 25 25" fill="none" xmlns="http://www.w3.org/2000/svg">
<g clip-path="url(#clip0_9394_7075)">
<path d="M20.6055 5.22897C20.6055 4.89612 20.2815 4.62618 19.8821 4.62618H16.0568C15.718 3.1802 14.1877 2.08521 12.3549 2.08521C10.5236 2.08521 8.99408 3.1802 8.6555 4.62618H4.82957C4.4296 4.62618 4.10547 4.89612 4.10547 5.22897C4.10547 5.56229 4.4294 5.8324 4.82957 5.8324H8.65606C8.99407 7.27733 10.5236 8.37233 12.3549 8.37233C14.1873 8.37233 15.718 7.27733 16.0568 5.83224H19.8821C20.2815 5.83224 20.6055 5.5623 20.6055 5.22897ZM12.355 7.1661C11.0737 7.1661 10.0321 6.29718 10.0321 5.22882C10.0321 4.16019 11.0737 3.29108 12.355 3.29108C13.6373 3.29108 14.6808 4.15999 14.6808 5.22882C14.6808 6.29718 13.6373 7.1661 12.355 7.1661Z" fill="#3D444F"/>
<path d="M12.3565 16.3052C11.1348 16.3052 10.1416 17.1338 10.1416 18.1519V21.8836C10.1416 22.9017 11.135 23.7304 12.3565 23.7304C13.5781 23.7304 14.5726 22.9017 14.5726 21.8836V18.1521C14.5726 17.1341 13.5781 16.3052 12.3565 16.3052ZM13.1254 21.8839C13.1254 22.2375 12.7806 22.5246 12.3565 22.5246C11.9329 22.5246 11.5887 22.2373 11.5887 21.8839V18.1522C11.5887 17.7986 11.9329 17.5114 12.3565 17.5114C12.7807 17.5114 13.1254 17.7988 13.1254 18.1522V21.8839Z" fill="#3D444F"/>
<path d="M15.5087 20.3463C15.6073 20.3847 15.7123 20.4039 15.8175 20.4039C15.9822 20.4039 16.1455 20.3571 16.2776 20.2661C17.4713 19.4469 18.1555 18.2386 18.1555 16.9511V12.859C18.1555 10.4925 15.8451 8.56689 13.0045 8.56689H11.7068C8.86746 8.56689 6.55713 10.4923 6.55713 12.859V16.9511C6.55713 18.2367 7.24118 19.4449 8.43364 20.2647C8.65026 20.4127 8.94949 20.4441 9.20253 20.3448C9.45626 20.245 9.61749 20.0325 9.61749 19.7993V18.1001C9.61749 16.8421 10.8454 15.8187 12.3552 15.8187C13.8648 15.8187 15.0934 16.8419 15.0934 18.1001V19.8007C15.0938 20.0341 15.2556 20.2463 15.5087 20.3463ZM12.3555 14.6128C10.1337 14.6128 8.31076 16.0634 8.1786 17.8878C8.06453 17.5886 8.00457 17.273 8.00457 16.9513V12.8592C8.00457 11.1578 9.66515 9.77314 11.7067 9.77314H13.0044C15.0469 9.77314 16.7083 11.1576 16.7083 12.8592V16.9513C16.7083 17.2749 16.6481 17.5911 16.5335 17.8915C16.4037 16.0652 14.5792 14.6128 12.3555 14.6128Z" fill="#3D444F"/>
</g>
<defs>
<clipPath id="clip0_9394_7075">
<rect width="16.5" height="22" fill="white" transform="translate(4.10547 1.73047)"/>
</clipPath>
</defs>
</svg>
