<svg width="24" height="25" viewBox="0 0 24 25" fill="none" xmlns="http://www.w3.org/2000/svg">
<path d="M8.10258 6.62445C7.90885 6.62287 7.72353 6.54508 7.58672 6.4079C7.44992 6.27071 7.37263 6.08518 7.37158 5.89145V2.96245C7.37158 2.76857 7.4486 2.58264 7.58569 2.44555C7.72278 2.30846 7.90871 2.23145 8.10258 2.23145C8.29646 2.23145 8.48239 2.30846 8.61948 2.44555C8.75657 2.58264 8.83358 2.76857 8.83358 2.96245V5.89245C8.83228 6.08601 8.75487 6.27129 8.61809 6.40825C8.48131 6.54522 8.29614 6.62287 8.10258 6.62445Z" fill="#3D444F"/>
<path d="M15.8975 6.62445C15.7038 6.62287 15.5185 6.54508 15.3816 6.4079C15.2448 6.27071 15.1675 6.08518 15.1665 5.89145V2.96245C15.1665 2.76857 15.2435 2.58264 15.3806 2.44555C15.5177 2.30846 15.7036 2.23145 15.8975 2.23145C16.0914 2.23145 16.2773 2.30846 16.4144 2.44555C16.5515 2.58264 16.6285 2.76857 16.6285 2.96245V5.89245C16.6272 6.08601 16.5498 6.27129 16.413 6.40825C16.2762 6.54522 16.0911 6.62287 15.8975 6.62445Z" fill="#3D444F"/>
<path d="M14.9225 23.2293H9.07651C3.60051 23.2293 2.49951 20.6413 2.49951 16.4603V10.4343C2.49951 5.80434 4.05851 3.91934 8.06351 3.69434H15.9365C19.9365 3.91934 21.5005 5.80434 21.5005 10.4343V16.4613C21.4995 20.6443 20.3985 23.2293 14.9225 23.2293ZM8.10251 5.15934C5.37351 5.31534 3.96151 6.17534 3.96151 10.4343V16.4613C3.96151 20.2023 4.67251 21.7613 9.07651 21.7613H14.9225C19.3225 21.7613 20.0375 20.1983 20.0375 16.4613V10.4343C20.0375 6.18534 18.6375 5.31634 15.8765 5.16034L8.10251 5.15934Z" fill="#3D444F"/>
<path d="M20.5255 18.9316H3.47449C3.2849 18.9245 3.10541 18.8443 2.97376 18.7077C2.84211 18.5711 2.76855 18.3888 2.76855 18.1991C2.76855 18.0093 2.84211 17.827 2.97376 17.6904C3.10541 17.5538 3.2849 17.4736 3.47449 17.4666H20.5255C20.7151 17.4736 20.8946 17.5538 21.0262 17.6904C21.1579 17.827 21.2314 18.0093 21.2314 18.1991C21.2314 18.3888 21.1579 18.5711 21.0262 18.7077C20.8946 18.8443 20.7151 18.9245 20.5255 18.9316Z" fill="#3D444F"/>
<path d="M11.9995 9.06635C11.725 9.03218 11.4464 9.05623 11.1819 9.13691C10.9173 9.21759 10.6727 9.35311 10.464 9.53463C10.2553 9.71614 10.0872 9.93959 9.97067 10.1904C9.8541 10.4412 9.79168 10.7138 9.78748 10.9903C9.78185 11.2583 9.84409 11.5233 9.9684 11.7608C10.0927 11.9982 10.2751 12.2003 10.4985 12.3483C10.2149 12.5037 9.97842 12.7327 9.81389 13.011C9.64936 13.2894 9.56286 13.607 9.56348 13.9304C9.56348 15.1414 10.4895 15.8933 11.9995 15.8933C13.5095 15.8933 14.4355 15.1414 14.4355 13.9304C14.4369 13.6056 14.3496 13.2867 14.1831 13.0079C14.0165 12.7291 13.7771 12.5011 13.4905 12.3483C13.7146 12.2011 13.8975 11.9991 14.022 11.7615C14.1464 11.5239 14.2081 11.2585 14.2015 10.9903C14.1984 10.7144 14.137 10.4421 14.0215 10.1915C13.9059 9.9408 13.7387 9.71736 13.5309 9.53575C13.323 9.35414 13.0792 9.21846 12.8153 9.13757C12.5514 9.05668 12.2734 9.03241 11.9995 9.06635ZM11.9995 11.8404C11.8895 11.8522 11.7782 11.8409 11.6728 11.8072C11.5675 11.7734 11.4704 11.718 11.3877 11.6444C11.3051 11.5708 11.2388 11.4807 11.1931 11.38C11.1474 11.2792 11.1234 11.17 11.1225 11.0594C11.1226 10.9488 11.1462 10.8396 11.1918 10.739C11.2374 10.6383 11.3038 10.5485 11.3868 10.4754C11.4697 10.4024 11.5672 10.3479 11.6729 10.3155C11.7785 10.283 11.8899 10.2734 11.9995 10.2873C12.1091 10.2734 12.2204 10.283 12.3261 10.3155C12.4317 10.3479 12.5293 10.4024 12.6122 10.4754C12.6951 10.5485 12.7616 10.6383 12.8072 10.739C12.8527 10.8396 12.8764 10.9488 12.8765 11.0594C12.8756 11.17 12.8515 11.2792 12.8058 11.38C12.7601 11.4807 12.6939 11.5708 12.6112 11.6444C12.5286 11.718 12.4315 11.7734 12.3261 11.8072C12.2207 11.8409 12.1095 11.8522 11.9995 11.8404ZM11.9995 14.6824C11.3565 14.6824 10.8885 14.3604 10.8885 13.7744C10.8885 13.1884 11.3565 12.8743 11.9995 12.8743C12.6425 12.8743 13.1105 13.1964 13.1105 13.7744C13.1105 14.3524 12.6425 14.6824 11.9995 14.6824Z" fill="#3D444F"/>
</svg>
