<svg width="22" height="22" viewBox="0 0 22 22" fill="none" xmlns="http://www.w3.org/2000/svg">
<path d="M15 8C15 11.87 11.87 15 8 15C7.68 15 7.37 14.98 7.07 14.93C3.64 14.48 1 11.55 1 8C1 4.13 4.13 1 8 1C11.55 1 14.48 3.64 14.93 7.07C14.98 7.37 15 7.68 15 8Z" stroke="#3D444F" stroke-width="1.5" stroke-linecap="round" stroke-linejoin="round"/>
<path d="M21.0003 13.9998C21.0003 17.8698 17.8703 20.9998 14.0003 20.9998C10.4503 20.9998 7.52031 18.3598 7.07031 14.9298C7.37031 14.9798 7.68031 14.9998 8.00031 14.9998C11.8703 14.9998 15.0003 11.8698 15.0003 7.99982C15.0003 7.67982 14.9803 7.36982 14.9303 7.06982C18.3603 7.51982 21.0003 10.4498 21.0003 13.9998Z" stroke="#3D444F" stroke-width="1.5" stroke-linecap="round" stroke-linejoin="round"/>
<path d="M13.1504 13.1201L14.4604 14.4101" stroke="#3D444F" stroke-width="1.5" stroke-linecap="round" stroke-linejoin="round"/>
<path d="M16 11L15 10" stroke="#3D444F" stroke-width="1.5" stroke-linecap="round" stroke-linejoin="round"/>
<path d="M11 16L10 15" stroke="#3D444F" stroke-width="1.5" stroke-linecap="round" stroke-linejoin="round"/>
</svg>
