<svg width="25" height="25" viewBox="0 0 25 25" fill="none" xmlns="http://www.w3.org/2000/svg">
<path d="M12.3848 10.7305C14.5939 10.7305 16.3848 8.93961 16.3848 6.73047C16.3848 4.52133 14.5939 2.73047 12.3848 2.73047C10.1756 2.73047 8.38477 4.52133 8.38477 6.73047C8.38477 8.93961 10.1756 10.7305 12.3848 10.7305Z" stroke="#3D444F" stroke-width="1.5"/>
<path d="M15.3848 14.0575C14.4 13.8376 13.3938 13.7279 12.3848 13.7305C7.96677 13.7305 4.38477 15.7455 4.38477 18.2305C4.38477 20.7155 4.38477 22.7305 12.3848 22.7305C18.0718 22.7305 19.7158 21.7125 20.1918 20.2305" stroke="#3D444F" stroke-width="1.5"/>
<path d="M21.2139 13.9016C21.5853 14.273 21.88 14.714 22.081 15.1993C22.282 15.6846 22.3855 16.2048 22.3855 16.7301C22.3855 17.2554 22.282 17.7755 22.081 18.2609C21.88 18.7462 21.5853 19.1871 21.2139 19.5586C20.8424 19.93 20.4015 20.2247 19.9162 20.4257C19.4308 20.6267 18.9107 20.7302 18.3854 20.7302C17.8601 20.7302 17.3399 20.6267 16.8546 20.4257C16.3693 20.2247 15.9283 19.93 15.5569 19.5586L21.2129 13.9026M15.5559 19.5586C14.8057 18.8084 14.3843 17.791 14.3843 16.7301C14.3843 16.2048 14.4877 15.6846 14.6888 15.1993C14.8898 14.714 15.1844 14.273 15.5559 13.9016C15.9273 13.5301 16.3683 13.2355 16.8536 13.0345C17.3389 12.8334 17.8591 12.73 18.3844 12.73C19.4453 12.73 20.4627 13.1514 21.2129 13.9016" stroke="#3D444F" stroke-width="1.5" stroke-linejoin="round"/>
</svg>
