<svg width="24" height="24" viewBox="0 0 24 24" fill="none" xmlns="http://www.w3.org/2000/svg">
<path d="M12 10C14.2091 10 16 8.20914 16 6C16 3.79086 14.2091 2 12 2C9.79086 2 8 3.79086 8 6C8 8.20914 9.79086 10 12 10Z" stroke="#3D444F" stroke-width="1.5"/>
<path d="M15 13.327C14.0152 13.1071 13.009 12.9974 12 13C7.582 13 4 15.015 4 17.5C4 19.985 4 22 12 22C17.687 22 19.331 20.982 19.807 19.5" stroke="#3D444F" stroke-width="1.5"/>
<path d="M20.8291 13.1711C21.2006 13.5426 21.4952 13.9835 21.6962 14.4688C21.8973 14.9542 22.0007 15.4743 22.0007 15.9996C22.0007 16.5249 21.8973 17.0451 21.6962 17.5304C21.4952 18.0157 21.2006 18.4567 20.8291 18.8281C20.4577 19.1996 20.0167 19.4942 19.5314 19.6952C19.0461 19.8963 18.5259 19.9997 18.0006 19.9997C17.4753 19.9997 16.9552 19.8963 16.4698 19.6952C15.9845 19.4942 15.5436 19.1996 15.1721 18.8281L20.8281 13.1721M15.1711 18.8281C14.4209 18.0779 13.9995 17.0605 13.9995 15.9996C13.9995 15.4743 14.103 14.9542 14.304 14.4688C14.505 13.9835 14.7997 13.5426 15.1711 13.1711C15.5426 12.7997 15.9835 12.505 16.4688 12.304C16.9542 12.103 17.4743 11.9995 17.9996 11.9995C19.0605 11.9995 20.0779 12.4209 20.8281 13.1711" stroke="#3D444F" stroke-width="1.5" stroke-linejoin="round"/>
</svg>
