<svg width="24" height="25" viewBox="0 0 24 25" fill="none" xmlns="http://www.w3.org/2000/svg">
<path d="M15.1663 10.039H2.23425C2.04466 10.032 1.86518 9.95174 1.73353 9.81514C1.60188 9.67853 1.52832 9.4962 1.52832 9.30649C1.52832 9.11677 1.60188 8.93444 1.73353 8.79784C1.86518 8.66123 2.04466 8.58099 2.23425 8.57399H15.1663C15.2647 8.57035 15.3629 8.5866 15.455 8.62177C15.547 8.65695 15.631 8.71032 15.702 8.77869C15.7729 8.84707 15.8294 8.92905 15.8679 9.01974C15.9065 9.11042 15.9263 9.20795 15.9263 9.30649C15.9263 9.40502 15.9065 9.50255 15.8679 9.59324C15.8294 9.68392 15.7729 9.7659 15.702 9.83428C15.631 9.90266 15.547 9.95603 15.455 9.9912C15.3629 10.0264 15.2647 10.0426 15.1663 10.039Z" fill="#3D444F"/>
<path d="M7.4005 17.8529H6.1405C5.95091 17.8459 5.77143 17.7657 5.63978 17.6291C5.50813 17.4925 5.43457 17.3102 5.43457 17.1204C5.43457 16.9307 5.50813 16.7484 5.63978 16.6118C5.77143 16.4752 5.95091 16.3949 6.1405 16.3879H7.4005C7.59009 16.3949 7.76957 16.4752 7.90122 16.6118C8.03287 16.7484 8.10643 16.9307 8.10643 17.1204C8.10643 17.3102 8.03287 17.4925 7.90122 17.6291C7.76957 17.7657 7.59009 17.8459 7.4005 17.8529Z" fill="#3D444F"/>
<path d="M14.4423 17.8529H11.0253C10.8357 17.8459 10.6562 17.7657 10.5245 17.6291C10.3929 17.4925 10.3193 17.3102 10.3193 17.1204C10.3193 16.9307 10.3929 16.7484 10.5245 16.6118C10.6562 16.4752 10.8357 16.3949 11.0253 16.3879H14.4423C14.6319 16.3949 14.8113 16.4752 14.943 16.6118C15.0746 16.7484 15.1482 16.9307 15.1482 17.1204C15.1482 17.3102 15.0746 17.4925 14.943 17.6291C14.8113 17.7657 14.6319 17.8459 14.4423 17.8529Z" fill="#3D444F"/>
<path d="M17.4321 21.761H8.07507C7.88548 21.754 7.706 21.6738 7.57435 21.5372C7.4427 21.4006 7.36914 21.2182 7.36914 21.0285C7.36914 20.8388 7.4427 20.6565 7.57435 20.5199C7.706 20.3833 7.88548 20.303 8.07507 20.296H17.4321C20.4991 20.296 21.0321 19.769 21.0321 16.741V7.73401C21.0391 7.54442 21.1193 7.36493 21.2559 7.23328C21.3925 7.10163 21.5749 7.02808 21.7646 7.02808C21.9543 7.02808 22.1366 7.10163 22.2732 7.23328C22.4098 7.36493 22.4901 7.54442 22.4971 7.73401V16.734C22.5011 20.588 21.3191 21.761 17.4321 21.761Z" fill="#3D444F"/>
<path d="M3.90395 21.408C3.81097 21.4059 3.71887 21.3894 3.63095 21.359C1.86295 20.659 1.50195 19.005 1.50195 16.739V8.71002C1.50195 4.86202 2.68395 3.69002 6.57095 3.69002H17.422C18.2908 3.65983 19.1594 3.75515 20.001 3.97302C20.0956 3.99798 20.1842 4.04163 20.2617 4.10138C20.3391 4.16114 20.4039 4.2358 20.452 4.32097C20.5002 4.40613 20.5308 4.50008 20.5421 4.59726C20.5534 4.69445 20.5451 4.79291 20.5177 4.88684C20.4903 4.98077 20.4444 5.06827 20.3827 5.14418C20.321 5.22009 20.2447 5.28288 20.1583 5.32884C20.0719 5.37481 19.9773 5.40302 19.8798 5.4118C19.7824 5.42059 19.6842 5.40979 19.591 5.38002C18.8813 5.21081 18.152 5.13849 17.423 5.16502H6.56995C3.50295 5.16502 2.96995 5.69202 2.96995 8.72002V16.74C2.96995 19.074 3.38995 19.69 4.18095 20.002C4.27028 20.037 4.3518 20.0893 4.42082 20.1559C4.48985 20.2225 4.545 20.3021 4.58311 20.3902C4.62123 20.4782 4.64154 20.5729 4.64289 20.6688C4.64423 20.7647 4.62658 20.86 4.59095 20.949C4.53496 21.0851 4.43971 21.2014 4.31736 21.2832C4.19501 21.3649 4.0511 21.4084 3.90395 21.408Z" fill="#3D444F"/>
<path d="M2.23416 23.2251C2.13785 23.2255 2.04244 23.2067 1.95349 23.1698C1.86455 23.1328 1.78386 23.0785 1.71616 23.0101C1.58015 22.8721 1.50391 22.6862 1.50391 22.4926C1.50391 22.2989 1.58015 22.113 1.71616 21.9751L21.2512 2.44006C21.3893 2.30728 21.574 2.23397 21.7656 2.23588C21.9573 2.23778 22.1405 2.31474 22.276 2.45024C22.4115 2.58573 22.4884 2.76896 22.4903 2.96057C22.4922 3.15218 22.4189 3.3369 22.2862 3.47506L2.75116 23.0101C2.68357 23.0784 2.60305 23.1326 2.51428 23.1696C2.42552 23.2065 2.33029 23.2253 2.23416 23.2251Z" fill="#3D444F"/>
</svg>
