<svg width="24" height="25" viewBox="0 0 24 25" fill="none" xmlns="http://www.w3.org/2000/svg">
<path d="M5.91579 9.13135C5.63731 9.13155 5.36515 9.21432 5.13372 9.36919C4.90228 9.52407 4.72197 9.7441 4.61558 10.0015C4.5092 10.2588 4.48152 10.5419 4.53604 10.815C4.59056 11.0881 4.72484 11.3389 4.92189 11.5357C5.11894 11.7324 5.36992 11.8664 5.64308 11.9205C5.91625 11.9746 6.19933 11.9465 6.45653 11.8398C6.71373 11.733 6.93351 11.5524 7.08805 11.3208C7.2426 11.0891 7.32499 10.8168 7.32479 10.5383C7.32399 10.1651 7.17523 9.80737 6.9111 9.54362C6.64698 9.27987 6.28905 9.13161 5.91579 9.13135ZM5.91579 11.2313C5.77877 11.2311 5.64488 11.1903 5.53105 11.1141C5.41722 11.0378 5.32855 10.9295 5.27625 10.8029C5.22396 10.6762 5.21037 10.5369 5.23723 10.4025C5.26408 10.2682 5.33016 10.1448 5.42712 10.048C5.52408 9.95115 5.64756 9.88525 5.78196 9.85859C5.91636 9.83193 6.05565 9.84571 6.18222 9.8982C6.30879 9.95068 6.41696 10.0395 6.49307 10.1534C6.56917 10.2674 6.60979 10.4013 6.60979 10.5383C6.60952 10.7223 6.53632 10.8987 6.40623 11.0288C6.27614 11.1589 6.09977 11.2321 5.91579 11.2323V11.2313Z" fill="#3D444F"/>
<path d="M5.91582 8.83936C6.25205 8.83936 6.58073 8.93906 6.86029 9.12586C7.13985 9.31266 7.35775 9.57816 7.48642 9.88879C7.61508 10.1994 7.64875 10.5412 7.58316 10.871C7.51756 11.2008 7.35565 11.5037 7.1179 11.7414C6.88015 11.9792 6.57724 12.1411 6.24747 12.2067C5.91771 12.2723 5.57589 12.2386 5.26526 12.11C4.95462 11.9813 4.68912 11.7634 4.50232 11.4838C4.31552 11.2043 4.21582 10.8756 4.21582 10.5394C4.21582 10.0885 4.39493 9.65609 4.71374 9.33727C5.03255 9.01846 5.46495 8.83936 5.91582 8.83936ZM5.91582 11.6544C6.13646 11.654 6.35203 11.5882 6.53529 11.4653C6.71855 11.3424 6.86128 11.168 6.94544 10.964C7.0296 10.7601 7.05142 10.5358 7.00813 10.3194C6.96485 10.1031 6.8584 9.9044 6.70225 9.74852C6.54609 9.59264 6.34723 9.48655 6.13081 9.44366C5.91438 9.40076 5.69009 9.42297 5.48629 9.5075C5.28248 9.59202 5.1083 9.73507 4.98576 9.91855C4.86322 10.102 4.79782 10.3177 4.79782 10.5384C4.79835 10.8345 4.91637 11.1184 5.12598 11.3276C5.33559 11.5368 5.61965 11.6544 5.91582 11.6544ZM5.91582 9.55436C6.11059 9.55455 6.30093 9.61249 6.46278 9.72084C6.62464 9.8292 6.75073 9.9831 6.82513 10.1631C6.89953 10.3431 6.91889 10.5411 6.88077 10.7321C6.84265 10.9231 6.74876 11.0986 6.61097 11.2362C6.47317 11.3739 6.29766 11.4676 6.10662 11.5055C5.91557 11.5434 5.71757 11.5239 5.53765 11.4493C5.35772 11.3747 5.20394 11.2484 5.09575 11.0865C4.98756 10.9245 4.92982 10.7341 4.92982 10.5394C4.92982 10.2779 5.0337 10.0271 5.21861 9.84215C5.40352 9.65724 5.65432 9.55436 5.91582 9.55436ZM5.91582 10.9414C5.99493 10.9414 6.07227 10.9179 6.13805 10.8739C6.20383 10.83 6.2551 10.7675 6.28537 10.6944C6.31565 10.6213 6.32357 10.5409 6.30813 10.4633C6.2927 10.3857 6.2546 10.3145 6.19866 10.2585C6.14272 10.2026 6.07145 10.1645 5.99386 10.149C5.91626 10.1336 5.83584 10.1415 5.76275 10.1718C5.68966 10.2021 5.62719 10.2533 5.58323 10.3191C5.53928 10.3849 5.51582 10.4622 5.51582 10.5414C5.51609 10.6473 5.55834 10.7488 5.63333 10.8236C5.70832 10.8984 5.80991 10.9404 5.91582 10.9404V10.9414Z" fill="#3D444F"/>
<path d="M10.1531 8.9314C9.87466 8.93159 9.60254 9.01434 9.37112 9.16917C9.13971 9.32401 8.9594 9.54397 8.85299 9.80127C8.74657 10.0586 8.71883 10.3416 8.77327 10.6147C8.82771 10.8878 8.96189 11.1385 9.15884 11.3354C9.35579 11.5322 9.60668 11.6662 9.87977 11.7204C10.1529 11.7747 10.4359 11.7467 10.6931 11.6401C10.9504 11.5335 11.1702 11.3531 11.3249 11.1215C11.4795 10.89 11.5621 10.6178 11.5621 10.3394C11.5616 9.96596 11.4129 9.60799 11.1488 9.34402C10.8846 9.08006 10.5265 8.93166 10.1531 8.9314ZM10.1531 11.0314C10.0161 11.0312 9.88219 10.9904 9.76836 10.9141C9.65453 10.8379 9.56586 10.7295 9.51356 10.6029C9.46126 10.4763 9.44768 10.3369 9.47453 10.2026C9.50138 10.0682 9.56747 9.94484 9.66442 9.84802C9.76138 9.7512 9.88486 9.6853 10.0193 9.65864C10.1537 9.63198 10.293 9.64576 10.4195 9.69824C10.5461 9.75072 10.6543 9.83955 10.7304 9.95349C10.8065 10.0674 10.8471 10.2014 10.8471 10.3384C10.8471 10.4295 10.8291 10.5198 10.7943 10.604C10.7594 10.6882 10.7083 10.7647 10.6438 10.8291C10.5794 10.8936 10.5029 10.9447 10.4187 10.9796C10.3345 11.0144 10.2442 11.0324 10.1531 11.0324V11.0314Z" fill="#3D444F"/>
<path d="M10.1521 8.64038C10.4884 8.64038 10.8171 8.74008 11.0966 8.92688C11.3762 9.11368 11.5941 9.37918 11.7227 9.68982C11.8514 10.0005 11.8851 10.3423 11.8195 10.672C11.7539 11.0018 11.592 11.3047 11.3542 11.5425C11.1165 11.7802 10.8136 11.9421 10.4838 12.0077C10.154 12.0733 9.81222 12.0396 9.50159 11.911C9.19095 11.7823 8.92545 11.5644 8.73865 11.2849C8.55185 11.0053 8.45215 10.6766 8.45215 10.3404C8.45215 9.88951 8.63126 9.45711 8.95007 9.1383C9.26888 8.81949 9.70128 8.64038 10.1521 8.64038ZM10.1521 11.4554C10.3728 11.4552 10.5885 11.3896 10.7719 11.2668C10.9553 11.1441 11.0982 10.9697 11.1825 10.7658C11.2668 10.5618 11.2888 10.3375 11.2456 10.121C11.2024 9.90463 11.096 9.70587 10.9399 9.5499C10.7838 9.39392 10.585 9.28773 10.3685 9.24475C10.152 9.20177 9.92771 9.22393 9.72384 9.30843C9.51998 9.39292 9.34574 9.53597 9.22316 9.71947C9.10058 9.90297 9.03515 10.1187 9.03515 10.3394C9.03568 10.6354 9.15356 10.9191 9.36296 11.1283C9.57235 11.3375 9.85616 11.4551 10.1521 11.4554ZM10.1521 9.35538C10.347 9.35558 10.5373 9.41354 10.6992 9.52194C10.8611 9.63034 10.9872 9.7843 11.0616 9.96436C11.1359 10.1444 11.1552 10.3425 11.117 10.5335C11.0788 10.7246 10.9848 10.9 10.8469 11.0376C10.709 11.1752 10.5334 11.2688 10.3423 11.3066C10.1512 11.3445 9.95319 11.3248 9.77328 11.25C9.59337 11.1753 9.43966 11.0489 9.3316 10.8868C9.22353 10.7247 9.16595 10.5342 9.16615 10.3394C9.16668 10.0782 9.27079 9.82794 9.45565 9.64347C9.6405 9.45899 9.89099 9.35538 10.1521 9.35538ZM10.1521 10.7424C10.2313 10.7424 10.3086 10.7189 10.3744 10.675C10.4402 10.631 10.4914 10.5685 10.5217 10.4955C10.552 10.4224 10.5599 10.3419 10.5445 10.2643C10.529 10.1868 10.4909 10.1155 10.435 10.0595C10.3791 10.0036 10.3078 9.9655 10.2302 9.95007C10.1526 9.93463 10.0722 9.94255 9.99908 9.97283C9.92599 10.0031 9.86351 10.0544 9.81956 10.1202C9.77561 10.1859 9.75215 10.2633 9.75215 10.3424C9.75241 10.4483 9.79467 10.5498 9.86966 10.6246C9.94465 10.6994 10.0462 10.7414 10.1521 10.7414V10.7424Z" fill="#3D444F"/>
<path d="M14.1502 11.7464C14.4286 11.7462 14.7008 11.6635 14.9322 11.5086C15.1636 11.3538 15.3439 11.1338 15.4503 10.8765C15.5567 10.6193 15.5845 10.3362 15.53 10.0631C15.4756 9.79006 15.3414 9.53927 15.1445 9.34246C14.9475 9.14565 14.6966 9.01165 14.4235 8.9574C14.1504 8.90315 13.8674 8.9311 13.6102 9.03769C13.3529 9.14429 13.1331 9.32476 12.9784 9.55628C12.8238 9.7878 12.7412 10.06 12.7412 10.3384C12.7417 10.7119 12.8904 11.0698 13.1545 11.3338C13.4187 11.5978 13.7768 11.7462 14.1502 11.7464ZM14.1502 9.64642C14.2872 9.64662 14.4211 9.68743 14.5349 9.7637C14.6488 9.83997 14.7374 9.94827 14.7897 10.0749C14.842 10.2016 14.8556 10.3409 14.8288 10.4752C14.8019 10.6096 14.7358 10.733 14.6389 10.8298C14.5419 10.9266 14.4184 10.9925 14.284 11.0192C14.1496 11.0458 14.0104 11.0321 13.8838 10.9796C13.7572 10.9271 13.649 10.8383 13.5729 10.7243C13.4968 10.6104 13.4562 10.4764 13.4562 10.3394C13.4562 10.1554 13.5293 9.97884 13.6595 9.84869C13.7896 9.71854 13.9662 9.64642 14.1502 9.64642Z" fill="#3D444F"/>
<path d="M14.1521 12.0384C13.8159 12.0384 13.4872 11.9387 13.2077 11.7519C12.9281 11.5651 12.7102 11.2996 12.5816 10.989C12.4529 10.6784 12.4192 10.3365 12.4848 10.0068C12.5504 9.67701 12.7123 9.3741 12.9501 9.13635C13.1878 8.8986 13.4907 8.73669 13.8205 8.67109C14.1503 8.6055 14.4921 8.63916 14.8027 8.76783C15.1133 8.8965 15.3788 9.1144 15.5656 9.39396C15.7524 9.67352 15.8521 10.0022 15.8521 10.3384C15.8521 10.7893 15.673 11.2217 15.3542 11.5405C15.0354 11.8593 14.603 12.0384 14.1521 12.0384ZM14.1521 9.22343C13.9315 9.22382 13.7159 9.28961 13.5327 9.41248C13.3494 9.53535 13.2067 9.70978 13.1225 9.91374C13.0384 10.1177 13.0166 10.342 13.0598 10.5584C13.1031 10.7747 13.2096 10.9734 13.3657 11.1293C13.5219 11.2851 13.7207 11.3912 13.9372 11.4341C14.1536 11.477 14.3779 11.4548 14.5817 11.3703C14.7855 11.2858 14.9597 11.1427 15.0822 10.9592C15.2047 10.7758 15.2701 10.5601 15.2701 10.3394C15.2696 10.0433 15.1516 9.75941 14.942 9.55018C14.7324 9.34094 14.4483 9.22343 14.1521 9.22343ZM14.1521 11.3234C13.9574 11.3232 13.767 11.2653 13.6052 11.1569C13.4433 11.0486 13.3172 10.8947 13.2428 10.7147C13.1684 10.5347 13.1491 10.3367 13.1872 10.1457C13.2253 9.95465 13.3192 9.77923 13.457 9.64158C13.5948 9.50392 13.7703 9.41021 13.9614 9.37228C14.1524 9.33436 14.3504 9.35392 14.5303 9.4285C14.7103 9.50309 14.864 9.62934 14.9722 9.7913C15.0804 9.95326 15.1381 10.1437 15.1381 10.3384C15.1381 10.5999 15.0343 10.8507 14.8494 11.0356C14.6644 11.2205 14.4137 11.3244 14.1521 11.3244V11.3234ZM14.1521 9.93643C14.073 9.93643 13.9957 9.95989 13.9299 10.0038C13.8641 10.0478 13.8129 10.1103 13.7826 10.1834C13.7523 10.2564 13.7444 10.3369 13.7598 10.4145C13.7753 10.4921 13.8134 10.5633 13.8693 10.6193C13.9252 10.6752 13.9965 10.7133 14.0741 10.7287C14.1517 10.7442 14.2321 10.7363 14.3052 10.706C14.3783 10.6757 14.4408 10.6244 14.4847 10.5587C14.5287 10.4929 14.5521 10.4155 14.5521 10.3364C14.5519 10.2305 14.5096 10.129 14.4346 10.0542C14.3597 9.97943 14.2581 9.93643 14.1521 9.93643Z" fill="#3D444F"/>
<path d="M5.91574 13.5706C5.63759 13.571 5.3658 13.6538 5.1347 13.8086C4.90361 13.9634 4.72358 14.1832 4.61737 14.4403C4.51115 14.6973 4.48351 14.9801 4.53795 15.2529C4.59238 15.5257 4.72645 15.7762 4.9232 15.9728C5.11995 16.1694 5.37056 16.3033 5.64337 16.3575C5.91618 16.4118 6.19895 16.3839 6.45595 16.2775C6.71294 16.1712 6.93264 15.991 7.08727 15.7598C7.24191 15.5286 7.32454 15.2567 7.32474 14.9786C7.32421 14.6051 7.17556 14.2471 6.91141 13.9832C6.64726 13.7192 6.28918 13.5708 5.91574 13.5706ZM5.91574 15.6706C5.77872 15.6704 5.64484 15.6295 5.53101 15.5533C5.41717 15.477 5.32851 15.3687 5.27621 15.2421C5.22391 15.1154 5.21033 14.9761 5.23718 14.8417C5.26403 14.7074 5.33011 14.584 5.42707 14.4872C5.52403 14.3904 5.64751 14.3245 5.78191 14.2978C5.91631 14.2711 6.0556 14.2849 6.18217 14.3374C6.30874 14.3899 6.41692 14.4787 6.49302 14.5927C6.56912 14.7066 6.60974 14.8405 6.60974 14.9776C6.60948 15.1615 6.53628 15.3379 6.40618 15.468C6.27609 15.5981 6.09972 15.6713 5.91574 15.6716V15.6706Z" fill="#3D444F"/>
<path d="M5.91582 13.2795C6.25205 13.2795 6.58073 13.3792 6.86029 13.566C7.13985 13.7528 7.35775 14.0183 7.48642 14.329C7.61508 14.6396 7.64875 14.9814 7.58316 15.3112C7.51756 15.641 7.35565 15.9439 7.1179 16.1816C6.88015 16.4194 6.57724 16.5813 6.24747 16.6469C5.91771 16.7125 5.57589 16.6788 5.26526 16.5501C4.95462 16.4215 4.68912 16.2036 4.50232 15.924C4.31552 15.6444 4.21582 15.3158 4.21582 14.9795C4.21582 14.5287 4.39493 14.0963 4.71374 13.7775C5.03255 13.4586 5.46495 13.2795 5.91582 13.2795ZM5.91582 16.0945C6.13646 16.0941 6.35203 16.0284 6.53529 15.9055C6.71855 15.7826 6.86128 15.6082 6.94544 15.4042C7.0296 15.2003 7.05142 14.9759 7.00813 14.7596C6.96485 14.5432 6.8584 14.3446 6.70225 14.1887C6.54609 14.0328 6.34723 13.9267 6.13081 13.8838C5.91438 13.8409 5.69009 13.8632 5.48629 13.9477C5.28248 14.0322 5.1083 14.1753 4.98576 14.3587C4.86322 14.5422 4.79782 14.7579 4.79782 14.9785C4.79835 15.2747 4.91637 15.5586 5.12598 15.7678C5.33559 15.977 5.61965 16.0945 5.91582 16.0945ZM5.91582 13.9945C6.11059 13.9947 6.30093 14.0527 6.46278 14.161C6.62464 14.2694 6.75073 14.4233 6.82513 14.6033C6.89953 14.7833 6.91889 14.9813 6.88077 15.1723C6.84265 15.3633 6.74876 15.5387 6.61097 15.6764C6.47317 15.814 6.29766 15.9078 6.10662 15.9457C5.91557 15.9836 5.71757 15.964 5.53765 15.8895C5.35772 15.8149 5.20394 15.6886 5.09575 15.5267C4.98756 15.3647 4.92982 15.1743 4.92982 14.9795C4.93009 14.7182 5.03408 14.4677 5.21897 14.283C5.40385 14.0983 5.65449 13.9945 5.91582 13.9945ZM5.91582 15.3805C5.99493 15.3805 6.07227 15.3571 6.13805 15.3131C6.20383 15.2692 6.2551 15.2067 6.28537 15.1336C6.31565 15.0605 6.32357 14.9801 6.30813 14.9025C6.2927 14.8249 6.2546 14.7536 6.19866 14.6977C6.14272 14.6418 6.07145 14.6037 5.99386 14.5882C5.91626 14.5728 5.83584 14.5807 5.76275 14.611C5.68966 14.6413 5.62719 14.6925 5.58323 14.7583C5.53928 14.8241 5.51582 14.9014 5.51582 14.9805C5.51582 15.0866 5.55796 15.1884 5.63298 15.2634C5.70799 15.3384 5.80973 15.3805 5.91582 15.3805Z" fill="#3D444F"/>
<path d="M10.1531 13.3726C9.87462 13.3728 9.60245 13.4555 9.37102 13.6104C9.13959 13.7653 8.95928 13.9853 8.85289 14.2427C8.7465 14.5 8.71882 14.7831 8.77334 15.0562C8.82787 15.3293 8.96214 15.5801 9.1592 15.7769C9.35625 15.9736 9.60722 16.1076 9.88039 16.1617C10.1536 16.2158 10.4366 16.1877 10.6938 16.081C10.951 15.9742 11.1708 15.7936 11.3254 15.562C11.4799 15.3303 11.5623 15.058 11.5621 14.7796C11.5613 14.4063 11.4125 14.0486 11.1484 13.7848C10.8843 13.5211 10.5264 13.3728 10.1531 13.3726ZM10.1531 15.4726C10.0161 15.4724 9.88219 15.4315 9.76836 15.3553C9.65453 15.279 9.56586 15.1707 9.51356 15.0441C9.46126 14.9174 9.44768 14.7781 9.47453 14.6437C9.50138 14.5094 9.56747 14.386 9.66442 14.2892C9.76138 14.1924 9.88486 14.1265 10.0193 14.0998C10.1537 14.0731 10.293 14.0869 10.4195 14.1394C10.5461 14.1919 10.6543 14.2807 10.7304 14.3947C10.8065 14.5086 10.8471 14.6425 10.8471 14.7796C10.8468 14.9634 10.7736 15.1397 10.6435 15.2696C10.5134 15.3996 10.337 15.4726 10.1531 15.4726Z" fill="#3D444F"/>
<path d="M10.1521 13.0815C10.4884 13.0815 10.8171 13.1812 11.0966 13.368C11.3762 13.5548 11.5941 13.8203 11.7227 14.131C11.8514 14.4416 11.8851 14.7834 11.8195 15.1132C11.7539 15.443 11.592 15.7459 11.3542 15.9836C11.1165 16.2214 10.8136 16.3833 10.4838 16.4489C10.154 16.5145 9.81222 16.4808 9.50159 16.3521C9.19095 16.2235 8.92545 16.0056 8.73865 15.726C8.55185 15.4464 8.45215 15.1178 8.45215 14.7815C8.45215 14.3307 8.63126 13.8983 8.95007 13.5795C9.26888 13.2606 9.70128 13.0815 10.1521 13.0815ZM10.1521 15.8965C10.3728 15.8961 10.5884 15.8304 10.7716 15.7075C10.9549 15.5846 11.0976 15.4102 11.1818 15.2062C11.2659 15.0023 11.2877 14.7779 11.2445 14.5616C11.2012 14.3452 11.0947 14.1466 10.9386 13.9907C10.7824 13.8348 10.5836 13.7287 10.3671 13.6858C10.1507 13.6429 9.92642 13.6652 9.72261 13.7497C9.51881 13.8342 9.34463 13.9773 9.22209 14.1607C9.09955 14.3442 9.03415 14.5599 9.03415 14.7805C9.03468 15.0767 9.1527 15.3606 9.36231 15.5698C9.57192 15.779 9.85598 15.8965 10.1521 15.8965ZM10.1521 13.7965C10.347 13.7967 10.5373 13.8547 10.6992 13.9631C10.8611 14.0715 10.9872 14.2255 11.0616 14.4055C11.1359 14.5856 11.1552 14.7837 11.117 14.9747C11.0788 15.1657 10.9848 15.3411 10.8469 15.4787C10.709 15.6164 10.5334 15.71 10.3423 15.7478C10.1512 15.7856 9.95319 15.7659 9.77328 15.6912C9.59337 15.6164 9.43966 15.49 9.3316 15.3279C9.22353 15.1659 9.16595 14.9754 9.16615 14.7805C9.16641 14.5192 9.27041 14.2687 9.45529 14.084C9.64018 13.8993 9.89082 13.7955 10.1521 13.7955V13.7965ZM10.1521 15.1825C10.2313 15.1825 10.3086 15.1591 10.3744 15.1151C10.4402 15.0712 10.4914 15.0087 10.5217 14.9356C10.552 14.8625 10.5599 14.7821 10.5445 14.7045C10.529 14.6269 10.4909 14.5556 10.435 14.4997C10.3791 14.4438 10.3078 14.4057 10.2302 14.3902C10.1526 14.3748 10.0722 14.3827 9.99908 14.413C9.92599 14.4433 9.86351 14.4945 9.81956 14.5603C9.77561 14.6261 9.75215 14.7034 9.75215 14.7825C9.75241 14.8885 9.79467 14.9899 9.86966 15.0647C9.94465 15.1395 10.0462 15.1815 10.1521 15.1815V15.1825Z" fill="#3D444F"/>
<path d="M18.4558 12.5544V6.70343C18.4547 6.05159 18.1951 5.42681 17.7339 4.96617C17.2727 4.50554 16.6476 4.24669 15.9958 4.24643H15.0738V3.38143C15.0738 3.28661 15.0361 3.19568 14.9691 3.12864C14.902 3.06159 14.8111 3.02393 14.7163 3.02393C14.6215 3.02393 14.5305 3.06159 14.4635 3.12864C14.3964 3.19568 14.3588 3.28661 14.3588 3.38143V4.24643H10.6068V3.38143C10.6068 3.28661 10.5691 3.19568 10.5021 3.12864C10.435 3.06159 10.3441 3.02393 10.2493 3.02393C10.1545 3.02393 10.0635 3.06159 9.99649 3.12864C9.92945 3.19568 9.89178 3.28661 9.89178 3.38143V4.24643H5.87578V3.38143C5.87094 3.28988 5.83116 3.20368 5.76465 3.14059C5.69813 3.07751 5.60995 3.04234 5.51828 3.04234C5.42661 3.04234 5.33843 3.07751 5.27192 3.14059C5.2054 3.20368 5.16562 3.28988 5.16078 3.38143V4.24643H4.26078C3.60895 4.24669 2.98385 4.50554 2.52265 4.96617C2.06145 5.42681 1.80184 6.05159 1.80078 6.70343V16.6804C1.80184 17.3323 2.06145 17.957 2.52265 18.4177C2.98385 18.8783 3.60895 19.1372 4.26078 19.1374H12.4608C12.7562 19.9513 13.2568 20.6751 13.914 21.2388C14.5712 21.8025 15.3627 22.1871 16.2121 22.3552C17.0614 22.5233 17.9398 22.4694 18.7622 22.1985C19.5846 21.9277 20.3232 21.4492 20.9064 20.8093C21.4896 20.1694 21.8978 19.3897 22.0915 18.5458C22.2851 17.7019 22.2576 16.8223 22.0116 15.9921C21.7657 15.162 21.3096 14.4093 20.6875 13.8071C20.0655 13.2048 19.2985 12.7734 18.4608 12.5544H18.4558ZM4.25778 18.4224C3.79558 18.4222 3.35234 18.2386 3.02523 17.9121C2.69812 17.5856 2.51384 17.1426 2.51278 16.6804V6.70343C2.51384 6.24122 2.69812 5.7983 3.02523 5.47176C3.35234 5.14521 3.79558 4.96169 4.25778 4.96143H5.15778V5.60443H5.11978C5.02457 5.60443 4.93326 5.64225 4.86593 5.70957C4.7986 5.7769 4.76078 5.86821 4.76078 5.96343C4.76078 6.05864 4.7986 6.14995 4.86593 6.21728C4.93326 6.2846 5.02457 6.32243 5.11978 6.32243H5.99578C6.09046 6.32243 6.18127 6.28481 6.24822 6.21786C6.31517 6.15091 6.35278 6.06011 6.35278 5.96543C6.35278 5.87074 6.31517 5.77994 6.24822 5.71299C6.18127 5.64604 6.09046 5.60843 5.99578 5.60843H5.87578V4.96143H9.89078V5.60443H9.85478C9.7601 5.60443 9.66929 5.64204 9.60234 5.70899C9.53539 5.77594 9.49778 5.86674 9.49778 5.96143C9.49778 6.05611 9.53539 6.14691 9.60234 6.21386C9.66929 6.28081 9.7601 6.31843 9.85478 6.31843H10.7308C10.8255 6.31843 10.9163 6.28081 10.9832 6.21386C11.0502 6.14691 11.0878 6.05611 11.0878 5.96143C11.0878 5.86674 11.0502 5.77594 10.9832 5.70899C10.9163 5.64204 10.8255 5.60443 10.7308 5.60443H10.6068V4.96143H14.3588V5.60443H14.3198C14.2246 5.60443 14.1333 5.64225 14.0659 5.70957C13.9986 5.7769 13.9608 5.86821 13.9608 5.96343C13.9608 6.05864 13.9986 6.14995 14.0659 6.21728C14.1333 6.2846 14.2246 6.32243 14.3198 6.32243H15.1958C15.2905 6.32243 15.3813 6.28481 15.4482 6.21786C15.5152 6.15091 15.5528 6.06011 15.5528 5.96543C15.5528 5.87074 15.5152 5.77994 15.4482 5.71299C15.3813 5.64604 15.2905 5.60843 15.1958 5.60843H15.0718V4.96143H15.9938C16.456 4.96169 16.8992 5.14521 17.2263 5.47176C17.5534 5.7983 17.7377 6.24122 17.7388 6.70343V12.4224C17.0342 12.3405 16.3202 12.4088 15.644 12.6228C14.9677 12.8368 14.3445 13.1918 13.8154 13.6642C13.2862 14.1366 12.8633 14.7158 12.5743 15.3636C12.2853 16.0114 12.1369 16.7131 12.1388 17.4224C12.1379 17.7613 12.1714 18.0993 12.2388 18.4314L4.25778 18.4224ZM17.1798 21.7274C16.3268 21.7262 15.4933 21.4722 14.7847 20.9975C14.076 20.5227 13.524 19.8486 13.1984 19.0602C12.8728 18.2718 12.7883 17.4046 12.9554 16.5681C13.1225 15.7317 13.5339 14.9636 14.1374 14.3609C14.741 13.7581 15.5097 13.3479 16.3464 13.1819C17.183 13.0159 18.0501 13.1017 18.8381 13.4284C19.626 13.7551 20.2994 14.308 20.7732 15.0173C21.2469 15.7266 21.4998 16.5605 21.4998 17.4134C21.4977 18.558 21.0416 19.6549 20.2318 20.4637C19.4219 21.2724 18.3243 21.7269 17.1798 21.7274Z" fill="#3D444F"/>
<path d="M5.51788 2.73145C5.68975 2.73171 5.85453 2.80003 5.97615 2.92147C6.09778 3.04291 6.16635 3.20757 6.16688 3.37945V3.95345H9.59888V3.38245C9.59888 3.21005 9.66736 3.04472 9.78926 2.92283C9.91116 2.80093 10.0765 2.73245 10.2489 2.73245C10.4213 2.73245 10.5866 2.80093 10.7085 2.92283C10.8304 3.04472 10.8989 3.21005 10.8989 3.38245V3.95645H14.0679V3.38245C14.0679 3.21005 14.1364 3.04472 14.2583 2.92283C14.3802 2.80093 14.5455 2.73245 14.7179 2.73245C14.8903 2.73245 15.0556 2.80093 15.1775 2.92283C15.2994 3.04472 15.3679 3.21005 15.3679 3.38245V3.95645H15.9979C16.727 3.95671 17.4262 4.24619 17.9421 4.76136C18.4581 5.27654 18.7486 5.97534 18.7499 6.70445V12.3314C19.6058 12.5966 20.3808 13.0737 21.003 13.7184C21.6252 14.3632 22.0744 15.1547 22.3089 16.0194C22.5434 16.8842 22.5556 17.7942 22.3444 18.665C22.1331 19.5357 21.7053 20.339 21.1006 21.0002C20.496 21.6614 19.734 22.1591 18.8856 22.4471C18.0371 22.7351 17.1296 22.804 16.2474 22.6475C15.3652 22.4911 14.5368 22.1142 13.8392 21.5519C13.1415 20.9897 12.5972 20.2603 12.2569 19.4314H4.25688C3.52778 19.4312 2.82856 19.1417 2.31263 18.6265C1.7967 18.1113 1.50621 17.4125 1.50488 16.6834V6.70345C1.50621 5.97417 1.79684 5.27522 2.31298 4.76001C2.82913 4.2448 3.52861 3.95544 4.25788 3.95545H4.86888V3.38245C4.86875 3.29709 4.88543 3.21254 4.91798 3.13362C4.95052 3.05471 4.99829 2.98298 5.05856 2.92253C5.11882 2.86208 5.1904 2.81409 5.26921 2.78131C5.34803 2.74852 5.43252 2.73158 5.51788 2.73145ZM10.1819 4.53145H5.58188V3.38245C5.58188 3.36494 5.57493 3.34815 5.56255 3.33578C5.55017 3.3234 5.53339 3.31645 5.51588 3.31645C5.49838 3.31645 5.48159 3.3234 5.46921 3.33578C5.45684 3.34815 5.44988 3.36494 5.44988 3.38245V4.53845H4.25788C3.68349 4.53871 3.13266 4.7668 2.72623 5.17267C2.31979 5.57854 2.09094 6.12906 2.08988 6.70345V16.6804C2.09094 17.2548 2.31979 17.8053 2.72623 18.2112C3.13266 18.6171 3.68349 18.8452 4.25788 18.8454H12.6579L12.7279 19.0364C13.006 19.8032 13.4774 20.4852 14.0964 21.0164C14.7154 21.5476 15.4611 21.9099 16.2612 22.0684C17.0614 22.2269 17.8888 22.1762 18.6636 21.9211C19.4384 21.666 20.1341 21.2152 20.6836 20.6124C21.2331 20.0096 21.6176 19.2751 21.8 18.4801C21.9823 17.685 21.9563 16.8564 21.7246 16.0743C21.4928 15.2923 21.063 14.5833 20.4769 14.0161C19.8907 13.4488 19.1681 13.0425 18.3789 12.8364L18.0199 12.7424L17.7059 12.7074C16.9626 12.6228 16.2098 12.7154 15.5092 12.9776C14.8085 13.2398 14.1799 13.6641 13.6748 14.216C13.1697 14.7678 12.8024 15.4314 12.6031 16.1525C12.4037 16.8735 12.378 17.6315 12.5279 18.3644L12.5999 18.7144H4.25788C3.71833 18.7142 3.20092 18.4999 2.81921 18.1185C2.4375 17.7372 2.22268 17.22 2.22188 16.6804V6.70345C2.22294 6.16407 2.43788 5.64713 2.81956 5.26601C3.20125 4.88489 3.7185 4.67071 4.25788 4.67045H5.45188V5.89545H5.12788C5.11038 5.89545 5.09359 5.9024 5.08121 5.91478C5.06884 5.92715 5.06188 5.94394 5.06188 5.96145C5.06188 5.97895 5.06884 5.99574 5.08121 6.00811C5.09359 6.02049 5.11038 6.02745 5.12788 6.02745H6.00388C6.02139 6.02745 6.03817 6.02049 6.05055 6.00811C6.06293 5.99574 6.06988 5.97895 6.06988 5.96145C6.06988 5.94394 6.06293 5.92715 6.05055 5.91478C6.03817 5.9024 6.02139 5.89545 6.00388 5.89545H5.58388V4.67045H10.1839V5.89545H9.85588C9.83838 5.89545 9.82159 5.9024 9.80921 5.91478C9.79684 5.92715 9.78988 5.94394 9.78988 5.96145C9.78988 5.97895 9.79684 5.99574 9.80921 6.00811C9.82159 6.02049 9.83838 6.02745 9.85588 6.02745H10.7279C10.7454 6.02745 10.7622 6.02049 10.7746 6.00811C10.7869 5.99574 10.7939 5.97895 10.7939 5.96145C10.7939 5.94394 10.7869 5.92715 10.7746 5.91478C10.7622 5.9024 10.7454 5.89545 10.7279 5.89545H10.3119V4.67045H14.6479V5.89545H14.3199C14.3024 5.89545 14.2856 5.9024 14.2732 5.91478C14.2608 5.92715 14.2539 5.94394 14.2539 5.96145C14.2539 5.97895 14.2608 5.99574 14.2732 6.00811C14.2856 6.02049 14.3024 6.02745 14.3199 6.02745H15.1959C15.2134 6.02745 15.2302 6.02049 15.2426 6.00811C15.2549 5.99574 15.2619 5.97895 15.2619 5.96145C15.2619 5.94394 15.2549 5.92715 15.2426 5.91478C15.2302 5.9024 15.2134 5.89545 15.1959 5.89545H14.7799V4.67045H15.9939C16.5329 4.67124 17.0497 4.88565 17.4309 5.26671C17.8122 5.64777 18.0268 6.16441 18.0279 6.70345V12.4254L18.1599 12.3664V6.70345C18.1588 6.12906 17.93 5.57854 17.5235 5.17267C17.1171 4.7668 16.5663 4.53871 15.9919 4.53845H14.7819V3.38245C14.7819 3.36494 14.7749 3.34815 14.7626 3.33578C14.7502 3.3234 14.7334 3.31645 14.7159 3.31645C14.6984 3.31645 14.6816 3.3234 14.6692 3.33578C14.6568 3.34815 14.6499 3.36494 14.6499 3.38245V4.53845H10.3149V3.38245C10.3149 3.36494 10.3079 3.34815 10.2956 3.33578C10.2832 3.3234 10.2664 3.31645 10.2489 3.31645C10.2314 3.31645 10.2146 3.3234 10.2022 3.33578C10.1898 3.34815 10.1829 3.36494 10.1829 3.38245L10.1819 4.53145ZM4.86788 5.24545H4.25788C4.06669 5.24558 3.8774 5.28341 3.70084 5.35679C3.52429 5.43017 3.36394 5.53765 3.22898 5.67308C3.09402 5.80851 2.98709 5.96922 2.91432 6.14603C2.84154 6.32283 2.80436 6.51225 2.80488 6.70345V16.6804C2.80568 17.0654 2.95908 17.4343 3.23145 17.7063C3.50383 17.9783 3.87295 18.1312 4.25788 18.1314H11.9019C11.7997 17.3786 11.8598 16.6126 12.0783 15.885C12.2968 15.1573 12.6685 14.4849 13.1686 13.9129C13.6686 13.3408 14.2853 12.8825 14.9772 12.5687C15.6691 12.2549 16.4201 12.0928 17.1799 12.0934C17.2679 12.0934 17.3569 12.0934 17.4489 12.1014V6.70145C17.4481 6.31651 17.2947 5.9476 17.0223 5.6756C16.7499 5.4036 16.3808 5.25071 15.9959 5.25045H15.3659V5.33145C15.5186 5.3713 15.6516 5.46555 15.7398 5.5965C15.828 5.72744 15.8653 5.88608 15.8448 6.04261C15.8243 6.19914 15.7474 6.34281 15.6284 6.44663C15.5095 6.55044 15.3567 6.60727 15.1989 6.60645H14.3229C14.1731 6.60715 14.0277 6.55592 13.9114 6.46149C13.7951 6.36705 13.7151 6.23524 13.685 6.08848C13.655 5.94171 13.6767 5.78907 13.7465 5.65652C13.8163 5.52397 13.9299 5.4197 14.0679 5.36145V5.25245H10.8979V5.33145C11.0539 5.36869 11.1906 5.4625 11.2815 5.59472C11.3723 5.72693 11.4109 5.88815 11.3898 6.04718C11.3686 6.20622 11.2892 6.35174 11.167 6.45561C11.0447 6.55947 10.8882 6.61429 10.7279 6.60945H9.85188C9.70208 6.61015 9.55665 6.55892 9.44036 6.46449C9.32407 6.37005 9.24409 6.23824 9.21403 6.09148C9.18397 5.94472 9.20569 5.79207 9.27549 5.65952C9.34529 5.52697 9.45886 5.4227 9.59688 5.36445V5.25245H6.16788V5.33145C6.32064 5.3713 6.45359 5.46555 6.54177 5.5965C6.62995 5.72744 6.6673 5.88608 6.6468 6.04261C6.6263 6.19914 6.54935 6.34281 6.43042 6.44663C6.31149 6.55044 6.15875 6.60727 6.00088 6.60645H5.12788C4.97808 6.60715 4.83265 6.55592 4.71636 6.46149C4.60007 6.36705 4.52009 6.23524 4.49003 6.08848C4.45997 5.94171 4.48169 5.78907 4.55149 5.65652C4.62129 5.52397 4.73486 5.4197 4.87288 5.36145L4.86788 5.24545ZM17.1789 12.8004C18.0896 12.8016 18.9795 13.0728 19.7362 13.5796C20.4929 14.0864 21.0823 14.8062 21.43 15.648C21.7777 16.4897 21.868 17.4156 21.6896 18.3087C21.5112 19.2018 21.0721 20.0219 20.4277 20.6655C19.7833 21.3091 18.9626 21.7471 18.0693 21.9244C17.176 22.1016 16.2501 22.0101 15.4089 21.6613C14.5676 21.3125 13.8486 20.7221 13.3427 19.9648C12.8369 19.2075 12.5669 18.3172 12.5669 17.4064C12.5709 16.1855 13.0586 15.0159 13.9232 14.1539C14.7879 13.2919 15.9589 12.8077 17.1799 12.8074L17.1789 12.8004ZM17.1789 21.4294C17.9743 21.4285 18.7517 21.1917 19.4126 20.749C20.0735 20.3064 20.5884 19.6777 20.8921 18.9425C21.1958 18.2073 21.2748 17.3986 21.119 16.6185C20.9632 15.8385 20.5796 15.1221 20.0168 14.56C19.454 13.9979 18.7371 13.6152 17.9569 13.4604C17.1766 13.3056 16.368 13.3855 15.6332 13.6902C14.8984 13.9948 14.2704 14.5104 13.8285 15.1719C13.3867 15.8334 13.1509 16.611 13.1509 17.4064C13.1509 18.4751 13.5753 19.5 14.3309 20.2557C15.0864 21.0115 16.1112 21.4362 17.1799 21.4364L17.1789 21.4294Z" fill="#3D444F"/>
<path d="M18.9652 17.0554H17.5382V15.5034C17.5334 15.4118 17.4936 15.3256 17.4271 15.2626C17.3606 15.1995 17.2724 15.1643 17.1807 15.1643C17.0891 15.1643 17.0009 15.1995 16.9344 15.2626C16.8679 15.3256 16.8281 15.4118 16.8232 15.5034V17.4134C16.8232 17.4604 16.8325 17.5069 16.8505 17.5502C16.8685 17.5936 16.8949 17.633 16.9282 17.6662C16.9614 17.6993 17.0009 17.7256 17.0443 17.7435C17.0877 17.7614 17.1343 17.7705 17.1812 17.7704H18.9642C19.0589 17.7704 19.1497 17.7328 19.2167 17.6658C19.2836 17.5989 19.3212 17.5081 19.3212 17.4134C19.3212 17.3187 19.2836 17.2279 19.2167 17.161C19.1497 17.094 19.0589 17.0564 18.9642 17.0564L18.9652 17.0554Z" fill="#3D444F"/>
<path d="M18.9652 18.0615H17.1812C17.0094 18.0613 16.8446 17.9929 16.723 17.8715C16.6013 17.7501 16.5328 17.5854 16.5322 17.4135V15.5035C16.5322 15.3311 16.6007 15.1658 16.7226 15.0439C16.8445 14.922 17.0098 14.8535 17.1822 14.8535C17.3546 14.8535 17.5199 14.922 17.6418 15.0439C17.7637 15.1658 17.8322 15.3311 17.8322 15.5035V16.7645H18.9672C19.1396 16.7645 19.3049 16.833 19.4268 16.9549C19.5487 17.0768 19.6172 17.2421 19.6172 17.4145C19.6172 17.5869 19.5487 17.7522 19.4268 17.8741C19.3049 17.996 19.1396 18.0645 18.9672 18.0645L18.9652 18.0615ZM17.1812 15.4375C17.1726 15.4375 17.164 15.4392 17.156 15.4425C17.148 15.4459 17.1407 15.4507 17.1346 15.4568C17.1284 15.463 17.1236 15.4703 17.1203 15.4783C17.1169 15.4863 17.1152 15.4948 17.1152 15.5035V17.4135C17.1152 17.431 17.1222 17.4478 17.1346 17.4602C17.1469 17.4726 17.1637 17.4795 17.1812 17.4795H18.9652C18.9827 17.4795 18.9995 17.4726 19.0119 17.4602C19.0243 17.4478 19.0312 17.431 19.0312 17.4135C19.0312 17.396 19.0243 17.3792 19.0119 17.3668C18.9995 17.3545 18.9827 17.3475 18.9652 17.3475H17.2472V15.5035C17.2472 15.486 17.2403 15.4692 17.2279 15.4568C17.2155 15.4445 17.1987 15.4375 17.1812 15.4375Z" fill="#3D444F"/>
</svg>
