<svg width="25" height="24" viewBox="0 0 25 24" fill="none" xmlns="http://www.w3.org/2000/svg">
<path fill-rule="evenodd" clip-rule="evenodd" d="M4.36734 3.71597C5.60871 2.47461 7.46628 2 9.86067 2H15.4421C17.8365 2 19.694 2.47461 20.9354 3.71597C22.1768 4.95734 22.6514 6.81491 22.6514 9.2093V14.7907C22.6514 17.1851 22.1768 19.0427 20.9354 20.284C19.694 21.5254 17.8365 22 15.4421 22H9.86067C7.46628 22 5.60871 21.5254 4.36734 20.284C3.12597 19.0427 2.65137 17.1851 2.65137 14.7907V9.2093C2.65137 6.81491 3.12597 4.95734 4.36734 3.71597ZM5.354 4.70263C4.50234 5.55429 4.04672 6.95253 4.04672 9.2093V14.7907C4.04672 17.0475 4.50234 18.4457 5.354 19.2974C6.20566 20.149 7.6039 20.6047 9.86067 20.6047H15.4421C17.6988 20.6047 19.0971 20.149 19.9487 19.2974C20.8004 18.4457 21.256 17.0475 21.256 14.7907V9.2093C21.256 6.95253 20.8004 5.55429 19.9487 4.70263C19.0971 3.85098 17.6988 3.39535 15.4421 3.39535H9.86067C7.6039 3.39535 6.20566 3.85098 5.354 4.70263Z" fill="#3D444F"/>
<path fill-rule="evenodd" clip-rule="evenodd" d="M10.9866 8.22225C11.2595 7.95018 11.7012 7.9508 11.9733 8.22365L15.2477 11.5074C15.5192 11.7797 15.5192 12.2203 15.2477 12.4926L11.9733 15.7764C11.7012 16.0492 11.2595 16.0498 10.9866 15.7778C10.7138 15.5057 10.7132 15.0639 10.9852 14.7911L13.7684 12L10.9852 9.20891C10.7132 8.93606 10.7138 8.49432 10.9866 8.22225Z" fill="#3D444F"/>
</svg>
