<svg width="25" height="24" viewBox="0 0 25 24" fill="none" xmlns="http://www.w3.org/2000/svg">
<path d="M15.4418 22H9.86089C4.81327 22 2.65137 19.8419 2.65137 14.7905V9.20952C2.65137 4.1619 4.80946 2 9.86089 2H15.4418C20.4895 2 22.6514 4.1581 22.6514 9.20952V14.7905C22.6514 19.8419 20.4933 22 15.4418 22ZM9.86089 3.39524C5.57518 3.39524 4.05137 4.91905 4.05137 9.20476V14.7857C4.05137 19.0714 5.57518 20.5952 9.86089 20.5952H15.4418C19.7276 20.5952 21.2514 19.0714 21.2514 14.7857V9.20952C21.2514 4.92381 19.7276 3.4 15.4418 3.4L9.86089 3.39524Z" fill="#3D444F"/>
<path d="M13.8228 15.981C13.7311 15.9813 13.6402 15.9634 13.5555 15.9283C13.4708 15.8931 13.3939 15.8414 13.3295 15.7762L10.0466 12.4924C9.91708 12.361 9.84446 12.184 9.84446 11.9995C9.84446 11.8151 9.91708 11.638 10.0466 11.5067L13.3304 8.22286C13.462 8.0964 13.6379 8.02659 13.8204 8.0284C14.0029 8.03021 14.1774 8.10351 14.3064 8.23255C14.4355 8.3616 14.5088 8.5361 14.5106 8.71858C14.5124 8.90107 14.4426 9.07699 14.3161 9.20857L11.5257 11.999L14.3161 14.7895C14.4457 14.9209 14.5183 15.0979 14.5183 15.2824C14.5183 15.4668 14.4457 15.6439 14.3161 15.7752C14.2528 15.842 14.1762 15.8948 14.0912 15.9303C14.0063 15.9657 13.9148 15.983 13.8228 15.981Z" fill="#3D444F"/>
</svg>
