<svg width="25" height="25" viewBox="0 0 25 25" fill="none" xmlns="http://www.w3.org/2000/svg">
<g clip-path="url(#clip0_9394_7074)">
<path d="M11.7721 1.90405C5.71206 1.90405 1.31348 4.00757 1.31348 6.90599C1.3287 8.23949 1.94541 9.49463 2.99148 10.3219C3.36967 10.6229 3.58911 11.0807 3.58709 11.5642V21.0022C3.5879 21.7255 3.87555 22.4191 4.38693 22.9307C4.89849 23.442 5.59212 23.7297 6.31541 23.7305H17.2288C17.9521 23.7297 18.6457 23.442 19.1572 22.9307C19.6686 22.4191 19.9563 21.7255 19.9571 21.0022V11.5642C19.9551 11.0809 20.1743 10.6231 20.5523 10.3219C21.5986 9.49484 22.2155 8.23949 22.2307 6.90599C22.2307 4.00757 17.8321 1.90405 11.7721 1.90405ZM19.4192 8.89897C18.6066 9.54431 18.1346 10.5264 18.1383 11.5642V21.0021C18.1383 21.2433 18.0425 21.4747 17.872 21.6452C17.7015 21.8157 17.47 21.9116 17.2289 21.9116H6.31552C6.07435 21.9116 5.84293 21.8157 5.67241 21.6452C5.50189 21.4747 5.40607 21.2433 5.40607 21.0021V11.5642C5.40973 10.5262 4.93755 9.5441 4.12475 8.89897C3.51028 8.41826 3.14567 7.68582 3.13247 6.90589C3.13247 5.40021 6.6793 3.72284 11.7722 3.72284C16.8651 3.72284 20.4119 5.40021 20.4119 6.90589C20.3987 7.68603 20.0339 8.41842 19.4192 8.89897Z" fill="#3D444F"/>
<path d="M8.58891 19.1833C8.58891 19.6855 8.18169 20.0927 7.67946 20.0927C7.17724 20.0927 6.77002 19.6855 6.77002 19.1833C6.77002 18.6811 7.17724 18.2739 7.67946 18.2739C8.18169 18.2739 8.58891 18.6811 8.58891 19.1833Z" fill="#3D444F"/>
<path d="M12.2266 19.1833C12.2266 19.6855 11.8194 20.0927 11.3172 20.0927C10.8149 20.0927 10.4077 19.6855 10.4077 19.1833C10.4077 18.6811 10.8149 18.2739 11.3172 18.2739C11.8194 18.2739 12.2266 18.6811 12.2266 19.1833Z" fill="#3D444F"/>
<path d="M10.4077 16.4552C10.4077 16.9574 10.0005 17.3646 9.49831 17.3646C8.99609 17.3646 8.58887 16.9574 8.58887 16.4552C8.58887 15.9529 8.99609 15.5457 9.49831 15.5457C10.0005 15.5457 10.4077 15.9529 10.4077 16.4552Z" fill="#3D444F"/>
</g>
<defs>
<clipPath id="clip0_9394_7074">
<rect width="22" height="22" fill="white" transform="translate(1.10547 1.73047)"/>
</clipPath>
</defs>
</svg>
