<svg width="25" height="25" viewBox="0 0 25 25" fill="none" xmlns="http://www.w3.org/2000/svg">
<g clip-path="url(#clip0_9394_7077)">
<path d="M8.88802 16.6326H7.45841C7.19841 16.6326 6.9873 16.8436 6.9873 17.1036C6.9873 17.3637 7.19841 17.5747 7.45841 17.5747H8.88802C9.14802 17.5747 9.35912 17.3637 9.35912 17.1036C9.35912 16.8436 9.14802 16.6326 8.88802 16.6326Z" fill="#3D444F"/>
<path d="M12.6566 16.6326H11.2269C10.967 16.6326 10.7559 16.8436 10.7559 17.1036C10.7559 17.3637 10.967 17.5747 11.2269 17.5747H12.6566C12.9166 17.5747 13.1276 17.3637 13.1276 17.1036C13.1276 16.8436 12.9171 16.6326 12.6566 16.6326Z" fill="#3D444F"/>
<path d="M16.4261 16.6326H14.9965C14.7365 16.6326 14.5254 16.8436 14.5254 17.1036C14.5254 17.3637 14.7365 17.5747 14.9965 17.5747H16.4261C16.6861 17.5747 16.8973 17.3637 16.8973 17.1036C16.8973 16.8436 16.6867 16.6326 16.4261 16.6326Z" fill="#3D444F"/>
<path d="M20.2758 13.3853V4.56621C20.4212 4.4366 20.5132 4.2481 20.5132 4.03831C20.5132 3.64713 20.1959 3.32983 19.8047 3.32983C19.4135 3.32983 19.0963 3.64714 19.0963 4.03831C19.0963 4.24862 19.1883 4.4366 19.3336 4.56621V13.1881C19.2866 13.1858 19.239 13.1845 19.1912 13.1845H4.69321C4.64536 13.1845 4.5983 13.1861 4.55072 13.1881V4.56621C4.6961 4.4366 4.78811 4.2481 4.78811 4.03831C4.78811 3.64713 4.4708 3.32983 4.07963 3.32983C3.68846 3.32983 3.37116 3.64714 3.37116 4.03831C3.37116 4.24862 3.46318 4.4366 3.60855 4.56621V13.3853C2.46995 13.8227 1.65918 14.9271 1.65918 16.218V17.9894C1.65918 19.6624 3.0202 21.0232 4.69297 21.0232H19.1916C20.8647 21.0232 22.2254 19.6621 22.2254 17.9894V16.218C22.2254 14.9271 21.4145 13.8225 20.2758 13.3853ZM21.2827 17.9894C21.2827 19.1427 20.3442 20.0809 19.1912 20.0809L4.69319 20.0812C3.53985 20.0812 2.6016 19.1427 2.6016 17.9896V16.2183C2.6016 15.0649 3.54011 14.1267 4.69319 14.1267H19.1918C20.3451 14.1267 21.2834 15.0652 21.2834 16.2183L21.2827 17.9894Z" fill="#3D444F"/>
<path fill-rule="evenodd" clip-rule="evenodd" d="M3.10749 4.03839C3.10749 3.50142 3.54299 3.06592 4.07997 3.06592C4.61692 3.06592 5.05244 3.5014 5.05244 4.03839C5.05244 4.28168 4.96232 4.50385 4.81505 4.67378V12.9205H19.07V4.67381C18.9227 4.50405 18.8326 4.2822 18.8326 4.03839C18.8326 3.50142 19.2681 3.06592 19.805 3.06592C20.342 3.06592 20.7775 3.5014 20.7775 4.03839C20.7775 4.28168 20.6874 4.50386 20.5402 4.67378V13.2092C21.6876 13.7251 22.4897 14.8789 22.4897 16.218V17.9895C22.4897 19.808 21.0108 21.2872 19.1919 21.2872H4.6933C2.87474 21.2872 1.39551 19.8083 1.39551 17.9895V16.218C1.39551 14.8789 2.19768 13.7256 3.34487 13.2095V4.67381C3.19766 4.50405 3.10749 4.2822 3.10749 4.03839ZM20.2265 13.6494H20.0122V4.44796L20.1004 4.36923C20.1925 4.28721 20.2495 4.16923 20.2495 4.03839C20.2495 3.79301 20.0505 3.59392 19.805 3.59392C19.5597 3.59392 19.3606 3.79303 19.3606 4.03839C19.3606 4.16965 19.4176 4.28714 19.5097 4.36923L19.598 4.44797V13.4658L19.3208 13.4519C19.2776 13.4497 19.2345 13.4485 19.1915 13.4485H4.69354C4.65131 13.4485 4.60864 13.4499 4.56271 13.4519L4.28705 13.4642V4.44796L4.37537 4.36923C4.46737 4.28721 4.52444 4.16923 4.52444 4.03839C4.52444 3.79301 4.32533 3.59392 4.07997 3.59392C3.8346 3.59392 3.63549 3.79303 3.63549 4.03839C3.63549 4.16965 3.69248 4.28713 3.78456 4.36923L3.87287 4.44797V13.5668L3.70356 13.6318C2.66317 14.0316 1.92351 15.0405 1.92351 16.218V17.9895C1.92351 19.5166 3.16632 20.7592 4.6933 20.7592H19.1919C20.7192 20.7592 21.9617 19.5165 21.9617 17.9895V16.218C21.9617 15.0573 21.2433 14.0602 20.2265 13.6494ZM4.69351 14.3908C3.68623 14.3908 2.86594 15.2108 2.86594 16.2183V17.9897C2.86594 18.997 3.686 19.8172 4.69351 19.8172L19.1915 19.817C20.1987 19.817 21.0191 18.997 21.0191 17.9895V17.7272L21.0197 16.2184C21.0197 15.2111 20.1996 14.3908 19.1921 14.3908H4.69351ZM21.5326 18.2518C21.4017 19.4279 20.4017 20.345 19.1915 20.345L4.69351 20.3452C3.39435 20.3452 2.33794 19.2885 2.33794 17.9897V16.2183C2.33794 14.9192 3.39467 13.8628 4.69351 13.8628H19.1921C20.4913 13.8628 21.5477 14.9195 21.5477 16.2183L21.548 18.2517L21.5326 18.2518Z" fill="#3D444F"/>
</g>
<defs>
<clipPath id="clip0_9394_7077">
<rect width="22" height="19.36" fill="white" transform="translate(1.10547 2.73047)"/>
</clipPath>
</defs>
</svg>
