<svg width="24" height="25" viewBox="0 0 24 25" fill="none" xmlns="http://www.w3.org/2000/svg">
<path d="M18.9263 13.3152C18.7633 13.3156 18.605 13.2606 18.4773 13.1592C16.639 11.6844 14.3526 10.8807 11.9958 10.8807C9.63904 10.8807 7.35271 11.6844 5.51434 13.1592C5.43864 13.2183 5.35203 13.2619 5.25947 13.2875C5.16691 13.3131 5.07021 13.3203 4.97489 13.3085C4.87958 13.2968 4.7875 13.2664 4.70393 13.219C4.62037 13.1717 4.54694 13.1084 4.48784 13.0327C4.42875 12.957 4.38514 12.8704 4.35952 12.7778C4.33389 12.6852 4.32675 12.5885 4.3385 12.4932C4.35025 12.3979 4.38065 12.3058 4.42798 12.2223C4.47531 12.1387 4.53864 12.0653 4.61434 12.0062C6.70405 10.323 9.30659 9.40527 11.9898 9.40527C14.6731 9.40527 17.2756 10.323 19.3653 12.0062C19.4422 12.0644 19.5066 12.1374 19.5547 12.2209C19.6028 12.3044 19.6337 12.3967 19.6456 12.4923C19.6574 12.588 19.6499 12.6851 19.6236 12.7778C19.5973 12.8705 19.5527 12.957 19.4923 13.0322C19.4282 13.1219 19.3431 13.1945 19.2444 13.2439C19.1458 13.2932 19.0366 13.3177 18.9263 13.3152Z" fill="#3D444F"/>
<path d="M21.7693 9.91318C21.6063 9.91358 21.448 9.85857 21.3203 9.75717C18.6787 7.63298 15.3906 6.47497 12.0008 6.47497C8.61106 6.47497 5.323 7.63298 2.68134 9.75717C2.52844 9.87652 2.3344 9.93024 2.14189 9.90652C1.94938 9.8828 1.77419 9.78357 1.65484 9.63067C1.53549 9.47778 1.48177 9.28373 1.50549 9.09123C1.52922 8.89872 1.62844 8.72352 1.78134 8.60417C4.67817 6.27583 8.28328 5.00659 11.9998 5.00659C15.7164 5.00659 19.3215 6.27583 22.2183 8.60417C22.3384 8.69789 22.4262 8.82673 22.4696 8.97273C22.513 9.11872 22.5097 9.27461 22.4603 9.41868C22.4109 9.56274 22.3178 9.6878 22.1939 9.77644C22.0701 9.86508 21.9216 9.91288 21.7693 9.91318Z" fill="#3D444F"/>
<path d="M17.0896 16.8781C16.9265 16.8785 16.7682 16.8235 16.6406 16.7221C15.3251 15.6645 13.6879 15.088 12.0001 15.088C10.3122 15.088 8.67499 15.6645 7.35956 16.7221C7.20666 16.8415 7.01262 16.8952 6.82011 16.8715C6.62761 16.8477 6.45241 16.7485 6.33306 16.5956C6.21371 16.4427 6.15999 16.2487 6.18372 16.0562C6.20744 15.8637 6.30666 15.6885 6.45956 15.5691C8.02827 14.3079 9.98073 13.6204 11.9936 13.6204C14.0064 13.6204 15.9589 14.3079 17.5276 15.5691C17.6044 15.6273 17.6688 15.7003 17.7169 15.7838C17.765 15.8673 17.7959 15.9596 17.8078 16.0553C17.8196 16.1509 17.8122 16.248 17.7858 16.3407C17.7595 16.4334 17.7149 16.5199 17.6546 16.5951C17.5892 16.6833 17.504 16.7548 17.4058 16.804C17.3077 16.8532 17.1993 16.8785 17.0896 16.8781Z" fill="#3D444F"/>
<path d="M14.5406 20.4542C14.3776 20.4546 14.2192 20.3996 14.0916 20.2982C13.4981 19.8193 12.7586 19.5582 11.9961 19.5582C11.2335 19.5582 10.494 19.8193 9.90057 20.2982C9.82487 20.3572 9.73826 20.4009 9.6457 20.4265C9.55314 20.4521 9.45644 20.4592 9.36113 20.4475C9.26581 20.4358 9.17373 20.4053 9.09017 20.358C9.0066 20.3107 8.93317 20.2474 8.87407 20.1717C8.81498 20.0959 8.77137 20.0093 8.74575 19.9168C8.72013 19.8242 8.71298 19.7275 8.72473 19.6322C8.73648 19.5369 8.76688 19.4448 8.81421 19.3612C8.86154 19.2777 8.92487 19.2042 9.00057 19.1452C9.84729 18.4623 10.9023 18.0898 11.9901 18.0898C13.0779 18.0898 14.1329 18.4623 14.9796 19.1452C15.0564 19.2033 15.1208 19.2764 15.1689 19.3599C15.217 19.4434 15.2479 19.5357 15.2598 19.6313C15.2716 19.727 15.2642 19.824 15.2379 19.9168C15.2115 20.0095 15.1669 20.096 15.1066 20.1712C15.0411 20.2595 14.9557 20.3311 14.8574 20.3803C14.759 20.4294 14.6505 20.4547 14.5406 20.4542Z" fill="#3D444F"/>
</svg>
