<svg width="24" height="25" viewBox="0 0 24 25" fill="none" xmlns="http://www.w3.org/2000/svg">
<path d="M13.951 23.2305H10.051C4.76 23.2305 2.5 20.9645 2.5 15.6605V9.80047C2.5 4.50047 4.761 2.23047 10.051 2.23047H13.951C19.242 2.23047 21.502 4.49647 21.502 9.80047V15.6605C21.501 20.9645 19.24 23.2305 13.951 23.2305ZM10.051 3.69547C5.559 3.69547 3.961 5.29547 3.961 9.79547V15.6555C3.961 20.1555 5.561 21.7555 10.051 21.7555H13.951C18.443 21.7555 20.041 20.1555 20.041 15.6555V9.80047C20.041 5.30047 18.441 3.70047 13.951 3.70047L10.051 3.69547Z" fill="#3D444F"/>
<path d="M14.9242 11.5854H9.07823C8.49614 11.5833 7.93862 11.3505 7.52776 10.9382C7.11691 10.5258 6.88623 9.96747 6.88623 9.38538V8.41338C6.88623 7.83129 7.11691 7.27292 7.52776 6.86057C7.93862 6.44821 8.49614 6.2155 9.07823 6.21338H14.9242C15.5063 6.2155 16.0638 6.44821 16.4747 6.86057C16.8855 7.27292 17.1162 7.83129 17.1162 8.41338V9.38538C17.1162 9.96747 16.8855 10.5258 16.4747 10.9382C16.0638 11.3505 15.5063 11.5833 14.9242 11.5854ZM9.07823 7.68538C8.8845 7.68695 8.69918 7.76475 8.56237 7.90193C8.42556 8.03911 8.34828 8.22464 8.34723 8.41838V9.38538C8.34828 9.57911 8.42556 9.76465 8.56237 9.90183C8.69918 10.039 8.8845 10.1168 9.07823 10.1184H14.9242C15.118 10.1168 15.3033 10.039 15.4401 9.90183C15.5769 9.76465 15.6542 9.57911 15.6552 9.38538V8.41338C15.6542 8.21964 15.5769 8.03411 15.4401 7.89693C15.3033 7.75975 15.118 7.68195 14.9242 7.68038L9.07823 7.68538Z" fill="#3D444F"/>
<path d="M8.2502 15.5835C8.09099 15.5805 7.93487 15.539 7.79516 15.4626C7.65545 15.3862 7.5363 15.2771 7.44788 15.1447C7.35946 15.0123 7.3044 14.8604 7.28739 14.7021C7.27038 14.5437 7.29193 14.3836 7.3502 14.2355C7.39707 14.1137 7.47013 14.0038 7.5642 13.9135C7.60638 13.867 7.65565 13.8275 7.7102 13.7965C7.76095 13.7577 7.81817 13.7283 7.8792 13.7095C7.93771 13.681 8.00002 13.6611 8.0642 13.6505C8.22081 13.6189 8.3828 13.6265 8.53578 13.6726C8.68876 13.7186 8.82801 13.8017 8.9412 13.9145C9.03423 14.0057 9.10713 14.1154 9.15519 14.2365C9.23224 14.4146 9.25304 14.6121 9.21479 14.8024C9.17655 14.9928 9.08109 15.1669 8.9412 15.3015C8.85058 15.3921 8.74278 15.4637 8.62412 15.5121C8.50547 15.5605 8.37834 15.5848 8.2502 15.5835Z" fill="#3D444F"/>
<path d="M12.157 15.5824C11.9973 15.5803 11.8405 15.5395 11.7 15.4635C11.5595 15.3875 11.4395 15.2786 11.3504 15.146C11.2613 15.0134 11.2057 14.8612 11.1884 14.7024C11.1711 14.5436 11.1926 14.383 11.251 14.2344C11.2979 14.1126 11.371 14.0027 11.465 13.9124C11.5072 13.8659 11.5565 13.8264 11.611 13.7954C11.661 13.7573 11.7171 13.7282 11.777 13.7094C11.8356 13.6809 11.8979 13.661 11.962 13.6504C12.1507 13.6124 12.3464 13.633 12.523 13.7094C12.6394 13.7567 12.7454 13.8263 12.835 13.9144C12.926 14.0073 12.9986 14.1165 13.049 14.2364C13.1261 14.4145 13.1469 14.612 13.1086 14.8023C13.0704 14.9927 12.9749 15.1668 12.835 15.3014C12.7461 15.3905 12.6404 15.4612 12.524 15.5094C12.4077 15.5577 12.283 15.5824 12.157 15.5824Z" fill="#3D444F"/>
<path d="M16.0452 15.5824C15.7903 15.5775 15.5467 15.4764 15.3632 15.2994C15.2712 15.2074 15.1985 15.0979 15.1492 14.9774C15.0583 14.7385 15.0583 14.4744 15.1492 14.2354C15.1961 14.1137 15.2691 14.0038 15.3632 13.9134C15.5495 13.7392 15.7951 13.6423 16.0502 13.6423C16.3053 13.6423 16.5509 13.7392 16.7372 13.9134C16.9215 14.0973 17.0264 14.3461 17.0292 14.6064C17.0276 14.8663 16.9232 15.1149 16.7388 15.298C16.5544 15.4811 16.305 15.5837 16.0452 15.5834V15.5824Z" fill="#3D444F"/>
<path d="M8.2589 19.4896C8.13052 19.4909 8.00316 19.4666 7.88432 19.418C7.76548 19.3694 7.65756 19.2975 7.5669 19.2066C7.47522 19.1164 7.40224 19.0091 7.35213 18.8907C7.30202 18.7723 7.27578 18.6451 7.2749 18.5166C7.27773 18.2562 7.38257 18.0074 7.5669 17.8236C7.61115 17.7794 7.66011 17.7401 7.7129 17.7066C7.76253 17.6671 7.81872 17.6366 7.8789 17.6166C7.93742 17.5881 7.99972 17.5683 8.0639 17.5576C8.22054 17.5277 8.38207 17.5361 8.53477 17.5821C8.68746 17.628 8.82679 17.7102 8.9409 17.8216C8.986 17.8681 9.02841 17.9172 9.0679 17.9686L9.1559 18.1446L9.2139 18.3206C9.22528 18.3867 9.23163 18.4535 9.2329 18.5206C9.23242 18.6496 9.20637 18.7773 9.15625 18.8963C9.10613 19.0152 9.03294 19.1231 8.9409 19.2136C8.85105 19.3023 8.74453 19.3724 8.62748 19.4197C8.51043 19.4671 8.38517 19.4908 8.2589 19.4896Z" fill="#3D444F"/>
<path d="M12.1569 19.4895C12.0285 19.4908 11.9011 19.4665 11.7823 19.4179C11.6634 19.3693 11.5555 19.2974 11.4649 19.2065C11.3728 19.116 11.2996 19.0082 11.2495 18.8892C11.1994 18.7703 11.1733 18.6426 11.1729 18.5135C11.1735 18.3692 11.2061 18.2268 11.2682 18.0965C11.3303 17.9662 11.4204 17.8512 11.5321 17.7598C11.6437 17.6684 11.7742 17.6027 11.9142 17.5676C12.0542 17.5324 12.2002 17.5286 12.3419 17.5565C12.4047 17.5679 12.4656 17.5881 12.5229 17.6165C12.5829 17.6359 12.6391 17.6657 12.6889 17.7045C12.7399 17.7405 12.7886 17.7796 12.8349 17.8215C13.0167 18.0062 13.1184 18.2552 13.1179 18.5145C13.119 18.643 13.0946 18.7705 13.0461 18.8894C12.9975 19.0084 12.9257 19.1165 12.8349 19.2075C12.746 19.2968 12.6403 19.3677 12.524 19.4161C12.4076 19.4645 12.2829 19.4894 12.1569 19.4895Z" fill="#3D444F"/>
<path d="M16.0451 19.4894C15.9184 19.4897 15.7928 19.4649 15.6757 19.4163C15.5587 19.3677 15.4524 19.2963 15.3631 19.2064C15.2723 19.1154 15.2005 19.0073 15.1519 18.8883C15.1033 18.7693 15.0789 18.6419 15.0801 18.5134C15.0796 18.2541 15.1813 18.0051 15.3631 17.8204C15.4524 17.7324 15.5581 17.6628 15.6741 17.6154C15.8219 17.552 15.9832 17.5266 16.1433 17.5415C16.3034 17.5563 16.4572 17.6109 16.5909 17.7003C16.7245 17.7898 16.8337 17.9112 16.9085 18.0535C16.9832 18.1958 17.0213 18.3546 17.0191 18.5154C17.0229 18.7079 16.9681 18.897 16.862 19.0577C16.7559 19.2184 16.6036 19.3431 16.4251 19.4154C16.3046 19.4651 16.1754 19.4902 16.0451 19.4894Z" fill="#3D444F"/>
</svg>
