<svg width="25" height="24" viewBox="0 0 25 24" fill="none" xmlns="http://www.w3.org/2000/svg">
<path d="M9.06236 22C5.63031 22 3.65137 20.0453 3.65137 16.6455V8.73246C3.65137 5.57289 5.35789 3.66234 8.35712 3.40682V2.6806C8.36384 2.49785 8.44099 2.3243 8.57265 2.19738C8.70431 2.07047 8.87996 2 9.06282 2C9.24569 2 9.4218 2.07047 9.55346 2.19738C9.68512 2.3243 9.76227 2.49785 9.76899 2.6806V3.37703H15.8866V2.6806C15.8933 2.49785 15.9705 2.3243 16.1021 2.19738C16.2338 2.07047 16.4099 2 16.5928 2C16.7756 2 16.9513 2.07047 17.0829 2.19738C17.2146 2.3243 17.2918 2.49785 17.2985 2.6806V3.40682C20.2948 3.66234 22.0042 5.57289 22.0042 8.73246V16.6455C22.0042 20.0453 20.0253 22 16.5923 22H9.06236ZM5.05858 16.6455C5.05858 19.3093 6.36724 20.6034 9.06236 20.6034H16.5942C19.2855 20.6034 20.598 19.3093 20.598 16.6455V9.97821H5.06882L5.05858 16.6455ZM20.5868 8.58163C20.5429 6.2601 19.4627 5.01695 17.2938 4.80434V5.47191C17.2871 5.65466 17.2095 5.82728 17.0778 5.95419C16.9462 6.08111 16.7705 6.15251 16.5877 6.15251C16.4048 6.15251 16.2291 6.08111 16.0975 5.95419C15.9658 5.82728 15.8887 5.65466 15.882 5.47191V4.77175H9.76433V5.47191C9.75762 5.65466 9.68 5.82728 9.54834 5.95419C9.41668 6.08111 9.24103 6.15251 9.05817 6.15251C8.8753 6.15251 8.69965 6.08111 8.56799 5.95419C8.43634 5.82728 8.35918 5.65466 8.35247 5.47191V4.80434C6.18456 5.01695 5.10336 6.2601 5.05951 8.58163H20.5868ZM9.17035 17.5021C9.05649 17.4549 8.95125 17.3887 8.8594 17.3066C8.77389 17.2196 8.707 17.1158 8.66296 17.0021C8.61438 16.8894 8.58868 16.7682 8.58755 16.6455C8.59154 16.3992 8.68876 16.164 8.8594 15.9863C8.95194 15.9048 9.05701 15.8385 9.17035 15.7899C9.3419 15.7192 9.53045 15.7 9.71266 15.7349C9.89487 15.7698 10.0625 15.8573 10.1959 15.9863C10.2349 16.034 10.2799 16.0812 10.3104 16.125C10.3444 16.1781 10.3724 16.2344 10.3942 16.2936C10.4222 16.3495 10.4407 16.4103 10.4486 16.4723C10.4615 16.5299 10.4685 16.5883 10.4696 16.6474C10.4649 16.8944 10.3667 17.1308 10.1949 17.3084C10.0144 17.4794 9.77644 17.5762 9.52786 17.5793C9.4066 17.5767 9.28692 17.5501 9.17594 17.5011L9.17035 17.5021ZM12.1533 14.0479C12.1171 14.0002 12.0778 13.9521 12.0416 13.9082C12.0054 13.8564 11.9772 13.7998 11.9578 13.7397C11.9287 13.687 11.9092 13.6298 11.9005 13.5702C11.8899 13.5097 11.8838 13.4482 11.8824 13.3868C11.883 13.2644 11.9087 13.1433 11.9578 13.0311C12.004 12.9183 12.0706 12.8155 12.1542 12.7267C12.287 12.5968 12.4554 12.5082 12.6379 12.4734C12.8203 12.4387 13.0089 12.4592 13.1802 12.5312C13.2958 12.5749 13.4012 12.6414 13.4907 12.7267C13.6632 12.9038 13.7615 13.1396 13.7653 13.3868C13.7629 13.4483 13.7559 13.5098 13.7444 13.5702C13.7352 13.6293 13.7168 13.6863 13.6899 13.7397C13.6677 13.7988 13.6394 13.8551 13.6052 13.9082C13.5661 13.954 13.5298 14.004 13.4907 14.0479C13.4005 14.1325 13.2953 14.1992 13.1802 14.2443C13.0671 14.2911 12.946 14.3159 12.8236 14.3169C12.5764 14.312 12.3395 14.2157 12.1589 14.0469L12.1533 14.0479ZM9.17035 14.2443C9.05701 14.1957 8.95194 14.1294 8.8594 14.0479C8.77619 13.958 8.70963 13.8538 8.66296 13.7406C8.61413 13.6294 8.5884 13.5092 8.58755 13.3877C8.59024 13.1408 8.68763 12.905 8.8594 12.7276C8.95125 12.6454 9.05649 12.5793 9.17035 12.5321C9.34211 12.4569 9.53265 12.4361 9.71639 12.4734C9.77531 12.484 9.83247 12.5041 9.88536 12.5321C9.94578 12.5508 10.0025 12.579 10.0539 12.6159C10.1025 12.6521 10.1491 12.6885 10.1959 12.7276C10.2373 12.7712 10.2756 12.8173 10.3104 12.8663C10.3444 12.9187 10.3724 12.9745 10.3942 13.033C10.4205 13.0862 10.439 13.1438 10.4486 13.2025C10.4816 13.3536 10.4758 13.5104 10.4314 13.6587C10.387 13.8069 10.3055 13.9415 10.1949 14.0497C10.0138 14.2194 9.77605 14.3155 9.52786 14.3188C9.40693 14.3158 9.2875 14.2901 9.17594 14.2434L9.17035 14.2443Z" fill="#3D444F"/>
</svg>
