<svg width="25" height="25" viewBox="0 0 25 25" fill="none" xmlns="http://www.w3.org/2000/svg">
<path d="M17.1351 23.2305H6.65509C6.04425 23.2779 5.43023 23.1972 4.85236 22.9936C4.27449 22.79 3.74551 22.468 3.2993 22.0481C2.85309 21.6283 2.49948 21.1199 2.26112 20.5555C2.02276 19.991 1.9049 19.3831 1.91509 18.7705L1.39509 10.5205C1.35319 9.90716 1.4391 9.29183 1.64738 8.71345C1.85567 8.13507 2.18179 7.60625 2.60509 7.16047C3.02679 6.7101 3.53625 6.35088 4.10208 6.10494C4.66792 5.859 5.27812 5.73156 5.89509 5.73047C6.05754 5.72815 6.21621 5.68122 6.35378 5.5948C6.49134 5.50838 6.6025 5.3858 6.67509 5.24047L7.39509 3.81047C7.73266 3.20717 8.21821 2.69969 8.80602 2.33581C9.39382 1.97192 10.0646 1.76361 10.7551 1.73047H13.0451C13.733 1.76387 14.4012 1.9713 14.9871 2.33334C15.573 2.69537 16.0575 3.20017 16.3951 3.80047L17.1151 5.26047C17.191 5.40158 17.3034 5.51967 17.4407 5.60237C17.5779 5.68506 17.7349 5.72931 17.8951 5.73047C18.5121 5.73156 19.1223 5.859 19.6881 6.10494C20.2539 6.35088 20.7634 6.7101 21.1851 7.16047C21.6077 7.60674 21.9334 8.13563 22.1416 8.71389C22.3498 9.29214 22.4361 9.90723 22.3951 10.5205L21.8751 18.7805C21.89 19.3939 21.7752 20.0036 21.5383 20.5697C21.3014 21.1358 20.9477 21.6455 20.5003 22.0655C20.0529 22.4855 19.5219 22.8064 18.942 23.0071C18.3621 23.2079 17.7464 23.284 17.1351 23.2305ZM10.7551 3.23047C10.3424 3.25985 9.94296 3.38894 9.59113 3.60666C9.23929 3.82438 8.94554 4.12423 8.73509 4.48047L8.01509 5.92047C7.81668 6.31292 7.51372 6.64293 7.13962 6.87409C6.76553 7.10526 6.33484 7.22858 5.89509 7.23047C5.48289 7.2298 5.07494 7.31377 4.69651 7.47718C4.31809 7.64059 3.97724 7.87996 3.69509 8.18047C3.41363 8.4779 3.19714 8.83066 3.05941 9.2163C2.92169 9.60194 2.86573 10.012 2.89509 10.4205L3.41509 18.6805C3.39013 19.1041 3.45844 19.528 3.61519 19.9223C3.77195 20.3167 4.01333 20.6718 4.32231 20.9627C4.63129 21.2535 5.00034 21.473 5.40341 21.6057C5.80649 21.7384 6.23376 21.781 6.65509 21.7305H17.1351C17.5564 21.781 17.9837 21.7384 18.3868 21.6057C18.7899 21.473 19.1589 21.2535 19.4679 20.9627C19.7769 20.6718 20.0182 20.3167 20.175 19.9223C20.3318 19.528 20.4001 19.1041 20.3751 18.6805L20.8951 10.4205C20.922 10.0106 20.8643 9.59961 20.7255 9.21302C20.5868 8.82643 20.3699 8.47252 20.0886 8.17331C19.8072 7.87411 19.4672 7.63599 19.0899 7.47379C18.7125 7.31159 18.3058 7.22876 17.8951 7.23047C17.4579 7.22837 17.0295 7.10717 16.6559 6.87989C16.2824 6.6526 15.9779 6.32783 15.7751 5.94047L15.0451 4.48047C14.8356 4.1264 14.5432 3.82855 14.193 3.61254C13.8429 3.39653 13.4455 3.26885 13.0351 3.24047H10.7551V3.23047Z" fill="#3D444F"/>
<path d="M13.3955 9.23047H10.3955C10.1966 9.23047 10.0058 9.15145 9.86518 9.0108C9.72453 8.87015 9.64551 8.67938 9.64551 8.48047C9.64551 8.28156 9.72453 8.09079 9.86518 7.95014C10.0058 7.80949 10.1966 7.73047 10.3955 7.73047H13.3955C13.5944 7.73047 13.7852 7.80949 13.9258 7.95014C14.0665 8.09079 14.1455 8.28156 14.1455 8.48047C14.1455 8.67938 14.0665 8.87015 13.9258 9.0108C13.7852 9.15145 13.5944 9.23047 13.3955 9.23047Z" fill="#3D444F"/>
<path d="M11.8955 19.2305C11.1044 19.2305 10.331 18.9959 9.67323 18.5563C9.01543 18.1168 8.50274 17.4921 8.19999 16.7612C7.89724 16.0303 7.81803 15.226 7.97237 14.4501C8.12671 13.6742 8.50767 12.9615 9.06708 12.402C9.62649 11.8426 10.3392 11.4617 11.1151 11.3073C11.8911 11.153 12.6953 11.2322 13.4262 11.535C14.1571 11.8377 14.7819 12.3504 15.2214 13.0082C15.6609 13.666 15.8955 14.4393 15.8955 15.2305C15.8955 16.2913 15.4741 17.3088 14.7239 18.0589C13.9738 18.809 12.9564 19.2305 11.8955 19.2305ZM11.8955 12.7305C11.4011 12.7305 10.9177 12.8771 10.5066 13.1518C10.0955 13.4265 9.77503 13.8169 9.58581 14.2738C9.39659 14.7306 9.34708 15.2332 9.44355 15.7182C9.54001 16.2031 9.77811 16.6486 10.1277 16.9982C10.4774 17.3479 10.9228 17.586 11.4078 17.6824C11.8927 17.7789 12.3954 17.7294 12.8522 17.5402C13.309 17.351 13.6995 17.0305 13.9742 16.6194C14.2489 16.2083 14.3955 15.7249 14.3955 15.2305C14.3955 14.5674 14.1321 13.9315 13.6633 13.4627C13.1944 12.9939 12.5586 12.7305 11.8955 12.7305Z" fill="#3D444F"/>
</svg>
