<svg width="24" height="24" viewBox="0 0 24 24" fill="none" xmlns="http://www.w3.org/2000/svg">
<path d="M6 3.375H18C18.2984 3.375 18.5849 3.49312 18.7959 3.7041C19.0069 3.91508 19.125 4.20163 19.125 4.5V8.625H18.375V4.125H5.625V19.875H11.625V20.625H6C5.70163 20.625 5.41508 20.5069 5.2041 20.2959C4.99312 20.0849 4.875 19.7984 4.875 19.5V4.5C4.875 4.20163 4.99312 3.91508 5.2041 3.7041C5.41508 3.49312 5.70163 3.375 6 3.375Z" fill="#3D444F" stroke="#3D444F" stroke-width="0.75"/>
<path d="M11.625 13.875V14.625H7.875V13.875H11.625ZM16.125 10.875V11.625H7.875V10.875H16.125Z" fill="#3D444F" stroke="#3D444F" stroke-width="0.75"/>
<path d="M18 13.125C18.0995 13.125 18.1953 13.164 18.2656 13.2344C18.3359 13.3047 18.375 13.4005 18.375 13.5V15.6064L22.125 17.4814V18.1953L18.8896 16.9014L18.375 16.6963V20.0625L18.5254 20.1748L19.875 21.1865V21.2295L18.1182 20.6445L18 20.6045L17.8818 20.6445L16.125 21.2295V21.1865L17.4746 20.1748L17.625 20.0625V16.6963L17.1104 16.9014L13.875 18.1953V17.4814L17.625 15.6064V13.5C17.625 13.4005 17.6641 13.3047 17.7344 13.2344C17.8047 13.164 17.9005 13.125 18 13.125ZM16.125 7.875V8.625H7.875V7.875H16.125Z" fill="#3D444F" stroke="#3D444F" stroke-width="0.75"/>
</svg>
