<svg width="24" height="25" viewBox="0 0 24 25" fill="none" xmlns="http://www.w3.org/2000/svg">
<path d="M21.7664 10.0693H2.23242C2.03351 10.0693 1.84274 9.99032 1.70209 9.84967C1.56144 9.70901 1.48242 9.51825 1.48242 9.31934C1.48242 9.12042 1.56144 8.92966 1.70209 8.78901C1.84274 8.64835 2.03351 8.56934 2.23242 8.56934H21.7664C21.9653 8.56934 22.1561 8.64835 22.2968 8.78901C22.4374 8.92966 22.5164 9.12042 22.5164 9.31934C22.5164 9.51825 22.4374 9.70901 22.2968 9.84967C22.1561 9.99032 21.9653 10.0693 21.7664 10.0693Z" fill="#3D444F"/>
<path d="M8.13867 17.8662H6.13867C5.93976 17.8662 5.74899 17.7872 5.60834 17.6465C5.46769 17.5059 5.38867 17.3151 5.38867 17.1162C5.38867 16.9173 5.46769 16.7265 5.60834 16.5859C5.74899 16.4452 5.93976 16.3662 6.13867 16.3662H8.13867C8.33758 16.3662 8.52835 16.4452 8.669 16.5859C8.80965 16.7265 8.88867 16.9173 8.88867 17.1162C8.88867 17.3151 8.80965 17.5059 8.669 17.6465C8.52835 17.7872 8.33758 17.8662 8.13867 17.8662Z" fill="#3D444F"/>
<path d="M14.4834 17.8662H10.4834C10.2845 17.8662 10.0937 17.7872 9.95307 17.6465C9.81242 17.5059 9.7334 17.3151 9.7334 17.1162C9.7334 16.9173 9.81242 16.7265 9.95307 16.5859C10.0937 16.4452 10.2845 16.3662 10.4834 16.3662H14.4834C14.6823 16.3662 14.8731 16.4452 15.0137 16.5859C15.1544 16.7265 15.2334 16.9173 15.2334 17.1162C15.2334 17.3151 15.1544 17.5059 15.0137 17.6465C14.8731 17.7872 14.6823 17.8662 14.4834 17.8662Z" fill="#3D444F"/>
<path d="M17.43 21.7653H6.56802C2.68102 21.7653 1.49902 20.5933 1.49902 16.7453V8.71531C1.49902 4.86731 2.68102 3.69531 6.56802 3.69531H17.42C21.307 3.69531 22.489 4.86731 22.489 8.71531V16.7353C22.499 20.5933 21.317 21.7653 17.43 21.7653ZM6.56802 5.16031C3.50102 5.16031 2.96802 5.68731 2.96802 8.71531V16.7353C2.96802 19.7633 3.50502 20.2903 6.56802 20.2903H17.42C20.487 20.2903 21.02 19.7633 21.02 16.7353V8.71531C21.02 5.68731 20.483 5.16031 17.42 5.16031H6.56802Z" fill="#3D444F"/>
</svg>
