<svg width="24" height="25" viewBox="0 0 24 25" fill="none" xmlns="http://www.w3.org/2000/svg">
<path d="M4.13016 17.2509C4.03386 17.2513 3.93846 17.2324 3.84953 17.1955C3.76059 17.1586 3.67989 17.1043 3.61216 17.0359C3.47585 16.8979 3.39941 16.7118 3.39941 16.5179C3.39941 16.324 3.47585 16.1378 3.61216 15.9999L15.2872 4.32589C15.4245 4.18851 15.6109 4.11133 15.8052 4.11133C15.9994 4.11133 16.1858 4.18851 16.3232 4.32589C16.4605 4.46327 16.5377 4.6496 16.5377 4.84389C16.5377 5.03818 16.4605 5.22451 16.3232 5.36189L4.64816 17.0459C4.50879 17.1791 4.32294 17.2526 4.13016 17.2509Z" fill="#3D444F"/>
<path d="M11.135 19.5961C11.0387 19.5964 10.9433 19.5776 10.8544 19.5407C10.7655 19.5038 10.6848 19.4495 10.617 19.3811C10.4807 19.2431 10.4043 19.057 10.4043 18.8631C10.4043 18.6691 10.4807 18.483 10.617 18.3451L11.789 17.1731C11.9264 17.0357 12.1128 16.9585 12.307 16.9585C12.5013 16.9585 12.6877 17.0357 12.825 17.1731C12.9624 17.3104 13.0396 17.4968 13.0396 17.6911C13.0396 17.8853 12.9624 18.0717 12.825 18.2091L11.652 19.3811C11.515 19.5184 11.3291 19.5957 11.135 19.5961Z" fill="#3D444F"/>
<path d="M13.763 16.9671C13.6667 16.9674 13.5713 16.9486 13.4823 16.9117C13.3934 16.8748 13.3127 16.8205 13.245 16.7521C13.1087 16.6141 13.0322 16.428 13.0322 16.2341C13.0322 16.0401 13.1087 15.854 13.245 15.7161L15.58 13.3811C15.7174 13.2437 15.9037 13.1665 16.098 13.1665C16.2923 13.1665 16.4786 13.2437 16.616 13.3811C16.7534 13.5184 16.8305 13.7048 16.8305 13.8991C16.8305 14.0934 16.7534 14.2797 16.616 14.4171L14.281 16.7521C14.1427 16.8881 13.957 16.9652 13.763 16.9671Z" fill="#3D444F"/>
<path d="M11.1354 23.23C10.1784 23.23 9.22036 22.644 8.05836 21.481L3.26236 16.684C0.926357 14.349 0.936357 12.845 3.29036 10.49L9.77736 4.003C12.1324 1.649 13.6364 1.639 15.9714 3.975L20.7714 8.775C23.1064 11.11 23.0964 12.614 20.7424 14.969L14.2524 21.452C13.0704 22.634 12.1024 23.23 11.1354 23.23ZM12.8944 3.691C12.3864 3.691 11.7414 4.111 10.8134 5.039L4.32636 11.526C3.39836 12.454 2.97836 13.099 2.97836 13.597C2.97836 14.095 3.36936 14.721 4.29736 15.649L9.09736 20.449C10.0254 21.377 10.6314 21.768 11.1394 21.768H11.1494C11.6574 21.768 12.2924 21.348 13.2204 20.42L19.7074 13.933C20.6354 13.005 21.0554 12.36 21.0554 11.862C21.0554 11.364 20.6624 10.735 19.7334 9.806L14.9334 5.006C14.0174 4.081 13.4024 3.691 12.8944 3.691Z" fill="#3D444F"/>
<path d="M21.7844 23.2299H2.24542C2.14695 23.2335 2.04876 23.2173 1.95671 23.1821C1.86466 23.1469 1.78065 23.0936 1.7097 23.0252C1.63875 22.9568 1.58231 22.8748 1.54377 22.7842C1.50522 22.6935 1.48535 22.5959 1.48535 22.4974C1.48535 22.3989 1.50522 22.3013 1.54377 22.2107C1.58231 22.12 1.63875 22.038 1.7097 21.9696C1.78065 21.9012 1.86466 21.8479 1.95671 21.8127C2.04876 21.7775 2.14695 21.7613 2.24542 21.7649H21.7844C21.974 21.7719 22.1535 21.8522 22.2851 21.9888C22.4168 22.1254 22.4904 22.3077 22.4904 22.4974C22.4904 22.6871 22.4168 22.8694 22.2851 23.0061C22.1535 23.1427 21.974 23.2229 21.7844 23.2299Z" fill="#3D444F"/>
</svg>
