<svg width="24" height="25" viewBox="0 0 24 25" fill="none" xmlns="http://www.w3.org/2000/svg">
<path d="M11.5 23.2333C7.638 23.2333 4.5 20.4333 4.5 16.9823V13.3663C4.5 13.1743 4.57628 12.9902 4.71205 12.8544C4.84783 12.7186 5.03198 12.6423 5.224 12.6423C5.41602 12.6423 5.60017 12.7186 5.73595 12.8544C5.87172 12.9902 5.948 13.1743 5.948 13.3663C5.948 15.9253 8.333 17.8593 11.5 17.8593C14.667 17.8593 17.05 15.9253 17.05 13.3663C17.05 13.1743 17.1263 12.9902 17.2621 12.8544C17.3978 12.7186 17.582 12.6423 17.774 12.6423C17.966 12.6423 18.1502 12.7186 18.2859 12.8544C18.4217 12.9902 18.498 13.1743 18.498 13.3663V16.9803C18.5 20.4273 15.362 23.2333 11.5 23.2333ZM5.95 17.0873C6.018 19.6753 8.48 21.7663 11.502 21.7663C14.524 21.7663 16.986 19.6763 17.054 17.0873C16.334 17.8244 15.4687 18.4038 14.5129 18.7889C13.5572 19.174 12.5319 19.3563 11.502 19.3243C10.4722 19.3554 9.44719 19.1726 8.49159 18.7876C7.536 18.4026 6.67059 17.8236 5.95 17.0873Z" fill="#3D444F"/>
<path d="M11.5 14.4402C10.2781 14.4882 9.06419 14.2225 7.974 13.6685C6.88382 13.1145 5.95362 12.2906 5.27201 11.2752C4.76485 10.4317 4.4979 9.46553 4.50001 8.48124C4.50911 7.63301 4.70002 6.79659 5.05987 6.02841C5.41972 5.26024 5.94014 4.57817 6.58601 4.02824C7.94933 2.84844 9.69719 2.2082 11.5 2.22824C13.3002 2.2101 15.046 2.84496 16.414 4.01524C17.0597 4.56814 17.5799 5.25261 17.9396 6.02282C18.2994 6.79303 18.4904 7.63121 18.5 8.48124C18.5006 9.46501 18.2338 10.4304 17.728 11.2742C17.0465 12.2897 16.1164 13.1138 15.0262 13.668C13.936 14.2222 12.722 14.4881 11.5 14.4402ZM11.5 3.69624C10.0447 3.67486 8.63236 4.18954 7.53201 5.14224C7.04379 5.55236 6.64975 6.06294 6.37674 6.63915C6.10373 7.21537 5.95818 7.84367 5.95001 8.48124C5.94761 9.197 6.14129 9.89976 6.51001 10.5132C7.06427 11.314 7.81354 11.9602 8.68702 12.3908C9.5605 12.8214 10.5293 13.0222 11.502 12.9742C12.4744 13.0201 13.4425 12.8184 14.3156 12.388C15.1887 11.9575 15.9383 11.3125 16.494 10.5132C16.8656 9.9012 17.0583 9.19723 17.05 8.48124C17.0403 7.83982 16.8931 7.20794 16.6183 6.62828C16.3435 6.04863 15.9475 5.53471 15.457 5.12124C14.3537 4.18342 12.9479 3.67717 11.5 3.69624Z" fill="#3D444F"/>
<path d="M11.5 19.3244C7.512 19.3244 4.5 16.7654 4.5 13.3664V8.48136C4.5 5.03336 7.638 2.23036 11.5 2.23036C13.3002 2.21222 15.046 2.84708 16.414 4.01736C17.0595 4.57004 17.5795 5.25418 17.9392 6.02403C18.2989 6.79387 18.4901 7.63167 18.5 8.48136V13.3654C18.5 16.7654 15.488 19.3244 11.5 19.3244ZM11.5 3.69636C8.439 3.69636 5.95 5.84536 5.95 8.48136V13.3654C5.95 15.9244 8.335 17.8584 11.502 17.8584C14.669 17.8584 17.05 15.9254 17.05 13.3664V8.48136C17.0403 7.83993 16.8931 7.20805 16.6183 6.6284C16.3435 6.04875 15.9475 5.53483 15.457 5.12136C14.3537 4.18354 12.9479 3.67729 11.5 3.69636Z" fill="#3D444F"/>
</svg>
