<svg width="25" height="25" viewBox="0 0 25 25" fill="none" xmlns="http://www.w3.org/2000/svg">
<path d="M9.03857 19.2305H15.0386M7.03857 15.7305H17.0386M5.03857 2.73047H19.0386C20.1431 2.73047 21.0386 3.72539 21.0386 4.95269V20.5082C21.0386 21.7355 20.1431 22.7305 19.0386 22.7305H5.03857C3.934 22.7305 3.03857 21.7355 3.03857 20.5082V4.95269C3.03857 3.72539 3.934 2.73047 5.03857 2.73047ZM12.0362 6.94241C11.3364 6.16327 10.1695 5.95368 9.29272 6.66714C8.41595 7.3806 8.29251 8.57346 8.98104 9.41727C9.66957 10.2611 12.0362 12.2305 12.0362 12.2305C12.0362 12.2305 14.4028 10.2611 15.0913 9.41727C15.7798 8.57346 15.6715 7.37309 14.7796 6.66714C13.8878 5.96119 12.736 6.16327 12.0362 6.94241Z" stroke="#3D444F" stroke-width="1.5" stroke-linecap="round" stroke-linejoin="round"/>
</svg>
