<svg width="25" height="25" viewBox="0 0 25 25" fill="none" xmlns="http://www.w3.org/2000/svg">
<g clip-path="url(#clip0_9500_8176)">
<path d="M1.84877 23.2295C1.83825 23.2127 1.83089 23.188 1.81616 23.1811C1.48367 23.0307 1.38424 22.7602 1.38477 22.4141C1.3895 20.2029 1.3874 17.9913 1.3874 15.7802C1.3874 14.0588 1.3874 12.3375 1.3874 10.6156C1.3874 10.1463 1.51261 9.96009 1.94347 9.78754C4.09252 8.92687 6.2421 8.06724 8.3901 7.20394C8.62631 7.10925 8.84937 7.07873 9.09769 7.17921C10.3966 7.70582 11.6997 8.22086 13.0002 8.74326C13.3821 8.89688 13.5573 9.22673 13.4531 9.57237C13.3285 9.98535 12.9297 10.1611 12.4925 9.98745C11.5466 9.61183 10.6018 9.23199 9.65691 8.85374C9.59378 8.82849 9.5296 8.80534 9.44911 8.7743V8.95896C9.44911 12.3806 9.44964 15.8028 9.44701 19.2244C9.44701 19.3465 9.46016 19.4228 9.59536 19.4764C11.3072 20.1535 13.016 20.8385 14.7252 21.5208C14.7499 21.5308 14.7752 21.5387 14.8236 21.5566C14.8236 21.4656 14.8236 21.3919 14.8236 21.3182C14.8236 19.0929 14.8236 16.8676 14.8236 14.6422C14.8236 14.5512 14.8194 14.4586 14.8357 14.3703C14.8978 14.0393 15.1987 13.8068 15.5306 13.8242C15.8637 13.8421 16.132 14.1025 16.1625 14.4413C16.1693 14.5176 16.1667 14.5949 16.1667 14.6722C16.1667 16.8834 16.1667 19.095 16.1667 21.3061C16.1667 21.383 16.1667 21.4598 16.1667 21.5608C16.6854 21.3551 17.1889 21.1562 17.6918 20.9552C18.9155 20.466 20.1376 19.9731 21.3639 19.4906C21.508 19.4338 21.5443 19.3623 21.5438 19.2171C21.5396 16.775 21.5406 14.3329 21.5412 11.8903C21.5412 11.5168 21.6995 11.2743 22.0031 11.1727C22.3808 11.0465 22.7017 11.2316 22.8848 11.6809V20.0367C22.7585 20.3218 22.5276 20.4718 22.2435 20.5844C20.0339 21.4603 17.828 22.3452 15.6211 23.2274H15.327C15.3186 23.2169 15.3123 23.2016 15.3013 23.1969C13.1664 22.3431 11.031 21.4908 8.89672 20.6359C8.80413 20.5991 8.72732 20.6091 8.63894 20.6449C6.48831 21.5071 4.3361 22.3673 2.18442 23.2274H1.84825L1.84877 23.2295ZM2.73049 21.5613C2.7852 21.5392 2.80993 21.5287 2.83466 21.5192C4.52444 20.8442 6.21317 20.1666 7.90558 19.498C8.06183 19.4364 8.10917 19.3654 8.10865 19.1981C8.10286 15.7975 8.10444 12.3969 8.10444 8.99631C8.10444 8.92897 8.10444 8.86163 8.10444 8.7743C8.01921 8.80639 7.95503 8.82954 7.8919 8.85479C6.23474 9.51713 4.5781 10.1816 2.91935 10.8392C2.77416 10.8965 2.72576 10.9654 2.72628 11.1243C2.73154 14.5318 2.73049 17.9397 2.73049 21.3472V21.5613Z" fill="#3D444F"/>
<path d="M22.8848 6.85346C22.7517 7.12807 22.7243 7.43478 22.6186 7.71992C22.2856 8.61584 21.8126 9.43653 21.2892 10.2293C20.5179 11.3983 19.6483 12.4926 18.7277 13.5463C18.4146 13.9046 17.9733 13.9277 17.6713 13.581C16.3298 12.0391 15.0619 10.4419 14.1318 8.60742C13.8283 8.00874 13.572 7.39006 13.5068 6.71089C13.4184 5.78971 13.6336 4.93009 14.0866 4.13676C14.7726 2.93518 15.7995 2.17657 17.1489 1.84882C19.0086 1.39691 21.1329 2.26706 22.1367 3.89476C22.5086 4.49818 22.7559 5.14158 22.8438 5.84601C22.848 5.87862 22.8395 5.91755 22.8853 5.92913V6.85293L22.8848 6.85346ZM18.0616 3.07512C17.1331 3.09669 16.2488 3.49336 15.588 4.31352C14.9641 5.08844 14.6695 5.97332 14.9109 6.97393C15.0382 7.49949 15.2987 7.97454 15.5617 8.44223C16.2493 9.66432 17.0831 10.7844 17.9696 11.867C18.1805 12.1243 18.1832 12.1253 18.3873 11.8734C19.4442 10.5687 20.4511 9.22978 21.1766 7.70413C21.3755 7.28642 21.5433 6.85451 21.5375 6.38208C21.5149 4.55973 20.0092 3.07723 18.0611 3.07459L18.0616 3.07512Z" fill="#3D444F"/>
<path d="M18.1902 8.44746C17.0965 8.4564 16.1711 7.53575 16.168 6.43571C16.1648 5.33883 17.087 4.41608 18.1845 4.41871C19.2761 4.42081 20.1815 5.32094 20.1967 6.4194C20.212 7.50945 19.2924 8.43851 18.1902 8.44746ZM18.1781 7.10331C18.5422 7.10594 18.8478 6.80608 18.8526 6.4415C18.8573 6.07692 18.5601 5.76969 18.196 5.76233C17.8225 5.75496 17.5111 6.06009 17.5116 6.43361C17.5121 6.79871 17.8125 7.10068 18.1776 7.10279L18.1781 7.10331Z" fill="#3D444F"/>
</g>
<defs>
<clipPath id="clip0_9500_8176">
<rect width="21.5" height="21.4989" fill="white" transform="translate(1.38477 1.73047)"/>
</clipPath>
</defs>
</svg>
