<svg width="24" height="25" viewBox="0 0 24 25" fill="none" xmlns="http://www.w3.org/2000/svg">
<path d="M11.5302 10.0547H2.25018C2.15211 10.0583 2.05431 10.0422 1.96263 10.0071C1.87096 9.97212 1.78728 9.91897 1.71662 9.85087C1.64595 9.78277 1.58974 9.70112 1.55135 9.6108C1.51295 9.52049 1.49316 9.42335 1.49316 9.32521C1.49316 9.22708 1.51295 9.12994 1.55135 9.03963C1.58974 8.94931 1.64595 8.86766 1.71662 8.79956C1.78728 8.73146 1.87096 8.67831 1.96263 8.64329C2.05431 8.60826 2.15211 8.59208 2.25018 8.59571H11.5302C11.6282 8.59208 11.726 8.60826 11.8177 8.64329C11.9094 8.67831 11.9931 8.73146 12.0637 8.79956C12.1344 8.86766 12.1906 8.94931 12.229 9.03963C12.2674 9.12994 12.2872 9.22708 12.2872 9.32521C12.2872 9.42335 12.2674 9.52049 12.229 9.6108C12.1906 9.70112 12.1344 9.78277 12.0637 9.85087C11.9931 9.91897 11.9094 9.97212 11.8177 10.0071C11.726 10.0422 11.6282 10.0583 11.5302 10.0547Z" fill="#3D444F"/>
<path d="M8.11138 17.8386H6.15838C6.06031 17.8423 5.96251 17.8261 5.87084 17.7911C5.77916 17.7561 5.69549 17.7029 5.62482 17.6348C5.55415 17.5667 5.49794 17.4851 5.45955 17.3947C5.42116 17.3044 5.40137 17.2073 5.40137 17.1092C5.40137 17.011 5.42116 16.9139 5.45955 16.8236C5.49794 16.7332 5.55415 16.6516 5.62482 16.5835C5.69549 16.5154 5.77916 16.4622 5.87084 16.4272C5.96251 16.3922 6.06031 16.376 6.15838 16.3797H8.11138C8.20945 16.376 8.30725 16.3922 8.39893 16.4272C8.4906 16.4622 8.57427 16.5154 8.64494 16.5835C8.71561 16.6516 8.77182 16.7332 8.81021 16.8236C8.84861 16.9139 8.8684 17.011 8.8684 17.1092C8.8684 17.2073 8.84861 17.3044 8.81021 17.3947C8.77182 17.4851 8.71561 17.5667 8.64494 17.6348C8.57427 17.7029 8.4906 17.7561 8.39893 17.7911C8.30725 17.8261 8.20945 17.8423 8.11138 17.8386Z" fill="#3D444F"/>
<path d="M14.4609 17.8386H10.5539C10.4558 17.8423 10.358 17.8261 10.2663 17.7911C10.1747 17.7561 10.091 17.7029 10.0203 17.6348C9.94966 17.5667 9.89345 17.4851 9.85506 17.3947C9.81666 17.3044 9.79688 17.2073 9.79688 17.1092C9.79688 17.011 9.81666 16.9139 9.85506 16.8236C9.89345 16.7332 9.94966 16.6516 10.0203 16.5835C10.091 16.5154 10.1747 16.4622 10.2663 16.4272C10.358 16.3922 10.4558 16.376 10.5539 16.3797H14.4609C14.559 16.376 14.6568 16.3922 14.7484 16.4272C14.8401 16.4622 14.9238 16.5154 14.9944 16.5835C15.0651 16.6516 15.1213 16.7332 15.1597 16.8236C15.1981 16.9139 15.2179 17.011 15.2179 17.1092C15.2179 17.2073 15.1981 17.3044 15.1597 17.3947C15.1213 17.4851 15.0651 17.5667 14.9944 17.6348C14.9238 17.7029 14.8401 17.7561 14.7484 17.7911C14.6568 17.8261 14.559 17.8423 14.4609 17.8386Z" fill="#3D444F"/>
<path d="M17.4506 21.7307H6.58758C2.69958 21.7307 1.51758 20.5627 1.51758 16.7307V8.73072C1.51758 4.89672 2.69958 3.73072 6.58758 3.73072H14.4616C14.5597 3.72709 14.6574 3.74327 14.7491 3.7783C14.8408 3.81332 14.9245 3.86647 14.9951 3.93457C15.0658 4.00267 15.122 4.08432 15.1604 4.17464C15.1988 4.26495 15.2186 4.36209 15.2186 4.46022C15.2186 4.55836 15.1988 4.6555 15.1604 4.74581C15.122 4.83613 15.0658 4.91778 14.9951 4.98588C14.9245 5.05398 14.8408 5.10713 14.7491 5.14215C14.6574 5.17718 14.5597 5.19336 14.4616 5.18972H6.58758C3.52058 5.18972 2.98758 5.71472 2.98758 8.73172V16.7197C2.98758 19.7357 3.52458 20.2617 6.58758 20.2617H17.4406C20.5076 20.2617 21.0406 19.7367 21.0406 16.7197V12.7497C21.0476 12.5601 21.1278 12.3807 21.2644 12.249C21.401 12.1174 21.5834 12.0438 21.7731 12.0438C21.9628 12.0438 22.1451 12.1174 22.2817 12.249C22.4183 12.3807 22.4986 12.5601 22.5056 12.7497V16.7197C22.5206 20.5627 21.3386 21.7307 17.4506 21.7307Z" fill="#3D444F"/>
<path d="M15.4569 12.1858C15.2719 12.1899 15.0879 12.1566 14.9161 12.0879C14.7442 12.0191 14.588 11.9164 14.4569 11.7858C14.3013 11.6259 14.1857 11.4315 14.1195 11.2185C14.0532 11.0054 14.0383 10.7797 14.0759 10.5598L14.2699 9.17981C14.336 8.79986 14.5127 8.44785 14.7779 8.16781L18.4019 4.55781C18.602 4.31162 18.8544 4.11315 19.1409 3.97683C19.4274 3.84051 19.7406 3.76978 20.0579 3.76978C20.3751 3.76978 20.6884 3.84051 20.9749 3.97683C21.2613 4.11315 21.5138 4.31162 21.7139 4.55781C21.9613 4.75577 22.1611 5.00685 22.2984 5.29247C22.4357 5.57808 22.5069 5.89092 22.5069 6.20781C22.5069 6.5247 22.4357 6.83754 22.2984 7.12316C22.1611 7.40877 21.9613 7.65985 21.7139 7.85781L18.0899 11.4678C17.808 11.7323 17.4548 11.9082 17.0739 11.9738L15.6869 12.1688C15.6106 12.1791 15.5338 12.1848 15.4569 12.1858ZM20.0569 5.21981C19.8569 5.21981 19.6859 5.35581 19.4419 5.58981L15.8269 9.19981C15.7839 9.25939 15.7502 9.32514 15.7269 9.39481L15.5269 10.7088L16.8559 10.5238C16.9273 10.5009 16.9947 10.4672 17.0559 10.4238L20.6799 6.81381C21.1389 6.35681 21.2079 6.10381 20.6799 5.58781C20.4289 5.33581 20.2429 5.21981 20.0569 5.21981Z" fill="#3D444F"/>
<path d="M20.6848 8.58666C20.617 8.58779 20.5495 8.57799 20.4848 8.55766C19.8252 8.37189 19.2241 8.02051 18.7385 7.5369C18.253 7.0533 17.8992 6.45354 17.7108 5.79466C17.664 5.60888 17.6914 5.41215 17.7873 5.24628C17.8832 5.0804 18.04 4.95847 18.2244 4.90638C18.4088 4.85429 18.6062 4.87617 18.7747 4.96734C18.9432 5.05852 19.0696 5.21182 19.1268 5.39466C19.2493 5.81338 19.4756 6.19436 19.7847 6.50222C20.0938 6.81009 20.4756 7.03486 20.8948 7.15566C20.9875 7.18107 21.0742 7.22457 21.1499 7.28365C21.2257 7.34273 21.289 7.41622 21.3362 7.49988C21.3835 7.58355 21.4137 7.67573 21.4251 7.77112C21.4365 7.8665 21.4289 7.96321 21.4028 8.05566C21.353 8.20773 21.2572 8.34055 21.1285 8.4357C20.9999 8.53084 20.8448 8.5836 20.6848 8.58666Z" fill="#3D444F"/>
</svg>
