<svg width="24" height="25" viewBox="0 0 24 25" fill="none" xmlns="http://www.w3.org/2000/svg">
<path d="M8.25 10.4805H3.75C3.55108 10.4805 3.36032 10.4014 3.21967 10.2608C3.07902 10.1202 3 9.92937 3 9.73047V5.23047C3 5.03155 3.07902 4.84079 3.21967 4.70014C3.36032 4.55949 3.55108 4.48047 3.75 4.48047C3.94892 4.48047 4.13968 4.55949 4.28033 4.70014C4.42098 4.84079 4.5 5.03155 4.5 5.23047V7.46641C5.95031 5.83047 8.49473 3.73047 12 3.73047C16.0144 3.73047 18.4294 6.09953 18.5306 6.19984C18.6716 6.34033 18.751 6.53106 18.7514 6.73008C18.7517 6.92911 18.673 7.12012 18.5325 7.26109C18.392 7.40207 18.2013 7.48147 18.0023 7.48183C17.8033 7.48218 17.6123 7.40345 17.4713 7.26297C17.446 7.23766 15.3675 5.23047 12 5.23047C8.71875 5.23047 6.35344 7.54141 5.1975 8.98047H8.25C8.4489 8.98047 8.6397 9.05952 8.78032 9.20014C8.92095 9.34077 9 9.53157 9 9.73047C9 9.92937 8.92095 10.1202 8.78032 10.2608C8.6397 10.4014 8.4489 10.4805 8.25 10.4805ZM20.25 14.9805H15.75C15.5511 14.9805 15.3603 15.0595 15.2197 15.2001C15.0791 15.3408 15 15.5316 15 15.7305C15 15.9294 15.0791 16.1202 15.2197 16.2608C15.3603 16.4014 15.5511 16.4805 15.75 16.4805H18.8025C17.6465 17.9196 15.2812 20.2305 12 20.2305C8.6325 20.2305 6.55406 18.2233 6.52875 18.198C6.38777 18.0575 6.19676 17.9787 5.99774 17.9791C5.79872 17.9795 5.60798 18.0588 5.4675 18.1998C5.32702 18.3408 5.24829 18.5319 5.24864 18.7308C5.24899 18.9299 5.3284 19.1206 5.46938 19.2611C5.57063 19.3614 7.98563 21.7305 12 21.7305C15.5053 21.7305 18.0497 19.6305 19.5 17.9945V20.2305C19.5 20.4294 19.5791 20.6202 19.7197 20.7608C19.8603 20.9014 20.0511 20.9805 20.25 20.9805C20.4489 20.9805 20.6397 20.9014 20.7803 20.7608C20.9209 20.6202 21 20.4294 21 20.2305V15.7305C21 15.5316 20.9209 15.3408 20.7803 15.2001C20.6397 15.0595 20.4489 14.9805 20.25 14.9805Z" fill="#3D444F"/>
</svg>
