<svg width="25" height="25" viewBox="0 0 25 25" fill="none" xmlns="http://www.w3.org/2000/svg">
<path d="M11.6471 22.0214C11.3749 22.0214 11.1028 21.9578 10.876 21.8308C9.17948 20.9055 6.19474 19.9257 4.32587 19.6807L4.06278 19.6444C2.87433 19.4993 1.89453 18.3834 1.89453 17.1768V6.21765C1.89453 5.50095 2.17577 4.84775 2.69288 4.376C3.21 3.90425 3.88134 3.67744 4.58896 3.74095C6.58484 3.89517 9.5968 4.89311 11.3024 5.96363L11.5201 6.09064C11.5836 6.12693 11.7197 6.12693 11.7741 6.09971L11.9193 6.00899C13.6248 4.93847 16.6368 3.92239 18.6417 3.75002C18.6599 3.75002 18.7325 3.75002 18.7506 3.75002C19.4129 3.68651 20.0933 3.92239 20.6013 4.39414C21.1185 4.8659 21.3997 5.51909 21.3997 6.23579V17.1859C21.3997 18.4016 20.4199 19.5084 19.2224 19.6535L18.923 19.6898C17.0541 19.9348 14.0603 20.9236 12.4001 21.8399C12.1824 21.9669 11.9193 22.0214 11.6471 22.0214ZM4.37123 5.0927C4.08092 5.0927 3.81783 5.19249 3.60917 5.38301C3.38237 5.59167 3.25536 5.89105 3.25536 6.21765V17.1768C3.25536 17.7121 3.71804 18.2292 4.23515 18.3018L4.50731 18.3381C6.54855 18.6102 9.67845 19.6354 11.4929 20.6242C11.5745 20.6605 11.6925 20.6696 11.7378 20.6515C13.5523 19.6444 16.7003 18.6102 18.7506 18.3381L19.0591 18.3018C19.5762 18.2383 20.0389 17.7121 20.0389 17.1768V6.22672C20.0389 5.89105 19.9119 5.60074 19.685 5.38301C19.4492 5.17435 19.1498 5.07456 18.8141 5.0927C18.796 5.0927 18.7234 5.0927 18.7053 5.0927C16.9725 5.24693 14.1782 6.18136 12.6541 7.13394L12.509 7.23373C12.01 7.54218 11.3024 7.54218 10.8215 7.2428L10.6038 7.11579C9.05247 6.16322 6.25824 5.23786 4.4801 5.0927C4.44381 5.0927 4.40752 5.0927 4.37123 5.0927Z" fill="#3D444F"/>
<path d="M11.6472 21.2599C11.2753 21.2599 10.9668 20.9514 10.9668 20.5794V6.97118C10.9668 6.59923 11.2753 6.29077 11.6472 6.29077C12.0192 6.29077 12.3276 6.59923 12.3276 6.97118V20.5794C12.3276 20.9605 12.0192 21.2599 11.6472 21.2599Z" fill="#3D444F"/>
<path d="M7.79147 10.3733H5.75024C5.37828 10.3733 5.06982 10.0648 5.06982 9.69286C5.06982 9.3209 5.37828 9.01245 5.75024 9.01245H7.79147C8.16343 9.01245 8.47189 9.3209 8.47189 9.69286C8.47189 10.0648 8.16343 10.3733 7.79147 10.3733Z" fill="#3D444F"/>
<path d="M8.47189 13.095H5.75024C5.37828 13.095 5.06982 12.7865 5.06982 12.4145C5.06982 12.0426 5.37828 11.7341 5.75024 11.7341H8.47189C8.84384 11.7341 9.1523 12.0426 9.1523 12.4145C9.1523 12.7865 8.84384 13.095 8.47189 13.095Z" fill="#3D444F"/>
<path d="M23.4394 18.3195C23.4394 20.3237 21.8146 21.9484 19.8105 21.9484C17.8064 21.9484 16.1816 20.3237 16.1816 18.3195C16.1816 16.3154 17.8064 14.6907 19.8105 14.6907C21.8146 14.6907 23.4394 16.3154 23.4394 18.3195Z" fill="white"/>
<path d="M19.5837 22.402C18.0777 22.402 16.6625 21.6037 15.9004 20.3063C15.4921 19.6531 15.2744 18.882 15.2744 18.0927C15.2744 17.0494 15.6554 16.0424 16.354 15.2531C17.1705 14.3187 18.3499 13.7834 19.5837 13.7834C21.9606 13.7834 23.893 15.7158 23.893 18.0927C23.893 18.882 23.6752 19.6531 23.267 20.3154C23.0402 20.6964 22.7499 21.0412 22.4051 21.3315C21.6521 22.021 20.6451 22.402 19.5837 22.402ZM19.5837 15.1443C18.74 15.1443 17.9326 15.5072 17.3701 16.1513C16.8983 16.6956 16.6352 17.3851 16.6352 18.0927C16.6352 18.628 16.7804 19.1542 17.0616 19.6078C17.5878 20.4968 18.5585 21.0412 19.5837 21.0412C20.3004 21.0412 20.9899 20.7781 21.5161 20.3063C21.7519 20.1067 21.9515 19.8709 22.0967 19.6168C22.387 19.1542 22.5321 18.628 22.5321 18.0927C22.5321 16.4688 21.2076 15.1443 19.5837 15.1443Z" fill="white"/>
<path d="M18.5334 14.7245C18.7284 14.6721 18.9378 14.6808 19.1266 14.7491C19.3153 14.8175 19.4721 14.9413 19.5709 15.1L19.6038 15.1592L19.899 15.7432C19.9885 15.9205 20.0176 16.1173 19.9825 16.3092C19.9475 16.5009 19.8499 16.6794 19.7019 16.8223L19.6426 16.8747L19.1776 17.261C19.0937 17.3317 19.1566 17.6052 19.4598 18.0729C19.7326 18.4937 19.9547 18.6902 20.0639 18.7009H20.0831L20.1067 18.697L21.0207 18.448C21.1435 18.4145 21.2746 18.4132 21.3983 18.4442C21.5219 18.4752 21.633 18.5374 21.718 18.6231L21.7585 18.6687L22.3635 19.4152C22.4821 19.5614 22.5412 19.7393 22.5311 19.9195C22.5209 20.0997 22.4422 20.2714 22.3078 20.4065L22.2534 20.4565L22.0118 20.6605C21.7948 20.8436 21.5234 20.9673 21.2297 21.0168C20.9361 21.0664 20.6327 21.0399 20.3555 20.9405C19.4928 20.6308 18.709 19.9233 17.997 18.8252C17.2837 17.7243 16.9872 16.7648 17.1196 15.9429C17.1597 15.6945 17.2745 15.4604 17.452 15.2654C17.6295 15.0704 17.863 14.9219 18.1277 14.8357L18.2137 14.8103L18.5334 14.7245Z" fill="#3D444F"/>
</svg>
