<svg width="25" height="25" viewBox="0 0 25 25" fill="none" xmlns="http://www.w3.org/2000/svg">
<path d="M13.4614 9.48242C13.4614 9.34981 13.4087 9.22264 13.315 9.12887C13.2212 9.0351 13.094 8.98242 12.9614 8.98242C12.8288 8.98242 12.7016 9.0351 12.6079 9.12887C12.5141 9.22264 12.4614 9.34981 12.4614 9.48242V15.4824C12.4614 15.615 12.5141 15.7422 12.6079 15.836C12.7016 15.9297 12.8288 15.9824 12.9614 15.9824C13.094 15.9824 13.2212 15.9297 13.315 15.836C13.4087 15.7422 13.4614 15.615 13.4614 15.4824V9.48242Z" fill="black"/>
<path d="M12.9604 17.9666C13.2366 17.9666 13.4604 17.7427 13.4604 17.4666C13.4604 17.1904 13.2366 16.9666 12.9604 16.9666C12.6843 16.9666 12.4604 17.1904 12.4604 17.4666C12.4604 17.7427 12.6843 17.9666 12.9604 17.9666Z" fill="black"/>
<path d="M19.6033 21.6644H6.34627C5.91774 21.6642 5.49644 21.5539 5.12282 21.3441C4.74919 21.1342 4.43579 20.8318 4.21269 20.4659C3.98959 20.1 3.86428 19.683 3.8488 19.2547C3.83332 18.8265 3.92818 18.4014 4.12427 18.0204L10.7533 5.15138C10.9636 4.74342 11.2822 4.40125 11.6742 4.16237C12.0661 3.92349 12.5163 3.79712 12.9753 3.79712C13.4343 3.79712 13.8844 3.92349 14.2764 4.16237C14.6683 4.40125 14.9869 4.74342 15.1973 5.15138L21.8263 18.0204C22.0224 18.4015 22.1173 18.8266 22.1017 19.255C22.0862 19.6833 21.9608 20.1004 21.7376 20.4663C21.5144 20.8323 21.2008 21.1346 20.8271 21.3444C20.4533 21.5542 20.0319 21.6644 19.6033 21.6644ZM12.9753 4.79538C12.6991 4.79309 12.4278 4.86811 12.1921 5.01196C11.9563 5.15581 11.7655 5.36275 11.6413 5.60938L5.01327 18.4784C4.89572 18.707 4.83888 18.9619 4.8482 19.2188C4.85753 19.4757 4.93271 19.7259 5.06654 19.9453C5.20037 20.1648 5.38834 20.3462 5.61244 20.4721C5.83653 20.598 6.08923 20.6642 6.34627 20.6644H19.6033C19.8604 20.6644 20.1132 20.5983 20.3375 20.4725C20.5617 20.3466 20.7498 20.1652 20.8837 19.9458C21.0177 19.7263 21.093 19.476 21.1023 19.2191C21.1117 18.9621 21.0549 18.707 20.9373 18.4784L14.3093 5.60938C14.185 5.36275 13.9942 5.15581 13.7585 5.01196C13.5227 4.86811 13.2514 4.79309 12.9753 4.79538Z" fill="black"/>
</svg>
