<svg width="18" height="18" viewBox="0 0 18 18" fill="none" xmlns="http://www.w3.org/2000/svg">
<path d="M7.84082 8.58472C7.3568 9.92456 6.18265 13.1538 5.97363 13.908C5.79334 14.5586 5.80078 15.0112 5.89551 15.3337C5.99256 15.664 6.17338 15.8276 6.26562 15.908L6.42969 15.7195L6.26562 15.9089L6.27441 15.9158C6.50917 16.1016 6.8832 16.2214 7.33008 16.2429C7.78336 16.2647 8.33265 16.1866 8.93945 15.9529C9.55938 15.714 10.1999 15.2482 10.7676 14.7156C11.3375 14.1809 11.8491 13.5638 12.2129 13.0066L12.2139 13.0076C12.2501 12.9525 12.3066 12.9138 12.3711 12.9001C12.4356 12.8866 12.5032 12.8985 12.5586 12.9343L12.5625 12.9373C12.5904 12.9546 12.6156 12.9769 12.6348 13.0037C12.6539 13.0304 12.6674 13.0615 12.6748 13.0935C12.6822 13.1254 12.6831 13.1588 12.6777 13.1912C12.6723 13.2235 12.66 13.2542 12.6426 13.282C12.2691 13.851 11.7247 14.5065 11.1035 15.0857C10.4789 15.668 9.79056 16.1602 9.13379 16.4167L9.13086 16.4187C8.61154 16.6301 8.05673 16.742 7.49609 16.7498H7.2832C6.80349 16.7284 6.33891 16.5702 5.94238 16.2947C5.33674 15.7519 5.16282 14.9657 5.48633 13.781V13.78C5.70711 12.9628 6.8966 9.75775 7.30664 8.65308L7.84082 8.58472Z" fill="#3D444F" stroke="#3D444F" stroke-width="0.5"/>
<path d="M8.88428 1.40234C9.24973 1.25097 9.65257 1.21092 10.0405 1.28809C10.4283 1.3653 10.7843 1.55632 11.064 1.83594C11.3436 2.11556 11.5346 2.47155 11.6118 2.85938C11.689 3.24734 11.6489 3.65017 11.4976 4.01562C11.3462 4.38094 11.09 4.69338 10.7612 4.91309C10.4323 5.13285 10.0455 5.25 9.6499 5.25C9.11947 5.25 8.61091 5.03914 8.23584 4.66406C7.86077 4.28899 7.6499 3.78043 7.6499 3.25C7.6499 2.85444 7.76705 2.46757 7.98682 2.13867C8.20653 1.80988 8.51896 1.55372 8.88428 1.40234ZM9.6499 1.75C9.25208 1.75 8.87066 1.90815 8.58936 2.18945C8.30805 2.47076 8.1499 2.85218 8.1499 3.25C8.1499 3.5466 8.23809 3.83637 8.40283 4.08301C8.56762 4.32962 8.80168 4.5222 9.07568 4.63574C9.34977 4.74927 9.6519 4.77858 9.94287 4.7207C10.2337 4.66277 10.5008 4.52023 10.7104 4.31055C10.9201 4.10087 11.0627 3.83378 11.1206 3.54297C11.1785 3.252 11.1492 2.94987 11.0356 2.67578C10.9221 2.40177 10.7295 2.16771 10.4829 2.00293C10.2363 1.83818 9.9465 1.75 9.6499 1.75Z" fill="#3D444F" stroke="#3D444F" stroke-width="0.5"/>
<path d="M9.71094 6.28638C9.93853 6.22444 10.1785 6.22403 10.4062 6.2854C10.6312 6.34603 10.8354 6.46543 11 6.63013C11.261 6.94729 11.3416 7.4408 11.0977 8.18188C10.8421 8.95847 9.72473 12.3078 9.10352 14.1096C8.95527 14.1996 8.80191 14.2805 8.6416 14.3469C8.58703 14.3681 8.53105 14.385 8.47559 14.4036C9.04706 12.6928 10.346 8.83733 10.623 7.99243V7.99048C10.6992 7.75094 10.7338 7.53503 10.7354 7.3606C10.7361 7.27388 10.7282 7.19117 10.7109 7.11841C10.6994 7.06998 10.6793 7.00556 10.6387 6.94751L10.5908 6.89282L10.5098 6.83325C10.4216 6.78235 10.3161 6.75661 10.2217 6.74341C10.1173 6.72883 9.99701 6.72528 9.86621 6.73657L9.73926 6.7522C9.373 6.79735 8.41335 6.92176 7.54297 7.0354C7.10728 7.09228 6.69333 7.14694 6.38672 7.18677C6.23362 7.20666 6.10744 7.22327 6.01855 7.23462C5.97418 7.24028 5.93903 7.24436 5.91504 7.24731C5.90296 7.2488 5.89345 7.24958 5.8877 7.25024H5.69629C5.69439 7.24887 5.6923 7.24777 5.69043 7.24634C5.63701 7.20521 5.60146 7.14425 5.59277 7.07739C5.58421 7.01067 5.60251 6.94321 5.64355 6.88989C5.68468 6.83647 5.74564 6.8019 5.8125 6.79321L5.82422 6.79126L5.83594 6.78833C5.83411 6.78877 5.84387 6.78729 5.875 6.78247C5.903 6.77813 5.9416 6.7727 5.98926 6.76587C6.08477 6.75218 6.21602 6.73334 6.37207 6.71216C6.68401 6.66982 7.09549 6.6157 7.52539 6.55981C8.38682 6.44783 9.317 6.33034 9.6709 6.29321L9.69141 6.29126L9.71094 6.28638Z" fill="#3D444F" stroke="#3D444F" stroke-width="0.5"/>
</svg>
