<svg width="25" height="25" viewBox="0 0 25 25" fill="none" xmlns="http://www.w3.org/2000/svg">
<path d="M16.0386 4.73047C16.9685 4.73047 17.4335 4.73047 17.815 4.83269C18.8503 5.11009 19.6589 5.91874 19.9364 6.95401C20.0386 7.33551 20.0386 7.8005 20.0386 8.73047V17.9305C20.0386 19.6106 20.0386 20.4507 19.7116 21.0924C19.424 21.6569 18.965 22.1159 18.4005 22.4035C17.7588 22.7305 16.9187 22.7305 15.2386 22.7305H8.83857C7.15842 22.7305 6.31834 22.7305 5.6766 22.4035C5.11212 22.1159 4.65317 21.6569 4.36555 21.0924C4.03857 20.4507 4.03857 19.6106 4.03857 17.9305V8.73047C4.03857 7.8005 4.03857 7.33551 4.1408 6.95401C4.4182 5.91874 5.22684 5.11009 6.26212 4.83269C6.64362 4.73047 7.1086 4.73047 8.03857 4.73047M12.0386 17.7305V11.7305M9.03857 14.7305H15.0386M9.63857 6.73047H14.4386C14.9986 6.73047 15.2787 6.73047 15.4926 6.62148C15.6807 6.5256 15.8337 6.37262 15.9296 6.18446C16.0386 5.97055 16.0386 5.69052 16.0386 5.13047V4.33047C16.0386 3.77042 16.0386 3.49039 15.9296 3.27648C15.8337 3.08832 15.6807 2.93534 15.4926 2.83946C15.2787 2.73047 14.9986 2.73047 14.4386 2.73047H9.63857C9.07852 2.73047 8.7985 2.73047 8.58458 2.83946C8.39642 2.93534 8.24344 3.08832 8.14757 3.27648C8.03857 3.49039 8.03857 3.77042 8.03857 4.33047V5.13047C8.03857 5.69052 8.03857 5.97055 8.14757 6.18446C8.24344 6.37262 8.39642 6.5256 8.58458 6.62148C8.7985 6.73047 9.07852 6.73047 9.63857 6.73047Z" stroke="#3D444F" stroke-width="1.5" stroke-linecap="round" stroke-linejoin="round"/>
</svg>
