<svg width="25" height="24" viewBox="0 0 25 24" fill="none" xmlns="http://www.w3.org/2000/svg">
<g clip-path="url(#clip0_9010_13948)">
<path d="M12.6514 21C17.6219 21 21.6514 16.9706 21.6514 12C21.6514 7.02944 17.6219 3 12.6514 3C7.6808 3 3.65137 7.02944 3.65137 12C3.65137 16.9706 7.6808 21 12.6514 21Z" fill="#D80000"/>
<path fill-rule="evenodd" clip-rule="evenodd" d="M15.0553 15.3251C15.1411 15.3606 15.233 15.3787 15.3259 15.3784C15.4184 15.3772 15.5098 15.3578 15.5948 15.3211C15.6798 15.2844 15.7566 15.2312 15.8209 15.1646C15.9523 15.0314 16.026 14.8517 16.026 14.6646C16.026 14.4774 15.9523 14.2977 15.8209 14.1645L13.652 11.9956L15.8199 9.82539C15.945 9.69126 16.0131 9.51381 16.0099 9.33043C16.0067 9.14706 15.9324 8.97208 15.8028 8.8424C15.6731 8.71271 15.4981 8.63844 15.3147 8.63525C15.1313 8.63205 14.9539 8.70018 14.8198 8.82527L12.6507 10.9943L10.4816 8.82524C10.3483 8.69187 10.1674 8.61694 9.97875 8.61694C9.79014 8.61694 9.60925 8.69187 9.47588 8.82524C9.34251 8.95861 9.26758 9.1395 9.26758 9.32812C9.26758 9.51673 9.34251 9.69762 9.47588 9.83099L11.647 11.998L9.47489 14.1701C9.34346 14.3034 9.26978 14.483 9.26978 14.6702C9.26978 14.8574 9.34346 15.037 9.47489 15.1703C9.54083 15.2371 9.61952 15.2899 9.7063 15.3257C9.79308 15.3614 9.88616 15.3793 9.98001 15.3784C10.0732 15.3797 10.1657 15.3618 10.2518 15.326C10.3379 15.2903 10.4158 15.2372 10.4806 15.1703L12.6498 12.9989L14.8264 15.1714C14.8917 15.2373 14.9696 15.2895 15.0553 15.3251Z" fill="white"/>
</g>
<defs>
<clipPath id="clip0_9010_13948">
<rect width="24" height="24" fill="white" transform="translate(0.651367)"/>
</clipPath>
</defs>
</svg>
