<svg width="25" height="25" viewBox="0 0 25 25" fill="none" xmlns="http://www.w3.org/2000/svg">
<path d="M10.7246 19.3438L10.54 19.2939C10.1525 19.1896 9.80987 18.9609 9.56543 18.6426C9.32111 18.3244 9.18833 17.9344 9.1875 17.5332C9.1875 17.3713 9.31561 17.2432 9.47754 17.2432C9.63945 17.2432 9.76758 17.3713 9.76758 17.5332C9.76768 18.225 10.3211 18.7803 11.0078 18.7803C11.6932 18.7801 12.2548 18.2186 12.2549 17.5332C12.2549 16.8477 11.6932 16.2853 11.0078 16.2852H10.9619C10.4874 16.2723 10.0364 16.0753 9.70508 15.7354C9.374 15.3956 9.18836 14.9402 9.1875 14.4658C9.1875 13.6229 9.7601 12.9158 10.54 12.7041L10.7246 12.6543V11.623C10.7246 11.4612 10.8529 11.3332 11.0146 11.333C11.1766 11.333 11.3047 11.4611 11.3047 11.623V12.6543L11.4893 12.7041C12.2694 12.9157 12.8428 13.6228 12.8428 14.4658C12.8426 14.6275 12.7144 14.7557 12.5527 14.7559C12.3909 14.7559 12.2629 14.6276 12.2627 14.4658C12.2627 13.7802 11.7002 13.2178 11.0146 13.2178C10.3292 13.218 9.76758 13.7804 9.76758 14.4658C9.76775 15.1511 10.3293 15.7127 11.0146 15.7129H11.0605C12.0516 15.7393 12.8428 16.5452 12.8428 17.5332C12.8427 18.3761 12.2693 19.0824 11.4893 19.2939L11.3047 19.3447V20.376C11.3044 20.5377 11.1764 20.665 11.0146 20.665C10.853 20.6649 10.7249 20.5376 10.7246 20.376V19.3438Z" fill="#3D444F" stroke="#3D444F" stroke-width="0.5"/>
<path d="M11.0127 1.98047C11.1903 1.98076 11.3662 2.01818 11.5283 2.09082C11.6883 2.16258 11.8317 2.26739 11.9492 2.39746L12.582 3.14746L12.7285 3.32129L12.915 3.19141C13.1343 3.03951 13.3976 2.96437 13.6641 2.97656C13.9303 2.98879 14.1853 3.08764 14.3896 3.25879C14.594 3.43003 14.7372 3.66373 14.7959 3.92383C14.8535 4.17931 14.8259 4.44644 14.7197 4.68555L14.6289 4.82617L12.8613 6.85059L12.751 6.97656L12.8262 7.12695C12.876 7.2262 12.896 7.33789 12.8838 7.44824L12.8584 7.6709L13.0771 7.71973C17.2659 8.65916 20.3949 12.4007 20.3877 16.873V16.874C20.3875 20.7721 17.2234 23.9353 13.3252 23.9355H8.69727C4.79886 23.9355 1.6348 20.7714 1.63477 16.873C1.63477 12.401 4.76336 8.65917 8.95215 7.71973L9.03027 7.70312L9.08398 7.64258L9.30957 7.39062L9.45508 7.22852L9.31348 7.06152L7.25 4.64844C7.14903 4.41124 7.12549 4.14817 7.18359 3.89648C7.24389 3.63533 7.38814 3.40121 7.59473 3.23047C7.8015 3.05969 8.05915 2.96201 8.32715 2.95215C8.59514 2.94229 8.85937 3.02066 9.07812 3.17578L9.25977 3.30469L9.4082 3.13867L10.0703 2.39941C10.1892 2.2673 10.3347 2.16203 10.4971 2.08984C10.6594 2.01769 10.8351 1.98021 11.0127 1.98047ZM11.0146 8.49316C6.38563 8.49323 2.63477 12.244 2.63477 16.873L2.64258 17.1738C2.71749 18.672 3.34544 20.0935 4.41113 21.1592C5.47684 22.2249 6.89834 22.8528 8.39648 22.9277L8.69727 22.9355H13.3252C14.9327 22.9348 16.4746 22.2959 17.6113 21.1592C18.748 20.0224 19.3871 18.4806 19.3877 16.873V16.8711C19.395 12.2435 15.6433 8.49316 11.0146 8.49316ZM10.7871 3.04199L10.1943 3.81055C10.0174 4.01813 9.77662 4.16136 9.50977 4.21777C9.24314 4.27409 8.96536 4.24105 8.71973 4.12305L8.42188 4.51172L9.69434 5.98145L9.76855 6.06836H12.2236L12.2979 5.98242L13.5645 4.53223L13.2734 4.14062C13.0321 4.24885 12.7621 4.27536 12.5039 4.21777C12.2457 4.16017 12.0124 4.02093 11.8398 3.82031L11.1758 3.0332L10.9756 2.79688L10.7871 3.04199Z" fill="#3D444F" stroke="#3D444F" stroke-width="0.5"/>
<path d="M19.0225 16.2236C21.0208 16.2236 22.6404 17.8435 22.6406 19.8418C22.6406 21.8403 21.0209 23.46 19.0225 23.46C17.0242 23.4597 15.4043 21.8401 15.4043 19.8418C15.4045 17.8437 17.0243 16.2239 19.0225 16.2236Z" fill="white" stroke="#3D444F" stroke-width="0.540017"/>
<path d="M22.911 19.8422C22.911 20.1965 22.8592 20.5507 22.7641 20.8791C22.6691 21.2247 22.5308 21.5444 22.3494 21.8468C22.142 22.1924 21.8828 22.5034 21.5804 22.7626C20.8978 23.3675 20.0079 23.7303 19.0229 23.7303C18.5822 23.7303 18.1675 23.6612 17.7787 23.523C16.8974 23.2292 16.163 22.6244 15.6964 21.8468C15.3421 21.2592 15.1348 20.568 15.1348 19.8422C15.1348 18.6153 15.6964 17.518 16.595 16.8095C17.2603 16.2738 18.107 15.9541 19.0229 15.9541C21.1743 15.9541 22.911 17.6908 22.911 19.8422Z" stroke="#3D444F" stroke-width="1.29604" stroke-miterlimit="10" stroke-linecap="round" stroke-linejoin="round"/>
<path d="M20.0598 20.8618L18.0034 18.8054" stroke="#3D444F" stroke-width="1.29604" stroke-miterlimit="10" stroke-linecap="round" stroke-linejoin="round"/>
<path d="M20.0427 18.8228L17.9863 20.8791" stroke="#3D444F" stroke-width="1.29604" stroke-miterlimit="10" stroke-linecap="round" stroke-linejoin="round"/>
</svg>
