<svg width="24" height="25" viewBox="0 0 24 25" fill="none" xmlns="http://www.w3.org/2000/svg">
<path d="M15.7397 22.297C15.6428 22.2972 15.5468 22.2782 15.4574 22.2409C15.3679 22.2037 15.2868 22.1489 15.2187 22.08C15.0814 21.9407 15.0044 21.753 15.0044 21.5575C15.0044 21.3619 15.0814 21.1742 15.2187 21.035L17.9937 18.256C18.1345 18.1322 18.3172 18.0667 18.5045 18.0726C18.6919 18.0786 18.87 18.1557 19.0026 18.2882C19.1352 18.4207 19.2124 18.5987 19.2186 18.786C19.2247 18.9734 19.1594 19.156 19.0357 19.297L16.2617 22.077C16.1938 22.1466 16.1126 22.202 16.023 22.2397C15.9333 22.2775 15.837 22.297 15.7397 22.297Z" fill="#3D444F"/>
<path d="M18.5133 22.2972C18.4164 22.2974 18.3204 22.2784 18.2309 22.2411C18.1415 22.2039 18.0604 22.1491 17.9923 22.0802L15.2173 19.2972C15.0833 19.1578 15.0093 18.9715 15.0113 18.7782C15.0132 18.5849 15.0909 18.4001 15.2276 18.2635C15.3644 18.1269 15.5493 18.0494 15.7426 18.0476C15.9358 18.0459 16.1221 18.12 16.2613 18.2542L19.0363 21.0332C19.1736 21.1724 19.2506 21.3601 19.2506 21.5557C19.2506 21.7512 19.1736 21.9389 19.0363 22.0782C18.9682 22.1477 18.8868 22.203 18.797 22.2406C18.7071 22.2782 18.6107 22.2974 18.5133 22.2972Z" fill="#3D444F"/>
<path d="M12.3645 12.4001H12.2855C12.2269 12.3902 12.1671 12.3902 12.1085 12.4001C10.7788 12.3626 9.51732 11.8033 8.59681 10.8431C7.6763 9.88284 7.17074 8.59887 7.18947 7.26882C7.20819 5.93877 7.74969 4.66953 8.69687 3.7356C9.64405 2.80166 10.9208 2.27808 12.251 2.27808C13.5811 2.27808 14.8579 2.80166 15.8051 3.7356C16.7522 4.66953 17.2937 5.93877 17.3125 7.26882C17.3312 8.59887 16.8256 9.88284 15.9051 10.8431C14.9846 11.8033 13.7231 12.3626 12.3935 12.4001H12.3645ZM12.2075 3.65907C11.2575 3.66151 10.3463 4.03593 9.66906 4.70212C8.99183 5.3683 8.60248 6.27325 8.58444 7.22304C8.56639 8.17284 8.92108 9.09192 9.57251 9.78335C10.2239 10.4748 11.1203 10.8835 12.0695 10.9221C12.1742 10.9119 12.2797 10.9119 12.3845 10.9221C13.3294 10.8726 14.2177 10.4565 14.8606 9.76226C15.5035 9.06803 15.8503 8.15043 15.8273 7.20451C15.8042 6.2586 15.4131 5.35897 14.7372 4.69689C14.0612 4.03481 13.1537 3.66248 12.2075 3.65907Z" fill="#3D444F"/>
<path d="M12.2075 23.1811C10.3196 23.2184 8.46229 22.701 6.86551 21.6931C6.24574 21.3314 5.72703 20.8194 5.35723 20.2044C4.98742 19.5894 4.77843 18.8912 4.74951 18.1741C4.77955 17.46 4.98908 16.765 5.35874 16.1533C5.7284 15.5415 6.24627 15.0328 6.86451 14.6741C8.47508 13.707 10.3184 13.196 12.197 13.196C14.0757 13.196 15.9189 13.707 17.5295 14.6741C17.6917 14.7836 17.8043 14.9524 17.8431 15.1442C17.8818 15.336 17.8435 15.5353 17.7365 15.6991C17.6833 15.7803 17.6145 15.8501 17.5341 15.9046C17.4537 15.959 17.3634 15.9969 17.2682 16.0162C17.1731 16.0354 17.0751 16.0356 16.9798 16.0167C16.8846 15.9978 16.7941 15.9603 16.7135 15.9061C15.3441 15.1028 13.7852 14.6793 12.1975 14.6793C10.6099 14.6793 9.05093 15.1028 7.68151 15.9061C7.26943 16.133 6.92068 16.4593 6.66706 16.8555C6.41344 17.2516 6.26302 17.705 6.22951 18.1741C6.26529 18.6456 6.4169 19.1009 6.67089 19.4997C6.92489 19.8985 7.2734 20.2284 7.68551 20.4601C9.03869 21.302 10.6083 21.7302 12.2015 21.6921C12.3988 21.6908 12.5886 21.7679 12.7291 21.9065C12.8695 22.0451 12.9492 22.2338 12.9505 22.4311C12.9518 22.6285 12.8747 22.8182 12.7361 22.9587C12.5975 23.0992 12.4088 23.1788 12.2115 23.1801L12.2075 23.1811Z" fill="#3D444F"/>
</svg>
