<svg width="24" height="25" viewBox="0 0 24 25" fill="none" xmlns="http://www.w3.org/2000/svg">
<path d="M7.58234 15.9064H5.16534C5.06687 15.91 4.96868 15.8938 4.87663 15.8586C4.78459 15.8234 4.70058 15.77 4.62962 15.7017C4.55867 15.6333 4.50224 15.5513 4.46369 15.4606C4.42514 15.3699 4.40527 15.2724 4.40527 15.1739C4.40527 15.0753 4.42514 14.9778 4.46369 14.8871C4.50224 14.7964 4.55867 14.7145 4.62962 14.6461C4.70058 14.5777 4.78459 14.5243 4.87663 14.4892C4.96868 14.454 5.06687 14.4377 5.16534 14.4414H7.58234C8.03573 14.4414 8.47055 14.2613 8.79114 13.9407C9.11173 13.6201 9.29184 13.1853 9.29184 12.7319C9.29184 12.2785 9.11173 11.8437 8.79114 11.5231C8.47055 11.2025 8.03573 11.0224 7.58234 11.0224H5.16534C4.97576 11.0154 4.79627 10.9351 4.66462 10.7985C4.53297 10.6619 4.45941 10.4796 4.45941 10.2899C4.45941 10.1002 4.53297 9.91783 4.66462 9.78122C4.79627 9.64462 4.97576 9.56438 5.16534 9.55737H7.58234C8.42427 9.55737 9.23172 9.89183 9.82705 10.4872C10.4224 11.0825 10.7568 11.8899 10.7568 12.7319C10.7568 13.5738 10.4224 14.3812 9.82705 14.9766C9.23172 15.5719 8.42427 15.9064 7.58234 15.9064Z" fill="#3D444F"/>
<path d="M18.8395 11.4994H15.9095C15.811 11.5031 15.7128 11.4868 15.6208 11.4516C15.5287 11.4165 15.4447 11.3631 15.3738 11.2947C15.3028 11.2264 15.2464 11.1444 15.2078 11.0537C15.1693 10.963 15.1494 10.8655 15.1494 10.7669C15.1494 10.6684 15.1693 10.5709 15.2078 10.4802C15.2464 10.3895 15.3028 10.3075 15.3738 10.2391C15.4447 10.1708 15.5287 10.1174 15.6208 10.0822C15.7128 10.047 15.811 10.0308 15.9095 10.0344H18.8395C18.938 10.0308 19.0361 10.047 19.1282 10.0822C19.2202 10.1174 19.3043 10.1708 19.3752 10.2391C19.4462 10.3075 19.5026 10.3895 19.5411 10.4802C19.5797 10.5709 19.5996 10.6684 19.5996 10.7669C19.5996 10.8655 19.5797 10.963 19.5411 11.0537C19.5026 11.1444 19.4462 11.2264 19.3752 11.2947C19.3043 11.3631 19.2202 11.4165 19.1282 11.4516C19.0361 11.4868 18.938 11.5031 18.8395 11.4994Z" fill="#3D444F"/>
<path d="M7.36325 13.7075C7.23567 13.7061 7.1096 13.6796 6.99225 13.6295C6.87405 13.5799 6.76516 13.5106 6.67025 13.4245C6.57939 13.3336 6.50757 13.2254 6.45898 13.1065C6.41039 12.9875 6.386 12.86 6.38725 12.7315C6.39104 12.4731 6.4921 12.2256 6.67025 12.0385C6.80872 11.9043 6.98322 11.8133 7.17249 11.7765C7.36176 11.7398 7.55764 11.7589 7.73625 11.8315C7.85685 11.8763 7.96658 11.9462 8.05825 12.0365C8.23641 12.2236 8.33746 12.4711 8.34125 12.7295C8.3425 12.858 8.31812 12.9855 8.26953 13.1045C8.22094 13.2234 8.14911 13.3316 8.05825 13.4225C7.96334 13.5086 7.85445 13.5779 7.73625 13.6275C7.61842 13.6785 7.49165 13.7057 7.36325 13.7075Z" fill="#3D444F"/>
<path fill-rule="evenodd" clip-rule="evenodd" d="M19.5723 13.1985V8.82355C19.6305 8.32846 19.5759 7.82661 19.4124 7.35568C19.2489 6.88475 18.9808 6.45698 18.6283 6.10449C18.2758 5.75199 17.8481 5.48394 17.3771 5.32045C16.9062 5.15697 16.4044 5.1023 15.9093 5.16055H8.09528C7.60019 5.1023 7.09834 5.15697 6.62741 5.32045C6.15648 5.48394 5.72871 5.75199 5.37622 6.10449C5.02372 6.45698 4.75567 6.88475 4.59218 7.35568C4.4287 7.82661 4.37402 8.32846 4.43228 8.82355V16.6375C4.37402 17.1326 4.4287 17.6345 4.59218 18.1054C4.75567 18.5763 5.02372 19.0041 5.37622 19.3566C5.72871 19.7091 6.15648 19.9772 6.62741 20.1406C7.09834 20.3041 7.60019 20.3588 8.09528 20.3005H12.4713C12.2622 19.8348 12.1211 19.3414 12.0523 18.8355H8.09528C6.55228 18.8355 5.89527 18.1815 5.89527 16.6355V8.82355C5.89527 7.28055 6.54928 6.62355 8.09528 6.62355H15.9093C17.4523 6.62355 18.1093 7.27755 18.1093 8.82355V12.7805C18.6144 12.8493 19.1071 12.9901 19.5723 13.1985Z" fill="#3D444F"/>
<path fill-rule="evenodd" clip-rule="evenodd" d="M1.50244 15.6605C1.50244 20.9605 3.76844 23.2305 9.07244 23.2305H14.9324C15.1991 23.2305 15.4594 23.2248 15.7134 23.2135C14.8466 22.931 14.0658 22.4327 13.4444 21.7655H9.07244C4.57244 21.7655 2.97244 20.1655 2.97244 15.6655V9.80047C2.97244 5.30047 4.57244 3.70047 9.07244 3.70047H14.9324C19.4324 3.70047 21.0324 5.30047 21.0324 9.80047V14.1725C21.6997 14.7938 22.198 15.5746 22.4804 16.4415C22.4924 16.1888 22.4981 15.9285 22.4974 15.6605V9.80047C22.4974 4.50047 20.2314 2.23047 14.9274 2.23047H9.07244C3.76844 2.23047 1.50244 4.49647 1.50244 9.80047V15.6605Z" fill="#3D444F"/>
<path d="M17.3795 22.4986C16.6217 22.4987 15.8768 22.3016 15.2181 21.9268C14.5594 21.5519 14.0095 21.0122 13.6225 20.3606C13.2022 19.6843 12.9795 18.9039 12.9795 18.1076C12.9766 17.4481 13.1233 16.7965 13.4086 16.2018C13.6939 15.6072 14.1103 15.085 14.6265 14.6746C15.2736 14.1584 16.0532 13.8351 16.8757 13.742C17.6982 13.6489 18.5302 13.7897 19.2763 14.1483C20.0224 14.5068 20.6522 15.0685 21.0934 15.7688C21.5346 16.4692 21.7693 17.2798 21.7705 18.1076C21.7717 18.9077 21.5509 19.6925 21.1325 20.3746C20.9023 20.7686 20.6048 21.1192 20.2535 21.4106C19.4648 22.119 18.4397 22.5071 17.3795 22.4986ZM17.3795 15.0986C16.582 15.1009 15.8177 15.4186 15.2534 15.9823C14.6891 16.546 14.3707 17.31 14.3675 18.1076C14.3671 18.6844 14.5329 19.2491 14.8452 19.7341C15.1575 20.2191 15.603 20.6038 16.1283 20.8421C16.6536 21.0804 17.2365 21.1622 17.8071 21.0776C18.3777 20.9931 18.9118 20.7459 19.3455 20.3656C19.5818 20.1682 19.7821 19.9314 19.9375 19.6656C20.2292 19.1985 20.3824 18.6582 20.3795 18.1076C20.3793 17.3109 20.0635 16.5467 19.5013 15.9823C18.9391 15.4178 18.1762 15.099 17.3795 15.0956V15.0986Z" fill="#3D444F"/>
<path d="M18.3643 19.7585C18.2735 19.7593 18.1834 19.742 18.0993 19.7077C18.0151 19.6733 17.9387 19.6226 17.8743 19.5585L15.9213 17.6025C15.7978 17.4711 15.7302 17.2968 15.733 17.1164C15.7358 16.9361 15.8086 16.7639 15.9362 16.6364C16.0637 16.5088 16.2359 16.436 16.4162 16.4332C16.5966 16.4304 16.7709 16.498 16.9023 16.6215L18.8543 18.5735C18.9829 18.7044 19.0549 18.8805 19.0549 19.064C19.0549 19.2475 18.9829 19.4236 18.8543 19.5545C18.7903 19.6194 18.714 19.6708 18.6298 19.7058C18.5457 19.7409 18.4554 19.7588 18.3643 19.7585Z" fill="#3D444F"/>
<path d="M16.3844 19.7865C16.2936 19.7873 16.2035 19.77 16.1194 19.7357C16.0353 19.7013 15.9588 19.6506 15.8944 19.5865C15.7659 19.4556 15.6938 19.2795 15.6938 19.096C15.6938 18.9126 15.7659 18.7364 15.8944 18.6055L17.8474 16.6525C17.9788 16.529 18.1532 16.4614 18.3335 16.4642C18.5139 16.467 18.686 16.5398 18.8136 16.6674C18.9411 16.7949 19.014 16.9671 19.0168 17.1474C19.0195 17.3278 18.952 17.5021 18.8284 17.6335L16.8744 19.5825C16.8104 19.6474 16.7341 19.6988 16.65 19.7338C16.5658 19.7689 16.4756 19.7868 16.3844 19.7865Z" fill="#3D444F"/>
</svg>
