<svg width="24" height="24" viewBox="0 0 24 24" fill="none" xmlns="http://www.w3.org/2000/svg">
<path d="M10.3398 18.6133L10.1553 18.5635C9.76773 18.4592 9.4251 18.2304 9.18066 17.9121C8.93634 17.5939 8.80357 17.2039 8.80273 16.8027C8.80273 16.6408 8.93084 16.5127 9.09277 16.5127C9.25468 16.5127 9.38281 16.6408 9.38281 16.8027C9.38292 17.4945 9.93631 18.0498 10.623 18.0498C11.3084 18.0496 11.87 17.4881 11.8701 16.8027C11.8701 16.1173 11.3085 15.5549 10.623 15.5547H10.5771C10.1027 15.5418 9.65162 15.3448 9.32031 15.0049C8.98923 14.6651 8.80359 14.2097 8.80273 13.7354C8.80273 12.8925 9.37534 12.1853 10.1553 11.9736L10.3398 11.9238V10.8926C10.3398 10.7308 10.4681 10.6027 10.6299 10.6025C10.7918 10.6025 10.9199 10.7306 10.9199 10.8926V11.9238L11.1045 11.9736C11.8846 12.1852 12.458 12.8924 12.458 13.7354C12.4578 13.8971 12.3297 14.0253 12.168 14.0254C12.0061 14.0254 11.8781 13.8971 11.8779 13.7354C11.8779 13.0498 11.3155 12.4873 10.6299 12.4873C9.94447 12.4875 9.38281 13.0499 9.38281 13.7354C9.38298 14.4207 9.94458 14.9822 10.6299 14.9824H10.6758C11.6668 15.0089 12.458 15.8147 12.458 16.8027C12.4579 17.6456 11.8845 18.3519 11.1045 18.5635L10.9199 18.6143V19.6455C10.9197 19.8072 10.7917 19.9346 10.6299 19.9346C10.4683 19.9344 10.3401 19.8071 10.3398 19.6455V18.6133Z" fill="#3D444F" stroke="#3D444F" stroke-width="0.5"/>
<path d="M10.6279 1.25C10.8055 1.2503 10.9815 1.28771 11.1436 1.36035C11.3036 1.43212 11.4469 1.53692 11.5645 1.66699L12.1973 2.41699L12.3438 2.59082L12.5303 2.46094C12.7495 2.30904 13.0129 2.2339 13.2793 2.24609C13.5456 2.25832 13.8005 2.35717 14.0049 2.52832C14.2093 2.69956 14.3524 2.93326 14.4111 3.19336C14.4687 3.44884 14.4412 3.71597 14.335 3.95508L14.2441 4.0957L12.4766 6.12012L12.3662 6.24609L12.4414 6.39648C12.4912 6.49573 12.5113 6.60742 12.499 6.71777L12.4736 6.94043L12.6924 6.98926C16.8811 7.92869 20.0101 11.6703 20.0029 16.1426V16.1436C20.0028 20.0417 16.8386 23.2048 12.9404 23.2051H8.3125C4.41409 23.2051 1.25003 20.041 1.25 16.1426C1.25 11.6706 4.37859 7.9287 8.56738 6.98926L8.64551 6.97266L8.69922 6.91211L8.9248 6.66016L9.07031 6.49805L8.92871 6.33105L6.86523 3.91797C6.76426 3.68077 6.74073 3.4177 6.79883 3.16602C6.85912 2.90486 7.00337 2.67075 7.20996 2.5C7.41673 2.32922 7.67439 2.23154 7.94238 2.22168C8.21038 2.21182 8.4746 2.29019 8.69336 2.44531L8.875 2.57422L9.02344 2.4082L9.68555 1.66895C9.80439 1.53684 9.94993 1.43156 10.1123 1.35938C10.2746 1.28722 10.4503 1.24974 10.6279 1.25ZM10.6299 7.7627C6.00087 7.76276 2.25 11.5135 2.25 16.1426L2.25781 16.4434C2.33272 17.9415 2.96067 19.363 4.02637 20.4287C5.09207 21.4944 6.51357 22.1224 8.01172 22.1973L8.3125 22.2051H12.9404C14.548 22.2044 16.0899 21.5654 17.2266 20.4287C18.3632 19.2919 19.0023 17.7501 19.0029 16.1426V16.1406C19.0102 11.513 15.2586 7.7627 10.6299 7.7627ZM10.4023 2.31152L9.80957 3.08008C9.63264 3.28766 9.39185 3.43089 9.125 3.4873C8.85837 3.54362 8.58059 3.51058 8.33496 3.39258L8.03711 3.78125L9.30957 5.25098L9.38379 5.33789H11.8389L11.9131 5.25195L13.1797 3.80176L12.8887 3.41016C12.6473 3.51838 12.3773 3.54489 12.1191 3.4873C11.8609 3.4297 11.6276 3.29046 11.4551 3.08984L10.791 2.30273L10.5908 2.06641L10.4023 2.31152Z" fill="#3D444F" stroke="#3D444F" stroke-width="0.5"/>
<path d="M18.6377 15.4932C20.636 15.4932 22.2556 17.1131 22.2559 19.1113C22.2559 21.1098 20.6362 22.7295 18.6377 22.7295C16.6394 22.7293 15.0195 21.1096 15.0195 19.1113C15.0198 17.1132 16.6396 15.4934 18.6377 15.4932Z" fill="white" stroke="#3D444F" stroke-width="0.540017"/>
<path d="M22.5262 19.1118C22.5262 19.466 22.4744 19.8203 22.3794 20.1486C22.2843 20.4942 22.1461 20.8139 21.9646 21.1163C21.7573 21.4619 21.4981 21.773 21.1956 22.0322C20.5131 22.637 19.6231 22.9999 18.6381 22.9999C18.1975 22.9999 17.7827 22.9308 17.3939 22.7925C16.5126 22.4988 15.7782 21.8939 15.3116 21.1163C14.9574 20.5288 14.75 19.8375 14.75 19.1118C14.75 17.8848 15.3116 16.7875 16.2102 16.079C16.8755 15.5433 17.7223 15.2236 18.6381 15.2236C20.7896 15.2236 22.5262 16.9603 22.5262 19.1118Z" stroke="#3D444F" stroke-width="1.29604" stroke-miterlimit="10" stroke-linecap="round" stroke-linejoin="round"/>
<path d="M19.675 20.1313L17.6187 18.075" stroke="#3D444F" stroke-width="1.29604" stroke-miterlimit="10" stroke-linecap="round" stroke-linejoin="round"/>
<path d="M19.6579 18.0923L17.6016 20.1487" stroke="#3D444F" stroke-width="1.29604" stroke-miterlimit="10" stroke-linecap="round" stroke-linejoin="round"/>
</svg>
