<svg width="24" height="25" viewBox="0 0 24 25" fill="none" xmlns="http://www.w3.org/2000/svg">
<path d="M14.9277 23.231H9.07031C3.76231 23.231 1.49805 20.9647 1.49805 15.6587V9.80127C1.49805 4.49427 3.76331 2.229 9.07031 2.229H14.9277C20.2347 2.229 22.499 4.49527 22.499 9.80127V15.6587C22.5092 16.5793 22.422 17.4987 22.2383 18.4009C21.9815 17.774 21.5474 17.2359 20.9893 16.8521C21.0183 16.4831 21.0332 16.0807 21.0332 15.6587V9.80127C21.0332 5.29127 19.4327 3.6958 14.9277 3.6958H9.07031C4.56231 3.6958 2.96484 5.29427 2.96484 9.80127V15.6587C2.96484 20.1667 4.56531 21.7642 9.07031 21.7642H14.9277C15.3407 21.7642 15.7421 21.7502 16.1211 21.7212C16.5064 22.2786 17.045 22.7121 17.6719 22.9692C16.769 23.1534 15.8491 23.2409 14.9277 23.231ZM15.5469 20.2993H8.0918C7.5967 20.3574 7.09491 20.3028 6.62402 20.1392C6.15314 19.9755 5.72544 19.7066 5.37305 19.354C5.02065 19.0014 4.7532 18.573 4.58984 18.1021C4.42649 17.6311 4.3713 17.1303 4.42969 16.6353V8.82275C4.37163 8.32784 4.42634 7.82668 4.58984 7.35596C4.75335 6.88524 5.02167 6.45831 5.37402 6.10596C5.72638 5.7536 6.15428 5.48431 6.625 5.3208C7.09572 5.1573 7.59688 5.10259 8.0918 5.16064H15.9053C16.4003 5.10242 16.9022 5.15737 17.373 5.3208C17.8439 5.48423 18.2716 5.75163 18.624 6.104C18.9765 6.45638 19.2446 6.88515 19.4082 7.35596C19.5718 7.82676 19.6264 8.32775 19.5684 8.82275V16.2778C19.3809 16.2469 19.1909 16.2313 19.001 16.231C18.6993 16.2312 18.3993 16.2701 18.1074 16.3462V15.4165H15.9072C15.714 15.4134 15.5297 15.3349 15.3936 15.1978C15.2574 15.0606 15.1795 14.8754 15.1777 14.6821C15.178 14.4888 15.255 14.3033 15.3916 14.1665C15.5282 14.0297 15.7139 13.9522 15.9072 13.9517H18.1074V11.4966H15.9072C15.7147 11.4935 15.5306 11.416 15.3945 11.2798C15.2585 11.1435 15.1806 10.9587 15.1777 10.7661C15.1806 10.5736 15.2585 10.3907 15.3945 10.2544C15.5306 10.1181 15.7147 10.0407 15.9072 10.0376H18.1074V8.82471C18.1074 7.28571 17.4492 6.62354 15.9072 6.62354H8.09473C6.55573 6.62354 5.89551 7.28071 5.89551 8.82471V9.55322H7.58496C8.42651 9.55402 9.23306 9.88979 9.82812 10.4849C10.4232 11.0799 10.758 11.8855 10.7588 12.7271C10.758 13.5686 10.4232 14.3761 9.82812 14.9712C9.23306 15.5663 8.42651 15.902 7.58496 15.9028H5.89551V16.6353C5.89551 18.1763 6.55173 18.8364 8.09473 18.8364H15.6191C15.5419 19.1302 15.5027 19.4331 15.5029 19.7368C15.5032 19.9264 15.5187 20.1142 15.5498 20.3013L15.5469 20.2993ZM5.89648 11.02V14.4399H7.58594C8.03947 14.4389 8.47372 14.2572 8.79395 13.936C9.11417 13.6149 9.29421 13.1806 9.29395 12.7271C9.29315 12.2744 9.11314 11.84 8.79297 11.52C8.4728 11.2 8.03859 11.0205 7.58594 11.02H5.89648ZM7.3623 13.7036C7.23484 13.7041 7.10861 13.6774 6.99219 13.6255C6.87291 13.5779 6.76248 13.511 6.66602 13.4263C6.57462 13.3344 6.50238 13.2243 6.4541 13.104C6.40583 12.9837 6.38226 12.8547 6.38477 12.7251C6.38871 12.4677 6.48922 12.2227 6.66602 12.0356C6.85498 11.8561 7.10558 11.7554 7.36621 11.7544C7.49222 11.7547 7.61711 11.7801 7.7334 11.8286C7.85263 11.8759 7.96071 11.9463 8.05273 12.0356C8.22892 12.223 8.32905 12.4679 8.33301 12.7251C8.33548 12.8546 8.31176 12.9838 8.26367 13.104C8.21558 13.2242 8.14381 13.3342 8.05273 13.4263C7.9588 13.5114 7.8511 13.5784 7.7334 13.6255C7.61618 13.6773 7.48949 13.7046 7.36133 13.7056L7.3623 13.7036Z" fill="#3D444F"/>
<path d="M18.999 23.2319C18.3068 23.2319 17.6301 23.0267 17.0545 22.6421C16.479 22.2575 16.0304 21.7109 15.7654 21.0713C15.5005 20.4318 15.4312 19.7281 15.5663 19.0491C15.7013 18.3702 16.0347 17.7465 16.5242 17.2571C17.0136 16.7676 17.6373 16.4342 18.3162 16.2992C18.9951 16.1641 19.6989 16.2335 20.3384 16.4984C20.978 16.7633 21.5246 17.2119 21.9092 17.7874C22.2938 18.363 22.499 19.0397 22.499 19.7319C22.499 20.6602 22.1303 21.5504 21.4739 22.2068C20.8175 22.8632 19.9273 23.2319 18.999 23.2319ZM18.999 17.3369C18.5253 17.3369 18.0623 17.4774 17.6684 17.7406C17.2746 18.0037 16.9676 18.3778 16.7863 18.8154C16.6051 19.253 16.5576 19.7346 16.65 20.1992C16.7425 20.6638 16.9706 21.0905 17.3055 21.4255C17.6405 21.7604 18.0672 21.9885 18.5318 22.0809C18.9964 22.1733 19.4779 22.1259 19.9156 21.9446C20.3532 21.7634 20.7272 21.4564 20.9904 21.0625C21.2536 20.6687 21.394 20.2056 21.394 19.7319C21.3927 19.0971 21.14 18.4887 20.6911 18.0399C20.2422 17.591 19.6338 17.3383 18.999 17.3369Z" fill="#3D444F"/>
<path d="M19.7869 21.1099C19.7143 21.1103 19.6423 21.0961 19.5751 21.0683C19.508 21.0405 19.4471 20.9996 19.3959 20.9479L17.8409 19.3929C17.7897 19.3417 17.749 19.2808 17.7212 19.2138C17.6935 19.1468 17.6792 19.075 17.6792 19.0024C17.6792 18.9299 17.6935 18.8581 17.7212 18.7911C17.749 18.7241 17.7897 18.6632 17.8409 18.6119C17.8922 18.5607 17.9531 18.52 18.0201 18.4922C18.0871 18.4645 18.1589 18.4502 18.2314 18.4502C18.304 18.4502 18.3758 18.4645 18.4428 18.4922C18.5098 18.52 18.5707 18.5607 18.6219 18.6119L20.1769 20.1669C20.2796 20.271 20.3372 20.4113 20.3372 20.5574C20.3372 20.7036 20.2796 20.8439 20.1769 20.9479C20.0728 21.0503 19.933 21.1084 19.7869 21.1099Z" fill="#3D444F"/>
<path d="M18.2099 21.1248C18.1372 21.1252 18.0652 21.111 17.9981 21.0832C17.931 21.0554 17.8701 21.0145 17.8189 20.9628C17.7162 20.8588 17.6587 20.7185 17.6587 20.5723C17.6587 20.4262 17.7162 20.2859 17.8189 20.1818L19.3769 18.6268C19.4282 18.5756 19.4891 18.5349 19.5561 18.5071C19.6231 18.4794 19.6949 18.4651 19.7674 18.4651C19.8399 18.4651 19.9117 18.4794 19.9787 18.5071C20.0457 18.5349 20.1066 18.5756 20.1579 18.6268C20.2092 18.6781 20.2499 18.739 20.2776 18.806C20.3054 18.873 20.3197 18.9448 20.3197 19.0173C20.3197 19.0899 20.3054 19.1617 20.2776 19.2287C20.2499 19.2957 20.2092 19.3566 20.1579 19.4078L18.6029 20.9628C18.5524 21.0158 18.4913 21.0577 18.4236 21.0856C18.3559 21.1135 18.2831 21.1269 18.2099 21.1248Z" fill="#3D444F"/>
</svg>
