<svg width="16" height="16" viewBox="0 0 16 16" fill="none" xmlns="http://www.w3.org/2000/svg">
<path d="M2.5 2.53125H13.5C13.7569 2.53125 14.0029 2.63375 14.1846 2.81543C14.3662 2.99711 14.4688 3.24307 14.4688 3.5V5.42188L14.4785 5.43066C14.7915 5.73041 15.0408 6.09068 15.2109 6.48926C15.3811 6.88779 15.4688 7.31668 15.4688 7.75C15.4688 8.18332 15.3811 8.61221 15.2109 9.01074C15.0408 9.40932 14.7915 9.76959 14.4785 10.0693L14.4688 10.0781V14C14.4695 14.0826 14.4481 14.1645 14.4072 14.2363C14.3664 14.308 14.3075 14.3676 14.2363 14.4092C14.1649 14.4508 14.0836 14.4734 14.001 14.4736C13.9391 14.4738 13.8781 14.461 13.8213 14.4375L13.7656 14.4102L12.2656 13.5518L12.25 13.543L12.2344 13.5518L10.7344 14.4102C10.6628 14.4515 10.5816 14.4738 10.499 14.4736C10.4164 14.4734 10.3351 14.4508 10.2637 14.4092C10.1925 14.3676 10.1336 14.308 10.0928 14.2363C10.0519 14.1645 10.0305 14.0826 10.0312 14V12.4688H2.5C2.24307 12.4688 1.99711 12.3662 1.81543 12.1846C1.63375 12.0029 1.53125 11.7569 1.53125 11.5V3.5C1.53125 3.24307 1.63375 2.99711 1.81543 2.81543C1.99711 2.63375 2.24307 2.53125 2.5 2.53125ZM13.4883 10.7207C13.0961 10.8845 12.675 10.9697 12.25 10.9697C11.825 10.9697 11.4039 10.8845 11.0117 10.7207L10.9688 10.7031V13.1924L11.0156 13.166L12.0156 12.5938C12.0864 12.5533 12.1665 12.5313 12.248 12.5312C12.3296 12.5312 12.4096 12.5533 12.4805 12.5938L13.4805 13.166L13.5273 13.1924V13.1387L13.5312 10.75V10.7031L13.4883 10.7207ZM13.123 5.64258C12.7062 5.46992 12.2472 5.42467 11.8047 5.5127C11.3623 5.60075 10.9557 5.81775 10.6367 6.13672C10.3177 6.45569 10.1008 6.86227 10.0127 7.30469C9.92467 7.74721 9.96992 8.2062 10.1426 8.62305C10.3152 9.03975 10.6074 9.39585 10.9824 9.64648C11.3576 9.89715 11.7988 10.0312 12.25 10.0312C12.5496 10.0312 12.8463 9.97207 13.123 9.85742C13.3998 9.74278 13.6515 9.57509 13.8633 9.36328C14.0751 9.15147 14.2428 8.89978 14.3574 8.62305C14.4721 8.34627 14.5312 8.04958 14.5312 7.75C14.5312 7.29881 14.3972 6.85757 14.1465 6.48242C13.8958 6.10743 13.5397 5.81521 13.123 5.64258ZM4.5 8.03125H7.5C7.62432 8.03125 7.74315 8.08104 7.83105 8.16895C7.91896 8.25685 7.96875 8.37568 7.96875 8.5C7.96875 8.62432 7.91896 8.74315 7.83105 8.83105C7.74315 8.91896 7.62432 8.96875 7.5 8.96875H4.5C4.37568 8.96875 4.25685 8.91896 4.16895 8.83105C4.08104 8.74315 4.03125 8.62432 4.03125 8.5C4.03125 8.37568 4.08104 8.25685 4.16895 8.16895C4.25685 8.08104 4.37568 8.03125 4.5 8.03125ZM4.5 6.03125H7.5C7.62432 6.03125 7.74315 6.08104 7.83105 6.16895C7.91896 6.25685 7.96875 6.37568 7.96875 6.5C7.96875 6.62432 7.91896 6.74315 7.83105 6.83105C7.74315 6.91896 7.62432 6.96875 7.5 6.96875H4.5C4.37568 6.96875 4.25685 6.91896 4.16895 6.83105C4.08104 6.74315 4.03125 6.62432 4.03125 6.5C4.03125 6.37568 4.08104 6.25685 4.16895 6.16895C4.25685 6.08104 4.37568 6.03125 4.5 6.03125ZM10.0312 10.0781L10.0215 10.0693C9.48193 9.54892 9.14121 8.85629 9.05762 8.11133C8.97405 7.36634 9.15263 6.61533 9.56348 5.98828C9.97428 5.36131 10.5913 4.89764 11.3076 4.67676C12.024 4.45592 12.7957 4.49236 13.4883 4.7793L13.5312 4.79688V3.46875H2.46875V11.5312H10.0312V10.0781Z" fill="#3D444F" stroke="#3D444F" stroke-width="0.0625"/>
</svg>
