<svg width="24" height="25" viewBox="0 0 24 25" fill="none" xmlns="http://www.w3.org/2000/svg">
<path d="M5.72194 23.2306C4.60512 23.2127 3.53937 22.7597 2.75143 21.968C1.96349 21.1763 1.51556 20.1084 1.50294 18.9916V12.9466C1.46985 11.5475 1.71629 10.1559 2.22782 8.8533C2.73935 7.55069 3.50569 6.36325 4.48194 5.36056C5.45375 4.36456 6.61596 3.5742 7.89942 3.03649C9.18289 2.49877 10.5614 2.2247 11.9529 2.23056C14.7564 2.24036 17.4416 3.36194 19.4191 5.3492C21.3966 7.33645 22.5049 10.027 22.5009 12.8306V18.8756C22.5015 19.9965 22.0578 21.072 21.267 21.8665C20.4763 22.661 19.4029 23.1098 18.2819 23.1146C17.1651 23.0967 16.0994 22.6437 15.3114 21.852C14.5235 21.0603 14.0756 19.9924 14.0629 18.8756V16.1166C14.0563 15.7802 14.1167 15.4458 14.2408 15.133C14.365 14.8203 14.5502 14.5354 14.7858 14.2952C15.0213 14.0549 15.3024 13.864 15.6126 13.7337C15.9229 13.6034 16.256 13.5363 16.5924 13.5363C16.9289 13.5363 17.262 13.6034 17.5722 13.7337C17.8825 13.864 18.1636 14.0549 18.3991 14.2952C18.6347 14.5354 18.8199 14.8203 18.944 15.133C19.0681 15.4458 19.1286 15.7802 19.1219 16.1166V19.0896C19.1256 19.188 19.1093 19.2862 19.0742 19.3783C19.039 19.4703 18.9856 19.5543 18.9172 19.6253C18.8489 19.6962 18.7669 19.7527 18.6762 19.7912C18.5855 19.8298 18.488 19.8496 18.3894 19.8496C18.2909 19.8496 18.1934 19.8298 18.1027 19.7912C18.012 19.7527 17.93 19.6962 17.8616 19.6253C17.7933 19.5543 17.7399 19.4703 17.7047 19.3783C17.6696 19.2862 17.6533 19.188 17.6569 19.0896V16.1166C17.6613 15.974 17.637 15.8321 17.5855 15.6991C17.5339 15.5661 17.4562 15.4449 17.357 15.3425C17.2577 15.2401 17.1389 15.1587 17.0075 15.1032C16.8762 15.0476 16.735 15.0189 16.5924 15.0189C16.4498 15.0189 16.3087 15.0476 16.1774 15.1032C16.046 15.1587 15.9272 15.2401 15.8279 15.3425C15.7286 15.4449 15.6509 15.5661 15.5994 15.6991C15.5479 15.8321 15.5236 15.974 15.5279 16.1166V18.8736C15.5279 19.604 15.8181 20.3045 16.3346 20.8209C16.851 21.3374 17.5515 21.6276 18.2819 21.6276C19.0123 21.6276 19.7128 21.3374 20.2293 20.8209C20.7458 20.3045 21.0359 19.604 21.0359 18.8736V12.8306C21.0399 10.4162 20.0857 8.09899 18.3827 6.38759C16.6798 4.67619 14.3673 3.71051 11.9529 3.70256C10.7561 3.69565 9.57007 3.93022 8.46593 4.39225C7.3618 4.85429 6.3622 5.53428 5.52694 6.39156C4.68465 7.25489 4.02417 8.27847 3.58461 9.40167C3.14505 10.5249 2.93536 11.7249 2.96794 12.9306V18.9946C2.97644 19.7235 3.26891 20.4205 3.7832 20.9372C4.29748 21.4539 4.99301 21.7496 5.72194 21.7616C6.45087 21.7496 7.1464 21.4539 7.66069 20.9372C8.17497 20.4205 8.46745 19.7235 8.47594 18.9946V16.2306C8.48031 16.088 8.45601 15.9461 8.40448 15.8131C8.35295 15.6801 8.27524 15.5589 8.17596 15.4565C8.07668 15.3541 7.95785 15.2727 7.82652 15.2171C7.6952 15.1616 7.55405 15.1329 7.41144 15.1329C7.26884 15.1329 7.12768 15.1616 6.99636 15.2171C6.86503 15.2727 6.7462 15.3541 6.64692 15.4565C6.54764 15.5589 6.46993 15.6801 6.4184 15.8131C6.36687 15.9461 6.34257 16.088 6.34694 16.2306V19.0956C6.35058 19.194 6.33433 19.2922 6.29915 19.3843C6.26398 19.4763 6.21061 19.5603 6.14223 19.6313C6.07386 19.7022 5.99187 19.7587 5.90119 19.7972C5.8105 19.8358 5.71298 19.8556 5.61444 19.8556C5.5159 19.8556 5.41838 19.8358 5.32769 19.7972C5.23701 19.7587 5.15503 19.7022 5.08665 19.6313C5.01827 19.5603 4.9649 19.4763 4.92973 19.3843C4.89455 19.2922 4.8783 19.194 4.88194 19.0956V16.2306C4.87525 15.8942 4.93573 15.5598 5.05985 15.247C5.18396 14.9343 5.36922 14.6494 5.60477 14.4092C5.84031 14.1689 6.12143 13.978 6.43165 13.8477C6.74187 13.7174 7.07496 13.6503 7.41144 13.6503C7.74792 13.6503 8.08102 13.7174 8.39124 13.8477C8.70146 13.978 8.98257 14.1689 9.21812 14.4092C9.45366 14.6494 9.63892 14.9343 9.76303 15.247C9.88715 15.5598 9.94763 15.8942 9.94094 16.2306V18.9876C9.92935 20.1051 9.48188 21.174 8.69383 21.9666C7.90578 22.7591 6.83944 23.2126 5.72194 23.2306Z" fill="#3D444F"/>
</svg>
