<svg width="24" height="25" viewBox="0 0 24 25" fill="none" xmlns="http://www.w3.org/2000/svg">
<path d="M11.121 23.2305H7.02095C3.20195 23.2305 1.50195 21.5305 1.50195 17.7115V13.6115C1.50195 9.79253 3.20195 8.09253 7.02095 8.09253H11.121C14.94 8.09253 16.64 9.79253 16.64 13.6115V17.7115C16.64 21.5305 14.94 23.2305 11.121 23.2305ZM7.01895 9.55553C3.99095 9.55553 2.96595 10.5815 2.96595 13.6085V17.7085C2.96595 20.7365 3.99195 21.7615 7.01895 21.7615H11.119C14.147 21.7615 15.172 20.7355 15.172 17.7085V13.6085C15.172 10.5805 14.146 9.55553 11.119 9.55553H7.01895Z" fill="#3D444F"/>
<path d="M16.9809 17.3705H15.9099C15.7159 17.3692 15.5302 17.2915 15.393 17.1543C15.2558 17.0171 15.1782 16.8315 15.1769 16.6375V13.6095C15.1769 10.5815 14.1509 9.55647 11.1239 9.55647H8.09286C7.89886 9.55516 7.71318 9.47751 7.576 9.34033C7.43882 9.20315 7.36117 9.01747 7.35986 8.82347V7.74947C7.35986 3.93047 9.05986 2.23047 12.8789 2.23047H16.9789C20.7979 2.23047 22.4979 3.93047 22.4979 7.74947V11.8495C22.4999 15.6705 20.7999 17.3705 16.9809 17.3705ZM16.6389 15.9055H16.9809C20.0089 15.9055 21.0339 14.8795 21.0339 11.8525V7.75247C21.0339 4.72447 20.0079 3.69947 16.9809 3.69947H12.8809C9.85286 3.69947 8.82786 4.72547 8.82786 7.75247V8.09047H11.1279C14.9469 8.09047 16.6469 9.79047 16.6469 13.6095L16.6389 15.9055Z" fill="#3D444F"/>
</svg>
