<svg width="25" height="25" viewBox="0 0 25 25" fill="none" xmlns="http://www.w3.org/2000/svg">
<path d="M20.7612 11.209C20.2855 11.359 19.9619 11.8002 19.9619 12.299V18.731C19.9619 19.2832 19.5142 19.731 18.9619 19.731C18.4096 19.731 17.9619 19.2832 17.9619 18.731V13.4609C17.9619 12.7834 17.3024 12.302 16.6571 12.5085C16.243 12.641 15.9619 13.026 15.9619 13.4609V18.731C15.9619 19.2832 15.5142 19.731 14.9619 19.731C14.4096 19.731 13.9619 19.2832 13.9619 18.731V14.7209C13.9619 14.0434 13.3024 13.562 12.6571 13.7685C12.243 13.901 11.9619 14.286 11.9619 14.7209V18.731C11.9619 19.2832 11.5142 19.731 10.9619 19.731C10.4096 19.731 9.96191 19.2832 9.96191 18.731V15.9714C9.96191 15.2997 9.31274 14.819 8.67018 15.0149C8.2494 15.1433 7.96191 15.5315 7.96191 15.9714V18.731C7.96191 19.2832 7.5142 19.731 6.96191 19.731C6.40963 19.731 5.96191 19.2832 5.96191 18.731V17.3412C5.96191 16.6182 5.25913 16.1036 4.56987 16.3221L4.5039 16.343C3.96999 16.5121 3.40113 16.2104 3.24173 15.6735C3.08638 15.1502 3.37885 14.5989 3.89924 14.4341L5.16407 14.0336C5.6391 13.8832 5.96191 13.4423 5.96191 12.9441V6.73096C5.96191 6.17867 6.40963 5.73096 6.96191 5.73096C7.5142 5.73096 7.96191 6.17867 7.96191 6.73096V11.7875C7.96191 12.4631 8.61798 12.9443 9.26236 12.7413C9.67874 12.6102 9.96191 12.2241 9.96191 11.7875V6.73096C9.96191 6.17867 10.4096 5.73096 10.9619 5.73096C11.5142 5.73096 11.9619 6.17867 11.9619 6.73096V10.5275C11.9619 11.2031 12.618 11.6843 13.2624 11.4813C13.6787 11.3502 13.9619 10.9641 13.9619 10.5275V6.73096C13.9619 6.17867 14.4096 5.73096 14.9619 5.73096C15.5142 5.73096 15.9619 6.17867 15.9619 6.73096V9.261C15.9619 9.9385 16.6214 10.4199 17.2667 10.2134C17.6809 10.0809 17.9619 9.69587 17.9619 9.261V6.73096C17.9619 6.17867 18.4096 5.73096 18.9619 5.73096C19.5142 5.73096 19.9619 6.17867 19.9619 6.73096V8.15979C19.9619 8.75497 20.5399 9.17889 21.1076 9.00007C21.5771 8.85217 22.0767 9.11772 22.2168 9.58963L22.2517 9.70694C22.4072 10.2308 22.1139 10.7827 21.5927 10.947L20.7612 11.209Z" fill="#3D444F"/>
</svg>
