<svg width="28" height="25" viewBox="0 0 28 25" fill="none" xmlns="http://www.w3.org/2000/svg">
<path fill-rule="evenodd" clip-rule="evenodd" d="M4.27847 5.04114C5.03805 4.21102 6.08326 3.73047 7.1888 3.73047H20.5222C21.6277 3.73047 22.6729 4.21102 23.4325 5.04114C24.1901 5.86902 24.6055 6.9787 24.6055 8.12333V17.8376C24.6055 18.9823 24.1901 20.0919 23.4325 20.9198C22.6729 21.7499 21.6277 22.2305 20.5222 22.2305H7.1888C6.08326 22.2305 5.03805 21.7499 4.27847 20.9198C3.52092 20.092 3.10547 18.9823 3.10547 17.8376V8.12333C3.10547 6.9787 3.52092 5.86902 4.27847 5.04114ZM4.60547 11.3019V17.8376C4.60547 18.6253 4.8924 19.3688 5.3851 19.9072C5.87576 20.4435 6.52623 20.7305 7.1888 20.7305H20.5222C21.1847 20.7305 21.8352 20.4435 22.3259 19.9072C22.8186 19.3688 23.1055 18.6253 23.1055 17.8376V11.3019H4.60547ZM23.1055 9.8019H4.60547V8.12333C4.60547 7.33566 4.8924 6.59219 5.3851 6.05374C5.87576 5.51752 6.52624 5.23047 7.1888 5.23047H20.5222C21.1847 5.23047 21.8352 5.51752 22.3259 6.05374C22.8186 6.59219 23.1055 7.33566 23.1055 8.12333V9.8019Z" fill="#3D444F"/>
<path d="M18.8555 16.9805C18.8555 17.8089 18.1839 18.4805 17.3555 18.4805C16.5271 18.4805 15.8555 17.8089 15.8555 16.9805C15.8555 16.1521 16.5271 15.4805 17.3555 15.4805C18.1839 15.4805 18.8555 16.1521 18.8555 16.9805Z" fill="#3D444F"/>
<path d="M20.8555 16.9805C20.8555 17.8089 20.1839 18.4805 19.3555 18.4805C18.5271 18.4805 17.8555 17.8089 17.8555 16.9805C17.8555 16.1521 18.5271 15.4805 19.3555 15.4805C20.1839 15.4805 20.8555 16.1521 20.8555 16.9805Z" fill="#3D444F"/>
<path fill-rule="evenodd" clip-rule="evenodd" d="M21.257 16.9801C21.257 18.0294 20.4063 18.8801 19.357 18.8801C18.3077 18.8801 17.457 18.0294 17.457 16.9801C17.457 15.9307 18.3077 15.0801 19.357 15.0801C20.4063 15.0801 21.257 15.9307 21.257 16.9801ZM19.357 18.4801C20.1854 18.4801 20.857 17.8085 20.857 16.9801C20.857 16.1516 20.1854 15.4801 19.357 15.4801C18.5286 15.4801 17.857 16.1516 17.857 16.9801C17.857 17.8085 18.5286 18.4801 19.357 18.4801Z" fill="white"/>
</svg>
