<svg width="24" height="25" viewBox="0 0 24 25" fill="none" xmlns="http://www.w3.org/2000/svg">
<path d="M22 6.73047V18.7305C22 19.2805 21.8042 19.7513 21.4125 20.143C21.0208 20.5346 20.55 20.7305 20 20.7305H4C3.45 20.7305 2.97917 20.5346 2.5875 20.143C2.19583 19.7513 2 19.2805 2 18.7305V6.73047C2 6.18047 2.19583 5.70964 2.5875 5.31797C2.97917 4.9263 3.45 4.73047 4 4.73047H20C20.55 4.73047 21.0208 4.9263 21.4125 5.31797C21.8042 5.70964 22 6.18047 22 6.73047ZM4 8.73047H20V6.73047H4V8.73047ZM4 12.7305V18.7305H20V12.7305H4Z" fill="#3D444F"/>
</svg>
