<svg width="24" height="25" viewBox="0 0 24 25" fill="none" xmlns="http://www.w3.org/2000/svg">
<path d="M12.244 2.23019C14.9641 2.23019 17.5727 3.31073 19.4961 5.2341C21.4195 7.15747 22.5 9.76613 22.5 12.4862C22.5 15.2062 21.4195 17.8149 19.4961 19.7383C17.5727 21.6616 14.9641 22.7422 12.244 22.7422C12.0545 22.7409 11.8732 22.665 11.7392 22.531C11.6052 22.397 11.5293 22.2157 11.528 22.0262C11.5293 21.8367 11.6052 21.6553 11.7392 21.5213C11.8732 21.3874 12.0545 21.3115 12.244 21.3102C13.9894 21.3102 15.6956 20.7926 17.1469 19.8229C18.5982 18.8532 19.7293 17.4749 20.3972 15.8624C21.0652 14.2498 21.2399 12.4754 20.8994 10.7635C20.5589 9.05163 19.7184 7.47917 18.4842 6.24497C17.25 5.01077 15.6776 4.17027 13.9657 3.82976C12.2538 3.48924 10.4794 3.66401 8.86682 4.33195C7.25426 4.9999 5.87598 6.13102 4.90628 7.58228C3.93658 9.03354 3.419 10.7398 3.419 12.4852C3.4226 12.5814 3.40675 12.6773 3.37242 12.7673C3.33808 12.8572 3.28596 12.9393 3.21916 13.0087C3.15236 13.078 3.07227 13.1332 2.98367 13.1708C2.89507 13.2085 2.79978 13.2279 2.7035 13.2279C2.60722 13.2279 2.51193 13.2085 2.42333 13.1708C2.33473 13.1332 2.25463 13.078 2.18784 13.0087C2.12104 12.9393 2.06892 12.8572 2.03458 12.7673C2.00025 12.6773 1.9844 12.5814 1.988 12.4852C1.99039 9.76595 3.07172 7.15878 4.99461 5.23609C6.91749 3.31339 9.52476 2.23231 12.244 2.23019Z" fill="#3D444F"/>
<path d="M2.23305 17.8585C2.42705 17.8598 2.61273 17.9374 2.74991 18.0746C2.88709 18.2118 2.96474 18.3975 2.96605 18.5915L2.96605 21.7655H6.14005C6.33387 21.7668 6.51941 21.8443 6.65656 21.9813C6.79371 22.1182 6.87148 22.3036 6.87305 22.4975C6.87174 22.6915 6.79409 22.8771 6.65691 23.0143C6.51973 23.1515 6.33405 23.2292 6.14005 23.2305H2.23305C2.03905 23.2292 1.85337 23.1515 1.71619 23.0143C1.579 22.8771 1.50136 22.6915 1.50005 22.4975L1.50005 18.5905C1.50162 18.3966 1.57938 18.2112 1.71653 18.0743C1.85369 17.9373 2.03922 17.8598 2.23305 17.8585Z" fill="#3D444F"/>
<path d="M7.11545 16.882C7.21176 16.8816 7.30717 16.9004 7.39612 16.9373C7.48506 16.9742 7.56575 17.0285 7.63345 17.097C7.76946 17.2349 7.8457 17.4208 7.8457 17.6145C7.8457 17.8082 7.76946 17.9941 7.63345 18.132L2.74545 23.016C2.606 23.1421 2.42335 23.2097 2.23539 23.2048C2.04742 23.1999 1.86854 23.1229 1.73584 22.9897C1.60314 22.8565 1.52679 22.6773 1.52262 22.4893C1.51845 22.3013 1.58679 22.1189 1.71345 21.98L6.59745 17.096C6.66524 17.0277 6.74596 16.9736 6.83491 16.9368C6.92385 16.9001 7.01922 16.8814 7.11545 16.882Z" fill="#3D444F"/>
<path d="M14.3405 17.8767C13.8532 17.8762 13.3731 17.7587 12.9407 17.534C12.5082 17.3094 12.1361 16.9841 11.8555 16.5857C11.7435 16.4266 11.6992 16.2294 11.7325 16.0377C11.7658 15.8459 11.8739 15.6753 12.033 15.5632C12.1921 15.4511 12.3893 15.4069 12.581 15.4402C12.7728 15.4735 12.9435 15.5816 13.0555 15.7407C13.1873 15.9294 13.3589 16.087 13.5581 16.2024C13.7574 16.3178 13.9794 16.3881 14.2088 16.4085C14.4381 16.4289 14.6691 16.3988 14.8855 16.3204C15.102 16.2419 15.2986 16.1171 15.4617 15.9545C15.6247 15.792 15.7502 15.5958 15.8293 15.3796C15.9084 15.1634 15.9393 14.9324 15.9196 14.7031C15.9 14.4737 15.8303 14.2514 15.7156 14.0518C15.6009 13.8522 15.4438 13.6801 15.2555 13.5477C15.1758 13.4924 15.1081 13.4216 15.0566 13.3394C15.005 13.2573 14.9706 13.1655 14.9555 13.0697C14.9253 12.8794 14.9709 12.6848 15.0825 12.5277C15.1498 12.4328 15.2388 12.3554 15.3422 12.302C15.4455 12.2486 15.5602 12.2207 15.6765 12.2207C15.8295 12.2206 15.9787 12.2681 16.1035 12.3567C16.6272 12.732 17.0183 13.2637 17.2206 13.8753C17.423 14.4869 17.4261 15.147 17.2296 15.7605C17.0331 16.374 16.6471 16.9094 16.127 17.2897C15.607 17.67 14.9797 17.8755 14.3355 17.8767H14.3405Z" fill="#3D444F"/>
<path d="M11.0625 16.0117C10.1806 16.0119 9.31851 15.7505 8.5852 15.2607C7.85189 14.7708 7.28034 14.0745 6.94286 13.2597C6.60538 12.445 6.51713 11.5484 6.68927 10.6835C6.86142 9.81859 7.28622 9.02416 7.90994 8.40072C8.53367 7.77727 9.32828 7.35283 10.1933 7.18107C11.0583 7.00932 11.9548 7.09797 12.7694 7.43582C13.584 7.77366 14.2801 8.34552 14.7696 9.07905C15.2591 9.81258 15.5201 10.6748 15.5195 11.5567C15.5174 12.7379 15.0471 13.8702 14.2116 14.7052C13.3762 15.5403 12.2438 16.0101 11.0625 16.0117ZM11.0625 8.5637C10.4708 8.5637 9.89236 8.73916 9.40035 9.06788C8.90834 9.3966 8.52485 9.86383 8.29836 10.4105C8.07188 10.9571 8.01257 11.5587 8.12793 12.139C8.2433 12.7194 8.52816 13.2525 8.9465 13.671C9.36484 14.0895 9.89787 14.3745 10.4782 14.4901C11.0585 14.6057 11.6601 14.5465 12.2068 14.3202C12.7535 14.0939 13.2209 13.7106 13.5498 13.2187C13.8787 12.7268 14.0543 12.1484 14.0545 11.5567C14.0527 10.7637 13.7369 10.0036 13.1762 9.44273C12.6155 8.88186 11.8556 8.56582 11.0625 8.5637Z" fill="#3D444F"/>
</svg>
