<svg width="24" height="24" viewBox="0 0 24 24" fill="none" xmlns="http://www.w3.org/2000/svg">
<path d="M3.5 13V12.196C3.5 9.229 3.5 7.746 3.969 6.56C4.723 4.655 6.317 3.153 8.339 2.442C9.595 2 11.168 2 14.318 2C16.116 2 17.016 2 17.734 2.253C18.889 2.659 19.8 3.517 20.231 4.606C20.499 5.283 20.499 6.131 20.499 7.826V13" stroke="#3D444F" stroke-width="1.5" stroke-linecap="round" stroke-linejoin="round"/>
<path d="M3.5 12C3.5 11.116 3.85115 10.2683 4.47621 9.64321C5.10127 9.01815 5.94903 8.667 6.833 8.667C7.499 8.667 8.284 8.783 8.931 8.61C9.21371 8.53392 9.47145 8.38485 9.67838 8.17774C9.88531 7.97064 10.0342 7.71277 10.11 7.43C10.283 6.783 10.167 5.998 10.167 5.332C10.1673 4.44821 10.5185 3.6007 11.1436 2.97586C11.7686 2.35102 12.6162 2 13.5 2M7.5 17.22C7.445 16.03 6.622 16 5.505 16C3.785 16 3.5 16.406 3.5 18V20C3.5 21.594 3.785 22 5.505 22C6.622 22 7.445 21.97 7.5 20.78M20.5 16L18.723 20.695C18.393 21.565 18.229 22 17.968 22C17.708 22 17.542 21.565 17.213 20.695L15.436 16M12.876 16H11.696C11.223 16 10.987 16 10.801 16.076C10.167 16.336 10.176 16.945 10.176 17.5C10.176 18.055 10.167 18.665 10.801 18.924C10.987 19 11.223 19 11.695 19C12.167 19 12.403 19 12.589 19.076C13.223 19.336 13.214 19.945 13.214 20.5C13.214 21.055 13.223 21.665 12.589 21.924C12.403 22 12.167 22 11.695 22H10.41" stroke="#3D444F" stroke-width="1.5" stroke-linecap="round" stroke-linejoin="round"/>
</svg>
