<svg width="24" height="25" viewBox="0 0 24 25" fill="none" xmlns="http://www.w3.org/2000/svg">
<path d="M8.27 23.45H4.23C2.22 23.45 1.25 22.52 1.25 20.6V4.79995C1.25 2.87995 2.23 1.94995 4.23 1.94995H8.27C10.28 1.94995 11.25 2.87995 11.25 4.79995V20.6C11.25 22.52 10.27 23.45 8.27 23.45ZM4.23 3.44995C2.96 3.44995 2.75 3.78995 2.75 4.79995V20.6C2.75 21.61 2.96 21.95 4.23 21.95H8.27C9.54 21.95 9.75 21.61 9.75 20.6V4.79995C9.75 3.78995 9.54 3.44995 8.27 3.44995H4.23Z" fill="#3D444F"/>
<path d="M19.77 11.95H15.73C13.72 11.95 12.75 11.06 12.75 9.21995V4.67995C12.75 2.83995 13.73 1.94995 15.73 1.94995H19.77C21.78 1.94995 22.75 2.83995 22.75 4.67995V9.20995C22.75 11.06 21.77 11.95 19.77 11.95ZM15.73 3.44995C14.39 3.44995 14.25 3.82995 14.25 4.67995V9.20995C14.25 10.07 14.39 10.44 15.73 10.44H19.77C21.11 10.44 21.25 10.06 21.25 9.20995V4.67995C21.25 3.81995 21.11 3.44995 19.77 3.44995H15.73Z" fill="#3D444F"/>
<path d="M19.77 23.45H15.73C13.72 23.45 12.75 22.47 12.75 20.47V16.43C12.75 14.42 13.73 13.45 15.73 13.45H19.77C21.78 13.45 22.75 14.43 22.75 16.43V20.47C22.75 22.47 21.77 23.45 19.77 23.45ZM15.73 14.95C14.55 14.95 14.25 15.25 14.25 16.43V20.47C14.25 21.65 14.55 21.95 15.73 21.95H19.77C20.95 21.95 21.25 21.65 21.25 20.47V16.43C21.25 15.25 20.95 14.95 19.77 14.95H15.73Z" fill="#3D444F"/>
</svg>
