<svg width="25" height="25" viewBox="0 0 25 25" fill="none" xmlns="http://www.w3.org/2000/svg">
<path d="M12.265 11.6005C12.165 11.5905 12.045 11.5905 11.935 11.6005C9.55504 11.5205 7.66504 9.57047 7.66504 7.17047C7.66504 4.72047 9.64504 2.73047 12.105 2.73047C14.555 2.73047 16.545 4.72047 16.545 7.17047C16.535 9.57047 14.645 11.5205 12.265 11.6005Z" stroke="#3D444F" stroke-width="1.5" stroke-linecap="round" stroke-linejoin="round"/>
<path d="M7.2652 15.2905C4.8452 16.9105 4.8452 19.5505 7.2652 21.1605C10.0152 23.0005 14.5252 23.0005 17.2752 21.1605C19.6952 19.5405 19.6952 16.9005 17.2752 15.2905C14.5352 13.4605 10.0252 13.4605 7.2652 15.2905Z" stroke="#3D444F" stroke-width="1.5" stroke-linecap="round" stroke-linejoin="round"/>
</svg>
