<svg width="24" height="25" viewBox="0 0 24 25" fill="none" xmlns="http://www.w3.org/2000/svg">
<path d="M12 23.2305C11.2914 23.2307 10.6117 22.9498 10.11 22.4495L8.444 20.7985C8.03183 20.3905 7.47495 20.1622 6.895 20.1635H6.15C5.18466 20.1643 4.25837 19.7823 3.57418 19.1013C2.88999 18.4203 2.50371 17.4958 2.5 16.5305V5.86347C2.50371 4.89813 2.88999 3.97364 3.57418 3.29264C4.25837 2.61163 5.18466 2.22967 6.15 2.23047H17.85C18.8153 2.22967 19.7416 2.61163 20.4258 3.29264C21.11 3.97364 21.4963 4.89813 21.5 5.86347V16.5205C21.4963 17.4858 21.11 18.4103 20.4258 19.0913C19.7416 19.7723 18.8153 20.1543 17.85 20.1535H17.109C16.5299 20.1567 15.9747 20.3843 15.56 20.7885L13.89 22.4395C13.6434 22.6904 13.3492 22.8896 13.0247 23.0254C12.7002 23.1612 12.3518 23.2309 12 23.2305ZM6.15 3.69547C5.573 3.69492 5.01918 3.92253 4.6093 4.32865C4.19943 4.73478 3.96675 5.28648 3.962 5.86347V16.5205C3.96517 17.0979 4.19735 17.6506 4.60757 18.057C5.01778 18.4635 5.57252 18.6906 6.15 18.6885H6.891C7.85775 18.6925 8.78452 19.0748 9.473 19.7535L11.139 21.4045C11.3694 21.63 11.679 21.7563 12.0015 21.7563C12.324 21.7563 12.6336 21.63 12.864 21.4045L14.53 19.7535C15.2185 19.0748 16.1452 18.6925 17.112 18.6885H17.85C18.4277 18.6901 18.9825 18.4629 19.3933 18.0567C19.804 17.6505 20.0372 17.0981 20.042 16.5205V5.86347C20.0404 5.57719 19.9825 5.29402 19.8715 5.03013C19.7605 4.76624 19.5986 4.5268 19.395 4.32548C19.1915 4.12416 18.9503 3.96491 18.6852 3.85681C18.4201 3.74871 18.1363 3.69389 17.85 3.69547H6.15Z" fill="#3D444F"/>
<path d="M12.0689 10.4835H11.9029C11.2122 10.4593 10.5587 10.1647 10.083 9.66336C9.60738 9.16199 9.34765 8.49387 9.35978 7.80288C9.37191 7.11188 9.65492 6.45329 10.1479 5.96892C10.6408 5.48454 11.3043 5.21313 11.9954 5.21313C12.6865 5.21313 13.3499 5.48454 13.8429 5.96892C14.3358 6.45329 14.6188 7.11188 14.631 7.80288C14.6431 8.49387 14.3834 9.16199 13.9077 9.66336C13.4321 10.1647 12.7785 10.4593 12.0879 10.4835H12.0689ZM12.0009 6.67451C11.697 6.67898 11.4068 6.80119 11.1913 7.01539C10.9757 7.22959 10.8517 7.51907 10.8454 7.82287C10.839 8.12667 10.9508 8.42108 11.1572 8.6441C11.3636 8.86712 11.6485 9.00135 11.9519 9.01851C11.9519 9.00851 12.0099 9.00851 12.0789 9.01851C12.3795 8.99403 12.6592 8.85479 12.8599 8.62966C13.0606 8.40453 13.167 8.11079 13.1569 7.80934C13.1469 7.50789 13.0212 7.22187 12.806 7.01058C12.5908 6.79929 12.3025 6.67895 12.0009 6.67451Z" fill="#3D444F"/>
<path d="M12.0002 17.3214C10.9095 17.336 9.83799 17.0341 8.91523 16.4524C8.53458 16.2261 8.21637 15.9084 7.98939 15.5281C7.7624 15.1478 7.63381 14.7169 7.61523 14.2744C7.63153 13.8301 7.75909 13.3969 7.98622 13.0147C8.21334 12.6324 8.53277 12.3132 8.91523 12.0864C9.84454 11.521 10.9114 11.2219 11.9992 11.2219C13.0871 11.2219 14.1539 11.521 15.0832 12.0864C15.4631 12.3137 15.7807 12.6316 16.0076 13.0117C16.2344 13.3918 16.3635 13.8222 16.3832 14.2644C16.3658 14.7085 16.2377 15.1412 16.0107 15.5233C15.7837 15.9054 15.4649 16.2248 15.0832 16.4524C14.1643 17.0411 13.0913 17.3436 12.0002 17.3214ZM9.71523 13.3064C9.53705 13.4026 9.38522 13.5411 9.2731 13.7097C9.16098 13.8783 9.092 14.0719 9.07223 14.2734C9.094 14.4744 9.16378 14.6671 9.27569 14.8354C9.3876 15.0037 9.53836 15.1427 9.71523 15.2404C10.4041 15.648 11.1898 15.863 11.9902 15.863C12.7906 15.863 13.5764 15.648 14.2652 15.2404C14.4448 15.146 14.5977 15.0079 14.7101 14.839C14.8224 14.67 14.8906 14.4756 14.9082 14.2734C14.8865 14.0725 14.8167 13.8798 14.7048 13.7115C14.5929 13.5432 14.4421 13.4042 14.2652 13.3064C13.5764 12.8989 12.7906 12.6839 11.9902 12.6839C11.1898 12.6839 10.4041 12.8989 9.71523 13.3064Z" fill="#3D444F"/>
</svg>
