<svg width="24" height="25" viewBox="0 0 24 25" fill="none" xmlns="http://www.w3.org/2000/svg">
<path d="M8.357 23.2305H4.411C2.448 23.2305 1.5 22.3225 1.5 20.4465V5.01447C1.5 3.13947 2.457 2.23047 4.411 2.23047H8.357C10.32 2.23047 11.268 3.13847 11.268 5.01447V20.4465C11.267 22.3225 10.31 23.2305 8.357 23.2305ZM4.411 3.69547C3.171 3.69547 2.965 4.02747 2.965 5.01447V20.4465C2.965 21.4335 3.17 21.7655 4.411 21.7655H8.357C9.597 21.7655 9.803 21.4335 9.803 20.4465V5.01447C9.803 4.02747 9.598 3.69547 8.357 3.69547H4.411Z" fill="#3D444F"/>
<path d="M19.5899 14.4395H15.6439C13.6809 14.4395 12.7329 13.5315 12.7329 11.6555V5.01447C12.7329 3.13947 13.6899 2.23047 15.6439 2.23047H19.5899C21.5529 2.23047 22.5009 3.13847 22.5009 5.01447V11.6565C22.4999 13.5315 21.5429 14.4395 19.5899 14.4395ZM15.6439 3.69547C14.4039 3.69547 14.1979 4.02747 14.1979 5.01447V11.6565C14.1979 12.6435 14.4029 12.9755 15.6439 12.9755H19.5899C20.8299 12.9755 21.0359 12.6435 21.0359 11.6565V5.01447C21.0359 4.02747 20.8309 3.69547 19.5899 3.69547H15.6439Z" fill="#3D444F"/>
<path d="M19.5899 23.2305H15.6439C13.6809 23.2305 12.7329 22.3225 12.7329 20.4465V18.6885C12.7329 16.8135 13.6899 15.9045 15.6439 15.9045H19.5899C21.5529 15.9045 22.5009 16.8125 22.5009 18.6885V20.4465C22.4999 22.3215 21.5429 23.2305 19.5899 23.2305ZM15.6439 17.3705C14.4039 17.3705 14.1979 17.7025 14.1979 18.6895V20.4475C14.1979 21.4345 14.4029 21.7665 15.6439 21.7665H19.5899C20.8299 21.7665 21.0359 21.4345 21.0359 20.4475V18.6885C21.0359 17.7015 20.8309 17.3695 19.5899 17.3695L15.6439 17.3705Z" fill="#3D444F"/>
</svg>
