<svg width="24" height="25" viewBox="0 0 24 25" fill="none" xmlns="http://www.w3.org/2000/svg">
<path d="M17.655 23.2306H6.345C5.05824 23.2279 3.82517 22.7146 2.91669 21.8033C2.00822 20.892 1.49867 19.6574 1.5 18.3706V11.1256C1.53607 10.3943 1.72095 9.67813 2.04335 9.02078C2.36575 8.36344 2.81887 7.77879 3.375 7.3026L8.64 3.1956C9.47211 2.59262 10.4677 2.25657 11.495 2.23193C12.5224 2.20729 13.5329 2.49521 14.393 3.0576L20.429 7.2916C21.0409 7.76411 21.5429 8.36377 21.9004 9.04918C22.258 9.73459 22.4626 10.4894 22.5 11.2616V18.3796C22.4995 19.665 21.989 20.8976 21.0807 21.8071C20.1724 22.7165 18.9404 23.2285 17.655 23.2306ZM9.539 4.3496L4.274 8.4576C3.5089 9.14448 3.03972 10.1011 2.965 11.1266V18.3726C2.96447 19.2704 3.31999 20.1318 3.9536 20.7678C4.58722 21.4039 5.44721 21.7627 6.345 21.7656H17.655C18.5517 21.7648 19.4114 21.408 20.0452 20.7737C20.679 20.1393 21.035 19.2793 21.035 18.3826V11.2626C20.9987 10.7264 20.8514 10.2036 20.6025 9.72728C20.3536 9.25097 20.0085 8.83156 19.589 8.4956L13.55 4.2576C12.9463 3.87725 12.244 3.68314 11.5306 3.69951C10.8173 3.71587 10.1246 3.94197 9.539 4.3496Z" fill="#3D444F"/>
<path d="M12 19.3425C11.8015 19.3412 11.6115 19.2618 11.4711 19.1214C11.3307 18.981 11.2513 18.791 11.25 18.5925V15.5925C11.25 15.3936 11.329 15.2029 11.4697 15.0622C11.6103 14.9215 11.8011 14.8425 12 14.8425C12.1989 14.8425 12.3897 14.9215 12.5303 15.0622C12.671 15.2029 12.75 15.3936 12.75 15.5925V18.5925C12.7487 18.791 12.6693 18.981 12.5289 19.1214C12.3885 19.2618 12.1985 19.3412 12 19.3425Z" fill="#3D444F"/>
</svg>
