<svg width="24" height="25" viewBox="0 0 24 25" fill="none" xmlns="http://www.w3.org/2000/svg">
<path d="M11.9995 23.2307C9.21474 23.2307 6.54402 22.1245 4.57489 20.1553C2.60576 18.1862 1.49951 15.5155 1.49951 12.7307C1.49951 9.94595 2.60576 7.27524 4.57489 5.3061C6.54402 3.33697 9.21474 2.23072 11.9995 2.23072C12.098 2.22709 12.1962 2.24334 12.2882 2.27851C12.3803 2.31368 12.4643 2.36705 12.5352 2.43543C12.6062 2.50381 12.6626 2.58579 12.7012 2.67648C12.7397 2.76716 12.7596 2.86469 12.7596 2.96322C12.7596 3.06176 12.7397 3.15929 12.7012 3.24997C12.6626 3.34066 12.6062 3.42264 12.5352 3.49102C12.4643 3.5594 12.3803 3.61277 12.2882 3.64794C12.1962 3.68311 12.098 3.69936 11.9995 3.69572C10.2126 3.69572 8.46573 4.22562 6.97993 5.2184C5.49414 6.21117 4.3361 7.62225 3.65226 9.27318C2.96842 10.9241 2.7895 12.7407 3.13812 14.4934C3.48673 16.246 4.34723 17.8559 5.6108 19.1194C6.87437 20.383 8.48425 21.2435 10.2369 21.5921C11.9895 21.9407 13.8061 21.7618 15.4571 21.078C17.108 20.3941 18.5191 19.2361 19.5118 17.7503C20.5046 16.2645 21.0345 14.5177 21.0345 12.7307C21.0309 12.6323 21.0471 12.5341 21.0823 12.442C21.1175 12.35 21.1708 12.266 21.2392 12.195C21.3076 12.1241 21.3896 12.0676 21.4803 12.0291C21.5709 11.9905 21.6685 11.9707 21.767 11.9707C21.8655 11.9707 21.9631 11.9905 22.0538 12.0291C22.1444 12.0676 22.2264 12.1241 22.2948 12.195C22.3632 12.266 22.4166 12.35 22.4517 12.442C22.4869 12.5341 22.5032 12.6323 22.4995 12.7307C22.4971 15.5148 21.3901 18.1841 19.4215 20.1527C17.4529 22.1213 14.7836 23.2283 11.9995 23.2307Z" fill="#3D444F"/>
<path d="M21.7495 7.73071C21.551 7.7294 21.361 7.64996 21.2206 7.50959C21.0803 7.36923 21.0008 7.17922 20.9995 6.98071V3.73071H17.7495C17.5506 3.73071 17.3598 3.6517 17.2192 3.51104C17.0785 3.37039 16.9995 3.17963 16.9995 2.98071C16.9995 2.7818 17.0785 2.59104 17.2192 2.45038C17.3598 2.30973 17.5506 2.23071 17.7495 2.23071H21.7495C21.948 2.23202 22.138 2.31146 22.2784 2.45183C22.4188 2.5922 22.4982 2.78221 22.4995 2.98071V6.98071C22.4982 7.17922 22.4188 7.36923 22.2784 7.50959C22.138 7.64996 21.948 7.7294 21.7495 7.73071Z" fill="#3D444F"/>
<path d="M16.7497 8.7308C16.6511 8.73116 16.5535 8.71189 16.4625 8.67411C16.3715 8.63634 16.289 8.58082 16.2197 8.5108C16.0802 8.36967 16.002 8.17923 16.002 7.9808C16.002 7.78237 16.0802 7.59194 16.2197 7.4508L21.2197 2.4508C21.3618 2.31832 21.5499 2.2462 21.7442 2.24963C21.9385 2.25306 22.1239 2.33177 22.2613 2.46918C22.3987 2.60659 22.4774 2.79198 22.4808 2.98628C22.4843 3.18058 22.4121 3.36863 22.2797 3.5108L17.2797 8.5108C17.2103 8.58082 17.1278 8.63634 17.0368 8.67411C16.9458 8.71189 16.8482 8.73116 16.7497 8.7308Z" fill="#3D444F"/>
<path d="M14.2085 18.3808C13.6973 18.3798 13.1939 18.2561 12.7405 18.0199C12.2872 17.7838 11.8972 17.4421 11.6035 17.0238C11.486 16.8573 11.4395 16.6511 11.4741 16.4503C11.5087 16.2495 11.6216 16.0707 11.788 15.9533C11.9544 15.8358 12.1607 15.7892 12.3615 15.8238C12.5622 15.8584 12.741 15.9713 12.8585 16.1378C12.9973 16.3343 13.1772 16.4982 13.3858 16.6179C13.5945 16.7377 13.8267 16.8105 14.0664 16.8312C14.3061 16.852 14.5474 16.8202 14.7735 16.738C14.9996 16.6558 15.205 16.5253 15.3755 16.3555C15.5459 16.1858 15.6772 15.9808 15.7603 15.755C15.8433 15.5293 15.8761 15.2881 15.8563 15.0483C15.8365 14.8086 15.7646 14.5761 15.6456 14.367C15.5267 14.1579 15.3635 13.9773 15.1675 13.8378C15.0849 13.7795 15.0149 13.7052 14.9616 13.6193C14.9083 13.5334 14.8729 13.4377 14.8575 13.3378C14.8257 13.1383 14.8735 12.9344 14.9905 12.7698C15.061 12.6702 15.1544 12.589 15.2628 12.5329C15.3712 12.4769 15.4915 12.4477 15.6135 12.4478C15.7741 12.4477 15.9307 12.4977 16.0615 12.5908C16.6103 12.9843 17.0201 13.5416 17.2321 14.1828C17.444 14.8239 17.4472 15.5157 17.2412 16.1588C17.0351 16.8018 16.6304 17.363 16.0853 17.7615C15.5402 18.1601 14.8828 18.3755 14.2075 18.3768L14.2085 18.3808Z" fill="#3D444F"/>
<path d="M10.7716 16.4258C9.84758 16.4258 8.94429 16.1518 8.17599 15.6384C7.40768 15.125 6.80886 14.3954 6.45525 13.5417C6.10163 12.688 6.00911 11.7486 6.18938 10.8423C6.36965 9.93605 6.81462 9.10358 7.46801 8.45019C8.1214 7.7968 8.95387 7.35183 9.86015 7.17156C10.7664 6.99129 11.7058 7.08381 12.5595 7.43742C13.4132 7.79104 14.1429 8.38986 14.6562 9.15816C15.1696 9.92647 15.4436 10.8298 15.4436 11.7538C15.442 12.9924 14.9493 14.1798 14.0735 15.0556C13.1976 15.9315 12.0102 16.4242 10.7716 16.4258ZM10.7716 8.61879C10.1511 8.61919 9.5447 8.80358 9.02902 9.14865C8.51334 9.49372 8.11158 9.98397 7.87454 10.5574C7.63751 11.1308 7.57584 11.7616 7.69735 12.3701C7.81886 12.9786 8.11809 13.5374 8.55719 13.9757C8.99628 14.4141 9.55553 14.7125 10.1642 14.833C10.7729 14.9536 11.4036 14.8909 11.9766 14.6529C12.5497 14.415 13.0393 14.0124 13.3835 13.4962C13.7278 12.98 13.9112 12.3733 13.9106 11.7528C13.9082 10.9215 13.5766 10.1249 12.9883 9.53758C12.4 8.95021 11.6029 8.61984 10.7716 8.61879Z" fill="#3D444F"/>
</svg>
