<svg width="25" height="24" viewBox="0 0 25 24" fill="none" xmlns="http://www.w3.org/2000/svg">
<path d="M20.3522 7.58807H20.2854C15.8931 7.08773 11.4617 7.0303 7.05799 7.41665L5.34982 7.58807C5.26674 7.59671 5.18278 7.58881 5.10278 7.56483C5.02278 7.54084 4.94831 7.50126 4.88369 7.44834C4.81907 7.39543 4.76556 7.33025 4.72626 7.25655C4.68696 7.18285 4.66265 7.1021 4.65472 7.01895C4.6462 6.93707 4.65396 6.85431 4.67756 6.77544C4.70117 6.69657 4.74014 6.62315 4.79225 6.55942C4.84435 6.49568 4.90855 6.44288 4.98115 6.40407C5.05375 6.36526 5.13331 6.3412 5.21525 6.33327L6.92342 6.16185C11.4134 5.77146 15.9311 5.82888 20.4097 6.33327C20.5747 6.35037 20.7263 6.43208 20.8313 6.56054C20.9363 6.68901 20.9862 6.8538 20.9702 7.01895C20.9573 7.17402 20.8866 7.31858 20.7722 7.42399C20.6577 7.5294 20.5078 7.58796 20.3522 7.58807Z" fill="#D80000"/>
<path d="M9.8875 6.74296C9.85102 6.74398 9.81453 6.74111 9.77865 6.73439C9.61552 6.70605 9.47011 6.61462 9.37387 6.47988C9.27763 6.34515 9.2383 6.17794 9.2644 6.01443L9.44867 4.91734C9.58238 4.11338 9.76665 3 11.7174 3H13.9107C15.87 3 16.0534 4.15537 16.1794 4.92591L16.3636 6.01443C16.3774 6.09524 16.375 6.17797 16.3568 6.25789C16.3386 6.33781 16.3048 6.41335 16.2573 6.48021C16.2099 6.54706 16.1498 6.60392 16.0804 6.64753C16.0109 6.69115 15.9336 6.72066 15.8528 6.73439C15.772 6.74813 15.6893 6.74581 15.6094 6.72757C15.5294 6.70932 15.4539 6.67552 15.387 6.62809C15.3202 6.58065 15.2633 6.52051 15.2197 6.4511C15.1761 6.3817 15.1466 6.30438 15.1329 6.22356L14.9486 5.13504C14.8312 4.4065 14.8063 4.26423 13.9201 4.26423H11.7285C10.8414 4.26423 10.8243 4.38165 10.7 5.12647L10.5063 6.21499C10.4825 6.36208 10.4072 6.49594 10.2939 6.59265C10.1805 6.68936 10.0365 6.74264 9.8875 6.74296Z" fill="#D80000"/>
<path d="M15.5057 21H10.1309C7.2091 21 7.09168 19.3844 6.99997 18.0781L6.45572 9.64769C6.44435 9.48118 6.4996 9.31697 6.6093 9.1912C6.719 9.06542 6.87417 8.98837 7.04068 8.97701C7.20719 8.96564 7.37139 9.02089 7.49716 9.13059C7.62294 9.24029 7.69998 9.39547 7.71135 9.56198L8.2556 17.995C8.34731 19.2678 8.38159 19.7444 10.1309 19.7444H15.5057C17.2636 19.7444 17.297 19.2669 17.381 17.995L17.9252 9.56455C17.9388 9.39903 18.0163 9.2453 18.1412 9.13588C18.2661 9.02646 18.4287 8.96994 18.5946 8.97829C18.6771 8.98363 18.7577 9.00519 18.8319 9.04175C18.906 9.0783 18.9722 9.12913 19.0267 9.19132C19.0811 9.2535 19.1228 9.32582 19.1492 9.40414C19.1757 9.48245 19.1864 9.56522 19.1809 9.64769L18.6366 18.0781C18.5406 19.3844 18.4266 21 15.5057 21Z" fill="#D80000"/>
<path d="M11.4197 16.3956C11.3353 16.3988 11.2511 16.3848 11.1722 16.3547C11.0934 16.3245 11.0213 16.2788 10.9605 16.2202C10.8997 16.1616 10.8514 16.0913 10.8183 16.0136C10.7853 15.9359 10.7682 15.8523 10.7682 15.7678C10.7682 15.6834 10.7853 15.5998 10.8183 15.522C10.8514 15.4443 10.8997 15.3741 10.9605 15.3154C11.0213 15.2568 11.0934 15.2111 11.1722 15.181C11.2511 15.1508 11.3353 15.1369 11.4197 15.14H14.2078C14.2922 15.1369 14.3763 15.1508 14.4552 15.181C14.5341 15.2111 14.6061 15.2568 14.6669 15.3154C14.7278 15.3741 14.7761 15.4443 14.8092 15.522C14.8422 15.5998 14.8592 15.6834 14.8592 15.7678C14.8592 15.8523 14.8422 15.9359 14.8092 16.0136C14.7761 16.0913 14.7278 16.1616 14.6669 16.2202C14.6061 16.2788 14.5341 16.3245 14.4552 16.3547C14.3763 16.3848 14.2922 16.3988 14.2078 16.3956H11.4197Z" fill="#D80000"/>
<path d="M14.9106 13.047H10.7255C10.563 13.0409 10.4091 12.9722 10.2963 12.8551C10.1835 12.738 10.1204 12.5817 10.1204 12.4191C10.1204 12.2565 10.1835 12.1002 10.2963 11.9832C10.4091 11.8661 10.563 11.7973 10.7255 11.7913H14.9115C15.0739 11.7973 15.2278 11.8661 15.3406 11.9832C15.4535 12.1002 15.5165 12.2565 15.5165 12.4191C15.5165 12.5817 15.4535 12.738 15.3406 12.8551C15.2278 12.9722 15.0731 13.0409 14.9106 13.047Z" fill="#D80000"/>
</svg>
