<svg width="25" height="25" viewBox="0 0 25 25" fill="none" xmlns="http://www.w3.org/2000/svg">
<path d="M17.1704 21.5471H7.0405C6.44124 21.5471 5.87653 21.4895 5.36946 21.3743C5.1044 21.3397 4.78174 21.2474 4.44753 21.1207C2.91479 20.5445 1.10547 19.127 1.10547 15.6005V9.66548C1.10547 5.89701 3.27204 3.73047 7.0405 3.73047H17.1704C20.3512 3.73047 22.4025 5.25165 22.9557 8.01749C23.0594 8.52457 23.1055 9.06621 23.1055 9.66548V15.6005C23.1055 19.3921 20.9504 21.5471 17.1704 21.5471ZM7.05201 5.48219C4.21701 5.48219 2.84562 6.85355 2.84562 9.68855V15.6236C2.84562 17.6865 3.57168 18.9542 5.05831 19.5188C5.28881 19.5995 5.50777 19.6571 5.71522 19.6917C6.15314 19.7839 6.57951 19.83 7.05201 19.83H17.1819C20.017 19.83 21.3883 18.4586 21.3883 15.6236V9.68855C21.3883 9.20452 21.3538 8.77811 21.2731 8.38628C20.8813 6.42714 19.5444 5.48219 17.1819 5.48219H7.05201Z" fill="#3D444F"/>
<path d="M4.93164 9.37751C4.93164 8.90501 5.32347 8.51318 5.79597 8.51318H10.8667C11.3393 8.51318 11.731 8.90501 11.731 9.37751C11.731 9.85001 11.3393 10.2418 10.8667 10.2418H5.79597C5.32347 10.2418 4.93164 9.86154 4.93164 9.37751Z" fill="#3D444F"/>
<path d="M4.93164 13.2956C4.93164 12.7727 5.59309 12.3391 6.39074 12.3391H14.9508C15.7485 12.3391 16.4099 12.7727 16.4099 13.2956C16.4099 13.8186 15.7485 14.2522 14.9508 14.2522H6.39074C5.59309 14.2522 4.93164 13.8313 4.93164 13.2956Z" fill="#3D444F"/>
</svg>
