<svg width="25" height="25" viewBox="0 0 25 25" fill="none" xmlns="http://www.w3.org/2000/svg">
<g clip-path="url(#clip0_9437_7095)">
<path d="M9.99189 23.7305C9.87356 23.7314 9.75669 23.7042 9.65085 23.6513C9.54501 23.5984 9.45319 23.5212 9.3829 23.426L8.35776 22.0557C8.26633 21.9241 8.14716 21.814 8.00863 21.7334C7.8701 21.6527 7.71557 21.6034 7.55593 21.5889C7.39487 21.5844 7.23482 21.6157 7.08736 21.6807C6.93991 21.7456 6.80874 21.8425 6.70334 21.9644C5.23162 23.5376 4.11514 23.4057 3.57719 23.2027C3.03925 22.9997 2.10547 22.2892 2.10547 20.0359V8.60722C2.10547 4.1007 3.40465 2.73047 7.65743 2.73047H15.3205C19.5733 2.73047 20.8725 4.1007 20.8725 8.60722V12.931C20.8725 13.1329 20.7923 13.3266 20.6495 13.4693C20.5068 13.6121 20.3132 13.6923 20.1113 13.6923C19.9094 13.6923 19.7158 13.6121 19.573 13.4693C19.4302 13.3266 19.35 13.1329 19.35 12.931V8.60722C19.35 4.94313 18.7106 4.25294 15.3205 4.25294H7.65743C4.26738 4.25294 3.62794 4.94313 3.62794 8.60722V20.0359C3.62794 21.1017 3.89184 21.6904 4.13543 21.7817C4.31813 21.8528 4.81547 21.7513 5.58686 20.9291C5.84468 20.6441 6.16191 20.4191 6.51616 20.27C6.87042 20.1209 7.25307 20.0514 7.63713 20.0664C8.0193 20.0929 8.391 20.203 8.72597 20.3889C9.06094 20.5748 9.35102 20.832 9.57574 21.1423L10.611 22.5125C10.671 22.5925 10.7146 22.6835 10.7395 22.7803C10.7643 22.8771 10.7698 22.9779 10.7556 23.0769C10.7415 23.1758 10.708 23.2711 10.6571 23.3571C10.6061 23.4431 10.5388 23.5182 10.4588 23.5782C10.3238 23.6782 10.1599 23.7316 9.99189 23.7305Z" fill="#3D444F"/>
<path d="M15.5339 9.32789H7.41407C7.21218 9.32789 7.01855 9.24769 6.87579 9.10493C6.73303 8.96217 6.65283 8.76855 6.65283 8.56666C6.65283 8.36476 6.73303 8.17114 6.87579 8.02838C7.01855 7.88562 7.21218 7.80542 7.41407 7.80542H15.5339C15.7358 7.80542 15.9295 7.88562 16.0722 8.02838C16.215 8.17114 16.2952 8.36476 16.2952 8.56666C16.2952 8.76855 16.215 8.96217 16.0722 9.10493C15.9295 9.24769 15.7358 9.32789 15.5339 9.32789Z" fill="#3D444F"/>
<path d="M14.5186 13.3877H8.42872C8.22683 13.3877 8.0332 13.3075 7.89044 13.1647C7.74768 13.022 7.66748 12.8284 7.66748 12.6265C7.66748 12.4246 7.74768 12.231 7.89044 12.0882C8.0332 11.9454 8.22683 11.8652 8.42872 11.8652H14.5186C14.7205 11.8652 14.9141 11.9454 15.0569 12.0882C15.1997 12.231 15.2799 12.4246 15.2799 12.6265C15.2799 12.8284 15.1997 13.022 15.0569 13.1647C14.9141 13.3075 14.7205 13.3877 14.5186 13.3877Z" fill="#3D444F"/>
<path d="M18.0358 17.5227H15.3268C15.2808 17.5252 15.2347 17.5184 15.1915 17.5025C15.1482 17.4866 15.1087 17.4621 15.0752 17.4304C15.0417 17.3987 15.0151 17.3606 14.9969 17.3182C14.9787 17.2759 14.9692 17.2303 14.9692 17.1842C14.9692 17.1381 14.9787 17.0925 14.9969 17.0502C15.0151 17.0079 15.0417 16.9697 15.0752 16.938C15.1087 16.9064 15.1482 16.8818 15.1915 16.866C15.2347 16.8501 15.2808 16.8432 15.3268 16.8457H18.0358C18.1223 16.8505 18.2038 16.8882 18.2634 16.9512C18.323 17.0141 18.3562 17.0975 18.3562 17.1842C18.3562 17.2709 18.323 17.3543 18.2634 17.4173C18.2038 17.4802 18.1223 17.518 18.0358 17.5227Z" fill="#3D444F" stroke="#3D444F" stroke-width="0.6"/>
<path d="M20.7629 19.8026C20.4392 19.8081 20.1251 19.6927 19.882 19.4789C19.6389 19.265 19.4843 18.9682 19.4485 18.6465C19.4308 18.4616 19.455 18.2752 19.5191 18.1009C19.5832 17.9266 19.6857 17.769 19.819 17.6396C19.9344 17.5224 20.0722 17.4296 20.2243 17.3668C20.3763 17.304 20.5395 17.2725 20.704 17.2742H21.648C21.8582 17.2772 22.0588 17.3625 22.2067 17.5119C22.3545 17.6613 22.4378 17.8628 22.4386 18.073V19.0028C22.4387 19.2108 22.3576 19.4107 22.2126 19.5598C22.0676 19.709 21.8701 19.7957 21.6621 19.8015L20.7629 19.8026ZM21.6348 17.9512H20.7091C20.6336 17.9501 20.5586 17.9643 20.4888 17.9931C20.419 18.0219 20.3558 18.0646 20.3031 18.1187C20.2398 18.1784 20.1911 18.2518 20.1606 18.3332C20.1302 18.4147 20.1189 18.5021 20.1275 18.5886C20.1493 18.7406 20.2262 18.8792 20.3435 18.9782C20.4609 19.0772 20.6105 19.1296 20.7639 19.1256H21.6489C21.6798 19.1237 21.7088 19.11 21.7298 19.0873C21.7508 19.0646 21.7622 19.0347 21.7616 19.0038V18.0741C21.7614 18.0576 21.7578 18.0413 21.7513 18.0262C21.7447 18.0111 21.7351 17.9974 21.7233 17.986C21.7114 17.9746 21.6973 17.9656 21.682 17.9597C21.6666 17.9537 21.6502 17.9508 21.6337 17.9512H21.6348Z" fill="#3D444F" stroke="#3D444F" stroke-width="0.6"/>
<path d="M18.3758 22.7154H14.3159C13.9696 22.7356 13.623 22.6824 13.2989 22.559C12.9747 22.4357 12.6803 22.2451 12.4351 21.9999C12.1898 21.7547 11.9993 21.4603 11.8759 21.1361C11.7526 20.8119 11.6993 20.4653 11.7195 20.1191V16.9584C11.6831 16.3309 11.8908 15.7136 12.299 15.2356C12.7072 14.7576 13.2843 14.4559 13.9098 14.3936C14.0442 14.3733 14.1799 14.3627 14.3159 14.3621H18.3758C18.5072 14.3612 18.6385 14.3704 18.7686 14.3895C19.3972 14.4487 19.9783 14.7496 20.3893 15.2288C20.8004 15.708 21.0093 16.3282 20.9721 16.9584V17.6131C20.9716 17.7029 20.9357 17.7888 20.8722 17.8522C20.8088 17.9157 20.7228 17.9516 20.6331 17.9521H19.6942C19.6187 17.951 19.5438 17.9652 19.474 17.994C19.4042 18.0228 19.341 18.0655 19.2882 18.1196C19.2271 18.1787 19.18 18.2508 19.1503 18.3306C19.1206 18.4103 19.1091 18.4957 19.1167 18.5804C19.1385 18.7323 19.2154 18.871 19.3327 18.9699C19.4501 19.0689 19.5997 19.1214 19.7531 19.1173H20.6382C20.7279 19.1178 20.8138 19.1537 20.8773 19.2172C20.9407 19.2807 20.9766 19.3666 20.9772 19.4563V20.111C20.9983 20.4583 20.9455 20.8061 20.8223 21.1314C20.6991 21.4568 20.5083 21.7523 20.2624 21.9985C20.0166 22.2446 19.7213 22.4358 19.396 22.5594C19.0708 22.683 18.7231 22.7362 18.3758 22.7154ZM14.3159 15.0391C14.2103 15.0397 14.1048 15.0471 14.0002 15.0614C13.5379 15.1046 13.1111 15.3274 12.8114 15.6819C12.5117 16.0365 12.3631 16.4945 12.3975 16.9574V20.1181C12.3798 20.3747 12.4173 20.6322 12.5075 20.8731C12.5977 21.114 12.7384 21.3327 12.9203 21.5146C13.1022 21.6965 13.321 21.8373 13.5619 21.9275C13.8028 22.0177 14.0602 22.0552 14.3168 22.0374H18.3768C18.6334 22.0552 18.8908 22.0177 19.1318 21.9275C19.3727 21.8373 19.5914 21.6965 19.7733 21.5146C19.9552 21.3327 20.096 21.114 20.1862 20.8731C20.2764 20.6322 20.3139 20.3747 20.2961 20.1181V19.8024H19.75C19.4264 19.808 19.1123 19.6925 18.8692 19.4787C18.6261 19.2649 18.4715 18.9681 18.4357 18.6464C18.4217 18.4721 18.4438 18.2968 18.5007 18.1315C18.5576 17.9662 18.648 17.8143 18.7662 17.6855C18.8844 17.5567 19.028 17.4537 19.1878 17.3829C19.3477 17.3121 19.5204 17.2751 19.6952 17.2741H20.2961V16.9584C20.3315 16.4913 20.1805 16.0292 19.8762 15.673C19.572 15.3168 19.1391 15.0955 18.6722 15.0574C18.5734 15.0427 18.4735 15.0366 18.3737 15.0391H14.3159Z" fill="#3D444F" stroke="#3D444F" stroke-width="0.6"/>
</g>
<defs>
<clipPath id="clip0_9437_7095">
<rect width="20.6366" height="21" fill="white" transform="translate(2.10547 2.73047)"/>
</clipPath>
</defs>
</svg>
