<svg width="24" height="25" viewBox="0 0 24 25" fill="none" xmlns="http://www.w3.org/2000/svg">
<path d="M14.93 23.2305H9.07C3.77 23.2305 1.5 20.9645 1.5 15.6605V9.80047C1.5 4.50047 3.766 2.23047 9.07 2.23047H14.93C20.23 2.23047 22.5 4.49647 22.5 9.80047V15.6605C22.5 20.9645 20.234 23.2305 14.93 23.2305ZM9.07 3.69547C4.57 3.69547 2.97 5.29547 2.97 9.79547V15.6555C2.97 20.1555 4.57 21.7555 9.07 21.7555H14.93C19.43 21.7555 21.03 20.1555 21.03 15.6555V9.80047C21.03 5.30047 19.43 3.70047 14.93 3.70047L9.07 3.69547Z" fill="#3D444F"/>
<path d="M15.8711 20.2305H8.12906C7.63867 20.2877 7.1417 20.2332 6.67538 20.071C6.20906 19.9089 5.78548 19.6433 5.43637 19.2942C5.08727 18.9451 4.82169 18.5215 4.65954 18.0552C4.49739 17.5889 4.44286 17.0919 4.50006 16.6015V8.85952C4.44286 8.36914 4.49739 7.87217 4.65954 7.40585C4.82169 6.93953 5.08727 6.51595 5.43637 6.16684C5.78548 5.81774 6.20906 5.55216 6.67538 5.39001C7.1417 5.22786 7.63867 5.17333 8.12906 5.23052H15.8711C16.3614 5.17333 16.8584 5.22786 17.3247 5.39001C17.7911 5.55216 18.2146 5.81774 18.5637 6.16684C18.9128 6.51595 19.1784 6.93953 19.3406 7.40585C19.5027 7.87217 19.5572 8.36914 19.5001 8.85952V16.6015C19.5572 17.0919 19.5027 17.5889 19.3406 18.0552C19.1784 18.5215 18.9128 18.9451 18.5637 19.2942C18.2146 19.6433 17.7911 19.9089 17.3247 20.071C16.8584 20.2332 16.3614 20.2877 15.8711 20.2305ZM8.12906 6.68052C6.60006 6.68052 5.95005 7.33052 5.95005 8.85952V16.6015C5.95005 18.1305 6.59805 18.7785 8.12705 18.7785H15.8691C17.3981 18.7785 18.0461 18.1305 18.0461 16.6015V8.85952C18.0501 7.33052 17.4001 6.68052 15.8711 6.68052H8.12906Z" fill="#3D444F"/>
<path d="M7.73 15.9805H5.25C5.05109 15.9805 4.86032 15.9015 4.71967 15.7608C4.57902 15.6201 4.5 15.4294 4.5 15.2305C4.5 15.0316 4.57902 14.8408 4.71967 14.7001C4.86032 14.5595 5.05109 14.4805 5.25 14.4805H7.73C8.19413 14.4805 8.63925 14.2961 8.96744 13.9679C9.29563 13.6397 9.48 13.1946 9.48 12.7305C9.48 12.2663 9.29563 11.8212 8.96744 11.493C8.63925 11.1648 8.19413 10.9805 7.73 10.9805H5.25C5.05109 10.9805 4.86032 10.9015 4.71967 10.7608C4.57902 10.6201 4.5 10.4294 4.5 10.2305C4.5 10.0316 4.57902 9.84079 4.71967 9.70014C4.86032 9.55949 5.05109 9.48047 5.25 9.48047H7.73C8.59195 9.48047 9.4186 9.82288 10.0281 10.4324C10.6376 11.0419 10.98 11.8685 10.98 12.7305C10.98 13.5924 10.6376 14.4191 10.0281 15.0286C9.4186 15.6381 8.59195 15.9805 7.73 15.9805Z" fill="#3D444F"/>
<path d="M18.75 11.5205H15.75C15.5511 11.5205 15.3603 11.4415 15.2197 11.3008C15.079 11.1602 15 10.9694 15 10.7705C15 10.5716 15.079 10.3808 15.2197 10.2402C15.3603 10.0995 15.5511 10.0205 15.75 10.0205H18.75C18.9489 10.0205 19.1397 10.0995 19.2803 10.2402C19.421 10.3808 19.5 10.5716 19.5 10.7705C19.5 10.9694 19.421 11.1602 19.2803 11.3008C19.1397 11.4415 18.9489 11.5205 18.75 11.5205Z" fill="#3D444F"/>
<path d="M18.75 15.4304H15.75C15.5511 15.4304 15.3603 15.3514 15.2197 15.2107C15.079 15.0701 15 14.8793 15 14.6804C15 14.4815 15.079 14.2907 15.2197 14.1501C15.3603 14.0094 15.5511 13.9304 15.75 13.9304H18.75C18.9489 13.9304 19.1397 14.0094 19.2803 14.1501C19.421 14.2907 19.5 14.4815 19.5 14.6804C19.5 14.8793 19.421 15.0701 19.2803 15.2107C19.1397 15.3514 18.9489 15.4304 18.75 15.4304Z" fill="#3D444F"/>
<path d="M7.37114 13.7305C7.24047 13.729 7.11137 13.7018 6.99114 13.6505C6.87 13.5998 6.7584 13.5288 6.66114 13.4405C6.56801 13.3474 6.49439 13.2367 6.4446 13.1148C6.3948 12.9929 6.36983 12.8622 6.37114 12.7305C6.37502 12.4658 6.47858 12.2123 6.66114 12.0205C6.80295 11.8837 6.98146 11.791 7.17497 11.7537C7.36847 11.7164 7.56865 11.7362 7.75114 11.8105C7.87475 11.8564 7.98722 11.928 8.08114 12.0205C8.26371 12.2123 8.36726 12.4658 8.37114 12.7305C8.37246 12.8622 8.34749 12.9929 8.29769 13.1148C8.24789 13.2367 8.17427 13.3474 8.08114 13.4405C7.98388 13.5288 7.87228 13.5998 7.75114 13.6505C7.63092 13.7018 7.50182 13.729 7.37114 13.7305Z" fill="#3D444F"/>
</svg>
