<svg width="25" height="25" viewBox="0 0 25 25" fill="none" xmlns="http://www.w3.org/2000/svg">
<g clip-path="url(#clip0_9434_7084)">
<path d="M18.1152 2.48047H18.1211L18.3301 2.4873C19.371 2.54559 20.3461 2.97672 21.1035 3.72559C21.9093 4.54211 22.3457 5.61454 22.3457 6.73047V9.15332C22.35 10.0326 22.0575 10.7315 21.5811 11.209C21.1044 11.6864 20.4053 11.9805 19.5254 11.9805H16.1055C15.9716 11.9805 15.8555 11.8643 15.8555 11.7305V4.74023L15.8662 4.51562C15.9172 3.996 16.1446 3.51749 16.5186 3.14355C16.9458 2.71631 17.5094 2.48053 18.1152 2.48047ZM18.1152 2.98047C17.6533 2.98053 17.2062 3.16293 16.8721 3.49707C16.5394 3.82971 16.3555 4.26621 16.3555 4.74023V11.4805H19.5254C20.2008 11.4805 20.7998 11.2841 21.2295 10.8545C21.6591 10.4248 21.8555 9.8258 21.8555 9.15039V6.73047C21.8555 5.73684 21.462 4.79183 20.7617 4.08008L20.7559 4.07422L20.6221 3.94824C19.9364 3.33608 19.0497 2.99138 18.1318 2.98047H18.1152Z" fill="#3D444F" stroke="#3D444F"/>
<path d="M6.11523 2.48047H18.1152C18.2491 2.48047 18.3652 2.59661 18.3652 2.73047C18.3652 2.86433 18.2491 2.98047 18.1152 2.98047C17.1491 2.98049 16.3652 3.76434 16.3652 4.73047V21.7305C16.3652 22.2114 16.1022 22.6383 15.6719 22.8535C15.2384 23.0702 14.7417 23.0246 14.3662 22.7412L14.3652 22.7402L12.6553 21.46L12.6543 21.4609C12.3758 21.2474 12.0231 21.2767 11.7803 21.4453L11.6816 21.5273L10.0127 23.1963C9.76284 23.4314 9.44445 23.5605 9.10547 23.5605C8.76675 23.5605 8.45678 23.4326 8.22363 23.1924L8.21973 23.1875L6.55957 21.5176L6.55859 21.5166C6.29721 21.2555 5.879 21.2177 5.5752 21.4512V21.4502L3.86523 22.7305L3.86426 22.7314C3.48388 23.0185 2.98652 23.0675 2.55859 22.8535C2.12831 22.6383 1.86523 22.2113 1.86523 21.7305V6.73047C1.86523 5.31483 2.26867 4.26844 2.96094 3.57617C3.6532 2.88391 4.69959 2.48047 6.11523 2.48047ZM6.10547 2.98047C4.92789 2.98047 3.96036 3.25261 3.29395 3.91895C2.62752 4.58537 2.35547 5.55282 2.35547 6.73047V21.7305C2.35547 22.1483 2.65329 22.3387 2.73828 22.3896L2.75488 22.3994L2.77148 22.4072C2.945 22.494 3.25998 22.5559 3.55371 22.3301L3.55469 22.3311L5.26465 21.0508L5.26367 21.0498C5.48748 20.8842 5.7538 20.8008 6.01562 20.8008C6.35088 20.8009 6.66763 20.9234 6.90625 21.1689L6.91016 21.1729L8.57031 22.8428L8.57129 22.8438C8.76759 23.04 9.00846 23.0605 9.10547 23.0605C9.20263 23.0605 9.44253 23.0399 9.63867 22.8438L11.3184 21.1641C11.7601 20.7224 12.4585 20.6794 12.9502 21.0566L12.9561 21.0605L14.6562 22.3311L14.6611 22.335C14.9773 22.5649 15.3026 22.4809 15.4727 22.3789C15.5438 22.3362 15.8555 22.147 15.8555 21.7305V4.73047C15.8555 4.3615 15.9453 4.00959 16.0996 3.70898L16.4736 2.98047H6.10547Z" fill="#3D444F" stroke="#3D444F"/>
<path d="M10.416 13.9775C9.9994 14.1461 9.5539 14.232 9.10449 14.2314H9.10352C8.65406 14.232 8.20868 14.1461 7.79199 13.9775L7.10449 13.6992V17.498L7.89062 16.9502L8.96094 16.2031L8.96191 16.2021C8.97993 16.1895 8.99986 16.1793 9.02051 16.1719L9.08594 16.1582C9.12814 16.1549 9.16992 16.1625 9.20801 16.1797L9.2627 16.2129L10.3174 16.9502L11.1035 17.499V13.6992L10.416 13.9775ZM9.10449 7.73047C8.30877 7.73047 7.54505 8.04665 6.98242 8.60938C6.41986 9.17211 6.10352 9.93568 6.10352 10.7314C6.10359 11.527 6.42006 12.2899 6.98242 12.8525C7.54503 13.4152 8.30875 13.7314 9.10449 13.7314C9.80082 13.7314 10.472 13.4894 11.0059 13.0518L11.2256 12.8525C11.7879 12.2899 12.1044 11.5271 12.1045 10.7314C12.1045 9.93565 11.7881 9.17211 11.2256 8.60938C10.663 8.04676 9.90006 7.73058 9.10449 7.73047ZM6.60547 13.1875L6.48047 13.0459C6.03509 12.5408 5.74482 11.9179 5.64453 11.252C5.54426 10.5859 5.63808 9.90495 5.91504 9.29102C6.192 8.67714 6.64051 8.15648 7.20605 7.79102C7.77171 7.42554 8.43109 7.2306 9.10449 7.23047C9.77822 7.23017 10.4377 7.42455 11.0039 7.79004C11.57 8.15554 12.0188 8.67676 12.2959 9.29102C12.573 9.90524 12.6669 10.5865 12.5664 11.2529C12.4659 11.9194 12.1746 12.5427 11.7285 13.0479L11.6035 13.1895V17.9795C11.6035 18.0009 11.601 18.0224 11.5957 18.043L11.5723 18.1025C11.5513 18.1399 11.5207 18.171 11.4844 18.1934C11.448 18.2157 11.4062 18.2287 11.3633 18.2305C11.3229 18.232 11.283 18.2227 11.2461 18.2051L11.1846 18.167L9.39062 16.9121L9.10449 16.7119L8.81738 16.9121L6.99805 18.1836C6.98045 18.1959 6.96146 18.2065 6.94141 18.2139L6.87988 18.2275C6.83758 18.2317 6.79503 18.2249 6.75586 18.208C6.7363 18.1995 6.71779 18.1888 6.70117 18.1758L6.65625 18.1309C6.6316 18.0984 6.61609 18.0603 6.60938 18.0205L6.60547 17.96V13.1875Z" fill="#3D444F" stroke="#3D444F"/>
</g>
<defs>
<clipPath id="clip0_9434_7084">
<rect width="24" height="24" fill="white" transform="translate(0.105469 0.730469)"/>
</clipPath>
</defs>
</svg>
