<svg width="24" height="25" viewBox="0 0 24 25" fill="none" xmlns="http://www.w3.org/2000/svg">
<path d="M11.9998 23.2305C11.6039 23.2212 11.2156 23.1193 10.8661 22.9327C10.5167 22.7462 10.2159 22.4803 9.98784 22.1565L9.00084 20.8375C8.91278 20.7108 8.79802 20.6049 8.66465 20.5273C8.53127 20.4498 8.38251 20.4024 8.22884 20.3885C8.07442 20.3873 7.92149 20.4189 7.78015 20.4811C7.63881 20.5433 7.51226 20.6348 7.40884 20.7495L6.85184 20.2495L7.38884 20.7495C5.98184 22.2495 4.89784 22.1365 4.38084 21.9315C3.86384 21.7265 2.96484 21.0525 2.96484 18.8805V7.88047C2.96484 3.54947 4.21484 2.23047 8.30784 2.23047H15.6918C19.7848 2.23047 21.0348 3.54947 21.0348 7.88547V18.8855C21.0348 21.0445 20.1458 21.7185 19.6188 21.9325C19.0918 22.1465 18.0268 22.2545 16.6108 20.7505C16.5106 20.6293 16.3832 20.5334 16.239 20.4707C16.0948 20.408 15.9378 20.3801 15.7808 20.3895C15.6259 20.4033 15.4758 20.4506 15.341 20.5281C15.2061 20.6056 15.0897 20.7115 14.9998 20.8385L14.0148 22.1565C13.7865 22.4807 13.4852 22.7469 13.1352 22.9334C12.7852 23.1199 12.3963 23.2217 11.9998 23.2305ZM8.17084 18.9135H8.29784C8.66567 18.9389 9.02342 19.0448 9.34585 19.2236C9.66827 19.4025 9.94751 19.6499 10.1638 19.9485L11.1508 21.2675C11.2389 21.4128 11.3629 21.5329 11.5109 21.6163C11.6589 21.6997 11.826 21.7435 11.9958 21.7435C12.1657 21.7435 12.3328 21.6997 12.4808 21.6163C12.6288 21.5329 12.7528 21.4128 12.8408 21.2675L13.8278 19.9485C14.0418 19.6456 14.3216 19.3952 14.6463 19.216C14.9709 19.0368 15.3319 18.9334 15.7022 18.9137C16.0725 18.894 16.4424 18.9584 16.7842 19.1021C17.1261 19.2458 17.4309 19.4651 17.6758 19.7435C18.4178 20.5345 18.8968 20.6325 19.0758 20.5635C19.3098 20.4635 19.5638 19.8995 19.5638 18.8835V7.88347C19.5638 4.35747 18.9488 3.69347 15.6858 3.69347H8.30784C5.04584 3.69347 4.42984 4.35747 4.42984 7.88347V18.8835C4.42984 19.9095 4.68384 20.4755 4.91784 20.5635C5.08384 20.6315 5.57184 20.5345 6.31784 19.7435C6.55524 19.4879 6.84163 19.2827 7.15997 19.1401C7.47832 18.9975 7.8221 18.9204 8.17084 18.9135Z" fill="#3D444F"/>
<path d="M16.1321 12.4865H10.7601C10.6616 12.4901 10.5634 12.4739 10.4714 12.4387C10.3793 12.4035 10.2953 12.3502 10.2244 12.2818C10.1534 12.2134 10.097 12.1314 10.0584 12.0407C10.0199 11.9501 10 11.8525 10 11.754C10 11.6555 10.0199 11.5579 10.0584 11.4672C10.097 11.3766 10.1534 11.2946 10.2244 11.2262C10.2953 11.1578 10.3793 11.1045 10.4714 11.0693C10.5634 11.0341 10.6616 11.0179 10.7601 11.0215H16.1321C16.3217 11.0285 16.5011 11.1087 16.6328 11.2453C16.7644 11.382 16.838 11.5643 16.838 11.754C16.838 11.9437 16.7644 12.126 16.6328 12.2626C16.5011 12.3992 16.3217 12.4795 16.1321 12.4865Z" fill="#3D444F"/>
<path d="M16.1321 8.57951H10.7601C10.6616 8.58315 10.5634 8.5669 10.4714 8.53173C10.3793 8.49656 10.2953 8.44318 10.2244 8.37481C10.1534 8.30643 10.097 8.22445 10.0584 8.13376C10.0199 8.04308 10 7.94555 10 7.84701C10 7.74848 10.0199 7.65095 10.0584 7.56027C10.097 7.46958 10.1534 7.3876 10.2244 7.31922C10.2953 7.25084 10.3793 7.19747 10.4714 7.1623C10.5634 7.12713 10.6616 7.11087 10.7601 7.11451H16.1321C16.3217 7.12152 16.5011 7.20176 16.6328 7.33836C16.7644 7.47497 16.838 7.6573 16.838 7.84701C16.838 8.03673 16.7644 8.21906 16.6328 8.35566C16.5011 8.49227 16.3217 8.57251 16.1321 8.57951Z" fill="#3D444F"/>
<path d="M7.87739 8.82339C7.68416 8.82339 7.49527 8.76609 7.3346 8.65873C7.17393 8.55138 7.04871 8.39879 6.97476 8.22027C6.90081 8.04174 6.88147 7.8453 6.91916 7.65578C6.95686 7.46626 7.04991 7.29218 7.18655 7.15554C7.32318 7.01891 7.49727 6.92586 7.68679 6.88816C7.87631 6.85046 8.07275 6.86981 8.25127 6.94375C8.4298 7.0177 8.58238 7.14293 8.68974 7.30359C8.79709 7.46426 8.85439 7.65315 8.85439 7.84639C8.8536 8.10526 8.75041 8.3533 8.56736 8.53635C8.38431 8.71941 8.13626 8.82259 7.87739 8.82339Z" fill="#3D444F"/>
<path d="M7.87739 12.7304C7.68416 12.7304 7.49527 12.6731 7.3346 12.5657C7.17393 12.4584 7.04871 12.3058 6.97476 12.1272C6.90081 11.9487 6.88147 11.7523 6.91916 11.5628C6.95686 11.3732 7.04991 11.1992 7.18655 11.0625C7.32318 10.9259 7.49727 10.8328 7.68679 10.7951C7.87631 10.7574 8.07275 10.7768 8.25127 10.8507C8.4298 10.9247 8.58238 11.0499 8.68974 11.2106C8.79709 11.3712 8.85439 11.5601 8.85439 11.7534C8.8536 12.0122 8.75041 12.2603 8.56736 12.4433C8.38431 12.6264 8.13626 12.7296 7.87739 12.7304Z" fill="#3D444F"/>
</svg>
