<svg width="25" height="25" viewBox="0 0 25 25" fill="none" xmlns="http://www.w3.org/2000/svg">
<path d="M15.7779 3.42215C13.2796 3.64534 11.2044 5.83135 11.0616 8.32057C10.8975 11.1814 11.1187 14.2096 11.0148 17.0954C11.0085 17.2705 10.9746 17.4437 10.9114 17.6073C9.76878 20.5672 5.3942 19.7319 5.73527 16.2897C5.8245 15.3883 6.64352 14.4734 7.49549 14.2041C8.15839 13.9945 8.93348 14.1965 9.35201 13.5334C9.94039 12.6008 9.3473 11.3709 8.18801 11.3758C4.22903 11.3929 1.79394 15.9667 3.72832 19.3944C5.94924 23.33 11.8428 22.7946 13.4132 18.5836C13.8925 17.2982 13.7484 13.7089 13.7585 12.1713C13.7719 10.1355 13.0529 6.76137 15.7312 6.1226C18.6511 5.42596 20.3411 9.41769 17.817 10.9555C16.9164 11.5043 14.9633 11.3474 15.1975 12.8148C15.5168 14.8139 17.9111 13.9566 19.0671 13.3043C22.4802 11.378 22.6001 6.52289 19.4111 4.31589C18.3526 3.58356 17.0595 3.30781 15.7779 3.42215Z" fill="#3D444F"/>
</svg>
