<svg width="25" height="25" viewBox="0 0 25 25" fill="none" xmlns="http://www.w3.org/2000/svg">
<path d="M12.3848 13.7305C12.9371 13.7305 13.3848 13.2828 13.3848 12.7305C13.3848 12.1782 12.9371 11.7305 12.3848 11.7305C11.8325 11.7305 11.3848 12.1782 11.3848 12.7305C11.3848 13.2828 11.8325 13.7305 12.3848 13.7305Z" stroke="#3D444F" stroke-width="2" stroke-linecap="round" stroke-linejoin="round"/>
<path d="M12.3848 6.73047C12.9371 6.73047 13.3848 6.28275 13.3848 5.73047C13.3848 5.17818 12.9371 4.73047 12.3848 4.73047C11.8325 4.73047 11.3848 5.17818 11.3848 5.73047C11.3848 6.28275 11.8325 6.73047 12.3848 6.73047Z" stroke="#3D444F" stroke-width="2" stroke-linecap="round" stroke-linejoin="round"/>
<path d="M12.3848 20.7305C12.9371 20.7305 13.3848 20.2828 13.3848 19.7305C13.3848 19.1782 12.9371 18.7305 12.3848 18.7305C11.8325 18.7305 11.3848 19.1782 11.3848 19.7305C11.3848 20.2828 11.8325 20.7305 12.3848 20.7305Z" stroke="#3D444F" stroke-width="2" stroke-linecap="round" stroke-linejoin="round"/>
</svg>
