<svg width="24" height="25" viewBox="0 0 24 25" fill="none" xmlns="http://www.w3.org/2000/svg">
<path d="M11.8546 16.18C11.6164 16.1806 11.3877 16.0867 11.2186 15.919L8.14659 12.878C8.0639 12.7953 7.99829 12.6972 7.95354 12.5892C7.90878 12.4812 7.88574 12.3654 7.88574 12.2485C7.88574 12.1316 7.90878 12.0158 7.95354 11.9078C7.99829 11.7998 8.0639 11.7017 8.14659 11.619C8.31685 11.4533 8.54503 11.3606 8.78259 11.3606C9.02015 11.3606 9.24833 11.4533 9.41859 11.619L11.8546 14.028L14.2906 11.617C14.4609 11.4513 14.689 11.3586 14.9266 11.3586C15.1641 11.3586 15.3923 11.4513 15.5626 11.617C15.6453 11.6997 15.7109 11.7978 15.7556 11.9058C15.8004 12.0138 15.8234 12.1296 15.8234 12.2465C15.8234 12.3634 15.8004 12.4792 15.7556 12.5872C15.7109 12.6952 15.6453 12.7933 15.5626 12.876L12.4906 15.917C12.3218 16.0855 12.0931 16.1801 11.8546 16.18Z" fill="#3D444F"/>
<path d="M11.8561 16.0961C11.6189 16.0961 11.3913 16.0025 11.2228 15.8357C11.0543 15.6688 10.9584 15.4422 10.9561 15.2051V3.12607C10.9561 2.88738 11.0509 2.65846 11.2197 2.48968C11.3884 2.3209 11.6174 2.22607 11.8561 2.22607C12.0947 2.22607 12.3237 2.3209 12.4925 2.48968C12.6612 2.65846 12.7561 2.88738 12.7561 3.12607V15.2061C12.7534 15.443 12.6574 15.6694 12.4889 15.836C12.3204 16.0026 12.093 16.0961 11.8561 16.0961Z" fill="#3D444F"/>
<path d="M12 23.2351C5.82 23.2351 1.5 18.9591 1.5 12.8421C1.5 12.6034 1.59482 12.3745 1.7636 12.2057C1.93239 12.037 2.16131 11.9421 2.4 11.9421C2.6387 11.9421 2.86761 12.037 3.0364 12.2057C3.20518 12.3745 3.3 12.6034 3.3 12.8421C3.25241 13.9933 3.44558 15.1417 3.86715 16.2139C4.28872 17.2861 4.92942 18.2586 5.74827 19.069C6.56712 19.8795 7.54609 20.5102 8.62259 20.9207C9.69909 21.3312 10.8494 21.5126 12 21.4531C13.1506 21.5126 14.3009 21.3312 15.3774 20.9207C16.4539 20.5102 17.4329 19.8795 18.2517 19.069C19.0706 18.2586 19.7113 17.2861 20.1329 16.2139C20.5544 15.1417 20.7476 13.9933 20.7 12.8421C20.7 12.6034 20.7948 12.3745 20.9636 12.2057C21.1324 12.037 21.3613 11.9421 21.6 11.9421C21.8387 11.9421 22.0676 12.037 22.2364 12.2057C22.4052 12.3745 22.5 12.6034 22.5 12.8421C22.5 18.9591 18.18 23.2351 12 23.2351Z" fill="#3D444F"/>
</svg>
