<svg width="24" height="25" viewBox="0 0 24 25" fill="none" xmlns="http://www.w3.org/2000/svg">
<path d="M15.2642 23.2298H6.61016C3.66016 23.2298 3.66016 21.6218 3.66016 20.3298V19.5558C3.66569 19.1943 3.8138 18.8496 4.07226 18.5968C4.33072 18.3439 4.6786 18.2034 5.04016 18.2058H16.8402C17.2007 18.205 17.547 18.3462 17.8042 18.5989C18.0613 18.8516 18.2086 19.1954 18.2142 19.5558V20.3288C18.2142 21.6228 18.2142 23.2298 15.2642 23.2298ZM5.04016 19.3648C5.01423 19.3639 4.98838 19.3682 4.96415 19.3775C4.93992 19.3868 4.91781 19.4008 4.89914 19.4188C4.88047 19.4368 4.86562 19.4584 4.85549 19.4823C4.84535 19.5062 4.84014 19.5319 4.84016 19.5578V20.3308C4.84016 21.5988 4.84016 22.0698 6.61016 22.0698H15.2642C17.0342 22.0698 17.0342 21.5978 17.0342 20.3308V19.5558C17.0342 19.5299 17.029 19.5042 17.0188 19.4803C17.0087 19.4564 16.9938 19.4349 16.9752 19.4168C16.9565 19.3988 16.9344 19.3848 16.9102 19.3755C16.8859 19.3662 16.8601 19.3619 16.8342 19.3628L5.04016 19.3648Z" fill="#3D444F"/>
<path d="M9.81131 3.32842L19.5828 12.9005C19.637 12.954 19.6801 13.0177 19.7094 13.0879C19.7388 13.1582 19.7539 13.2336 19.7538 13.3097C19.7537 13.3859 19.7385 13.4612 19.709 13.5314C19.6796 13.6016 19.6364 13.6653 19.5821 13.7186L18.5031 14.7765C17.0912 16.1457 15.2017 16.9115 13.2349 16.9116C11.2681 16.9118 9.37854 16.1462 7.96646 14.7772L7.9007 14.7114C7.21192 14.0397 6.66453 13.237 6.29079 12.3505C5.91704 11.464 5.7245 10.5116 5.7245 9.54954C5.7245 8.58747 5.91704 7.63512 6.29079 6.74861C6.66453 5.8621 7.21192 5.05935 7.9007 4.38766L8.97975 3.32983C9.09133 3.22222 9.24023 3.16197 9.39524 3.16171C9.55026 3.16144 9.69936 3.22119 9.81131 3.32842ZM18.3312 13.3092L9.39765 4.55242L8.7358 5.20154C8.15544 5.76669 7.69416 6.44236 7.37916 7.18868C7.06417 7.935 6.90186 8.73685 6.90179 9.54692C6.90172 10.357 7.06391 11.1589 7.37878 11.9052C7.69365 12.6516 8.15482 13.3273 8.73509 13.8926L8.80156 13.9591C9.98959 15.1117 11.5798 15.7564 13.2351 15.7564C14.8904 15.7564 16.4806 15.1117 17.6687 13.9591L18.3312 13.3092Z" fill="#3D444F"/>
<path d="M19.4578 7.68212C18.964 8.15944 18.304 8.42602 17.6173 8.42549C16.9306 8.42496 16.271 8.15737 15.778 7.67929C15.5371 7.44451 15.3457 7.1639 15.215 6.85398C15.0843 6.54406 15.017 6.21111 15.017 5.87476C15.017 5.5384 15.0843 5.20546 15.215 4.89554C15.3457 4.58562 15.5371 4.305 15.778 4.07022C16.2718 3.59452 16.9308 3.32875 17.6164 3.32875C18.3021 3.32875 18.9611 3.59452 19.4549 4.07022C19.6959 4.30513 19.8875 4.58587 20.0184 4.89591C20.1492 5.20595 20.2168 5.53904 20.2171 5.87557C20.2173 6.21211 20.1503 6.5453 20.0199 6.85555C19.8895 7.16579 19.6984 7.44683 19.4578 7.68212ZM16.601 4.88198C16.4681 5.01031 16.3624 5.16411 16.2902 5.33419C16.218 5.50427 16.1808 5.68715 16.1808 5.87193C16.1808 6.0567 16.218 6.23958 16.2902 6.40966C16.3624 6.57975 16.4681 6.73354 16.601 6.86188C16.8716 7.12507 17.2345 7.27186 17.6119 7.2708C17.9894 7.26974 18.3515 7.12093 18.6205 6.85622C18.7535 6.72788 18.8592 6.57409 18.9314 6.40401C19.0036 6.23393 19.0408 6.05105 19.0408 5.86627C19.0408 5.6815 19.0036 5.49861 18.9314 5.32853C18.8592 5.15845 18.7535 5.00466 18.6205 4.87632C18.3496 4.6163 17.9882 4.47163 17.6127 4.47282C17.2371 4.474 16.8767 4.62095 16.6074 4.88269L16.601 4.88198Z" fill="#3D444F"/>
<path d="M16.5564 6.91621C16.6105 6.96706 16.6539 7.02813 16.6842 7.09587C16.7144 7.16362 16.731 7.2367 16.7328 7.31089C16.7347 7.38507 16.7218 7.45888 16.6949 7.52805C16.668 7.59722 16.6277 7.66036 16.5762 7.71383L15.0234 9.23411C14.9112 9.33643 14.7639 9.39148 14.6121 9.3878C14.4604 9.38411 14.3159 9.32196 14.2088 9.21431C14.1547 9.1634 14.1113 9.10226 14.081 9.03442C14.0507 8.96658 14.0342 8.89341 14.0324 8.81914C14.0306 8.74487 14.0436 8.67099 14.0706 8.60178C14.0976 8.53257 14.1381 8.46942 14.1897 8.41599L15.7425 6.89571C15.8547 6.79369 16.002 6.73889 16.1536 6.74271C16.3052 6.74652 16.4495 6.80867 16.5564 6.91621Z" fill="#3D444F"/>
<path d="M9.72145 15.4958C9.85474 15.5789 9.95583 15.7049 10.0082 15.853C10.0605 16.0011 10.0609 16.1626 10.0094 16.311L8.83113 18.7519C8.79492 18.8136 8.74551 18.8665 8.68644 18.9069C8.62737 18.9472 8.56009 18.974 8.48944 18.9853C8.4188 18.9966 8.34652 18.9922 8.2778 18.9723C8.20908 18.9523 8.14562 18.9175 8.09197 18.8701C7.95894 18.7869 7.8581 18.661 7.80595 18.513C7.75379 18.365 7.75341 18.2037 7.80486 18.0554L8.98165 15.6172C9.01758 15.5551 9.06681 15.5018 9.12581 15.4611C9.18481 15.4203 9.25211 15.3932 9.32286 15.3816C9.39361 15.37 9.46605 15.3742 9.53497 15.3939C9.6039 15.4137 9.66758 15.4485 9.72145 15.4958Z" fill="#3D444F"/>
<path d="M10.1474 15.4937C10.0142 15.5772 9.91327 15.7034 9.86128 15.8518C9.80929 16.0002 9.80929 16.1618 9.86127 16.3101L11.0396 18.751C11.0759 18.8123 11.1253 18.8649 11.1843 18.9049C11.2433 18.945 11.3103 18.9715 11.3807 18.9827C11.4511 18.9939 11.5231 18.9894 11.5916 18.9696C11.6601 18.9498 11.7233 18.9151 11.7769 18.868C11.9099 18.7848 12.0107 18.6589 12.0629 18.5109C12.115 18.3629 12.1154 18.2016 12.064 18.0533L10.8872 15.6151C10.8513 15.553 10.802 15.4997 10.743 15.459C10.684 15.4182 10.6167 15.3911 10.546 15.3795C10.4752 15.3679 10.4028 15.3721 10.3339 15.3919C10.2649 15.4116 10.2012 15.4464 10.1474 15.4937Z" fill="#3D444F"/>
</svg>
