<svg width="24" height="25" viewBox="0 0 24 25" fill="none" xmlns="http://www.w3.org/2000/svg">
<path d="M14.7799 23.2299H8.98786C3.74586 23.2299 1.50586 20.9899 1.50586 15.7479V9.95588C1.50586 4.71388 3.74586 2.47388 8.98786 2.47388H10.9189C11.1109 2.47388 11.295 2.55016 11.4308 2.68593C11.5666 2.82171 11.6429 3.00586 11.6429 3.19788C11.6429 3.38989 11.5666 3.57405 11.4308 3.70982C11.295 3.8456 11.1109 3.92188 10.9189 3.92188H8.98786C4.53686 3.92388 2.95586 5.50488 2.95586 9.95588V15.7479C2.95586 20.1989 4.53886 21.7819 8.98986 21.7819H14.7819C19.2329 21.7819 20.8159 20.1989 20.8159 15.7479V13.8179C20.8159 13.6259 20.8921 13.4417 21.0279 13.3059C21.1637 13.1702 21.3478 13.0939 21.5399 13.0939C21.7319 13.0939 21.916 13.1702 22.0518 13.3059C22.1876 13.4417 22.2639 13.6259 22.2639 13.8179V15.7489C22.2619 20.9909 20.0229 23.2299 14.7799 23.2299Z" fill="#3D444F"/>
<path d="M8.50506 18.346C8.19271 18.3564 7.88207 18.2958 7.59647 18.169C7.31088 18.0421 7.05776 17.8521 6.85613 17.6133C6.6545 17.3745 6.50962 17.0932 6.43235 16.7903C6.35509 16.4875 6.34747 16.1711 6.41006 15.865L6.82506 12.959C6.93902 12.3303 7.23049 11.7473 7.66506 11.279L15.2721 3.67195C17.1931 1.75095 19.1431 1.75095 21.0641 3.67195C21.5277 4.06338 21.8971 4.55445 22.1445 5.10853C22.3919 5.66261 22.5111 6.2654 22.4931 6.87195C22.3373 7.87604 21.8311 8.79254 21.0641 9.45895L13.4571 17.066C12.9887 17.5005 12.4057 17.792 11.7771 17.906L8.87106 18.321C8.75041 18.3432 8.62761 18.3516 8.50506 18.346ZM16.2961 4.69495L8.68806 12.302C8.47439 12.5479 8.32525 12.8431 8.25406 13.161L7.83906 16.067C7.80436 16.181 7.80131 16.3024 7.83024 16.4181C7.85917 16.5337 7.91899 16.6394 8.00331 16.7237C8.08762 16.808 8.19326 16.8678 8.30894 16.8968C8.42461 16.9257 8.54598 16.9226 8.66006 16.888L11.5661 16.473C11.8847 16.4038 12.1804 16.2544 12.4251 16.039L20.0321 8.43295C20.5515 7.99481 20.9046 7.39144 21.0321 6.72395C21.0245 6.33194 20.9311 5.94635 20.7583 5.59439C20.5855 5.24243 20.3376 4.93266 20.0321 4.68695C18.4871 3.13995 17.4251 3.57495 16.2961 4.69495Z" fill="#3D444F"/>
<path d="M19.4616 10.757C19.3961 10.7576 19.331 10.7478 19.2686 10.728C18.0139 10.3708 16.8713 9.69915 15.9488 8.77673C15.0264 7.85431 14.3548 6.71165 13.9976 5.45701C13.9459 5.27139 13.9694 5.07288 14.0629 4.90445C14.1565 4.73601 14.3127 4.6112 14.4976 4.55701C14.5887 4.53131 14.684 4.52387 14.778 4.53511C14.8721 4.54636 14.9629 4.57606 15.0454 4.62252C15.1279 4.66898 15.2005 4.73128 15.2588 4.80584C15.3172 4.8804 15.3603 4.96576 15.3856 5.05701C15.6745 6.07278 16.2181 6.99791 16.9649 7.74467C17.7117 8.49142 18.6368 9.03505 19.6526 9.32401C19.8381 9.37728 19.9949 9.50194 20.0886 9.67065C20.1823 9.83937 20.2053 10.0384 20.1526 10.224C20.1132 10.3771 20.0238 10.5127 19.8986 10.6092C19.7734 10.7058 19.6196 10.7578 19.4616 10.757Z" fill="#3D444F"/>
</svg>
