<svg width="24" height="25" viewBox="0 0 24 25" fill="none" xmlns="http://www.w3.org/2000/svg">
<path d="M14.726 20.3026H9.34003C9.10016 20.3247 8.85829 20.2989 8.62845 20.2268C8.3986 20.1547 8.18535 20.0377 8.00103 19.8826C7.86965 19.731 7.77202 19.5532 7.71461 19.361C7.6572 19.1687 7.64132 18.9665 7.66803 18.7676V17.8976C6.46242 17.1067 5.46282 16.0396 4.7522 14.785C4.04157 13.5304 3.64042 12.1244 3.58203 10.6836C3.58258 9.41127 3.8701 8.15541 4.42316 7.00953C4.97623 5.86365 5.78062 4.85726 6.77645 4.06526C7.77227 3.27327 8.9339 2.71607 10.1749 2.43514C11.4158 2.1542 12.7042 2.15677 13.944 2.44264C15.1504 2.70769 16.283 3.23715 17.26 3.99284C18.2371 4.74853 19.0342 5.71161 19.594 6.81264C20.4896 8.73502 20.6608 10.9161 20.0761 12.9547C19.4915 14.9932 18.1903 16.7521 16.412 17.9076V18.6406C16.4371 18.8581 16.4161 19.0784 16.3505 19.2872C16.2849 19.496 16.176 19.6887 16.031 19.8526C15.854 20.0102 15.6476 20.131 15.4236 20.2083C15.1996 20.2855 14.9625 20.3176 14.726 20.3026ZM9.12603 18.8266C9.17503 18.8266 9.24303 18.8366 9.33103 18.8366H14.731C14.7999 18.8379 14.8687 18.8312 14.936 18.8166V17.4876C14.9363 17.3619 14.9687 17.2383 15.0304 17.1287C15.092 17.0191 15.1807 16.9272 15.288 16.8616C16.8649 15.9426 18.0433 14.4695 18.5936 12.7293C19.1439 10.989 19.0268 9.10625 18.265 7.44764C17.8039 6.54218 17.1472 5.75061 16.3424 5.13022C15.5377 4.50984 14.605 4.07618 13.612 3.86064C12.5777 3.62459 11.5033 3.62501 10.4692 3.86187C9.43497 4.09874 8.46756 4.56593 7.63903 5.22864C6.82202 5.88332 6.16309 6.71374 5.71123 7.65815C5.25936 8.60257 5.02618 9.63669 5.02903 10.6836C5.09433 11.9421 5.46932 13.165 6.1207 14.2438C6.77208 15.3226 7.67971 16.2239 8.76303 16.8676C8.87102 16.9324 8.96027 17.0242 9.02199 17.134C9.08371 17.2438 9.11578 17.3677 9.11503 17.4936V18.8136C9.12503 18.8166 9.12603 18.8166 9.12603 18.8266Z" fill="#3D444F"/>
<path d="M15.4401 23.2346C15.3707 23.2346 15.3017 23.2248 15.2351 23.2056C13.1305 22.5996 10.8977 22.5996 8.79309 23.2056C8.60522 23.2573 8.40459 23.2329 8.23452 23.1379C8.06444 23.0428 7.93857 22.8847 7.88409 22.6976C7.85758 22.6046 7.8497 22.5072 7.8609 22.4112C7.8721 22.3151 7.90216 22.2221 7.94935 22.1377C7.99655 22.0532 8.05995 21.9789 8.13593 21.919C8.2119 21.8591 8.29896 21.8148 8.39209 21.7886C10.7596 21.1141 13.2685 21.1141 15.6361 21.7886C15.8237 21.8422 15.9825 21.9679 16.0777 22.1383C16.173 22.3086 16.1968 22.5098 16.1441 22.6976C16.1035 22.8529 16.0121 22.9901 15.8846 23.0874C15.757 23.1847 15.6005 23.2365 15.4401 23.2346Z" fill="#3D444F"/>
</svg>
