<svg width="25" height="25" viewBox="0 0 25 25" fill="none" xmlns="http://www.w3.org/2000/svg">
<path d="M12.3848 23.4805C6.45477 23.4805 1.63477 18.6605 1.63477 12.7305C1.63477 6.80047 6.45477 1.98047 12.3848 1.98047C18.3148 1.98047 23.1348 6.80047 23.1348 12.7305C23.1348 13.1405 22.7948 13.4805 22.3848 13.4805C21.9748 13.4805 21.6348 13.1405 21.6348 12.7305C21.6348 7.63047 17.4848 3.48047 12.3848 3.48047C7.28477 3.48047 3.13477 7.63047 3.13477 12.7305C3.13477 17.8305 7.28477 21.9805 12.3848 21.9805C12.7948 21.9805 13.1348 22.3205 13.1348 22.7305C13.1348 23.1405 12.7948 23.4805 12.3848 23.4805Z" fill="#3D444F"/>
<path d="M9.38501 22.4805H8.38501C7.97501 22.4805 7.63501 22.1405 7.63501 21.7305C7.63501 21.3205 7.955 20.9905 8.365 20.9805C6.795 15.6205 6.795 9.84047 8.365 4.48047C7.965 4.47047 7.63501 4.14047 7.63501 3.73047C7.63501 3.32047 7.97501 2.98047 8.38501 2.98047H9.38501C9.62501 2.98047 9.85501 3.10047 9.99501 3.29047C10.135 3.49047 10.175 3.74046 10.095 3.97046C8.21502 9.62046 8.21502 15.8505 10.095 21.5005C10.175 21.7305 10.135 21.9805 9.99501 22.1805C9.85501 22.3805 9.62501 22.4805 9.38501 22.4805Z" fill="#3D444F"/>
<path d="M16.8443 13.4804C16.4343 13.4804 16.0943 13.1404 16.0943 12.7304C16.0943 9.75043 15.6142 6.80042 14.6742 3.97043C14.5442 3.58043 14.7542 3.15041 15.1442 3.02041C15.5342 2.89041 15.9643 3.10044 16.0943 3.49044C17.0843 6.47044 17.5943 9.58043 17.5943 12.7304C17.5943 13.1404 17.2543 13.4804 16.8443 13.4804Z" fill="#3D444F"/>
<path d="M12.3848 17.9405C9.58477 17.9405 6.81477 17.5405 4.13477 16.7505C4.12477 17.1505 3.79477 17.4805 3.38477 17.4805C2.97477 17.4805 2.63477 17.1405 2.63477 16.7305V15.7305C2.63477 15.4905 2.75477 15.2605 2.94477 15.1205C3.13477 14.9805 3.39478 14.9405 3.62478 15.0205C6.45478 15.9605 9.40477 16.4405 12.3848 16.4405C12.7948 16.4405 13.1348 16.7805 13.1348 17.1905C13.1348 17.6005 12.7948 17.9405 12.3848 17.9405Z" fill="#3D444F"/>
<path d="M21.3855 10.4806C21.3055 10.4806 21.2255 10.4706 21.1455 10.4406C15.4955 8.56062 9.26543 8.56062 3.61543 10.4406C3.22543 10.5706 2.79543 10.3606 2.66543 9.97059C2.53543 9.58059 2.74543 9.15058 3.13543 9.02058C9.09543 7.03058 15.6555 7.03058 21.6055 9.02058C21.9955 9.15058 22.2055 9.58059 22.0755 9.97059C21.9955 10.2806 21.6955 10.4806 21.3855 10.4806Z" fill="#3D444F"/>
<path d="M16.2053 23.4805C15.8253 23.4805 15.4653 23.3405 15.2053 23.0805C14.8953 22.7705 14.7553 22.3205 14.8253 21.8505L15.0153 20.5005C15.0653 20.1505 15.2752 19.7305 15.5252 19.4805L19.0652 15.9405C19.5452 15.4605 20.0152 15.2105 20.5252 15.1605C21.1552 15.1005 21.7653 15.3605 22.3453 15.9405C22.9253 16.5205 23.1853 17.1305 23.1253 17.7605C23.0753 18.2605 22.8153 18.7405 22.3453 19.2205L18.8052 22.7605C18.5552 23.0105 18.1453 23.2205 17.7953 23.2705L16.4452 23.4605C16.3552 23.4705 16.2853 23.4805 16.2053 23.4805ZM20.6952 16.6505C20.6852 16.6505 20.6752 16.6505 20.6652 16.6505C20.5252 16.6605 20.3353 16.7805 20.1253 17.0005L16.5852 20.5405C16.5552 20.5705 16.5052 20.6705 16.5052 20.7105L16.3253 21.9605L17.5753 21.7805C17.6153 21.7705 17.7153 21.7205 17.7453 21.6905L21.2852 18.1505C21.4952 17.9405 21.6252 17.7505 21.6353 17.6105C21.6553 17.4105 21.4552 17.1705 21.2852 17.0005C21.1252 16.8405 20.8952 16.6505 20.6952 16.6505Z" fill="#3D444F"/>
<path d="M21.3053 19.9504C21.2353 19.9504 21.1653 19.9404 21.1053 19.9204C19.7853 19.5504 18.7353 18.5004 18.3653 17.1804C18.2553 16.7804 18.4853 16.3704 18.8853 16.2604C19.2853 16.1504 19.6953 16.3804 19.8153 16.7804C20.0453 17.6004 20.6953 18.2504 21.5153 18.4804C21.9153 18.5904 22.1453 19.0104 22.0353 19.4004C21.9353 19.7304 21.6353 19.9504 21.3053 19.9504Z" fill="#3D444F"/>
</svg>
