<svg width="24" height="25" viewBox="0 0 24 25" fill="none" xmlns="http://www.w3.org/2000/svg">
<path d="M16.884 21.735H7.116C3.55 21.735 1.5 19.684 1.5 16.115V9.28104C1.5 5.71504 3.55 3.66504 7.116 3.66504H16.883C20.45 3.66504 22.5 5.71504 22.5 9.28104V16.115C22.5 19.684 20.45 21.735 16.884 21.735ZM7.116 5.13004C4.323 5.13004 2.965 6.48804 2.965 9.28104V16.115C2.965 18.908 4.323 20.266 7.116 20.266H16.883C19.676 20.266 21.034 18.908 21.034 16.115V9.28104C21.034 6.48804 19.676 5.13004 16.883 5.13004H7.116Z" fill="#3D444F"/>
<path d="M11.999 13.549C11.1713 13.5598 10.3647 13.2874 9.713 12.777L6.656 10.336C6.579 10.2771 6.51452 10.2034 6.46632 10.1193C6.41812 10.0351 6.38716 9.94223 6.37526 9.84599C6.36336 9.74976 6.37075 9.65212 6.397 9.55877C6.42325 9.46542 6.46783 9.37824 6.52815 9.30231C6.58846 9.22639 6.6633 9.16324 6.74829 9.11656C6.83328 9.06987 6.92672 9.04059 7.02315 9.03042C7.11959 9.02024 7.21708 9.02938 7.30994 9.05731C7.4028 9.08523 7.48917 9.13137 7.564 9.19304L10.621 11.635C11.0197 11.9255 11.5002 12.0819 11.9935 12.0819C12.4868 12.0819 12.9673 11.9255 13.366 11.635L16.423 9.19304C16.5746 9.07237 16.7679 9.01685 16.9604 9.03869C17.1529 9.06054 17.3288 9.15797 17.4495 9.30954C17.5702 9.46111 17.6257 9.65441 17.6038 9.84692C17.582 10.0394 17.4846 10.2154 17.333 10.336L14.276 12.778C13.6284 13.2894 12.8241 13.5618 11.999 13.549Z" fill="#3D444F"/>
</svg>
