<svg width="24" height="25" viewBox="0 0 24 25" fill="none" xmlns="http://www.w3.org/2000/svg">
<path d="M16.8845 21.7305H7.11649C3.55149 21.7305 1.50049 19.6875 1.50049 16.1355V9.32547C1.50049 5.77347 3.55049 3.73047 7.11649 3.73047H16.8835C20.4485 3.73047 22.4995 5.77347 22.4995 9.32547V16.1365C22.5005 19.6875 20.4505 21.7305 16.8845 21.7305ZM7.11649 5.18947C4.32349 5.18947 2.96549 6.54147 2.96549 9.32447V16.1355C2.96549 18.9185 4.32349 20.2705 7.11649 20.2705H16.8835C19.6765 20.2705 21.0345 18.9185 21.0345 16.1355V9.32547C21.0345 6.54247 19.6765 5.19047 16.8835 5.19047L7.11649 5.18947Z" fill="#3D444F"/>
<path d="M12.0006 13.5774C11.1733 13.5884 10.367 13.3171 9.71457 12.8084L6.65757 10.3764C6.58132 10.3174 6.51756 10.2437 6.47002 10.1598C6.42248 10.0758 6.3921 9.98325 6.38064 9.88746C6.36918 9.79167 6.37688 9.69456 6.40328 9.60177C6.42968 9.50898 6.47426 9.42236 6.53443 9.34695C6.5946 9.27154 6.66916 9.20884 6.75377 9.1625C6.83838 9.11616 6.93136 9.08709 7.0273 9.077C7.12325 9.0669 7.22024 9.07597 7.31265 9.10369C7.40505 9.13141 7.49103 9.17722 7.56557 9.23845L10.6226 11.6704C11.0217 11.9599 11.5021 12.1157 11.9951 12.1157C12.4881 12.1157 12.9685 11.9599 13.3676 11.6704L16.4246 9.23845C16.5755 9.11778 16.7681 9.06199 16.9602 9.08337C17.1522 9.10475 17.3279 9.20154 17.4486 9.35245C17.5692 9.50336 17.625 9.69602 17.6037 9.88806C17.5823 10.0801 17.4855 10.2558 17.3346 10.3764L14.2776 12.8084C13.6293 13.3186 12.8253 13.5901 12.0006 13.5774Z" fill="#3D444F"/>
</svg>
