<svg width="25" height="25" viewBox="0 0 25 25" fill="none" xmlns="http://www.w3.org/2000/svg">
<g clip-path="url(#clip0_9497_8152)">
<path d="M11.1348 23.2305C5.20477 23.2305 0.384766 18.4105 0.384766 12.4805C0.384766 6.55047 5.20477 1.73047 11.1348 1.73047C17.0648 1.73047 21.8848 6.55047 21.8848 12.4805C21.8848 12.8905 21.5448 13.2305 21.1348 13.2305C20.7248 13.2305 20.3848 12.8905 20.3848 12.4805C20.3848 7.38047 16.2348 3.23047 11.1348 3.23047C6.03477 3.23047 1.88477 7.38047 1.88477 12.4805C1.88477 17.5805 6.03477 21.7305 11.1348 21.7305C11.5448 21.7305 11.8848 22.0705 11.8848 22.4805C11.8848 22.8905 11.5448 23.2305 11.1348 23.2305Z" fill="#3D444F"/>
<path d="M8.13306 22.2305H7.13306C6.72306 22.2305 6.38306 21.8905 6.38306 21.4805C6.38306 21.0705 6.70305 20.7405 7.11305 20.7305C5.54305 15.3705 5.54305 9.59047 7.11305 4.23047C6.71305 4.22047 6.38306 3.89047 6.38306 3.48047C6.38306 3.07047 6.72306 2.73047 7.13306 2.73047H8.13306C8.37306 2.73047 8.60306 2.85047 8.74306 3.04047C8.88306 3.24047 8.92307 3.49046 8.84307 3.72046C6.96307 9.37046 6.96307 15.6005 8.84307 21.2505C8.92307 21.4805 8.88306 21.7305 8.74306 21.9305C8.60306 22.1305 8.37306 22.2305 8.13306 22.2305Z" fill="#3D444F"/>
<path d="M15.5933 13.2309C15.1833 13.2309 14.8433 12.8909 14.8433 12.4809C14.8433 9.50092 14.3632 6.55091 13.4232 3.72092C13.2932 3.33092 13.5032 2.9009 13.8932 2.7709C14.2832 2.6409 14.7133 2.85093 14.8433 3.24093C15.8333 6.22093 16.3433 9.33092 16.3433 12.4809C16.3433 12.8909 16.0033 13.2309 15.5933 13.2309Z" fill="#3D444F"/>
<path d="M11.1348 17.6912C8.33477 17.6912 5.56477 17.2912 2.88477 16.5012C2.87477 16.9012 2.54477 17.2312 2.13477 17.2312C1.72477 17.2312 1.38477 16.8912 1.38477 16.4812V15.4812C1.38477 15.2412 1.50477 15.0112 1.69477 14.8712C1.88477 14.7312 2.14478 14.6912 2.37478 14.7712C5.20478 15.7112 8.15477 16.1912 11.1348 16.1912C11.5448 16.1912 11.8848 16.5312 11.8848 16.9412C11.8848 17.3512 11.5448 17.6912 11.1348 17.6912Z" fill="#3D444F"/>
<path d="M20.1355 10.2299C20.0555 10.2299 19.9755 10.2199 19.8955 10.1899C14.2455 8.30988 8.01543 8.30988 2.36543 10.1899C1.97543 10.3199 1.54543 10.1099 1.41543 9.71985C1.28543 9.32985 1.49543 8.89984 1.88543 8.76984C7.84543 6.77984 14.4055 6.77984 20.3555 8.76984C20.7455 8.89984 20.9555 9.32985 20.8255 9.71985C20.7455 10.0299 20.4455 10.2299 20.1355 10.2299Z" fill="#3D444F"/>
<path d="M18.8848 23.9805C17.2248 23.9805 15.6648 23.1005 14.8248 21.6705C14.3748 20.9505 14.1348 20.1005 14.1348 19.2305C14.1348 18.0805 14.5548 16.9705 15.3248 16.1005C16.2248 15.0705 17.5248 14.4805 18.8848 14.4805C21.5048 14.4805 23.6348 16.6105 23.6348 19.2305C23.6348 20.1005 23.3948 20.9505 22.9448 21.6805C22.6948 22.1005 22.3748 22.4805 21.9948 22.8005C21.1648 23.5605 20.0548 23.9805 18.8848 23.9805ZM18.8848 15.9805C17.9548 15.9805 17.0648 16.3805 16.4448 17.0905C15.9248 17.6905 15.6348 18.4505 15.6348 19.2305C15.6348 19.8205 15.7948 20.4005 16.1048 20.9005C16.6848 21.8805 17.7548 22.4805 18.8848 22.4805C19.6748 22.4805 20.4348 22.1905 21.0148 21.6705C21.2748 21.4505 21.4948 21.1905 21.6548 20.9105C21.9748 20.4005 22.1348 19.8205 22.1348 19.2305C22.1348 17.4405 20.6748 15.9805 18.8848 15.9805Z" fill="#3D444F"/>
<path d="M19.9532 21.0195C19.7632 21.0195 19.5732 20.9496 19.4232 20.7996L17.3132 18.6896C17.0232 18.3996 17.0232 17.9196 17.3132 17.6296C17.6032 17.3396 18.0832 17.3396 18.3732 17.6296L20.4832 19.7396C20.7732 20.0296 20.7732 20.5096 20.4832 20.7996C20.3332 20.9496 20.1432 21.0195 19.9532 21.0195Z" fill="#3D444F"/>
<path d="M17.8159 21.0509C17.6259 21.0509 17.4359 20.9809 17.2859 20.8309C16.9959 20.5409 16.9959 20.0609 17.2859 19.7709L19.3959 17.6609C19.6859 17.3709 20.1659 17.3709 20.4559 17.6609C20.7459 17.9509 20.7459 18.4309 20.4559 18.7209L18.3459 20.8309C18.1959 20.9809 18.0059 21.0509 17.8159 21.0509Z" fill="#3D444F"/>
</g>
<defs>
<clipPath id="clip0_9497_8152">
<rect width="24" height="24" fill="white" transform="translate(0.384766 0.730469)"/>
</clipPath>
</defs>
</svg>
