<svg width="25" height="24" viewBox="0 0 25 24" fill="none" xmlns="http://www.w3.org/2000/svg">
<g clip-path="url(#clip0_9010_13997)">
<path fill-rule="evenodd" clip-rule="evenodd" d="M1.90137 12C1.90137 17.9142 6.73715 22.75 12.6514 22.75C18.5656 22.75 23.4014 17.9142 23.4014 12C23.4014 6.08579 18.5656 1.25 12.6514 1.25C6.73715 1.25 1.90137 6.08579 1.90137 12ZM12.6514 21.25C7.56558 21.25 3.40137 17.0858 3.40137 12C3.40137 6.91421 7.56558 2.75 12.6514 2.75C17.7372 2.75 21.9014 6.91421 21.9014 12C21.9014 17.0858 17.7372 21.25 12.6514 21.25Z" fill="#D80000"/>
<path fill-rule="evenodd" clip-rule="evenodd" d="M12.6514 16.75C13.0656 16.75 13.4014 16.4142 13.4014 16V11C13.4014 10.5858 13.0656 10.25 12.6514 10.25C12.2372 10.25 11.9014 10.5858 11.9014 11V16C11.9014 16.4142 12.2372 16.75 12.6514 16.75Z" fill="#D80000"/>
<path fill-rule="evenodd" clip-rule="evenodd" d="M11.6455 8C11.6455 8.55228 12.0932 9 12.6455 9H12.6545C13.2068 9 13.6545 8.55228 13.6545 8C13.6545 7.44772 13.2068 7 12.6545 7H12.6455C12.0932 7 11.6455 7.44772 11.6455 8Z" fill="#D80000"/>
</g>
<defs>
<clipPath id="clip0_9010_13997">
<rect width="24" height="24" fill="white" transform="translate(0.651367)"/>
</clipPath>
</defs>
</svg>
