<svg width="24" height="24" viewBox="0 0 24 24" fill="none" xmlns="http://www.w3.org/2000/svg">
<path d="M10.4497 3.05006L6.70966 7.71006C5.85966 8.77006 6.15966 10.1301 7.36966 10.7301L11.0997 12.6001C11.5897 12.8401 12.3897 12.8401 12.8797 12.6001L16.6097 10.7301C17.8197 10.1201 18.1197 8.76006 17.2697 7.71006L13.5397 3.05006C12.6997 1.98006 11.2997 1.98006 10.4497 3.05006Z" stroke="#3D444F" stroke-width="1.5" stroke-miterlimit="10" stroke-linecap="round" stroke-linejoin="round"/>
<path d="M12 2.30029V7.56029" stroke="#3D444F" stroke-width="1.5" stroke-miterlimit="10" stroke-linecap="round" stroke-linejoin="round"/>
<path d="M7.7998 10.7101L11.9998 7.56006L16.1998 10.7101" stroke="#3D444F" stroke-width="1.5" stroke-miterlimit="10" stroke-linecap="round" stroke-linejoin="round"/>
<path d="M8.77011 14.4301L10.3801 15.1501C11.4101 15.6101 12.5901 15.6101 13.6301 15.1501L15.2401 14.4301C16.6801 13.7901 18.0101 15.5301 17.0101 16.7501L13.5501 20.9801C12.7001 22.0201 11.3101 22.0201 10.4501 20.9801L7.00011 16.7501C5.99011 15.5301 7.32011 13.7901 8.77011 14.4301Z" stroke="#3D444F" stroke-width="1.5" stroke-miterlimit="10" stroke-linecap="round" stroke-linejoin="round"/>
</svg>
