<svg width="24" height="24" viewBox="0 0 24 24" fill="none" xmlns="http://www.w3.org/2000/svg">
<path d="M5.91016 9.25L7.75016 12M7.75016 12L5.91016 14.75M7.75016 12L9.59016 9.25M7.75016 12L9.59016 14.75" stroke="#3D444F" stroke-width="1.5" stroke-linecap="round" stroke-linejoin="round"/>
<path d="M2.75 8V16C2.75 16.2652 2.85536 16.5196 3.04289 16.7071C3.23043 16.8946 3.48478 17 3.75 17H11.75C12.0152 17 12.2696 16.8946 12.4571 16.7071C12.6446 16.5196 12.75 16.2652 12.75 16V8C12.75 7.73478 12.6446 7.48043 12.4571 7.29289C12.2696 7.10536 12.0152 7 11.75 7H3.75C3.48478 7 3.23043 7.10536 3.04289 7.29289C2.85536 7.48043 2.75 7.73478 2.75 8Z" stroke="#3D444F" stroke-width="1.5" stroke-linecap="round" stroke-linejoin="round"/>
<path d="M6.61523 7V4.25C6.61523 3.71957 6.82595 3.21086 7.20102 2.83579C7.57609 2.46071 8.0848 2.25 8.61523 2.25H19.2502C19.7807 2.25 20.2894 2.46071 20.6644 2.83579C21.0395 3.21086 21.2502 3.71957 21.2502 4.25V19.75C21.2502 20.2804 21.0395 20.7891 20.6644 21.1642C20.2894 21.5393 19.7807 21.75 19.2502 21.75H8.61523C8.0848 21.75 7.57609 21.5393 7.20102 21.1642C6.82595 20.7891 6.61523 20.2804 6.61523 19.75V17" stroke="#3D444F" stroke-width="1.5" stroke-linecap="round" stroke-linejoin="round"/>
</svg>
