<svg width="24" height="25" viewBox="0 0 24 25" fill="none" xmlns="http://www.w3.org/2000/svg">
<path d="M9.25 23.2305C7.19563 23.227 5.22638 22.4094 3.77372 20.9567C2.32106 19.5041 1.50344 17.5348 1.5 15.4805C1.5 15.2816 1.57902 15.0908 1.71967 14.9501C1.86032 14.8095 2.05109 14.7305 2.25 14.7305C2.44891 14.7305 2.63968 14.8095 2.78033 14.9501C2.92098 15.0908 3 15.2816 3 15.4805C3.00119 16.8913 3.47884 18.2604 4.35552 19.3657C5.2322 20.4711 6.45652 21.248 7.83 21.5705L7.56 21.1205C7.45789 20.9494 7.42792 20.7448 7.47668 20.5516C7.52544 20.3585 7.64894 20.1926 7.82 20.0905C7.99107 19.9884 8.19568 19.9584 8.38885 20.0071C8.58201 20.0559 8.74789 20.1794 8.85 20.3505L9.9 22.1005C9.96784 22.2134 10.0045 22.3424 10.0063 22.4741C10.008 22.6059 9.97481 22.7357 9.91 22.8505C9.84157 22.9649 9.74499 23.0599 9.62946 23.1264C9.51393 23.1929 9.3833 23.2287 9.25 23.2305Z" fill="#3D444F"/>
<path d="M21.7602 10.7305C21.5617 10.7292 21.3717 10.6498 21.2314 10.5094C21.091 10.369 21.0116 10.179 21.0102 9.98051C21.0091 8.56969 20.5314 7.20062 19.6547 6.09524C18.778 4.98986 17.5537 4.21297 16.1802 3.89051L16.4502 4.34051C16.5008 4.42522 16.5342 4.51905 16.5485 4.61665C16.5628 4.71425 16.5577 4.81372 16.5336 4.90936C16.5094 5.00501 16.4667 5.09496 16.4078 5.17408C16.3489 5.25321 16.2749 5.31996 16.1902 5.37051C16.1055 5.42107 16.0117 5.45445 15.9141 5.46875C15.8165 5.48305 15.717 5.47798 15.6214 5.45383C15.5258 5.42969 15.4358 5.38695 15.3567 5.32804C15.2775 5.26913 15.2108 5.19522 15.1602 5.11051L14.1102 3.36051C14.0424 3.24755 14.0057 3.11862 14.004 2.98686C14.0022 2.85511 14.0354 2.72524 14.1002 2.61051C14.164 2.49424 14.2582 2.39746 14.3726 2.33054C14.4871 2.26361 14.6176 2.22904 14.7502 2.23051C16.8046 2.23395 18.7739 3.05157 20.2265 4.50423C21.6792 5.9569 22.4968 7.92614 22.5002 9.98051C22.5014 10.0785 22.4832 10.1757 22.4465 10.2666C22.4099 10.3575 22.3556 10.4402 22.2868 10.51C22.2179 10.5797 22.136 10.6351 22.0456 10.673C21.9552 10.7108 21.8582 10.7304 21.7602 10.7305Z" fill="#3D444F"/>
<path d="M13.297 17.2214H11.417C10.7651 17.2093 10.1445 16.9395 9.69095 16.471C9.23743 16.0025 8.98793 15.3734 8.99704 14.7214C8.99704 14.5225 9.07605 14.3317 9.21671 14.1911C9.35736 14.0504 9.54812 13.9714 9.74704 13.9714C9.94595 13.9714 10.1367 14.0504 10.2774 14.1911C10.418 14.3317 10.497 14.5225 10.497 14.7214C10.487 14.9759 10.5782 15.224 10.7506 15.4114C10.923 15.5988 11.1626 15.7103 11.417 15.7214H13.297C13.4932 15.7106 13.6771 15.6224 13.8083 15.4761C13.9395 15.3299 14.0074 15.1376 13.997 14.9414C13.997 14.4014 13.847 14.3214 13.507 14.2014L10.497 13.1514C10.0326 13.0258 9.62747 12.7402 9.35305 12.345C9.07862 11.9499 8.95254 11.4705 8.99704 10.9914C8.98898 10.3981 9.21565 9.82557 9.62769 9.39854C10.0397 8.97152 10.6038 8.72456 11.197 8.71143H13.077C13.729 8.72353 14.3496 8.99334 14.8031 9.46186C15.2566 9.93037 15.5061 10.5594 15.497 11.2114C15.497 11.4103 15.418 11.6011 15.2774 11.7418C15.1367 11.8824 14.9459 11.9614 14.747 11.9614C14.5481 11.9614 14.3574 11.8824 14.2167 11.7418C14.0761 11.6011 13.997 11.4103 13.997 11.2114C14.0071 10.957 13.9159 10.7089 13.7435 10.5215C13.5711 10.3341 13.3314 10.2226 13.077 10.2114H11.197C11.0009 10.2223 10.817 10.3105 10.6858 10.4567C10.5546 10.6029 10.4867 10.7952 10.497 10.9914C10.497 11.5314 10.647 11.6114 10.987 11.7314L13.997 12.7814C14.4615 12.9071 14.8666 13.1926 15.141 13.5878C15.4155 13.983 15.5415 14.4624 15.497 14.9414C15.5067 15.5352 15.2805 16.1086 14.8682 16.536C14.4558 16.9634 13.8908 17.2099 13.297 17.2214Z" fill="#3D444F"/>
<path d="M12.249 18.2195C12.0505 18.2182 11.8605 18.1387 11.7201 17.9984C11.5798 17.858 11.5003 17.668 11.499 17.4695V8.46948C11.499 8.27057 11.578 8.0798 11.7187 7.93915C11.8593 7.7985 12.0501 7.71948 12.249 7.71948C12.4479 7.71948 12.6387 7.7985 12.7794 7.93915C12.92 8.0798 12.999 8.27057 12.999 8.46948V17.4695C12.9977 17.668 12.9183 17.858 12.7779 17.9984C12.6375 18.1387 12.4475 18.2182 12.249 18.2195Z" fill="#3D444F"/>
</svg>
