<svg width="24" height="25" viewBox="0 0 24 25" fill="none" xmlns="http://www.w3.org/2000/svg">
<g clip-path="url(#clip0_9010_14649)">
<path fill-rule="evenodd" clip-rule="evenodd" d="M18.1893 5.48047L10.4697 13.2001C10.1768 13.493 10.1768 13.9679 10.4697 14.2608C10.7626 14.5537 11.2374 14.5537 11.5303 14.2608L19.25 6.54113V9.73047C19.25 10.1447 19.5858 10.4805 20 10.4805C20.4142 10.4805 20.75 10.1447 20.75 9.73047V4.73047C20.75 4.53853 20.6768 4.34659 20.5303 4.20014C20.4584 4.12823 20.3755 4.07398 20.2871 4.03738C20.1987 4.00071 20.1017 3.98047 20 3.98047H15C14.5858 3.98047 14.25 4.31626 14.25 4.73047C14.25 5.14468 14.5858 5.48047 15 5.48047H18.1893ZM4.05546 6.78592C4.57118 6.2702 5.27065 5.98047 6 5.98047H12C12.4142 5.98047 12.75 6.31626 12.75 6.73047C12.75 7.14468 12.4142 7.48047 12 7.48047H6C5.66848 7.48047 5.35054 7.61216 5.11612 7.84659C4.8817 8.08101 4.75 8.39895 4.75 8.73047V18.7305C4.75 19.062 4.8817 19.3799 5.11612 19.6144C5.35054 19.8488 5.66848 19.9805 6 19.9805H16C16.3315 19.9805 16.6495 19.8488 16.8839 19.6144C17.1183 19.3799 17.25 19.062 17.25 18.7305V12.7305C17.25 12.3163 17.5858 11.9805 18 11.9805C18.4142 11.9805 18.75 12.3163 18.75 12.7305V18.7305C18.75 19.4598 18.4603 20.1593 17.9445 20.675C17.4288 21.1907 16.7293 21.4805 16 21.4805H6C5.27065 21.4805 4.57118 21.1907 4.05546 20.675C3.53973 20.1593 3.25 19.4598 3.25 18.7305V8.73047C3.25 8.00112 3.53973 7.30165 4.05546 6.78592Z" fill="#3D444F"/>
</g>
<defs>
<clipPath id="clip0_9010_14649">
<rect width="24" height="24" fill="white" transform="translate(0 0.730469)"/>
</clipPath>
</defs>
</svg>
