<svg width="24" height="25" viewBox="0 0 24 25" fill="none" xmlns="http://www.w3.org/2000/svg">
<path d="M9.46992 15.9799C9.27992 15.9799 9.08992 15.9099 8.93992 15.7599C8.11992 14.9399 7.66992 13.8499 7.66992 12.6999C7.66992 10.3099 9.60992 8.36987 11.9999 8.36987C13.1499 8.36987 14.2399 8.81987 15.0599 9.63987C15.1999 9.77987 15.2799 9.96987 15.2799 10.1699C15.2799 10.3699 15.1999 10.5599 15.0599 10.6999L9.99992 15.7599C9.84992 15.9099 9.65992 15.9799 9.46992 15.9799ZM11.9999 9.86987C10.4399 9.86987 9.16992 11.1399 9.16992 12.6999C9.16992 13.1999 9.29992 13.6799 9.53992 14.0999L13.3999 10.2399C12.9799 9.99987 12.4999 9.86987 11.9999 9.86987Z" fill="#3D444F"/>
<path d="M5.59984 19.2099C5.42984 19.2099 5.24984 19.1499 5.10984 19.0299C4.03984 18.1199 3.07984 16.9999 2.25984 15.6999C1.19984 14.0499 1.19984 11.3599 2.25984 9.69993C4.69984 5.87993 8.24984 3.67993 11.9998 3.67993C14.1998 3.67993 16.3698 4.43993 18.2698 5.86993C18.5998 6.11993 18.6698 6.58993 18.4198 6.91993C18.1698 7.24993 17.6998 7.31993 17.3698 7.06993C15.7298 5.82993 13.8698 5.17993 11.9998 5.17993C8.76984 5.17993 5.67984 7.11993 3.51984 10.5099C2.76984 11.6799 2.76984 13.7199 3.51984 14.8899C4.26984 16.0599 5.12984 17.0699 6.07984 17.8899C6.38984 18.1599 6.42984 18.6299 6.15984 18.9499C6.01984 19.1199 5.80984 19.2099 5.59984 19.2099Z" fill="#3D444F"/>
<path d="M12.0001 21.7199C10.6701 21.7199 9.37006 21.4499 8.12006 20.9199C7.74006 20.7599 7.56006 20.3199 7.72006 19.9399C7.88006 19.5599 8.32006 19.3799 8.70006 19.5399C9.76006 19.9899 10.8701 20.2199 11.9901 20.2199C15.2201 20.2199 18.3101 18.2799 20.4701 14.8899C21.2201 13.7199 21.2201 11.68 20.4701 10.51C20.1601 10.02 19.8201 9.54995 19.4601 9.10995C19.2001 8.78995 19.2501 8.31995 19.5701 8.04995C19.8901 7.78995 20.3601 7.82995 20.6301 8.15995C21.0201 8.63995 21.4001 9.15995 21.7401 9.69995C22.8001 11.3499 22.8001 14.0399 21.7401 15.6999C19.3001 19.5199 15.7501 21.7199 12.0001 21.7199Z" fill="#3D444F"/>
<path d="M12.6901 16.9701C12.3401 16.9701 12.0201 16.7201 11.9501 16.3601C11.8701 15.9501 12.1401 15.5601 12.5501 15.4901C13.6501 15.2901 14.5701 14.3701 14.7701 13.2701C14.8501 12.8601 15.2401 12.6001 15.6501 12.6701C16.0601 12.7501 16.3301 13.1401 16.2501 13.5501C15.9301 15.2801 14.5501 16.6501 12.8301 16.9701C12.7801 16.9601 12.7401 16.9701 12.6901 16.9701Z" fill="#3D444F"/>
<path d="M1.99994 23.4499C1.80994 23.4499 1.61994 23.3799 1.46994 23.2299C1.17994 22.9399 1.17994 22.4599 1.46994 22.1699L8.93994 14.6999C9.22994 14.4099 9.70994 14.4099 9.99994 14.6999C10.2899 14.9899 10.2899 15.4699 9.99994 15.7599L2.52994 23.2299C2.37994 23.3799 2.18994 23.4499 1.99994 23.4499Z" fill="#3D444F"/>
<path d="M14.5302 10.9199C14.3402 10.9199 14.1502 10.8499 14.0002 10.6999C13.7102 10.4099 13.7102 9.92989 14.0002 9.63989L21.4702 2.16989C21.7602 1.87989 22.2402 1.87989 22.5302 2.16989C22.8202 2.45989 22.8202 2.93989 22.5302 3.22989L15.0602 10.6999C14.9102 10.8499 14.7202 10.9199 14.5302 10.9199Z" fill="#3D444F"/>
</svg>
