<svg width="24" height="25" viewBox="0 0 24 25" fill="none" xmlns="http://www.w3.org/2000/svg">
<path d="M11.9999 17.0299C9.60992 17.0299 7.66992 15.0899 7.66992 12.6999C7.66992 10.3099 9.60992 8.36987 11.9999 8.36987C14.3899 8.36987 16.3299 10.3099 16.3299 12.6999C16.3299 15.0899 14.3899 17.0299 11.9999 17.0299ZM11.9999 9.86987C10.4399 9.86987 9.16992 11.1399 9.16992 12.6999C9.16992 14.2599 10.4399 15.5299 11.9999 15.5299C13.5599 15.5299 14.8299 14.2599 14.8299 12.6999C14.8299 11.1399 13.5599 9.86987 11.9999 9.86987Z" fill="#3D444F"/>
<path d="M12.0001 21.7199C8.24008 21.7199 4.69008 19.5199 2.25008 15.6999C1.19008 14.0499 1.19008 11.3599 2.25008 9.69993C4.70008 5.87993 8.25008 3.67993 12.0001 3.67993C15.7501 3.67993 19.3001 5.87993 21.7401 9.69993C22.8001 11.3499 22.8001 14.0399 21.7401 15.6999C19.3001 19.5199 15.7501 21.7199 12.0001 21.7199ZM12.0001 5.17993C8.77008 5.17993 5.68008 7.11993 3.52008 10.5099C2.77008 11.6799 2.77008 13.7199 3.52008 14.8899C5.68008 18.2799 8.77008 20.2199 12.0001 20.2199C15.2301 20.2199 18.3201 18.2799 20.4801 14.8899C21.2301 13.7199 21.2301 11.6799 20.4801 10.5099C18.3201 7.11993 15.2301 5.17993 12.0001 5.17993Z" fill="#3D444F"/>
</svg>
