<svg width="19" height="19" viewBox="0 0 19 19" fill="none" xmlns="http://www.w3.org/2000/svg">
<path d="M6.96191 2.98047H6.81191C5.5518 2.98047 4.92174 2.98047 4.44044 3.2257C4.01707 3.44142 3.67286 3.78563 3.45715 4.20899C3.21191 4.69029 3.21191 5.32035 3.21191 6.58047V6.73047M6.96191 16.4805H6.81191C5.5518 16.4805 4.92174 16.4805 4.44044 16.2352C4.01707 16.0195 3.67286 15.6753 3.45715 15.2519C3.21191 14.7706 3.21191 14.1406 3.21191 12.8805V12.7305M16.7119 6.73047V6.58047C16.7119 5.32035 16.7119 4.69029 16.4667 4.20899C16.251 3.78563 15.9068 3.44142 15.4834 3.2257C15.0021 2.98047 14.372 2.98047 13.1119 2.98047H12.9619M16.7119 12.7305V12.8805C16.7119 14.1406 16.7119 14.7706 16.4667 15.2519C16.251 15.6753 15.9068 16.0195 15.4834 16.2352C15.0021 16.4805 14.372 16.4805 13.1119 16.4805H12.9619M6.58691 6.73047V7.85547M13.3369 6.73047V7.85547M9.21191 10.1805C9.81191 10.1805 10.3369 9.65554 10.3369 9.05554V6.73047M12.3621 12.1304C11.0121 13.4804 8.83706 13.4804 7.48706 12.1304" stroke="#3D444F" stroke-width="1.5" stroke-linecap="round" stroke-linejoin="round"/>
</svg>
