<svg width="24" height="25" viewBox="0 0 24 25" fill="none" xmlns="http://www.w3.org/2000/svg">
<path d="M16.7856 19.5779C16.4763 19.5777 16.1738 19.4858 15.9166 19.3139L14.9786 18.6979C14.8497 18.6114 14.7513 18.4865 14.6974 18.3409C14.6436 18.1953 14.637 18.0364 14.6786 17.8869C14.7498 17.6325 14.7835 17.369 14.7786 17.1049V13.1289C14.8063 12.7819 14.7584 12.433 14.6382 12.1063C14.518 11.7797 14.3283 11.483 14.0822 11.2367C13.8362 10.9905 13.5396 10.8006 13.2131 10.6801C12.8865 10.5596 12.5377 10.5114 12.1906 10.5389H5.55265C5.43565 10.5389 5.32765 10.5489 5.22065 10.5589C5.01591 10.568 4.81583 10.4961 4.66365 10.3589C4.58817 10.2916 4.52817 10.2087 4.48777 10.116C4.44738 10.0233 4.42755 9.92297 4.42965 9.82187V7.11887C4.40008 6.46955 4.50616 5.82119 4.74112 5.21514C4.97608 4.60909 5.33476 4.05866 5.79428 3.59895C6.25381 3.13924 6.80409 2.78033 7.41004 2.54513C8.01599 2.30992 8.66431 2.20358 9.31365 2.23287H17.6136C18.2631 2.20329 18.9117 2.30942 19.5179 2.5445C20.1241 2.77958 20.6746 3.13844 21.1343 3.59818C21.5941 4.05793 21.9529 4.60846 22.188 5.21464C22.4231 5.82083 22.5292 6.46937 22.4996 7.11887V12.1029C22.5209 12.7519 22.4117 13.3986 22.1785 14.0046C21.9452 14.6106 21.5926 15.1636 21.1416 15.6309C20.3851 16.37 19.4007 16.8314 18.3486 16.9399V18.0249C18.3489 18.3097 18.2719 18.5893 18.1257 18.8337C17.9795 19.0782 17.7697 19.2783 17.5186 19.4129C17.2889 19.5195 17.0389 19.5757 16.7856 19.5779ZM16.1996 17.7409L16.8346 18.1029C16.8517 18.0952 16.8663 18.0829 16.8768 18.0673C16.8872 18.0518 16.893 18.0336 16.8936 18.0149V16.2459C16.895 16.0519 16.9726 15.8662 17.1098 15.729C17.247 15.5918 17.4326 15.5142 17.6266 15.5129C18.0829 15.533 18.5385 15.4613 18.9664 15.3018C19.3943 15.1424 19.7858 14.8986 20.1176 14.5849C20.4325 14.2536 20.677 13.8621 20.8365 13.4338C20.996 13.0055 21.0671 12.5494 21.0456 12.0929V7.10887C21.0783 6.65144 21.0123 6.19232 20.8521 5.76263C20.6918 5.33294 20.4411 4.94272 20.1169 4.61839C19.7926 4.29406 19.4025 4.04322 18.9728 3.88284C18.5432 3.72247 18.0841 3.65632 17.6266 3.68887H9.32665C8.8692 3.65632 8.41011 3.72247 7.98046 3.88284C7.55082 4.04322 7.16067 4.29406 6.83643 4.61839C6.5122 4.94272 6.26147 5.33294 6.10122 5.76263C5.94098 6.19232 5.87496 6.65144 5.90765 7.10887V9.06387H12.1976C12.7365 9.0397 13.2745 9.12806 13.7773 9.32332C14.2801 9.51858 14.7367 9.81645 15.118 10.198C15.4993 10.5795 15.797 11.0362 15.992 11.5391C16.187 12.042 16.2751 12.58 16.2506 13.1189V17.0959C16.2386 17.3209 16.2286 17.5359 16.1996 17.7409Z" fill="#3D444F"/>
<path d="M6.20777 23.233C6.0243 23.2338 5.8425 23.198 5.67301 23.1278C5.50351 23.0576 5.3497 22.9543 5.22058 22.8239C5.09145 22.6936 4.98959 22.5388 4.92094 22.3687C4.8523 22.1985 4.81824 22.0164 4.82077 21.833V21.09C3.99709 20.9755 3.23098 20.6026 2.63277 20.025C2.25812 19.6372 1.96487 19.1783 1.77029 18.6755C1.57571 18.1726 1.48373 17.6359 1.49977 17.097V13.119C1.45294 12.1102 1.8028 11.1231 2.47448 10.369C3.14616 9.61494 4.08631 9.15368 5.09377 9.08396C5.24977 9.07396 5.39377 9.06396 5.55277 9.06396H12.1848C12.7236 9.03979 13.2616 9.12815 13.7644 9.32341C14.2672 9.51867 14.7238 9.81654 15.1051 10.198C15.4864 10.5795 15.7841 11.0363 15.9791 11.5392C16.1741 12.0421 16.2622 12.5801 16.2378 13.119V17.096C16.2433 17.4987 16.1908 17.9002 16.0818 18.288C15.8667 19.1446 15.3595 19.8993 14.6475 20.422C13.9355 20.9446 13.0635 21.2025 12.1818 21.151H9.74977L6.98877 22.989C6.76012 23.1495 6.48713 23.2348 6.20777 23.233ZM5.54977 10.53C5.43277 10.53 5.32477 10.54 5.21777 10.55C4.89853 10.5637 4.58538 10.642 4.29721 10.7801C4.00903 10.9181 3.7518 11.1131 3.541 11.3532C3.3302 11.5934 3.1702 11.8737 3.07065 12.1773C2.9711 12.481 2.93407 12.8016 2.96177 13.12V17.097C2.94583 17.4443 2.99955 17.7914 3.11977 18.1177C3.23998 18.444 3.42427 18.743 3.66177 18.997C3.91424 19.2319 4.21092 19.4142 4.53454 19.5333C4.85816 19.6525 5.20224 19.7061 5.54677 19.691C5.74077 19.6923 5.92645 19.7699 6.06363 19.9071C6.20081 20.0443 6.27846 20.23 6.27977 20.424V21.704L9.11877 19.814C9.24022 19.7327 9.38267 19.6886 9.52877 19.687H12.1858C12.7437 19.7363 13.3009 19.5839 13.7562 19.2575C14.2114 18.9311 14.5345 18.4523 14.6668 17.908C14.7391 17.6437 14.7751 17.3709 14.7738 17.097V13.119C14.8015 12.772 14.7536 12.4231 14.6333 12.0964C14.5131 11.7698 14.3234 11.4731 14.0774 11.2268C13.8313 10.9806 13.5348 10.7907 13.2082 10.6702C12.8816 10.5497 12.5328 10.5015 12.1858 10.529L5.54977 10.53Z" fill="#3D444F"/>
</svg>
