<svg width="24" height="25" viewBox="0 0 24 25" fill="none" xmlns="http://www.w3.org/2000/svg">
<path d="M5.26132 23.4409H3.91735C3.6109 23.4412 3.30687 23.3773 3.02637 23.2539C2.74587 23.1305 2.49425 22.95 2.28739 22.7239C2.08971 22.5042 1.9406 22.2458 1.8484 21.965C1.75619 21.6841 1.72347 21.3872 1.7524 21.093L2.15139 16.7302C2.15974 16.0897 2.36814 15.4685 2.74738 14.9523C2.8914 14.8049 3.05126 14.6742 3.22437 14.5623L3.46936 13.3934H3.19137C3.09724 13.3934 3.00334 13.3754 2.91637 13.3394C2.82941 13.3033 2.75094 13.2499 2.68438 13.1834C2.61782 13.1168 2.5644 13.0383 2.52838 12.9514C2.49236 12.8644 2.47438 12.7705 2.47438 12.6764C2.47438 12.4863 2.54995 12.3048 2.68438 12.1704C2.8188 12.036 3.00126 11.9604 3.19137 11.9604H3.76935L4.02435 10.7465C4.11468 10.0941 4.3939 9.4825 4.82733 8.98656C5.13462 8.70244 5.49783 8.48452 5.89331 8.34759C6.28878 8.21065 6.70809 8.15733 7.12528 8.19059H12.1592C12.5754 8.15782 12.9937 8.21166 13.3881 8.34859C13.7825 8.48551 14.1438 8.70292 14.4501 8.98656C14.8826 9.48224 15.1673 10.0897 15.2701 10.7395V10.7465L15.5241 11.9604H16.0751C16.1692 11.9604 16.2621 11.9784 16.3491 12.0144C16.436 12.0504 16.5145 12.1039 16.5811 12.1704C16.6476 12.237 16.701 12.3154 16.7371 12.4024C16.7731 12.4894 16.7911 12.5823 16.7911 12.6764C16.7911 12.7705 16.7731 12.8644 16.7371 12.9514C16.701 13.0383 16.6476 13.1168 16.5811 13.1834C16.5145 13.2499 16.436 13.3033 16.3491 13.3394C16.2621 13.3754 16.1692 13.3934 16.0751 13.3934H15.8261L16.0781 14.5933C16.2315 14.6974 16.3742 14.8171 16.5041 14.9493C16.8814 15.4639 17.0874 16.0831 17.0951 16.7212L17.505 21.09C17.5316 21.3864 17.4959 21.685 17.401 21.967C17.3062 22.249 17.1542 22.5078 16.9541 22.7279C16.7487 22.9512 16.4998 23.13 16.2221 23.2519C15.9443 23.3739 15.6435 23.4368 15.3401 23.4369H13.9961C13.6178 23.4763 13.2377 23.3765 12.9271 23.1569C12.6166 22.9373 12.3962 22.6128 12.3072 22.243L12.2992 22.219V22.205L12.1552 21.776C12.1152 21.632 12.0558 21.4937 11.9782 21.366C11.9659 21.3578 11.8758 21.284 11.4662 21.284H7.79626C7.61965 21.2627 7.44077 21.2964 7.28427 21.381C7.20359 21.5036 7.14258 21.6391 7.10528 21.781L6.96528 22.207C6.89715 22.5577 6.70935 22.874 6.43329 23.1009C6.15724 23.3278 5.81065 23.451 5.45332 23.4499C5.38937 23.4503 5.32493 23.4475 5.26132 23.4409ZM3.83935 15.8713C3.66371 16.1725 3.57326 16.5165 3.57736 16.8652L3.17637 21.224V21.232C3.16631 21.3279 3.17718 21.4244 3.20737 21.516C3.23755 21.6076 3.28625 21.6918 3.35136 21.763C3.42335 21.8408 3.51129 21.9033 3.60836 21.946C3.70543 21.9886 3.81033 22.0106 3.91635 22.011H5.26032C5.34965 22.0144 5.43879 22.0055 5.52531 21.983C5.55561 21.9135 5.58116 21.842 5.60131 21.769L5.74431 21.339C5.83636 20.88 6.09943 20.4727 6.47929 20.1991C6.85915 19.9254 7.32768 19.8061 7.79226 19.8641H11.4592C11.9222 19.8003 12.3925 19.9158 12.7732 20.1871C13.1538 20.4583 13.4162 20.8645 13.5071 21.323V21.337L13.6531 21.775C13.6787 21.8468 13.708 21.9173 13.7411 21.986C13.8245 22.0084 13.9108 22.0174 13.9971 22.014H15.3411C15.4453 22.0155 15.5494 21.9953 15.6451 21.954C15.7408 21.9127 15.8258 21.8519 15.8961 21.775C15.9637 21.7026 16.0158 21.6167 16.0481 21.523C16.0804 21.4293 16.0928 21.3297 16.0841 21.231L15.6741 16.8682C15.6762 16.5209 15.5855 16.1786 15.4111 15.8783C15.2399 15.7473 15.0446 15.6519 14.8361 15.5973C14.6276 15.5426 14.4106 15.5302 14.1971 15.5603H5.05532C4.97965 15.5498 4.90372 15.5447 4.82733 15.5443C4.47071 15.5419 4.12347 15.6557 3.83935 15.8713ZM5.43232 11.0295V11.0355L4.79633 14.0403H14.4951L13.8661 11.0385C13.6552 10.0729 13.4166 9.62053 12.1592 9.62053H7.12528C5.8494 9.62053 5.62585 10.071 5.43232 11.0295ZM11.7752 18.1741C11.5851 18.1741 11.4026 18.0986 11.2682 17.9642C11.1338 17.8297 11.0582 17.6473 11.0582 17.4572C11.0582 17.2671 11.1338 17.0856 11.2682 16.9512C11.4026 16.8168 11.5851 16.7412 11.7752 16.7412H13.9251C14.1152 16.7412 14.2977 16.8168 14.4321 16.9512C14.5665 17.0856 14.6421 17.2671 14.6421 17.4572C14.6421 17.6473 14.5665 17.8297 14.4321 17.9642C14.2977 18.0986 14.1152 18.1741 13.9251 18.1741H11.7752ZM5.33632 18.1741C5.14622 18.1741 4.96375 18.0986 4.82933 17.9642C4.69491 17.8297 4.61933 17.6473 4.61933 17.4572C4.61933 17.2671 4.69491 17.0856 4.82933 16.9512C4.96375 16.8168 5.14622 16.7412 5.33632 16.7412H7.48627C7.67637 16.7412 7.85884 16.8168 7.99326 16.9512C8.12768 17.0856 8.20325 17.2671 8.20325 17.4572C8.20325 17.6473 8.12768 17.8297 7.99326 17.9642C7.85884 18.0986 7.67637 18.1741 7.48627 18.1741H5.33632ZM20.814 10.4815C20.7474 10.3937 20.7018 10.2916 20.681 10.1835C20.6602 10.0754 20.6647 9.96368 20.694 9.85752C20.8596 9.1479 20.8728 8.41178 20.733 7.69661C20.5932 6.98145 20.3037 6.30372 19.883 5.7087C19.4919 5.09232 18.9745 4.5655 18.365 4.16377C17.7555 3.76204 17.0677 3.49417 16.3471 3.37781C16.1589 3.3545 15.988 3.25813 15.8711 3.10882C15.7542 2.95951 15.7005 2.77011 15.7231 2.58184C15.7457 2.39331 15.8429 2.22135 15.9921 2.10386C16.1412 1.98637 16.3305 1.93264 16.5191 1.95487C17.4441 2.09895 18.3276 2.43782 19.112 2.94883C19.8964 3.45983 20.5643 4.13184 21.07 4.91974C21.6054 5.68525 21.9713 6.55553 22.1439 7.47362C22.3166 8.39172 22.2917 9.33577 22.0709 10.2435C22.0293 10.3936 21.9405 10.5267 21.8169 10.6215C21.6933 10.7163 21.5417 10.7682 21.386 10.7695C21.275 10.768 21.1661 10.7413 21.067 10.6915C20.9678 10.6416 20.8814 10.5696 20.814 10.4815ZM17.82 9.68453C17.7541 9.58575 17.7144 9.47182 17.704 9.35354C17.6937 9.23526 17.7134 9.11629 17.761 9.00756C17.8419 8.7531 17.8607 8.48366 17.815 8.22059C17.7694 7.95753 17.6609 7.70899 17.499 7.49662V7.48862C17.3628 7.25741 17.1724 7.0622 16.9451 6.91965C16.7177 6.77709 16.4596 6.69156 16.1921 6.66966C16.0021 6.6724 15.8194 6.59895 15.6831 6.46667C15.5468 6.33439 15.4681 6.15362 15.4651 5.96369C15.4626 5.77394 15.5358 5.59081 15.6681 5.45471C15.8003 5.31862 15.9813 5.24069 16.1711 5.23772C16.6784 5.25352 17.1736 5.39462 17.613 5.64871C18.0524 5.9028 18.4223 6.26183 18.689 6.69366C18.9857 7.10459 19.1763 7.58231 19.244 8.0846C19.3117 8.58689 19.2543 9.09872 19.077 9.57353C19.0213 9.70229 18.9294 9.81171 18.812 9.88852C18.6946 9.96533 18.5563 10.006 18.416 10.0055C18.2977 10.0052 18.1819 9.9752 18.078 9.91852C17.9741 9.86183 17.8853 9.77989 17.821 9.68053L17.82 9.68453Z" fill="#3D444F"/>
</svg>
