<svg width="25" height="25" viewBox="0 0 25 25" fill="none" xmlns="http://www.w3.org/2000/svg">
<path d="M12.1055 22.7305C17.6283 22.7305 22.1055 18.2533 22.1055 12.7305C22.1055 7.20762 17.6283 2.73047 12.1055 2.73047C6.58262 2.73047 2.10547 7.20762 2.10547 12.7305C2.10547 18.2533 6.58262 22.7305 12.1055 22.7305Z" fill="#FCD6B0"/>
<path d="M12.7166 8.70388L13.6338 10.3625C13.7595 10.5902 14.0749 10.8064 14.3343 10.8357L15.8781 11.0297C16.8666 11.1519 17.1215 11.8534 16.4488 12.5882L15.3027 13.833C15.1114 14.0416 15.012 14.4396 15.0889 14.7128L15.4905 16.1783C15.8063 17.3354 15.2057 17.815 14.1501 17.2467L12.6755 16.4526C12.4069 16.3074 11.9803 16.3286 11.728 16.4915L10.3243 17.4001C9.31935 18.0496 8.6799 17.6221 8.9004 16.444L9.18276 14.953C9.23547 14.6743 9.10908 14.2854 8.90047 14.0941L7.65565 12.948C6.92517 12.2727 7.12166 11.5531 8.09506 11.3491L9.61495 11.0316C9.87146 10.9759 10.1687 10.7407 10.2731 10.5015L11.0518 8.7702C11.4706 7.83559 12.2214 7.80621 12.7166 8.70388Z" fill="#F8A754"/>
<path d="M12.9699 8.48529L13.8499 10.2453C13.9699 10.4903 14.2899 10.7253 14.5599 10.7703L16.1549 11.0353C17.1749 11.2053 17.4149 11.9453 16.6799 12.6753L15.4399 13.9153C15.2299 14.1253 15.1149 14.5303 15.1799 14.8203L15.5349 16.3553C15.8149 17.5703 15.1699 18.0403 14.0949 17.4053L12.5999 16.5203C12.3299 16.3603 11.8849 16.3603 11.6099 16.5203L10.1149 17.4053C9.04494 18.0403 8.39493 17.5653 8.67493 16.3553L9.02994 14.8203C9.09493 14.5303 8.97994 14.1253 8.76994 13.9153L7.52993 12.6753C6.79993 11.9453 7.03494 11.2053 8.05494 11.0353L9.64994 10.7703C9.91493 10.7253 10.2349 10.4903 10.3549 10.2453L11.2349 8.48529C11.7149 7.53029 12.4949 7.53029 12.9699 8.48529Z" stroke="#F8A754" stroke-width="0.75" stroke-linecap="round" stroke-linejoin="round"/>
</svg>
