<svg width="25" height="25" viewBox="0 0 25 25" fill="none" xmlns="http://www.w3.org/2000/svg">
<g clip-path="url(#clip0_15006_11480)">
<path d="M11.246 24.4559C11.9218 24.4559 12.968 24.1327 13.9708 22.5037L15.9523 19.3132C16.2208 18.9697 16.6265 18.7447 17.0855 18.7222H17.0893L20.849 18.9119C23.1005 19.0259 23.8888 18.0974 24.17 17.5402C24.4513 16.9829 24.6995 15.7882 23.2355 14.0924L21.0073 11.5304C20.8325 11.2859 20.7283 10.9814 20.7283 10.6522C20.7283 10.5442 20.7395 10.4392 20.7605 10.3372L20.759 10.3469L21.896 6.74091C22.0648 6.38166 22.163 5.96017 22.163 5.51617C22.163 4.75492 21.8735 4.06042 21.3995 3.53842L21.4018 3.54067C20.8813 3.08842 20.1973 2.81242 19.448 2.81242C18.9793 2.81242 18.536 2.92042 18.1415 3.11242L18.1595 3.10492L14.8385 4.18717C14.7343 4.21192 14.615 4.22542 14.492 4.22542C14.2055 4.22542 13.937 4.14892 13.7053 4.01617L13.7128 4.01992L10.244 1.54342C9.70705 1.04092 8.9833 0.732666 8.18755 0.732666C7.7503 0.732666 7.3348 0.825666 6.9598 0.992916L6.9793 0.985416C6.11755 1.51942 5.5528 2.45992 5.5528 3.53242C5.5528 3.68467 5.56405 3.83392 5.5858 3.98017L5.58355 3.96367L5.6623 8.19216C5.6293 8.59642 5.4448 8.95266 5.16655 9.20691L5.16505 9.20766L2.3743 11.3107C1.4773 11.8334 0.883301 12.7912 0.883301 13.8869C0.883301 13.9972 0.889301 14.1067 0.901301 14.2139L0.899801 14.2004C1.0018 14.7914 1.4518 15.8632 3.2758 16.4212L6.91255 17.5477C7.30405 17.7089 7.60705 18.0202 7.7533 18.4072L7.75705 18.4177L8.6233 21.6974C9.1948 23.8507 10.3235 24.3262 10.9535 24.4199C11.0345 24.4409 11.1275 24.4529 11.2235 24.4529C11.231 24.4529 11.2393 24.4529 11.2468 24.4529H11.2453L11.246 24.4559ZM17.051 17.0542C15.9995 17.0812 15.0793 17.6189 14.5258 18.4274L14.519 18.4379L12.5375 21.6172C11.9743 22.5314 11.468 22.8112 11.198 22.7669C10.928 22.7227 10.5343 22.3094 10.2515 21.2812L9.3943 18.0022C9.0928 17.0422 8.36905 16.2944 7.4458 15.9667L3.7828 14.8327C3.08455 14.6212 2.6398 14.2747 2.56705 13.9184C2.4943 13.5622 2.8153 13.0934 3.4003 12.6464L6.1948 10.5479C6.89005 9.97491 7.3378 9.12216 7.36255 8.16441V8.15991L7.2838 3.93142C7.27255 3.18367 7.4533 2.62642 7.7788 2.45842C8.1043 2.29042 8.6563 2.45842 9.2758 2.89417L12.7445 5.36992C13.2425 5.69767 13.8538 5.89267 14.51 5.89267C14.8235 5.89267 15.1265 5.84842 15.413 5.76517L15.3898 5.77117L18.7108 4.68892C19.409 4.46017 19.9678 4.47667 20.231 4.73317C20.4943 4.98967 20.5123 5.54767 20.2985 6.23917L19.1615 9.84291C19.0903 10.0904 19.0498 10.3747 19.0498 10.6687C19.0498 11.4059 19.3078 12.0839 19.7375 12.6157L19.733 12.6097L21.9613 15.1754C22.6708 15.9899 22.7833 16.5592 22.6595 16.7939C22.5358 17.0287 22.007 17.2852 20.9375 17.2297L17.1778 17.0399C17.1425 17.0489 17.102 17.0534 17.06 17.0534C17.057 17.0534 17.054 17.0534 17.0518 17.0534H17.0525L17.051 17.0542Z" fill="#3D444F"/>
<path d="M1.22702 24.7305C1.22777 24.7305 1.22927 24.7305 1.23002 24.7305C1.46177 24.7305 1.67177 24.6367 1.82327 24.4845L5.23502 21.1042C5.38652 20.9527 5.48027 20.7435 5.48027 20.5125C5.48027 20.2815 5.38652 20.0722 5.23502 19.9207C5.08127 19.7707 4.87052 19.6785 4.63877 19.6785C4.40702 19.6785 4.19627 19.7707 4.04177 19.9215L0.630016 23.3017C0.478516 23.4532 0.384766 23.6625 0.384766 23.8935C0.384766 24.3555 0.759016 24.7297 1.22102 24.7297C1.22327 24.7297 1.22477 24.7305 1.22702 24.7305Z" fill="#3D444F"/>
</g>
<defs>
<clipPath id="clip0_15006_11480">
<rect width="24" height="24" fill="white" transform="translate(0.384766 0.730469)"/>
</clipPath>
</defs>
</svg>
