<svg width="24" height="24" viewBox="0 0 24 24" fill="none" xmlns="http://www.w3.org/2000/svg">
<g clip-path="url(#clip0_9871_12696)">
<path d="M10.8613 23.7254C11.537 23.7254 12.5833 23.4022 13.586 21.7732L15.5675 18.5827C15.836 18.2392 16.2418 18.0142 16.7008 17.9917H16.7045L20.4643 18.1814C22.7158 18.2954 23.504 17.3669 23.7853 16.8097C24.0665 16.2524 24.3148 15.0577 22.8508 13.3619L20.6225 10.7999C20.4478 10.5554 20.3435 10.2509 20.3435 9.9217C20.3435 9.8137 20.3548 9.7087 20.3758 9.6067L20.3743 9.61645L21.5113 6.01045C21.68 5.6512 21.7783 5.2297 21.7783 4.7857C21.7783 4.02445 21.4888 3.32995 21.0148 2.80795L21.017 2.8102C20.4965 2.35795 19.8125 2.08195 19.0633 2.08195C18.5945 2.08195 18.1513 2.18995 17.7568 2.38195L17.7748 2.37445L14.4538 3.4567C14.3495 3.48145 14.2303 3.49495 14.1073 3.49495C13.8208 3.49495 13.5523 3.41845 13.3205 3.2857L13.328 3.28945L9.85928 0.812947C9.32228 0.310447 8.59853 0.00219727 7.80278 0.00219727C7.36553 0.00219727 6.95003 0.0951973 6.57503 0.262447L6.59453 0.254947C5.73278 0.788947 5.16803 1.72945 5.16803 2.80195C5.16803 2.9542 5.17928 3.10345 5.20103 3.2497L5.19878 3.2332L5.27753 7.4617C5.24453 7.86595 5.06003 8.2222 4.78178 8.47645L4.78028 8.4772L1.98954 10.5802C1.09254 11.1029 0.498535 12.0607 0.498535 13.1564C0.498535 13.2667 0.504535 13.3762 0.516535 13.4834L0.515035 13.4699C0.617035 14.0609 1.06704 15.1327 2.89103 15.6907L6.52778 16.8172C6.91928 16.9784 7.22228 17.2897 7.36853 17.6767L7.37228 17.6872L8.23853 20.9669C8.81003 23.1202 9.93878 23.5957 10.5688 23.6894C10.6498 23.7104 10.7428 23.7224 10.8388 23.7224C10.8463 23.7224 10.8545 23.7224 10.862 23.7224H10.8605L10.8613 23.7254ZM16.6663 16.3237C15.6148 16.3507 14.6945 16.8884 14.141 17.6969L14.1343 17.7074L12.1528 20.8867C11.5895 21.8009 11.0833 22.0807 10.8133 22.0364C10.5433 21.9922 10.1495 21.5789 9.86678 20.5507L9.00953 17.2717C8.70803 16.3117 7.98428 15.5639 7.06103 15.2362L3.39803 14.1022C2.69978 13.8907 2.25503 13.5442 2.18228 13.1879C2.10953 12.8317 2.43053 12.3629 3.01553 11.9159L5.81003 9.81745C6.50528 9.24445 6.95303 8.3917 6.97778 7.43395V7.42945L6.89903 3.20095C6.88778 2.4532 7.06853 1.89595 7.39403 1.72795C7.71953 1.55995 8.27153 1.72795 8.89103 2.1637L12.3598 4.63945C12.8578 4.9672 13.469 5.1622 14.1253 5.1622C14.4388 5.1622 14.7418 5.11795 15.0283 5.0347L15.005 5.0407L18.326 3.95845C19.0243 3.7297 19.583 3.7462 19.8463 4.0027C20.1095 4.2592 20.1275 4.8172 19.9138 5.5087L18.7768 9.11244C18.7055 9.35995 18.665 9.6442 18.665 9.9382C18.665 10.6754 18.923 11.3534 19.3528 11.8852L19.3483 11.8792L21.5765 14.4449C22.286 15.2594 22.3985 15.8287 22.2748 16.0634C22.151 16.2982 21.6223 16.5547 20.5528 16.4992L16.793 16.3094C16.7578 16.3184 16.7173 16.3229 16.6753 16.3229C16.6723 16.3229 16.6693 16.3229 16.667 16.3229H16.6678L16.6663 16.3237Z" fill="#3D444F"/>
<path d="M0.84225 24C0.843 24 0.8445 24 0.84525 24C1.077 24 1.287 23.9062 1.4385 23.754L4.85025 20.3737C5.00175 20.2222 5.0955 20.013 5.0955 19.782C5.0955 19.551 5.00175 19.3417 4.85025 19.1902C4.6965 19.0402 4.48575 18.948 4.254 18.948C4.02225 18.948 3.8115 19.0402 3.657 19.191L0.24525 22.5712C0.09375 22.7227 0 22.932 0 23.163C0 23.625 0.37425 23.9992 0.83625 23.9992C0.8385 23.9992 0.84 24 0.84225 24Z" fill="#3D444F"/>
</g>
<defs>
<clipPath id="clip0_9871_12696">
<rect width="24" height="24" fill="white"/>
</clipPath>
</defs>
</svg>
