<svg width="24" height="25" viewBox="0 0 24 25" fill="none" xmlns="http://www.w3.org/2000/svg">
<path d="M11.9979 17.6014C11.6058 17.6032 11.2143 17.5691 10.8284 17.4997C9.77299 17.3367 8.76326 16.9552 7.86381 16.3796C6.96436 15.804 6.19499 15.0469 5.60497 14.1568C4.76441 12.877 4.31748 11.3789 4.31946 9.8478C4.29052 8.82125 4.46771 7.79933 4.84058 6.84245C5.21344 5.88558 5.77439 5.01318 6.49027 4.27686C7.20614 3.54053 8.0624 2.95522 9.00841 2.55555C9.95442 2.15588 10.971 1.94995 11.9979 1.94995C13.0249 1.94995 14.0415 2.15588 14.9875 2.55555C15.9335 2.95522 16.7897 3.54053 17.5056 4.27686C18.2215 5.01318 18.7824 5.88558 19.1553 6.84245C19.5282 7.79933 19.7054 8.82125 19.6764 9.8478C19.6783 11.3806 19.2303 12.8803 18.3879 14.1609C17.7936 15.0546 17.0195 15.8146 16.1151 16.3925C15.2107 16.9703 14.1957 17.3533 13.135 17.517C12.759 17.5767 12.3786 17.6049 11.9979 17.6014ZM11.9979 3.59022C10.427 3.59644 8.91614 4.19421 7.76623 5.26445C6.61631 6.33469 5.91179 7.79883 5.79302 9.36521C5.67424 10.9316 6.14992 12.4852 7.12531 13.7166C8.10069 14.948 9.50418 15.7668 11.0562 16.0098C11.6659 16.1199 12.2903 16.1199 12.9 16.0098C13.7584 15.8818 14.5803 15.5752 15.3128 15.1098C16.0452 14.6443 16.6718 14.0304 17.1522 13.3076C17.8293 12.2763 18.1876 11.0683 18.1824 9.83458C18.1866 9.01858 18.0298 8.20977 17.7212 7.45438C17.4126 6.69899 16.9581 6.01184 16.3837 5.43219C15.8094 4.85255 15.1264 4.3918 14.3739 4.07626C13.6213 3.76073 12.814 3.5966 11.9979 3.59327V3.59022Z" fill="#3D444F"/>
<path d="M6.52051 23.449C6.3835 23.4473 6.24709 23.4306 6.11371 23.3992C5.79836 23.3257 5.51019 23.1646 5.2824 22.9345C5.05461 22.7043 4.89646 22.4145 4.82616 22.0985L4.47936 20.6269C4.46814 20.5811 4.44472 20.5393 4.41158 20.5058C4.37845 20.4723 4.33685 20.4484 4.29121 20.4367L2.65585 20.0462C2.35455 19.9749 2.07791 19.8241 1.85482 19.6094C1.63173 19.3947 1.47038 19.1241 1.38763 18.8258C1.30438 18.5248 1.30181 18.2073 1.38019 17.9051C1.45856 17.6028 1.61511 17.3266 1.8341 17.104L5.69876 13.2008C5.77519 13.1215 5.86854 13.0605 5.97183 13.0223C6.07513 12.9842 6.18571 12.9699 6.29532 12.9804C6.40493 12.991 6.51074 13.0262 6.60486 13.0833C6.69897 13.1405 6.77895 13.2182 6.83884 13.3106C7.31695 14.031 7.94039 14.6436 8.66915 15.1089C9.39792 15.5743 10.2159 15.8821 11.0706 16.0128C11.6803 16.1229 12.3048 16.1229 12.9145 16.0128C13.772 15.8844 14.5931 15.5777 15.3248 15.1124C16.0565 14.6472 16.6826 14.0337 17.1626 13.3116C17.2223 13.2186 17.3024 13.1405 17.3969 13.0832C17.4913 13.026 17.5977 12.991 17.7077 12.9811C17.8169 12.9715 17.9269 12.9862 18.0298 13.0242C18.1327 13.0622 18.2259 13.1225 18.3027 13.2008L22.1673 17.104C22.3863 17.3266 22.5429 17.6028 22.6212 17.9051C22.6996 18.2073 22.697 18.5248 22.6138 18.8258C22.531 19.1241 22.3697 19.3947 22.1466 19.6094C21.9235 19.8241 21.6469 19.9749 21.3456 20.0462L19.7102 20.4367C19.6646 20.4484 19.623 20.4723 19.5898 20.5058C19.5567 20.5393 19.5333 20.5811 19.5221 20.6269L19.1753 22.0985C19.1049 22.4147 18.9466 22.7046 18.7186 22.9347C18.4906 23.1648 18.2022 23.3259 17.8867 23.3992C17.5731 23.4777 17.2437 23.4648 16.9372 23.3619C16.6308 23.2589 16.3603 23.0704 16.1578 22.8185L12.0012 17.9847L7.83857 22.8287C7.67803 23.0227 7.47667 23.1788 7.24883 23.2861C7.021 23.3933 6.77232 23.4489 6.52051 23.449ZM6.14422 14.8829L2.88366 18.1749C2.85069 18.2064 2.82758 18.2468 2.81711 18.2912C2.80664 18.3356 2.80927 18.3821 2.82467 18.4251C2.83426 18.4678 2.85627 18.5067 2.88794 18.5369C2.91962 18.5672 2.95953 18.5873 3.00265 18.5949L4.63802 18.9854C4.95355 19.0588 5.24194 19.2198 5.46992 19.4499C5.6979 19.6801 5.85621 19.97 5.92658 20.2862L6.27338 21.7578C6.28408 21.8038 6.30733 21.8459 6.34054 21.8795C6.37376 21.9131 6.41564 21.9368 6.46153 21.9479C6.50627 21.9589 6.55318 21.9572 6.59701 21.943C6.64084 21.9288 6.67985 21.9027 6.70968 21.8676L10.5052 17.4538C8.80281 17.1142 7.26565 16.2079 6.14422 14.8829ZM13.5013 17.4447L17.2968 21.8483C17.3249 21.8884 17.3648 21.9187 17.4109 21.9349C17.4571 21.9512 17.5072 21.9525 17.5541 21.9388C17.6002 21.9279 17.6422 21.9043 17.6755 21.8707C17.7088 21.8371 17.7319 21.7948 17.7423 21.7486L18.0891 20.277C18.1595 19.9608 18.3178 19.6709 18.5457 19.4408C18.7737 19.2107 19.0621 19.0496 19.3776 18.9763L21.013 18.5858C21.0555 18.5767 21.0946 18.556 21.126 18.526C21.1574 18.496 21.1799 18.4579 21.191 18.4159C21.206 18.3729 21.2084 18.3265 21.198 18.2822C21.1875 18.2379 21.1646 18.1975 21.132 18.1657L17.8684 14.8727C16.7442 16.1978 15.2053 17.1041 13.5013 17.4447Z" fill="#3D444F"/>
<path d="M13.8753 13.7408C13.544 13.7323 13.2214 13.632 12.9438 13.4509L12.002 12.8804L11.0602 13.4408C10.8295 13.6226 10.5474 13.7273 10.2539 13.7399C9.96037 13.7525 9.67034 13.6724 9.42488 13.5109C9.19676 13.3232 9.03304 13.0688 8.95663 12.7835C8.88022 12.4981 8.89495 12.1959 8.99875 11.9193L9.23673 10.8881L8.44651 10.1477C8.2447 9.97109 8.09591 9.74187 8.01672 9.48563C7.93753 9.22939 7.93105 8.95619 7.99801 8.69648C8.09032 8.4458 8.25211 8.22659 8.46445 8.0645C8.6768 7.9024 8.93091 7.80413 9.19707 7.78118L10.2578 7.60118L10.7663 6.48248C10.866 6.23028 11.0356 6.01178 11.2552 5.85269C11.4749 5.69361 11.7354 5.60055 12.0061 5.58447C12.277 5.601 12.5375 5.69459 12.7569 5.85423C12.9764 6.01387 13.1457 6.23291 13.2448 6.48553L13.8296 7.66626L14.811 7.78627C15.0768 7.81269 15.3299 7.91287 15.5418 8.0755C15.7536 8.23813 15.9158 8.45674 16.0101 8.70665C16.0773 8.96617 16.0711 9.23925 15.9923 9.49548C15.9135 9.75171 15.765 9.98103 15.5636 10.1579L14.7408 10.9888L14.9981 11.9193C15.1019 12.1959 15.1167 12.4981 15.0403 12.7835C14.9638 13.0688 14.8001 13.3232 14.572 13.5109C14.373 13.6652 14.1271 13.7464 13.8753 13.7408ZM9.63337 9.23752L10.3168 9.92806C10.4776 10.0999 10.5955 10.3073 10.6609 10.5333C10.7263 10.7594 10.7373 10.9977 10.6931 11.2288L10.505 12.0292L11.2982 11.5583C11.5142 11.4353 11.7585 11.3705 12.0071 11.3705C12.2557 11.3705 12.5 11.4353 12.7159 11.5583L13.5092 12.0292L13.3282 11.2288C13.2816 10.9984 13.2906 10.7602 13.3545 10.534C13.4183 10.3078 13.5352 10.1001 13.6953 9.92806L14.3788 9.23752L13.5163 9.08701C13.3009 9.04392 13.0978 8.95327 12.9218 8.82166C12.7459 8.69005 12.6015 8.52081 12.4993 8.32629L12.0061 7.34591L11.5108 8.34663C11.4099 8.54093 11.2667 8.71013 11.0917 8.84178C10.9168 8.97343 10.7145 9.06418 10.4999 9.10735L9.63337 9.23752Z" fill="#3D444F"/>
</svg>
