<svg width="27" height="26" viewBox="0 0 27 26" fill="none" xmlns="http://www.w3.org/2000/svg">
<g clip-path="url(#clip0_9491_7347)">
<path d="M21.3848 12.4804H3.38477C2.42477 12.4804 1.63477 11.6904 1.63477 10.7304V7.41036C1.63477 6.73036 2.10475 6.04036 2.73475 5.79036L11.7348 2.19038C12.1148 2.04038 12.6548 2.04038 13.0348 2.19038L22.0348 5.79036C22.6648 6.04036 23.1348 6.74035 23.1348 7.41036V10.7304C23.1348 11.6904 22.3448 12.4804 21.3848 12.4804ZM12.3848 3.57039C12.3448 3.57039 12.3048 3.57034 12.2848 3.58034L3.29474 7.18037C3.23474 7.21037 3.13477 7.34035 3.13477 7.41036V10.7304C3.13477 10.8704 3.24477 10.9804 3.38477 10.9804H21.3848C21.5248 10.9804 21.6348 10.8704 21.6348 10.7304V7.41036C21.6348 7.34035 21.5448 7.21037 21.4748 7.18037L12.4748 3.58034C12.4548 3.57034 12.4248 3.57039 12.3848 3.57039Z" fill="#3D444F"/>
<path d="M22.3848 23.4805H2.38477C1.97477 23.4805 1.63477 23.1405 1.63477 22.7305V19.7305C1.63477 18.7705 2.42477 17.9805 3.38477 17.9805H21.3848C22.3448 17.9805 23.1348 18.7705 23.1348 19.7305V22.7305C23.1348 23.1405 22.7948 23.4805 22.3848 23.4805ZM3.13477 21.9805H21.6348V19.7305C21.6348 19.5905 21.5248 19.4805 21.3848 19.4805H3.38477C3.24477 19.4805 3.13477 19.5905 3.13477 19.7305V21.9805Z" fill="#3D444F"/>
<path d="M4.38477 19.4805C3.97477 19.4805 3.63477 19.1405 3.63477 18.7305V11.7305C3.63477 11.3205 3.97477 10.9805 4.38477 10.9805C4.79477 10.9805 5.13477 11.3205 5.13477 11.7305V18.7305C5.13477 19.1405 4.79477 19.4805 4.38477 19.4805Z" fill="#3D444F"/>
<path d="M8.38477 19.4805C7.97477 19.4805 7.63477 19.1405 7.63477 18.7305V11.7305C7.63477 11.3205 7.97477 10.9805 8.38477 10.9805C8.79477 10.9805 9.13477 11.3205 9.13477 11.7305V18.7305C9.13477 19.1405 8.79477 19.4805 8.38477 19.4805Z" fill="#3D444F"/>
<path d="M12.3848 19.4805C11.9748 19.4805 11.6348 19.1405 11.6348 18.7305V11.7305C11.6348 11.3205 11.9748 10.9805 12.3848 10.9805C12.7948 10.9805 13.1348 11.3205 13.1348 11.7305V18.7305C13.1348 19.1405 12.7948 19.4805 12.3848 19.4805Z" fill="#3D444F"/>
<path d="M16.3848 19.4805C15.9748 19.4805 15.6348 19.1405 15.6348 18.7305V11.7305C15.6348 11.3205 15.9748 10.9805 16.3848 10.9805C16.7948 10.9805 17.1348 11.3205 17.1348 11.7305V18.7305C17.1348 19.1405 16.7948 19.4805 16.3848 19.4805Z" fill="#3D444F"/>
<path d="M20.3848 19.4805C19.9748 19.4805 19.6348 19.1405 19.6348 18.7305V11.7305C19.6348 11.3205 19.9748 10.9805 20.3848 10.9805C20.7948 10.9805 21.1348 11.3205 21.1348 11.7305V18.7305C21.1348 19.1405 20.7948 19.4805 20.3848 19.4805Z" fill="#3D444F"/>
<path d="M23.3848 23.4805H1.38477C0.974766 23.4805 0.634766 23.1405 0.634766 22.7305C0.634766 22.3205 0.974766 21.9805 1.38477 21.9805H23.3848C23.7948 21.9805 24.1348 22.3205 24.1348 22.7305C24.1348 23.1405 23.7948 23.4805 23.3848 23.4805Z" fill="#3D444F"/>
<path d="M12.3848 9.98047C11.1448 9.98047 10.1348 8.97047 10.1348 7.73047C10.1348 6.49047 11.1448 5.48047 12.3848 5.48047C13.6248 5.48047 14.6348 6.49047 14.6348 7.73047C14.6348 8.97047 13.6248 9.98047 12.3848 9.98047ZM12.3848 6.98047C11.9748 6.98047 11.6348 7.32047 11.6348 7.73047C11.6348 8.14047 11.9748 8.48047 12.3848 8.48047C12.7948 8.48047 13.1348 8.14047 13.1348 7.73047C13.1348 7.32047 12.7948 6.98047 12.3848 6.98047Z" fill="#3D444F"/>
<path d="M20.3848 25.7305C23.6985 25.7305 26.3848 23.0442 26.3848 19.7305C26.3848 16.4168 23.6985 13.7305 20.3848 13.7305C17.0711 13.7305 14.3848 16.4168 14.3848 19.7305C14.3848 23.0442 17.0711 25.7305 20.3848 25.7305Z" fill="white"/>
<path d="M20.2175 22.9805C18.3341 22.9805 16.8008 21.4472 16.8008 19.5638C16.8008 17.6805 18.3341 16.1472 20.2175 16.1472C22.1008 16.1472 23.6341 17.6805 23.6341 19.5638C23.6341 21.4472 22.1008 22.9805 20.2175 22.9805ZM20.2175 16.6472C18.6075 16.6472 17.3008 17.9572 17.3008 19.5638C17.3008 21.1705 18.6075 22.4805 20.2175 22.4805C21.8275 22.4805 23.1341 21.1705 23.1341 19.5638C23.1341 17.9572 21.8275 16.6472 20.2175 16.6472Z" fill="#3D444F" stroke="#3D444F" stroke-width="0.9"/>
<path d="M23.7176 23.3138C23.6543 23.3138 23.5909 23.2905 23.5409 23.2405L22.8743 22.5738C22.7776 22.4772 22.7776 22.3172 22.8743 22.2205C22.9709 22.1238 23.1309 22.1238 23.2276 22.2205L23.8943 22.8872C23.9909 22.9838 23.9909 23.1438 23.8943 23.2405C23.8443 23.2905 23.7809 23.3138 23.7176 23.3138Z" fill="#3D444F" stroke="#3D444F" stroke-width="0.9"/>
</g>
<defs>
<clipPath id="clip0_9491_7347">
<rect width="26" height="25" fill="white" transform="translate(0.384766 0.730469)"/>
</clipPath>
</defs>
</svg>
