<svg width="19" height="19" viewBox="0 0 19 19" fill="none" xmlns="http://www.w3.org/2000/svg">
<path d="M5.31708 14.6282C5.33036 14.6059 5.34396 14.5836 5.35789 14.5615C6.37376 12.9466 6.96184 11.0368 6.96184 8.98047C6.96184 7.32361 8.30499 5.98047 9.96184 5.98047C11.6187 5.98047 12.9618 7.32361 12.9618 8.98047C12.9618 9.74324 12.9099 10.4944 12.8094 11.2305M11.2213 16.3632C11.6801 15.4474 12.0562 14.4831 12.34 13.4805M15.2192 14.3294C15.7029 12.6297 15.9619 10.8353 15.9619 8.98047C15.9619 5.66676 13.2756 2.98047 9.96191 2.98047C8.86905 2.98047 7.84443 3.27265 6.96191 3.78316M3.21191 12.2536C3.69241 11.2645 3.96191 10.154 3.96191 8.98047C3.96191 7.88761 4.2541 6.86299 4.76461 5.98047M9.96182 8.98047C9.96182 11.6184 9.20523 14.0796 7.89722 16.1589" stroke="#3D444F" stroke-width="1.5" stroke-linecap="round" stroke-linejoin="round"/>
</svg>
