<svg width="24" height="25" viewBox="0 0 24 25" fill="none" xmlns="http://www.w3.org/2000/svg">
<path d="M19.9599 19.3351H4.09595C3.91714 19.3338 3.746 19.2624 3.61938 19.1361C3.49275 19.0099 3.42078 18.8389 3.41895 18.6601V14.1951C3.42212 11.9272 4.32447 9.75303 5.92815 8.14934C7.53184 6.54566 9.70599 5.64331 11.9739 5.64014H12.0819C14.3499 5.64331 16.5241 6.54566 18.1277 8.14934C19.7314 9.75303 20.6338 11.9272 20.6369 14.1951V18.6601C20.6351 18.8389 20.5631 19.0099 20.4365 19.1361C20.3099 19.2624 20.1388 19.3338 19.9599 19.3351ZM4.77395 17.9801H19.2829V14.1951C19.2808 12.2862 18.5216 10.4561 17.1718 9.10631C15.822 7.7565 13.9919 6.99725 12.0829 6.99514H11.9749C10.066 6.99725 8.23592 7.7565 6.88612 9.10631C5.53631 10.4561 4.77706 12.2862 4.77495 14.1951L4.77395 17.9801Z" fill="#3D444F"/>
<path d="M12.0305 6.99525C11.851 6.9942 11.6792 6.92243 11.5523 6.79551C11.4254 6.66859 11.3536 6.49675 11.3525 6.31725V3.67125C11.3593 3.49607 11.4336 3.33031 11.5599 3.20875C11.6862 3.08719 11.8547 3.01929 12.03 3.01929C12.2053 3.01929 12.3738 3.08719 12.5002 3.20875C12.6265 3.33031 12.7008 3.49607 12.7075 3.67125V6.31725C12.7065 6.49657 12.6349 6.66827 12.5082 6.79516C12.3814 6.92206 12.2099 6.99394 12.0305 6.99525Z" fill="#3D444F"/>
<path d="M21.7941 22.4413H2.26007C2.1616 22.445 2.06341 22.4287 1.97136 22.3935C1.87931 22.3584 1.7953 22.305 1.72435 22.2366C1.6534 22.1682 1.59696 22.0863 1.55842 21.9956C1.51987 21.9049 1.5 21.8074 1.5 21.7088C1.5 21.6103 1.51987 21.5128 1.55842 21.4221C1.59696 21.3314 1.6534 21.2494 1.72435 21.181C1.7953 21.1127 1.87931 21.0593 1.97136 21.0241C2.06341 20.9889 2.1616 20.9727 2.26007 20.9763H21.7941C21.9837 20.9833 22.1631 21.0636 22.2948 21.2002C22.4264 21.3368 22.5 21.5191 22.5 21.7088C22.5 21.8985 22.4264 22.0809 22.2948 22.2175C22.1631 22.3541 21.9837 22.4343 21.7941 22.4413Z" fill="#3D444F"/>
</svg>
