<svg width="24" height="25" viewBox="0 0 24 25" fill="none" xmlns="http://www.w3.org/2000/svg">
<path d="M17.3942 23.2332H3.71318C3.51918 23.2318 3.3335 23.1542 3.19632 23.017C3.05914 22.8798 2.98149 22.6942 2.98018 22.5002V5.89615C2.95248 5.40778 3.02829 4.91906 3.20263 4.46203C3.37698 4.00499 3.64593 3.58996 3.99187 3.24412C4.33781 2.89828 4.75291 2.62944 5.21 2.45521C5.66708 2.28099 6.15581 2.20532 6.64418 2.23315H14.4622C14.9509 2.20473 15.4401 2.27997 15.8976 2.45393C16.3552 2.62789 16.7708 2.89664 17.1172 3.24255C17.4635 3.58845 17.7329 4.00369 17.9074 4.46102C18.082 4.91835 18.1579 5.40742 18.1302 5.89615V22.4962C18.1299 22.6914 18.0523 22.8785 17.9144 23.0166C17.7764 23.1548 17.5894 23.2326 17.3942 23.2332ZM4.44618 21.7682H16.6612V5.89615C16.6891 5.60028 16.6514 5.30188 16.5508 5.02226C16.4501 4.74264 16.2889 4.48869 16.0788 4.27855C15.8686 4.0684 15.6147 3.90724 15.3351 3.80657C15.0555 3.70589 14.7571 3.66819 14.4612 3.69615H6.64418C6.34831 3.66819 6.04991 3.70589 5.77029 3.80657C5.49067 3.90724 5.23672 4.0684 5.02658 4.27855C4.81643 4.48869 4.65527 4.74264 4.5546 5.02226C4.45392 5.30188 4.41622 5.60028 4.44418 5.89615L4.44618 21.7682Z" fill="#3D444F"/>
<path d="M18.8644 23.2331H2.24737C2.1489 23.2367 2.05071 23.2205 1.95866 23.1853C1.86662 23.1501 1.78261 23.0967 1.71166 23.0284C1.6407 22.96 1.58427 22.878 1.54572 22.7873C1.50717 22.6966 1.4873 22.5991 1.4873 22.5006C1.4873 22.402 1.50717 22.3045 1.54572 22.2138C1.58427 22.1231 1.6407 22.0412 1.71166 21.9728C1.78261 21.9044 1.86662 21.851 1.95866 21.8159C2.05071 21.7807 2.1489 21.7644 2.24737 21.7681H18.8644C18.9628 21.7644 19.061 21.7807 19.1531 21.8159C19.2451 21.851 19.3291 21.9044 19.4001 21.9728C19.471 22.0412 19.5275 22.1231 19.566 22.2138C19.6046 22.3045 19.6244 22.402 19.6244 22.5006C19.6244 22.5991 19.6046 22.6966 19.566 22.7873C19.5275 22.878 19.471 22.96 19.4001 23.0284C19.3291 23.0967 19.2451 23.1501 19.1531 23.1853C19.061 23.2205 18.9628 23.2367 18.8644 23.2331Z" fill="#3D444F"/>
<path d="M12.6167 11.5132H8.48267C8.13666 11.5416 7.78859 11.4944 7.46266 11.3748C7.13672 11.2552 6.84072 11.0661 6.59523 10.8206C6.34973 10.5751 6.16062 10.2791 6.04102 9.95318C5.92143 9.62724 5.87422 9.27918 5.90267 8.93316V7.73316C5.87404 7.3871 5.92113 7.03896 6.04066 6.71295C6.1602 6.38693 6.3493 6.09086 6.59484 5.84533C6.84037 5.59979 7.13644 5.41068 7.46246 5.29115C7.78848 5.17162 8.13662 5.12453 8.48267 5.15316H12.6167C12.9626 5.12455 13.3107 5.17162 13.6366 5.29109C13.9626 5.41057 14.2586 5.59958 14.5041 5.84501C14.7496 6.09043 14.9387 6.38637 15.0583 6.71226C15.1779 7.03816 15.2252 7.38618 15.1967 7.73216V8.93216C15.2253 9.27826 15.1782 9.62643 15.0587 9.95249C14.9391 10.2786 14.75 10.5747 14.5045 10.8203C14.259 11.0659 13.963 11.2551 13.637 11.3748C13.3109 11.4944 12.9628 11.5416 12.6167 11.5132ZM8.49267 6.62816C7.70067 6.62816 7.37867 6.95016 7.37867 7.74116V8.94116C7.37867 9.73216 7.70067 10.0542 8.49267 10.0542H12.6267C13.4187 10.0542 13.7407 9.73216 13.7407 8.94116V7.74116C13.7407 6.95016 13.4187 6.62816 12.6267 6.62816H8.49267Z" fill="#3D444F"/>
<path d="M9.57583 14.4421H6.64483C6.54636 14.4457 6.44817 14.4294 6.35612 14.3943C6.26408 14.3591 6.18007 14.3057 6.10912 14.2374C6.03817 14.169 5.98173 14.087 5.94318 13.9963C5.90463 13.9056 5.88477 13.8081 5.88477 13.7096C5.88477 13.611 5.90463 13.5135 5.94318 13.4228C5.98173 13.3321 6.03817 13.2501 6.10912 13.1818C6.18007 13.1134 6.26408 13.06 6.35612 13.0248C6.44817 12.9897 6.54636 12.9734 6.64483 12.9771H9.57583C9.67431 12.9734 9.7725 12.9897 9.86455 13.0248C9.95659 13.06 10.0406 13.1134 10.1116 13.1818C10.1825 13.2501 10.2389 13.3321 10.2775 13.4228C10.316 13.5135 10.3359 13.611 10.3359 13.7096C10.3359 13.8081 10.316 13.9056 10.2775 13.9963C10.2389 14.087 10.1825 14.169 10.1116 14.2374C10.0406 14.3057 9.95659 14.3591 9.86455 14.3943C9.7725 14.4294 9.67431 14.4457 9.57583 14.4421Z" fill="#3D444F"/>
<path d="M17.3948 17.3821C17.2964 17.3858 17.1982 17.3695 17.1061 17.3344C17.0141 17.2992 16.9301 17.2458 16.8591 17.1774C16.7882 17.1091 16.7317 17.0271 16.6932 16.9364C16.6546 16.8457 16.6348 16.7482 16.6348 16.6496C16.6348 16.5511 16.6546 16.4536 16.6932 16.3629C16.7317 16.2722 16.7882 16.1902 16.8591 16.1219C16.9301 16.0535 17.0141 16.0001 17.1061 15.9649C17.1982 15.9298 17.2964 15.9135 17.3948 15.9171L21.0588 15.9071V11.2281L19.5048 10.4561C19.4182 10.4131 19.3409 10.3535 19.2774 10.2806C19.2138 10.2077 19.1652 10.1231 19.1344 10.0314C19.1036 9.93975 19.0911 9.84292 19.0977 9.74645C19.1043 9.64998 19.1298 9.55575 19.1728 9.46914C19.2158 9.38254 19.2755 9.30525 19.3484 9.24169C19.4212 9.17814 19.5059 9.12956 19.5976 9.09873C19.6892 9.0679 19.7861 9.05542 19.8825 9.06202C19.979 9.06861 20.0732 9.09414 20.1598 9.13714L22.1138 10.1141C22.2337 10.1764 22.3343 10.2702 22.4048 10.3855C22.4753 10.5007 22.513 10.633 22.5138 10.7681V16.6281C22.514 16.7244 22.4951 16.8198 22.4583 16.9088C22.4215 16.9978 22.3675 17.0787 22.2994 17.1467C22.2313 17.2148 22.1505 17.2688 22.0615 17.3056C21.9725 17.3424 21.8771 17.3613 21.7808 17.3611L17.3948 17.3821Z" fill="#3D444F"/>
</svg>
