<svg width="24" height="25" viewBox="0 0 24 25" fill="none" xmlns="http://www.w3.org/2000/svg">
<path d="M4.72481 20.7305C3.7248 20.7305 2.87064 20.3721 2.1623 19.6555C1.45397 18.9388 1.08314 18.0721 1.0498 17.0555C1.0498 16.9055 1.05814 16.7555 1.0748 16.6055C1.09147 16.4555 1.11647 16.3055 1.1498 16.1555L3.2498 7.75547C3.48314 6.85547 3.95814 6.1263 4.6748 5.56797C5.39147 5.00964 6.20814 4.73047 7.12481 4.73047H16.8748C17.7915 4.73047 18.6081 5.00964 19.3248 5.56797C20.0415 6.1263 20.5165 6.85547 20.7498 7.75547L22.8498 16.1555C22.8831 16.3055 22.9123 16.4596 22.9373 16.618C22.9623 16.7763 22.9748 16.9305 22.9748 17.0805C22.9748 18.0971 22.6123 18.9596 21.8873 19.668C21.1623 20.3763 20.2915 20.7305 19.2748 20.7305C18.5748 20.7305 17.9248 20.5471 17.3248 20.1805C16.7248 19.8138 16.2748 19.3138 15.9748 18.6805L15.2748 17.2305C15.1915 17.0638 15.0665 16.9388 14.8998 16.8555C14.7331 16.7721 14.5581 16.7305 14.3748 16.7305H9.62481C9.44147 16.7305 9.26647 16.7721 9.09981 16.8555C8.93314 16.9388 8.80814 17.0638 8.72481 17.2305L8.02481 18.6805C7.72481 19.3138 7.27481 19.8138 6.67481 20.1805C6.07481 20.5471 5.42481 20.7305 4.72481 20.7305ZM4.7998 18.7305C5.11647 18.7305 5.40397 18.6471 5.6623 18.4805C5.92064 18.3138 6.11647 18.0888 6.2498 17.8055L6.94981 16.3805C7.19981 15.8638 7.56647 15.4596 8.04981 15.168C8.53314 14.8763 9.05814 14.7305 9.62481 14.7305H14.3748C14.9415 14.7305 15.4665 14.8805 15.9498 15.1805C16.4331 15.4805 16.8081 15.8805 17.0748 16.3805L17.7748 17.8055C17.9081 18.0888 18.104 18.3138 18.3623 18.4805C18.6206 18.6471 18.9081 18.7305 19.2248 18.7305C19.6915 18.7305 20.0915 18.5763 20.4248 18.268C20.7581 17.9596 20.9331 17.5721 20.9498 17.1055C20.9498 17.1221 20.9331 16.9638 20.8998 16.6305L18.7998 8.25547C18.6831 7.80547 18.4498 7.4388 18.0998 7.15547C17.7498 6.87214 17.3415 6.73047 16.8748 6.73047H7.12481C6.65814 6.73047 6.24564 6.87214 5.88731 7.15547C5.52897 7.4388 5.29981 7.80547 5.19981 8.25547L3.0998 16.6305C3.06647 16.7305 3.0498 16.8805 3.0498 17.0805C3.0498 17.5471 3.22064 17.9388 3.5623 18.2555C3.90397 18.5721 4.31647 18.7305 4.7998 18.7305ZM13.4998 11.7305C13.7831 11.7305 14.0206 11.6346 14.2123 11.443C14.404 11.2513 14.4998 11.0138 14.4998 10.7305C14.4998 10.4471 14.404 10.2096 14.2123 10.018C14.0206 9.8263 13.7831 9.73047 13.4998 9.73047C13.2165 9.73047 12.979 9.8263 12.7873 10.018C12.5956 10.2096 12.4998 10.4471 12.4998 10.7305C12.4998 11.0138 12.5956 11.2513 12.7873 11.443C12.979 11.6346 13.2165 11.7305 13.4998 11.7305ZM15.4998 9.73047C15.7831 9.73047 16.0206 9.63464 16.2123 9.44297C16.404 9.2513 16.4998 9.0138 16.4998 8.73047C16.4998 8.44714 16.404 8.20964 16.2123 8.01797C16.0206 7.8263 15.7831 7.73047 15.4998 7.73047C15.2165 7.73047 14.979 7.8263 14.7873 8.01797C14.5956 8.20964 14.4998 8.44714 14.4998 8.73047C14.4998 9.0138 14.5956 9.2513 14.7873 9.44297C14.979 9.63464 15.2165 9.73047 15.4998 9.73047ZM15.4998 13.7305C15.7831 13.7305 16.0206 13.6346 16.2123 13.443C16.404 13.2513 16.4998 13.0138 16.4998 12.7305C16.4998 12.4471 16.404 12.2096 16.2123 12.018C16.0206 11.8263 15.7831 11.7305 15.4998 11.7305C15.2165 11.7305 14.979 11.8263 14.7873 12.018C14.5956 12.2096 14.4998 12.4471 14.4998 12.7305C14.4998 13.0138 14.5956 13.2513 14.7873 13.443C14.979 13.6346 15.2165 13.7305 15.4998 13.7305ZM17.4998 11.7305C17.7831 11.7305 18.0206 11.6346 18.2123 11.443C18.404 11.2513 18.4998 11.0138 18.4998 10.7305C18.4998 10.4471 18.404 10.2096 18.2123 10.018C18.0206 9.8263 17.7831 9.73047 17.4998 9.73047C17.2165 9.73047 16.979 9.8263 16.7873 10.018C16.5956 10.2096 16.4998 10.4471 16.4998 10.7305C16.4998 11.0138 16.5956 11.2513 16.7873 11.443C16.979 11.6346 17.2165 11.7305 17.4998 11.7305ZM8.49981 13.2305C8.71647 13.2305 8.89564 13.1596 9.03731 13.018C9.17897 12.8763 9.24981 12.6971 9.24981 12.4805V11.4805H10.2498C10.4665 11.4805 10.6456 11.4096 10.7873 11.268C10.929 11.1263 10.9998 10.9471 10.9998 10.7305C10.9998 10.5138 10.929 10.3346 10.7873 10.193C10.6456 10.0513 10.4665 9.98047 10.2498 9.98047H9.24981V8.98047C9.24981 8.7638 9.17897 8.58464 9.03731 8.44297C8.89564 8.3013 8.71647 8.23047 8.49981 8.23047C8.28314 8.23047 8.10397 8.3013 7.96231 8.44297C7.82064 8.58464 7.74981 8.7638 7.74981 8.98047V9.98047H6.7498C6.53314 9.98047 6.35397 10.0513 6.21231 10.193C6.07064 10.3346 5.9998 10.5138 5.9998 10.7305C5.9998 10.9471 6.07064 11.1263 6.21231 11.268C6.35397 11.4096 6.53314 11.4805 6.7498 11.4805H7.74981V12.4805C7.74981 12.6971 7.82064 12.8763 7.96231 13.018C8.10397 13.1596 8.28314 13.2305 8.49981 13.2305Z" fill="#3D444F"/>
</svg>
