<svg width="24" height="25" viewBox="0 0 24 25" fill="none" xmlns="http://www.w3.org/2000/svg">
<path d="M18.9262 10.9412V16.3032C18.9262 20.2412 17.7292 21.4412 13.7882 21.4412H10.2132C6.2752 21.4412 5.0752 20.2412 5.0752 16.3032L5.0752 10.9412C5.0752 7.00016 6.2752 5.80316 10.2132 5.80316H13.7882C17.7292 5.80316 18.9262 7.00016 18.9262 10.9412ZM6.4152 16.3032C6.4152 19.5032 7.0232 20.1032 10.2152 20.1032H13.7882C16.9782 20.1032 17.5882 19.5032 17.5882 16.3032V10.9412C17.5882 7.74116 16.9802 7.14116 13.7882 7.14116H10.2132C7.0232 7.14116 6.4132 7.74116 6.4132 10.9412L6.4152 16.3032Z" fill="#3D444F"/>
<path d="M14.9052 5.13322C14.9052 5.31092 14.8346 5.48133 14.709 5.60698C14.5833 5.73263 14.4129 5.80322 14.2352 5.80322C14.0575 5.80322 13.8871 5.73263 13.7614 5.60698C13.6358 5.48133 13.5652 5.31092 13.5652 5.13322C13.5652 4.60622 13.4852 3.59622 13.4852 3.58722C13.2891 3.56916 13.092 3.56315 12.8952 3.56922L11.1072 3.56922C10.9029 3.5576 10.6979 3.569 10.4962 3.60322C10.5082 3.59622 10.4362 4.64122 10.4362 5.13322C10.4349 5.31051 10.3639 5.48017 10.2385 5.60554C10.1131 5.7309 9.94348 5.80191 9.76619 5.80322C9.5889 5.80191 9.41924 5.7309 9.29388 5.60554C9.16851 5.48017 9.0975 5.31051 9.09619 5.13322C9.09619 3.27422 9.11419 2.23322 10.2132 2.23322L13.7872 2.23322C14.8872 2.22922 14.9052 3.27422 14.9052 5.13322Z" fill="#3D444F"/>
<path d="M14.6814 23.2282H9.31941C9.14172 23.2282 8.9713 23.1576 8.84565 23.0319C8.72 22.9063 8.64941 22.7359 8.64941 22.5582C8.64941 22.3805 8.72 22.2101 8.84565 22.0844C8.9713 21.9588 9.14172 21.8882 9.31941 21.8882H14.6814C14.8591 21.8882 15.0295 21.9588 15.1552 22.0844C15.2808 22.2101 15.3514 22.3805 15.3514 22.5582C15.3514 22.7359 15.2808 22.9063 15.1552 23.0319C15.0295 23.1576 14.8591 23.2282 14.6814 23.2282Z" fill="#3D444F"/>
<path d="M14.6814 8.93009H9.31941C9.14172 8.93009 8.9713 8.8595 8.84565 8.73385C8.72 8.6082 8.64941 8.43778 8.64941 8.26009C8.64941 8.08239 8.72 7.91197 8.84565 7.78633C8.9713 7.66068 9.14172 7.59009 9.31941 7.59009H14.6814C14.8591 7.59009 15.0295 7.66068 15.1552 7.78633C15.2808 7.91197 15.3514 8.08239 15.3514 8.26009C15.3514 8.43778 15.2808 8.6082 15.1552 8.73385C15.0295 8.8595 14.8591 8.93009 14.6814 8.93009Z" fill="#3D444F"/>
</svg>
