<svg width="24" height="25" viewBox="0 0 24 25" fill="none" xmlns="http://www.w3.org/2000/svg">
<path d="M14.7544 18.6557H6.40039C5.93719 18.6591 5.47503 18.6112 5.02239 18.5127C4.76176 18.4715 4.50652 18.4014 4.26139 18.3037C2.99739 17.8287 1.50439 16.6597 1.50439 13.7507V8.85068C1.50439 5.74168 3.29139 3.95068 6.40439 3.95068H14.7544C17.3784 3.95068 19.0704 5.20568 19.5264 7.48668C19.6155 7.93714 19.6584 8.39552 19.6544 8.85468V13.7547C19.6544 16.8777 17.8754 18.6557 14.7544 18.6557ZM6.41039 5.40368C4.07139 5.40368 2.94039 6.53468 2.94039 8.87368V13.7737C2.94039 15.4737 3.54039 16.5207 4.76539 16.9867C4.94165 17.0497 5.12298 17.0976 5.30739 17.1297C5.669 17.2065 6.03773 17.2447 6.40739 17.2437H14.7634C17.1024 17.2437 18.2334 16.1127 18.2334 13.7737V8.87368C18.2366 8.51322 18.2031 8.15336 18.1334 7.79968C17.8104 6.18368 16.7074 5.39968 14.7584 5.39968L6.41039 5.40368Z" fill="#3D444F"/>
<path d="M17.6084 21.5086H9.25241C8.51958 21.5239 7.79017 21.4046 7.10041 21.1566C6.41709 20.9062 5.81331 20.4774 5.35185 19.9146C4.89039 19.3519 4.58811 18.6758 4.47641 17.9566C4.45247 17.8408 4.45825 17.7208 4.49323 17.6079C4.5282 17.4949 4.59122 17.3926 4.67641 17.3106C4.76101 17.2267 4.86581 17.1659 4.9807 17.1342C5.0956 17.1025 5.21673 17.1009 5.33241 17.1296C5.68294 17.2001 6.03989 17.2336 6.39741 17.2296H14.7534C17.0924 17.2296 18.2234 16.0986 18.2234 13.7596V8.86463C18.2266 8.50416 18.1931 8.14431 18.1234 7.79063C18.101 7.6756 18.1065 7.55687 18.1396 7.44445C18.1727 7.33202 18.2323 7.22919 18.3134 7.14463C18.3954 7.05968 18.498 6.9975 18.6113 6.9642C18.7245 6.93089 18.8445 6.92759 18.9594 6.95463C21.2414 7.42063 22.4954 9.11263 22.4954 11.7176V16.6176C22.5004 19.7306 20.7264 21.5086 17.6084 21.5086ZM6.22941 18.6566C6.52933 19.2064 7.02466 19.6236 7.61741 19.8256C8.14611 20.0084 8.70316 20.0954 9.26241 20.0826H17.6184C19.9574 20.0826 21.0884 18.9516 21.0884 16.6126V11.7126C21.1633 11.1253 21.0688 10.5287 20.8162 9.99319C20.5636 9.45766 20.1633 9.00541 19.6624 8.68963V13.7566C19.6624 16.8656 17.8754 18.6566 14.7624 18.6566H6.22941Z" fill="#3D444F"/>
<path d="M10.5834 14.5388C9.9459 14.5388 9.32277 14.3497 8.79275 13.9956C8.26273 13.6415 7.84963 13.1381 7.60569 12.5492C7.36175 11.9602 7.29792 11.3122 7.42228 10.687C7.54664 10.0618 7.8536 9.48751 8.30435 9.03677C8.75509 8.58603 9.32938 8.27906 9.95458 8.1547C10.5798 8.03034 11.2278 8.09417 11.8167 8.33811C12.4057 8.58205 12.909 8.99515 13.2632 9.52517C13.6173 10.0552 13.8064 10.6783 13.8064 11.3158C13.8058 12.1704 13.4661 12.9899 12.8618 13.5942C12.2575 14.1985 11.438 14.5382 10.5834 14.5388ZM10.5834 9.51978C10.2273 9.51978 9.87933 9.62534 9.58333 9.82313C9.28732 10.0209 9.05661 10.302 8.92037 10.6309C8.78413 10.9599 8.74849 11.3218 8.81794 11.6709C8.88739 12.0201 9.05883 12.3408 9.31056 12.5926C9.56229 12.8443 9.88302 13.0157 10.2322 13.0852C10.5814 13.1546 10.9433 13.119 11.2722 12.9828C11.6011 12.8465 11.8822 12.6158 12.08 12.3198C12.2778 12.0238 12.3834 11.6758 12.3834 11.3198C12.3834 10.8424 12.1937 10.3845 11.8561 10.047C11.5186 9.70942 11.0607 9.51978 10.5834 9.51978Z" fill="#3D444F"/>
<path d="M5.14562 14.1217C4.95692 14.1204 4.77633 14.0448 4.6429 13.9114C4.50947 13.778 4.43393 13.5974 4.43262 13.4087V9.22569C4.43262 9.0366 4.50774 8.85524 4.64145 8.72153C4.77516 8.58781 4.95652 8.5127 5.14562 8.5127C5.33472 8.5127 5.51607 8.58781 5.64978 8.72153C5.7835 8.85524 5.85862 9.0366 5.85862 9.22569V13.4087C5.85875 13.5024 5.8404 13.5951 5.80461 13.6817C5.76883 13.7683 5.71631 13.8469 5.65008 13.9132C5.58384 13.9794 5.50519 14.0319 5.41863 14.0677C5.33206 14.1035 5.23929 14.1218 5.14562 14.1217Z" fill="#3D444F"/>
<path d="M16.0113 14.1217C15.8226 14.1204 15.6421 14.0448 15.5086 13.9114C15.3752 13.778 15.2996 13.5974 15.2983 13.4087V9.22569C15.2983 9.0366 15.3735 8.85524 15.5072 8.72153C15.6409 8.58781 15.8222 8.5127 16.0113 8.5127C16.2004 8.5127 16.3818 8.58781 16.5155 8.72153C16.6492 8.85524 16.7243 9.0366 16.7243 9.22569V13.4087C16.7245 13.5024 16.7061 13.5951 16.6703 13.6817C16.6345 13.7683 16.582 13.8469 16.5158 13.9132C16.4496 13.9794 16.3709 14.0319 16.2843 14.0677C16.1978 14.1035 16.105 14.1218 16.0113 14.1217Z" fill="#3D444F"/>
</svg>
