<svg width="24" height="25" viewBox="0 0 24 25" fill="none" xmlns="http://www.w3.org/2000/svg">
<g clip-path="url(#clip0_9010_14652)">
<path fill-rule="evenodd" clip-rule="evenodd" d="M8.71948 4.03498C8.94204 3.94515 9.19415 3.96727 9.39768 4.09447L13.2395 6.4956C14.22 6.15803 15.385 5.98047 16.7435 5.98047H18.9995C19.4138 5.98047 19.7495 6.31626 19.7495 6.73047V8.01647C19.7495 8.02898 19.7492 8.04148 19.7486 8.05397C19.6961 9.1017 19.6425 10.0865 19.4695 10.9805H20C20.4641 10.9805 20.9092 11.1648 21.2374 11.493C21.5656 11.8212 21.75 12.2663 21.75 12.7305V13.2305C21.75 13.7663 21.539 14.4204 21.2734 15.0429C20.9964 15.6919 20.6167 16.4041 20.1946 17.0889C19.7722 17.7742 19.2984 18.4466 18.8278 19.0137C18.481 19.4315 18.1132 19.8202 17.75 20.1131V20.7305C17.75 21.1946 17.5656 21.6397 17.2374 21.9679C16.9092 22.2961 16.4641 22.4805 16 22.4805H8C7.53587 22.4805 7.09075 22.2961 6.76256 21.9679C6.43437 21.6397 6.25 21.1946 6.25 20.7305V20.1183C5.35419 19.4197 4.43245 18.2054 3.72549 17.0356C3.31477 16.356 2.95388 15.6539 2.69313 15.0135C2.44163 14.3958 2.25 13.7565 2.25 13.2305V12.7305C2.25 12.2663 2.43437 11.8212 2.76256 11.493C3.09075 11.1648 3.53587 10.9805 4 10.9805H4.36119C4.30524 10.5768 4.26836 10.1705 4.2507 9.76293C4.25023 9.75212 4.25 9.74129 4.25 9.73047V8.73047C4.25 8.31626 4.58579 7.98047 5 7.98047H6.755C6.97971 7.98047 7.19804 7.9866 7.41002 7.99879L8.27257 4.54857C8.33078 4.31573 8.49691 4.12481 8.71948 4.03498ZM9.47756 5.91327L11.6623 7.27876C11.3511 7.49327 11.0699 7.73277 10.818 7.99605C10.7127 7.98571 10.6066 7.98047 10.5 7.98047C10.0311 7.98047 9.5726 8.08181 9.15385 8.27236C9.07189 8.24968 8.98854 8.22831 8.90382 8.20824L9.47756 5.91327ZM9.55064 9.76035C9.59438 9.73997 9.63614 9.71541 9.67528 9.68699C9.92677 9.55262 10.2097 9.48047 10.5 9.48047C10.6274 9.48047 10.7535 9.49437 10.876 9.52134C10.9065 9.53104 10.9375 9.53871 10.9686 9.54438C11.2568 9.62448 11.5222 9.77784 11.7374 9.99303C12.0061 10.2617 12.1784 10.6088 12.2321 10.9805H8.76794C8.82159 10.6088 8.99388 10.2617 9.26256 9.99303C9.35078 9.90482 9.44744 9.827 9.55064 9.76035ZM7.73072 9.52939C7.43086 9.49749 7.10614 9.48047 6.755 9.48047H5.75V9.71398C5.76898 10.1383 5.81154 10.5611 5.87743 10.9805H7.25962C7.29945 10.4639 7.46206 9.96679 7.73072 9.52939ZM8 12.4805H5.36443C5.2898 12.4916 5.2158 12.4911 5.14436 12.4805H4C3.9337 12.4805 3.87011 12.5068 3.82322 12.5537C3.77634 12.6006 3.75 12.6642 3.75 12.7305V13.2305C3.75 13.4544 3.84749 13.8709 4.0824 14.4479C4.30806 15.0021 4.63086 15.6337 5.00926 16.2598C5.78729 17.5472 6.71189 18.6661 7.3974 19.0944C7.61674 19.2314 7.75 19.4718 7.75 19.7305V20.7305C7.75 20.7968 7.77634 20.8604 7.82322 20.9072C7.87011 20.9541 7.93369 20.9805 8 20.9805H16C16.0663 20.9805 16.1299 20.9541 16.1768 20.9072C16.2237 20.8604 16.25 20.7968 16.25 20.7305V19.7305C16.25 19.4719 16.3832 19.2316 16.6025 19.0945C16.8701 18.9272 17.2442 18.5731 17.6735 18.0557C18.0919 17.5515 18.5255 16.9381 18.9177 16.3018C19.3102 15.665 19.6524 15.0197 19.8937 14.4542C20.1464 13.8621 20.25 13.4446 20.25 13.2305V12.7305C20.25 12.6642 20.2237 12.6006 20.1768 12.5537C20.1299 12.5068 20.0663 12.4805 20 12.4805H18.517C18.5054 12.4807 18.4938 12.4807 18.4821 12.4805H13H8ZM13.7404 10.9805H17.9362C18.1263 10.1819 18.1881 9.2217 18.2495 7.99769V7.48047H16.7435C14.6864 7.48047 13.3089 7.92455 12.4017 8.59494C12.5418 8.696 12.6744 8.80869 12.7981 8.93237C13.3484 9.48267 13.681 10.21 13.7404 10.9805Z" fill="#3D444F"/>
</g>
<defs>
<clipPath id="clip0_9010_14652">
<rect width="24" height="24" fill="white" transform="translate(0 0.730469)"/>
</clipPath>
</defs>
</svg>
