<svg width="24" height="25" viewBox="0 0 24 25" fill="none" xmlns="http://www.w3.org/2000/svg">
<path d="M21.6926 6.31447H2.3086C2.20459 6.31447 2.10161 6.29398 2.00552 6.25418C1.90943 6.21438 1.82212 6.15604 1.74857 6.0825C1.67503 6.00895 1.61669 5.92164 1.57689 5.82555C1.53709 5.72946 1.5166 5.62648 1.5166 5.52247C1.5166 5.41846 1.53709 5.31547 1.57689 5.21938C1.61669 5.12329 1.67503 5.03598 1.74857 4.96244C1.82212 4.8889 1.90943 4.83056 2.00552 4.79076C2.10161 4.75095 2.20459 4.73047 2.3086 4.73047H21.6926C21.7966 4.73047 21.8996 4.75095 21.9957 4.79076C22.0918 4.83056 22.1791 4.8889 22.2526 4.96244C22.3262 5.03598 22.3845 5.12329 22.4243 5.21938C22.4641 5.31547 22.4846 5.41846 22.4846 5.52247C22.4846 5.62648 22.4641 5.72946 22.4243 5.82555C22.3845 5.92164 22.3262 6.00895 22.2526 6.0825C22.1791 6.15604 22.0918 6.21438 21.9957 6.25418C21.8996 6.29398 21.7966 6.31447 21.6926 6.31447Z" fill="#3D444F"/>
<path d="M15.2316 13.5596H2.3086C2.09855 13.5596 1.8971 13.4761 1.74857 13.3276C1.60004 13.1791 1.5166 12.9776 1.5166 12.7676C1.5166 12.5575 1.60004 12.3561 1.74857 12.2076C1.8971 12.059 2.09855 11.9756 2.3086 11.9756H15.2316C15.4417 11.9756 15.6431 12.059 15.7916 12.2076C15.9402 12.3561 16.0236 12.5575 16.0236 12.7676C16.0236 12.9776 15.9402 13.1791 15.7916 13.3276C15.6431 13.4761 15.4417 13.5596 15.2316 13.5596Z" fill="#3D444F"/>
<path d="M21.6926 20.7305H2.3086C2.20459 20.7305 2.10161 20.71 2.00552 20.6702C1.90943 20.6304 1.82212 20.5721 1.74857 20.4985C1.67503 20.425 1.61669 20.3377 1.57689 20.2416C1.53709 20.1455 1.5166 20.0425 1.5166 19.9385C1.5166 19.8345 1.53709 19.7315 1.57689 19.6354C1.61669 19.5393 1.67503 19.452 1.74857 19.3785C1.82212 19.3049 1.90943 19.2466 2.00552 19.2068C2.10161 19.167 2.20459 19.1465 2.3086 19.1465H21.6926C21.7966 19.1465 21.8996 19.167 21.9957 19.2068C22.0918 19.2466 22.1791 19.3049 22.2526 19.3785C22.3262 19.452 22.3845 19.5393 22.4243 19.6354C22.4641 19.7315 22.4846 19.8345 22.4846 19.9385C22.4846 20.0425 22.4641 20.1455 22.4243 20.2416C22.3845 20.3377 22.3262 20.425 22.2526 20.4985C22.1791 20.5721 22.0918 20.6304 21.9957 20.6702C21.8996 20.71 21.7966 20.7305 21.6926 20.7305Z" fill="#3D444F"/>
</svg>
