<svg width="24" height="25" viewBox="0 0 24 25" fill="none" xmlns="http://www.w3.org/2000/svg">
<path d="M9 22.7305C8.45 22.7305 7.97917 22.5346 7.5875 22.143C7.19583 21.7513 7 21.2805 7 20.7305V17.7305H4C3.45 17.7305 2.97917 17.5346 2.5875 17.143C2.19583 16.7513 2 16.2805 2 15.7305V9.73047C2 9.18047 2.19583 8.70964 2.5875 8.31797C2.97917 7.9263 3.45 7.73047 4 7.73047H7V4.73047C7 4.18047 7.19583 3.70964 7.5875 3.31797C7.97917 2.9263 8.45 2.73047 9 2.73047H15C15.55 2.73047 16.0208 2.9263 16.4125 3.31797C16.8042 3.70964 17 4.18047 17 4.73047V7.73047H20C20.55 7.73047 21.0208 7.9263 21.4125 8.31797C21.8042 8.70964 22 9.18047 22 9.73047V15.7305C22 16.2805 21.8042 16.7513 21.4125 17.143C21.0208 17.5346 20.55 17.7305 20 17.7305H17V20.7305C17 21.2805 16.8042 21.7513 16.4125 22.143C16.0208 22.5346 15.55 22.7305 15 22.7305H9ZM4 11.7305H9C9.16667 11.7305 9.325 11.7721 9.475 11.8555C9.625 11.9388 9.74167 12.0471 9.825 12.1805L10.7 13.4805L12.05 9.43047C12.1167 9.23047 12.2375 9.0638 12.4125 8.93047C12.5875 8.79714 12.7833 8.73047 13 8.73047C13.1667 8.73047 13.325 8.77214 13.475 8.85547C13.625 8.9388 13.7417 9.04714 13.825 9.18047L15.525 11.7305H20V9.73047H16C15.7167 9.73047 15.4792 9.63464 15.2875 9.44297C15.0958 9.2513 15 9.0138 15 8.73047V4.73047H9V8.73047C9 9.0138 8.90417 9.2513 8.7125 9.44297C8.52083 9.63464 8.28333 9.73047 8 9.73047H4V11.7305ZM4 13.7305V15.7305H8C8.28333 15.7305 8.52083 15.8263 8.7125 16.018C8.90417 16.2096 9 16.4471 9 16.7305V20.7305H15V16.7305C15 16.4471 15.0958 16.2096 15.2875 16.018C15.4792 15.8263 15.7167 15.7305 16 15.7305H20V13.7305H15C14.8333 13.7305 14.675 13.6888 14.525 13.6055C14.375 13.5221 14.25 13.4138 14.15 13.2805L13.3 11.9805L11.95 16.0305C11.8833 16.2305 11.7583 16.3971 11.575 16.5305C11.3917 16.6638 11.1917 16.7305 10.975 16.7305C10.8083 16.7305 10.65 16.6888 10.5 16.6055C10.35 16.5221 10.2333 16.4138 10.15 16.2805L8.45 13.7305H4Z" fill="#3D444F"/>
</svg>
