<svg width="25" height="25" viewBox="0 0 25 25" fill="none" xmlns="http://www.w3.org/2000/svg">
<path d="M6.03857 20.8175H8.64886C8.9892 20.8175 9.32746 20.858 9.65739 20.939L12.4155 21.6092C13.0139 21.755 13.6374 21.7692 14.242 21.6518L17.2915 21.0585C18.0971 20.9015 18.8382 20.5158 19.4189 19.9509L21.5765 17.8521C22.1926 17.2537 22.1926 16.2828 21.5765 15.6834C21.0217 15.1438 20.1433 15.0831 19.5157 15.5407L17.0012 17.3752C16.6411 17.6385 16.2029 17.7802 15.7522 17.7802H13.3241L14.8696 17.7801C15.7408 17.7801 16.4464 17.0937 16.4464 16.2463V15.9395C16.4464 15.2359 15.9541 14.6223 15.2526 14.4522L12.8672 13.8721C12.479 13.7779 12.0814 13.7304 11.6817 13.7304C10.7169 13.7304 8.97047 14.5292 8.97047 14.5292L6.03857 15.7552M2.03857 15.3304L2.03857 21.1304C2.03857 21.6904 2.03857 21.9704 2.14757 22.1844C2.24344 22.3725 2.39642 22.5255 2.58458 22.6214C2.7985 22.7304 3.07852 22.7304 3.63857 22.7304H4.43857C4.99863 22.7304 5.27865 22.7304 5.49256 22.6214C5.68073 22.5255 5.83371 22.3725 5.92958 22.1844C6.03857 21.9704 6.03857 21.6904 6.03857 21.1304V15.3304C6.03857 14.7703 6.03857 14.4903 5.92958 14.2764C5.83371 14.0882 5.68073 13.9352 5.49256 13.8394C5.27865 13.7304 4.99863 13.7304 4.43857 13.7304H3.63857C3.07852 13.7304 2.7985 13.7304 2.58458 13.8394C2.39642 13.9352 2.24344 14.0882 2.14757 14.2764C2.03857 14.4903 2.03857 14.7703 2.03857 15.3304ZM17.2299 4.32262C16.6331 3.07376 15.2572 2.41215 13.919 3.05074C12.5809 3.68932 12.0108 5.20374 12.571 6.53319C12.9173 7.35482 13.9093 8.95037 14.6167 10.0494C14.878 10.4555 15.0087 10.6585 15.1996 10.7773C15.3633 10.8792 15.5682 10.9341 15.761 10.9277C15.9857 10.9203 16.2003 10.8098 16.6297 10.5888C17.7918 9.99068 19.4487 9.10492 20.1594 8.56649C21.3093 7.69528 21.5942 6.09394 20.7332 4.8766C19.8723 3.65927 18.3712 3.53948 17.2299 4.32262Z" stroke="#3D444F" stroke-width="1.5" stroke-linecap="round" stroke-linejoin="round"/>
</svg>
