<svg width="23" height="23" viewBox="0 0 23 23" fill="none" xmlns="http://www.w3.org/2000/svg">
<path d="M11.9616 2.56372C6.90159 2.56372 2.79492 6.67039 2.79492 11.7304C2.79492 16.7904 6.90159 20.8971 11.9616 20.8971C17.0216 20.8971 21.1283 16.7904 21.1283 11.7304C21.1283 6.67039 17.0216 2.56372 11.9616 2.56372ZM11.9616 19.0637C7.91909 19.0637 4.62826 15.7729 4.62826 11.7304C4.62826 7.68789 7.91909 4.39705 11.9616 4.39705C16.0041 4.39705 19.2949 7.68789 19.2949 11.7304C19.2949 15.7729 16.0041 19.0637 11.9616 19.0637ZM11.0449 15.3971H12.8783V17.2304H11.0449V15.3971ZM12.5208 6.26705C10.6324 5.99205 8.96409 7.15622 8.45992 8.82455C8.29492 9.35622 8.69826 9.89705 9.25742 9.89705H9.44075C9.81659 9.89705 10.1191 9.63122 10.2474 9.28289C10.5408 8.46705 11.4116 7.90789 12.3558 8.10955C13.2266 8.29289 13.8683 9.14539 13.7949 10.0346C13.7033 11.2629 12.3099 11.5287 11.5491 12.6746C11.5491 12.6837 11.5399 12.6837 11.5399 12.6929C11.5308 12.7112 11.5216 12.7204 11.5124 12.7387C11.4299 12.8762 11.3474 13.0321 11.2833 13.1971C11.2741 13.2246 11.2558 13.2429 11.2466 13.2704C11.2374 13.2887 11.2374 13.3071 11.2283 13.3346C11.1183 13.6462 11.0449 14.0221 11.0449 14.4804H12.8783C12.8783 14.0954 12.9791 13.7746 13.1349 13.4996C13.1533 13.4721 13.1624 13.4446 13.1808 13.4171C13.2541 13.2887 13.3458 13.1696 13.4374 13.0596C13.4466 13.0504 13.4558 13.0321 13.4649 13.0229C13.5566 12.9129 13.6574 12.8121 13.7674 12.7112C14.6474 11.8771 15.8391 11.1987 15.5916 9.44789C15.3716 7.85289 14.1158 6.50539 12.5208 6.26705Z" fill="#3D444F"/>
</svg>
