<svg width="25" height="24" viewBox="0 0 25 24" fill="none" xmlns="http://www.w3.org/2000/svg">
<path d="M18.0036 22.5004H6.69363C5.40688 22.4977 4.1738 21.9844 3.26533 21.0731C2.35686 20.1618 1.84731 18.9271 1.84864 17.6404V10.3954C1.8847 9.66411 2.06959 8.9479 2.39198 8.29056C2.71438 7.63321 3.1675 7.04856 3.72364 6.57237L8.98864 2.46537C9.82075 1.8624 10.8164 1.52635 11.8437 1.5017C12.871 1.47706 13.8816 1.76499 14.7416 2.32737L20.7776 6.56137C21.3895 7.03388 21.8915 7.63354 22.2491 8.31896C22.6066 9.00437 22.8112 9.75921 22.8486 10.5314V17.6494C22.8481 18.9347 22.3377 20.1674 21.4293 21.0768C20.521 21.9863 19.289 22.4983 18.0036 22.5004ZM9.88764 3.61937L4.62264 7.72737C3.85753 8.41426 3.38836 9.37089 3.31364 10.3964V17.6424C3.3131 18.5402 3.66862 19.4015 4.30224 20.0376C4.93585 20.6736 5.79585 21.0325 6.69363 21.0354H18.0036C18.9003 21.0346 19.76 20.6778 20.3938 20.0435C21.0276 19.4091 21.3836 18.5491 21.3836 17.6524V10.5324C21.3473 9.99617 21.2001 9.47336 20.9511 8.99706C20.7022 8.52075 20.3571 8.10133 19.9376 7.76537L13.8986 3.52737C13.2949 3.14703 12.5926 2.95292 11.8793 2.96928C11.166 2.98564 10.4732 3.21175 9.88764 3.61937Z" fill="#3D444F"/>
<path d="M12.3486 18.6124C12.1501 18.6111 11.9601 18.5316 11.8198 18.3913C11.6794 18.2509 11.5999 18.0609 11.5986 17.8624V14.8624C11.5986 14.6635 11.6777 14.4727 11.8183 14.332C11.959 14.1914 12.1497 14.1124 12.3486 14.1124C12.5475 14.1124 12.7383 14.1914 12.879 14.332C13.0196 14.4727 13.0986 14.6635 13.0986 14.8624V17.8624C13.0973 18.0609 13.0179 18.2509 12.8775 18.3913C12.7371 18.5316 12.5471 18.6111 12.3486 18.6124Z" fill="#3D444F"/>
</svg>
