<svg width="25" height="25" viewBox="0 0 25 25" fill="none" xmlns="http://www.w3.org/2000/svg">
<path d="M12.8845 22.7306H4.46449C3.30449 22.7306 2.35449 21.8006 2.35449 20.6606V5.82057C2.35449 3.20057 4.30449 2.01057 6.69449 3.18057L11.1345 5.36057C12.0945 5.83057 12.8845 7.08057 12.8845 8.14057V22.7306Z" stroke="#3D444F" stroke-width="1.5" stroke-linecap="round" stroke-linejoin="round"/>
<path d="M22.3548 15.7906V19.5706C22.3548 21.7306 21.3548 22.7306 19.1948 22.7306H12.8848V11.1506L13.3548 11.2506L17.8548 12.2606L19.8848 12.7106C21.2048 13.0006 22.2848 13.6806 22.3448 15.6006C22.3548 15.6606 22.3548 15.7206 22.3548 15.7906Z" stroke="#3D444F" stroke-width="1.5" stroke-linecap="round" stroke-linejoin="round"/>
<path d="M5.88477 9.73047H9.35477" stroke="#3D444F" stroke-width="1.5" stroke-linecap="round" stroke-linejoin="round"/>
<path d="M5.88477 13.7305H9.35477" stroke="#3D444F" stroke-width="1.5" stroke-linecap="round" stroke-linejoin="round"/>
<path d="M17.8545 12.2605V15.4805C17.8545 16.7205 16.8445 17.7305 15.6045 17.7305C14.3645 17.7305 13.3545 16.7205 13.3545 15.4805V11.2505L17.8545 12.2605Z" stroke="#3D444F" stroke-width="1.5" stroke-linecap="round" stroke-linejoin="round"/>
<path d="M22.3445 15.6005C22.2845 16.7805 21.3045 17.7305 20.1045 17.7305C18.8645 17.7305 17.8545 16.7205 17.8545 15.4805V12.2605L19.8845 12.7105C21.2045 13.0005 22.2845 13.6805 22.3445 15.6005Z" stroke="#3D444F" stroke-width="1.5" stroke-linecap="round" stroke-linejoin="round"/>
</svg>
