<svg width="24" height="24" viewBox="0 0 24 24" fill="none" xmlns="http://www.w3.org/2000/svg">
<path d="M4.268 18.8451C4.493 20.5151 5.876 21.8241 7.56 21.9011C8.976 21.9661 10.415 22.0001 12 22.0001C13.585 22.0001 15.024 21.9661 16.44 21.9001C18.124 21.8241 19.507 20.5151 19.732 18.8451C19.879 17.7551 20 16.6381 20 15.5001C20 14.3621 19.879 13.2451 19.732 12.1551C19.507 10.4851 18.124 9.17606 16.44 9.09906C14.961 9.03146 13.4806 8.99845 12 9.00006C10.415 9.00006 8.976 9.03406 7.56 9.10006C5.876 9.17606 4.493 10.4851 4.268 12.1551C4.12 13.2451 4 14.3621 4 15.5001C4 16.6381 4.121 17.7551 4.268 18.8451Z" stroke="#3D444F" stroke-width="1.5" stroke-linecap="round" stroke-linejoin="round"/>
<path d="M7.5 9V6.5C7.5 5.30653 7.97411 4.16193 8.81802 3.31802C9.66193 2.47411 10.8065 2 12 2C13.1935 2 14.3381 2.47411 15.182 3.31802C16.0259 4.16193 16.5 5.30653 16.5 6.5V9M8 17.5V16C8 14.9391 8.42143 13.9217 9.17157 13.1716C9.92172 12.4214 10.9391 12 12 12C13.0609 12 14.0783 12.4214 14.8284 13.1716C15.5786 13.9217 16 14.9391 16 16V17.5" stroke="#3D444F" stroke-width="1.5" stroke-linecap="round" stroke-linejoin="round"/>
<path d="M10.5 19V16C10.5 15.6022 10.658 15.2206 10.9393 14.9393C11.2206 14.658 11.6022 14.5 12 14.5C12.3978 14.5 12.7794 14.658 13.0607 14.9393C13.342 15.2206 13.5 15.6022 13.5 16M13.5 19V18" stroke="#3D444F" stroke-width="1.5" stroke-linecap="round" stroke-linejoin="round"/>
</svg>
