<svg width="25" height="25" viewBox="0 0 25 25" fill="none" xmlns="http://www.w3.org/2000/svg">
<path d="M4.65277 19.5755C4.87777 21.2455 6.26077 22.5545 7.94477 22.6315C9.36077 22.6965 10.7998 22.7305 12.3848 22.7305C13.9698 22.7305 15.4088 22.6965 16.8248 22.6305C18.5088 22.5545 19.8918 21.2455 20.1168 19.5755C20.2638 18.4855 20.3848 17.3685 20.3848 16.2305C20.3848 15.0925 20.2638 13.9755 20.1168 12.8855C19.8918 11.2155 18.5088 9.90652 16.8248 9.82952C15.3457 9.76193 13.8653 9.72892 12.3848 9.73052C10.7998 9.73052 9.36077 9.76452 7.94477 9.83052C6.26077 9.90652 4.87777 11.2155 4.65277 12.8855C4.50477 13.9755 4.38477 15.0925 4.38477 16.2305C4.38477 17.3685 4.50577 18.4855 4.65277 19.5755Z" stroke="#3D444F" stroke-width="1.5" stroke-linecap="round" stroke-linejoin="round"/>
<path d="M7.88477 9.73047V7.23047C7.88477 6.03699 8.35887 4.8924 9.20279 4.04849C10.0467 3.20457 11.1913 2.73047 12.3848 2.73047C13.5782 2.73047 14.7228 3.20457 15.5667 4.04849C16.4107 4.8924 16.8848 6.03699 16.8848 7.23047V9.73047M8.38477 18.2305V16.7305C8.38477 15.6696 8.80619 14.6522 9.55634 13.902C10.3065 13.1519 11.3239 12.7305 12.3848 12.7305C13.4456 12.7305 14.463 13.1519 15.2132 13.902C15.9633 14.6522 16.3848 15.6696 16.3848 16.7305V18.2305" stroke="#3D444F" stroke-width="1.5" stroke-linecap="round" stroke-linejoin="round"/>
<path d="M10.8848 19.7305V16.7305C10.8848 16.3326 11.0428 15.9511 11.3241 15.6698C11.6054 15.3885 11.9869 15.2305 12.3848 15.2305C12.7826 15.2305 13.1641 15.3885 13.4454 15.6698C13.7267 15.9511 13.8848 16.3326 13.8848 16.7305M13.8848 19.7305V18.7305" stroke="#3D444F" stroke-width="1.5" stroke-linecap="round" stroke-linejoin="round"/>
</svg>
