<svg width="25" height="25" viewBox="0 0 25 25" fill="none" xmlns="http://www.w3.org/2000/svg">
<path d="M12.3848 22.7305C17.9076 22.7305 22.3848 18.2533 22.3848 12.7305C22.3848 7.20762 17.9076 2.73047 12.3848 2.73047C6.86192 2.73047 2.38477 7.20762 2.38477 12.7305C2.38477 18.2533 6.86192 22.7305 12.3848 22.7305Z" stroke="#3D444F" stroke-width="1.5" stroke-linecap="round" stroke-linejoin="round"/>
<path d="M14.3848 6.46847C14.3848 6.46847 13.2698 6.96847 12.4868 6.58747C11.5308 6.12147 10.5838 4.17747 12.4768 2.73047M8.39377 9.73047H8.38477M16.3848 9.73047H16.3758M8.38477 15.7305C8.8505 16.3514 9.45442 16.8555 10.1487 17.2026C10.843 17.5497 11.6085 17.7305 12.3848 17.7305C13.161 17.7305 13.9266 17.5497 14.6208 17.2026C15.3151 16.8555 15.919 16.3514 16.3848 15.7305" stroke="#3D444F" stroke-width="1.5" stroke-linecap="round" stroke-linejoin="round"/>
</svg>
