<svg width="17" height="17" viewBox="0 0 17 17" fill="none" xmlns="http://www.w3.org/2000/svg">
<path d="M0.961914 0.730713H16.9619V16.7307H0.961914V0.730713Z" fill="#ED232A"/>
<path d="M3.76172 3.53076H14.1629V13.9319H3.76172V3.53076Z" fill="white"/>
<path d="M8.16211 0.730469H9.76167V16.7305H8.16211V0.730469Z" fill="white"/>
<path d="M0.961914 7.93384H16.9619V9.5334H0.961914V7.93384Z" fill="white"/>
<path d="M3.76172 3.53076H14.1629V13.9319H3.76172V3.53076Z" fill="white"/>
<path d="M8.16211 0.730469H9.76167V16.7305H8.16211V0.730469Z" fill="white"/>
<path d="M0.961914 7.93384H16.9619V9.5334H0.961914V7.93384Z" fill="white"/>
<path d="M3.76172 3.53076H14.1629V13.9319H3.76172V3.53076Z" fill="white"/>
<path d="M8.16211 0.730469H9.76167V16.7305H8.16211V0.730469Z" fill="white"/>
<path d="M0.961914 7.93384H16.9619V9.5334H0.961914V7.93384Z" fill="white"/>
<path d="M6.5625 6.33081H11.3625V11.1312H6.5625V6.33081Z" fill="#004C8F"/>
</svg>
