<svg width="32" height="18" viewBox="0 0 32 18" fill="none" xmlns="http://www.w3.org/2000/svg">
<g clip-path="url(#clip0_9010_14670)">
<path d="M32 0.730469H0V6.2528H32V0.730469Z" fill="#F79633"/>
<path d="M32 6.25269H0V12.0924H32V6.25269Z" fill="white"/>
<path d="M32 12.0925H0V17.6149H32V12.0925Z" fill="#4F8035"/>
<path d="M15.9998 6.90869C14.7584 6.90869 13.752 7.92224 13.752 9.17265C13.752 10.4231 14.7584 11.4366 15.9998 11.4366C17.2412 11.4366 18.2477 10.4231 18.2477 9.17265C18.2477 7.92224 17.2412 6.90869 15.9998 6.90869ZM17.2826 10.684C17.2699 10.6438 17.233 10.6146 17.189 10.6146C17.1346 10.6146 17.0904 10.6591 17.0904 10.714C17.0904 10.7495 17.1091 10.7805 17.137 10.7981C17.0455 10.863 16.9487 10.9208 16.8466 10.9696C16.8408 10.9203 16.7997 10.8818 16.7492 10.8818C16.6948 10.8818 16.6506 10.9262 16.6506 10.9811C16.6506 11.0045 16.6591 11.0259 16.6726 11.043C16.5707 11.0803 16.4646 11.1087 16.3555 11.1287C16.3567 11.1224 16.3575 11.116 16.3575 11.1094C16.3575 11.0545 16.3132 11.0102 16.2589 11.0102C16.2045 11.0102 16.1603 11.0545 16.1603 11.1094C16.1603 11.1253 16.1645 11.1402 16.1711 11.1536C16.1145 11.1584 16.0576 11.1615 15.9997 11.1615C15.9464 11.1615 15.8939 11.1587 15.8416 11.1546C15.8498 11.1401 15.8549 11.1235 15.8549 11.1058C15.8549 11.051 15.8107 11.0065 15.7564 11.0065C15.702 11.0065 15.6578 11.051 15.6578 11.1058C15.6578 11.1148 15.6594 11.1235 15.6617 11.1319C15.5459 11.1118 15.4333 11.0819 15.3253 11.0425C15.3491 11.0243 15.3645 10.9958 15.3645 10.9635C15.3645 10.9087 15.3204 10.8643 15.2659 10.8643C15.2114 10.8643 15.1673 10.9087 15.1673 10.9635C15.1673 10.968 15.1682 10.9725 15.1688 10.977C15.0673 10.9296 14.9707 10.8738 14.8795 10.8104C14.9171 10.7964 14.9442 10.7603 14.9442 10.7175C14.9442 10.6627 14.8999 10.6183 14.8456 10.6183C14.7912 10.6183 14.7513 10.6591 14.7477 10.7107C14.6536 10.6329 14.5669 10.5464 14.4884 10.4525C14.5401 10.4494 14.5812 10.4067 14.5812 10.3538C14.5812 10.3009 14.537 10.2545 14.4826 10.2545C14.4389 10.2545 14.4022 10.2835 14.3894 10.3232C14.323 10.2291 14.2643 10.1291 14.2146 10.0238C14.2167 10.0238 14.2188 10.0244 14.2209 10.0244C14.2754 10.0244 14.3194 9.97989 14.3194 9.92505C14.3194 9.87022 14.2754 9.82584 14.2209 9.82584C14.1909 9.82584 14.1644 9.83951 14.1464 9.86073C14.1059 9.75026 14.0755 9.63496 14.0549 9.51613C14.0663 9.52079 14.0787 9.52353 14.0917 9.52353C14.1462 9.52353 14.1903 9.47898 14.1903 9.42415C14.1903 9.36931 14.1462 9.32493 14.0917 9.32493C14.0695 9.32493 14.0493 9.33265 14.0327 9.34503C14.0279 9.28827 14.0248 9.23086 14.0248 9.17281C14.0248 9.11476 14.0274 9.06025 14.0319 9.00477C14.0478 9.01603 14.0671 9.02262 14.088 9.02262C14.1424 9.02262 14.1866 8.97824 14.1866 8.92341C14.1866 8.86857 14.1424 8.82403 14.088 8.82403C14.0761 8.82403 14.0649 8.82644 14.0544 8.8303C14.0747 8.71259 14.1051 8.59826 14.1451 8.48859C14.1631 8.51175 14.1909 8.52702 14.2225 8.52702C14.2768 8.52702 14.321 8.48248 14.321 8.42765C14.321 8.37281 14.2768 8.32843 14.2225 8.32843C14.2186 8.32843 14.2151 8.32907 14.2114 8.32956C14.2609 8.22326 14.3193 8.12196 14.3858 8.02708C14.4005 8.06359 14.4357 8.08948 14.4772 8.08948C14.5317 8.08948 14.5758 8.04493 14.5758 7.9901C14.5758 7.93945 14.5378 7.89796 14.4891 7.89201C14.5611 7.80598 14.6401 7.72622 14.7255 7.6537C14.7345 7.6992 14.7742 7.73346 14.8221 7.73346C14.8765 7.73346 14.9207 7.68907 14.9207 7.63424C14.9207 7.595 14.8978 7.56139 14.8652 7.54531C14.9607 7.47762 15.0622 7.41828 15.1691 7.36843C15.1682 7.37406 15.1673 7.37985 15.1673 7.38564C15.1673 7.44047 15.2116 7.48485 15.2659 7.48485C15.3203 7.48485 15.3645 7.44047 15.3645 7.38564C15.3645 7.35187 15.3476 7.32212 15.322 7.30411C15.429 7.26471 15.5406 7.23496 15.6552 7.2147C15.6549 7.2184 15.6541 7.22194 15.6541 7.2258C15.6541 7.28063 15.6982 7.32517 15.7527 7.32517C15.8072 7.32517 15.8512 7.28063 15.8512 7.2258C15.8512 7.21342 15.8487 7.20168 15.8447 7.19074C15.8958 7.18672 15.9474 7.18399 15.9995 7.18399C16.0576 7.18399 16.1148 7.18704 16.1716 7.19203C16.1666 7.20409 16.1635 7.21727 16.1635 7.2311C16.1635 7.28594 16.2076 7.33032 16.2621 7.33032C16.3166 7.33032 16.3607 7.28594 16.3607 7.2311C16.3607 7.22644 16.3599 7.2221 16.3592 7.2176C16.4718 7.2385 16.581 7.26857 16.6858 7.30781C16.6704 7.32533 16.6607 7.34817 16.6607 7.37358C16.6607 7.42841 16.7048 7.47295 16.7593 7.47295C16.8138 7.47295 16.8532 7.43243 16.8571 7.38129C16.9566 7.42986 17.0513 7.48694 17.1409 7.55094C17.1107 7.56799 17.0899 7.59999 17.0899 7.63746C17.0899 7.69229 17.134 7.73667 17.1885 7.73667C17.2342 7.73667 17.2721 7.70531 17.2834 7.66286C17.3668 7.7349 17.4445 7.8137 17.5149 7.8986C17.4759 7.91179 17.4476 7.94861 17.4476 7.99235C17.4476 8.04718 17.4918 8.09173 17.5461 8.09173C17.5801 8.09173 17.6098 8.07452 17.6275 8.04831C17.6888 8.13804 17.7428 8.23307 17.7889 8.33261C17.7883 8.33261 17.7877 8.33245 17.7868 8.33245C17.7325 8.33245 17.6883 8.37683 17.6883 8.43183C17.6883 8.48682 17.7325 8.5312 17.7868 8.5312C17.8148 8.5312 17.8398 8.51947 17.8578 8.50065C17.8972 8.61112 17.9269 8.7261 17.9465 8.84445C17.9349 8.83963 17.9222 8.83689 17.9091 8.83689C17.8547 8.83689 17.8105 8.88127 17.8105 8.93611C17.8105 8.99094 17.8545 9.03549 17.9091 9.03549C17.9309 9.03549 17.9509 9.02809 17.9673 9.01603C17.9713 9.06797 17.974 9.12039 17.974 9.17329C17.974 9.23086 17.9711 9.28763 17.9663 9.34391C17.952 9.33571 17.9356 9.33056 17.9179 9.33056C17.8636 9.33056 17.8193 9.37494 17.8193 9.42978C17.8193 9.48461 17.8634 9.52915 17.9179 9.52915C17.9264 9.52915 17.9346 9.52771 17.9425 9.52562C17.9224 9.63866 17.8935 9.74849 17.8552 9.85398C17.8372 9.83468 17.8119 9.82246 17.7836 9.82246C17.7293 9.82246 17.6851 9.867 17.6851 9.92184C17.6851 9.97667 17.7293 10.0211 17.7836 10.0211C17.7844 10.0211 17.7851 10.0209 17.7859 10.0209C17.7386 10.1219 17.683 10.218 17.6201 10.3089C17.6026 10.2817 17.5722 10.2637 17.5376 10.2637C17.4832 10.2637 17.439 10.3081 17.439 10.3629C17.439 10.407 17.4677 10.444 17.507 10.4568C17.4382 10.5387 17.363 10.6147 17.2821 10.6845L17.2826 10.684Z" fill="#0A3C70"/>
<path d="M15.9998 8.78247C15.7858 8.78247 15.6123 8.95726 15.6123 9.17274C15.6123 9.38822 15.7858 9.56301 15.9998 9.56301C16.2139 9.56301 16.3874 9.38822 16.3874 9.17274C16.3874 8.95726 16.2139 8.78247 15.9998 8.78247Z" fill="#0A3C70"/>
<path d="M16.0956 8.38415L16.0054 7.23682H16.0051L15.915 8.38415L16.0048 8.77764V8.78247L16.0054 8.78005L16.0059 8.78247V8.77764L16.0956 8.38415Z" fill="#0A3C70"/>
<path d="M15.216 9.08911L14.0767 9.17997V9.18029L15.216 9.27114L15.6065 9.18061H15.6114L15.609 9.18013L15.6114 9.17964H15.6065L15.216 9.08911Z" fill="#0A3C70"/>
<path d="M15.5161 8.5482L14.6468 7.80127L14.6465 7.80143L15.3883 8.67701L15.7282 8.89136L15.7314 8.89474L15.7301 8.89265L15.7322 8.89393L15.7289 8.89056L15.5161 8.5482Z" fill="#0A3C70"/>
<path d="M15.3813 8.70384L14.3468 8.21436L14.3467 8.21468L15.2917 8.86191L15.6757 8.97834L15.6797 8.98059L15.678 8.97898L15.6802 8.97962L15.6762 8.97737L15.3813 8.70384Z" fill="#0A3C70"/>
<path d="M15.2648 8.88036L14.1421 8.66504V8.66536L15.2171 9.05595L15.6176 9.07252L15.6223 9.0738L15.62 9.07268L15.6225 9.07284L15.6179 9.07155L15.2648 8.88036Z" fill="#0A3C70"/>
<path d="M15.6905 8.45035L15.027 7.51318L15.0269 7.51334L15.5356 8.5441L15.8137 8.83499L15.8161 8.83901L15.8153 8.83676L15.8169 8.83853L15.8145 8.83451L15.6905 8.45035Z" fill="#0A3C70"/>
<path d="M15.8902 8.38623L15.5252 7.29565H15.5249L15.715 8.43061L15.8973 8.79033L15.8984 8.79483V8.79242L15.8994 8.79467L15.8983 8.79001L15.8902 8.38623Z" fill="#0A3C70"/>
<path d="M16.7943 9.08936L17.9336 9.18021V9.18053L16.7943 9.27139L16.4036 9.18085H16.3989L16.4013 9.18037L16.3989 9.17989H16.4036L16.7943 9.08936Z" fill="#0A3C70"/>
<path d="M16.4944 8.54845L17.3637 7.80151L17.3639 7.80167L16.6223 8.67725L16.2825 8.8916L16.2791 8.89498L16.2804 8.89289L16.2783 8.89418L16.2815 8.8908L16.4944 8.54845Z" fill="#0A3C70"/>
<path d="M16.6292 8.70433L17.6636 8.21484L17.6638 8.215L16.7187 8.8624L16.3349 8.97882L16.3307 8.98108L16.3325 8.97947L16.3301 8.98011L16.3343 8.97786L16.6292 8.70433Z" fill="#0A3C70"/>
<path d="M16.746 8.8806L17.8685 8.66528L17.8687 8.6656L16.7937 9.0562L16.3932 9.07276L16.3885 9.07405L16.3908 9.07292L16.3882 9.07308L16.3928 9.0718L16.746 8.8806Z" fill="#0A3C70"/>
<path d="M16.3199 8.45059L16.9832 7.51343L16.9834 7.51359L16.4748 8.54434L16.1967 8.83524L16.1943 8.83926L16.1951 8.83701L16.1934 8.83877L16.1959 8.83475L16.3199 8.45059Z" fill="#0A3C70"/>
<path d="M16.1205 8.38663L16.4855 7.2959L16.4857 7.29606L16.2958 8.43101L16.1134 8.79073L16.1123 8.79523V8.79282L16.1113 8.79507L16.1125 8.79041L16.1205 8.38663Z" fill="#0A3C70"/>
<path d="M16.0956 9.96472L16.0054 11.1121H16.0051L15.915 9.96472L16.0048 9.57107V9.56641L16.0054 9.56882L16.0059 9.56641V9.57107L16.0956 9.96472Z" fill="#0A3C70"/>
<path d="M15.5161 9.80047L14.6468 10.5476L14.6465 10.5474L15.3883 9.67183L15.7282 9.45748L15.7314 9.4541L15.7301 9.45619L15.7322 9.45491L15.7289 9.45828L15.5161 9.80047Z" fill="#0A3C70"/>
<path d="M15.3813 9.64491L14.3468 10.1344L14.3467 10.1341L15.2917 9.48684L15.6757 9.37042L15.6797 9.36816L15.678 9.36977L15.6802 9.36897L15.6762 9.37138L15.3813 9.64491Z" fill="#0A3C70"/>
<path d="M15.2648 9.46835L14.1421 9.68367V9.68351L15.2171 9.29291L15.6176 9.27619L15.6223 9.2749L15.62 9.27603H15.6225L15.6179 9.27731L15.2648 9.46835Z" fill="#0A3C70"/>
<path d="M15.6905 9.89843L15.027 10.8358L15.0269 10.8356L15.5356 9.80484L15.8137 9.51395L15.8161 9.50977L15.8153 9.51218L15.8169 9.51041L15.8145 9.51443L15.6905 9.89843Z" fill="#0A3C70"/>
<path d="M15.8902 9.96231L15.5252 11.053H15.5249L15.715 9.91809L15.8973 9.55837L15.8984 9.55371V9.55612L15.8994 9.55403L15.8983 9.5587L15.8902 9.96231Z" fill="#0A3C70"/>
<path d="M16.4944 9.80023L17.3637 10.5473L17.3639 10.5472L16.6223 9.67159L16.2825 9.45723L16.2791 9.45386L16.2804 9.45595L16.2783 9.45466L16.2815 9.45804L16.4944 9.80023Z" fill="#0A3C70"/>
<path d="M16.6292 9.64466L17.6636 10.1342L17.6638 10.1338L16.7187 9.48659L16.3349 9.37017L16.3307 9.36792L16.3325 9.36953L16.3301 9.36872L16.3343 9.37114L16.6292 9.64466Z" fill="#0A3C70"/>
<path d="M16.746 9.4681L17.8685 9.68342L17.8687 9.68326L16.7937 9.29267L16.3932 9.27594L16.3885 9.27466L16.3908 9.27594L16.3882 9.27578L16.3928 9.27707L16.746 9.4681Z" fill="#0A3C70"/>
<path d="M16.3199 9.89794L16.9832 10.8353L16.9834 10.8351L16.4748 9.80435L16.1967 9.51346L16.1943 9.50928L16.1951 9.51169L16.1934 9.50992L16.1959 9.51394L16.3199 9.89794Z" fill="#0A3C70"/>
<path d="M16.1205 9.96207L16.4855 11.0528H16.4857L16.2958 9.91769L16.1134 9.55813L16.1123 9.55347V9.55588L16.1113 9.55379L16.1125 9.55845L16.1205 9.96207Z" fill="#0A3C70"/>
</g>
<defs>
<clipPath id="clip0_9010_14670">
<rect width="32" height="16.8844" fill="white" transform="translate(0 0.730469)"/>
</clipPath>
</defs>
</svg>
