<svg width="24" height="25" viewBox="0 0 24 25" fill="none" xmlns="http://www.w3.org/2000/svg">
<path d="M12 4C13.78 4 15.5201 4.52784 17.0001 5.51677C18.4802 6.50571 19.6337 7.91131 20.3149 9.55585C20.9961 11.2004 21.1743 13.01 20.8271 14.7558C20.4798 16.5016 19.6226 18.1053 18.364 19.364C17.1053 20.6226 15.5016 21.4798 13.7558 21.8271C12.01 22.1743 10.2004 21.9961 8.55585 21.3149C6.91131 20.6337 5.50571 19.4802 4.51677 18.0001C3.52784 16.5201 3 14.78 3 13C3.00204 10.6137 3.95091 8.32568 5.63829 6.63829C7.32568 4.95091 9.61368 4.00204 12 4ZM12 20.7443C13.5317 20.7443 15.0289 20.2901 16.3025 19.4391C17.576 18.5882 18.5686 17.3787 19.1548 15.9636C19.7409 14.5485 19.8943 12.9914 19.5955 11.4892C19.2967 9.98692 18.5591 8.60702 17.476 7.52396C16.393 6.4409 15.0131 5.70333 13.5108 5.40452C12.0086 5.1057 10.4515 5.25907 9.03639 5.84521C7.62131 6.43136 6.41181 7.42396 5.56086 8.6975C4.70991 9.97105 4.25571 11.4683 4.25571 13C4.25821 15.0531 5.07492 17.0215 6.52672 18.4733C7.97851 19.9251 9.94685 20.7418 12 20.7443Z" fill="#3D444F"/>
<path d="M12.0003 11.4565C12.1704 11.4577 12.3333 11.5258 12.4536 11.6461C12.5739 11.7664 12.642 11.9293 12.6431 12.0994V16.3851C12.6431 16.5556 12.5754 16.7191 12.4548 16.8397C12.3343 16.9602 12.1708 17.028 12.0003 17.028C11.8298 17.028 11.6663 16.9602 11.5457 16.8397C11.4252 16.7191 11.3574 16.5556 11.3574 16.3851V12.0994C11.3585 11.9293 11.4266 11.7664 11.547 11.6461C11.6673 11.5258 11.8301 11.4577 12.0003 11.4565Z" fill="#3D444F"/>
<path d="M11.9997 8.80298C12.1117 8.80433 12.2223 8.82763 12.3254 8.87155C12.4292 8.91503 12.5249 8.9759 12.6083 9.05155C12.6857 9.1335 12.7468 9.22951 12.7883 9.33441C12.8334 9.43705 12.8568 9.54797 12.8568 9.66012C12.8568 9.77227 12.8334 9.88319 12.7883 9.98584C12.7448 10.0897 12.6839 10.1853 12.6083 10.2687C12.5249 10.3443 12.4292 10.4052 12.3254 10.4487C12.1167 10.5344 11.8826 10.5344 11.674 10.4487C11.5701 10.4052 11.4745 10.3443 11.3911 10.2687C11.3155 10.1853 11.2546 10.0897 11.2111 9.98584C11.1659 9.88319 11.1426 9.77227 11.1426 9.66012C11.1426 9.54797 11.1659 9.43705 11.2111 9.33441C11.2525 9.22951 11.3136 9.1335 11.3911 9.05155C11.4745 8.9759 11.5701 8.91503 11.674 8.87155C11.777 8.82763 11.8877 8.80433 11.9997 8.80298Z" fill="#3D444F"/>
</svg>
