<svg width="25" height="25" viewBox="0 0 25 25" fill="none" xmlns="http://www.w3.org/2000/svg">
<path d="M12.1055 4.73047C13.6877 4.73047 15.2344 5.19966 16.55 6.07871C17.8656 6.95776 18.891 8.20719 19.4965 9.669C20.102 11.1308 20.2604 12.7393 19.9517 14.2912C19.6431 15.843 18.8811 17.2685 17.7623 18.3873C16.6435 19.5061 15.218 20.2681 13.6662 20.5767C12.1143 20.8854 10.5058 20.727 9.044 20.1215C7.58219 19.516 6.33276 18.4906 5.45371 17.175C4.57466 15.8594 4.10547 14.3127 4.10547 12.7305C4.10728 10.6093 4.95072 8.57552 6.45062 7.07562C7.95052 5.57572 9.98429 4.73228 12.1055 4.73047ZM12.1055 19.6143C13.467 19.6143 14.7979 19.2105 15.9299 18.4541C17.0619 17.6977 17.9443 16.6226 18.4653 15.3648C18.9863 14.1069 19.1226 12.7228 18.857 11.3875C18.5914 10.0522 17.9358 8.8256 16.9731 7.86288C16.0103 6.90016 14.7838 6.24454 13.4484 5.97893C12.1131 5.71332 10.729 5.84964 9.47115 6.37066C8.2133 6.89168 7.13819 7.77399 6.38179 8.90603C5.62539 10.0381 5.22166 11.369 5.22166 12.7305C5.22388 14.5555 5.94985 16.3051 7.24033 17.5956C8.53081 18.8861 10.2804 19.6121 12.1055 19.6143Z" fill="#3D444F"/>
<path d="M12.1056 11.3584C12.2569 11.3594 12.4016 11.4199 12.5086 11.5269C12.6155 11.6338 12.676 11.7786 12.677 11.9298V15.7393C12.677 15.8909 12.6168 16.0362 12.5097 16.1434C12.4025 16.2506 12.2572 16.3108 12.1056 16.3108C11.9541 16.3108 11.8087 16.2506 11.7015 16.1434C11.5944 16.0362 11.5342 15.8909 11.5342 15.7393V11.9298C11.5352 11.7786 11.5957 11.6338 11.7027 11.5269C11.8096 11.4199 11.9544 11.3594 12.1056 11.3584Z" fill="#3D444F"/>
<path d="M12.1056 8.99976C12.2052 9.00096 12.3035 9.02167 12.3951 9.06071C12.4874 9.09936 12.5725 9.15347 12.6466 9.22071C12.7154 9.29355 12.7698 9.37889 12.8066 9.47214C12.8467 9.56337 12.8675 9.66197 12.8675 9.76166C12.8675 9.86135 12.8467 9.95995 12.8066 10.0512C12.7679 10.1435 12.7138 10.2285 12.6466 10.3026C12.5725 10.3699 12.4874 10.424 12.3951 10.4626C12.2096 10.5388 12.0016 10.5388 11.8161 10.4626C11.7238 10.424 11.6388 10.3699 11.5647 10.3026C11.4974 10.2285 11.4433 10.1435 11.4047 10.0512C11.3645 9.95995 11.3437 9.86135 11.3438 9.76166C11.3438 9.66197 11.3645 9.56337 11.4047 9.47214C11.4415 9.37889 11.4958 9.29355 11.5647 9.22071C11.6388 9.15347 11.7238 9.09936 11.8161 9.06071C11.9077 9.02167 12.0061 9.00096 12.1056 8.99976Z" fill="#3D444F"/>
</svg>
