<svg width="24" height="25" viewBox="0 0 24 25" fill="none" xmlns="http://www.w3.org/2000/svg">
<path d="M12 23.2305C9.9233 23.2305 7.89323 22.6147 6.16652 21.4609C4.4398 20.3071 3.09399 18.6673 2.29927 16.7486C1.50455 14.83 1.29661 12.7188 1.70176 10.682C2.1069 8.64522 3.10693 6.7743 4.57538 5.30585C6.04384 3.8374 7.91476 2.83737 9.95156 2.43223C11.9884 2.02708 14.0996 2.23502 16.0182 3.02974C17.9368 3.82446 19.5767 5.17027 20.7304 6.89699C21.8842 8.6237 22.5 10.6538 22.5 12.7305C22.4976 15.5145 21.3906 18.1838 19.422 20.1525C17.4534 22.1211 14.784 23.2281 12 23.2305ZM12 3.69547C10.2131 3.69547 8.46623 4.22537 6.98043 5.21815C5.49463 6.21092 4.33659 7.622 3.65275 9.27293C2.96892 10.9239 2.78999 12.7405 3.13861 14.4931C3.48723 16.2457 4.34773 17.8556 5.6113 19.1192C6.87486 20.3827 8.48475 21.2432 10.2374 21.5919C11.99 21.9405 13.8066 21.7616 15.4576 21.0777C17.1085 20.3939 18.5196 19.2358 19.5123 17.7501C20.5051 16.2643 21.035 14.5174 21.035 12.7305C21.0321 10.3351 20.0793 8.03874 18.3855 6.34498C16.6917 4.65122 14.3953 3.69838 12 3.69547Z" fill="#3D444F"/>
<path d="M9.0701 22.2575H8.0931C7.8991 22.2562 7.71342 22.1785 7.57624 22.0413C7.43906 21.9042 7.36141 21.7185 7.3601 21.5245C7.35875 21.3331 7.4328 21.1489 7.56624 21.0117C7.69968 20.8745 7.88177 20.7954 8.0731 20.7915C6.53943 15.5289 6.53943 9.93801 8.0731 4.67547C7.88177 4.67153 7.69968 4.59241 7.56624 4.45523C7.4328 4.31805 7.35875 4.13384 7.3601 3.94247C7.36141 3.74847 7.43906 3.56279 7.57624 3.42561C7.71342 3.28843 7.8991 3.21078 8.0931 3.20947H9.0701C9.18655 3.2094 9.30141 3.23647 9.40557 3.28855C9.50972 3.34062 9.6003 3.41627 9.6701 3.50947C9.73847 3.60418 9.78321 3.71385 9.80061 3.82935C9.818 3.94485 9.80754 4.06283 9.7701 4.17347C7.93403 9.73314 7.93403 15.7358 9.7701 21.2955C9.80754 21.4061 9.818 21.5241 9.80061 21.6396C9.78321 21.7551 9.73847 21.8648 9.6701 21.9595C9.59905 22.0512 9.50817 22.1256 9.40426 22.1772C9.30035 22.2288 9.18611 22.2563 9.0701 22.2575Z" fill="#3D444F"/>
<path d="M14.9309 22.2575C14.8512 22.2588 14.7719 22.2456 14.6969 22.2185C14.6055 22.1881 14.5211 22.14 14.4484 22.0768C14.3758 22.0136 14.3164 21.9366 14.2737 21.8503C14.231 21.764 14.2059 21.6701 14.1997 21.574C14.1936 21.4779 14.2066 21.3815 14.2379 21.2905C16.074 15.7308 16.074 9.72815 14.2379 4.16848C14.1757 3.98455 14.1891 3.78345 14.2752 3.60942C14.3613 3.43538 14.513 3.30267 14.6969 3.24048C14.8808 3.17829 15.0819 3.1917 15.256 3.27778C15.43 3.36386 15.5627 3.51555 15.6249 3.69948C17.5687 9.55607 17.5687 15.8839 15.6249 21.7405C15.5801 21.8897 15.4884 22.0206 15.3634 22.1137C15.2384 22.2068 15.0868 22.2572 14.9309 22.2575Z" fill="#3D444F"/>
<path d="M11.9996 17.8096C9.27223 17.8128 6.55856 17.4245 3.94156 16.6566C3.93245 16.8464 3.84996 17.0253 3.7115 17.1555C3.57304 17.2856 3.38943 17.357 3.1994 17.3544C3.00937 17.3518 2.82778 17.2755 2.69292 17.1416C2.55806 17.0076 2.48049 16.8266 2.47656 16.6366V15.6596C2.47648 15.5431 2.50356 15.4283 2.55564 15.3241C2.60771 15.22 2.68336 15.1294 2.77656 15.0596C2.87127 14.9912 2.98094 14.9465 3.09644 14.9291C3.21194 14.9117 3.32992 14.9221 3.44056 14.9596C9.00023 16.7956 15.0029 16.7956 20.5626 14.9596C20.6732 14.9221 20.7912 14.9117 20.9067 14.9291C21.0222 14.9465 21.1319 14.9912 21.2266 15.0596C21.3213 15.1279 21.3981 15.2182 21.4504 15.3227C21.5026 15.4272 21.5288 15.5428 21.5266 15.6596V16.6366C21.5253 16.8306 21.4476 17.0163 21.3104 17.1534C21.1732 17.2906 20.9876 17.3683 20.7936 17.3696C20.6022 17.3709 20.418 17.2969 20.2808 17.1634C20.1436 17.03 20.0645 16.8479 20.0606 16.6566C17.4423 17.4232 14.7278 17.8115 11.9996 17.8096Z" fill="#3D444F"/>
<path d="M20.7909 10.5324C20.7112 10.5337 20.6319 10.5205 20.5569 10.4934C14.9972 8.65731 8.99458 8.65731 3.43491 10.4934C3.34384 10.5242 3.24759 10.5367 3.15167 10.5304C3.05574 10.524 2.96201 10.4987 2.87584 10.4561C2.78966 10.4135 2.71273 10.3543 2.64943 10.2819C2.58613 10.2096 2.5377 10.1255 2.50691 10.0344C2.44869 9.84908 2.46514 9.64838 2.55275 9.47503C2.64036 9.30168 2.7922 9.1694 2.97591 9.10638C8.8322 7.16278 15.1596 7.16278 21.0159 9.10638C21.1073 9.13671 21.1918 9.18487 21.2644 9.24807C21.3371 9.31127 21.3964 9.38825 21.4391 9.47456C21.4818 9.56087 21.507 9.65479 21.5131 9.75089C21.5193 9.84698 21.5063 9.94334 21.4749 10.0344C21.4291 10.1796 21.338 10.3064 21.2149 10.396C21.0918 10.4856 20.9432 10.5334 20.7909 10.5324Z" fill="#3D444F"/>
</svg>
