<svg width="24" height="25" viewBox="0 0 24 25" fill="none" xmlns="http://www.w3.org/2000/svg">
<path d="M7.99983 22.7H15.9998C20.0198 22.7 20.7398 21.09 20.9498 19.13L21.6998 11.13C21.9698 8.68995 21.2698 6.69995 16.9998 6.69995H6.99983C2.72983 6.69995 2.02983 8.68995 2.29983 11.13L3.04983 19.13C3.25983 21.09 3.97983 22.7 7.99983 22.7Z" stroke="#3D444F" stroke-width="1.5" stroke-miterlimit="10" stroke-linecap="round" stroke-linejoin="round"/>
<path d="M8 6.69995V5.89995C8 4.12995 8 2.69995 11.2 2.69995H12.8C16 2.69995 16 4.12995 16 5.89995V6.69995" stroke="#3D444F" stroke-width="1.5" stroke-miterlimit="10" stroke-linecap="round" stroke-linejoin="round"/>
<path d="M14 13.7V14.7C14 14.71 14 14.71 14 14.72C14 15.81 13.99 16.7 12 16.7C10.02 16.7 10 15.82 10 14.73V13.7C10 12.7 10 12.7 11 12.7H13C14 12.7 14 12.7 14 13.7Z" stroke="#3D444F" stroke-width="1.5" stroke-miterlimit="10" stroke-linecap="round" stroke-linejoin="round"/>
<path d="M21.65 11.7C19.34 13.38 16.7 14.38 14 14.72" stroke="#3D444F" stroke-width="1.5" stroke-miterlimit="10" stroke-linecap="round" stroke-linejoin="round"/>
<path d="M2.62012 11.97C4.87012 13.51 7.41012 14.44 10.0001 14.73" stroke="#3D444F" stroke-width="1.5" stroke-miterlimit="10" stroke-linecap="round" stroke-linejoin="round"/>
</svg>
