<svg width="24" height="25" viewBox="0 0 24 25" fill="none" xmlns="http://www.w3.org/2000/svg">
<path d="M15 23.4805H9C3.57 23.4805 1.25 21.1605 1.25 15.7305V9.73047C1.25 4.30047 3.57 1.98047 9 1.98047H15C20.43 1.98047 22.75 4.30047 22.75 9.73047V15.7305C22.75 21.1605 20.43 23.4805 15 23.4805ZM9 3.48047C4.39 3.48047 2.75 5.12047 2.75 9.73047V15.7305C2.75 20.3405 4.39 21.9805 9 21.9805H15C19.61 21.9805 21.25 20.3405 21.25 15.7305V9.73047C21.25 5.12047 19.61 3.48047 15 3.48047H9Z" fill="#3D444F"/>
<path d="M8.81023 18.9805C8.74023 18.9805 8.66023 18.9805 8.59023 18.9605L7.40023 18.8005C6.68023 18.7005 6.05023 18.0805 5.94023 17.3405L5.77023 16.1305C5.70023 15.6505 5.90023 15.0405 6.25023 14.6805L8.53023 12.4005C8.19023 10.7805 8.68023 9.10054 9.87023 7.92054C11.7802 6.01054 14.9002 6.01054 16.8102 7.92054C17.7402 8.85054 18.2502 10.0805 18.2502 11.3905C18.2502 12.7005 17.7402 13.9405 16.8102 14.8605C15.6202 16.0405 13.9402 16.5305 12.3302 16.1905L10.0402 18.4705C9.75023 18.7805 9.26023 18.9805 8.81023 18.9805ZM13.3402 7.98054C12.4702 7.98054 11.5902 8.31054 10.9302 8.98054C10.0302 9.88054 9.71023 11.1905 10.0802 12.4105C10.1602 12.6805 10.0902 12.9605 9.89023 13.1605L7.31023 15.7405C7.29023 15.7705 7.25023 15.8805 7.25023 15.9205L7.42023 17.1205C7.43023 17.1805 7.54023 17.2905 7.60023 17.3005L8.80023 17.4705C8.85023 17.4605 8.95023 17.4405 8.98023 17.4105L11.5702 14.8205C11.7702 14.6205 12.0602 14.5605 12.3202 14.6405C13.5302 15.0205 14.8402 14.7005 15.7402 13.8005C16.3802 13.1605 16.7402 12.3005 16.7402 11.3905C16.7402 10.4805 16.3902 9.62054 15.7402 8.98054C15.0902 8.32054 14.2102 7.98054 13.3402 7.98054Z" fill="#3D444F"/>
<path d="M10.4498 17.7606C10.2598 17.7606 10.0698 17.6906 9.91978 17.5406L9.05979 16.6806C8.76979 16.3906 8.76979 15.9106 9.05979 15.6206C9.34979 15.3306 9.82978 15.3306 10.1198 15.6206L10.9798 16.4806C11.2698 16.7706 11.2698 17.2506 10.9798 17.5406C10.8398 17.6906 10.6498 17.7606 10.4498 17.7606Z" fill="#3D444F"/>
<path d="M13.3801 12.5306C13.2401 12.5306 13.1101 12.5106 12.9901 12.4606C12.8701 12.4106 12.7601 12.3306 12.6701 12.2406C12.4801 12.0506 12.3701 11.8006 12.3701 11.5306C12.3701 11.2706 12.4801 11.0106 12.6701 10.8306C12.9001 10.5906 13.2501 10.4806 13.5701 10.5506C13.6301 10.5706 13.7001 10.5806 13.7601 10.6106C13.8201 10.6406 13.8801 10.6706 13.9301 10.7006C13.9801 10.7406 14.0401 10.7806 14.0801 10.8306C14.2701 11.0106 14.3801 11.2706 14.3801 11.5306C14.3801 11.6706 14.3501 11.7906 14.3001 11.9206C14.2501 12.0406 14.1801 12.1506 14.0801 12.2406C13.8901 12.4306 13.6401 12.5306 13.3801 12.5306Z" fill="#3D444F"/>
</svg>
