<svg width="25" height="25" viewBox="0 0 25 25" fill="none" xmlns="http://www.w3.org/2000/svg">
<path d="M18.3848 15.7305V19.7305C18.3848 21.3805 17.0348 22.7305 15.3848 22.7305H9.38477C7.73477 22.7305 6.38477 21.3805 6.38477 19.7305V14.7104L10.2748 14.7305C11.0048 14.7305 11.7248 14.9005 12.3848 15.2305C13.0448 15.5605 13.7648 15.7305 14.5048 15.7305H18.3848Z" stroke="#3D444F" stroke-width="1.5" stroke-linecap="round" stroke-linejoin="round"/>
<path d="M18.3848 11.5605V15.7305H14.5048C13.7648 15.7305 13.0448 15.5605 12.3848 15.2305C11.7248 14.9005 11.0048 14.7305 10.2748 14.7305L6.38477 14.7105V11.5605C6.38477 11.1005 6.64479 10.4705 6.97479 10.1405L9.09479 8.02046C9.27479 7.84046 9.38477 7.58047 9.38477 7.32047V5.73047H15.3848V7.32047C15.3848 7.58047 15.4947 7.84046 15.6747 8.02046L17.7947 10.1405C18.1247 10.4705 18.3848 11.1005 18.3848 11.5605Z" stroke="#3D444F" stroke-width="1.5" stroke-linecap="round" stroke-linejoin="round"/>
<path d="M18.3848 16.7305V15.7305" stroke="#3D444F" stroke-width="1.5" stroke-linecap="round" stroke-linejoin="round"/>
<path d="M6.38477 15.7104V14.7104" stroke="#3D444F" stroke-width="1.5" stroke-linecap="round" stroke-linejoin="round"/>
<path d="M14.8848 5.73047H9.88477C9.05477 5.73047 8.38477 5.05047 8.38477 4.23047C8.38477 3.41047 9.05477 2.73047 9.88477 2.73047H14.8848C15.7148 2.73047 16.3848 3.41047 16.3848 4.23047C16.3848 5.05047 15.7148 5.73047 14.8848 5.73047Z" stroke="#3D444F" stroke-width="1.5" stroke-linecap="round" stroke-linejoin="round"/>
</svg>
