<svg width="24" height="25" viewBox="0 0 24 25" fill="none" xmlns="http://www.w3.org/2000/svg">
<path d="M17.351 23.2305C16.1531 23.2078 14.9718 22.9453 13.877 22.4585C12.6355 21.9192 11.4574 21.2444 10.364 20.4465C9.19919 19.5924 8.09642 18.6567 7.06404 17.6465C6.04991 16.6222 5.11302 15.5242 4.26104 14.3615C3.46843 13.2796 2.7977 12.1135 2.26104 10.8845C1.77823 9.78428 1.51985 8.59879 1.50104 7.39747C1.49753 6.65906 1.63324 5.92661 1.90104 5.23847C2.19163 4.51689 2.6399 3.86942 3.21304 3.34347C3.54008 2.99756 3.93323 2.72081 4.36919 2.52963C4.80515 2.33845 5.27505 2.23672 5.75104 2.23047C6.13096 2.23201 6.50611 2.31522 6.85104 2.47447C7.23166 2.64545 7.5569 2.91942 7.79004 3.26547L10.06 6.45947C10.2511 6.71519 10.409 6.99408 10.53 7.28947C10.6556 7.56236 10.7237 7.85815 10.73 8.15847C10.7263 8.53842 10.618 8.91 10.417 9.23247C10.237 9.53759 10.0163 9.81682 9.76104 10.0625L9.09604 10.7555C9.10393 10.7789 9.11363 10.8016 9.12504 10.8235C9.3587 11.208 9.62645 11.5708 9.92504 11.9075C10.404 12.4545 10.855 12.9525 11.305 13.4075C11.882 13.9745 12.362 14.4235 12.812 14.7945C13.1596 15.1055 13.5402 15.3775 13.947 15.6055L13.927 15.6545L14.641 14.9545C14.8987 14.6863 15.1958 14.459 15.522 14.2805C15.808 14.1106 16.1308 14.0121 16.4629 13.9935C16.7951 13.9749 17.1268 14.0366 17.43 14.1735C17.7195 14.297 17.995 14.4509 18.252 14.6325L21.501 16.9375C21.8477 17.163 22.1201 17.4858 22.284 17.8655C22.4228 18.2001 22.4957 18.5583 22.499 18.9205C22.4968 19.3969 22.3899 19.8669 22.186 20.2975C21.9875 20.7264 21.7234 21.1219 21.403 21.4695C20.8919 22.054 20.2522 22.5121 19.534 22.8075C18.8406 23.0883 18.0992 23.2319 17.351 23.2305ZM5.75104 3.69547C5.46424 3.70485 5.18222 3.77163 4.92166 3.89186C4.6611 4.01209 4.42729 4.18333 4.23404 4.39547C3.81231 4.77804 3.48331 5.2517 3.27204 5.78047C3.06762 6.29616 2.96572 6.84677 2.97204 7.40147C2.99088 8.4052 3.21054 9.39499 3.61804 10.3125C4.10737 11.4381 4.72226 12.5049 5.45104 13.4925C6.25547 14.5932 7.14199 15.6315 8.10304 16.5985C9.07625 17.5605 10.1198 18.4486 11.225 19.2555C12.2245 19.9948 13.3073 20.6143 14.451 21.1015C15.1452 21.458 15.9038 21.672 16.682 21.7307C17.4601 21.7894 18.2422 21.6918 18.982 21.4435C19.4978 21.2291 19.9568 20.8981 20.323 20.4765C20.5474 20.2334 20.7323 19.9567 20.871 19.6565C20.9857 19.4223 21.0459 19.1652 21.047 18.9045C21.0468 18.7359 21.01 18.5694 20.939 18.4165C20.8764 18.2954 20.7816 18.194 20.665 18.1235L17.416 15.8185C17.2483 15.699 17.0678 15.5984 16.878 15.5185C16.7841 15.4513 16.6704 15.4177 16.555 15.4229C16.4397 15.4282 16.3295 15.472 16.242 15.5475C16.0302 15.6625 15.8383 15.8111 15.674 15.9875L14.93 16.7205C14.7427 16.8941 14.5115 17.0132 14.2614 17.0648C14.0113 17.1165 13.7518 17.0987 13.511 17.0135L13.247 16.8965C12.7512 16.6158 12.2855 16.2851 11.857 15.9095C11.387 15.5095 10.878 15.0405 10.257 14.4345C9.77804 13.9465 9.29804 13.4285 8.79904 12.8525C8.4196 12.4288 8.08452 11.9674 7.79904 11.4755L7.68604 11.1805C7.63798 11.0221 7.61173 10.8579 7.60804 10.6925C7.60504 10.5233 7.63636 10.3552 7.70013 10.1985C7.7639 10.0417 7.85878 9.89952 7.97904 9.78047L8.71304 9.01847C8.88185 8.85511 9.02966 8.67136 9.15304 8.47147C9.2198 8.37328 9.25726 8.25814 9.26104 8.13947C9.25395 8.03131 9.22754 7.9253 9.18304 7.82647C9.09773 7.643 8.99279 7.46932 8.87004 7.30847L6.60004 4.10847C6.50809 3.97816 6.38316 3.87463 6.23804 3.80847C6.08518 3.73778 5.91941 3.69931 5.75104 3.69547ZM13.929 15.6705L13.772 16.3345L14.036 15.6505C14.0179 15.6452 13.9987 15.6443 13.9802 15.6478C13.9616 15.6512 13.9441 15.659 13.929 15.6705Z" fill="#3D444F"/>
</svg>
