<svg width="24" height="25" viewBox="0 0 24 25" fill="none" xmlns="http://www.w3.org/2000/svg">
<path d="M16 21.9145L19.728 24.7305V21.9145H24V9.21047H15.52V0.730469H0V13.4345H4.272V16.2505L8 13.4345H8.48V21.9145H16ZM22.608 20.5065H18.32V21.9145L16.448 20.5065H9.888V10.6185H22.592L22.608 20.5065ZM7.568 12.0265L5.696 13.4345V12.0265H1.408V2.13847H14.112V9.21047H11.024L7.824 2.71447L4.336 9.59447L5.6 10.2345L6.4 8.50647H9.104L9.456 9.21047H8.48V12.0265H7.568ZM8.416 7.13047H7.168L7.776 5.88247L8.416 7.13047Z" fill="#3D444F"/>
<path d="M14.9602 16.7305C14.4023 17.2703 13.7036 17.6419 12.9442 17.8025V19.4025C14.1126 19.2139 15.1865 18.646 16.0002 17.7865C16.8441 18.6143 17.9328 19.1474 19.1042 19.3065V17.7065C18.3664 17.5677 17.6804 17.2302 17.1202 16.7305C17.6324 16.1371 18.0189 15.4458 18.2562 14.6985H19.8562V13.0985H16.8162V11.4985H15.2162V13.0985H12.1602V14.6985H13.7602C14.0032 15.4571 14.4133 16.1514 14.9602 16.7305ZM16.0322 15.6105C15.8066 15.3322 15.6183 15.0256 15.4722 14.6985H16.6082C16.4527 15.0241 16.2593 15.3302 16.0322 15.6105Z" fill="#3D444F"/>
</svg>
