<svg width="24" height="25" viewBox="0 0 24 25" fill="none" xmlns="http://www.w3.org/2000/svg">
<path d="M9.92461 22.4C9.80907 22.4004 9.69508 22.3735 9.59199 22.3213C9.4889 22.2692 9.39966 22.1933 9.33161 22.1L8.33161 20.766C8.24587 20.6342 8.13031 20.5246 7.99428 20.4459C7.85825 20.3672 7.70559 20.3217 7.54867 20.313C7.39176 20.3043 7.23501 20.3328 7.09114 20.396C6.94727 20.4592 6.82032 20.5555 6.72061 20.677C5.28761 22.209 4.20061 22.077 3.67661 21.883C3.15261 21.689 2.24561 20.993 2.24561 18.8V7.67195C2.24561 3.28395 3.51061 1.94995 7.65161 1.94995H15.1126C19.2536 1.94995 20.5186 3.28395 20.5186 7.67195V11.882C20.5186 12.0785 20.4405 12.267 20.3016 12.4059C20.1626 12.5449 19.9741 12.623 19.7776 12.623C19.5811 12.623 19.3926 12.5449 19.2536 12.4059C19.1147 12.267 19.0366 12.0785 19.0366 11.882V7.67195C19.0366 4.10395 18.4136 3.43195 15.1136 3.43195H7.65161C4.35161 3.43195 3.72861 4.10395 3.72861 7.67195V18.8C3.72861 19.838 3.98561 20.4109 4.22261 20.5C4.40061 20.569 4.88461 20.4699 5.63561 19.67C5.88242 19.3882 6.19003 19.1661 6.5352 19.0206C6.88038 18.8751 7.2541 18.8099 7.62816 18.8299C8.00222 18.8499 8.36685 18.9547 8.69451 19.1362C9.02217 19.3178 9.3043 19.5714 9.51961 19.878L10.5276 21.212C10.5861 21.2898 10.6287 21.3784 10.6529 21.4727C10.6771 21.5671 10.6825 21.6652 10.6687 21.7616C10.655 21.858 10.6224 21.9508 10.5728 22.0346C10.5232 22.1184 10.4575 22.1915 10.3796 22.25C10.2482 22.348 10.0885 22.4007 9.92461 22.4Z" fill="#3D444F"/>
<path d="M16.0607 22.95C15.2514 22.9501 14.456 22.7397 13.7526 22.3394C13.0492 21.9391 12.462 21.3628 12.0487 20.667C11.6006 19.9428 11.3644 19.1076 11.3667 18.256C11.3667 17.0111 11.8613 15.8171 12.7416 14.9369C13.6219 14.0566 14.8158 13.562 16.0607 13.562C17.3056 13.562 18.4996 14.0566 19.3799 14.9369C20.2602 15.8171 20.7547 17.0111 20.7547 18.256C20.7558 19.1106 20.5197 19.9487 20.0727 20.677C19.6573 21.3701 19.0693 21.9438 18.3662 22.3422C17.6631 22.7405 16.8688 22.9499 16.0607 22.95ZM16.0607 15.044C15.2093 15.0456 14.3933 15.3845 13.7912 15.9865C13.1892 16.5886 12.8503 17.4046 12.8487 18.256C12.8469 18.8385 13.0076 19.4099 13.3127 19.906C13.5957 20.382 13.9974 20.7764 14.4785 21.0506C14.9596 21.3248 15.5036 21.4695 16.0574 21.4705C16.6111 21.4715 17.1557 21.3288 17.6378 21.0563C18.1198 20.7839 18.523 20.3909 18.8077 19.916C19.1129 19.4162 19.2735 18.8416 19.2717 18.256C19.2701 17.4048 18.9314 16.5889 18.3295 15.9869C17.7277 15.3849 16.9119 15.0459 16.0607 15.044Z" fill="#3D444F"/>
<path d="M15.4975 19.9749C15.4001 19.9754 15.3036 19.9564 15.2136 19.9192C15.1237 19.8819 15.042 19.8271 14.9735 19.7579L13.9955 18.7799C13.9188 18.7134 13.8566 18.6317 13.8128 18.5401C13.7689 18.4485 13.7444 18.3488 13.7407 18.2474C13.737 18.1459 13.7542 18.0447 13.7913 17.9501C13.8283 17.8556 13.8844 17.7696 13.956 17.6976C14.0277 17.6257 14.1133 17.5692 14.2077 17.5317C14.3021 17.4942 14.4032 17.4765 14.5047 17.4797C14.6062 17.4829 14.706 17.507 14.7978 17.5504C14.8896 17.5938 14.9715 17.6556 15.0385 17.7319L15.5125 18.2059L17.0935 16.7429C17.2371 16.6086 17.4282 16.5368 17.6247 16.5434C17.8213 16.5499 18.0071 16.6343 18.1415 16.7779C18.2758 16.9215 18.3476 17.1126 18.341 17.3092C18.3345 17.5057 18.2501 17.6916 18.1065 17.8259L16.0065 19.7729C15.8671 19.9001 15.6861 19.972 15.4975 19.9749Z" fill="#3D444F"/>
<path d="M15.6657 12.326H10.2307C10.0342 12.326 9.84574 12.2479 9.70678 12.109C9.56782 11.97 9.48975 11.7815 9.48975 11.585C9.48975 11.3885 9.56782 11.2 9.70678 11.061C9.84574 10.9221 10.0342 10.844 10.2307 10.844H15.6657C15.7631 10.844 15.8594 10.8632 15.9493 10.9004C16.0392 10.9376 16.1209 10.9922 16.1897 11.061C16.2585 11.1298 16.3131 11.2115 16.3503 11.3014C16.3876 11.3913 16.4067 11.4877 16.4067 11.585C16.4067 11.6823 16.3876 11.7787 16.3503 11.8686C16.3131 11.9585 16.2585 12.0402 16.1897 12.109C16.1209 12.1778 16.0392 12.2323 15.9493 12.2696C15.8594 12.3068 15.7631 12.326 15.6657 12.326Z" fill="#3D444F"/>
<path d="M15.6657 8.37287H10.2307C10.0342 8.37287 9.84574 8.2948 9.70678 8.15584C9.56782 8.01687 9.48975 7.82839 9.48975 7.63187C9.48975 7.43534 9.56782 7.24687 9.70678 7.1079C9.84574 6.96894 10.0342 6.89087 10.2307 6.89087H15.6657C15.8623 6.89087 16.0507 6.96894 16.1897 7.1079C16.3287 7.24687 16.4067 7.43534 16.4067 7.63187C16.4067 7.82839 16.3287 8.01687 16.1897 8.15584C16.0507 8.2948 15.8623 8.37287 15.6657 8.37287Z" fill="#3D444F"/>
<path d="M7.31466 8.62004C7.11925 8.62004 6.92823 8.5621 6.76576 8.45354C6.60328 8.34497 6.47665 8.19067 6.40187 8.01013C6.32709 7.8296 6.30752 7.63095 6.34564 7.43929C6.38377 7.24764 6.47787 7.0716 6.61604 6.93342C6.75421 6.79525 6.93026 6.70115 7.12191 6.66303C7.31357 6.62491 7.51222 6.64447 7.69275 6.71925C7.87329 6.79403 8.02759 6.92066 8.13615 7.08314C8.24472 7.24562 8.30266 7.43664 8.30266 7.63204C8.30187 7.89383 8.19752 8.14468 8.01241 8.32979C7.82729 8.5149 7.57645 8.61925 7.31466 8.62004Z" fill="#3D444F"/>
<path d="M7.31466 12.5729C7.11925 12.5729 6.92823 12.515 6.76576 12.4064C6.60328 12.2979 6.47665 12.1435 6.40187 11.963C6.32709 11.7825 6.30752 11.5838 6.34564 11.3922C6.38377 11.2005 6.47787 11.0245 6.61604 10.8863C6.75421 10.7481 6.93026 10.654 7.12191 10.6159C7.31357 10.5778 7.51222 10.5974 7.69275 10.6721C7.87329 10.7469 8.02759 10.8735 8.13615 11.036C8.24472 11.1985 8.30266 11.3895 8.30266 11.5849C8.30187 11.8467 8.19752 12.0976 8.01241 12.2827C7.82729 12.4678 7.57645 12.5721 7.31466 12.5729Z" fill="#3D444F"/>
</svg>
