<svg width="24" height="25" viewBox="0 0 24 25" fill="none" xmlns="http://www.w3.org/2000/svg">
<path d="M11.9995 23.2004C8.09247 23.2004 4.91847 20.3304 4.91847 16.8004V13.1004C4.91483 13.0019 4.93108 12.9037 4.96626 12.8117C5.00143 12.7196 5.0548 12.6356 5.12318 12.5647C5.19155 12.4937 5.27354 12.4373 5.36422 12.3987C5.45491 12.3602 5.55243 12.3403 5.65097 12.3403C5.74951 12.3403 5.84703 12.3602 5.93772 12.3987C6.0284 12.4373 6.11038 12.4937 6.17876 12.5647C6.24714 12.6356 6.30051 12.7196 6.33568 12.8117C6.37086 12.9037 6.38711 13.0019 6.38347 13.1004C6.38347 15.7204 8.79647 17.7004 11.9995 17.7004C15.2025 17.7004 17.6155 15.7204 17.6155 13.1004C17.6118 13.0019 17.6281 12.9037 17.6633 12.8117C17.6984 12.7196 17.7518 12.6356 17.8202 12.5647C17.8886 12.4937 17.9705 12.4373 18.0612 12.3987C18.1519 12.3602 18.2494 12.3403 18.348 12.3403C18.4465 12.3403 18.544 12.3602 18.6347 12.3987C18.7254 12.4373 18.8074 12.4937 18.8758 12.5647C18.9441 12.6356 18.9975 12.7196 19.0327 12.8117C19.0679 12.9037 19.0841 13.0019 19.0805 13.1004V16.8004C19.0815 20.3304 15.9065 23.2004 11.9995 23.2004ZM6.38347 16.9104C6.45147 19.5604 8.94247 21.7004 11.9995 21.7004C15.0565 21.7004 17.5475 19.5604 17.6155 16.9104C16.8912 17.6631 16.0172 18.2557 15.05 18.6501C14.0827 19.0445 13.0436 19.232 11.9995 19.2004C10.9555 19.2308 9.91675 19.0427 8.94967 18.6484C7.98259 18.2541 7.10853 17.6621 6.38347 16.9104Z" fill="#3D444F"/>
<path d="M11.9995 14.7004C10.7595 14.7472 9.52834 14.4736 8.42484 13.9061C7.32133 13.3386 6.3827 12.4963 5.69947 11.4604C5.18596 10.595 4.9161 9.60673 4.91847 8.6004C4.92618 7.73408 5.11834 6.87933 5.48217 6.09307C5.84599 5.3068 6.37312 4.60705 7.02847 4.0404C8.40252 2.83547 10.173 2.18025 12.0005 2.2004C13.8242 2.18407 15.5911 2.8349 16.9685 4.0304C17.623 4.59987 18.1495 5.30157 18.5132 6.08928C18.8769 6.877 19.0696 7.73283 19.0785 8.6004C19.0795 9.60655 18.8097 10.5944 18.2975 11.4604C17.6144 12.496 16.6761 13.3381 15.573 13.9056C14.4699 14.4731 13.2391 14.7468 11.9995 14.7004ZM11.9995 3.7004C10.5244 3.67959 9.094 4.20697 7.98547 5.1804C7.49016 5.60326 7.09111 6.12725 6.81513 6.71715C6.53916 7.30704 6.39265 7.94918 6.38547 8.6004C6.38302 9.33224 6.57897 10.0511 6.95247 10.6804C7.50817 11.4975 8.26432 12.1584 9.14853 12.5996C10.0327 13.0408 11.0154 13.2477 12.0025 13.2004C12.9891 13.2451 13.9709 13.0371 14.8547 12.5961C15.7384 12.1551 16.4949 11.4957 17.0525 10.6804C17.4304 10.0529 17.6267 9.33286 17.6195 8.6004C17.6105 7.94542 17.4621 7.29987 17.1841 6.70672C16.9062 6.11357 16.505 5.58643 16.0075 5.1604C14.8947 4.20037 13.469 3.681 11.9995 3.7004Z" fill="#3D444F"/>
<path d="M11.9995 19.2004C7.96847 19.2004 4.91847 16.6504 4.91847 13.2744V8.4174C4.91847 4.9884 8.09347 2.2004 12.0005 2.2004C13.8159 2.1812 15.5773 2.81184 16.9685 3.9784C17.6186 4.52316 18.1436 5.20169 18.5077 5.96773C18.8718 6.73377 19.0665 7.56931 19.0785 8.4174V13.2744C19.0815 16.6504 16.0335 19.2004 11.9995 19.2004ZM11.9995 3.6574C8.89947 3.6574 6.38347 5.7944 6.38347 8.4174V13.2744C6.38347 15.8194 8.79647 17.7434 11.9995 17.7434C15.2025 17.7434 17.6155 15.8204 17.6155 13.2744V8.4174C17.6044 7.77691 17.4546 7.14643 17.1763 6.56946C16.898 5.99248 16.4979 5.48274 16.0035 5.0754C14.8809 4.13987 13.4606 3.63688 11.9995 3.6574Z" fill="#3D444F"/>
</svg>
