<svg width="24" height="25" viewBox="0 0 24 25" fill="none" xmlns="http://www.w3.org/2000/svg">
<path d="M11.9961 14.8454C11.247 14.8575 10.5112 14.6463 9.88242 14.2388C9.25369 13.8313 8.76048 13.2458 8.46563 12.557C8.17079 11.8682 8.08764 11.1072 8.22679 10.371C8.36593 9.63476 8.72107 8.95661 9.24697 8.42292C9.77286 7.88924 10.4457 7.52416 11.1798 7.37421C11.9139 7.22425 12.676 7.2962 13.3691 7.58089C14.0622 7.86558 14.6548 8.35012 15.0715 8.9728C15.4883 9.59547 15.7102 10.3281 15.7091 11.0774C15.7142 12.0687 15.3264 13.0218 14.6305 13.7279C13.9347 14.4341 12.9875 14.8359 11.9961 14.8454ZM11.9961 8.76336C11.5368 8.75542 11.0856 8.88435 10.6998 9.13375C10.3141 9.38314 10.0113 9.7417 9.82997 10.1638C9.64868 10.5858 9.59711 11.0523 9.68182 11.5038C9.76654 11.9553 9.98371 12.3713 10.3057 12.6989C10.6277 13.0266 11.0398 13.251 11.4898 13.3435C11.9397 13.4361 12.407 13.3927 12.8322 13.2188C13.2573 13.0449 13.6211 12.7484 13.8772 12.367C14.1333 11.9857 14.2701 11.5367 14.2701 11.0774C14.2752 10.4686 14.0387 9.88258 13.6124 9.44788C13.1861 9.01318 12.6049 8.76522 11.9961 8.75836V8.76336Z" fill="#3D444F"/>
<path d="M11.996 23.2313C10.5127 23.2266 9.0903 22.6415 8.03296 21.6013C5.20296 18.8283 2.07596 14.4053 3.25496 9.14335C3.68556 7.15696 4.79259 5.38174 6.38689 4.12104C7.98119 2.86034 9.96381 2.1924 11.996 2.23135H12.006C14.0395 2.19268 16.0234 2.86197 17.6179 4.12468C19.2124 5.38739 20.3186 7.16502 20.747 9.15335C21.918 14.4153 18.79 18.8283 15.959 21.6013C14.9016 22.6415 13.4792 23.2266 11.996 23.2313ZM11.996 3.69535C10.2912 3.64375 8.62267 4.19356 7.28254 5.24848C5.94241 6.30339 5.01614 7.79617 4.66596 9.46535C3.62996 14.0653 6.46596 18.0273 9.04096 20.5363C9.82703 21.3195 10.8914 21.7591 12.001 21.7591C13.1105 21.7591 14.1749 21.3195 14.961 20.5363C17.523 18.0273 20.361 14.0633 19.346 9.46535C18.9905 7.79509 18.06 6.30259 16.7168 5.24813C15.3736 4.19366 13.7029 3.64412 11.996 3.69535Z" fill="#3D444F"/>
</svg>
