<svg width="24" height="25" viewBox="0 0 24 25" fill="none" xmlns="http://www.w3.org/2000/svg">
<path d="M18 11.4805C17.59 11.4805 17.25 11.1405 17.25 10.7305V8.73047C17.25 5.58047 16.36 3.48047 12 3.48047C7.64 3.48047 6.75 5.58047 6.75 8.73047V10.7305C6.75 11.1405 6.41 11.4805 6 11.4805C5.59 11.4805 5.25 11.1405 5.25 10.7305V8.73047C5.25 5.83047 5.95 1.98047 12 1.98047C18.05 1.98047 18.75 5.83047 18.75 8.73047V10.7305C18.75 11.1405 18.41 11.4805 18 11.4805Z" fill="#3D444F"/>
<path d="M17 23.4805H7C2.59 23.4805 1.25 22.1405 1.25 17.7305V15.7305C1.25 11.3205 2.59 9.98047 7 9.98047H17C21.41 9.98047 22.75 11.3205 22.75 15.7305V17.7305C22.75 22.1405 21.41 23.4805 17 23.4805ZM7 11.4805C3.42 11.4805 2.75 12.1605 2.75 15.7305V17.7305C2.75 21.3005 3.42 21.9805 7 21.9805H17C20.58 21.9805 21.25 21.3005 21.25 17.7305V15.7305C21.25 12.1605 20.58 11.4805 17 11.4805H7Z" fill="#3D444F"/>
<path d="M8 17.7303C7.87 17.7303 7.74 17.7004 7.62 17.6504C7.49 17.6004 7.39001 17.5303 7.29001 17.4403C7.11001 17.2503 7 17.0003 7 16.7303C7 16.6003 7.02999 16.4703 7.07999 16.3503C7.12999 16.2203 7.20001 16.1204 7.29001 16.0204C7.39001 15.9304 7.49 15.8603 7.62 15.8103C7.98 15.6503 8.42999 15.7404 8.70999 16.0204C8.79999 16.1204 8.87001 16.2303 8.92001 16.3503C8.97001 16.4703 9 16.6003 9 16.7303C9 16.9903 8.88999 17.2503 8.70999 17.4403C8.51999 17.6203 8.26 17.7303 8 17.7303Z" fill="#3D444F"/>
<path d="M12 17.7304C11.74 17.7304 11.48 17.6204 11.29 17.4404C11.11 17.2504 11 17.0004 11 16.7304C11 16.6004 11.02 16.4704 11.08 16.3504C11.13 16.2304 11.2 16.1204 11.29 16.0204C11.52 15.7904 11.87 15.6804 12.19 15.7504C12.26 15.7604 12.32 15.7804 12.38 15.8104C12.44 15.8304 12.5 15.8604 12.56 15.9004C12.61 15.9304 12.66 15.9804 12.71 16.0204C12.8 16.1204 12.87 16.2304 12.92 16.3504C12.97 16.4704 13 16.6004 13 16.7304C13 17.0004 12.89 17.2504 12.71 17.4404C12.66 17.4804 12.61 17.5204 12.56 17.5604C12.5 17.6004 12.44 17.6304 12.38 17.6504C12.32 17.6804 12.26 17.7004 12.19 17.7104C12.13 17.7204 12.06 17.7304 12 17.7304Z" fill="#3D444F"/>
<path d="M16 17.7304C15.73 17.7304 15.48 17.6204 15.29 17.4404C15.2 17.3404 15.13 17.2304 15.08 17.1104C15.03 16.9904 15 16.8604 15 16.7304C15 16.4704 15.11 16.2104 15.29 16.0204C15.34 15.9804 15.39 15.9404 15.44 15.9004C15.5 15.8604 15.56 15.8304 15.62 15.8104C15.68 15.7804 15.74 15.7604 15.8 15.7504C16.13 15.6804 16.47 15.7904 16.71 16.0204C16.89 16.2104 17 16.4604 17 16.7304C17 16.8604 16.97 16.9904 16.92 17.1104C16.87 17.2404 16.8 17.3404 16.71 17.4404C16.52 17.6204 16.26 17.7304 16 17.7304Z" fill="#3D444F"/>
</svg>
