<svg width="24" height="25" viewBox="0 0 24 25" fill="none" xmlns="http://www.w3.org/2000/svg">
<path d="M14.93 12.4865C14.736 12.4852 14.5504 12.4075 14.4132 12.2704C14.276 12.1332 14.1983 11.9475 14.197 11.7535V10.7775C14.197 9.3515 13.845 8.5775 11.997 8.5775C10.149 8.5775 9.79703 9.3495 9.79703 10.7775V11.7545C9.79003 11.9441 9.70978 12.1236 9.57318 12.2552C9.43658 12.3869 9.25425 12.4604 9.06453 12.4604C8.87481 12.4604 8.69249 12.3869 8.55588 12.2552C8.41928 12.1236 8.33904 11.9441 8.33203 11.7545V10.7775C8.33203 9.8695 8.33203 7.1145 11.995 7.1145C15.658 7.1145 15.663 9.8645 15.663 10.7775V11.7545C15.6615 11.9483 15.5837 12.1338 15.4465 12.2707C15.3094 12.4077 15.1239 12.4852 14.93 12.4865Z" fill="#3D444F"/>
<path d="M11.9997 16.0025C11.7388 16.0025 11.4838 15.9251 11.2669 15.7802C11.05 15.6353 10.8809 15.4293 10.7811 15.1883C10.6812 14.9472 10.6551 14.682 10.706 14.4262C10.7569 14.1703 10.8825 13.9353 11.067 13.7508C11.2515 13.5664 11.4865 13.4407 11.7423 13.3898C11.9982 13.339 12.2634 13.3651 12.5044 13.4649C12.7454 13.5647 12.9514 13.7338 13.0964 13.9507C13.2413 14.1676 13.3187 14.4226 13.3187 14.6835C13.3168 15.0328 13.1773 15.3672 12.9303 15.6141C12.6833 15.8611 12.3489 16.0007 11.9997 16.0025ZM11.9997 14.5375C11.9609 14.5383 11.924 14.554 11.8966 14.5814C11.8692 14.6088 11.8534 14.6458 11.8527 14.6845C11.8527 14.8505 12.1457 14.8505 12.1457 14.6845C12.1449 14.6459 12.1293 14.6091 12.1021 14.5817C12.0749 14.5544 12.0382 14.5385 11.9997 14.5375Z" fill="#3D444F"/>
<path d="M14.4418 18.3475H9.55779C7.21379 18.3475 6.38379 17.5175 6.38379 15.1735V14.1965C6.38379 11.8525 7.21379 11.0225 9.55779 11.0225H14.4418C16.7858 11.0225 17.6158 11.8525 17.6158 14.1965V15.1715C17.6168 17.5165 16.7858 18.3475 14.4418 18.3475ZM9.55779 12.4875C8.00479 12.4875 7.84879 12.6435 7.84879 14.1965V15.1715C7.84879 16.7245 8.00479 16.8805 9.55779 16.8805H14.4418C15.9948 16.8805 16.1508 16.7245 16.1508 15.1715V14.1945C16.1508 12.6415 15.9948 12.4855 14.4418 12.4855L9.55779 12.4875Z" fill="#3D444F"/>
<path d="M12 23.2305C9.9233 23.2305 7.89323 22.6147 6.16652 21.4609C4.4398 20.3071 3.09399 18.6673 2.29927 16.7486C1.50455 14.83 1.29661 12.7188 1.70176 10.682C2.1069 8.64522 3.10693 6.7743 4.57538 5.30585C6.04384 3.8374 7.91476 2.83737 9.95156 2.43223C11.9884 2.02708 14.0996 2.23502 16.0182 3.02974C17.9368 3.82446 19.5767 5.17027 20.7304 6.89699C21.8842 8.6237 22.5 10.6538 22.5 12.7305C22.4976 15.5145 21.3906 18.1838 19.422 20.1525C17.4534 22.1211 14.784 23.2281 12 23.2305ZM12 3.69547C10.2131 3.69547 8.46623 4.22537 6.98043 5.21815C5.49463 6.21092 4.33659 7.622 3.65275 9.27293C2.96892 10.9239 2.78999 12.7405 3.13861 14.4931C3.48723 16.2457 4.34773 17.8556 5.6113 19.1192C6.87486 20.3827 8.48475 21.2432 10.2374 21.5919C11.99 21.9405 13.8066 21.7616 15.4576 21.0777C17.1085 20.3939 18.5196 19.2358 19.5123 17.7501C20.5051 16.2643 21.035 14.5174 21.035 12.7305C21.0321 10.3351 20.0793 8.03874 18.3855 6.34498C16.6917 4.65122 14.3953 3.69838 12 3.69547Z" fill="#3D444F"/>
</svg>
