<svg width="24" height="25" viewBox="0 0 24 25" fill="none" xmlns="http://www.w3.org/2000/svg">
<path d="M15 2.23047C13.8162 2.23153 12.6495 2.51254 11.5951 3.05056C10.5406 3.58857 9.62835 4.36834 8.9328 5.32619C8.23718 6.28404 7.77803 7.39282 7.5927 8.56197C7.40741 9.73114 7.50128 10.9276 7.8666 12.0536L2.46938 17.4498C2.39975 17.5195 2.34454 17.6023 2.3069 17.6933C2.26926 17.7843 2.24993 17.8819 2.25 17.9805V21.7305C2.25 21.9294 2.32902 22.1202 2.46967 22.2608C2.61032 22.4014 2.80109 22.4805 3 22.4805H6.75C6.94892 22.4805 7.13968 22.4014 7.28033 22.2608C7.42098 22.1202 7.5 21.9294 7.5 21.7305V20.2305H9C9.1989 20.2305 9.3897 20.1514 9.53032 20.0108C9.67095 19.8702 9.75 19.6794 9.75 19.4805V17.9805H11.25C11.3485 17.9805 11.4461 17.9612 11.5371 17.9235C11.6281 17.8859 11.7109 17.8307 11.7806 17.7611L12.6769 16.8639C13.7077 17.1986 14.7988 17.3058 15.875 17.1784C16.9513 17.0509 17.9871 16.6917 18.9112 16.1256C19.8353 15.5593 20.6258 14.7996 21.228 13.8986C21.8303 12.9976 22.2302 11.9768 22.4002 10.9064C22.57 9.83607 22.506 8.74152 22.2124 7.69832C21.9187 6.65509 21.4025 5.68789 20.6991 4.86333C19.9958 4.03876 19.1222 3.37642 18.1383 2.9219C17.1545 2.46739 16.0837 2.2315 15 2.23047ZM15 15.7305C14.2408 15.7317 13.4883 15.5883 12.7829 15.3077C12.6448 15.2478 12.492 15.2307 12.3442 15.2589C12.1964 15.2869 12.0604 15.3588 11.9541 15.4651L10.9397 16.4805H9C8.8011 16.4805 8.6103 16.5595 8.46968 16.7001C8.32905 16.8408 8.25 17.0316 8.25 17.2305V18.7305H6.75C6.55109 18.7305 6.36032 18.8095 6.21967 18.9501C6.07902 19.0908 6 19.2816 6 19.4805V20.9805H3.75V18.2907L9.26535 12.7764C9.37162 12.67 9.44355 12.534 9.4716 12.3863C9.49973 12.2385 9.4827 12.0857 9.42285 11.9477C8.94855 10.755 8.8692 9.44172 9.19642 8.20064C9.52365 6.95957 10.2403 5.85615 11.241 5.05244C12.2417 4.24873 13.4738 3.7871 14.7562 3.73535C16.0386 3.68359 17.3039 4.04445 18.3661 4.76491C19.4283 5.48536 20.2315 6.52746 20.6577 7.73812C21.0839 8.94882 21.1106 10.2642 20.734 11.4912C20.3573 12.7182 19.5971 13.792 18.5651 14.5551C17.5331 15.3181 16.2835 15.7301 15 15.7305ZM18 7.85547C18 8.07797 17.934 8.29549 17.8104 8.48052C17.6868 8.66547 17.5111 8.80969 17.3055 8.89482C17.0999 8.98002 16.8737 9.00229 16.6556 8.95887C16.4373 8.91544 16.2368 8.80827 16.0795 8.65099C15.9222 8.49364 15.815 8.29317 15.7716 8.07495C15.7282 7.85671 15.7505 7.63051 15.8357 7.42495C15.9208 7.21939 16.065 7.04368 16.2499 6.92007C16.435 6.79645 16.6525 6.73047 16.875 6.73047C17.1734 6.73047 17.4595 6.849 17.6705 7.05997C17.8815 7.27095 18 7.5571 18 7.85547Z" fill="#3D444F"/>
</svg>
