<svg width="24" height="25" viewBox="0 0 24 25" fill="none" xmlns="http://www.w3.org/2000/svg">
<path d="M17.5332 7.53471H17.3612C16.655 7.52132 15.9824 7.23061 15.4888 6.72539C14.9952 6.22018 14.7202 5.54103 14.7232 4.83471C14.7587 4.13367 15.0621 3.47305 15.5709 2.98941C16.0796 2.50578 16.7547 2.23608 17.4567 2.23608C18.1586 2.23608 18.8337 2.50578 19.3425 2.98941C19.8512 3.47305 20.1547 4.13367 20.1902 4.83471C20.1932 5.54103 19.9182 6.22018 19.4246 6.72539C18.9309 7.23061 18.2584 7.52132 17.5522 7.53471H17.5332ZM17.4602 3.70471C17.1435 3.69443 16.8357 3.80978 16.6038 4.02559C16.3718 4.2414 16.2347 4.54016 16.2222 4.85671C16.2214 5.01351 16.2515 5.16893 16.3108 5.3141C16.37 5.45926 16.4573 5.59133 16.5676 5.70276C16.678 5.81419 16.8091 5.9028 16.9537 5.96353C17.0983 6.02426 17.2534 6.05593 17.4102 6.05671C17.4102 6.04671 17.4712 6.04671 17.5422 6.05671C17.8518 6.04117 18.1432 5.9056 18.3546 5.67877C18.5659 5.45193 18.6805 5.15168 18.6742 4.84171C18.6579 4.53206 18.5224 4.24072 18.2961 4.02876C18.0698 3.8168 17.7702 3.70067 17.4602 3.70471Z" fill="#3D444F"/>
<path d="M17.4611 14.3967C16.3336 14.4122 15.2245 14.1096 14.2611 13.5237C13.8695 13.302 13.5405 12.9846 13.3047 12.6013C13.069 12.218 12.9343 11.7812 12.9131 11.3317C12.9318 10.881 13.065 10.4425 13.3001 10.0576C13.5353 9.67268 13.8646 9.35401 14.2571 9.13167C15.2276 8.56281 16.3322 8.26294 17.4571 8.26294C18.582 8.26294 19.6866 8.56281 20.6571 9.13167C21.0462 9.35434 21.3733 9.67119 21.6081 10.0531C21.8429 10.4351 21.978 10.8699 22.0011 11.3177C21.9812 11.7681 21.8475 12.2061 21.6124 12.5908C21.3774 12.9755 21.0487 13.2944 20.6571 13.5177C19.6987 14.1125 18.5889 14.4178 17.4611 14.3967ZM15.0961 10.3657C14.9132 10.4596 14.7565 10.5975 14.64 10.767C14.5236 10.9365 14.4511 11.1322 14.4291 11.3367C14.4531 11.5405 14.5263 11.7354 14.6426 11.9046C14.7588 12.0738 14.9144 12.2121 15.0961 12.3077C15.8151 12.7175 16.6285 12.933 17.4561 12.933C18.2837 12.933 19.0971 12.7175 19.8161 12.3077C20.001 12.2151 20.1593 12.0769 20.2761 11.9061C20.3928 11.7353 20.464 11.5376 20.4831 11.3317C20.459 11.1279 20.3857 10.933 20.2695 10.7638C20.1533 10.5946 19.9977 10.4563 19.8161 10.3607C19.0966 9.95162 18.283 9.73697 17.4554 9.73784C16.6278 9.73872 15.8147 9.9551 15.0961 10.3657Z" fill="#3D444F"/>
<path d="M6.61892 16.3616H6.44592C6.09652 16.3567 5.75154 16.2827 5.4308 16.1441C5.11005 16.0054 4.81986 15.8048 4.57688 15.5536C4.33391 15.3025 4.14294 15.0058 4.01494 14.6807C3.88695 14.3555 3.82445 14.0083 3.83104 13.6589C3.83762 13.3095 3.91316 12.9649 4.05332 12.6448C4.19348 12.3247 4.39549 12.0355 4.64776 11.7937C4.90002 11.5518 5.19757 11.3623 5.52332 11.2358C5.84906 11.1093 6.19658 11.0484 6.54592 11.0566C6.89526 11.0484 7.24279 11.1093 7.56853 11.2358C7.89427 11.3623 8.19182 11.5518 8.44409 11.7937C8.69636 12.0355 8.89837 12.3247 9.03853 12.6448C9.17868 12.9649 9.25422 13.3095 9.26081 13.6589C9.2674 14.0083 9.2049 14.3555 9.0769 14.6807C8.94891 15.0058 8.75794 15.3025 8.51497 15.5536C8.27199 15.8048 7.9818 16.0054 7.66105 16.1441C7.34031 16.2827 6.99533 16.3567 6.64592 16.3616H6.61892ZM6.54592 12.5316C6.38801 12.5227 6.2299 12.5456 6.08103 12.5991C5.93217 12.6525 5.79559 12.7354 5.67945 12.8428C5.56331 12.9502 5.46998 13.0798 5.40503 13.224C5.34008 13.3683 5.30485 13.5241 5.30142 13.6822C5.29799 13.8404 5.32645 13.9976 5.38509 14.1445C5.44373 14.2914 5.53136 14.425 5.64274 14.5373C5.75412 14.6496 5.88698 14.7383 6.03339 14.7982C6.1798 14.858 6.33677 14.8878 6.49492 14.8856C6.49492 14.8756 6.55592 14.8756 6.62592 14.8856C6.93309 14.868 7.22116 14.7309 7.42857 14.5037C7.63597 14.2764 7.74623 13.9771 7.73578 13.6696C7.72533 13.3621 7.595 13.0709 7.37265 12.8582C7.15029 12.6456 6.85357 12.5284 6.54592 12.5316Z" fill="#3D444F"/>
<path d="M6.54702 23.2238C5.41951 23.2393 4.31046 22.9367 3.34702 22.3508C2.95543 22.1291 2.62641 21.8118 2.39068 21.4285C2.15495 21.0451 2.02021 20.6083 1.99902 20.1588C2.01772 19.7081 2.15092 19.2697 2.38608 18.8847C2.62123 18.4998 2.95057 18.1812 3.34302 17.9588C4.31351 17.39 5.4181 17.0901 6.54302 17.0901C7.66795 17.0901 8.77254 17.39 9.74302 17.9588C10.1322 18.1815 10.4592 18.4983 10.694 18.8803C10.9289 19.2622 11.064 19.697 11.087 20.1448C11.0671 20.5952 10.9334 21.0332 10.6984 21.4179C10.4634 21.8026 10.1347 22.1215 9.74302 22.3448C8.78462 22.9396 7.67479 23.2448 6.54702 23.2238ZM4.18202 19.1928C3.9991 19.2867 3.84239 19.4246 3.72597 19.5941C3.60954 19.7636 3.53706 19.9594 3.51502 20.1638C3.53909 20.3676 3.61239 20.5625 3.7286 20.7317C3.8448 20.9009 4.00042 21.0392 4.18202 21.1348C4.90105 21.5446 5.71441 21.7602 6.54202 21.7602C7.36964 21.7602 8.18299 21.5446 8.90202 21.1348C9.08698 21.0422 9.24528 20.904 9.36199 20.7332C9.47869 20.5625 9.54995 20.3648 9.56902 20.1588C9.54495 19.955 9.47165 19.7601 9.35545 19.5909C9.23925 19.4218 9.08363 19.2834 8.90202 19.1878C8.18299 18.778 7.36964 18.5625 6.54202 18.5625C5.71441 18.5625 4.90105 18.778 4.18202 19.1878V19.1928Z" fill="#3D444F"/>
<path d="M14.504 22.0918C14.3849 22.0926 14.2676 22.0622 14.164 22.0036C14.0603 21.945 13.9737 21.8602 13.913 21.7578C13.854 21.6569 13.8237 21.5419 13.8253 21.425C13.8268 21.3082 13.8603 21.194 13.922 21.0948L14.877 19.5498C14.9738 19.3986 15.1251 19.2904 15.2995 19.2476C15.4739 19.2048 15.6581 19.2306 15.814 19.3198C15.8904 19.3628 15.9573 19.4208 16.0108 19.4903C16.0643 19.5597 16.1032 19.6393 16.1252 19.7241C16.1473 19.809 16.1519 19.8974 16.139 19.9841C16.1261 20.0708 16.0958 20.1541 16.05 20.2288L15.804 20.6288C17.0364 20.3619 18.1419 19.6849 18.9399 18.7084C19.7378 17.732 20.181 16.5137 20.197 15.2528C20.197 15.0719 20.2688 14.8985 20.3967 14.7706C20.5246 14.6427 20.6981 14.5708 20.879 14.5708C21.0598 14.5708 21.2333 14.6427 21.3612 14.7706C21.4891 14.8985 21.561 15.0719 21.561 15.2528C21.5257 17.0935 20.764 18.8455 19.442 20.1267C18.1199 21.4079 16.3448 22.1143 14.504 22.0918Z" fill="#3D444F"/>
<path d="M2.68102 10.6168C2.50368 10.6182 2.33289 10.5499 2.20535 10.4267C2.07782 10.3034 2.00373 10.1351 1.99902 9.95781C2.03008 8.117 2.78933 6.36352 4.11051 5.08133C5.43168 3.79914 7.20712 3.09273 9.04802 3.11681C9.16712 3.11603 9.28435 3.14645 9.38803 3.20505C9.49172 3.26365 9.57825 3.34838 9.63902 3.45081C9.69858 3.55202 9.72923 3.66764 9.72765 3.78507C9.72606 3.90249 9.69229 4.01724 9.63002 4.11681L8.67502 5.65881C8.57815 5.81001 8.42688 5.91821 8.25248 5.96102C8.07808 6.00383 7.8939 5.97797 7.73802 5.88881C7.66137 5.84606 7.59414 5.78827 7.54036 5.71891C7.48658 5.64956 7.44736 5.57006 7.42504 5.48518C7.40273 5.4003 7.39778 5.31179 7.41049 5.22495C7.4232 5.13811 7.45331 5.05473 7.49902 4.97981L7.74502 4.57981C6.5126 4.84718 5.4073 5.52464 4.60973 6.50149C3.81216 7.47834 3.36948 8.69681 3.35402 9.95781C3.35487 10.0447 3.33812 10.1309 3.30478 10.2111C3.27144 10.2914 3.2222 10.3641 3.16002 10.4248C3.03203 10.55 2.86006 10.62 2.68102 10.6198V10.6168Z" fill="#3D444F"/>
</svg>
