<svg width="24" height="25" viewBox="0 0 24 25" fill="none" xmlns="http://www.w3.org/2000/svg">
<path fill-rule="evenodd" clip-rule="evenodd" d="M6.16037 6.80953C6.45331 7.10238 6.45338 7.57725 6.16054 7.87019C5.00702 9.02409 4.22156 10.4941 3.90345 12.0944C3.58534 13.6946 3.74887 15.3533 4.37337 16.8606C4.99788 18.368 6.0553 19.6563 7.41195 20.5627C8.76859 21.4691 10.3635 21.9529 11.9951 21.9529C13.6267 21.9529 15.2216 21.4691 16.5783 20.5627C17.9349 19.6563 18.9924 18.368 19.6169 16.8606C20.2414 15.3533 20.4049 13.6946 20.0868 12.0944C19.7687 10.4941 18.9832 9.02409 17.8297 7.87019C17.5369 7.57725 17.5369 7.10238 17.8299 6.80953C18.1228 6.51669 18.5977 6.51677 18.8905 6.80971C20.2538 8.1734 21.1821 9.91069 21.558 11.8019C21.934 13.6931 21.7407 15.6534 21.0026 17.4348C20.2646 19.2162 19.0149 20.7387 17.4116 21.8099C15.8083 22.8811 13.9234 23.4529 11.9951 23.4529C10.0669 23.4529 8.18195 22.8811 6.57864 21.8099C4.97533 20.7387 3.72565 19.2162 2.9876 17.4348C2.24955 15.6534 2.05628 13.6931 2.43223 11.8019C2.80818 9.91069 3.73646 8.1734 5.0997 6.80971C5.39255 6.51677 5.86742 6.51669 6.16037 6.80953Z" fill="#3D444F"/>
<path fill-rule="evenodd" clip-rule="evenodd" d="M12.0001 1.94995C12.4143 1.94995 12.7501 2.28574 12.7501 2.69995V12.7C12.7501 13.1142 12.4143 13.45 12.0001 13.45C11.5859 13.45 11.2501 13.1142 11.2501 12.7V2.69995C11.2501 2.28574 11.5859 1.94995 12.0001 1.94995Z" fill="#3D444F"/>
</svg>
