<svg width="25" height="25" viewBox="0 0 25 25" fill="none" xmlns="http://www.w3.org/2000/svg">
<g clip-path="url(#clip0_9394_7078)">
<path d="M3.22069 4.72494L8.0999 9.60415C8.22554 9.7298 8.39307 9.79262 8.53965 9.79262C8.68622 9.79262 8.85375 9.7298 8.97939 9.60415C9.23068 9.35286 9.23068 8.95503 8.97939 8.72466L4.10018 3.84545C3.8489 3.59416 3.45106 3.59416 3.22069 3.84545C2.96941 4.07579 2.96941 4.47366 3.22069 4.72494Z" fill="#3D444F"/>
<path d="M1.29393 5.77172C1.04265 6.023 1.04265 6.42084 1.29393 6.65121L7.65978 13.017C8.05765 13.415 8.58116 13.6243 9.14652 13.6243C9.71189 13.6243 10.2354 13.415 10.6333 13.017C10.8846 12.7658 10.8846 12.3679 10.6333 12.1376C10.382 11.8863 9.98414 11.8863 9.75377 12.1376C9.43966 12.4516 8.89519 12.4516 8.56014 12.1376L2.17323 5.77172C1.94289 5.52043 1.54522 5.52043 1.29393 5.77172Z" fill="#3D444F"/>
<path d="M8.83226 15.7398C9.08355 15.4885 9.08355 15.0907 8.83226 14.8603C8.58099 14.6091 8.18314 14.6091 7.95278 14.8603L3.4087 19.3835C3.05272 19.7394 2.86426 20.221 2.86426 20.7236C2.86426 21.2262 3.05272 21.7078 3.4087 22.0638C3.76469 22.4198 4.24632 22.6083 4.74888 22.6083C5.25145 22.6083 5.73305 22.4198 6.08906 22.0638L12.4128 15.6979L18.7786 22.0638C19.1346 22.4198 19.6163 22.6083 20.1188 22.6083C20.6214 22.6083 21.103 22.4198 21.459 22.0638C21.815 21.7078 22.0035 21.2262 22.0035 20.7236C22.0035 20.221 21.815 19.7395 21.459 19.3835L17.4804 15.4048C17.229 15.1535 16.8312 15.1535 16.6008 15.4048C16.3705 15.6561 16.3496 16.0539 16.6008 16.2843L20.5795 20.2629C20.7051 20.3886 20.768 20.5352 20.768 20.7027C20.768 20.8702 20.7051 21.0378 20.5795 21.1424C20.3492 21.3728 19.9303 21.3728 19.7 21.1424L12.8527 14.3788C12.6223 14.1485 12.2036 14.1485 11.9731 14.3788L5.18851 21.1634C4.95816 21.3938 4.53938 21.3938 4.30902 21.1634C4.18338 21.0379 4.12055 20.8913 4.12055 20.7237C4.12055 20.5562 4.18338 20.3887 4.30902 20.284L8.83226 15.7398Z" fill="#3D444F"/>
<path d="M20.2871 2.50536L14.5286 8.26382C14.2773 8.5151 14.2773 8.91295 14.5286 9.14331C14.7799 9.3946 15.1777 9.3946 15.4081 9.14331L20.685 3.86636C21.4808 5.08089 21.3551 6.75612 20.2872 7.82409L15.1361 12.9962L12.7908 10.7137C12.9374 10.4206 13.0211 10.0855 13.0211 9.75046C13.0211 9.1851 12.8118 8.66157 12.4139 8.26373L6.02694 1.91893C5.77566 1.66765 5.37782 1.66765 5.14745 1.91893C4.89616 2.17021 4.89616 2.56806 5.14745 2.79842L11.5133 9.16428C11.6808 9.3318 11.7646 9.5412 11.7646 9.75061C11.7646 9.96001 11.6808 10.1903 11.5133 10.3369C11.3876 10.4626 11.3249 10.6092 11.3249 10.7767C11.3249 10.9442 11.3876 11.1117 11.5133 11.2164L14.6753 14.2947C14.8009 14.4203 14.9684 14.4831 15.115 14.4831C15.2616 14.4831 15.4291 14.4203 15.5547 14.2947L21.1667 8.68262C22.8838 6.96552 22.8838 4.18048 21.1667 2.46324C20.9364 2.27477 20.5175 2.27501 20.2871 2.50536Z" fill="#3D444F"/>
</g>
<defs>
<clipPath id="clip0_9394_7078">
<rect width="22" height="21.0833" fill="white" transform="translate(1.10547 1.73047)"/>
</clipPath>
</defs>
</svg>
