<svg width="24" height="25" viewBox="0 0 24 25" fill="none" xmlns="http://www.w3.org/2000/svg">
<path d="M4 21.7305C3.45 21.7305 2.97917 21.5346 2.5875 21.143C2.19583 20.7513 2 20.2805 2 19.7305V17.7305C2 17.4471 2.09583 17.2096 2.2875 17.018C2.47917 16.8263 2.71667 16.7305 3 16.7305H21C21.2833 16.7305 21.5208 16.8263 21.7125 17.018C21.9042 17.2096 22 17.4471 22 17.7305V19.7305C22 20.2805 21.8042 20.7513 21.4125 21.143C21.0208 21.5346 20.55 21.7305 20 21.7305H4ZM4 18.7305V19.7305H20V18.7305H4ZM12 14.2305C11.4 14.2305 10.925 14.3971 10.575 14.7305C10.225 15.0638 9.58333 15.2305 8.65 15.2305C7.71667 15.2305 7.08333 15.0638 6.75 14.7305C6.41667 14.3971 5.95 14.2305 5.35 14.2305C4.88333 14.2305 4.50417 14.343 4.2125 14.568C3.92083 14.793 3.525 14.9721 3.025 15.1055C2.75833 15.1888 2.52083 15.1346 2.3125 14.943C2.10417 14.7513 2 14.5138 2 14.2305C2 13.9471 2.09583 13.7013 2.2875 13.493C2.47917 13.2846 2.70833 13.1138 2.975 12.9805C3.25833 12.8305 3.56667 12.668 3.9 12.493C4.23333 12.318 4.71667 12.2305 5.35 12.2305C6.28333 12.2305 6.91667 12.3971 7.25 12.7305C7.58333 13.0638 8.05 13.2305 8.65 13.2305C9.25 13.2305 9.725 13.0638 10.075 12.7305C10.425 12.3971 11.0667 12.2305 12 12.2305C12.9333 12.2305 13.575 12.3971 13.925 12.7305C14.275 13.0638 14.75 13.2305 15.35 13.2305C15.95 13.2305 16.4167 13.0638 16.75 12.7305C17.0833 12.3971 17.7167 12.2305 18.65 12.2305C19.25 12.2305 19.725 12.3138 20.075 12.4805C20.425 12.6471 20.7417 12.8055 21.025 12.9555C21.2917 13.0888 21.5208 13.2638 21.7125 13.4805C21.9042 13.6971 22 13.9471 22 14.2305C22 14.5138 21.9 14.7513 21.7 14.943C21.5 15.1346 21.2667 15.1888 21 15.1055C20.5167 14.9721 20.1375 14.793 19.8625 14.568C19.5875 14.343 19.2167 14.2305 18.75 14.2305C18.15 14.2305 17.6667 14.3971 17.3 14.7305C16.9333 15.0638 16.2833 15.2305 15.35 15.2305C14.4167 15.2305 13.775 15.0638 13.425 14.7305C13.075 14.3971 12.6 14.2305 12 14.2305ZM12 3.73047C13.2333 3.73047 14.4458 3.84297 15.6375 4.06797C16.8292 4.29297 17.8958 4.64297 18.8375 5.11797C19.7792 5.59297 20.5417 6.20964 21.125 6.96797C21.7083 7.7263 22 8.64714 22 9.73047C22 10.0138 21.9042 10.2513 21.7125 10.443C21.5208 10.6346 21.2833 10.7305 21 10.7305H3C2.71667 10.7305 2.47917 10.6346 2.2875 10.443C2.09583 10.2513 2 10.0138 2 9.73047C2 8.64714 2.29167 7.7263 2.875 6.96797C3.45833 6.20964 4.22083 5.59297 5.1625 5.11797C6.10417 4.64297 7.17083 4.29297 8.3625 4.06797C9.55417 3.84297 10.7667 3.73047 12 3.73047ZM12 5.73047C9.93333 5.73047 8.20417 5.9888 6.8125 6.50547C5.42083 7.02214 4.53333 7.7638 4.15 8.73047H19.85C19.4667 7.7638 18.5792 7.02214 17.1875 6.50547C15.7958 5.9888 14.0667 5.73047 12 5.73047Z" fill="#3D444F"/>
</svg>
