<svg width="24" height="25" viewBox="0 0 24 25" fill="none" xmlns="http://www.w3.org/2000/svg">
<path d="M22 9.66919V15.6692C22 15.8892 22 16.1092 21.98 16.3192C21.16 15.3092 19.91 14.6692 18.5 14.6692C17.44 14.6692 16.46 15.0392 15.69 15.6592C14.65 16.4792 14 17.7492 14 19.1692C14 20.5792 14.64 21.8292 15.65 22.6492C15.44 22.6692 15.22 22.6692 15 22.6692H9C4 22.6692 2 20.6692 2 15.6692V9.66919C2 4.66919 4 2.66919 9 2.66919H15C20 2.66919 22 4.66919 22 9.66919Z" stroke="#3D444F" stroke-width="1.5" stroke-linecap="round" stroke-linejoin="round"/>
<path d="M7 9.66919H15" stroke="#3D444F" stroke-width="1.5" stroke-miterlimit="10" stroke-linecap="round" stroke-linejoin="round"/>
<path d="M7 13.6692H12" stroke="#3D444F" stroke-width="1.5" stroke-miterlimit="10" stroke-linecap="round" stroke-linejoin="round"/>
<path d="M23 19.1692C23 20.5192 22.4 21.7192 21.47 22.5492C20.67 23.2392 19.64 23.6692 18.5 23.6692C17.42 23.6692 16.42 23.2892 15.65 22.6492C14.64 21.8292 14 20.5792 14 19.1692C14 17.7492 14.65 16.4792 15.69 15.6592C16.46 15.0392 17.44 14.6692 18.5 14.6692C19.91 14.6692 21.16 15.3092 21.98 16.3192C22.62 17.0892 23 18.0892 23 19.1692Z" stroke="#3D444F" stroke-width="1.5" stroke-miterlimit="10" stroke-linecap="round" stroke-linejoin="round"/>
<path d="M18.7799 17.7593V19.4493L17.3799 20.2892" stroke="#3D444F" stroke-width="1.5" stroke-miterlimit="10" stroke-linecap="round" stroke-linejoin="round"/>
</svg>
