<svg width="24" height="25" viewBox="0 0 24 25" fill="none" xmlns="http://www.w3.org/2000/svg">
<path d="M18.0001 7.85995C17.9401 7.84995 17.8701 7.84995 17.8101 7.85995C16.4301 7.80995 15.3301 6.67995 15.3301 5.27995C15.3301 3.84995 16.4801 2.69995 17.9101 2.69995C19.3401 2.69995 20.4901 3.85995 20.4901 5.27995C20.4801 6.67995 19.3801 7.80995 18.0001 7.85995Z" stroke="#3D444F" stroke-width="1.5" stroke-linecap="round" stroke-linejoin="round"/>
<path d="M16.9704 15.1399C18.3404 15.3699 19.8504 15.1299 20.9104 14.4199C22.3204 13.4799 22.3204 11.9399 20.9104 10.9999C19.8404 10.2899 18.3104 10.0499 16.9404 10.2899" stroke="#3D444F" stroke-width="1.5" stroke-linecap="round" stroke-linejoin="round"/>
<path d="M5.97047 7.85995C6.03047 7.84995 6.10047 7.84995 6.16047 7.85995C7.54047 7.80995 8.64047 6.67995 8.64047 5.27995C8.64047 3.84995 7.49047 2.69995 6.06047 2.69995C4.63047 2.69995 3.48047 3.85995 3.48047 5.27995C3.49047 6.67995 4.59047 7.80995 5.97047 7.85995Z" stroke="#3D444F" stroke-width="1.5" stroke-linecap="round" stroke-linejoin="round"/>
<path d="M7.00043 15.1399C5.63043 15.3699 4.12043 15.1299 3.06043 14.4199C1.65043 13.4799 1.65043 11.9399 3.06043 10.9999C4.13043 10.2899 5.66043 10.0499 7.03043 10.2899" stroke="#3D444F" stroke-width="1.5" stroke-linecap="round" stroke-linejoin="round"/>
<path d="M12.0001 15.3299C11.9401 15.3199 11.8701 15.3199 11.8101 15.3299C10.4301 15.2799 9.33008 14.1499 9.33008 12.7499C9.33008 11.3199 10.4801 10.1699 11.9101 10.1699C13.3401 10.1699 14.4901 11.3299 14.4901 12.7499C14.4801 14.1499 13.3801 15.2899 12.0001 15.3299Z" stroke="#3D444F" stroke-width="1.5" stroke-linecap="round" stroke-linejoin="round"/>
<path d="M9.08973 18.4798C7.67973 19.4198 7.67973 20.9598 9.08973 21.8998C10.6897 22.9698 13.3097 22.9698 14.9097 21.8998C16.3197 20.9598 16.3197 19.4198 14.9097 18.4798C13.3197 17.4198 10.6897 17.4198 9.08973 18.4798Z" stroke="#3D444F" stroke-width="1.5" stroke-linecap="round" stroke-linejoin="round"/>
</svg>
