<svg width="24" height="25" viewBox="0 0 24 25" fill="none" xmlns="http://www.w3.org/2000/svg">
<path d="M9.28366 12.413H9.20466C9.14607 12.4032 9.08625 12.4032 9.02766 12.413C7.69513 12.3755 6.43094 11.8149 5.50846 10.8526C4.58599 9.89022 4.07937 8.60346 4.09816 7.27054C4.11695 5.93761 4.65964 4.66564 5.60888 3.7297C6.55811 2.79375 7.8376 2.26904 9.17066 2.26904C10.5037 2.26904 11.7832 2.79375 12.7324 3.7297C13.6817 4.66564 14.2244 5.93761 14.2432 7.27054C14.2619 8.60346 13.7553 9.89022 12.8328 10.8526C11.9104 11.8149 10.6462 12.3755 9.31366 12.413H9.28366ZM9.12666 3.66803C8.64924 3.6589 8.17469 3.7439 7.73012 3.91817C7.28555 4.09244 6.87966 4.35256 6.53561 4.6837C5.84079 5.35245 5.44009 6.26983 5.42166 7.23403C5.40322 8.19822 5.76857 9.13025 6.43733 9.82507C7.10608 10.5199 8.02346 10.9206 8.98766 10.939C9.09142 10.9291 9.19589 10.9291 9.29966 10.939C10.2485 10.8945 11.1422 10.4804 11.7895 9.78519C12.4369 9.09003 12.7864 8.1691 12.7632 7.2195C12.7401 6.2699 12.3462 5.36708 11.6658 4.70426C10.9854 4.04144 10.0725 3.67129 9.12266 3.67303L9.12666 3.66803Z" fill="#3D444F"/>
<path d="M16.5603 12.5411C16.5303 12.5427 16.5002 12.5393 16.4713 12.5311C16.2721 12.5535 16.0719 12.4984 15.9122 12.3772C15.7524 12.256 15.6454 12.078 15.6133 11.8801C15.5993 11.7863 15.6041 11.6905 15.6273 11.5985C15.6504 11.5064 15.6916 11.4199 15.7484 11.3439C15.8052 11.2678 15.8765 11.2038 15.9582 11.1554C16.0399 11.1071 16.1303 11.0754 16.2243 11.0621C16.3423 11.0521 16.4703 11.0521 16.5793 11.0521C17.2849 11.0138 17.9476 10.7017 18.4266 10.1822C18.9056 9.66277 19.163 8.97693 19.1441 8.2706C19.1252 7.56427 18.8315 6.89318 18.3254 6.40006C17.8194 5.90695 17.1409 5.63072 16.4343 5.63013C16.3377 5.63132 16.2418 5.61332 16.1522 5.57717C16.0626 5.54102 15.9811 5.48743 15.9123 5.41953C15.8436 5.35162 15.789 5.27075 15.7517 5.18159C15.7145 5.09243 15.6953 4.99676 15.6953 4.90013C15.6969 4.70462 15.7753 4.51757 15.9135 4.37931C16.0518 4.24106 16.2388 4.1627 16.4343 4.16113C17.5283 4.16728 18.5766 4.60087 19.3553 5.36933C20.134 6.13779 20.5814 7.18021 20.602 8.27404C20.6226 9.36787 20.2148 10.4264 19.4657 11.2237C18.7165 12.021 17.6853 12.4937 16.5923 12.5411H16.5603Z" fill="#3D444F"/>
<path d="M9.29408 23.1899C7.40707 23.2252 5.55047 22.7113 3.95008 21.7109C3.32955 21.3545 2.80958 20.8464 2.43882 20.2343C2.06805 19.6222 1.85861 18.926 1.83008 18.2109C1.85934 17.4934 2.0689 16.7947 2.43942 16.1795C2.80995 15.5643 3.32948 15.0524 3.95008 14.6909C5.5661 13.7279 7.41236 13.2195 9.29358 13.2195C11.1748 13.2195 13.0211 13.7279 14.6371 14.6909C15.2562 15.0491 15.775 15.5575 16.1456 16.1693C16.5161 16.7811 16.7264 17.4764 16.7571 18.1909C16.7278 18.9085 16.5183 19.6072 16.1477 20.2224C15.7772 20.8376 15.2577 21.3495 14.6371 21.7109C13.0364 22.7099 11.1806 23.2237 9.29408 23.1899ZM4.76908 15.9329C4.35412 16.1618 4.00315 16.4911 3.74828 16.8906C3.4934 17.2901 3.34274 17.7472 3.31008 18.2199C3.34529 18.6895 3.49717 19.1429 3.75194 19.539C4.00672 19.935 4.35633 20.2612 4.76908 20.4879C6.14016 21.2965 7.70284 21.723 9.29458 21.723C10.8863 21.723 12.449 21.2965 13.8201 20.4879C14.235 20.2591 14.586 19.9298 14.8409 19.5303C15.0958 19.1308 15.2464 18.6737 15.2791 18.2009C15.2439 17.7313 15.092 17.278 14.8372 16.8819C14.5824 16.4859 14.2328 16.1597 13.8201 15.9329C12.4474 15.1291 10.8853 14.7054 9.29458 14.7054C7.70384 14.7054 6.1418 15.1291 4.76908 15.9329Z" fill="#3D444F"/>
<path d="M18.3357 21.4141C18.1654 21.4152 18.0001 21.3566 17.8686 21.2484C17.737 21.1403 17.6475 20.9894 17.6157 20.8221C17.5779 20.6302 17.6165 20.4311 17.7234 20.2672C17.8302 20.1034 17.9969 19.9878 18.1877 19.9451C18.7808 19.8319 19.3405 19.5858 19.8247 19.2251C20.0788 19.0583 20.2898 18.8339 20.4406 18.5701C20.5915 18.3063 20.6778 18.0106 20.6927 17.7071C20.6788 17.4059 20.5937 17.1122 20.4446 16.8502C20.2955 16.5881 20.0865 16.365 19.8347 16.1991C19.3541 15.845 18.8025 15.5993 18.2177 15.4791C18.1196 15.4608 18.0261 15.4229 17.9429 15.3677C17.8596 15.3125 17.7884 15.2411 17.7334 15.1577C17.6784 15.0744 17.6408 14.9808 17.6228 14.8825C17.6048 14.7843 17.6068 14.6835 17.6287 14.586C17.6505 14.4886 17.6918 14.3965 17.75 14.3154C17.8083 14.2343 17.8822 14.1657 17.9676 14.1138C18.0529 14.0619 18.1478 14.0277 18.2466 14.0134C18.3454 13.999 18.4462 14.0047 18.5427 14.0301C19.3361 14.1935 20.0836 14.5302 20.7317 15.0161C21.1653 15.3211 21.5214 15.7235 21.7713 16.191C22.0212 16.6585 22.158 17.1781 22.1707 17.7081C22.1547 18.2396 22.0155 18.7601 21.7641 19.2287C21.5126 19.6972 21.1558 20.1009 20.7217 20.4081C20.065 20.904 19.3025 21.2415 18.4937 21.3941C18.4426 21.4099 18.3892 21.4166 18.3357 21.4141Z" fill="#3D444F"/>
</svg>
