<svg width="24" height="25" viewBox="0 0 24 25" fill="none" xmlns="http://www.w3.org/2000/svg">
<path d="M21.7658 8.10238H15.9058C15.7119 8.10238 15.526 8.02537 15.3889 7.88828C15.2518 7.75119 15.1748 7.56525 15.1748 7.37138C15.1748 7.17751 15.2518 6.99158 15.3889 6.85449C15.526 6.7174 15.7119 6.64038 15.9058 6.64038H21.7658C21.9597 6.64038 22.1456 6.7174 22.2827 6.85449C22.4198 6.99158 22.4968 7.17751 22.4968 7.37138C22.4968 7.56525 22.4198 7.75119 22.2827 7.88828C22.1456 8.02537 21.9597 8.10238 21.7658 8.10238Z" fill="#3D444F"/>
<path d="M6.13898 8.10238H2.23198C2.0381 8.10238 1.85217 8.02537 1.71508 7.88828C1.57799 7.75119 1.50098 7.56525 1.50098 7.37138C1.50098 7.17751 1.57799 6.99158 1.71508 6.85449C1.85217 6.7174 2.0381 6.64038 2.23198 6.64038H6.13898C6.33285 6.64038 6.51878 6.7174 6.65587 6.85449C6.79296 6.99158 6.86998 7.17751 6.86998 7.37138C6.86998 7.56525 6.79296 7.75119 6.65587 7.88828C6.51878 8.02537 6.33285 8.10238 6.13898 8.10238Z" fill="#3D444F"/>
<path d="M10.0441 11.5125C9.2255 11.5105 8.42587 11.2659 7.7462 10.8097C7.06654 10.3535 6.53733 9.70607 6.22544 8.94923C5.91355 8.19239 5.83297 7.36009 5.99388 6.55748C6.15479 5.75486 6.54997 5.01794 7.12949 4.43981C7.70902 3.86168 8.44689 3.46828 9.24989 3.30931C10.0529 3.15034 10.885 3.23293 11.6411 3.54664C12.3972 3.86035 13.0433 4.39112 13.4979 5.07188C13.9525 5.75265 14.1951 6.55287 14.1951 7.37146C14.1914 8.47031 13.7525 9.52296 12.9746 10.299C12.1966 11.0751 11.1429 11.5114 10.0441 11.5125ZM10.0441 4.69146C9.51453 4.69284 8.99727 4.85114 8.55763 5.14635C8.11799 5.44156 7.77571 5.86045 7.57401 6.35009C7.37232 6.83973 7.32026 7.37817 7.42442 7.89738C7.52858 8.4166 7.78428 8.89329 8.15922 9.26726C8.53416 9.64122 9.01153 9.89568 9.53101 9.99848C10.0505 10.1013 10.5888 10.0478 11.0779 9.84485C11.567 9.64188 11.985 9.29851 12.2791 8.8581C12.5731 8.4177 12.7301 7.90002 12.7301 7.37046C12.7297 7.01822 12.6599 6.6695 12.5247 6.34425C12.3894 6.019 12.1915 5.72358 11.942 5.47488C11.6926 5.22617 11.3966 5.02907 11.0709 4.89481C10.7452 4.76056 10.3963 4.6908 10.0441 4.69146Z" fill="#3D444F"/>
<path d="M21.7669 18.8204H17.8599C17.666 18.8204 17.4801 18.7434 17.343 18.6063C17.2059 18.4692 17.1289 18.2833 17.1289 18.0894C17.1289 17.8955 17.2059 17.7096 17.343 17.5725C17.4801 17.4354 17.666 17.3584 17.8599 17.3584H21.7669C21.9608 17.3584 22.1467 17.4354 22.2838 17.5725C22.4209 17.7096 22.4979 17.8955 22.4979 18.0894C22.4979 18.2833 22.4209 18.4692 22.2838 18.6063C22.1467 18.7434 21.9608 18.8204 21.7669 18.8204Z" fill="#3D444F"/>
<path d="M8.09198 18.8204H2.23198C2.0381 18.8204 1.85217 18.7434 1.71508 18.6063C1.57799 18.4692 1.50098 18.2833 1.50098 18.0894C1.50098 17.8955 1.57799 17.7096 1.71508 17.5725C1.85217 17.4354 2.0381 17.3584 2.23198 17.3584H8.09198C8.28585 17.3584 8.47178 17.4354 8.60887 17.5725C8.74596 17.7096 8.82298 17.8955 8.82298 18.0894C8.82298 18.2833 8.74596 18.4692 8.60887 18.6063C8.47178 18.7434 8.28585 18.8204 8.09198 18.8204Z" fill="#3D444F"/>
<path d="M13.9513 22.2305C13.1327 22.2285 12.3331 21.984 11.6534 21.5277C10.9738 21.0715 10.4446 20.4241 10.1327 19.6673C9.82078 18.9104 9.7402 18.0781 9.90111 17.2755C10.062 16.4729 10.4572 15.736 11.0367 15.1578C11.6162 14.5797 12.3541 14.1863 13.1571 14.0273C13.9601 13.8684 14.7922 13.9509 15.5483 14.2647C16.3044 14.5784 16.9505 15.1091 17.4051 15.7899C17.8597 16.4707 18.1023 17.2709 18.1023 18.0895C18.0986 19.1883 17.6598 20.241 16.8818 21.017C16.1039 21.7931 15.0502 22.2294 13.9513 22.2305ZM13.9513 15.4095C13.4218 15.4109 12.9045 15.5692 12.4649 15.8644C12.0252 16.1596 11.6829 16.5785 11.4812 17.0681C11.2795 17.5578 11.2275 18.0962 11.3316 18.6154C11.4358 19.1346 11.6915 19.6113 12.0664 19.9853C12.4414 20.3592 12.9188 20.6137 13.4382 20.7165C13.9577 20.8193 14.496 20.7658 14.9851 20.5629C15.4742 20.3599 15.8922 20.0165 16.1863 19.5761C16.4804 19.1357 16.6373 18.618 16.6373 18.0885C16.6369 17.7362 16.5671 17.3875 16.4319 17.0623C16.2967 16.737 16.0987 16.4416 15.8492 16.1929C15.5998 15.9442 15.3038 15.7471 14.9781 15.6128C14.6525 15.4786 14.3036 15.4088 13.9513 15.4095Z" fill="#3D444F"/>
</svg>
