<svg width="25" height="25" viewBox="0 0 25 25" fill="none" xmlns="http://www.w3.org/2000/svg">
<path d="M2.39551 8.51044V18.2404C2.39551 20.1404 3.74551 20.9204 5.38551 19.9804L7.73551 18.6404C8.24551 18.3504 9.09551 18.3204 9.62551 18.5904L14.8755 21.2204C15.4055 21.4804 16.2555 21.4604 16.7655 21.1704L21.0955 18.6904C21.6455 18.3704 22.1055 17.5904 22.1055 16.9504V7.22044C22.1055 5.32044 20.7555 4.54044 19.1155 5.48044L16.7655 6.82044C16.2555 7.11044 15.4055 7.14044 14.8755 6.87044L9.62551 4.25044C9.09551 3.99044 8.24551 4.01044 7.73551 4.30044L3.40551 6.78044C2.84551 7.10044 2.39551 7.88044 2.39551 8.51044Z" stroke="#3D444F" stroke-width="1.5" stroke-linecap="round" stroke-linejoin="round"/>
<path d="M8.66504 4.73047V17.7305" stroke="#3D444F" stroke-width="1.5" stroke-linecap="round" stroke-linejoin="round"/>
<path d="M15.8359 7.35059V20.7306" stroke="#3D444F" stroke-width="1.5" stroke-linecap="round" stroke-linejoin="round"/>
</svg>
