<svg width="25" height="25" viewBox="0 0 25 25" fill="none" xmlns="http://www.w3.org/2000/svg">
<path d="M15.9619 5.33047C15.9619 4.77042 15.9619 4.49039 15.8529 4.27648C15.757 4.08832 15.6041 3.93534 15.4159 3.83946C15.202 3.73047 14.922 3.73047 14.3619 3.73047H11.5619C11.0019 3.73047 10.7218 3.73047 10.5079 3.83946C10.3198 3.93534 10.1668 4.08832 10.0709 4.27648C9.96191 4.49039 9.96191 4.77042 9.96191 5.33047V8.13047C9.96191 8.69052 9.96191 8.97055 9.85292 9.18446C9.75705 9.37262 9.60407 9.5256 9.4159 9.62147C9.20199 9.73047 8.92197 9.73047 8.36191 9.73047H5.56191C5.00186 9.73047 4.72184 9.73047 4.50792 9.83946C4.31976 9.93533 4.16678 10.0883 4.07091 10.2765C3.96191 10.4904 3.96191 10.7704 3.96191 11.3305V14.1305C3.96191 14.6905 3.96191 14.9705 4.07091 15.1845C4.16678 15.3726 4.31976 15.5256 4.50792 15.6215C4.72184 15.7305 5.00186 15.7305 5.56191 15.7305H8.36191C8.92197 15.7305 9.20199 15.7305 9.4159 15.8395C9.60407 15.9353 9.75705 16.0883 9.85292 16.2765C9.96191 16.4904 9.96191 16.7704 9.96191 17.3305V20.1305C9.96191 20.6905 9.96191 20.9705 10.0709 21.1845C10.1668 21.3726 10.3198 21.5256 10.5079 21.6215C10.7218 21.7305 11.0019 21.7305 11.5619 21.7305H14.3619C14.922 21.7305 15.202 21.7305 15.4159 21.6215C15.6041 21.5256 15.757 21.3726 15.8529 21.1845C15.9619 20.9705 15.9619 20.6905 15.9619 20.1305V17.3305C15.9619 16.7704 15.9619 16.4904 16.0709 16.2765C16.1668 16.0883 16.3198 15.9353 16.5079 15.8395C16.7218 15.7305 17.0019 15.7305 17.5619 15.7305H20.3619C20.922 15.7305 21.202 15.7305 21.4159 15.6215C21.6041 15.5256 21.757 15.3726 21.8529 15.1845C21.9619 14.9705 21.9619 14.6905 21.9619 14.1305V11.3305C21.9619 10.7704 21.9619 10.4904 21.8529 10.2765C21.757 10.0883 21.6041 9.93534 21.4159 9.83946C21.202 9.73047 20.922 9.73047 20.3619 9.73047L17.5619 9.73047C17.0019 9.73047 16.7218 9.73047 16.5079 9.62147C16.3198 9.5256 16.1668 9.37262 16.0709 9.18446C15.9619 8.97055 15.9619 8.69052 15.9619 8.13047V5.33047Z" stroke="#3D444F" stroke-width="2" stroke-linecap="round" stroke-linejoin="round"/>
</svg>
