<svg width="24" height="24" viewBox="0 0 24 24" fill="none" xmlns="http://www.w3.org/2000/svg">
<path d="M8.60004 16.4C7.72682 17.205 6.57612 17.641 5.38876 17.6168C4.2014 17.5926 3.0694 17.1102 2.22963 16.2704C1.38987 15.4307 0.907432 14.2987 0.883277 13.1113C0.859122 11.924 1.29512 10.7733 2.10004 9.90004L9.90004 2.10004C10.7733 1.29512 11.924 0.859122 13.1113 0.883277C14.2987 0.907432 15.4307 1.38987 16.2704 2.22963C17.1102 3.0694 17.5926 4.2014 17.6168 5.38876C17.641 6.57612 17.205 7.72682 16.4 8.60004M5.99904 5.99904L10.249 10.249" stroke="#3D444F" stroke-width="1.5" stroke-linecap="round" stroke-linejoin="round"/>
<path d="M17.25 15V19.5M15 17.25H19.5M23.25 15.75C23.2532 17.4964 22.6603 19.1917 21.5693 20.5554C20.4783 21.9192 18.9546 22.8697 17.25 23.25C15.5455 22.8697 14.0217 21.9192 12.9307 20.5554C11.8397 19.1917 11.2468 17.4964 11.25 15.75V13.5C11.25 13.1022 11.408 12.7206 11.6894 12.4393C11.9707 12.158 12.3522 12 12.75 12H21.75C22.1478 12 22.5294 12.158 22.8107 12.4393C23.092 12.7206 23.25 13.1022 23.25 13.5V15.75Z" stroke="#3D444F" stroke-width="1.5" stroke-linecap="round" stroke-linejoin="round"/>
</svg>
