<svg width="25" height="25" viewBox="0 0 25 25" fill="none" xmlns="http://www.w3.org/2000/svg">
<path d="M8.9848 17.1305C8.11158 17.9354 6.96089 18.3714 5.77353 18.3473C4.58617 18.3231 3.45416 17.8407 2.6144 17.0009C1.77464 16.1611 1.2922 15.0291 1.26804 13.8418C1.24389 12.6544 1.67989 11.5037 2.4848 10.6305L10.2848 2.83051C11.158 2.02559 12.3087 1.58959 13.4961 1.61375C14.6834 1.6379 15.8154 2.12034 16.6552 2.9601C17.495 3.79987 17.9774 4.93187 18.0016 6.11923C18.0257 7.30659 17.5897 8.45728 16.7848 9.33051M6.3838 6.72951L10.6338 10.9795" stroke="#3D444F" stroke-width="1.5" stroke-linecap="round" stroke-linejoin="round"/>
<path d="M17.6348 15.7305V20.2305M15.3848 17.9805H19.8848M23.6348 16.4805C23.638 18.2269 23.045 19.9221 21.9541 21.2859C20.8631 22.6496 19.3393 23.6002 17.6348 23.9805C15.9302 23.6002 14.4065 22.6496 13.3155 21.2859C12.2245 19.9221 11.6316 18.2269 11.6348 16.4805V14.2305C11.6348 13.8326 11.7928 13.4511 12.0741 13.1698C12.3554 12.8885 12.737 12.7305 13.1348 12.7305H22.1348C22.5326 12.7305 22.9141 12.8885 23.1954 13.1698C23.4767 13.4511 23.6348 13.8326 23.6348 14.2305V16.4805Z" stroke="#3D444F" stroke-width="1.5" stroke-linecap="round" stroke-linejoin="round"/>
</svg>
