<svg width="24" height="25" viewBox="0 0 24 25" fill="none" xmlns="http://www.w3.org/2000/svg">
<path d="M21 5.94995H3C2.59 5.94995 2.25 5.60995 2.25 5.19995C2.25 4.78995 2.59 4.44995 3 4.44995H21C21.41 4.44995 21.75 4.78995 21.75 5.19995C21.75 5.60995 21.41 5.94995 21 5.94995Z" fill="#3D444F"/>
<path d="M12.47 10.95H3C2.59 10.95 2.25 10.61 2.25 10.2C2.25 9.78995 2.59 9.44995 3 9.44995H12.47C12.88 9.44995 13.22 9.78995 13.22 10.2C13.22 10.61 12.89 10.95 12.47 10.95Z" fill="#3D444F"/>
<path d="M21 15.95H3C2.59 15.95 2.25 15.61 2.25 15.2C2.25 14.79 2.59 14.45 3 14.45H21C21.41 14.45 21.75 14.79 21.75 15.2C21.75 15.61 21.41 15.95 21 15.95Z" fill="#3D444F"/>
<path d="M12.47 20.95H3C2.59 20.95 2.25 20.61 2.25 20.2C2.25 19.79 2.59 19.45 3 19.45H12.47C12.88 19.45 13.22 19.79 13.22 20.2C13.22 20.61 12.89 20.95 12.47 20.95Z" fill="#3D444F"/>
</svg>
