<svg width="25" height="25" viewBox="0 0 25 25" fill="none" xmlns="http://www.w3.org/2000/svg">
<path d="M8.10547 23.0504C7.82547 23.0504 7.53545 22.9804 7.27545 22.8404C6.70545 22.5404 6.35547 21.9404 6.35547 21.3004V19.8804C3.33547 19.5704 1.35547 17.3503 1.35547 14.1703V8.17041C1.35547 4.73041 3.66547 2.42041 7.10547 2.42041H17.1055C20.5455 2.42041 22.8555 4.73041 22.8555 8.17041V14.1703C22.8555 17.6103 20.5455 19.9203 17.1055 19.9203H13.3354L9.07544 22.7604C8.78544 22.9504 8.44547 23.0504 8.10547 23.0504ZM7.10547 3.9104C4.52547 3.9104 2.85547 5.5804 2.85547 8.1604V14.1605C2.85547 16.7405 4.52547 18.4105 7.10547 18.4105C7.51547 18.4105 7.85547 18.7505 7.85547 19.1605V21.2905C7.85547 21.4205 7.93547 21.4804 7.98547 21.5104C8.03547 21.5404 8.13548 21.5704 8.24548 21.5004L12.6955 18.5405C12.8155 18.4605 12.9655 18.4105 13.1155 18.4105H17.1155C19.6955 18.4105 21.3655 16.7405 21.3655 14.1605V8.1604C21.3655 5.5804 19.6955 3.9104 17.1155 3.9104H7.10547Z" fill="#3D444F"/>
<path d="M12.1053 12.8403C11.6953 12.8403 11.3553 12.5003 11.3553 12.0903V11.8804C11.3553 10.7204 12.2053 10.1504 12.5253 9.93036C12.8953 9.68036 13.0153 9.51037 13.0153 9.25037C13.0153 8.75037 12.6053 8.34033 12.1053 8.34033C11.6053 8.34033 11.1953 8.75037 11.1953 9.25037C11.1953 9.66037 10.8553 10.0004 10.4453 10.0004C10.0353 10.0004 9.69531 9.66037 9.69531 9.25037C9.69531 7.92037 10.7753 6.84033 12.1053 6.84033C13.4353 6.84033 14.5153 7.92037 14.5153 9.25037C14.5153 10.3904 13.6753 10.9603 13.3653 11.1703C12.9753 11.4303 12.8553 11.6004 12.8553 11.8804V12.0903C12.8553 12.5103 12.5153 12.8403 12.1053 12.8403Z" fill="#3D444F"/>
<path d="M12.1055 15.3306C11.6855 15.3306 11.3555 14.9906 11.3555 14.5806C11.3555 14.1706 11.6955 13.8306 12.1055 13.8306C12.5155 13.8306 12.8555 14.1706 12.8555 14.5806C12.8555 14.9906 12.5255 15.3306 12.1055 15.3306Z" fill="#3D444F"/>
</svg>
