<svg width="24" height="24" viewBox="0 0 24 24" fill="none" xmlns="http://www.w3.org/2000/svg">
<path d="M18 6.3V6C18 3.79 16.21 2 14 2C11.79 2 10 3.79 10 6V11" stroke="#3D444F" stroke-width="1.5" stroke-linecap="round" stroke-linejoin="round"/>
<path d="M11.04 14.19C11.77 15 12.83 15.5 14 15.5C16.21 15.5 18 13.71 18 11.5V11" stroke="#3D444F" stroke-width="1.5" stroke-linecap="round" stroke-linejoin="round"/>
<path d="M8.77979 16.9499C10.1498 18.2199 11.9798 18.9999 13.9998 18.9999C18.2198 18.9999 21.6498 15.5699 21.6498 11.3499V9.6499" stroke="#3D444F" stroke-width="1.5" stroke-linecap="round" stroke-linejoin="round"/>
<path d="M6.3501 9.6499V11.3499C6.3501 12.4099 6.5601 13.4099 6.9501 14.3299" stroke="#3D444F" stroke-width="1.5" stroke-linecap="round" stroke-linejoin="round"/>
<path d="M22.0702 2.83984L5.93018 18.9898" stroke="#3D444F" stroke-width="1.5" stroke-linecap="round" stroke-linejoin="round"/>
<path d="M13 3V6" stroke="#3D444F" stroke-width="1.5" stroke-linecap="round" stroke-linejoin="round"/>
<path d="M14 19V22" stroke="#3D444F" stroke-width="1.5" stroke-linecap="round" stroke-linejoin="round"/>
</svg>
