<svg width="24" height="25" viewBox="0 0 24 25" fill="none" xmlns="http://www.w3.org/2000/svg">
<path d="M20 7.69995V17.7C20 21.7 19 22.7 15 22.7H9C5 22.7 4 21.7 4 17.7V7.69995C4 3.69995 5 2.69995 9 2.69995H15C19 2.69995 20 3.69995 20 7.69995Z" stroke="#3D444F" stroke-width="1.5" stroke-linecap="round" stroke-linejoin="round"/>
<path d="M14 6.19995H10" stroke="#3D444F" stroke-width="1.5" stroke-linecap="round" stroke-linejoin="round"/>
<path d="M12.0002 19.8C12.8562 19.8 13.5502 19.106 13.5502 18.25C13.5502 17.3939 12.8562 16.7 12.0002 16.7C11.1442 16.7 10.4502 17.3939 10.4502 18.25C10.4502 19.106 11.1442 19.8 12.0002 19.8Z" stroke="#3D444F" stroke-width="1.5" stroke-linecap="round" stroke-linejoin="round"/>
</svg>
