<svg width="24" height="25" viewBox="0 0 24 25" fill="none" xmlns="http://www.w3.org/2000/svg">
<path d="M14.9311 23.2305H9.0701C4.7631 23.2305 3.4541 21.9215 3.4541 17.6145V7.84647C3.4541 3.53947 4.7631 2.23047 9.0701 2.23047H14.9301C19.2371 2.23047 20.5461 3.53947 20.5461 7.84647V17.6135C20.5471 21.9215 19.2381 23.2305 14.9311 23.2305ZM9.0701 3.69547C5.5701 3.69547 4.9191 4.35947 4.9191 7.84647V17.6135C4.9191 21.1005 5.5731 21.7645 9.0701 21.7645H14.9301C18.4301 21.7645 19.0811 21.1005 19.0811 17.6135V7.84647C19.0811 4.35947 18.4271 3.69547 14.9301 3.69547H9.0701Z" fill="#3D444F"/>
<path d="M13.9542 7.11443H10.0472C9.94871 7.11806 9.85052 7.10181 9.75847 7.06664C9.66642 7.03147 9.58241 6.9781 9.51146 6.90972C9.44051 6.84134 9.38407 6.75936 9.34552 6.66867C9.30698 6.57799 9.28711 6.48046 9.28711 6.38193C9.28711 6.28339 9.30698 6.18586 9.34552 6.09518C9.38407 6.00449 9.44051 5.92251 9.51146 5.85413C9.58241 5.78575 9.66642 5.73238 9.75847 5.69721C9.85052 5.66204 9.94871 5.64579 10.0472 5.64943H13.9542C14.0526 5.64579 14.1508 5.66204 14.2429 5.69721C14.3349 5.73238 14.4189 5.78575 14.4899 5.85413C14.5608 5.92251 14.6173 6.00449 14.6558 6.09518C14.6944 6.18586 14.7142 6.28339 14.7142 6.38193C14.7142 6.48046 14.6944 6.57799 14.6558 6.66867C14.6173 6.75936 14.5608 6.84134 14.4899 6.90972C14.4189 6.9781 14.3349 7.03147 14.2429 7.06664C14.1508 7.10181 14.0526 7.11806 13.9542 7.11443Z" fill="#3D444F"/>
<path d="M12.0009 20.4076C11.5565 20.4076 11.1221 20.2758 10.7525 20.0289C10.383 19.782 10.095 19.4311 9.92495 19.0205C9.75488 18.6099 9.71038 18.1581 9.79708 17.7222C9.88378 17.2863 10.0978 16.886 10.412 16.5717C10.7263 16.2575 11.1267 16.0435 11.5625 15.9568C11.9984 15.87 12.4502 15.9145 12.8608 16.0846C13.2714 16.2547 13.6223 16.5427 13.8692 16.9122C14.1161 17.2817 14.2479 17.7162 14.2479 18.1606C14.2479 18.4557 14.1898 18.7478 14.0769 19.0205C13.9639 19.2931 13.7984 19.5408 13.5898 19.7494C13.3811 19.9581 13.1334 20.1236 12.8608 20.2365C12.5882 20.3495 12.296 20.4076 12.0009 20.4076ZM12.0009 17.3696C11.8464 17.3696 11.6954 17.4154 11.567 17.5012C11.4386 17.587 11.3385 17.709 11.2794 17.8517C11.2202 17.9944 11.2048 18.1514 11.2349 18.3029C11.265 18.4544 11.3394 18.5936 11.4487 18.7028C11.5579 18.8121 11.697 18.8864 11.8485 18.9166C12 18.9467 12.1571 18.9312 12.2998 18.8721C12.4425 18.813 12.5645 18.7129 12.6503 18.5845C12.7361 18.456 12.7819 18.305 12.7819 18.1506C12.7811 17.9437 12.6986 17.7455 12.5523 17.5992C12.406 17.4529 12.2078 17.3704 12.0009 17.3696Z" fill="#3D444F"/>
</svg>
