<svg width="24" height="25" viewBox="0 0 24 25" fill="none" xmlns="http://www.w3.org/2000/svg">
<path d="M12 15.2C13.3807 15.2 14.5 14.0807 14.5 12.7C14.5 11.3192 13.3807 10.2 12 10.2C10.6193 10.2 9.5 11.3192 9.5 12.7C9.5 14.0807 10.6193 15.2 12 15.2Z" stroke="#3D444F" stroke-width="1.5" stroke-miterlimit="10" stroke-linecap="round" stroke-linejoin="round"/>
<path d="M18.5 10.2V15.2" stroke="#3D444F" stroke-width="1.5" stroke-miterlimit="10" stroke-linecap="round" stroke-linejoin="round"/>
<path d="M9 18.7C9 19.45 8.79001 20.1599 8.42001 20.7599C7.73001 21.9199 6.46 22.7 5 22.7C3.54 22.7 2.26999 21.9199 1.57999 20.7599C1.20999 20.1599 1 19.45 1 18.7C1 16.49 2.79 14.7 5 14.7C7.21 14.7 9 16.49 9 18.7Z" stroke="#3D444F" stroke-width="1.5" stroke-miterlimit="10" stroke-linecap="round" stroke-linejoin="round"/>
<path d="M6.4917 18.6794H3.51172" stroke="#3D444F" stroke-width="1.5" stroke-miterlimit="10" stroke-linecap="round" stroke-linejoin="round"/>
<path d="M5 17.2195V20.2095" stroke="#3D444F" stroke-width="1.5" stroke-miterlimit="10" stroke-linecap="round" stroke-linejoin="round"/>
<path d="M2 15.9999V9.69995C2 6.19995 4 4.69995 7 4.69995H17C20 4.69995 22 6.19995 22 9.69995V15.7C22 19.2 20 20.7 17 20.7H8.5" stroke="#3D444F" stroke-width="1.5" stroke-miterlimit="10" stroke-linecap="round" stroke-linejoin="round"/>
</svg>
