<svg width="24" height="24" viewBox="0 0 24 24" fill="none" xmlns="http://www.w3.org/2000/svg">
<g clip-path="url(#clip0_9010_13944)">
<path d="M14.7905 22H9.20952C4.1619 22 2 19.8419 2 14.7905V9.20952C2 4.1619 4.1581 2 9.20952 2H14.7905C19.8381 2 22 4.1581 22 9.20952V14.7905C22 19.8419 19.8419 22 14.7905 22ZM9.20952 3.39524C4.92381 3.39524 3.4 4.91905 3.4 9.20476V14.7857C3.4 19.0714 4.92381 20.5952 9.20952 20.5952H14.7905C19.0762 20.5952 20.6 19.0714 20.6 14.7857V9.20952C20.6 4.92381 19.0762 3.4 14.7905 3.4L9.20952 3.39524Z" fill="#3D444F"/>
<path d="M12.0004 12.9295C11.8164 12.9295 11.6365 12.875 11.4835 12.7727C11.3305 12.6705 11.2112 12.5252 11.1408 12.3551C11.0703 12.1851 11.0519 11.998 11.0878 11.8175C11.1237 11.637 11.2123 11.4712 11.3425 11.3411C11.4726 11.211 11.6384 11.1224 11.8189 11.0865C11.9994 11.0506 12.1865 11.069 12.3565 11.1394C12.5265 11.2098 12.6718 11.3291 12.7741 11.4821C12.8763 11.6351 12.9309 11.815 12.9309 11.9991C12.9314 12.1214 12.9077 12.2426 12.8611 12.3557C12.8145 12.4688 12.746 12.5716 12.6595 12.6581C12.573 12.7446 12.4702 12.8131 12.3571 12.8597C12.244 12.9063 12.1228 12.93 12.0004 12.9295Z" fill="#3D444F"/>
<path d="M15.7207 12.9295C15.5366 12.9295 15.3567 12.875 15.2037 12.7727C15.0507 12.6705 14.9314 12.5252 14.861 12.3551C14.7906 12.1851 14.7722 11.998 14.8081 11.8175C14.844 11.637 14.9326 11.4712 15.0627 11.3411C15.1928 11.211 15.3586 11.1224 15.5391 11.0865C15.7196 11.0506 15.9067 11.069 16.0767 11.1394C16.2468 11.2098 16.3921 11.3291 16.4943 11.4821C16.5966 11.6351 16.6511 11.815 16.6511 11.9991C16.6516 12.1214 16.6279 12.2426 16.5813 12.3557C16.5347 12.4688 16.4662 12.5716 16.3797 12.6581C16.2932 12.7446 16.1904 12.8131 16.0773 12.8597C15.9642 12.9063 15.843 12.93 15.7207 12.9295Z" fill="#3D444F"/>
<path d="M8.27832 12.9295C8.09429 12.9295 7.91439 12.875 7.76137 12.7727C7.60836 12.6705 7.4891 12.5252 7.41867 12.3551C7.34825 12.1851 7.32982 11.998 7.36572 11.8175C7.40162 11.637 7.49024 11.4712 7.62037 11.3411C7.7505 11.211 7.9163 11.1224 8.09679 11.0865C8.27729 11.0506 8.46437 11.069 8.6344 11.1394C8.80442 11.2098 8.94974 11.3291 9.05198 11.4821C9.15422 11.6351 9.2088 11.815 9.2088 11.9991C9.2093 12.1214 9.18558 12.2426 9.13899 12.3557C9.09241 12.4688 9.02389 12.5716 8.93739 12.6581C8.85089 12.7446 8.74811 12.8131 8.63499 12.8597C8.52187 12.9063 8.40065 12.93 8.27832 12.9295Z" fill="#3D444F"/>
</g>
<defs>
<clipPath id="clip0_9010_13944">
<rect width="24" height="24" fill="white"/>
</clipPath>
</defs>
</svg>
