<svg width="24" height="25" viewBox="0 0 24 25" fill="none" xmlns="http://www.w3.org/2000/svg">
<path d="M13.5664 0.305115C14.6247 0.443075 15.6388 0.720566 16.5918 1.11566L16.3066 1.80707C17.2207 2.18614 18.0744 2.6828 18.8486 3.27777L19.3037 2.685C20.1346 3.32354 20.8789 4.06801 21.5176 4.89886L20.9258 5.35492C21.5208 6.12916 22.0174 6.9829 22.3965 7.89691L23.0869 7.61078C23.4821 8.56377 23.7594 9.57788 23.8975 10.6362L23.1553 10.7328C23.218 11.2137 23.25 11.7049 23.25 12.2036C23.25 12.7022 23.218 13.1934 23.1553 13.6743L23.8975 13.77C23.7595 14.8283 23.4821 15.8423 23.0869 16.7953L22.3965 16.5102C22.0174 17.4242 21.5208 18.2779 20.9258 19.0522L21.5176 19.5073C20.879 20.3382 20.1347 21.0825 19.3037 21.7211L18.8486 21.1293C18.0744 21.7243 17.2207 22.221 16.3066 22.6L16.5918 23.2905C15.6388 23.6856 14.6247 23.963 13.5664 24.101L13.4707 23.3588C12.9898 23.4216 12.4987 23.4536 12 23.4536C11.5013 23.4536 11.0102 23.4216 10.5293 23.3588L10.4326 24.101C9.37432 23.9629 8.36022 23.6857 7.40723 23.2905L7.69336 22.6C6.77934 22.221 5.92561 21.7243 5.15137 21.1293L4.69531 21.7211C3.86445 21.0825 3.11999 20.3382 2.48145 19.5073L3.07422 19.0522C2.47925 18.2779 1.98259 17.4242 1.60352 16.5102L0.912109 16.7953C0.517014 15.8424 0.239523 14.8282 0.101562 13.77L0.844727 13.6743C0.782 13.1934 0.75 12.7022 0.75 12.2036C0.75 11.7049 0.782 11.2137 0.844727 10.7328L0.101562 10.6362C0.239605 9.57796 0.516948 8.56371 0.912109 7.61078L1.60352 7.89691C1.98259 6.9829 2.47925 6.12916 3.07422 5.35492L2.48145 4.89886C3.12 4.06802 3.86447 3.32355 4.69531 2.685L5.15137 3.27777C5.92561 2.6828 6.77934 2.18614 7.69336 1.80707L7.40723 1.11566C8.36016 0.720501 9.37441 0.443157 10.4326 0.305115L10.5293 1.04828C11.0102 0.985552 11.5013 0.953552 12 0.953552C12.4987 0.953552 12.9898 0.985552 13.4707 1.04828L13.5664 0.305115Z" stroke="#B3BBC6" stroke-width="1.5" stroke-dasharray="3 3"/>
</svg>
