<svg width="24" height="25" viewBox="0 0 24 25" fill="none" xmlns="http://www.w3.org/2000/svg">
<path d="M0 12.2036C0 5.57614 5.37258 0.203552 12 0.203552C18.6274 0.203552 24 5.57614 24 12.2036C24 18.831 18.6274 24.2036 12 24.2036C5.37258 24.2036 0 18.831 0 12.2036Z" fill="#D7DBE0"/>
<path d="M14 12.2036C14 12.5991 13.8827 12.9858 13.6629 13.3147C13.4432 13.6436 13.1308 13.8999 12.7654 14.0513C12.3999 14.2027 11.9978 14.2423 11.6098 14.1651C11.2219 14.088 10.8655 13.8975 10.5858 13.6178C10.3061 13.3381 10.1156 12.9817 10.0384 12.5937C9.96126 12.2058 10.0009 11.8036 10.1522 11.4382C10.3036 11.0727 10.56 10.7604 10.8889 10.5406C11.2178 10.3208 11.6044 10.2036 12 10.2036C12.5304 10.2036 13.0391 10.4143 13.4142 10.7893C13.7893 11.1644 14 11.6731 14 12.2036Z" fill="white"/>
</svg>
