<svg width="25" height="25" viewBox="0 0 25 25" fill="none" xmlns="http://www.w3.org/2000/svg">
<path d="M12.3848 13.4805C9.21477 13.4805 6.63477 10.9005 6.63477 7.73047C6.63477 4.56047 9.21477 1.98047 12.3848 1.98047C15.5548 1.98047 18.1348 4.56047 18.1348 7.73047C18.1348 10.9005 15.5548 13.4805 12.3848 13.4805ZM12.3848 3.48047C10.0448 3.48047 8.13477 5.39047 8.13477 7.73047C8.13477 10.0705 10.0448 11.9805 12.3848 11.9805C14.7248 11.9805 16.6348 10.0705 16.6348 7.73047C16.6348 5.39047 14.7248 3.48047 12.3848 3.48047Z" fill="#3D444F"/>
<path d="M3.79492 23.4805C3.38492 23.4805 3.04492 23.1405 3.04492 22.7305C3.04492 18.4605 7.23491 14.9805 12.385 14.9805C13.395 14.9805 14.3849 15.1105 15.3449 15.3805C15.7449 15.4905 15.975 15.9005 15.865 16.3005C15.755 16.7005 15.3449 16.9305 14.945 16.8205C14.125 16.5905 13.265 16.4805 12.385 16.4805C8.06491 16.4805 4.54492 19.2805 4.54492 22.7305C4.54492 23.1405 4.20492 23.4805 3.79492 23.4805Z" fill="#3D444F"/>
<path d="M18.3848 23.4805C17.2048 23.4805 16.0848 23.0405 15.2148 22.2505C14.8648 21.9505 14.5548 21.5805 14.3148 21.1705C13.8748 20.4505 13.6348 19.6005 13.6348 18.7305C13.6348 17.4805 14.1148 16.3105 14.9748 15.4205C15.8748 14.4905 17.0848 13.9805 18.3848 13.9805C19.7448 13.9805 21.0348 14.5605 21.9148 15.5605C22.6948 16.4305 23.1348 17.5505 23.1348 18.7305C23.1348 19.1105 23.0848 19.4905 22.9848 19.8505C22.8848 20.3005 22.6948 20.7705 22.4348 21.1805C21.6048 22.6005 20.0448 23.4805 18.3848 23.4805ZM18.3848 15.4805C17.4948 15.4805 16.6748 15.8305 16.0548 16.4605C15.4648 17.0705 15.1348 17.8705 15.1348 18.7305C15.1348 19.3205 15.2948 19.9005 15.6048 20.4005C15.7648 20.6805 15.9748 20.9305 16.2148 21.1405C16.8148 21.6905 17.5848 21.9905 18.3848 21.9905C19.5148 21.9905 20.5848 21.3905 21.1648 20.4205C21.3348 20.1405 21.4648 19.8205 21.5348 19.5105C21.6048 19.2505 21.6348 19.0005 21.6348 18.7405C21.6348 17.9405 21.3348 17.1705 20.7948 16.5705C20.1948 15.8705 19.3148 15.4805 18.3848 15.4805Z" fill="#3D444F"/>
<path d="M19.8845 19.4604H16.8945C16.4845 19.4604 16.1445 19.1204 16.1445 18.7104C16.1445 18.3004 16.4845 17.9604 16.8945 17.9604H19.8845C20.2945 17.9604 20.6345 18.3004 20.6345 18.7104C20.6345 19.1204 20.2945 19.4604 19.8845 19.4604Z" fill="#3D444F"/>
<path d="M18.3848 20.9905C17.9748 20.9905 17.6348 20.6505 17.6348 20.2405V17.2505C17.6348 16.8405 17.9748 16.5005 18.3848 16.5005C18.7948 16.5005 19.1348 16.8405 19.1348 17.2505V20.2405C19.1348 20.6605 18.7948 20.9905 18.3848 20.9905Z" fill="#3D444F"/>
</svg>
