<svg width="25" height="25" viewBox="0 0 25 25" fill="none" xmlns="http://www.w3.org/2000/svg">
<path d="M12.058 23.7305C11.3648 23.7321 10.6837 23.5484 10.0853 23.1983L4.07817 19.6897C3.47787 19.3339 2.9804 18.8281 2.63455 18.222C2.28871 17.6159 2.10638 16.9303 2.10547 16.2325V9.23428C2.10638 8.53646 2.28871 7.85086 2.63455 7.24476C2.9804 6.63866 3.47787 6.13289 4.07817 5.77708L10.0864 2.26749C10.6841 1.91588 11.365 1.73047 12.0586 1.73047C12.7521 1.73047 13.433 1.91588 14.0307 2.26749L20.0389 5.77603C20.6392 6.13184 21.1367 6.63761 21.4826 7.24371C21.8284 7.84981 22.0107 8.53541 22.0116 9.23324V16.2304C22.0107 16.9282 21.8284 17.6138 21.4826 18.2199C21.1367 18.826 20.6392 19.3318 20.0389 19.6876L14.0307 23.1962C13.4326 23.547 12.7515 23.7315 12.058 23.7305ZM12.058 3.27008C11.6318 3.2719 11.2134 3.38454 10.8438 3.59694L4.83666 7.10653C4.46651 7.32475 4.15977 7.63586 3.9468 8.00905C3.73384 8.38225 3.62203 8.8046 3.62245 9.23428V16.2315C3.62327 16.6609 3.73561 17.0828 3.94845 17.4558C4.1613 17.8287 4.46736 18.14 4.83666 18.3592L10.8428 21.8688C11.2108 22.0849 11.6297 22.1988 12.0565 22.1988C12.4832 22.1988 12.9022 22.0849 13.2702 21.8688L19.2784 18.3603C19.6485 18.142 19.9552 17.8309 20.1682 17.4577C20.3812 17.0845 20.493 16.6622 20.4926 16.2325V9.23428C20.4917 8.80484 20.3794 8.38298 20.1666 8.00999C19.9537 7.63701 19.6477 7.32569 19.2784 7.10653L13.2722 3.59694C12.9027 3.38454 12.4843 3.2719 12.058 3.27008Z" fill="#3D444F"/>
<path d="M12.057 12.4772C11.4322 12.4843 10.8193 12.3054 10.2963 11.9633C9.77338 11.6212 9.36393 11.1314 9.12004 10.556C8.87614 9.98066 8.80882 9.34579 8.92661 8.73208C9.04441 8.11837 9.34201 7.55355 9.78159 7.10938C10.2212 6.66522 10.7829 6.36178 11.3953 6.23763C12.0078 6.11347 12.6433 6.17421 13.2212 6.41213C13.799 6.65004 14.2931 7.05439 14.6406 7.57377C14.9881 8.09316 15.1733 8.70414 15.1727 9.32904C15.1763 10.1595 14.8503 10.9574 14.2661 11.5476C13.682 12.1379 12.8875 12.4722 12.057 12.4772ZM12.057 7.70939C11.7367 7.70587 11.4226 7.79759 11.1545 7.97291C10.8864 8.14824 10.6764 8.39926 10.5512 8.69413C10.4261 8.989 10.3913 9.3144 10.4514 9.62905C10.5115 9.9437 10.6637 10.2334 10.8888 10.4614C11.1138 10.6894 11.4015 10.8453 11.7153 10.9095C12.0292 10.9737 12.355 10.9432 12.6515 10.8219C12.9479 10.7006 13.2017 10.4939 13.3805 10.2281C13.5593 9.9623 13.6551 9.64938 13.6557 9.32904C13.658 8.90253 13.4909 8.49255 13.1912 8.18909C12.8914 7.88563 12.4835 7.71244 12.057 7.70939Z" fill="#3D444F"/>
<path d="M16.1039 18.2692C15.9021 18.2665 15.7095 18.1845 15.5676 18.0411C15.4257 17.8976 15.3459 17.7041 15.3454 17.5024C15.3454 16.0901 13.8682 14.9346 12.0579 14.9346C10.2476 14.9346 8.7704 16.088 8.7704 17.5003C8.7704 17.7014 8.69049 17.8943 8.54824 18.0366C8.406 18.1788 8.21307 18.2587 8.01191 18.2587C7.81074 18.2587 7.61782 18.1788 7.47557 18.0366C7.33333 17.8943 7.25342 17.7014 7.25342 17.5003C7.25342 15.2395 9.40736 13.3977 12.0579 13.3977C14.7084 13.3977 16.8624 15.2395 16.8624 17.5003C16.8624 17.7024 16.7828 17.8964 16.6409 18.0403C16.4989 18.1842 16.306 18.2665 16.1039 18.2692Z" fill="#3D444F"/>
</svg>
