<svg width="24" height="25" viewBox="0 0 24 25" fill="none" xmlns="http://www.w3.org/2000/svg">
<path d="M12.0199 21.2299C9.68987 21.2299 7.35987 20.8599 5.14987 20.1199C4.30987 19.8299 3.66987 19.2399 3.38987 18.4699C3.09987 17.6999 3.19987 16.8499 3.65987 16.0899L4.80987 14.1799C5.04987 13.7799 5.26987 12.9799 5.26987 12.5099V9.61987C5.26987 5.89987 8.29987 2.86987 12.0199 2.86987C15.7399 2.86987 18.7699 5.89987 18.7699 9.61987V12.5099C18.7699 12.9699 18.9899 13.7799 19.2299 14.1899L20.3699 16.0899C20.7999 16.8099 20.8799 17.6799 20.5899 18.4699C20.2999 19.2599 19.6699 19.8599 18.8799 20.1199C16.6799 20.8599 14.3499 21.2299 12.0199 21.2299ZM12.0199 4.36987C9.12987 4.36987 6.76987 6.71987 6.76987 9.61987V12.5099C6.76987 13.2399 6.46987 14.3199 6.09987 14.9499L4.94987 16.8599C4.72987 17.2299 4.66987 17.6199 4.79987 17.9499C4.91987 18.2899 5.21987 18.5499 5.62987 18.6899C9.80987 20.0899 14.2399 20.0899 18.4199 18.6899C18.7799 18.5699 19.0599 18.2999 19.1899 17.9399C19.3199 17.5799 19.2899 17.1899 19.0899 16.8599L17.9399 14.9499C17.5599 14.2999 17.2699 13.2299 17.2699 12.4999V9.61987C17.2699 6.71987 14.9199 4.36987 12.0199 4.36987Z" fill="#3D444F"/>
<path d="M13.8801 4.63988C13.8101 4.63988 13.7401 4.62988 13.6701 4.60988C13.3801 4.52988 13.1001 4.46988 12.8301 4.42988C11.9801 4.31988 11.1601 4.37988 10.3901 4.60988C10.1101 4.69988 9.81011 4.60988 9.62011 4.39988C9.43011 4.18988 9.37011 3.88988 9.48011 3.61988C9.89011 2.56988 10.8901 1.87988 12.0301 1.87988C13.1701 1.87988 14.1701 2.55988 14.5801 3.61988C14.6801 3.88988 14.6301 4.18988 14.4401 4.39988C14.2901 4.55988 14.0801 4.63988 13.8801 4.63988Z" fill="#3D444F"/>
<path d="M12.02 23.51C11.03 23.51 10.07 23.11 9.37002 22.41C8.67002 21.71 8.27002 20.75 8.27002 19.76H9.77002C9.77002 20.35 10.01 20.93 10.43 21.35C10.85 21.77 11.43 22.01 12.02 22.01C13.26 22.01 14.27 21 14.27 19.76H15.77C15.77 21.83 14.09 23.51 12.02 23.51Z" fill="#3D444F"/>
</svg>
