<svg width="25" height="25" viewBox="0 0 25 25" fill="none" xmlns="http://www.w3.org/2000/svg">
<path d="M12.2937 19.069C10.6664 19.069 9.0391 18.8105 7.49561 18.2937C6.90894 18.0912 6.46195 17.6791 6.2664 17.1413C6.06386 16.6036 6.1337 16.0099 6.45497 15.4791L7.25815 14.1451C7.42576 13.8658 7.57942 13.307 7.57942 12.9788V10.9604C7.57942 8.36228 9.69561 6.24609 12.2937 6.24609C14.8918 6.24609 17.008 8.36228 17.008 10.9604V12.9788C17.008 13.3001 17.1616 13.8658 17.3293 14.1521L18.1254 15.4791C18.4258 15.982 18.4816 16.5896 18.2791 17.1413C18.0766 17.6931 17.6366 18.1121 17.0848 18.2937C15.5483 18.8105 13.921 19.069 12.2937 19.069ZM12.2937 7.29371C10.2753 7.29371 8.62703 8.93498 8.62703 10.9604V12.9788C8.62703 13.4886 8.41751 14.2429 8.1591 14.6829L7.35592 16.0169C7.20227 16.2753 7.16037 16.5477 7.25116 16.7782C7.33497 17.0156 7.54449 17.1972 7.83084 17.295C10.7502 18.2728 13.8442 18.2728 16.7635 17.295C17.015 17.2112 17.2105 17.0226 17.3013 16.7712C17.3921 16.5197 17.3712 16.2474 17.2315 16.0169L16.4283 14.6829C16.1629 14.229 15.9604 13.4816 15.9604 12.9718V10.9604C15.9604 8.93498 14.3191 7.29371 12.2937 7.29371Z" fill="#3D444F"/>
<path d="M13.5927 7.48231C13.5439 7.48231 13.495 7.47532 13.4461 7.46135C13.2435 7.40548 13.048 7.36358 12.8594 7.33564C12.2658 7.25881 11.6931 7.30072 11.1553 7.46135C10.9597 7.52421 10.7502 7.46135 10.6175 7.31469C10.4848 7.16802 10.4429 6.9585 10.5197 6.76993C10.8061 6.03659 11.5045 5.55469 12.3007 5.55469C13.0969 5.55469 13.7953 6.02961 14.0816 6.76993C14.1515 6.9585 14.1166 7.16802 13.9839 7.31469C13.8791 7.42643 13.7324 7.48231 13.5927 7.48231Z" fill="#3D444F"/>
<path d="M12.2939 20.6613C11.6024 20.6613 10.9319 20.3819 10.4431 19.893C9.95417 19.4041 9.6748 18.7337 9.6748 18.0422H10.7224C10.7224 18.4543 10.89 18.8594 11.1834 19.1527C11.4767 19.446 11.8818 19.6137 12.2939 19.6137C13.1599 19.6137 13.8653 18.9083 13.8653 18.0422H14.9129C14.9129 19.488 13.7396 20.6613 12.2939 20.6613Z" fill="#3D444F"/>
<path d="M23.1049 12.8876C23.0186 13.3007 22.9547 13.7197 22.8414 14.1257C22.6144 14.9419 22.1977 15.6613 21.6444 16.3009C21.3616 16.6277 20.9667 16.677 20.6739 16.4277C20.3817 16.1783 20.3664 15.7787 20.6363 15.4501C22.1743 13.5771 22.1743 11.2394 20.6363 9.35761C20.3664 9.02726 20.3817 8.62942 20.6751 8.38005C20.9684 8.13067 21.3622 8.17937 21.645 8.50738C22.4459 9.43741 22.923 10.5112 23.065 11.7323C23.0726 11.7957 23.092 11.8579 23.1055 11.9201V12.8882L23.1049 12.8876Z" fill="#3D444F"/>
<path d="M20.4622 12.3945C20.4458 13.1532 20.2275 13.8227 19.7739 14.4112C19.5357 14.7211 19.1396 14.795 18.8421 14.5843C18.5358 14.3672 18.4718 13.9588 18.713 13.6314C19.1179 13.0816 19.2499 12.4808 19.0481 11.8277C18.9806 11.6088 18.8574 11.4011 18.7289 11.208C18.4853 10.8413 18.5205 10.4464 18.8409 10.2176C19.1449 10.0005 19.5421 10.0891 19.798 10.4288C20.2404 11.0162 20.4475 11.6822 20.4616 12.3933L20.4622 12.3945Z" fill="#3D444F"/>
<path d="M1.10547 12.0749C1.12425 10.9043 1.61443 9.58821 2.60476 8.46404C2.82842 8.21044 3.14072 8.15584 3.42015 8.30319C3.6808 8.44114 3.82051 8.72879 3.74596 9.02759C3.71719 9.14324 3.65086 9.2583 3.57454 9.35164C2.03592 11.2313 2.0324 13.5777 3.57102 15.4504C3.84165 15.7797 3.82756 16.1824 3.53756 16.4301C3.24404 16.6802 2.85308 16.6303 2.56602 16.3063C1.63263 15.2514 1.10429 13.8384 1.10606 12.0749H1.10547Z" fill="#3D444F"/>
<path d="M3.74854 12.4258C3.7591 11.6598 3.98218 10.9841 4.44183 10.39C4.67957 10.083 5.07993 10.0143 5.3758 10.2303C5.67402 10.4481 5.72861 10.8403 5.50671 11.1684C4.91967 12.0349 4.92085 12.7927 5.50964 13.6469C5.73154 13.9686 5.67636 14.3666 5.37991 14.585C5.08698 14.801 4.68486 14.7335 4.44593 14.4259C3.98511 13.8324 3.76262 13.1567 3.74912 12.4258H3.74854Z" fill="#3D444F"/>
</svg>
