<svg width="24" height="25" viewBox="0 0 24 25" fill="none" xmlns="http://www.w3.org/2000/svg">
<path d="M12.0254 21.019C9.76179 21.0212 7.51274 20.6572 5.3654 19.941C4.97928 19.8193 4.62547 19.6123 4.33016 19.3353C4.03485 19.0584 3.80561 18.7185 3.6594 18.341C3.52073 17.9601 3.47213 17.5522 3.51741 17.1494C3.56269 16.7465 3.70062 16.3596 3.9204 16.019L5.0354 14.169C5.29914 13.6671 5.45128 13.1142 5.4814 12.548V9.742C5.4814 8.88263 5.65067 8.03167 5.97954 7.23772C6.3084 6.44376 6.79043 5.72236 7.3981 5.11469C8.00576 4.50702 8.72717 4.025 9.52112 3.69613C10.3151 3.36726 11.166 3.198 12.0254 3.198C12.8848 3.198 13.7357 3.36726 14.5297 3.69613C15.3236 4.025 16.045 4.50702 16.6527 5.11469C17.2604 5.72236 17.7424 6.44376 18.0713 7.23772C18.4001 8.03167 18.5694 8.88263 18.5694 9.742V12.548C18.602 13.1169 18.754 13.6726 19.0154 14.179L20.1204 16.019C20.3261 16.3639 20.452 16.7505 20.4888 17.1504C20.5257 17.5502 20.4726 17.9533 20.3334 18.33C20.196 18.7047 19.9754 19.0434 19.6882 19.3205C19.4011 19.5976 19.0548 19.806 18.6754 19.93C16.5323 20.6506 14.2864 21.0184 12.0254 21.019ZM12.0254 4.65C10.6745 4.65265 9.37989 5.19114 8.42562 6.14728C7.47135 7.10343 6.9354 8.39913 6.9354 9.75V12.556C6.90073 13.3847 6.67849 14.1947 6.2854 14.925L5.1734 16.771C5.06976 16.9244 5.00279 17.0997 4.97764 17.2831C4.9525 17.4666 4.96987 17.6533 5.0284 17.829C5.09851 18.0015 5.20698 18.1559 5.34559 18.2803C5.4842 18.4047 5.64931 18.4959 5.8284 18.547C9.84999 19.9063 14.2068 19.9063 18.2284 18.547C18.3999 18.4905 18.5561 18.3955 18.6853 18.2693C18.8144 18.1431 18.9129 17.9891 18.9734 17.819C19.0368 17.6479 19.0608 17.4647 19.0435 17.2831C19.0262 17.1014 18.968 16.926 18.8734 16.77L17.7644 14.919C17.3692 14.1859 17.1469 13.3722 17.1144 12.54V9.74C17.1149 8.3896 16.5791 7.09426 15.6248 6.13882C14.6705 5.18338 13.3758 4.64606 12.0254 4.645V4.65Z" fill="#3D444F"/>
<path d="M13.8284 4.908C13.7607 4.90757 13.6934 4.89781 13.6284 4.879C13.3609 4.80415 13.089 4.74571 12.8144 4.704C12.0222 4.59457 11.2159 4.65421 10.4484 4.879C10.318 4.92071 10.1783 4.92404 10.046 4.88858C9.91376 4.85312 9.79448 4.78037 9.7024 4.679C9.61059 4.57852 9.5491 4.45411 9.52503 4.32015C9.50097 4.18619 9.51531 4.04815 9.5664 3.922C9.76076 3.42457 10.1007 2.99735 10.5417 2.69618C10.9827 2.395 11.5044 2.23389 12.0384 2.23389C12.5725 2.23389 13.0941 2.395 13.5351 2.69618C13.9761 2.99735 14.316 3.42457 14.5104 3.922C14.5592 4.04855 14.5723 4.18605 14.5483 4.31953C14.5243 4.45301 14.4642 4.57735 14.3744 4.679C14.3037 4.75227 14.2189 4.81037 14.125 4.84974C14.0311 4.88912 13.9302 4.90894 13.8284 4.908Z" fill="#3D444F"/>
<path d="M12.0252 23.2269C11.0608 23.2248 10.1366 22.8405 9.45504 22.1582C8.7735 21.4759 8.39022 20.5513 8.38916 19.5869H9.84316C9.84316 20.1655 10.073 20.7204 10.4821 21.1295C10.8912 21.5386 11.4461 21.7684 12.0247 21.7684C12.6032 21.7684 13.1581 21.5386 13.5672 21.1295C13.9763 20.7204 14.2062 20.1655 14.2062 19.5869H15.6602C15.6604 20.5515 15.2777 21.4768 14.5961 22.1593C13.9145 22.8419 12.9898 23.2259 12.0252 23.2269Z" fill="#3D444F"/>
</svg>
