<svg width="18" height="18" viewBox="0 0 18 18" fill="none" xmlns="http://www.w3.org/2000/svg">
<path d="M9.71824 8.62787H13.1644C13.9686 8.62787 14.3707 8.62787 14.6778 8.78437C14.948 8.92203 15.1677 9.1417 15.3053 9.41188C15.4618 9.71904 15.4618 10.1211 15.4618 10.9253V15.8074M9.71824 15.8074V5.18171C9.71824 4.37754 9.71824 3.97545 9.56173 3.66829C9.42407 3.39811 9.2044 3.17845 8.93422 3.04078C8.62707 2.88428 8.22498 2.88428 7.4208 2.88428H4.83619C4.03201 2.88428 3.62992 2.88428 3.32276 3.04078C3.05258 3.17845 2.83292 3.39811 2.69525 3.66829C2.53875 3.97545 2.53875 4.37754 2.53875 5.18171V15.8074M16.1798 15.8074H1.8208M5.05157 5.75607H7.20542M5.05157 8.62787H7.20542M5.05157 11.4997H7.20542" stroke="#3D444F" stroke-width="1.4359" stroke-linecap="round" stroke-linejoin="round"/>
</svg>
