<svg width="25" height="25" viewBox="0 0 25 25" fill="none" xmlns="http://www.w3.org/2000/svg">
<path d="M11.9746 19.1199L11.79 19.0701C11.4025 18.9657 11.0599 18.737 10.8154 18.4187C10.5711 18.1005 10.4383 17.7105 10.4375 17.3093C10.4375 17.1474 10.5656 17.0193 10.7275 17.0193C10.8894 17.0193 11.0176 17.1474 11.0176 17.3093C11.0177 18.0011 11.5711 18.5564 12.2578 18.5564C12.9432 18.5562 13.5048 17.9947 13.5049 17.3093C13.5049 16.6239 12.9432 16.0614 12.2578 16.0613H12.2119C11.7374 16.0484 11.2864 15.8514 10.9551 15.5115C10.624 15.1717 10.4384 14.7163 10.4375 14.2419C10.4375 13.3991 11.0101 12.6919 11.79 12.4802L11.9746 12.4304V11.3992C11.9746 11.2374 12.1029 11.1093 12.2646 11.1091C12.4266 11.1091 12.5547 11.2372 12.5547 11.3992V12.4304L12.7393 12.4802C13.5194 12.6918 14.0928 13.3989 14.0928 14.2419C14.0926 14.4036 13.9644 14.5319 13.8027 14.532C13.6409 14.532 13.5129 14.4037 13.5127 14.2419C13.5127 13.5564 12.9502 12.9939 12.2646 12.9939C11.5792 12.9941 11.0176 13.5565 11.0176 14.2419C11.0177 14.9273 11.5793 15.4888 12.2646 15.489H12.3105C13.3016 15.5154 14.0928 16.3213 14.0928 17.3093C14.0927 18.1522 13.5193 18.8585 12.7393 19.0701L12.5547 19.1208V20.1521C12.5544 20.3138 12.4264 20.4412 12.2646 20.4412C12.103 20.441 11.9749 20.3137 11.9746 20.1521V19.1199Z" fill="#3D444F" stroke="#3D444F" stroke-width="0.5"/>
<path d="M12.2627 1.75659C12.4403 1.75689 12.6162 1.7943 12.7783 1.86694C12.9383 1.93871 13.0817 2.04351 13.1992 2.17358L13.832 2.92358L13.9785 3.09741L14.165 2.96753C14.3843 2.81563 14.6476 2.74049 14.9141 2.75269C15.1803 2.76492 15.4353 2.86376 15.6396 3.03491C15.844 3.20615 15.9872 3.43985 16.0459 3.69995C16.1035 3.95543 16.0759 4.22256 15.9697 4.46167L15.8789 4.60229L14.1113 6.62671L14.001 6.75269L14.0762 6.90308C14.126 7.00232 14.146 7.11401 14.1338 7.22437L14.1084 7.44702L14.3271 7.49585C18.5159 8.43528 21.6449 12.1769 21.6377 16.6492V16.6501C21.6375 20.5483 18.4734 23.7114 14.5752 23.7117H9.94727C6.04886 23.7117 2.8848 20.5476 2.88477 16.6492C2.88477 12.1771 6.01336 8.4353 10.2021 7.49585L10.2803 7.47925L10.334 7.4187L10.5596 7.16675L10.7051 7.00464L10.5635 6.83765L8.5 4.42456C8.39903 4.18736 8.37549 3.92429 8.43359 3.67261C8.49389 3.41146 8.63814 3.17734 8.84473 3.00659C9.0515 2.83582 9.30915 2.73813 9.57715 2.72827C9.84514 2.71842 10.1094 2.79678 10.3281 2.9519L10.5098 3.08081L10.6582 2.91479L11.3203 2.17554C11.4392 2.04343 11.5847 1.93816 11.7471 1.86597C11.9094 1.79381 12.0851 1.75633 12.2627 1.75659ZM12.2646 8.26929C7.63563 8.26935 3.88477 12.0201 3.88477 16.6492L3.89258 16.95C3.96749 18.4481 4.59544 19.8696 5.66113 20.9353C6.72684 22.001 8.14834 22.629 9.64648 22.7039L9.94727 22.7117H14.5752C16.1827 22.711 17.7246 22.072 18.8613 20.9353C19.998 19.7985 20.6371 18.2567 20.6377 16.6492V16.6472C20.645 12.0196 16.8933 8.26929 12.2646 8.26929ZM12.0371 2.81812L11.4443 3.58667C11.2674 3.79425 11.0266 3.93748 10.7598 3.9939C10.4931 4.05021 10.2154 4.01717 9.96973 3.89917L9.67188 4.28784L10.9443 5.75757L11.0186 5.84448H13.4736L13.5479 5.75854L14.8145 4.30835L14.5234 3.91675C14.2821 4.02498 14.0121 4.05148 13.7539 3.9939C13.4957 3.93629 13.2624 3.79706 13.0898 3.59644L12.4258 2.80933L12.2256 2.573L12.0371 2.81812Z" fill="#3D444F" stroke="#3D444F" stroke-width="0.5"/>
</svg>
