<svg width="24" height="24" viewBox="0 0 24 24" fill="none" xmlns="http://www.w3.org/2000/svg">
<path d="M11.5898 18.3894L11.4053 18.3396C11.0177 18.2353 10.6751 18.0065 10.4307 17.6882C10.1863 17.37 10.0536 16.98 10.0527 16.5789C10.0527 16.4169 10.1808 16.2888 10.3428 16.2888C10.5047 16.2888 10.6328 16.4169 10.6328 16.5789C10.6329 17.2706 11.1863 17.8259 11.873 17.8259C12.5584 17.8258 13.12 17.2642 13.1201 16.5789C13.1201 15.8934 12.5585 15.331 11.873 15.3308H11.8271C11.3527 15.3179 10.9016 15.1209 10.5703 14.781C10.2392 14.4413 10.0536 13.9858 10.0527 13.5115C10.0527 12.6686 10.6253 11.9614 11.4053 11.7498L11.5898 11.7V10.6687C11.5898 10.5069 11.7181 10.3788 11.8799 10.3787C12.0418 10.3787 12.1699 10.5068 12.1699 10.6687V11.7L12.3545 11.7498C13.1346 11.9613 13.708 12.6685 13.708 13.5115C13.7078 13.6732 13.5797 13.8014 13.418 13.8015C13.2561 13.8015 13.1281 13.6733 13.1279 13.5115C13.1279 12.8259 12.5655 12.2634 11.8799 12.2634C11.1945 12.2636 10.6328 12.826 10.6328 13.5115C10.633 14.1968 11.1946 14.7584 11.8799 14.7585H11.9258C12.9168 14.785 13.708 15.5908 13.708 16.5789C13.7079 17.4218 13.1345 18.1281 12.3545 18.3396L12.1699 18.3904V19.4216C12.1697 19.5833 12.0417 19.7107 11.8799 19.7107C11.7183 19.7105 11.5901 19.5832 11.5898 19.4216V18.3894Z" fill="#3D444F" stroke="#3D444F" stroke-width="0.5"/>
<path d="M11.8779 1.02612C12.0555 1.02642 12.2315 1.06383 12.3936 1.13647C12.5536 1.20824 12.6969 1.31304 12.8145 1.44312L13.4473 2.19312L13.5938 2.36694L13.7803 2.23706C13.9995 2.08516 14.2629 2.01002 14.5293 2.02222C14.7956 2.03445 15.0505 2.1333 15.2549 2.30444C15.4593 2.47569 15.6024 2.70938 15.6611 2.96948C15.7187 3.22497 15.6912 3.49209 15.585 3.7312L15.4941 3.87183L13.7266 5.89624L13.6162 6.02222L13.6914 6.17261C13.7412 6.27185 13.7613 6.38354 13.749 6.4939L13.7236 6.71655L13.9424 6.76538C18.1311 7.70482 21.2601 11.4464 21.2529 15.9187V15.9197C21.2528 19.8178 18.0886 22.981 14.1904 22.9812H9.5625C5.66409 22.9812 2.50003 19.8171 2.5 15.9187C2.5 11.4467 5.62859 7.70483 9.81738 6.76538L9.89551 6.74878L9.94922 6.68823L10.1748 6.43628L10.3203 6.27417L10.1787 6.10718L8.11523 3.69409C8.01426 3.45689 7.99073 3.19382 8.04883 2.94214C8.10912 2.68099 8.25337 2.44687 8.45996 2.27612C8.66673 2.10535 8.92439 2.00766 9.19238 1.9978C9.46038 1.98795 9.7246 2.06631 9.94336 2.22144L10.125 2.35034L10.2734 2.18433L10.9355 1.44507C11.0544 1.31296 11.1999 1.20769 11.3623 1.1355C11.5246 1.06334 11.7003 1.02586 11.8779 1.02612ZM11.8799 7.53882C7.25087 7.53888 3.5 11.2897 3.5 15.9187L3.50781 16.2195C3.58272 17.7176 4.21067 19.1391 5.27637 20.2048C6.34207 21.2705 7.76357 21.8985 9.26172 21.9734L9.5625 21.9812H14.1904C15.798 21.9805 17.3399 21.3415 18.4766 20.2048C19.6132 19.0681 20.2523 17.5263 20.2529 15.9187V15.9167C20.2602 11.2891 16.5086 7.53882 11.8799 7.53882ZM11.6523 2.08765L11.0596 2.8562C10.8826 3.06378 10.6419 3.20701 10.375 3.26343C10.1084 3.31975 9.83059 3.28671 9.58496 3.1687L9.28711 3.55737L10.5596 5.0271L10.6338 5.11401H13.0889L13.1631 5.02808L14.4297 3.57788L14.1387 3.18628C13.8973 3.29451 13.6273 3.32101 13.3691 3.26343C13.1109 3.20582 12.8776 3.06659 12.7051 2.86597L12.041 2.07886L11.8408 1.84253L11.6523 2.08765Z" fill="#3D444F" stroke="#3D444F" stroke-width="0.5"/>
</svg>
