<svg width="24" height="25" viewBox="0 0 24 25" fill="none" xmlns="http://www.w3.org/2000/svg">
<path d="M12.4864 15.4075H10.0484C9.85451 15.4075 9.66857 15.3305 9.53148 15.1934C9.39439 15.0564 9.31738 14.8704 9.31738 14.6765C9.31738 14.4827 9.39439 14.2967 9.53148 14.1597C9.66857 14.0226 9.85451 13.9455 10.0484 13.9455H12.4874C13.7148 13.9455 14.892 13.458 15.7599 12.59C16.6278 11.7221 17.1154 10.545 17.1154 9.31755C17.1154 8.09013 16.6278 6.91298 15.7599 6.04506C14.892 5.17714 13.7148 4.68955 12.4874 4.68955H7.60938C6.73024 4.68663 5.86851 4.93449 5.12528 5.40406C4.38205 5.87364 3.78815 6.54544 3.41328 7.34064C3.0384 8.13585 2.89809 9.02148 3.00881 9.89362C3.11953 10.7658 3.47669 11.5882 4.03838 12.2645C4.09984 12.3389 4.14605 12.4246 4.17439 12.5168C4.20273 12.609 4.21263 12.7058 4.20353 12.8018C4.19443 12.8979 4.1665 12.9911 4.12135 13.0764C4.0762 13.1616 4.01471 13.2371 3.94038 13.2985C3.86605 13.36 3.78034 13.4062 3.68816 13.4346C3.59597 13.4629 3.4991 13.4728 3.40308 13.4637C3.30707 13.4546 3.21378 13.4267 3.12856 13.3815C3.04333 13.3364 2.96784 13.2749 2.90638 13.2005C2.16588 12.3112 1.69453 11.229 1.54769 10.0811C1.40085 8.9332 1.58461 7.76722 2.0774 6.72011C2.57019 5.67301 3.35153 4.78826 4.32967 4.16978C5.30781 3.5513 6.44212 3.22477 7.59938 3.22855H12.4764C13.2762 3.22789 14.0683 3.38478 14.8075 3.69025C15.5467 3.99572 16.2185 4.44379 16.7845 5.00888C17.3505 5.57397 17.7997 6.24501 18.1064 6.9837C18.413 7.72238 18.5712 8.51423 18.5719 9.31405C18.5725 10.1139 18.4156 10.906 18.1102 11.6452C17.8047 12.3843 17.3566 13.0561 16.7915 13.6221C16.2265 14.1882 15.5554 14.6373 14.8167 14.944C14.078 15.2507 13.2862 15.4089 12.4864 15.4095V15.4075Z" fill="#3D444F"/>
<path d="M16.3884 22.2276H11.5114C9.8961 22.2276 8.34696 21.586 7.20476 20.4438C6.06257 19.3016 5.4209 17.7524 5.4209 16.1371C5.4209 14.5218 6.06257 12.9727 7.20476 11.8305C8.34696 10.6883 9.8961 10.0466 11.5114 10.0466H13.9504C14.1443 10.0466 14.3302 10.1236 14.4673 10.2607C14.6044 10.3978 14.6814 10.5838 14.6814 10.7776C14.6814 10.9715 14.6044 11.1574 14.4673 11.2945C14.3302 11.4316 14.1443 11.5086 13.9504 11.5086H11.5114C10.284 11.5086 9.10683 11.9962 8.23891 12.8641C7.37099 13.7321 6.8834 14.9092 6.8834 16.1366C6.8834 17.3641 7.37099 18.5412 8.23891 19.4091C9.10683 20.277 10.284 20.7646 11.5114 20.7646H16.3884C17.2663 20.7671 18.1268 20.5194 18.8691 20.0507C19.6114 19.5819 20.2049 18.9114 20.5801 18.1177C20.9552 17.324 21.0966 16.4398 20.9875 15.5686C20.8785 14.6975 20.5236 13.8754 19.9644 13.1986C19.8407 13.0483 19.7818 12.8549 19.8006 12.6611C19.8195 12.4672 19.9145 12.2889 20.0649 12.1651C20.2153 12.0414 20.4086 11.9825 20.6025 12.0013C20.7963 12.0202 20.9747 12.1153 21.0984 12.2656C21.8377 13.1555 22.3079 14.2379 22.4536 15.3856C22.5994 16.5334 22.4147 17.6989 21.9212 18.7453C21.4278 19.7917 20.646 20.6757 19.6678 21.2934C18.6895 21.9111 17.5553 22.2369 16.3984 22.2326L16.3884 22.2276Z" fill="#3D444F"/>
</svg>
