<svg width="24" height="25" viewBox="0 0 24 25" fill="none" xmlns="http://www.w3.org/2000/svg">
<path d="M9.28366 12.4135H9.20466C9.14607 12.4037 9.08625 12.4037 9.02766 12.4135C7.69513 12.3759 6.43094 11.8154 5.50846 10.853C4.58599 9.89071 4.07937 8.60395 4.09816 7.27102C4.11695 5.9381 4.65964 4.66613 5.60888 3.73019C6.55811 2.79424 7.8376 2.26953 9.17066 2.26953C10.5037 2.26953 11.7832 2.79424 12.7324 3.73019C13.6817 4.66613 14.2244 5.9381 14.2432 7.27102C14.2619 8.60395 13.7553 9.89071 12.8328 10.853C11.9104 11.8154 10.6462 12.3759 9.31366 12.4135H9.28366ZM9.12666 3.66852C8.64924 3.65939 8.17469 3.74439 7.73012 3.91865C7.28555 4.09292 6.87966 4.35305 6.53561 4.68418C5.84079 5.35294 5.44009 6.27032 5.42166 7.23452C5.40322 8.19871 5.76857 9.13074 6.43733 9.82556C7.10608 10.5204 8.02346 10.9211 8.98766 10.9395C9.09142 10.9296 9.19589 10.9296 9.29966 10.9395C10.2485 10.895 11.1422 10.4808 11.7895 9.78568C12.4369 9.09052 12.7864 8.16959 12.7632 7.21999C12.7401 6.27039 12.3462 5.36756 11.6658 4.70475C10.9854 4.04193 10.0725 3.67178 9.12266 3.67352L9.12666 3.66852Z" fill="#3D444F"/>
<path d="M16.5603 12.5416C16.5303 12.5432 16.5002 12.5398 16.4713 12.5316C16.2721 12.554 16.0719 12.4989 15.9122 12.3777C15.7524 12.2565 15.6454 12.0785 15.6133 11.8806C15.5993 11.7867 15.6041 11.691 15.6273 11.599C15.6504 11.5069 15.6916 11.4204 15.7484 11.3443C15.8052 11.2683 15.8765 11.2042 15.9582 11.1559C16.0399 11.1075 16.1303 11.0758 16.2243 11.0626C16.3423 11.0526 16.4703 11.0526 16.5793 11.0526C17.2849 11.0143 17.9476 10.7022 18.4266 10.1827C18.9056 9.66326 19.163 8.97742 19.1441 8.27109C19.1252 7.56476 18.8315 6.89367 18.3254 6.40055C17.8194 5.90744 17.1409 5.63121 16.4343 5.63062C16.3377 5.63181 16.2418 5.61381 16.1522 5.57766C16.0626 5.54151 15.9811 5.48792 15.9123 5.42002C15.8436 5.35211 15.789 5.27123 15.7517 5.18207C15.7145 5.09292 15.6953 4.99725 15.6953 4.90062C15.6969 4.70511 15.7753 4.51805 15.9135 4.3798C16.0518 4.24155 16.2388 4.16319 16.4343 4.16162C17.5283 4.16777 18.5766 4.60136 19.3553 5.36982C20.134 6.13828 20.5814 7.1807 20.602 8.27453C20.6226 9.36836 20.2148 10.4269 19.4657 11.2242C18.7165 12.0214 17.6853 12.4942 16.5923 12.5416H16.5603Z" fill="#3D444F"/>
<path d="M9.29408 23.1895C7.40707 23.2247 5.55047 22.7109 3.95008 21.7105C3.32955 21.354 2.80958 20.8459 2.43882 20.2338C2.06805 19.6217 1.85861 18.9255 1.83008 18.2105C1.85934 17.4929 2.0689 16.7942 2.43942 16.179C2.80995 15.5638 3.32948 15.0519 3.95008 14.6905C5.5661 13.7274 7.41236 13.219 9.29358 13.219C11.1748 13.219 13.0211 13.7274 14.6371 14.6905C15.2562 15.0486 15.775 15.557 16.1456 16.1688C16.5161 16.7806 16.7264 17.4759 16.7571 18.1905C16.7278 18.908 16.5183 19.6067 16.1477 20.2219C15.7772 20.8371 15.2577 21.349 14.6371 21.7105C13.0364 22.7094 11.1806 23.2232 9.29408 23.1895ZM4.76908 15.9325C4.35412 16.1613 4.00315 16.4906 3.74828 16.8901C3.4934 17.2896 3.34274 17.7467 3.31008 18.2195C3.34529 18.6891 3.49717 19.1424 3.75194 19.5385C4.00672 19.9345 4.35633 20.2607 4.76908 20.4875C6.14016 21.296 7.70284 21.7225 9.29458 21.7225C10.8863 21.7225 12.449 21.296 13.8201 20.4875C14.235 20.2586 14.586 19.9293 14.8409 19.5298C15.0958 19.1303 15.2464 18.6732 15.2791 18.2005C15.2439 17.7309 15.092 17.2775 14.8372 16.8814C14.5824 16.4854 14.2328 16.1592 13.8201 15.9325C12.4474 15.1286 10.8853 14.705 9.29458 14.705C7.70384 14.705 6.1418 15.1286 4.76908 15.9325Z" fill="#3D444F"/>
<path d="M18.3348 21.4146C18.1645 21.4157 17.9991 21.3571 17.8676 21.2489C17.736 21.1407 17.6466 20.9899 17.6148 20.8226C17.5769 20.6307 17.6155 20.4316 17.7224 20.2677C17.8293 20.1039 17.9959 19.9883 18.1868 19.9456C18.7798 19.8324 19.3395 19.5862 19.8238 19.2256C20.0778 19.0588 20.2888 18.8344 20.4396 18.5706C20.5905 18.3068 20.6769 18.0111 20.6918 17.7076C20.6778 17.4064 20.5928 17.1127 20.4437 16.8506C20.2945 16.5886 20.0856 16.3655 19.8338 16.1996C19.3532 15.8455 18.8015 15.5998 18.2168 15.4796C18.1186 15.4613 18.0251 15.4234 17.9419 15.3682C17.8587 15.313 17.7874 15.2416 17.7324 15.1582C17.6775 15.0748 17.6398 14.9813 17.6218 14.883C17.6038 14.7848 17.6058 14.6839 17.6277 14.5865C17.6495 14.489 17.6908 14.397 17.749 14.3159C17.8073 14.2347 17.8813 14.1662 17.9666 14.1143C18.0519 14.0624 18.1468 14.0282 18.2456 14.0139C18.3445 13.9995 18.4452 14.0052 18.5418 14.0306C19.3351 14.194 20.0826 14.5307 20.7308 15.0166C21.1643 15.3216 21.5204 15.724 21.7703 16.1915C22.0202 16.659 22.157 17.1786 22.1698 17.7086C22.1538 18.2401 22.0146 18.7606 21.7631 19.2291C21.5117 19.6977 21.1548 20.1014 20.7208 20.4086C20.064 20.9045 19.3015 21.242 18.4928 21.3946C18.4417 21.4103 18.3882 21.4171 18.3348 21.4146Z" fill="#3D444F"/>
</svg>
