<svg width="25" height="25" viewBox="0 0 25 25" fill="none" xmlns="http://www.w3.org/2000/svg">
<path d="M11.4048 20.2305H7.88477C7.26477 20.2305 6.71477 20.2105 6.22477 20.1405C3.59477 19.8505 2.88477 18.6105 2.88477 15.2305V10.2305C2.88477 6.85047 3.59477 5.61047 6.22477 5.32047C6.71477 5.25047 7.26477 5.23047 7.88477 5.23047H11.3448" stroke="#3D444F" stroke-width="1.5" stroke-linecap="round" stroke-linejoin="round"/>
<path d="M15.4048 5.23047H16.8848C17.5048 5.23047 18.0548 5.25047 18.5448 5.32047C21.1748 5.61047 21.8848 6.85047 21.8848 10.2305V15.2305C21.8848 18.6105 21.1748 19.8505 18.5448 20.1405C18.0548 20.2105 17.5048 20.2305 16.8848 20.2305H15.4048" stroke="#3D444F" stroke-width="1.5" stroke-linecap="round" stroke-linejoin="round"/>
<path d="M15.3848 2.73047V22.7305" stroke="#3D444F" stroke-width="1.5" stroke-linecap="round" stroke-linejoin="round"/>
<path d="M11.4794 12.7305H11.4884" stroke="#3D444F" stroke-width="2" stroke-linecap="round" stroke-linejoin="round"/>
<path d="M7.47937 12.7305H7.48835" stroke="#3D444F" stroke-width="2" stroke-linecap="round" stroke-linejoin="round"/>
</svg>
