<svg width="24" height="25" viewBox="0 0 24 25" fill="none" xmlns="http://www.w3.org/2000/svg">
<path d="M14.9316 23.1979H9.06662C7.96133 23.2241 6.85811 23.0893 5.79162 22.7979C5.63084 22.7486 5.49134 22.6466 5.39556 22.5084C5.29978 22.3702 5.25331 22.2037 5.26362 22.0359C5.50762 19.1139 8.46962 16.8179 11.9986 16.8179C15.5276 16.8179 18.4796 19.1039 18.7336 22.0359C18.7492 22.2047 18.7049 22.3736 18.6083 22.513C18.5118 22.6523 18.3692 22.7532 18.2056 22.7979C17.1394 23.0892 16.0366 23.224 14.9316 23.1979ZM6.83762 21.5469C7.57288 21.6806 8.31936 21.7429 9.06662 21.7329H14.9316C15.6789 21.7429 16.4254 21.6806 17.1606 21.5469C16.6426 19.6709 14.5016 18.2829 11.9996 18.2829C9.49762 18.2829 7.35362 19.6709 6.83762 21.5469Z" fill="#3D444F"/>
<path d="M9.06681 2.19897H14.9318C17.6378 2.19897 19.4698 2.77097 20.6988 3.99897C21.9278 5.22697 22.4988 7.05897 22.4988 9.76297V15.626C22.5847 17.2517 22.2448 18.8718 21.5128 20.326C21.1558 20.9398 20.678 21.4748 20.1084 21.8988C19.5388 22.3228 18.8892 22.627 18.1988 22.793C18.096 22.8221 17.9881 22.8282 17.8827 22.8107C17.7773 22.7932 17.6771 22.7526 17.5893 22.6918C17.5014 22.631 17.4281 22.5515 17.3746 22.459C17.3211 22.3666 17.2887 22.2634 17.2798 22.157C17.0958 19.981 14.7798 18.276 11.9998 18.276C9.21981 18.276 6.89981 19.976 6.71981 22.157C6.71088 22.2634 6.6785 22.3666 6.625 22.459C6.5715 22.5515 6.4982 22.631 6.41036 22.6918C6.32251 22.7526 6.22231 22.7932 6.11692 22.8107C6.01154 22.8282 5.90359 22.8221 5.80081 22.793C5.1104 22.627 4.46079 22.3228 3.8912 21.8988C3.32162 21.4748 2.84387 20.9398 2.48681 20.326C1.75482 18.8718 1.41496 17.2517 1.50081 15.626V9.76297C1.50081 7.06297 2.07281 5.22697 3.30081 3.99897C4.52881 2.77097 6.36181 2.19897 9.06681 2.19897ZM18.5568 21.126C19.2743 20.8167 19.8713 20.2816 20.2568 19.602C20.8578 18.3666 21.1309 16.9974 21.0498 15.626V9.76297C21.0498 7.46297 20.6128 5.96297 19.6738 5.02297C18.7348 4.08297 17.2288 3.64897 14.9328 3.64897H9.06681C6.76681 3.64897 5.26681 4.08597 4.32481 5.02497C3.38281 5.96397 2.94981 7.46797 2.94981 9.76297V15.626C2.86877 16.9974 3.14185 18.3666 3.74281 19.602C4.12837 20.2816 4.72529 20.8167 5.44281 21.126C5.78655 19.9888 6.49103 18.9944 7.44981 18.293C8.76717 17.3233 10.3642 16.8084 11.9998 16.826C13.6355 16.8084 15.2325 17.3233 16.5498 18.293C17.509 18.9943 18.2138 19.9887 18.5578 21.126H18.5568ZM11.9998 7.08497C12.8362 7.08438 13.6539 7.33191 14.3495 7.79624C15.0452 8.26057 15.5874 8.92083 15.9077 9.69345C16.2279 10.4661 16.3118 11.3163 16.1486 12.1366C15.9854 12.9569 15.5826 13.7104 14.991 14.3016C14.3995 14.8929 13.6459 15.2954 12.8255 15.4581C12.0051 15.6209 11.1549 15.5367 10.3824 15.2161C9.60997 14.8955 8.94997 14.3529 8.48597 13.657C8.02197 12.9612 7.77482 12.1433 7.77581 11.307C7.7774 10.1874 8.223 9.11411 9.01487 8.32262C9.80674 7.53113 10.8802 7.08603 11.9998 7.08497ZM11.9998 14.091C12.5494 14.0918 13.0869 13.9296 13.5443 13.6249C14.0017 13.3203 14.3585 12.8868 14.5696 12.3794C14.7807 11.8719 14.8366 11.3133 14.7303 10.7741C14.6239 10.2349 14.36 9.73936 13.972 9.35011C13.584 8.96086 13.0894 8.6954 12.5505 8.58728C12.0116 8.47916 11.4528 8.53325 10.9447 8.7427C10.4366 8.95215 10.002 9.30756 9.69587 9.764C9.38973 10.2204 9.2258 10.7574 9.22481 11.307C9.22455 12.0439 9.51654 12.7508 10.0368 13.2727C10.557 13.7946 11.2629 14.0889 11.9998 14.091Z" fill="#3D444F"/>
<path d="M11.9968 15.547C11.1591 15.5475 10.34 15.2997 9.64312 14.8349C8.94623 14.37 8.40282 13.7089 8.0816 12.9352C7.76038 12.1615 7.67578 11.31 7.83848 10.4882C8.00118 9.66646 8.40389 8.91139 8.99568 8.31848C9.58748 7.72556 10.3418 7.32143 11.1632 7.15718C11.9847 6.99292 12.8364 7.07592 13.6107 7.39568C14.385 7.71544 15.0471 8.2576 15.5133 8.95361C15.9795 9.64962 16.2288 10.4682 16.2298 11.306C16.2295 12.4293 15.7837 13.5066 14.9902 14.3017C14.1966 15.0967 13.1201 15.5446 11.9968 15.547ZM11.9968 8.54095C11.4486 8.54016 10.9124 8.70207 10.4563 9.00618C10.0001 9.3103 9.64446 9.74293 9.43434 10.2493C9.22422 10.7557 9.16908 11.313 9.27592 11.8507C9.38275 12.3885 9.64675 12.8824 10.0345 13.27C10.4222 13.6576 10.9162 13.9214 11.454 14.028C11.9918 14.1347 12.5491 14.0793 13.0554 13.869C13.5617 13.6587 13.9942 13.3029 14.2981 12.8467C14.6021 12.3904 14.7638 11.8542 14.7628 11.306C14.7615 10.5729 14.4696 9.87019 13.9511 9.35191C13.4327 8.83363 12.7299 8.54201 11.9968 8.54095Z" fill="#3D444F"/>
</svg>
