<svg width="19" height="19" viewBox="0 0 19 19" fill="none" xmlns="http://www.w3.org/2000/svg">
<path d="M2.11523 12.7305H17.1152V14.2305H2.11523V12.7305ZM2.97773 9.69297L3.61523 8.58297L4.25273 9.69297L5.22773 9.13047L4.59023 8.02047H5.86523V6.89547H4.59023L5.22773 5.79297L4.25273 5.23047L3.61523 6.33297L2.97773 5.23047L2.00273 5.79297L2.64023 6.89547H1.36523V8.02047H2.64023L2.00273 9.13047L2.97773 9.69297ZM8.00273 9.13047L8.97773 9.69297L9.61523 8.58297L10.2527 9.69297L11.2277 9.13047L10.5902 8.02047H11.8652V6.89547H10.5902L11.2277 5.79297L10.2527 5.23047L9.61523 6.33297L8.97773 5.23047L8.00273 5.79297L8.64023 6.89547H7.36523V8.02047H8.64023L8.00273 9.13047ZM17.8652 6.89547H16.5902L17.2277 5.79297L16.2527 5.23047L15.6152 6.33297L14.9777 5.23047L14.0027 5.79297L14.6402 6.89547H13.3652V8.02047H14.6402L14.0027 9.13047L14.9777 9.69297L15.6152 8.58297L16.2527 9.69297L17.2277 9.13047L16.5902 8.02047H17.8652V6.89547Z" fill="#3D444F"/>
</svg>
