<svg width="25" height="25" viewBox="0 0 25 25" fill="none" xmlns="http://www.w3.org/2000/svg">
<g clip-path="url(#clip0_9281_6856)">
<path d="M2.02539 12.7305C2.02539 12.4305 2.09539 12.1305 2.23539 11.8805C3.25539 10.0105 4.33539 6.72047 4.60539 4.66047L4.64539 4.37047C4.80539 3.06047 6.03539 1.98047 7.36539 1.98047L19.4454 1.98047C20.2354 1.98047 20.9554 2.29047 21.4754 2.86047C21.9954 3.43047 22.2454 4.17047 22.1754 4.95047C22.0054 7.15047 20.9054 10.4705 19.7254 12.3505L19.5854 12.5905C19.5454 12.6605 19.5454 12.8105 19.5754 12.8705L19.6754 13.0305C20.8554 14.9105 21.9754 18.2305 22.1654 20.4405C22.1654 20.4605 22.1654 20.5405 22.1654 20.5605C22.2354 21.2905 21.9754 22.0405 21.4554 22.6005C20.9354 23.1705 20.2154 23.4805 19.4254 23.4805H7.35539C6.01539 23.4805 4.79539 22.4005 4.63539 21.0805L4.59539 20.7505C4.32539 18.6905 3.23539 15.3905 2.22539 13.5605C2.08539 13.3205 2.02539 13.0305 2.02539 12.7305ZM20.6854 4.71047C20.6854 4.39047 20.5754 4.10047 20.3654 3.87047C20.1354 3.62047 19.8054 3.48047 19.4454 3.48047H7.36539C6.77539 3.48047 6.20539 3.99047 6.12539 4.56047L6.08539 4.86047C5.78539 7.11047 4.65539 10.5605 3.56539 12.5605C3.52539 12.6505 3.51539 12.7805 3.53539 12.8305C4.64539 14.8305 5.78539 18.3005 6.08539 20.5605L6.12539 20.9005C6.19539 21.4705 6.77539 21.9805 7.36539 21.9805H19.4354C19.8054 21.9805 20.1254 21.8405 20.3654 21.5905C20.5954 21.3305 20.7054 21.0005 20.6854 20.6305C20.6854 20.6105 20.6854 20.5305 20.6854 20.5105C20.5154 18.6005 19.4854 15.5205 18.4354 13.8405L18.3254 13.6805C17.9854 13.1305 17.9854 12.3505 18.3154 11.8205L18.4554 11.5805C19.5054 9.87047 20.5254 6.79047 20.6854 4.83047C20.6854 4.79047 20.6854 4.75047 20.6854 4.71047Z" fill="#3D444F"/>
<path d="M2.86523 12.7305C2.86523 12.3205 3.20523 11.9805 3.61523 11.9805H18.6153C19.0253 11.9805 19.3653 12.3205 19.3653 12.7305C19.3653 13.1405 19.0253 13.4805 18.6153 13.4805H3.61523C3.19523 13.4805 2.86523 13.1405 2.86523 12.7305Z" fill="#3D444F"/>
<path d="M11.1055 6.98047H8.85547C8.44547 6.98047 8.10547 6.64047 8.10547 6.23047C8.10547 5.82047 8.44547 5.48047 8.85547 5.48047H11.1055C11.5155 5.48047 11.8555 5.82047 11.8555 6.23047C11.8555 6.64047 11.5155 6.98047 11.1055 6.98047Z" fill="#3D444F"/>
<path d="M11.8555 9.98047H8.85547C8.44547 9.98047 8.10547 9.64047 8.10547 9.23047C8.10547 8.82047 8.44547 8.48047 8.85547 8.48047H11.8555C12.2655 8.48047 12.6055 8.82047 12.6055 9.23047C12.6055 9.64047 12.2655 9.98047 11.8555 9.98047Z" fill="#3D444F"/>
</g>
<defs>
<clipPath id="clip0_9281_6856">
<rect width="22" height="22" fill="white" transform="translate(1.10547 1.73047)"/>
</clipPath>
</defs>
</svg>
