<svg width="24" height="25" viewBox="0 0 24 25" fill="none" xmlns="http://www.w3.org/2000/svg">
<path d="M12.0003 23.2305C11.6043 23.2212 11.216 23.1193 10.8666 22.9327C10.5172 22.7462 10.2164 22.4803 9.98833 22.1565L9.00133 20.8375C8.91327 20.7108 8.79851 20.6049 8.66513 20.5273C8.53176 20.4498 8.383 20.4024 8.22933 20.3885C8.07491 20.3873 7.92198 20.4189 7.78064 20.4811C7.6393 20.5433 7.51275 20.6348 7.40933 20.7495L6.85233 20.2495L7.38933 20.7495C5.98233 22.2495 4.89833 22.1365 4.38133 21.9315C3.86433 21.7265 2.96533 21.0525 2.96533 18.8805V7.88047C2.96533 3.54947 4.21533 2.23047 8.30833 2.23047H15.6923C19.7853 2.23047 21.0353 3.54947 21.0353 7.88547V18.8855C21.0353 21.0445 20.1463 21.7185 19.6193 21.9325C19.0923 22.1465 18.0273 22.2545 16.6113 20.7505C16.5111 20.6293 16.3837 20.5334 16.2395 20.4707C16.0953 20.408 15.9383 20.3801 15.7813 20.3895C15.6264 20.4033 15.4763 20.4506 15.3415 20.5281C15.2066 20.6056 15.0902 20.7115 15.0003 20.8385L14.0153 22.1565C13.787 22.4807 13.4857 22.7469 13.1357 22.9334C12.7857 23.1199 12.3968 23.2217 12.0003 23.2305ZM8.17133 18.9135H8.29833C8.66616 18.9389 9.02391 19.0448 9.34634 19.2236C9.66876 19.4025 9.948 19.6499 10.1643 19.9485L11.1513 21.2675C11.2394 21.4128 11.3634 21.5329 11.5114 21.6163C11.6594 21.6997 11.8264 21.7435 11.9963 21.7435C12.1662 21.7435 12.3332 21.6997 12.4813 21.6163C12.6293 21.5329 12.7533 21.4128 12.8413 21.2675L13.8283 19.9485C14.0423 19.6456 14.3221 19.3952 14.6468 19.216C14.9714 19.0368 15.3324 18.9334 15.7027 18.9137C16.0729 18.894 16.4429 18.9584 16.7847 19.1021C17.1265 19.2458 17.4314 19.4651 17.6763 19.7435C18.4183 20.5345 18.8973 20.6325 19.0763 20.5635C19.3103 20.4635 19.5643 19.8995 19.5643 18.8835V7.88347C19.5643 4.35747 18.9493 3.69347 15.6863 3.69347H8.30833C5.04633 3.69347 4.43033 4.35747 4.43033 7.88347V18.8835C4.43033 19.9095 4.68433 20.4755 4.91833 20.5635C5.08433 20.6315 5.57233 20.5345 6.31833 19.7435C6.55573 19.4879 6.84212 19.2827 7.16046 19.1401C7.4788 18.9975 7.82258 18.9204 8.17133 18.9135Z" fill="#3D444F"/>
<path d="M16.1753 12.5054H10.6753C10.4764 12.5054 10.2856 12.4264 10.145 12.2857C10.0043 12.145 9.92529 11.9543 9.92529 11.7554C9.92529 11.5565 10.0043 11.3657 10.145 11.225C10.2856 11.0844 10.4764 11.0054 10.6753 11.0054H16.1753C16.3742 11.0054 16.565 11.0844 16.7056 11.225C16.8463 11.3657 16.9253 11.5565 16.9253 11.7554C16.9253 11.9543 16.8463 12.145 16.7056 12.2857C16.565 12.4264 16.3742 12.5054 16.1753 12.5054Z" fill="#3D444F"/>
<path d="M16.1753 8.60547H10.6753C10.4764 8.60547 10.2856 8.52645 10.145 8.3858C10.0043 8.24515 9.92529 8.05438 9.92529 7.85547C9.92529 7.65656 10.0043 7.46579 10.145 7.32514C10.2856 7.18449 10.4764 7.10547 10.6753 7.10547H16.1753C16.3742 7.10547 16.565 7.18449 16.7056 7.32514C16.8463 7.46579 16.9253 7.65656 16.9253 7.85547C16.9253 8.05438 16.8463 8.24515 16.7056 8.3858C16.565 8.52645 16.3742 8.60547 16.1753 8.60547Z" fill="#3D444F"/>
<path d="M7.89014 8.8584C7.69236 8.8584 7.49902 8.79975 7.33457 8.68987C7.17012 8.57999 7.04195 8.42381 6.96626 8.24108C6.89057 8.05836 6.87077 7.85729 6.90935 7.66331C6.94794 7.46933 7.04318 7.29114 7.18303 7.15129C7.32288 7.01144 7.50107 6.9162 7.69505 6.87761C7.88903 6.83903 8.09009 6.85883 8.27282 6.93452C8.45555 7.01021 8.61172 7.13838 8.72161 7.30283C8.83149 7.46728 8.89014 7.66062 8.89014 7.8584C8.89014 7.98972 8.86427 8.11976 8.81402 8.24108C8.76376 8.36241 8.6901 8.47265 8.59724 8.56551C8.50438 8.65836 8.39415 8.73202 8.27282 8.78228C8.15149 8.83253 8.02146 8.8584 7.89014 8.8584Z" fill="#3D444F"/>
<path d="M7.89014 12.7563C7.69236 12.7563 7.49902 12.6977 7.33457 12.5878C7.17012 12.4779 7.04195 12.3218 6.96626 12.139C6.89057 11.9563 6.87077 11.7552 6.90935 11.5613C6.94794 11.3673 7.04318 11.1891 7.18303 11.0492C7.32288 10.9094 7.50107 10.8141 7.69505 10.7756C7.88903 10.737 8.09009 10.7568 8.27282 10.8325C8.45555 10.9082 8.61172 11.0363 8.72161 11.2008C8.83149 11.3652 8.89014 11.5586 8.89014 11.7563C8.89014 11.8877 8.86427 12.0177 8.81402 12.139C8.76376 12.2604 8.6901 12.3706 8.59724 12.4635C8.50438 12.5563 8.39415 12.63 8.27282 12.6802C8.15149 12.7305 8.02146 12.7563 7.89014 12.7563Z" fill="#3D444F"/>
</svg>
