<svg width="24" height="25" viewBox="0 0 24 25" fill="none" xmlns="http://www.w3.org/2000/svg">
<path d="M11.9998 23.2C11.6039 23.1907 11.2156 23.0887 10.8661 22.9022C10.5167 22.7157 10.2159 22.4498 9.98784 22.126L9.00084 20.807C8.91278 20.6803 8.79802 20.5744 8.66465 20.4968C8.53127 20.4193 8.38251 20.3718 8.22884 20.358C8.07442 20.3568 7.92149 20.3883 7.78015 20.4506C7.63881 20.5128 7.51226 20.6043 7.40884 20.719L6.85184 20.219L7.38884 20.719C5.98184 22.219 4.89784 22.106 4.38084 21.901C3.86384 21.696 2.96484 21.0219 2.96484 18.85V7.84995C2.96484 3.51895 4.21484 2.19995 8.30784 2.19995H15.6918C19.7848 2.19995 21.0348 3.51895 21.0348 7.85495V18.855C21.0348 21.014 20.1458 21.688 19.6188 21.902C19.0918 22.116 18.0268 22.224 16.6108 20.72C16.5106 20.5988 16.3832 20.5029 16.239 20.4402C16.0948 20.3774 15.9378 20.3496 15.7808 20.359C15.6259 20.3728 15.4758 20.4201 15.341 20.4976C15.2061 20.5751 15.0897 20.681 14.9998 20.808L14.0148 22.126C13.7865 22.4502 13.4852 22.7163 13.1352 22.9029C12.7852 23.0894 12.3963 23.1912 11.9998 23.2ZM8.17084 18.883H8.29784C8.66567 18.9084 9.02342 19.0143 9.34585 19.1931C9.66827 19.3719 9.94751 19.6194 10.1638 19.918L11.1508 21.237C11.2389 21.3823 11.3629 21.5024 11.5109 21.5858C11.6589 21.6692 11.826 21.713 11.9958 21.713C12.1657 21.713 12.3328 21.6692 12.4808 21.5858C12.6288 21.5024 12.7528 21.3823 12.8408 21.237L13.8278 19.918C14.0418 19.6151 14.3216 19.3647 14.6463 19.1855C14.9709 19.0063 15.3319 18.9029 15.7022 18.8832C16.0725 18.8635 16.4424 18.9279 16.7842 19.0716C17.1261 19.2153 17.4309 19.4346 17.6758 19.713C18.4178 20.504 18.8968 20.602 19.0758 20.533C19.3098 20.433 19.5638 19.869 19.5638 18.853V7.85295C19.5638 4.32695 18.9488 3.66295 15.6858 3.66295H8.30784C5.04584 3.66295 4.42984 4.32695 4.42984 7.85295V18.853C4.42984 19.879 4.68384 20.445 4.91784 20.533C5.08384 20.601 5.57184 20.504 6.31784 19.713C6.55524 19.4574 6.84163 19.2522 7.15997 19.1096C7.47832 18.967 7.8221 18.8899 8.17084 18.883Z" fill="#3D444F"/>
<path d="M16.1748 12.475H10.6748C10.4759 12.475 10.2852 12.3959 10.1445 12.2553C10.0039 12.1146 9.92484 11.9239 9.92484 11.725C9.92484 11.526 10.0039 11.3353 10.1445 11.1946C10.2852 11.054 10.4759 10.975 10.6748 10.975H16.1748C16.3738 10.975 16.5645 11.054 16.7052 11.1946C16.8458 11.3353 16.9248 11.526 16.9248 11.725C16.9248 11.9239 16.8458 12.1146 16.7052 12.2553C16.5645 12.3959 16.3738 12.475 16.1748 12.475Z" fill="#3D444F"/>
<path d="M16.1748 8.57495H10.6748C10.4759 8.57495 10.2852 8.49593 10.1445 8.35528C10.0039 8.21463 9.92484 8.02386 9.92484 7.82495C9.92484 7.62604 10.0039 7.43527 10.1445 7.29462C10.2852 7.15397 10.4759 7.07495 10.6748 7.07495H16.1748C16.3738 7.07495 16.5645 7.15397 16.7052 7.29462C16.8458 7.43527 16.9248 7.62604 16.9248 7.82495C16.9248 8.02386 16.8458 8.21463 16.7052 8.35528C16.5645 8.49593 16.3738 8.57495 16.1748 8.57495Z" fill="#3D444F"/>
<path d="M7.88984 8.82795C7.69206 8.82795 7.49872 8.7693 7.33427 8.65942C7.16982 8.54954 7.04165 8.39336 6.96596 8.21063C6.89028 8.02791 6.87047 7.82684 6.90906 7.63286C6.94764 7.43888 7.04288 7.2607 7.18274 7.12084C7.32259 6.98099 7.50077 6.88575 7.69475 6.84717C7.88873 6.80858 8.0898 6.82838 8.27253 6.90407C8.45525 6.97976 8.61143 7.10793 8.72131 7.27238C8.83119 7.43683 8.88984 7.63017 8.88984 7.82795C8.88984 7.95927 8.86398 8.08931 8.81372 8.21063C8.76347 8.33196 8.68981 8.4422 8.59695 8.53506C8.50409 8.62792 8.39385 8.70158 8.27253 8.75183C8.1512 8.80209 8.02117 8.82795 7.88984 8.82795Z" fill="#3D444F"/>
<path d="M7.88984 12.726C7.69206 12.726 7.49872 12.6673 7.33427 12.5574C7.16982 12.4475 7.04165 12.2914 6.96596 12.1086C6.89028 11.9259 6.87047 11.7248 6.90906 11.5309C6.94764 11.3369 7.04288 11.1587 7.18274 11.0188C7.32259 10.879 7.50077 10.7838 7.69475 10.7452C7.88873 10.7066 8.0898 10.7264 8.27253 10.8021C8.45525 10.8778 8.61143 11.0059 8.72131 11.1704C8.83119 11.3348 8.88984 11.5282 8.88984 11.726C8.88984 11.8573 8.86398 11.9873 8.81372 12.1086C8.76347 12.23 8.68981 12.3402 8.59695 12.4331C8.50409 12.5259 8.39385 12.5996 8.27253 12.6498C8.1512 12.7001 8.02117 12.726 7.88984 12.726Z" fill="#3D444F"/>
</svg>
