<svg width="24" height="25" viewBox="0 0 24 25" fill="none" xmlns="http://www.w3.org/2000/svg">
<path fill-rule="evenodd" clip-rule="evenodd" d="M3.09467 3.79462C4.42914 2.46015 6.42603 1.94995 9 1.94995H15C17.574 1.94995 19.5709 2.46015 20.9053 3.79462C22.2398 5.12909 22.75 7.12598 22.75 9.69995V15.7C22.75 18.2739 22.2398 20.2708 20.9053 21.6053C19.5709 22.9398 17.574 23.45 15 23.45H9C6.42603 23.45 4.42914 22.9398 3.09467 21.6053C1.7602 20.2708 1.25 18.2739 1.25 15.7V9.69995C1.25 7.12598 1.7602 5.12909 3.09467 3.79462ZM4.15533 4.85528C3.2398 5.77081 2.75 7.27392 2.75 9.69995V15.7C2.75 18.126 3.2398 19.6291 4.15533 20.5446C5.07086 21.4602 6.57397 21.95 9 21.95H15C17.426 21.95 18.9291 21.4602 19.8447 20.5446C20.7602 19.6291 21.25 18.126 21.25 15.7V9.69995C21.25 7.27392 20.7602 5.77081 19.8447 4.85528C18.9291 3.93975 17.426 3.44995 15 3.44995H9C6.57397 3.44995 5.07086 3.93975 4.15533 4.85528Z" fill="#3D444F"/>
<path fill-rule="evenodd" clip-rule="evenodd" d="M11.9402 8.8501C11.3844 8.8501 10.9302 9.30432 10.9302 9.86011C10.9302 10.4074 11.3589 10.8479 11.8838 10.8701H11.9862C12.5113 10.848 12.9424 10.4162 12.9502 9.85624C12.9481 9.30222 12.4947 8.8501 11.9402 8.8501ZM9.43018 9.86011C9.43018 8.47589 10.556 7.3501 11.9402 7.3501C13.3244 7.3501 14.4502 8.47589 14.4502 9.86011V9.86792C14.4361 11.2224 13.3731 12.3267 12.0241 12.3697C12.0161 12.37 12.0082 12.3701 12.0002 12.3701H11.8702C11.8622 12.3701 11.8542 12.37 11.8463 12.3697C10.4958 12.3266 9.43018 11.2092 9.43018 9.86011Z" fill="#3D444F"/>
<path fill-rule="evenodd" clip-rule="evenodd" d="M14.3981 13.7973C15.0336 14.2218 15.45 14.856 15.45 15.5851C15.45 16.3147 15.0331 16.9492 14.3967 17.3736C13.7024 17.8384 12.8288 18.0475 11.995 18.0475C11.161 18.0475 10.2871 17.8382 9.5927 17.3732C8.95673 16.9487 8.54004 16.3144 8.54004 15.5851C8.54004 14.8552 8.95731 14.2205 9.59401 13.796L9.59532 13.7951L9.59533 13.7951C10.2933 13.332 11.1682 13.1226 12.0025 13.1226C12.8355 13.1226 13.7075 13.3313 14.3981 13.7973ZM10.4254 15.0445C10.1027 15.2599 10.04 15.47 10.04 15.5851C10.04 15.7002 10.1028 15.9105 10.4261 16.126L10.4274 16.1269C10.823 16.3918 11.3891 16.5475 11.995 16.5475C12.601 16.5475 13.1671 16.3918 13.5627 16.1269L13.564 16.126C13.8873 15.9105 13.95 15.7002 13.95 15.5851C13.95 15.4699 13.8873 15.2596 13.564 15.0441L13.56 15.0414L13.56 15.0414C13.1709 14.7784 12.6088 14.6226 12.0025 14.6226C11.3972 14.6226 10.8274 14.778 10.4254 15.0445Z" fill="#3D444F"/>
</svg>
