<svg width="24" height="25" viewBox="0 0 24 25" fill="none" xmlns="http://www.w3.org/2000/svg">
<path d="M21.2675 23.2441H4.6635C3.69209 23.2438 2.76055 22.8578 2.07366 22.1709C1.38677 21.4841 1.00077 20.5525 1.0005 19.5811V2.97711C0.996861 2.87864 1.01311 2.78045 1.04829 2.6884C1.08346 2.59635 1.13683 2.51234 1.20521 2.44139C1.27359 2.37044 1.35557 2.314 1.44625 2.27546C1.53694 2.23691 1.63446 2.21704 1.733 2.21704C1.83154 2.21704 1.92906 2.23691 2.01975 2.27546C2.11043 2.314 2.19242 2.37044 2.26079 2.44139C2.32917 2.51234 2.38254 2.59635 2.41771 2.6884C2.45289 2.78045 2.46914 2.87864 2.4655 2.97711V19.5771C2.4655 20.1606 2.69728 20.7202 3.10986 21.1327C3.52244 21.5453 4.08202 21.7771 4.6655 21.7771H21.2655C21.4551 21.7841 21.6346 21.8644 21.7662 22.001C21.8979 22.1376 21.9714 22.3199 21.9714 22.5096C21.9714 22.6993 21.8979 22.8817 21.7662 23.0183C21.6346 23.1549 21.4551 23.2351 21.2655 23.2421L21.2675 23.2441Z" fill="#3D444F"/>
<path d="M4.72842 18.2442C4.55457 18.244 4.38623 18.1832 4.25242 18.0722C4.18036 18.011 4.12114 17.9361 4.07818 17.8518C4.03521 17.7676 4.00936 17.6757 4.00211 17.5814C3.99486 17.4872 4.00635 17.3924 4.03592 17.3026C4.0655 17.2128 4.11257 17.1297 4.17442 17.0582L8.63342 11.9312C8.87491 11.6557 9.16993 11.4323 9.50052 11.2744C9.83112 11.1166 10.1904 11.0277 10.5564 11.0132C10.9226 11.0011 11.2875 11.0625 11.6294 11.1939C11.9714 11.3253 12.2836 11.524 12.5474 11.7782L13.4704 12.6872C13.7116 12.9198 14.0353 13.0471 14.3704 13.0412C14.5374 13.0361 14.7015 12.996 14.8521 12.9234C15.0027 12.8509 15.1363 12.7476 15.2444 12.6202L19.7084 7.49418C19.8366 7.35027 20.0157 7.2618 20.2078 7.24743C20.4 7.23306 20.5903 7.29393 20.7384 7.41718C20.8105 7.4784 20.8697 7.55328 20.9127 7.63751C20.9556 7.72174 20.9815 7.81365 20.9887 7.90792C20.996 8.0022 20.9845 8.09697 20.9549 8.18678C20.9253 8.27659 20.8783 8.35965 20.8164 8.43118L16.3574 13.5582C16.1159 13.8336 15.8209 14.0571 15.4903 14.2149C15.1597 14.3727 14.8005 14.4616 14.4344 14.4762C14.0683 14.4883 13.7034 14.4268 13.3614 14.2954C13.0194 14.164 12.7073 13.9654 12.4434 13.7112L11.5304 12.8022C11.4123 12.6852 11.2716 12.5935 11.1168 12.5326C10.9621 12.4717 10.7966 12.443 10.6304 12.4482C10.4634 12.4533 10.2993 12.4934 10.1487 12.5659C9.99818 12.6384 9.86452 12.7417 9.75641 12.8692L5.29242 17.9942C5.22027 18.0719 5.13307 18.1342 5.03611 18.1771C4.93915 18.2201 4.83446 18.2429 4.72842 18.2442Z" fill="#3D444F"/>
</svg>
