<svg width="24" height="25" viewBox="0 0 24 25" fill="none" xmlns="http://www.w3.org/2000/svg">
<path d="M15 23.4805H9C3.57 23.4805 1.25 21.1605 1.25 15.7305V9.73047C1.25 4.30047 3.57 1.98047 9 1.98047H15C20.43 1.98047 22.75 4.30047 22.75 9.73047V15.7305C22.75 21.1605 20.43 23.4805 15 23.4805ZM9 3.48047C4.39 3.48047 2.75 5.12047 2.75 9.73047V15.7305C2.75 20.3405 4.39 21.9805 9 21.9805H15C19.61 21.9805 21.25 20.3405 21.25 15.7305V9.73047C21.25 5.12047 19.61 3.48047 15 3.48047H9Z" fill="#3D444F"/>
<path d="M8.56976 16.7506C8.37976 16.7506 8.18977 16.6806 8.03977 16.5306C7.74977 16.2406 7.74977 15.7606 8.03977 15.4706L14.5898 8.92063C14.8798 8.63063 15.3598 8.63063 15.6498 8.92063C15.9398 9.21062 15.9398 9.69062 15.6498 9.98062L9.09976 16.5306C8.94976 16.6806 8.75976 16.7506 8.56976 16.7506Z" fill="#3D444F"/>
<path d="M8.98001 11.8404C7.89001 11.8404 7 10.9504 7 9.86038C7 8.77038 7.89001 7.88037 8.98001 7.88037C10.07 7.88037 10.96 8.77038 10.96 9.86038C10.96 10.9504 10.07 11.8404 8.98001 11.8404ZM8.98001 9.39038C8.72001 9.39038 8.5 9.60039 8.5 9.87039C8.5 10.1404 8.71001 10.3504 8.98001 10.3504C9.25001 10.3504 9.45999 10.1404 9.45999 9.87039C9.45999 9.60039 9.24001 9.39038 8.98001 9.39038Z" fill="#3D444F"/>
<path d="M15.52 17.5703C14.43 17.5703 13.54 16.6803 13.54 15.5903C13.54 14.5003 14.43 13.6104 15.52 13.6104C16.61 13.6104 17.5 14.5003 17.5 15.5903C17.5 16.6803 16.61 17.5703 15.52 17.5703ZM15.52 15.1204C15.26 15.1204 15.04 15.3303 15.04 15.6003C15.04 15.8703 15.25 16.0804 15.52 16.0804C15.79 16.0804 16 15.8703 16 15.6003C16 15.3303 15.79 15.1204 15.52 15.1204Z" fill="#3D444F"/>
</svg>
