<svg width="24" height="24" viewBox="0 0 24 24" fill="none" xmlns="http://www.w3.org/2000/svg">
<path d="M3.75 3.78125H20.25C20.6395 3.78125 21.0126 3.93647 21.2881 4.21191C21.5635 4.48736 21.7188 4.86046 21.7188 5.25V8.12598L21.7285 8.13477C22.1995 8.58583 22.574 9.12776 22.8301 9.72754C23.0862 10.3274 23.2188 10.9728 23.2188 11.625C23.2188 12.2772 23.0862 12.9226 22.8301 13.5225C22.574 14.1222 22.1995 14.6642 21.7285 15.1152L21.7188 15.124V21C21.7199 21.1267 21.6876 21.2521 21.625 21.3623C21.5624 21.4724 21.4717 21.5641 21.3623 21.6279C21.253 21.6917 21.1285 21.7252 21.002 21.7256C20.9069 21.7258 20.8128 21.707 20.7256 21.6709L20.6406 21.6289L18.3906 20.3408L18.375 20.332L18.3594 20.3408L16.1094 21.6289C15.9996 21.6923 15.8748 21.7259 15.748 21.7256C15.6215 21.7252 15.497 21.6917 15.3877 21.6279C15.2783 21.5641 15.1876 21.4724 15.125 21.3623C15.0624 21.2521 15.0301 21.1267 15.0312 21V18.7188H3.75C3.36046 18.7188 2.98736 18.5635 2.71191 18.2881C2.43647 18.0126 2.28125 17.6395 2.28125 17.25V5.25C2.28125 4.86046 2.43647 4.48736 2.71191 4.21191C2.98736 3.93647 3.36046 3.78125 3.75 3.78125ZM20.2383 16.0957C19.6481 16.3423 19.0146 16.4697 18.375 16.4697C17.7354 16.4697 17.1019 16.3423 16.5117 16.0957L16.4688 16.0781V19.7617L16.5156 19.7354L18.0156 18.877C18.1242 18.8149 18.247 18.7822 18.3721 18.7822C18.4972 18.7822 18.6199 18.8149 18.7285 18.877L20.2285 19.7354L20.2754 19.7617V19.708L20.2812 16.125V16.0781L20.2383 16.0957ZM19.6787 8.47852C19.0564 8.22076 18.3715 8.15287 17.7109 8.28418C17.0502 8.41561 16.4432 8.74042 15.9668 9.2168C15.4904 9.69317 15.1656 10.3002 15.0342 10.9609C14.9029 11.6215 14.9708 12.3064 15.2285 12.9287C15.4863 13.5509 15.9225 14.0828 16.4824 14.457C17.0426 14.8313 17.7013 15.0312 18.375 15.0312C18.8223 15.0312 19.2654 14.9427 19.6787 14.7715C20.0918 14.6003 20.467 14.3494 20.7832 14.0332C21.0994 13.717 21.3503 13.3418 21.5215 12.9287C21.6927 12.5154 21.7812 12.0723 21.7812 11.625C21.7812 10.9513 21.5813 10.2926 21.207 9.73242C20.8328 9.17246 20.3009 8.73632 19.6787 8.47852ZM6.75 12.0312H11.25C11.4406 12.0312 11.623 12.1074 11.7578 12.2422C11.8926 12.377 11.9688 12.5594 11.9688 12.75C11.9688 12.9406 11.8926 13.123 11.7578 13.2578C11.623 13.3926 11.4406 13.4688 11.25 13.4688H6.75C6.55938 13.4688 6.37698 13.3926 6.24219 13.2578C6.1074 13.123 6.03125 12.9406 6.03125 12.75C6.03125 12.5594 6.1074 12.377 6.24219 12.2422C6.37698 12.1074 6.55938 12.0312 6.75 12.0312ZM6.75 9.03125H11.25C11.4406 9.03125 11.623 9.1074 11.7578 9.24219C11.8926 9.37698 11.9688 9.55938 11.9688 9.75C11.9688 9.94062 11.8926 10.123 11.7578 10.2578C11.623 10.3926 11.4406 10.4688 11.25 10.4688H6.75C6.55938 10.4688 6.37698 10.3926 6.24219 10.2578C6.1074 10.123 6.03125 9.94062 6.03125 9.75C6.03125 9.55938 6.1074 9.37698 6.24219 9.24219C6.37698 9.1074 6.55938 9.03125 6.75 9.03125ZM15.0312 15.125L15.0215 15.1152C14.2095 14.3321 13.6961 13.29 13.5703 12.1689C13.4445 11.0478 13.7148 9.91826 14.333 8.97461C14.9512 8.03102 15.879 7.33236 16.957 7C18.0352 6.66767 19.196 6.7225 20.2383 7.1543L20.2812 7.17188V5.21875H3.71875V17.2812H15.0312V15.125Z" fill="#3D444F" stroke="#3D444F" stroke-width="0.0625"/>
</svg>
