<svg width="25" height="25" viewBox="0 0 25 25" fill="none" xmlns="http://www.w3.org/2000/svg">
<path fill-rule="evenodd" clip-rule="evenodd" d="M21.1386 7.49057H20.9286V6.49057C20.9286 5.02539 19.7437 3.83607 18.2786 3.83057H4.93856C4.22607 3.83312 3.54439 4.1214 3.04625 4.63082C2.54811 5.14023 2.27516 5.8282 2.28856 6.54057V13.2106C2.28856 13.9134 2.56775 14.5874 3.06472 15.0844C3.5617 15.5814 4.23573 15.8606 4.93856 15.8606H15.4186V17.2506H5.89856C5.48434 17.2506 5.14856 17.5864 5.14856 18.0006C5.14856 18.4148 5.48434 18.7506 5.89856 18.7506H15.4186V18.9206C15.424 19.9732 16.276 20.8251 17.3286 20.8306H21.1386C22.1895 20.8251 23.0386 19.9715 23.0386 18.9206V9.40057C23.0412 8.89492 22.8422 8.40908 22.4856 8.05059C22.129 7.69211 21.6442 7.49056 21.1386 7.49057ZM4.93856 14.3606C4.30569 14.3551 3.79399 13.8434 3.78856 13.2106V6.54057C3.78853 5.9038 4.30182 5.38606 4.93856 5.38057H18.2786C18.5853 5.38055 18.8793 5.50309 19.0953 5.72092C19.3112 5.93876 19.4312 6.23384 19.4286 6.54057V7.54057H17.3286C16.276 7.54603 15.424 8.39798 15.4186 9.45057V14.4506L4.93856 14.3606ZM21.1386 19.3306C21.3611 19.3251 21.5386 19.1432 21.5386 18.9206V9.40057C21.5413 9.29276 21.5003 9.18843 21.425 9.11124C21.3497 9.03405 21.2464 8.99053 21.1386 8.99057H17.3286C17.1043 8.99584 16.9238 9.17635 16.9186 9.40057V18.9206C16.9238 19.1448 17.1043 19.3253 17.3286 19.3306H21.1386Z" fill="#3D444F"/>
<path d="M20.1786 9.60057H18.2786C17.8643 9.60057 17.5286 9.93635 17.5286 10.3506C17.5286 10.7648 17.8643 11.1006 18.2786 11.1006H20.1786C20.5928 11.1006 20.9286 10.7648 20.9286 10.3506C20.9286 9.93635 20.5928 9.60057 20.1786 9.60057Z" fill="#3D444F"/>
</svg>
