<svg width="24" height="24" viewBox="0 0 24 24" fill="none" xmlns="http://www.w3.org/2000/svg">
<g clip-path="url(#clip0_9010_13940)">
<path d="M9.20546 22.0019C4.15731 22.0019 2 19.8423 2 14.7923V9.20956C2 4.16147 4.15827 2 9.20546 2H14.7841C19.8322 2 21.9895 4.15957 21.9895 9.20956V13.6482C22.0035 13.7276 22.0035 13.8088 21.9895 13.8882V14.7923C21.9895 19.8404 19.8341 22.0019 14.7841 22.0019H9.20546ZM9.20546 20.6066H14.7841C19.0702 20.6066 20.5943 19.0821 20.5943 14.796V14.0863L19.3311 12.9999C19.0866 12.8047 18.7832 12.6985 18.4703 12.6985C18.1574 12.6985 17.854 12.8047 17.6094 12.9999L13.7404 16.3205C13.2433 16.7309 12.6187 16.9549 11.9741 16.9549C11.3294 16.9549 10.7049 16.7309 10.2077 16.3205L9.90075 16.0508C9.67353 15.8725 9.39628 15.7694 9.10779 15.7559C8.81931 15.7424 8.53398 15.8192 8.29112 15.9754L4.21563 18.7138C5.07096 20.0625 6.64519 20.6066 9.20546 20.6066ZM3.39524 9.20863V14.7914C3.37741 15.6678 3.46995 16.5433 3.67056 17.3967L7.52234 14.809C8.01935 14.4809 8.6089 14.3212 9.2036 14.3533C9.7983 14.3853 10.3669 14.607 10.8258 14.9867L11.1323 15.2564C11.3755 15.4512 11.6778 15.5578 11.9894 15.5578C12.301 15.5578 12.6038 15.4512 12.847 15.2564L16.7151 11.934C17.2121 11.5232 17.8367 11.2987 18.4814 11.2987C19.1262 11.2987 19.7508 11.5232 20.2478 11.934L20.6008 12.2372V9.2077C20.6008 4.92159 19.0772 3.39708 14.7911 3.39708H9.21244C4.91865 3.39422 3.39524 4.92061 3.39524 9.20863ZM6.64985 8.27756C6.65042 7.77188 6.80102 7.27834 7.08238 6.85815C7.36373 6.43797 7.7633 6.10997 8.23066 5.91684C8.69801 5.72372 9.21231 5.67367 9.70821 5.77267C10.2041 5.87167 10.6596 6.1153 11.0169 6.47307C11.3743 6.83084 11.6175 7.28671 11.716 7.78272C11.8144 8.27872 11.7636 8.79266 11.5699 9.25979C11.3763 9.72692 11.0486 10.1267 10.6281 10.4076C10.2076 10.6885 9.71301 10.8382 9.20732 10.8382C8.87109 10.8389 8.53814 10.7732 8.2274 10.6448C7.91666 10.5164 7.63447 10.3273 7.39677 10.0895C7.15907 9.85169 6.97069 9.56964 6.8424 9.25886C6.71411 8.94807 6.64817 8.61471 6.64892 8.27849L6.64985 8.27756ZM8.04462 8.27756C8.04481 8.50734 8.11309 8.73211 8.24089 8.92308C8.36869 9.11404 8.54989 9.26314 8.76224 9.35094C8.97459 9.43875 9.20847 9.461 9.43381 9.41605C9.65916 9.37111 9.86623 9.26049 10.0286 9.09794C10.1911 8.9354 10.3015 8.72896 10.3463 8.50358C10.3911 8.2782 10.3678 8.04429 10.2798 7.83202C10.1918 7.61974 10.043 7.43785 9.85192 7.3102C9.66085 7.18256 9.43618 7.11487 9.20639 7.11487C9.05384 7.11512 8.90307 7.14553 8.76224 7.20417C8.62141 7.26281 8.49318 7.34814 8.38553 7.45624C8.27788 7.56433 8.19291 7.6928 8.13485 7.83388C8.07679 7.97495 8.04704 8.12593 8.04741 8.27849L8.04462 8.27756Z" fill="#3D444F"/>
</g>
<defs>
<clipPath id="clip0_9010_13940">
<rect width="24" height="24" fill="white"/>
</clipPath>
</defs>
</svg>
