<svg width="24" height="25" viewBox="0 0 24 25" fill="none" xmlns="http://www.w3.org/2000/svg">
<path fill-rule="evenodd" clip-rule="evenodd" d="M12 4.98047C12.4142 4.98047 12.75 5.31626 12.75 5.73047V11.9805H19C19.4142 11.9805 19.75 12.3163 19.75 12.7305C19.75 13.1447 19.4142 13.4805 19 13.4805H12.75V19.7305C12.75 20.1447 12.4142 20.4805 12 20.4805C11.5858 20.4805 11.25 20.1447 11.25 19.7305V13.4805H5C4.58579 13.4805 4.25 13.1447 4.25 12.7305C4.25 12.3163 4.58579 11.9805 5 11.9805H11.25V5.73047C11.25 5.31626 11.5858 4.98047 12 4.98047Z" fill="#3D444F"/>
</svg>
