<svg width="25" height="25" viewBox="0 0 25 25" fill="none" xmlns="http://www.w3.org/2000/svg">
<path d="M14.7318 19.8425H6.13956C5.63127 19.8425 5.15228 19.7937 4.72218 19.6959C4.49736 19.6666 4.22367 19.5883 3.9402 19.4808C2.64013 18.9921 1.10547 17.7898 1.10547 14.7986V9.76454C1.10547 6.56813 2.94315 4.73047 6.13956 4.73047H14.7318C17.4296 4.73047 19.1696 6.02074 19.6388 8.36672C19.7267 8.79682 19.7658 9.25624 19.7658 9.76454V14.7986C19.7658 18.0146 17.9379 19.8425 14.7318 19.8425ZM6.14932 6.21628C3.74468 6.21628 2.58146 7.37946 2.58146 9.7841V14.8182C2.58146 16.568 3.19731 17.6432 4.45827 18.1221C4.65377 18.1906 4.8395 18.2394 5.01545 18.2687C5.3869 18.3469 5.74854 18.3861 6.14932 18.3861H14.7415C17.1462 18.3861 18.3094 17.2229 18.3094 14.8182V9.7841C18.3094 9.37355 18.2801 9.01187 18.2116 8.67952C17.8793 7.01778 16.7454 6.21628 14.7415 6.21628H6.14932Z" fill="#3D444F"/>
<path d="M4.35059 9.52023C4.35059 9.11946 4.68294 8.78711 5.08371 8.78711H9.38473C9.78552 8.78711 10.1178 9.11946 10.1178 9.52023C10.1178 9.921 9.78552 10.2534 9.38473 10.2534H5.08371C4.68294 10.2534 4.35059 9.93078 4.35059 9.52023Z" fill="#3D444F"/>
<path d="M4.35059 12.8438C4.35059 12.4003 4.91163 12.0325 5.58819 12.0325H12.8488C13.5254 12.0325 14.0864 12.4003 14.0864 12.8438C14.0864 13.2873 13.5254 13.6551 12.8488 13.6551H5.58819C4.91163 13.6551 4.35059 13.2981 4.35059 12.8438Z" fill="#3D444F"/>
<path d="M21.9974 17.5087C21.9974 19.301 20.5444 20.754 18.7521 20.754C16.9598 20.754 15.5068 19.301 15.5068 17.5087C15.5068 15.7164 16.9598 14.2634 18.7521 14.2634C20.5444 14.2634 21.9974 15.7164 21.9974 17.5087Z" fill="white"/>
<path d="M18.7522 21.3626C17.4054 21.3626 16.1398 20.6486 15.4582 19.4884C15.0932 18.9043 14.8984 18.2147 14.8984 17.5088C14.8984 15.3831 16.6266 13.655 18.7522 13.655C20.8779 13.655 22.606 15.3831 22.606 17.5088C22.606 18.2147 22.4113 18.9043 22.0462 19.4965C21.3647 20.6486 20.099 21.3626 18.7522 21.3626ZM18.7522 14.872C17.2999 14.872 16.1154 16.0565 16.1154 17.5088C16.1154 17.9875 16.2452 18.458 16.4967 18.8637C16.9673 19.6588 17.8354 20.1456 18.7522 20.1456C19.669 20.1456 20.5371 19.6588 21.0077 18.8718C21.2592 18.458 21.389 17.9956 21.389 17.5088C21.389 16.0565 20.2045 14.872 18.7522 14.872Z" fill="#3D444F"/>
<path d="M18.2896 18.9207C18.1354 18.9207 17.9813 18.8639 17.8596 18.7422L17.0563 17.939C16.8211 17.7037 16.8211 17.3142 17.0563 17.079C17.2916 16.8437 17.6811 16.8437 17.9163 17.079L18.3058 17.4684L19.6039 16.2676C19.8473 16.0405 20.2367 16.0567 20.4639 16.3001C20.6911 16.5435 20.6748 16.9329 20.4314 17.1601L18.7033 18.7584C18.5816 18.8639 18.4356 18.9207 18.2896 18.9207Z" fill="#3D444F"/>
</svg>
