<svg width="25" height="25" viewBox="0 0 25 25" fill="none" xmlns="http://www.w3.org/2000/svg">
<path d="M12.0997 23.227C11.798 23.2294 11.4989 23.1708 11.2204 23.0548C10.9418 22.9388 10.6896 22.7678 10.4787 22.552L8.99369 21.065C8.8263 20.9281 8.62267 20.843 8.40769 20.82H6.29769C5.99543 20.8208 5.69599 20.7618 5.41658 20.6465C5.13717 20.5312 4.88331 20.3618 4.66958 20.1481C4.45585 19.9344 4.28646 19.6805 4.17115 19.4011C4.05585 19.1217 3.9969 18.8223 3.99769 18.52V16.41C3.97498 16.1948 3.89021 15.9909 3.75369 15.823L2.27369 14.336C2.0598 14.1231 1.89013 13.87 1.77446 13.5913C1.65878 13.3126 1.59939 13.0138 1.59969 12.712C1.59715 12.4099 1.65552 12.1104 1.77132 11.8314C1.88713 11.5523 2.05799 11.2995 2.27369 11.088L3.75869 9.602C3.89521 9.43413 3.97998 9.23018 4.00269 9.015V6.902C4.0019 6.59974 4.06085 6.3003 4.17615 6.02089C4.29146 5.74149 4.46085 5.48762 4.67458 5.27389C4.88831 5.06016 5.14217 4.89077 5.42158 4.77547C5.70099 4.66016 6.00043 4.60121 6.30269 4.602H8.41269C8.62767 4.57899 8.8313 4.49385 8.99869 4.357L10.4837 2.87C10.9218 2.45541 11.502 2.22437 12.1052 2.22437C12.7084 2.22437 13.2886 2.45541 13.7267 2.87L15.2117 4.357C15.3791 4.49385 15.5827 4.57899 15.7977 4.602H17.9077C18.21 4.60121 18.5094 4.66016 18.7888 4.77547C19.0682 4.89077 19.3221 5.06016 19.5358 5.27389C19.7495 5.48762 19.9189 5.74149 20.0342 6.02089C20.1495 6.3003 20.2085 6.59974 20.2077 6.902V9.015C20.2304 9.23018 20.3152 9.43413 20.4517 9.602L21.9367 11.089C22.1506 11.3019 22.3202 11.555 22.4359 11.8337C22.5516 12.1124 22.611 12.4112 22.6107 12.713C22.6132 13.0151 22.5549 13.3146 22.4391 13.5936C22.3232 13.8727 22.1524 14.1255 21.9367 14.337L20.4517 15.824C20.3152 15.9919 20.2304 16.1958 20.2077 16.411V18.524C20.2085 18.8263 20.1495 19.1257 20.0342 19.4051C19.9189 19.6845 19.7495 19.9384 19.5358 20.1521C19.3221 20.3658 19.0682 20.5352 18.7888 20.6505C18.5094 20.7658 18.21 20.8248 17.9077 20.824H15.7977C15.5827 20.847 15.3791 20.9321 15.2117 21.069L13.7267 22.556C13.5148 22.7718 13.2614 22.9425 12.9818 23.0578C12.7022 23.1731 12.4021 23.2307 12.0997 23.227ZM4.79369 14.786C5.20552 15.2292 5.44467 15.8054 5.46769 16.41V18.523C5.46756 18.6321 5.48893 18.7401 5.53058 18.8409C5.57223 18.9417 5.63335 19.0334 5.71044 19.1105C5.78752 19.1877 5.87907 19.249 5.97983 19.2907C6.0806 19.3325 6.18861 19.354 6.29769 19.354H8.40769C9.01149 19.3773 9.5868 19.6169 10.0287 20.029L11.5137 21.516C11.6716 21.6666 11.8815 21.7507 12.0997 21.7507C12.3179 21.7507 12.5278 21.6666 12.6857 21.516L14.1707 20.029C14.6126 19.6169 15.1879 19.3774 15.7917 19.354H17.9017C18.0108 19.354 18.1188 19.3325 18.2195 19.2907C18.3203 19.249 18.4119 19.1877 18.4889 19.1105C18.566 19.0334 18.6271 18.9417 18.6688 18.8409C18.7104 18.7401 18.7318 18.6321 18.7317 18.523V16.41C18.7547 15.8054 18.9939 15.2292 19.4057 14.786L20.8907 13.299C20.9682 13.2221 21.0296 13.1307 21.0716 13.0299C21.1135 12.9292 21.1351 12.8211 21.1351 12.712C21.1351 12.6029 21.1135 12.4948 21.0716 12.3941C21.0296 12.2933 20.9682 12.2019 20.8907 12.125L19.4057 10.639C18.9939 10.1958 18.7547 9.61956 18.7317 9.015V6.902C18.7318 6.79292 18.7104 6.68488 18.6688 6.58407C18.6271 6.48325 18.566 6.39163 18.4889 6.31446C18.4119 6.23728 18.3203 6.17605 18.2195 6.13428C18.1188 6.0925 18.0108 6.071 17.9017 6.071H15.7917C15.1879 6.04762 14.6126 5.80806 14.1707 5.396L12.6857 3.909C12.5278 3.75837 12.3179 3.67433 12.0997 3.67433C11.8815 3.67433 11.6716 3.75837 11.5137 3.909L10.0287 5.396C9.58675 5.80806 9.01147 6.04762 8.40769 6.071H6.29769C6.18861 6.071 6.0806 6.0925 5.97983 6.13428C5.87907 6.17605 5.78752 6.23728 5.71044 6.31446C5.63335 6.39163 5.57223 6.48325 5.53058 6.58407C5.48893 6.68488 5.46756 6.79292 5.46769 6.902V9.015C5.44467 9.61956 5.20552 10.1958 4.79369 10.639L3.30869 12.125C3.23123 12.2019 3.16975 12.2933 3.12779 12.3941C3.08584 12.4948 3.06424 12.6029 3.06424 12.712C3.06424 12.8211 3.08584 12.9292 3.12779 13.0299C3.16975 13.1307 3.23123 13.2221 3.30869 13.299L4.79369 14.786Z" fill="#3D444F"/>
<path d="M15.0237 16.64C14.8255 16.642 14.6312 16.585 14.4654 16.4764C14.2997 16.3677 14.1699 16.2122 14.0927 16.0297C14.0155 15.8471 13.9943 15.6457 14.0317 15.4511C14.0691 15.2565 14.1636 15.0774 14.303 14.9365C14.4425 14.7957 14.6206 14.6994 14.8149 14.66C15.0091 14.6206 15.2107 14.6398 15.394 14.7152C15.5773 14.7906 15.7341 14.9187 15.8444 15.0834C15.9548 15.2481 16.0137 15.4418 16.0137 15.64C16.0145 15.7707 15.9895 15.9003 15.9401 16.0213C15.8908 16.1423 15.8181 16.2524 15.7261 16.3453C15.6341 16.4382 15.5248 16.5121 15.4042 16.5626C15.2837 16.6132 15.1544 16.6395 15.0237 16.64Z" fill="#3D444F"/>
<path d="M9.18569 10.785C8.98749 10.787 8.79318 10.73 8.62742 10.6214C8.46166 10.5127 8.33193 10.3572 8.25471 10.1747C8.17749 9.99212 8.15625 9.79075 8.1937 9.59611C8.23115 9.40148 8.32559 9.22236 8.46504 9.08151C8.60448 8.94065 8.78264 8.84441 8.97689 8.80501C9.17114 8.76561 9.37272 8.78482 9.55603 8.8602C9.73934 8.93559 9.89611 9.06375 10.0064 9.22841C10.1168 9.39306 10.1757 9.5868 10.1757 9.785C10.1765 9.9157 10.1515 10.0453 10.1021 10.1663C10.0528 10.2873 9.98005 10.3974 9.88809 10.4903C9.79614 10.5832 9.68677 10.6571 9.56624 10.7076C9.44571 10.7582 9.31639 10.7845 9.18569 10.785Z" fill="#3D444F"/>
<path d="M9.09969 16.463C9.00116 16.4634 8.90356 16.4441 8.81256 16.4063C8.72156 16.3685 8.639 16.313 8.56969 16.243C8.43045 16.1017 8.35239 15.9114 8.35239 15.713C8.35239 15.5146 8.43045 15.3243 8.56969 15.183L14.5697 9.183C14.6384 9.10931 14.7212 9.05021 14.8132 9.00922C14.9052 8.96823 15.0045 8.94619 15.1052 8.94441C15.2059 8.94263 15.3059 8.96116 15.3993 8.99888C15.4927 9.0366 15.5775 9.09274 15.6487 9.16396C15.7199 9.23518 15.7761 9.32002 15.8138 9.4134C15.8515 9.50679 15.8701 9.60682 15.8683 9.70752C15.8665 9.80823 15.8445 9.90754 15.8035 9.99954C15.7625 10.0915 15.7034 10.1743 15.6297 10.243L9.62969 16.243C9.56038 16.313 9.47781 16.3685 9.38682 16.4063C9.29582 16.4441 9.19821 16.4634 9.09969 16.463Z" fill="#3D444F"/>
</svg>
