<svg width="24" height="25" viewBox="0 0 24 25" fill="none" xmlns="http://www.w3.org/2000/svg">
<path d="M11.9942 23.2316C11.6925 23.234 11.3934 23.1754 11.1149 23.0594C10.8364 22.9434 10.5841 22.7724 10.3732 22.5566L8.88822 21.0696C8.72083 20.9328 8.5172 20.8477 8.30222 20.8246H6.19222C5.88996 20.8254 5.59052 20.7665 5.31111 20.6512C5.03171 20.5359 4.77784 20.3665 4.56411 20.1528C4.35038 19.939 4.18099 19.6852 4.06569 19.4057C3.95038 19.1263 3.89143 18.8269 3.89222 18.5246V16.4146C3.86951 16.1995 3.78474 15.9955 3.64822 15.8276L2.16822 14.3406C1.95433 14.1278 1.78466 13.8747 1.66899 13.596C1.55331 13.3173 1.49392 13.0184 1.49422 12.7166C1.49168 12.4145 1.55005 12.115 1.66586 11.836C1.78166 11.557 1.95252 11.3042 2.16822 11.0926L3.65322 9.60664C3.78974 9.43876 3.87451 9.23482 3.89722 9.01964V6.90664C3.89643 6.60438 3.95538 6.30494 4.07068 6.02553C4.18599 5.74613 4.35538 5.49226 4.56911 5.27853C4.78284 5.0648 5.03671 4.89541 5.31611 4.7801C5.59552 4.6648 5.89496 4.60585 6.19722 4.60664H8.30722C8.5222 4.58362 8.72583 4.49849 8.89322 4.36164L10.3782 2.87464C10.8163 2.46004 11.3966 2.229 11.9997 2.229C12.6029 2.229 13.1831 2.46004 13.6212 2.87464L15.1062 4.36164C15.2736 4.49849 15.4772 4.58362 15.6922 4.60664H17.8022C18.1045 4.60585 18.4039 4.6648 18.6833 4.7801C18.9627 4.89541 19.2166 5.0648 19.4303 5.27853C19.6441 5.49226 19.8135 5.74613 19.9288 6.02553C20.0441 6.30494 20.103 6.60438 20.1022 6.90664V9.01964C20.1249 9.23482 20.2097 9.43876 20.3462 9.60664L21.8312 11.0936C22.0451 11.3065 22.2148 11.5596 22.3305 11.8383C22.4461 12.117 22.5055 12.4159 22.5052 12.7176C22.5078 13.0197 22.4494 13.3192 22.3336 13.5983C22.2178 13.8773 22.0469 14.1301 21.8312 14.3416L20.3462 15.8286C20.2097 15.9965 20.1249 16.2005 20.1022 16.4156V18.5286C20.103 18.8309 20.0441 19.1303 19.9288 19.4097C19.8135 19.6892 19.6441 19.943 19.4303 20.1567C19.2166 20.3705 18.9627 20.5399 18.6833 20.6552C18.4039 20.7705 18.1045 20.8294 17.8022 20.8286H15.6922C15.4772 20.8517 15.2736 20.9368 15.1062 21.0736L13.6212 22.5606C13.4093 22.7764 13.1559 22.9471 12.8763 23.0625C12.5967 23.1778 12.2967 23.2353 11.9942 23.2316ZM4.68822 14.7906C5.10005 15.2338 5.3392 15.8101 5.36222 16.4146V18.5276C5.36209 18.6367 5.38346 18.7448 5.42511 18.8456C5.46677 18.9464 5.52788 19.038 5.60497 19.1152C5.68205 19.1924 5.7736 19.2536 5.87436 19.2954C5.97513 19.3371 6.08314 19.3586 6.19222 19.3586H8.30222C8.90602 19.3819 9.48134 19.6215 9.92322 20.0336L11.4082 21.5206C11.5661 21.6713 11.776 21.7553 11.9942 21.7553C12.2125 21.7553 12.4223 21.6713 12.5802 21.5206L14.0652 20.0336C14.5072 19.6216 15.0824 19.382 15.6862 19.3586H17.7962C17.9053 19.3586 18.0133 19.3371 18.1141 19.2954C18.2148 19.2536 18.3064 19.1924 18.3835 19.1152C18.4606 19.038 18.5217 18.9464 18.5633 18.8456C18.605 18.7448 18.6264 18.6367 18.6262 18.5276V16.4146C18.6492 15.8101 18.8884 15.2338 19.3002 14.7906L20.7852 13.3036C20.8627 13.2268 20.9242 13.1353 20.9661 13.0346C21.0081 12.9338 21.0297 12.8258 21.0297 12.7166C21.0297 12.6075 21.0081 12.4995 20.9661 12.3987C20.9242 12.298 20.8627 12.2065 20.7852 12.1296L19.3002 10.6436C18.8884 10.2004 18.6492 9.6242 18.6262 9.01964V6.90664C18.6264 6.79756 18.605 6.68952 18.5633 6.58871C18.5217 6.48789 18.4606 6.39627 18.3835 6.31909C18.3064 6.24192 18.2148 6.18069 18.1141 6.13891C18.0133 6.09714 17.9053 6.07564 17.7962 6.07564H15.6862C15.0824 6.05225 14.5072 5.8127 14.0652 5.40064L12.5802 3.91364C12.4223 3.76301 12.2125 3.67897 11.9942 3.67897C11.776 3.67897 11.5661 3.76301 11.4082 3.91364L9.92322 5.40064C9.48129 5.8127 8.906 6.05225 8.30222 6.07564H6.19222C6.08314 6.07564 5.97513 6.09714 5.87436 6.13891C5.7736 6.18069 5.68205 6.24192 5.60497 6.31909C5.52788 6.39627 5.46677 6.48789 5.42511 6.58871C5.38346 6.68952 5.36209 6.79756 5.36222 6.90664V9.01964C5.3392 9.6242 5.10005 10.2004 4.68822 10.6436L3.20322 12.1296C3.12576 12.2065 3.06428 12.298 3.02232 12.3987C2.98037 12.4995 2.95877 12.6075 2.95877 12.7166C2.95877 12.8258 2.98037 12.9338 3.02232 13.0346C3.06428 13.1353 3.12576 13.2268 3.20322 13.3036L4.68822 14.7906Z" fill="#3D444F"/>
<path d="M14.9182 16.6447C14.72 16.6467 14.5257 16.5897 14.3599 16.4811C14.1942 16.3724 14.0644 16.2169 13.9872 16.0344C13.91 15.8518 13.8888 15.6505 13.9262 15.4558C13.9637 15.2612 14.0581 15.0821 14.1976 14.9412C14.337 14.8004 14.5152 14.7041 14.7094 14.6647C14.9037 14.6253 15.1052 14.6445 15.2885 14.7199C15.4719 14.7953 15.6286 14.9235 15.739 15.0881C15.8493 15.2528 15.9082 15.4465 15.9082 15.6447C15.909 15.7754 15.884 15.905 15.8346 16.026C15.7853 16.1471 15.7126 16.2572 15.6206 16.3501C15.5287 16.4429 15.4193 16.5168 15.2988 16.5673C15.1782 16.6179 15.0489 16.6442 14.9182 16.6447Z" fill="#3D444F"/>
<path d="M9.08031 10.7897C8.88212 10.7917 8.6878 10.7348 8.52204 10.6261C8.35629 10.5174 8.22656 10.362 8.14933 10.1794C8.07211 9.99687 8.05088 9.79549 8.08832 9.60086C8.12577 9.40622 8.22022 9.22711 8.35966 9.08625C8.49911 8.9454 8.67727 8.84916 8.87152 8.80975C9.06576 8.77035 9.26734 8.78956 9.45065 8.86495C9.63396 8.94033 9.79073 9.06849 9.90106 9.23315C10.0114 9.39781 10.0703 9.59154 10.0703 9.78975C10.0711 9.92045 10.0461 10.05 9.99676 10.1711C9.94741 10.2921 9.87467 10.4022 9.78272 10.4951C9.69076 10.588 9.58139 10.6618 9.46086 10.7124C9.34033 10.7629 9.21102 10.7892 9.08031 10.7897Z" fill="#3D444F"/>
<path d="M8.99437 16.4677C8.89584 16.468 8.79823 16.4488 8.70724 16.411C8.61624 16.3732 8.53368 16.3177 8.46437 16.2477C8.32513 16.1064 8.24707 15.916 8.24707 15.7177C8.24707 15.5193 8.32513 15.3289 8.46437 15.1877L14.4644 9.18768C14.533 9.114 14.6158 9.05489 14.7078 9.0139C14.7998 8.97291 14.8991 8.95087 14.9998 8.94909C15.1005 8.94731 15.2006 8.96584 15.294 9.00356C15.3874 9.04128 15.4722 9.09743 15.5434 9.16865C15.6146 9.23986 15.6708 9.3247 15.7085 9.41809C15.7462 9.51147 15.7647 9.6115 15.763 9.71221C15.7612 9.81291 15.7391 9.91222 15.6981 10.0042C15.6572 10.0962 15.5981 10.179 15.5244 10.2477L9.52437 16.2477C9.45505 16.3177 9.37249 16.3732 9.2815 16.411C9.1905 16.4488 9.09289 16.468 8.99437 16.4677Z" fill="#3D444F"/>
</svg>
