<svg width="24" height="25" viewBox="0 0 24 25" fill="none" xmlns="http://www.w3.org/2000/svg">
<path d="M11.9995 23.231C11.6538 23.2232 11.3148 23.1346 11.0095 22.9723C10.7042 22.8099 10.4412 22.5783 10.2415 22.296L8.77651 20.348C8.72049 20.2938 8.64871 20.2587 8.57151 20.248H8.09251C4.01951 20.248 1.49951 19.148 1.49951 13.673V8.80597C1.49951 4.50097 3.77551 2.23097 8.09251 2.23097H13.9495C14.0477 2.22733 14.1456 2.24354 14.2374 2.27861C14.3292 2.31369 14.413 2.36691 14.4838 2.4351C14.5546 2.50329 14.6108 2.58505 14.6493 2.67549C14.6877 2.76593 14.7075 2.8632 14.7075 2.96147C14.7075 3.05974 14.6877 3.157 14.6493 3.24744C14.6108 3.33788 14.5546 3.41964 14.4838 3.48783C14.413 3.55603 14.3292 3.60925 14.2374 3.64432C14.1456 3.6794 14.0477 3.6956 13.9495 3.69197H8.09251C4.59251 3.69197 2.96451 5.31897 2.96451 8.80597V13.676C2.96451 18.076 4.47851 18.79 8.09251 18.79H8.58051C8.84426 18.7983 9.1031 18.8635 9.33937 18.981C9.57563 19.0985 9.78375 19.2657 9.94951 19.471L11.4145 21.419C11.4744 21.5212 11.56 21.6061 11.6628 21.665C11.7656 21.724 11.882 21.755 12.0005 21.755C12.119 21.755 12.2355 21.724 12.3383 21.665C12.4411 21.6061 12.5266 21.5212 12.5865 21.419L14.0495 19.471C14.2091 19.2593 14.4156 19.0875 14.6528 18.9691C14.89 18.8508 15.1514 18.7891 15.4165 18.789H15.9045C19.4045 18.789 21.0325 17.162 21.0325 13.675V10.754C21.0395 10.5644 21.1198 10.3849 21.2564 10.2532C21.393 10.1216 21.5753 10.048 21.765 10.048C21.9547 10.048 22.1371 10.1216 22.2737 10.2532C22.4103 10.3849 22.4905 10.5644 22.4975 10.754V13.676C22.4975 17.981 20.2215 20.251 15.9045 20.251H15.4165C15.3778 20.2513 15.3396 20.2605 15.305 20.2779C15.2703 20.2952 15.2401 20.3202 15.2165 20.351L13.7515 22.299C13.5521 22.5799 13.2899 22.8105 12.9858 22.9723C12.6816 23.1341 12.3439 23.2226 11.9995 23.231Z" fill="#3D444F"/>
<path d="M11.9993 12.7019C11.8068 12.7013 11.6188 12.6437 11.459 12.5363C11.2992 12.4289 11.1749 12.2766 11.1016 12.0986C11.0283 11.9205 11.0095 11.7248 11.0474 11.5361C11.0853 11.3473 11.1783 11.174 11.3147 11.0381C11.451 10.9022 11.6245 10.8097 11.8134 10.7724C12.0023 10.7351 12.1979 10.7545 12.3757 10.8283C12.5535 10.9021 12.7055 11.027 12.8124 11.1871C12.9193 11.3472 12.9763 11.5354 12.9763 11.7279C12.9766 11.8561 12.9515 11.9832 12.9024 12.1016C12.8534 12.2201 12.7814 12.3277 12.6906 12.4183C12.5998 12.5088 12.4919 12.5805 12.3733 12.6292C12.2547 12.6778 12.1276 12.7026 11.9993 12.7019Z" fill="#3D444F"/>
<path d="M15.9065 12.7019C15.714 12.7013 15.526 12.6437 15.3662 12.5363C15.2065 12.4289 15.0821 12.2766 15.0088 12.0986C14.9356 11.9205 14.9167 11.7248 14.9546 11.5361C14.9925 11.3473 15.0855 11.174 15.2219 11.0381C15.3582 10.9022 15.5318 10.8097 15.7206 10.7724C15.9095 10.7351 16.1052 10.7545 16.283 10.8283C16.4608 10.9021 16.6127 11.027 16.7196 11.1871C16.8265 11.3472 16.8835 11.5354 16.8835 11.7279C16.8838 11.8561 16.8587 11.9832 16.8097 12.1016C16.7606 12.2201 16.6886 12.3277 16.5978 12.4183C16.507 12.5088 16.3992 12.5805 16.2805 12.6292C16.1619 12.6778 16.0348 12.7026 15.9065 12.7019Z" fill="#3D444F"/>
<path d="M8.09258 12.7019C7.90007 12.7013 7.71206 12.6437 7.55228 12.5363C7.3925 12.4289 7.26813 12.2766 7.19487 12.0986C7.12161 11.9205 7.10274 11.7248 7.14066 11.5361C7.17858 11.3473 7.27159 11.174 7.40792 11.0381C7.54426 10.9022 7.71781 10.8097 7.90667 10.7724C8.09552 10.7351 8.2912 10.7545 8.46901 10.8283C8.64681 10.9021 8.79875 11.027 8.90564 11.1871C9.01253 11.3472 9.06958 11.5354 9.06958 11.7279C9.06985 11.8561 9.04474 11.9832 8.99569 12.1016C8.94665 12.2201 8.87465 12.3277 8.78383 12.4183C8.69302 12.5088 8.58519 12.5805 8.46655 12.6292C8.34791 12.6778 8.22082 12.7026 8.09258 12.7019Z" fill="#3D444F"/>
<path d="M19.3245 8.56197C18.6987 8.55999 18.0875 8.3726 17.5682 8.02347C17.0488 7.67435 16.6446 7.17914 16.4065 6.6004C16.1684 6.02166 16.1072 5.38535 16.2306 4.77184C16.354 4.15832 16.6564 3.59513 17.0996 3.1534C17.5429 2.71167 18.1071 2.41121 18.7211 2.28997C19.335 2.16873 19.9711 2.23215 20.549 2.47222C21.1269 2.71229 21.6207 3.11824 21.9681 3.6388C22.3154 4.15936 22.5007 4.77117 22.5005 5.39697C22.4975 6.23739 22.1617 7.04239 21.5663 7.63563C20.971 8.22887 20.1649 8.56197 19.3245 8.56197ZM19.3245 3.69197C18.9886 3.69374 18.6608 3.79496 18.3825 3.98283C18.1041 4.17071 17.8876 4.43683 17.7603 4.74762C17.633 5.0584 17.6006 5.39993 17.6672 5.7291C17.7338 6.05827 17.8965 6.36034 18.1346 6.59719C18.3727 6.83404 18.6756 6.99506 19.0051 7.05993C19.3346 7.1248 19.676 7.09061 19.9861 6.96168C20.2962 6.83275 20.5612 6.61486 20.7476 6.33549C20.934 6.05613 21.0335 5.72781 21.0335 5.39197C21.0295 4.94076 20.8479 4.50929 20.528 4.19107C20.2081 3.87285 19.7757 3.69353 19.3245 3.69197Z" fill="#3D444F"/>
</svg>
