<svg width="24" height="25" viewBox="0 0 24 25" fill="none" xmlns="http://www.w3.org/2000/svg">
<path d="M3 7.69995C2.71667 7.69995 2.47917 7.60412 2.2875 7.41245C2.09583 7.22078 2 6.98328 2 6.69995V3.69995C2 3.41662 2.09583 3.17912 2.2875 2.98745C2.47917 2.79578 2.71667 2.69995 3 2.69995H6C6.28333 2.69995 6.52083 2.79578 6.7125 2.98745C6.90417 3.17912 7 3.41662 7 3.69995C7 3.98328 6.90417 4.22078 6.7125 4.41245C6.52083 4.60412 6.28333 4.69995 6 4.69995H4V6.69995C4 6.98328 3.90417 7.22078 3.7125 7.41245C3.52083 7.60412 3.28333 7.69995 3 7.69995ZM3 22.7C2.71667 22.7 2.47917 22.6041 2.2875 22.4125C2.09583 22.2208 2 21.9833 2 21.7V18.7C2 18.4166 2.09583 18.1791 2.2875 17.9875C2.47917 17.7958 2.71667 17.7 3 17.7C3.28333 17.7 3.52083 17.7958 3.7125 17.9875C3.90417 18.1791 4 18.4166 4 18.7V20.7H6C6.28333 20.7 6.52083 20.7958 6.7125 20.9875C6.90417 21.1791 7 21.4166 7 21.7C7 21.9833 6.90417 22.2208 6.7125 22.4125C6.52083 22.6041 6.28333 22.7 6 22.7H3ZM18 22.7C17.7167 22.7 17.4792 22.6041 17.2875 22.4125C17.0958 22.2208 17 21.9833 17 21.7C17 21.4166 17.0958 21.1791 17.2875 20.9875C17.4792 20.7958 17.7167 20.7 18 20.7H20V18.7C20 18.4166 20.0958 18.1791 20.2875 17.9875C20.4792 17.7958 20.7167 17.7 21 17.7C21.2833 17.7 21.5208 17.7958 21.7125 17.9875C21.9042 18.1791 22 18.4166 22 18.7V21.7C22 21.9833 21.9042 22.2208 21.7125 22.4125C21.5208 22.6041 21.2833 22.7 21 22.7H18ZM21 7.69995C20.7167 7.69995 20.4792 7.60412 20.2875 7.41245C20.0958 7.22078 20 6.98328 20 6.69995V4.69995H18C17.7167 4.69995 17.4792 4.60412 17.2875 4.41245C17.0958 4.22078 17 3.98328 17 3.69995C17 3.41662 17.0958 3.17912 17.2875 2.98745C17.4792 2.79578 17.7167 2.69995 18 2.69995H21C21.2833 2.69995 21.5208 2.79578 21.7125 2.98745C21.9042 3.17912 22 3.41662 22 3.69995V6.69995C22 6.98328 21.9042 7.22078 21.7125 7.41245C21.5208 7.60412 21.2833 7.69995 21 7.69995ZM17.5 19.7V18.2H19V19.7H17.5ZM17.5 16.7V15.2H19V16.7H17.5ZM16 18.2V16.7H17.5V18.2H16ZM14.5 19.7V18.2H16V19.7H14.5ZM13 18.2V16.7H14.5V18.2H13ZM16 15.2V13.7H17.5V15.2H16ZM14.5 16.7V15.2H16V16.7H14.5ZM13 15.2V13.7H14.5V15.2H13ZM14 11.7C13.7167 11.7 13.4792 11.6041 13.2875 11.4125C13.0958 11.2208 13 10.9833 13 10.7V6.69995C13 6.41662 13.0958 6.17912 13.2875 5.98745C13.4792 5.79578 13.7167 5.69995 14 5.69995H18C18.2833 5.69995 18.5208 5.79578 18.7125 5.98745C18.9042 6.17912 19 6.41662 19 6.69995V10.7C19 10.9833 18.9042 11.2208 18.7125 11.4125C18.5208 11.6041 18.2833 11.7 18 11.7H14ZM6 19.7C5.71667 19.7 5.47917 19.6041 5.2875 19.4125C5.09583 19.2208 5 18.9833 5 18.7V14.7C5 14.4166 5.09583 14.1791 5.2875 13.9875C5.47917 13.7958 5.71667 13.7 6 13.7H10C10.2833 13.7 10.5208 13.7958 10.7125 13.9875C10.9042 14.1791 11 14.4166 11 14.7V18.7C11 18.9833 10.9042 19.2208 10.7125 19.4125C10.5208 19.6041 10.2833 19.7 10 19.7H6ZM6 11.7C5.71667 11.7 5.47917 11.6041 5.2875 11.4125C5.09583 11.2208 5 10.9833 5 10.7V6.69995C5 6.41662 5.09583 6.17912 5.2875 5.98745C5.47917 5.79578 5.71667 5.69995 6 5.69995H10C10.2833 5.69995 10.5208 5.79578 10.7125 5.98745C10.9042 6.17912 11 6.41662 11 6.69995V10.7C11 10.9833 10.9042 11.2208 10.7125 11.4125C10.5208 11.6041 10.2833 11.7 10 11.7H6ZM6.5 18.2H9.5V15.2H6.5V18.2ZM6.5 10.2H9.5V7.19995H6.5V10.2ZM14.5 10.2H17.5V7.19995H14.5V10.2Z" fill="#3D444F"/>
</svg>
