<svg width="24" height="24" viewBox="0 0 24 24" fill="none" xmlns="http://www.w3.org/2000/svg">
<path d="M12.0098 18.5415C12.5136 18.593 12.907 19.0192 12.9072 19.5366C12.9072 20.0541 12.5137 20.4802 12.0098 20.5317L11.9072 20.5366H11.8877C11.3354 20.5366 10.8877 20.0889 10.8877 19.5366C10.8879 18.9845 11.3355 18.5366 11.8877 18.5366H11.9072L12.0098 18.5415ZM12.5117 3.76904C15.2248 3.76913 17.7114 5.64255 17.7119 8.31006C17.7119 10.3254 16.1776 11.3508 15.1357 11.9507L15.1348 11.9497C14.0688 12.5708 13.5119 13.0826 13.5117 13.9214V14.3687C13.5117 14.9209 13.0639 15.3685 12.5117 15.3687C11.9595 15.3685 11.5117 14.9209 11.5117 14.3687V13.9214C11.5119 11.8606 13.0777 10.8341 14.1338 10.2192L14.1377 10.2173C15.1706 9.62254 15.7119 9.11069 15.7119 8.31006C15.7114 7.05301 14.4533 5.76913 12.5117 5.76904C10.5702 5.76913 9.31204 7.05301 9.31152 8.31006C9.31152 8.86234 8.86381 9.31006 8.31152 9.31006C7.75933 9.30995 7.31152 8.86228 7.31152 8.31006C7.31201 5.64255 9.79864 3.76913 12.5117 3.76904Z" fill="#3D444F"/>
</svg>
