<svg width="24" height="25" viewBox="0 0 24 25" fill="none" xmlns="http://www.w3.org/2000/svg">
<path d="M5.6643 20.0488C5.08585 20.0598 4.52526 19.8483 4.0983 19.4578C3.83819 19.1999 3.6421 18.8847 3.52575 18.5374C3.4094 18.1901 3.37603 17.8204 3.4283 17.4578L3.7923 14.2668C3.89429 13.586 4.19204 12.9495 4.6493 12.4348L12.7343 3.87682C14.7593 1.74182 16.8593 1.68182 18.9993 3.70382C21.1393 5.72582 21.1993 7.82982 19.1763 9.96682L11.0913 18.5248C10.6021 19.0093 9.98265 19.3411 9.3083 19.4798L6.1373 20.0218C5.9703 20.0298 5.8223 20.0488 5.6643 20.0488ZM15.8973 3.69182C15.4869 3.73491 15.0897 3.862 14.7305 4.06517C14.3713 4.26835 14.0577 4.54327 13.8093 4.87282L5.7233 13.4408C5.49151 13.7268 5.33263 14.0649 5.2603 14.4258L4.8963 17.6168C4.86991 17.7513 4.87581 17.8902 4.91354 18.022C4.95126 18.1537 5.01973 18.2747 5.1133 18.3748C5.21902 18.4615 5.34334 18.5226 5.47657 18.5533C5.60979 18.584 5.74831 18.5835 5.8813 18.5518L9.0523 18.0098C9.40835 17.9214 9.73664 17.7454 10.0073 17.4978L18.0923 8.93982C19.3133 7.63982 19.7563 6.43982 17.9743 4.76382C17.4474 4.15036 16.7026 3.76592 15.8973 3.69182Z" fill="#3D444F"/>
<path d="M17.2852 11.6088H17.2162C15.7237 11.4625 14.3223 10.8237 13.2329 9.79317C12.1435 8.76261 11.428 7.39883 11.1992 5.91677C11.1843 5.82044 11.1885 5.72213 11.2116 5.62743C11.2347 5.53273 11.2762 5.44351 11.3337 5.36486C11.3913 5.28621 11.4638 5.21967 11.5471 5.16904C11.6304 5.1184 11.7228 5.08467 11.8192 5.06977C12.0137 5.03967 12.2122 5.08808 12.3711 5.20435C12.5299 5.32062 12.6361 5.49523 12.6662 5.68977C12.8466 6.84838 13.4068 7.91422 14.2588 8.71986C15.1108 9.52551 16.2063 10.0253 17.3732 10.1408C17.5677 10.1607 17.7464 10.257 17.8701 10.4084C17.9938 10.5599 18.0524 10.7542 18.0332 10.9488C18.0086 11.1303 17.9195 11.297 17.7822 11.4182C17.6448 11.5394 17.4684 11.607 17.2852 11.6088Z" fill="#3D444F"/>
<path d="M20.8896 23.2299H3.16364C3.06437 23.2336 2.96539 23.2172 2.8726 23.1817C2.77981 23.1463 2.69513 23.0925 2.62361 23.0235C2.55209 22.9546 2.4952 22.8719 2.45634 22.7805C2.41749 22.6891 2.39746 22.5908 2.39746 22.4914C2.39746 22.3921 2.41749 22.2938 2.45634 22.2024C2.4952 22.111 2.55209 22.0283 2.62361 21.9594C2.69513 21.8904 2.77981 21.8366 2.8726 21.8012C2.96539 21.7657 3.06437 21.7493 3.16364 21.7529H20.8896C21.0808 21.76 21.2618 21.8409 21.3945 21.9786C21.5273 22.1163 21.6015 22.3002 21.6015 22.4914C21.6015 22.6827 21.5273 22.8666 21.3945 23.0043C21.2618 23.142 21.0808 23.2229 20.8896 23.2299Z" fill="#3D444F"/>
</svg>
