<svg width="24" height="25" viewBox="0 0 24 25" fill="none" xmlns="http://www.w3.org/2000/svg">
<path d="M13.749 10.0802H2.24895C2.05084 10.0802 1.86083 10.0015 1.72074 9.86139C1.58065 9.7213 1.50195 9.5313 1.50195 9.33318C1.50195 9.13506 1.58065 8.94506 1.72074 8.80497C1.86083 8.66488 2.05084 8.58618 2.24895 8.58618H13.749C13.9471 8.58618 14.1371 8.66488 14.2772 8.80497C14.4173 8.94506 14.496 9.13506 14.496 9.33318C14.496 9.5313 14.4173 9.7213 14.2772 9.86139C14.1371 10.0015 13.9471 10.0802 13.749 10.0802Z" fill="#3D444F"/>
<path d="M8.13763 17.847H6.13763C5.93951 17.847 5.74951 17.7683 5.60942 17.6282C5.46933 17.4881 5.39063 17.2981 5.39062 17.1C5.39062 16.9019 5.46933 16.7119 5.60942 16.5718C5.74951 16.4317 5.93951 16.353 6.13763 16.353H8.13763C8.33574 16.353 8.52574 16.4317 8.66583 16.5718C8.80592 16.7119 8.88462 16.9019 8.88462 17.1C8.88462 17.2981 8.80592 17.4881 8.66583 17.6282C8.52574 17.7683 8.33574 17.847 8.13763 17.847Z" fill="#3D444F"/>
<path d="M14.4853 17.847H10.4853C10.2872 17.847 10.0972 17.7683 9.95707 17.6282C9.81698 17.4881 9.73828 17.2981 9.73828 17.1C9.73828 16.9019 9.81698 16.7119 9.95707 16.5718C10.0972 16.4317 10.2872 16.353 10.4853 16.353H14.4853C14.6834 16.353 14.8734 16.4317 15.0135 16.5718C15.1536 16.7119 15.2323 16.9019 15.2323 17.1C15.2323 17.2981 15.1536 17.4881 15.0135 17.6282C14.8734 17.7683 14.6834 17.847 14.4853 17.847Z" fill="#3D444F"/>
<path d="M17.431 21.7312H6.56902C2.68102 21.7312 1.49902 20.5632 1.49902 16.7312V8.73121C1.49902 4.89721 2.68102 3.73121 6.56902 3.73121H13.469C13.5671 3.72758 13.6649 3.74376 13.7566 3.77879C13.8482 3.81381 13.9319 3.86696 14.0026 3.93506C14.0733 4.00316 14.1295 4.08481 14.1679 4.17513C14.2062 4.26544 14.226 4.36257 14.226 4.46071C14.226 4.55885 14.2062 4.65598 14.1679 4.7463C14.1295 4.83662 14.0733 4.91827 14.0026 4.98637C13.9319 5.05446 13.8482 5.10761 13.7566 5.14264C13.6649 5.17766 13.5671 5.19384 13.469 5.19021H6.56902C3.50202 5.19021 2.96902 5.71521 2.96902 8.73221V16.7202C2.96902 19.7362 3.50602 20.2622 6.56902 20.2622H17.422C20.489 20.2622 21.022 19.7372 21.022 16.7202V11.7812C21.029 11.5916 21.1093 11.4121 21.2459 11.2805C21.3825 11.1488 21.5648 11.0753 21.7545 11.0753C21.9442 11.0753 22.1266 11.1488 22.2632 11.2805C22.3998 11.4121 22.48 11.5916 22.487 11.7812V16.7242C22.501 20.5632 21.319 21.7312 17.431 21.7312Z" fill="#3D444F"/>
<path d="M17.752 9.2091C17.6536 9.20953 17.556 9.19039 17.465 9.15279C17.3741 9.1152 17.2915 9.0599 17.222 8.9901L15.722 7.4961C15.582 7.35554 15.5035 7.1651 15.5039 6.96669C15.5043 6.76827 15.5835 6.57813 15.724 6.4381C15.8646 6.29807 16.055 6.21961 16.2534 6.21998C16.4519 6.22036 16.642 6.29954 16.782 6.4401L17.752 7.4061L21.222 3.9501C21.3621 3.80954 21.5522 3.73036 21.7506 3.72998C21.949 3.72961 22.1395 3.80807 22.28 3.9481C22.4206 4.08814 22.4998 4.27827 22.5001 4.47669C22.5005 4.6751 22.4221 4.86554 22.282 5.0061L18.282 8.9901C18.2126 9.0599 18.13 9.1152 18.039 9.15279C17.948 9.19039 17.8505 9.20953 17.752 9.2091Z" fill="#3D444F"/>
</svg>
