<svg width="25" height="25" viewBox="0 0 25 25" fill="none" xmlns="http://www.w3.org/2000/svg">
<g clip-path="url(#clip0_9489_7288)">
<path d="M12.4147 23.4805C11.6659 23.4805 10.9363 23.0805 10.4371 22.3805L9.46747 21.0305C9.26587 20.7505 8.99707 20.5905 8.70907 20.5705C8.42107 20.5605 8.13307 20.6905 7.90267 20.9405L7.35547 20.4305L7.88347 20.9405C6.50107 22.4805 5.43547 22.3605 4.92667 22.1505C4.40827 21.9405 3.53467 21.2505 3.53467 19.0305V7.77047C3.53467 3.33047 4.76347 1.98047 8.78587 1.98047H16.0435C20.0659 1.98047 21.2947 3.33047 21.2947 7.77047V19.0305C21.2947 21.2405 20.4211 21.9305 19.9027 22.1505C19.3939 22.3605 18.3379 22.4805 16.9459 20.9405C16.7155 20.6805 16.4371 20.5405 16.1299 20.5705C15.8419 20.5905 15.5635 20.7505 15.3619 21.0305L14.3923 22.3805C13.8931 23.0805 13.1635 23.4805 12.4147 23.4805ZM8.65147 19.0605C8.68987 19.0605 8.73787 19.0605 8.77627 19.0605C9.48667 19.1005 10.1587 19.4905 10.6099 20.1205L11.5795 21.4705C12.0499 22.1205 12.7699 22.1205 13.2403 21.4705L14.2099 20.1205C14.6707 19.4905 15.3331 19.1005 16.0531 19.0605C16.7635 19.0205 17.4739 19.3305 17.9923 19.9105C18.7219 20.7205 19.2019 20.8205 19.3651 20.7505C19.5955 20.6505 19.8451 20.0705 19.8451 19.0305V7.77047C19.8451 4.16047 19.2403 3.48047 16.0339 3.48047H8.78587C5.57947 3.48047 4.97467 4.16047 4.97467 7.77047V19.0305C4.97467 20.0805 5.22427 20.6605 5.45467 20.7505C5.61787 20.8205 6.09787 20.7205 6.82747 19.9105C7.34587 19.3605 7.98907 19.0605 8.65147 19.0605Z" fill="#3D444F"/>
<path d="M16.2545 8.48047H8.57449C8.18089 8.48047 7.85449 8.14047 7.85449 7.73047C7.85449 7.32047 8.18089 6.98047 8.57449 6.98047H16.2545C16.6481 6.98047 16.9745 7.32047 16.9745 7.73047C16.9745 8.14047 16.6481 8.48047 16.2545 8.48047Z" fill="#3D444F"/>
<path d="M15.2945 12.4805H9.53445C9.14085 12.4805 8.81445 12.1405 8.81445 11.7305C8.81445 11.3205 9.14085 10.9805 9.53445 10.9805H15.2945C15.6881 10.9805 16.0145 11.3205 16.0145 11.7305C16.0145 12.1405 15.6881 12.4805 15.2945 12.4805Z" fill="#3D444F"/>
<path d="M24.8945 18.7305C24.8945 22.0442 22.3157 24.7305 19.1345 24.7305C15.9534 24.7305 13.3745 22.0442 13.3745 18.7305C13.3745 15.4168 15.9534 12.7305 19.1345 12.7305C22.3157 12.7305 24.8945 15.4168 24.8945 18.7305Z" fill="white"/>
<path d="M19.1344 14.7305C17.0148 14.7305 15.2944 16.5225 15.2944 18.7305C15.2944 20.9385 17.0148 22.7305 19.1344 22.7305H21.0544V21.9305H19.1344C17.4679 21.9305 16.0624 20.4665 16.0624 18.7305C16.0624 16.9945 17.4679 15.5305 19.1344 15.5305C20.801 15.5305 22.2064 16.9945 22.2064 18.7305V19.3025C22.2064 19.6185 21.9338 19.9305 21.6304 19.9305C21.3271 19.9305 21.0544 19.6185 21.0544 19.3025V18.7305C21.0544 17.6265 20.1943 16.7305 19.1344 16.7305C18.0746 16.7305 17.2144 17.6265 17.2144 18.7305C17.2144 19.8345 18.0746 20.7305 19.1344 20.7305C19.6644 20.7305 20.1482 20.5065 20.4938 20.1425C20.7434 20.4985 21.1735 20.7305 21.6304 20.7305C22.3869 20.7305 22.9744 20.0905 22.9744 19.3025V18.7305C22.9744 16.5225 21.2541 14.7305 19.1344 14.7305ZM19.1344 19.9305C18.497 19.9305 17.9824 19.3945 17.9824 18.7305C17.9824 18.0665 18.497 17.5305 19.1344 17.5305C19.7719 17.5305 20.2864 18.0665 20.2864 18.7305C20.2864 19.3945 19.7719 19.9305 19.1344 19.9305Z" fill="#3D444F"/>
<path fill-rule="evenodd" clip-rule="evenodd" d="M15.1504 18.7306C15.1504 16.4398 16.9352 14.5806 19.1344 14.5806C21.3336 14.5806 23.1184 16.4398 23.1184 18.7306V19.3026C23.1184 20.1695 22.4701 20.8806 21.6304 20.8806C21.1858 20.8806 20.7635 20.6813 20.4801 20.3611C20.1195 20.6856 19.6467 20.8806 19.1344 20.8806C17.9951 20.8806 17.0704 19.9174 17.0704 18.7306C17.0704 17.5438 17.9951 16.5806 19.1344 16.5806C20.2737 16.5806 21.1984 17.5438 21.1984 18.7306V19.3026C21.1984 19.4167 21.2486 19.5382 21.3336 19.6323C21.4184 19.7264 21.5265 19.7806 21.6304 19.7806C21.7343 19.7806 21.8424 19.7264 21.9272 19.6323C22.0122 19.5382 22.0624 19.4167 22.0624 19.3026V18.7306C22.0624 17.0774 20.7215 15.6806 19.1344 15.6806C17.5473 15.6806 16.2064 17.0774 16.2064 18.7306C16.2064 20.3838 17.5473 21.7806 19.1344 21.7806H21.1984V22.8806H19.1344C16.9352 22.8806 15.1504 21.0214 15.1504 18.7306ZM19.1344 14.8806C17.0942 14.8806 15.4384 16.6054 15.4384 18.7306C15.4384 20.8558 17.0942 22.5806 19.1344 22.5806H20.9104V22.0806H19.1344C17.3883 22.0806 15.9184 20.5494 15.9184 18.7306C15.9184 16.9118 17.3883 15.3806 19.1344 15.3806C20.8804 15.3806 22.3504 16.9118 22.3504 18.7306V19.3026C22.3504 19.5045 22.2643 19.697 22.1371 19.8379C22.0098 19.9788 21.8299 20.0806 21.6304 20.0806C21.4309 20.0806 21.251 19.9788 21.1237 19.8379C20.9965 19.697 20.9104 19.5045 20.9104 19.3026V18.7306C20.9104 17.7094 20.1147 16.8806 19.1344 16.8806C18.154 16.8806 17.3584 17.7094 17.3584 18.7306C17.3584 19.7518 18.154 20.5806 19.1344 20.5806C19.6249 20.5806 20.0721 20.3734 20.3913 20.0371L20.5103 19.9119L20.61 20.0541C20.832 20.3707 21.2185 20.5806 21.6304 20.5806C22.3036 20.5806 22.8304 20.0117 22.8304 19.3026V18.7306C22.8304 16.6054 21.1746 14.8806 19.1344 14.8806ZM19.1344 17.6806C18.5764 17.6806 18.1264 18.1494 18.1264 18.7306C18.1264 19.3118 18.5764 19.7806 19.1344 19.7806C19.6923 19.7806 20.1424 19.3118 20.1424 18.7306C20.1424 18.1494 19.6923 17.6806 19.1344 17.6806ZM17.8384 18.7306C17.8384 17.9838 18.4175 17.3806 19.1344 17.3806C19.8513 17.3806 20.4304 17.9838 20.4304 18.7306C20.4304 19.4774 19.8513 20.0806 19.1344 20.0806C18.4175 20.0806 17.8384 19.4774 17.8384 18.7306Z" fill="#3D444F"/>
</g>
<defs>
<clipPath id="clip0_9489_7288">
<rect width="24" height="24" fill="white" transform="translate(0.894531 0.730469)"/>
</clipPath>
</defs>
</svg>
