<svg width="25" height="25" viewBox="0 0 25 25" fill="none" xmlns="http://www.w3.org/2000/svg">
<path d="M5.46924 9.53009C5.46924 9.0576 5.86107 8.66577 6.33357 8.66577H11.4043C11.8769 8.66577 12.2686 9.0576 12.2686 9.53009C12.2686 10.0026 11.8769 10.3944 11.4043 10.3944H6.33357C5.86107 10.3944 5.46924 10.0141 5.46924 9.53009Z" fill="#3D444F"/>
<path d="M5.46924 13.4477C5.46924 12.9248 6.13069 12.4912 6.92834 12.4912H15.4884C16.2861 12.4912 16.9475 12.9248 16.9475 13.4477C16.9475 13.9707 16.2861 14.4043 15.4884 14.4043H6.92834C6.13069 14.4043 5.46924 13.9834 5.46924 13.4477Z" fill="#3D444F"/>
<path fill-rule="evenodd" clip-rule="evenodd" d="M3.53012 4.8482C4.51558 4.16596 5.81234 3.90234 7.14453 3.90234H15.1445C15.5587 3.90234 15.8945 4.23813 15.8945 4.65234C15.8945 5.06656 15.5587 5.40234 15.1445 5.40234H7.14453C5.97672 5.40234 5.02349 5.63872 4.38394 6.08149C3.78478 6.49629 3.39453 7.13477 3.39453 8.15234V17.1523C3.39453 17.7319 3.63651 18.5667 4.18018 19.2463C4.70417 19.9013 5.49727 20.4023 6.64453 20.4023H17.1445C17.9802 20.4023 19.2263 20.2156 20.2341 19.6879C21.2126 19.1756 21.8945 18.3935 21.8945 17.1523V10.6523C21.8945 10.2381 22.2303 9.90234 22.6445 9.90234C23.0587 9.90234 23.3945 10.2381 23.3945 10.6523V17.1523C23.3945 19.1112 22.2432 20.3291 20.9299 21.0168C19.6461 21.689 18.1422 21.9023 17.1445 21.9023H6.64453C4.99179 21.9023 3.78489 21.1534 3.00888 20.1834C2.25255 19.238 1.89453 18.0727 1.89453 17.1523V8.15234C1.89453 6.66992 2.50428 5.5584 3.53012 4.8482Z" fill="#3D444F"/>
<path d="M16.2455 11.1465C16.0604 11.1506 15.8765 11.1173 15.7046 11.0486C15.5328 10.9798 15.3766 10.8771 15.2455 10.7465C15.0899 10.5866 14.9742 10.3922 14.908 10.1792C14.8418 9.96611 14.8269 9.74042 14.8645 9.5205L15.0585 8.1405C15.1246 7.76056 15.3013 7.40855 15.5665 7.1285L19.1905 3.5185C19.3906 3.27232 19.643 3.07384 19.9295 2.93752C20.216 2.8012 20.5292 2.73047 20.8465 2.73047C21.1637 2.73047 21.477 2.8012 21.7634 2.93752C22.0499 3.07384 22.3024 3.27232 22.5025 3.5185C22.7499 3.71646 22.9497 3.96754 23.087 4.25316C23.2242 4.53878 23.2955 4.85161 23.2955 5.1685C23.2955 5.4854 23.2242 5.79823 23.087 6.08385C22.9497 6.36947 22.7499 6.62055 22.5025 6.8185L18.8785 10.4285C18.5966 10.6929 18.2433 10.8689 17.8625 10.9345L16.4755 11.1295C16.3992 11.1398 16.3224 11.1455 16.2455 11.1465ZM20.8455 4.1805C20.6455 4.1805 20.4745 4.3165 20.2305 4.5505L16.6155 8.1605C16.5725 8.22009 16.5388 8.28583 16.5155 8.3555L16.3155 9.6695L17.6445 9.4845C17.7158 9.4616 17.7833 9.42787 17.8445 9.3845L21.4685 5.7745C21.9275 5.3175 21.9965 5.0645 21.4685 4.5485C21.2175 4.2965 21.0315 4.1805 20.8455 4.1805Z" fill="#3D444F"/>
<path d="M21.4744 7.54711C21.4066 7.54823 21.3391 7.53844 21.2744 7.51811C20.6148 7.33234 20.0136 6.98096 19.5281 6.49735C19.0425 6.01374 18.6888 5.41399 18.5004 4.75511C18.4535 4.56933 18.481 4.3726 18.5769 4.20672C18.6728 4.04085 18.8296 3.91892 19.0139 3.86683C19.1983 3.81474 19.3958 3.83661 19.5643 3.92779C19.7328 4.01897 19.8591 4.17227 19.9164 4.35511C20.0388 4.77383 20.2651 5.15481 20.5742 5.46267C20.8833 5.77054 21.2652 5.99531 21.6844 6.11611C21.777 6.14152 21.8637 6.18502 21.9395 6.2441C22.0152 6.30318 22.0786 6.37667 22.1258 6.46033C22.173 6.54399 22.2032 6.63618 22.2146 6.73156C22.2261 6.82695 22.2185 6.92366 22.1924 7.01611C22.1426 7.16818 22.0467 7.301 21.9181 7.39615C21.7894 7.49129 21.6344 7.54405 21.4744 7.54711Z" fill="#3D444F"/>
</svg>
