<svg width="25" height="25" viewBox="0 0 25 25" fill="none" xmlns="http://www.w3.org/2000/svg">
<path d="M7.96309 12.7302H11.7131C12.8851 12.7302 13.9851 12.3302 14.7741 11.6532C15.2278 11.2739 15.5757 10.7837 15.7841 10.2302H7.96209C7.69687 10.2302 7.44252 10.1249 7.25498 9.93733C7.06745 9.74979 6.96209 9.49544 6.96209 9.23022C6.96209 8.96501 7.06745 8.71065 7.25498 8.52312C7.44252 8.33558 7.69687 8.23022 7.96209 8.23022H15.7841C15.5757 7.67675 15.2278 7.18656 14.7741 6.80722C13.9841 6.13122 12.8851 5.73022 11.7131 5.73022H7.96209C7.69687 5.73022 7.44252 5.62487 7.25498 5.43733C7.06745 5.24979 6.96209 4.99544 6.96209 4.73022C6.96209 4.46501 7.06745 4.21065 7.25498 4.02312C7.44252 3.83558 7.69687 3.73022 7.96209 3.73022H11.7121L11.8921 3.73222L11.9621 3.73022H18.9621C19.2273 3.73022 19.4817 3.83558 19.6692 4.02312C19.8567 4.21065 19.9621 4.46501 19.9621 4.73022C19.9621 4.99544 19.8567 5.24979 19.6692 5.43733C19.4817 5.62487 19.2273 5.73022 18.9621 5.73022H16.5371C17.1986 6.42665 17.6559 7.29148 17.8591 8.23022H18.9621C19.2273 8.23022 19.4817 8.33558 19.6692 8.52312C19.8567 8.71065 19.9621 8.96501 19.9621 9.23022C19.9621 9.49544 19.8567 9.74979 19.6692 9.93733C19.4817 10.1249 19.2273 10.2302 18.9621 10.2302H17.8591C17.6231 11.3572 16.9941 12.3842 16.0761 13.1712C14.8961 14.1822 13.3251 14.7302 11.7121 14.7302H10.6741L16.8121 19.9702C17.0066 20.1445 17.1252 20.388 17.1426 20.6485C17.1599 20.9091 17.0746 21.1661 16.905 21.3647C16.7353 21.5632 16.4947 21.6875 16.2346 21.7109C15.9745 21.7344 15.7155 21.6552 15.5131 21.4902L7.31609 14.4932L7.30609 14.4842C7.12944 14.3317 7.01195 14.122 6.97411 13.8918C6.93628 13.6615 6.98051 13.4252 7.09909 13.2242C7.18744 13.0736 7.31369 12.9488 7.46527 12.8621C7.61685 12.7754 7.78848 12.73 7.96309 12.7302Z" fill="#3D444F"/>
</svg>
