<svg width="24" height="24" viewBox="0 0 24 24" fill="none" xmlns="http://www.w3.org/2000/svg">
<path d="M22.9998 15.37V17.5601C22.9998 20.0001 21.2198 22.3 18.7998 22.97C18.6298 23.01 18.4499 23.01 18.2899 22.97C17.1099 22.65 16.0698 21.93 15.3398 21C14.5498 20.02 14.0898 18.8101 14.0898 17.5601V15.37C14.0898 14.95 14.3998 14.49 14.7798 14.33L17.5598 13.1899C18.1898 12.9399 18.8898 12.9399 19.5198 13.1899L20.5198 13.6L22.3098 14.33C22.6898 14.49 22.9998 14.95 22.9998 15.37Z" stroke="#3D444F" stroke-width="1.5" stroke-linecap="round" stroke-linejoin="round"/>
<path d="M20.9503 11.0101L20.5203 13.6L19.5203 13.19C18.8903 12.94 18.1903 12.94 17.5603 13.19L14.7803 14.33C14.4003 14.49 14.0903 14.95 14.0903 15.37V17.5601C14.0903 18.8101 14.5503 20.02 15.3403 21H6.18027C4.81027 21 3.52029 19.9101 3.29029 18.5601L2.03028 11.0101C1.87028 10.0801 2.34027 8.83004 3.08027 8.24004L9.66029 2.98003C10.6703 2.17003 12.3103 2.17004 13.3203 2.99004L19.9003 8.24004C20.6303 8.83004 21.1103 10.0801 20.9503 11.0101Z" stroke="#3D444F" stroke-width="1.5" stroke-linecap="round" stroke-linejoin="round"/>
</svg>
