<svg width="24" height="25" viewBox="0 0 24 25" fill="none" xmlns="http://www.w3.org/2000/svg">
<path d="M3.5084 23.2264C3.16188 23.2294 2.82107 23.1382 2.5224 22.9624C2.18145 22.7361 1.90683 22.4232 1.72671 22.0558C1.54659 21.6883 1.46745 21.2796 1.4974 20.8714V9.77344C1.49767 8.77374 1.89478 7.81503 2.60149 7.10794C3.3082 6.40086 4.2667 6.00324 5.2664 6.00244H12.8664C13.8661 6.00324 14.8246 6.40086 15.5313 7.10794C16.238 7.81503 16.6351 8.77374 16.6354 9.77344V20.8734C16.6642 21.2814 16.5846 21.6898 16.4045 22.057C16.2245 22.4242 15.9505 22.7373 15.6104 22.9644C15.247 23.1513 14.8408 23.2389 14.4327 23.2184C14.0246 23.1978 13.6292 23.0699 13.2864 22.8474L9.4494 20.7074C9.32943 20.6542 9.19964 20.6268 9.0684 20.6268C8.93716 20.6268 8.80738 20.6542 8.6874 20.7074L4.8504 22.8474C4.44329 23.0875 3.98095 23.2181 3.5084 23.2264ZM5.2764 7.48244C4.66627 7.48349 4.08135 7.72599 3.64945 8.15696C3.21755 8.58792 2.97378 9.17231 2.9714 9.78244V20.8824C2.95211 21.0333 2.96929 21.1866 3.02149 21.3295C3.07369 21.4723 3.15939 21.6006 3.2714 21.7034C3.41676 21.7509 3.57132 21.7633 3.72238 21.7395C3.87344 21.7157 4.0167 21.6564 4.1404 21.5664L7.9774 19.4264C8.31723 19.2577 8.69149 19.1699 9.0709 19.1699C9.45031 19.1699 9.82457 19.2577 10.1644 19.4264L14.0014 21.5664C14.125 21.6565 14.2683 21.7159 14.4194 21.7397C14.5705 21.7635 14.7251 21.7511 14.8704 21.7034C14.9824 21.6006 15.0681 21.4723 15.1203 21.3295C15.1725 21.1866 15.1897 21.0333 15.1704 20.8824V9.78244C15.1696 9.17213 14.9272 8.58696 14.4962 8.15484C14.0652 7.72273 13.4807 7.47882 12.8704 7.47644L5.2764 7.48244Z" fill="#3D444F"/>
<path d="M14.6287 23.2265C14.159 23.2146 13.6994 23.0872 13.2907 22.8555L9.45769 20.7155C9.20995 20.6179 8.93442 20.6179 8.68669 20.7155L4.85769 22.8555C4.51493 23.0779 4.1195 23.2059 3.71141 23.2264C3.30333 23.2469 2.89705 23.1593 2.53369 22.9725C2.19358 22.7477 1.91934 22.4365 1.73905 22.0708C1.55877 21.7052 1.47892 21.2981 1.50769 20.8915V9.79346C1.50795 8.79376 1.90506 7.83505 2.61177 7.12796C3.31848 6.42088 4.27698 6.02326 5.27669 6.02246H12.8767C13.8764 6.02326 14.8349 6.42088 15.5416 7.12796C16.2483 7.83505 16.6454 8.79376 16.6457 9.79346V20.8935C16.6746 21.3 16.5949 21.707 16.4148 22.0726C16.2347 22.4383 15.9606 22.7495 15.6207 22.9745C15.3179 23.1441 14.9757 23.231 14.6287 23.2265ZM9.07369 19.1725C9.4543 19.1683 9.82996 19.259 10.1667 19.4365L14.0037 21.5765C14.1268 21.6677 14.2706 21.727 14.4222 21.7491C14.5739 21.7713 14.7286 21.7556 14.8727 21.7035C14.9847 21.6006 15.0704 21.4723 15.1226 21.3295C15.1748 21.1866 15.192 21.0333 15.1727 20.8825V9.78246C15.1719 9.17215 14.9295 8.58698 14.4985 8.15486C14.0675 7.72275 13.483 7.47884 12.8727 7.47646H5.27269C4.66221 7.47858 4.07741 7.72237 3.6462 8.15451C3.215 8.58665 2.97248 9.17198 2.97169 9.78246V20.8825C2.9524 21.0333 2.96957 21.1866 3.02177 21.3295C3.07397 21.4723 3.15967 21.6006 3.27169 21.7035C3.41705 21.751 3.5716 21.7633 3.72267 21.7395C3.87373 21.7157 4.01699 21.6564 4.14069 21.5665L7.97769 19.4265C8.31738 19.2552 8.69327 19.168 9.07369 19.1725Z" fill="#3D444F"/>
<path d="M20.4862 19.4354C20.0165 19.4236 19.557 19.2962 19.1482 19.0644L15.5482 17.0514C15.4347 16.9891 15.3402 16.8971 15.2748 16.7853C15.2095 16.6735 15.1758 16.546 15.1772 16.4164V9.79344C15.1764 9.18314 14.9341 8.59796 14.5031 8.16585C14.0721 7.73373 13.4875 7.48982 12.8772 7.48744H8.09723C7.90341 7.48587 7.71798 7.40811 7.58102 7.27096C7.44405 7.1338 7.36654 6.94827 7.36523 6.75445V6.00245C7.3655 5.00274 7.76261 4.04403 8.46932 3.33694C9.17603 2.62986 10.1345 2.23224 11.1342 2.23145H18.7342C19.7339 2.23224 20.6924 2.62986 21.3991 3.33694C22.1059 4.04403 22.503 5.00274 22.5032 6.00245V17.1024C22.5321 17.509 22.4524 17.916 22.2723 18.2816C22.0922 18.6473 21.8182 18.9585 21.4782 19.1834C21.1754 19.3531 20.8333 19.44 20.4862 19.4354ZM16.6392 15.9774L19.8612 17.7844C19.9843 17.8758 20.1281 17.9352 20.2797 17.9574C20.4314 17.9795 20.5862 17.9638 20.7302 17.9114C20.8433 17.8093 20.9297 17.6812 20.982 17.5381C21.0342 17.395 21.0508 17.2414 21.0302 17.0904V5.99245C21.0294 5.38214 20.7871 4.79696 20.3561 4.36485C19.9251 3.93273 19.3405 3.68882 18.7302 3.68645H11.1302C10.5199 3.68882 9.93539 3.93273 9.5044 4.36485C9.07341 4.79696 8.83102 5.38214 8.83023 5.99245V6.01245H12.8722C13.8719 6.01324 14.8304 6.41086 15.5371 7.11794C16.2439 7.82503 16.641 8.78374 16.6412 9.78345L16.6392 15.9774Z" fill="#3D444F"/>
</svg>
