<svg width="25" height="25" viewBox="0 0 25 25" fill="none" xmlns="http://www.w3.org/2000/svg">
<path d="M8.38477 6.48047C7.97477 6.48047 7.63477 6.14047 7.63477 5.73047V2.73047C7.63477 2.32047 7.97477 1.98047 8.38477 1.98047C8.79477 1.98047 9.13477 2.32047 9.13477 2.73047V5.73047C9.13477 6.14047 8.79477 6.48047 8.38477 6.48047Z" fill="#3D444F"/>
<path d="M16.3848 6.48047C15.9748 6.48047 15.6348 6.14047 15.6348 5.73047V2.73047C15.6348 2.32047 15.9748 1.98047 16.3848 1.98047C16.7948 1.98047 17.1348 2.32047 17.1348 2.73047V5.73047C17.1348 6.14047 16.7948 6.48047 16.3848 6.48047Z" fill="#3D444F"/>
<path d="M18.8848 22.9805C16.5406 22.9805 14.6348 21.0747 14.6348 18.7305C14.6348 16.3863 16.5406 14.4805 18.8848 14.4805C21.229 14.4805 23.1348 16.3863 23.1348 18.7305C23.1348 21.0747 21.229 22.9805 18.8848 22.9805ZM18.8848 15.8226C17.2832 15.8226 15.9769 17.1289 15.9769 18.7305C15.9769 20.332 17.2832 21.6384 18.8848 21.6384C20.4863 21.6384 21.7927 20.332 21.7927 18.7305C21.7927 17.1289 20.4863 15.8226 18.8848 15.8226Z" fill="#3D444F"/>
<path d="M17.9897 20.296C17.766 20.296 17.5423 20.1797 17.4171 19.9739C17.2292 19.6518 17.3276 19.2402 17.6497 19.0523L18.3297 18.6408C18.4013 18.596 18.4371 18.5244 18.4371 18.4529V17.6208C18.4371 17.2539 18.7413 16.9497 19.1081 16.9497C19.475 16.9497 19.7792 17.245 19.7792 17.6118V18.4439C19.7792 18.9897 19.4839 19.5086 19.0187 19.786L18.3297 20.1976C18.2313 20.2692 18.106 20.296 17.9897 20.296Z" fill="#3D444F"/>
<path d="M8.88477 15.2306C8.75477 15.2306 8.62477 15.2006 8.50477 15.1506C8.37477 15.1006 8.26476 15.0306 8.17476 14.9406C8.13476 14.8906 8.08477 14.8406 8.05477 14.7906C8.01477 14.7306 7.98477 14.6706 7.96477 14.6106C7.93477 14.5506 7.91477 14.4906 7.90477 14.4306C7.89477 14.3606 7.88477 14.2906 7.88477 14.2306C7.88477 13.9706 7.99476 13.7106 8.17476 13.5206C8.26476 13.4306 8.37477 13.3606 8.50477 13.3106C8.86477 13.1506 9.31478 13.2406 9.59478 13.5206C9.77478 13.7106 9.88477 13.9706 9.88477 14.2306C9.88477 14.2906 9.87477 14.3606 9.86477 14.4306C9.85477 14.4906 9.83477 14.5506 9.80477 14.6106C9.78477 14.6706 9.75477 14.7306 9.71477 14.7906C9.67477 14.8406 9.63478 14.8906 9.59478 14.9406C9.40478 15.1206 9.14477 15.2306 8.88477 15.2306Z" fill="#3D444F"/>
<path d="M12.3848 15.2303C12.1248 15.2303 11.8648 15.1203 11.6748 14.9403C11.4948 14.7503 11.3848 14.5003 11.3848 14.2303C11.3848 14.1003 11.4148 13.9703 11.4648 13.8503C11.5148 13.7303 11.5848 13.6204 11.6748 13.5204C12.0448 13.1504 12.7148 13.1504 13.0948 13.5204C13.2748 13.7104 13.3848 13.9703 13.3848 14.2303C13.3848 14.2903 13.3748 14.3604 13.3648 14.4304C13.3548 14.4904 13.3348 14.5503 13.3048 14.6103C13.2848 14.6703 13.2548 14.7303 13.2148 14.7903C13.1748 14.8403 13.1348 14.8903 13.0948 14.9403C12.9048 15.1203 12.6448 15.2303 12.3848 15.2303Z" fill="#3D444F"/>
<path d="M8.88477 18.7303C8.62477 18.7303 8.36476 18.6203 8.17476 18.4403C7.99476 18.2503 7.88477 17.9903 7.88477 17.7303C7.88477 17.6003 7.91477 17.4703 7.96477 17.3503C8.01477 17.2203 8.08476 17.1104 8.17476 17.0204C8.54476 16.6504 9.22478 16.6504 9.59478 17.0204C9.77478 17.2104 9.88477 17.4703 9.88477 17.7303C9.88477 17.9903 9.77478 18.2503 9.59478 18.4403C9.40478 18.6203 9.14477 18.7303 8.88477 18.7303Z" fill="#3D444F"/>
<path d="M20.8848 10.5706H3.88477C3.47477 10.5706 3.13477 10.2306 3.13477 9.82056C3.13477 9.41056 3.47477 9.07056 3.88477 9.07056H20.8848C21.2948 9.07056 21.6348 9.41056 21.6348 9.82056C21.6348 10.2306 21.2948 10.5706 20.8848 10.5706Z" fill="#3D444F"/>
<path d="M13.7548 23.4805H8.38477C4.73477 23.4805 2.63477 21.3805 2.63477 17.7305V9.23047C2.63477 5.58047 4.73477 3.48047 8.38477 3.48047H16.3848C20.0348 3.48047 22.1348 5.58047 22.1348 9.23047V13.7305C22.1348 14.1405 21.7948 14.4805 21.3848 14.4805C20.9748 14.4805 20.6348 14.1405 20.6348 13.7305V9.23047C20.6348 6.37047 19.2448 4.98047 16.3848 4.98047H8.38477C5.52477 4.98047 4.13477 6.37047 4.13477 9.23047V17.7305C4.13477 20.5905 5.52477 21.9805 8.38477 21.9805H13.7548C14.1648 21.9805 14.5048 22.3205 14.5048 22.7305C14.5048 23.1405 14.1648 23.4805 13.7548 23.4805Z" fill="#3D444F"/>
</svg>
