<svg width="24" height="25" viewBox="0 0 24 25" fill="none" xmlns="http://www.w3.org/2000/svg">
<path d="M11.5135 22.2555C9.53311 22.2555 7.5972 21.6682 5.95057 20.568C4.30394 19.4678 3.02055 17.9039 2.26269 16.0743C1.50483 14.2447 1.30654 12.2314 1.69289 10.2891C2.07924 8.34673 3.03289 6.56258 4.43323 5.16224C5.83358 3.76189 7.61772 2.80825 9.56005 2.42189C11.5024 2.03554 13.5157 2.23383 15.3453 2.99169C17.1749 3.74955 18.7388 5.03294 19.839 6.67957C20.9392 8.3262 21.5265 10.2621 21.5265 12.2425C21.5231 14.8971 20.467 17.4419 18.59 19.319C16.7129 21.196 14.168 22.2521 11.5135 22.2555ZM11.5135 3.6955C9.82286 3.6955 8.17019 4.19683 6.76448 5.13609C5.35877 6.07536 4.26315 7.41038 3.61617 8.97232C2.96919 10.5343 2.79991 12.253 3.12974 13.9111C3.45957 15.5693 4.27368 17.0924 5.46914 18.2878C6.6646 19.4833 8.18771 20.2974 9.84586 20.6272C11.504 20.9571 13.2227 20.7878 14.7847 20.1408C16.3466 19.4938 17.6816 18.3982 18.6209 16.9925C19.5602 15.5868 20.0615 13.9341 20.0615 12.2435C20.0594 9.97698 19.1581 7.80389 17.5556 6.20113C15.953 4.59837 13.78 3.69688 11.5135 3.6945V3.6955Z" fill="#3D444F"/>
<path d="M21.7695 23.2315C21.6732 23.2318 21.5778 23.213 21.4888 23.1761C21.3999 23.1392 21.3192 23.0849 21.2515 23.0165L19.2985 21.0625C19.1657 20.9243 19.0924 20.7396 19.0943 20.548C19.0962 20.3564 19.1731 20.1731 19.3086 20.0376C19.4441 19.9021 19.6274 19.8252 19.819 19.8233C20.0106 19.8214 20.1953 19.8947 20.3335 20.0275L22.2875 21.9815C22.4235 22.1194 22.4997 22.3053 22.4997 22.499C22.4997 22.6926 22.4235 22.8786 22.2875 23.0165C22.2197 23.0849 22.139 23.1392 22.0501 23.1761C21.9611 23.213 21.8657 23.2318 21.7695 23.2315Z" fill="#3D444F"/>
</svg>
