<svg width="20" height="20" viewBox="0 0 20 20" fill="none" xmlns="http://www.w3.org/2000/svg">
<path d="M9.59447 17.9375C7.94415 17.9375 6.3309 17.4481 4.9587 16.5312C3.58651 15.6144 2.51702 14.3112 1.88547 12.7865C1.25392 11.2618 1.08868 9.58406 1.41064 7.96545C1.7326 6.34684 2.52731 4.86005 3.69426 3.6931C4.86121 2.52615 6.348 1.73144 7.96661 1.40948C9.58522 1.08752 11.263 1.25276 12.7877 1.88431C14.3123 2.51586 15.6155 3.58535 16.5324 4.95755C17.4493 6.32974 17.9386 7.943 17.9386 9.59332C17.9358 11.8054 17.0557 13.9262 15.4915 15.4904C13.9273 17.0546 11.8066 17.9346 9.59447 17.9375ZM9.59447 2.47082C8.18561 2.47082 6.80839 2.88859 5.63696 3.67131C4.46554 4.45404 3.55252 5.56655 3.01337 6.86817C2.47423 8.16979 2.33316 9.60205 2.60802 10.9838C2.88287 12.3656 3.5613 13.6349 4.55752 14.6311C5.55373 15.6273 6.82299 16.3058 8.20478 16.5806C9.58657 16.8555 11.0188 16.7144 12.3205 16.1753C13.6221 15.6361 14.7346 14.7231 15.5173 13.5517C16.3 12.3802 16.7178 11.003 16.7178 9.59415C16.716 7.70539 15.965 5.89448 14.6295 4.55885C13.2941 3.22321 11.4832 2.47197 9.59447 2.46998V2.47082Z" fill="#3D444F"/>
<path d="M18.1412 18.7508C18.0609 18.7511 17.9814 18.7354 17.9073 18.7047C17.8332 18.6739 17.7659 18.6287 17.7095 18.5717L16.082 16.9433C15.9713 16.8282 15.9102 16.6743 15.9118 16.5146C15.9134 16.3549 15.9776 16.2022 16.0905 16.0893C16.2034 15.9764 16.3561 15.9123 16.5157 15.9107C16.6754 15.9091 16.8293 15.9702 16.9445 16.0808L18.5728 17.7092C18.6862 17.8241 18.7497 17.979 18.7497 18.1404C18.7497 18.3018 18.6862 18.4567 18.5728 18.5717C18.5164 18.6287 18.4491 18.6739 18.375 18.7047C18.3009 18.7354 18.2214 18.7511 18.1412 18.7508Z" fill="#3D444F"/>
</svg>
