<svg width="25" height="25" viewBox="0 0 25 25" fill="none" xmlns="http://www.w3.org/2000/svg">
<path d="M19.0386 9.73047C19.0386 13.5965 15.9046 16.7305 12.0386 16.7305M19.0386 9.73047C19.0386 5.86448 15.9046 2.73047 12.0386 2.73047M19.0386 9.73047H5.03857M12.0386 16.7305C8.17258 16.7305 5.03857 13.5965 5.03857 9.73047M12.0386 16.7305C13.7895 14.8136 14.7854 12.326 14.8395 9.73047C14.7854 7.13489 13.7895 4.64732 12.0386 2.73047M12.0386 16.7305C10.2877 14.8136 9.29356 12.326 9.23949 9.73047C9.29356 7.13489 10.2877 4.64732 12.0386 2.73047M12.0386 16.7305V18.7305M5.03857 9.73047C5.03857 5.86448 8.17258 2.73047 12.0386 2.73047M14.0386 20.7305C14.0386 21.835 13.1431 22.7305 12.0386 22.7305C10.934 22.7305 10.0386 21.835 10.0386 20.7305M14.0386 20.7305C14.0386 19.6259 13.1431 18.7305 12.0386 18.7305M14.0386 20.7305H21.0386M10.0386 20.7305C10.0386 19.6259 10.934 18.7305 12.0386 18.7305M10.0386 20.7305H3.03857" stroke="#3D444F" stroke-width="1.5" stroke-linecap="round" stroke-linejoin="round"/>
</svg>
