<svg width="24" height="25" viewBox="0 0 24 25" fill="none" xmlns="http://www.w3.org/2000/svg">
<path d="M21.75 8.089H15.75C15.5511 8.089 15.3603 8.00999 15.2197 7.86933C15.079 7.72868 15 7.53792 15 7.339C15 7.14009 15.079 6.94933 15.2197 6.80867C15.3603 6.66802 15.5511 6.589 15.75 6.589H21.75C21.9489 6.589 22.1397 6.66802 22.2803 6.80867C22.421 6.94933 22.5 7.14009 22.5 7.339C22.5 7.53792 22.421 7.72868 22.2803 7.86933C22.1397 8.00999 21.9489 8.089 21.75 8.089Z" fill="#3D444F"/>
<path d="M6.25 8.089H2.25C2.05109 8.089 1.86032 8.00999 1.71967 7.86933C1.57902 7.72868 1.5 7.53792 1.5 7.339C1.5 7.14009 1.57902 6.94933 1.71967 6.80867C1.86032 6.66802 2.05109 6.589 2.25 6.589H6.25C6.44891 6.589 6.63968 6.66802 6.78033 6.80867C6.92098 6.94933 7 7.14009 7 7.339C7 7.53792 6.92098 7.72868 6.78033 7.86933C6.63968 8.00999 6.44891 8.089 6.25 8.089Z" fill="#3D444F"/>
<path d="M10.076 11.677C9.23543 11.677 8.41374 11.4277 7.71483 10.9607C7.01592 10.4938 6.47118 9.82999 6.14951 9.05341C5.82784 8.27682 5.74368 7.42229 5.90766 6.59787C6.07165 5.77345 6.47642 5.01617 7.0708 4.4218C7.66517 3.82743 8.42245 3.42265 9.24687 3.25867C10.0713 3.09468 10.9258 3.17884 11.7024 3.50052C12.479 3.82219 13.1427 4.36692 13.6097 5.06583C14.0767 5.76474 14.326 6.58643 14.326 7.427C14.3236 8.55344 13.8751 9.63307 13.0786 10.4296C12.2821 11.2261 11.2024 11.6746 10.076 11.677ZM10.076 4.677C9.5321 4.677 9.00042 4.83829 8.54818 5.14046C8.09595 5.44264 7.74347 5.87213 7.53533 6.37462C7.32719 6.87712 7.27273 7.43005 7.37884 7.9635C7.48495 8.49695 7.74686 8.98695 8.13146 9.37155C8.51605 9.75614 9.00605 10.0181 9.5395 10.1242C10.073 10.2303 10.6259 10.1758 11.1284 9.96767C11.6309 9.75953 12.0604 9.40706 12.3625 8.95482C12.6647 8.50259 12.826 7.9709 12.826 7.427C12.8263 7.06579 12.7553 6.70808 12.6172 6.37431C12.4791 6.04055 12.2765 5.73729 12.0211 5.48187C11.7657 5.22646 11.4625 5.02391 11.1287 4.8858C10.7949 4.74769 10.4372 4.67674 10.076 4.677Z" fill="#3D444F"/>
<path d="M21.75 18.812H17.75C17.5511 18.812 17.3603 18.733 17.2197 18.5923C17.079 18.4517 17 18.2609 17 18.062C17 17.8631 17.079 17.6723 17.2197 17.5317C17.3603 17.391 17.5511 17.312 17.75 17.312H21.75C21.9489 17.312 22.1397 17.391 22.2803 17.5317C22.421 17.6723 22.5 17.8631 22.5 18.062C22.5 18.2609 22.421 18.4517 22.2803 18.5923C22.1397 18.733 21.9489 18.812 21.75 18.812Z" fill="#3D444F"/>
<path d="M8.25 18.812H2.25C2.05109 18.812 1.86032 18.733 1.71967 18.5923C1.57902 18.4517 1.5 18.2609 1.5 18.062C1.5 17.8631 1.57902 17.6723 1.71967 17.5317C1.86032 17.391 2.05109 17.312 2.25 17.312H8.25C8.44891 17.312 8.63968 17.391 8.78033 17.5317C8.92098 17.6723 9 17.8631 9 18.062C9 18.2609 8.92098 18.4517 8.78033 18.5923C8.63968 18.733 8.44891 18.812 8.25 18.812Z" fill="#3D444F"/>
<path d="M13.924 22.223C13.0834 22.223 12.2617 21.9737 11.5628 21.5068C10.8639 21.0398 10.3192 20.376 9.99751 19.5994C9.67584 18.8228 9.59167 17.9683 9.75566 17.1439C9.91965 16.3195 10.3244 15.5622 10.9188 14.9678C11.5132 14.3734 12.2704 13.9687 13.0949 13.8047C13.9193 13.6407 14.7738 13.7248 15.5504 14.0465C16.327 14.3682 16.9908 14.9129 17.4577 15.6118C17.9247 16.3107 18.174 17.1324 18.174 17.973C18.1716 19.0994 17.7231 20.1791 16.9266 20.9756C16.1301 21.7721 15.0504 22.2206 13.924 22.223ZM13.924 15.223C13.3801 15.223 12.8484 15.3843 12.3962 15.6865C11.9439 15.9886 11.5915 16.4181 11.3833 16.9206C11.1752 17.4231 11.1207 17.9761 11.2268 18.5095C11.3329 19.0429 11.5949 19.533 11.9795 19.9175C12.364 20.3021 12.8541 20.5641 13.3875 20.6702C13.9209 20.7763 14.4739 20.7218 14.9764 20.5137C15.4789 20.3055 15.9084 19.9531 16.2105 19.5008C16.5127 19.0486 16.674 18.5169 16.674 17.973C16.6743 17.6118 16.6033 17.2541 16.4652 16.9203C16.3271 16.5865 16.1245 16.2833 15.8691 16.0279C15.6137 15.7725 15.3105 15.5699 14.9767 15.4318C14.6429 15.2937 14.2852 15.2227 13.924 15.223Z" fill="#3D444F"/>
</svg>
