<svg width="24" height="25" viewBox="0 0 24 25" fill="none" xmlns="http://www.w3.org/2000/svg">
<path d="M12.0013 23.2302C11.3538 23.2418 10.7143 23.0854 10.1453 22.7762L4.71426 19.6452C2.50226 18.1542 2.36426 17.9272 2.36426 15.5872V9.8802C2.36426 7.54021 2.49226 7.31321 4.66426 5.84121L10.1343 2.68121C10.7059 2.38489 11.3404 2.23022 11.9843 2.23022C12.6281 2.23022 13.2626 2.38489 13.8343 2.68121L19.2853 5.82121C21.4973 7.31221 21.6353 7.53921 21.6353 9.87921V15.5792C21.6353 17.9192 21.5073 18.1462 19.3353 19.6182L13.8653 22.7782C13.2926 23.0853 12.651 23.2409 12.0013 23.2302ZM12.0013 3.71921C11.6176 3.70627 11.237 3.79128 10.8953 3.96621L5.46526 7.10521C3.85526 8.19121 3.85526 8.1912 3.85526 9.8802V15.5802C3.85526 17.2682 3.85526 17.2682 5.50426 18.3802L10.8953 21.4902C11.2422 21.656 11.6218 21.7421 12.0063 21.7421C12.3907 21.7421 12.7704 21.656 13.1173 21.4902L18.5483 18.3502C20.1483 17.2642 20.1483 17.2642 20.1483 15.5752V9.87521C20.1483 8.18721 20.1483 8.18721 18.4993 7.07521L13.1073 3.96721C12.7657 3.79158 12.3851 3.70689 12.0013 3.71921Z" fill="#3D444F"/>
<path d="M12.0008 16.4361C11.269 16.4361 10.5536 16.2191 9.94517 15.8126C9.33671 15.406 8.86247 14.8282 8.58243 14.1521C8.30238 13.476 8.22911 12.732 8.37188 12.0143C8.51464 11.2966 8.86703 10.6373 9.38449 10.1198C9.90194 9.60239 10.5612 9.24999 11.2789 9.10723C11.9967 8.96446 12.7406 9.03774 13.4167 9.31778C14.0928 9.59782 14.6707 10.0721 15.0772 10.6805C15.4838 11.289 15.7008 12.0043 15.7008 12.7361C15.7008 13.7174 15.311 14.6585 14.6171 15.3524C13.9232 16.0463 12.9821 16.4361 12.0008 16.4361ZM12.0008 10.5111C11.5613 10.5111 11.1317 10.6415 10.7663 10.8856C10.4009 11.1298 10.1161 11.4768 9.94792 11.8828C9.77974 12.2888 9.73574 12.7356 9.82148 13.1666C9.90721 13.5977 10.1188 13.9936 10.4296 14.3043C10.7403 14.6151 11.1363 14.8267 11.5673 14.9124C11.9983 14.9982 12.4451 14.9542 12.8511 14.786C13.2571 14.6178 13.6042 14.333 13.8483 13.9676C14.0925 13.6022 14.2228 13.1726 14.2228 12.7331C14.222 12.1441 13.9876 11.5794 13.5711 11.1628C13.1546 10.7463 12.5898 10.5119 12.0008 10.5111Z" fill="#3D444F"/>
</svg>
