<svg width="24" height="25" viewBox="0 0 24 25" fill="none" xmlns="http://www.w3.org/2000/svg">
<path d="M12.9885 15.4165H12.0115C11.8219 15.4095 11.6424 15.3292 11.5108 15.1926C11.3791 15.056 11.3055 14.8737 11.3055 14.684C11.3055 14.4943 11.3791 14.3119 11.5108 14.1753C11.6424 14.0387 11.8219 13.9585 12.0115 13.9515H12.9885C13.3123 13.9515 13.6229 13.8228 13.8519 13.5938C14.0808 13.3649 14.2095 13.0543 14.2095 12.7305V3.69547H6.14948C5.58422 3.69671 5.0295 3.84845 4.54232 4.1351C4.05514 4.42175 3.65309 4.83296 3.37748 5.32647C3.33066 5.41051 3.26775 5.48452 3.19233 5.54425C3.11692 5.60398 3.03047 5.64828 2.93794 5.6746C2.84541 5.70093 2.74859 5.70877 2.65303 5.69768C2.55747 5.68659 2.46502 5.65679 2.38098 5.60997C2.29693 5.56315 2.22293 5.50024 2.1632 5.42483C2.10346 5.34941 2.05917 5.26297 2.03284 5.17043C2.00652 5.0779 1.99868 4.98109 2.00977 4.88552C2.02086 4.78996 2.05066 4.69751 2.09748 4.61347C2.50084 3.89258 3.08869 3.29196 3.80074 2.8732C4.51279 2.45444 5.32342 2.23261 6.14948 2.23047H14.9405C15.1345 2.23178 15.3202 2.30943 15.4573 2.44661C15.5945 2.58379 15.6722 2.76947 15.6735 2.96347V12.7305C15.6736 13.0832 15.6043 13.4324 15.4694 13.7583C15.3345 14.0842 15.1367 14.3803 14.8874 14.6297C14.6381 14.8791 14.342 15.077 14.0162 15.212C13.6904 15.347 13.3412 15.4165 12.9885 15.4165Z" fill="#3D444F"/>
<path d="M18.8492 21.2764H17.8722C17.6782 21.2751 17.4925 21.1974 17.3554 21.0603C17.2182 20.9231 17.1405 20.7374 17.1392 20.5434C17.1392 20.2196 17.0106 19.909 16.7816 19.68C16.5526 19.451 16.242 19.3224 15.9182 19.3224C15.5944 19.3224 15.2838 19.451 15.0548 19.68C14.8259 19.909 14.6972 20.2196 14.6972 20.5434C14.6959 20.7374 14.6183 20.9231 14.4811 21.0603C14.3439 21.1974 14.1582 21.2751 13.9642 21.2764H10.0612C9.86722 21.2751 9.68154 21.1974 9.54436 21.0603C9.40718 20.9231 9.32953 20.7374 9.32822 20.5434C9.32822 20.2196 9.19958 19.909 8.9706 19.68C8.74161 19.451 8.43105 19.3224 8.10722 19.3224C7.78339 19.3224 7.47282 19.451 7.24384 19.68C7.01486 19.909 6.88622 20.2196 6.88622 20.5434C6.88491 20.7374 6.80726 20.9231 6.67008 21.0603C6.5329 21.1974 6.34722 21.2751 6.15322 21.2764H5.17522C4.69397 21.2763 4.21746 21.1813 3.77291 20.997C3.32836 20.8127 2.92447 20.5426 2.58432 20.2022C2.24416 19.8617 1.97441 19.4576 1.79045 19.0129C1.6065 18.5682 1.51196 18.0916 1.51222 17.6104C1.50858 17.5119 1.52483 17.4137 1.56 17.3217C1.59518 17.2296 1.64855 17.1456 1.71693 17.0747C1.7853 17.0037 1.86729 16.9473 1.95797 16.9087C2.04866 16.8702 2.14618 16.8503 2.24472 16.8503C2.34326 16.8503 2.44078 16.8702 2.53147 16.9087C2.62215 16.9473 2.70413 17.0037 2.77251 17.0747C2.84089 17.1456 2.89426 17.2296 2.92943 17.3217C2.96461 17.4137 2.98086 17.5119 2.97722 17.6104C2.97722 18.1939 3.209 18.7535 3.62158 19.166C4.03416 19.5786 4.59374 19.8104 5.17722 19.8104H5.51922C5.67988 19.2478 6.01944 18.7529 6.4865 18.4006C6.95355 18.0483 7.52267 17.8577 8.10772 17.8577C8.69277 17.8577 9.26189 18.0483 9.72894 18.4006C10.196 18.7529 10.5356 19.2478 10.6962 19.8104H13.3432C13.5033 19.2473 13.8426 18.7517 14.3097 18.3988C14.7768 18.0459 15.3463 17.855 15.9317 17.855C16.5171 17.855 17.0866 18.0459 17.5537 18.3988C18.0209 18.7517 18.3602 19.2473 18.5202 19.8104H18.8522C19.4357 19.8104 19.9953 19.5786 20.4079 19.166C20.8204 18.7535 21.0522 18.1939 21.0522 17.6104V15.4104H18.8522C18.4006 15.4091 17.9677 15.23 17.6473 14.9118C17.3269 14.5936 17.1447 14.162 17.1402 13.7104V10.7764C17.1407 10.3233 17.321 9.88892 17.6414 9.56854C17.9617 9.24815 18.3961 9.06793 18.8492 9.0674L17.8042 7.2404C17.6968 7.05297 17.5417 6.89732 17.3546 6.7893C17.1676 6.68127 16.9552 6.62472 16.7392 6.6254H15.6752V12.7254C15.6754 13.0782 15.606 13.4275 15.471 13.7534C15.3361 14.0794 15.1382 14.3755 14.8888 14.625C14.6394 14.8744 14.3432 15.0723 14.0173 15.2072C13.6913 15.3421 13.342 15.4115 12.9892 15.4114H12.0122C11.9137 15.415 11.8156 15.3988 11.7235 15.3636C11.6315 15.3284 11.5475 15.2751 11.4765 15.2067C11.4055 15.1383 11.3491 15.0563 11.3106 14.9656C11.272 14.875 11.2521 14.7774 11.2521 14.6789C11.2521 14.5804 11.272 14.4828 11.3106 14.3922C11.3491 14.3015 11.4055 14.2195 11.4765 14.1511C11.5475 14.0827 11.6315 14.0294 11.7235 13.9942C11.8156 13.959 11.9137 13.9428 12.0122 13.9464H12.9892C13.313 13.9464 13.6236 13.8178 13.8526 13.5888C14.0816 13.3598 14.2102 13.0492 14.2102 12.7254V5.8934C14.2115 5.6994 14.2892 5.51372 14.4264 5.37654C14.5635 5.23936 14.7492 5.16171 14.9432 5.1604H16.7432C17.2176 5.16033 17.6834 5.28596 18.0934 5.52451C18.5034 5.76305 18.8429 6.10599 19.0772 6.5184L20.7472 9.4384C20.8097 9.55043 20.8426 9.6766 20.8426 9.8049C20.8426 9.9332 20.8097 10.0594 20.7472 10.1714C20.6827 10.2823 20.59 10.3742 20.4784 10.4376C20.3669 10.501 20.2405 10.5337 20.1122 10.5324H18.8522C18.8201 10.5321 18.7883 10.5383 18.7585 10.5504C18.7288 10.5626 18.7018 10.5806 18.6791 10.6033C18.6564 10.626 18.6384 10.653 18.6262 10.6827C18.6141 10.7124 18.608 10.7443 18.6082 10.7764V13.7104C18.608 13.7425 18.6141 13.7744 18.6262 13.8041C18.6384 13.8338 18.6564 13.8608 18.6791 13.8835C18.7018 13.9062 18.7288 13.9242 18.7585 13.9364C18.7883 13.9485 18.8201 13.9547 18.8522 13.9544H21.7822C21.9762 13.9557 22.1619 14.0334 22.2991 14.1705C22.4363 14.3077 22.5139 14.4934 22.5152 14.6874V17.6104C22.5155 18.0919 22.4208 18.5687 22.2367 19.0136C22.0526 19.4585 21.7825 19.8628 21.4421 20.2032C21.1016 20.5437 20.6973 20.8137 20.2524 20.9979C19.8075 21.182 19.3307 21.2767 18.8492 21.2764Z" fill="#3D444F"/>
<path d="M8.10495 23.2304C7.57371 23.2304 7.0544 23.0729 6.61268 22.7777C6.17097 22.4826 5.8267 22.0631 5.62341 21.5723C5.42011 21.0815 5.36692 20.5414 5.47056 20.0204C5.5742 19.4994 5.83001 19.0208 6.20566 18.6451C6.5813 18.2695 7.0599 18.0137 7.58093 17.91C8.10197 17.8064 8.64203 17.8596 9.13283 18.0629C9.62364 18.2662 10.0431 18.6104 10.3383 19.0521C10.6334 19.4938 10.7909 20.0132 10.7909 20.5444C10.7911 20.8972 10.7217 21.2465 10.5868 21.5724C10.4518 21.8984 10.254 22.1945 10.0045 22.444C9.75508 22.6934 9.45893 22.8913 9.13299 23.0262C8.80705 23.1611 8.45771 23.2305 8.10495 23.2304ZM8.10495 19.3234C7.86346 19.3234 7.62739 19.395 7.4266 19.5292C7.2258 19.6633 7.0693 19.854 6.97689 20.0771C6.88448 20.3003 6.86029 20.5458 6.90741 20.7826C6.95452 21.0195 7.07081 21.237 7.24157 21.4078C7.41233 21.5785 7.62989 21.6948 7.86674 21.7419C8.10359 21.7891 8.34909 21.7649 8.5722 21.6725C8.79531 21.58 8.98601 21.4235 9.12017 21.2228C9.25434 21.022 9.32595 20.7859 9.32595 20.5444C9.32595 20.2206 9.19731 19.91 8.96832 19.681C8.73934 19.452 8.42878 19.3234 8.10495 19.3234Z" fill="#3D444F"/>
<path d="M15.9194 23.2304C15.3882 23.2304 14.8688 23.0729 14.4271 22.7777C13.9854 22.4826 13.6412 22.0631 13.4379 21.5723C13.2346 21.0815 13.1814 20.5414 13.285 20.0204C13.3887 19.4994 13.6445 19.0208 14.0201 18.6451C14.3958 18.2695 14.8744 18.0137 15.3954 17.91C15.9164 17.8064 16.4565 17.8596 16.9473 18.0629C17.4381 18.2662 17.8576 18.6104 18.1527 19.0521C18.4479 19.4938 18.6054 20.0132 18.6054 20.5444C18.6055 20.8972 18.5361 21.2465 18.4012 21.5724C18.2663 21.8984 18.0684 22.1945 17.819 22.444C17.5695 22.6934 17.2734 22.8913 16.9474 23.0262C16.6215 23.1611 16.2722 23.2305 15.9194 23.2304ZM15.9194 19.3234C15.6779 19.3234 15.4418 19.395 15.241 19.5292C15.0403 19.6633 14.8838 19.854 14.7913 20.0771C14.6989 20.3003 14.6747 20.5458 14.7219 20.7826C14.769 21.0195 14.8853 21.237 15.056 21.4078C15.2268 21.5785 15.4443 21.6948 15.6812 21.7419C15.918 21.7891 16.1635 21.7649 16.3867 21.6725C16.6098 21.58 16.8005 21.4235 16.9346 21.2228C17.0688 21.022 17.1404 20.7859 17.1404 20.5444C17.1404 20.2206 17.0118 19.91 16.7828 19.681C16.5538 19.452 16.2432 19.3234 15.9194 19.3234Z" fill="#3D444F"/>
<path d="M21.7806 15.4174H18.8496C18.397 15.4153 17.9635 15.2346 17.6435 14.9146C17.3235 14.5945 17.1427 14.161 17.1406 13.7084V10.7764C17.1427 10.3238 17.3235 9.89035 17.6435 9.57031C17.9635 9.25026 18.397 9.06953 18.8496 9.06743H20.1096C20.2391 9.06595 20.3666 9.09968 20.4785 9.16503C20.5903 9.23037 20.6823 9.32487 20.7446 9.43843L22.4146 12.3684C22.4772 12.4787 22.5116 12.6027 22.5146 12.7294V14.6824C22.5138 14.8769 22.4363 15.0633 22.2988 15.2009C22.1614 15.3386 21.9751 15.4164 21.7806 15.4174ZM18.8496 10.5324C18.8175 10.5322 18.7857 10.5383 18.7559 10.5505C18.7262 10.5626 18.6992 10.5806 18.6765 10.6033C18.6538 10.626 18.6358 10.653 18.6237 10.6827C18.6115 10.7125 18.6054 10.7443 18.6056 10.7764V13.7064C18.6054 13.7385 18.6115 13.7704 18.6237 13.8001C18.6358 13.8298 18.6538 13.8568 18.6765 13.8796C18.6992 13.9023 18.7262 13.9202 18.7559 13.9324C18.7857 13.9446 18.8175 13.9507 18.8496 13.9504H21.0496V12.9254L19.6806 10.5324H18.8496Z" fill="#3D444F"/>
<path d="M8.10542 9.55559H2.24542C2.14695 9.55923 2.04876 9.54297 1.95671 9.5078C1.86466 9.47263 1.78065 9.41926 1.7097 9.35088C1.63875 9.2825 1.58231 9.20052 1.54377 9.10984C1.50522 9.01915 1.48535 8.92163 1.48535 8.82309C1.48535 8.72455 1.50522 8.62702 1.54377 8.53634C1.58231 8.44565 1.63875 8.36367 1.7097 8.2953C1.78065 8.22692 1.86466 8.17355 1.95671 8.13837C2.04876 8.1032 2.14695 8.08695 2.24542 8.09059H8.10542C8.20389 8.08695 8.30208 8.1032 8.39413 8.13837C8.48618 8.17355 8.57019 8.22692 8.64114 8.2953C8.71209 8.36367 8.76853 8.44565 8.80708 8.53634C8.84562 8.62702 8.86549 8.72455 8.86549 8.82309C8.86549 8.92163 8.84562 9.01915 8.80708 9.10984C8.76853 9.20052 8.71209 9.2825 8.64114 9.35088C8.57019 9.41926 8.48618 9.47263 8.39413 9.5078C8.30208 9.54297 8.20389 9.55923 8.10542 9.55559Z" fill="#3D444F"/>
<path d="M6.15242 12.4865H2.24542C2.14695 12.4901 2.04876 12.4739 1.95671 12.4387C1.86466 12.4035 1.78065 12.3502 1.7097 12.2818C1.63875 12.2134 1.58231 12.1314 1.54377 12.0407C1.50522 11.9501 1.48535 11.8525 1.48535 11.754C1.48535 11.6555 1.50522 11.5579 1.54377 11.4672C1.58231 11.3766 1.63875 11.2946 1.7097 11.2262C1.78065 11.1578 1.86466 11.1045 1.95671 11.0693C2.04876 11.0341 2.14695 11.0179 2.24542 11.0215H6.15242C6.34201 11.0285 6.5215 11.1087 6.65314 11.2453C6.78479 11.382 6.85835 11.5643 6.85835 11.754C6.85835 11.9437 6.78479 12.126 6.65314 12.2626C6.5215 12.3992 6.34201 12.4795 6.15242 12.4865Z" fill="#3D444F"/>
<path d="M4.19842 15.4164H2.24542C2.14695 15.4201 2.04876 15.4038 1.95671 15.3686C1.86466 15.3335 1.78065 15.2801 1.7097 15.2117C1.63875 15.1433 1.58231 15.0614 1.54377 14.9707C1.50522 14.88 1.48535 14.7825 1.48535 14.6839C1.48535 14.5854 1.50522 14.4879 1.54377 14.3972C1.58231 14.3065 1.63875 14.2245 1.7097 14.1561C1.78065 14.0878 1.86466 14.0344 1.95671 13.9992C2.04876 13.964 2.14695 13.9478 2.24542 13.9514H4.19842C4.29689 13.9478 4.39508 13.964 4.48713 13.9992C4.57918 14.0344 4.66319 14.0878 4.73414 14.1561C4.80509 14.2245 4.86153 14.3065 4.90007 14.3972C4.93862 14.4879 4.95849 14.5854 4.95849 14.6839C4.95849 14.7825 4.93862 14.88 4.90007 14.9707C4.86153 15.0614 4.80509 15.1433 4.73414 15.2117C4.66319 15.2801 4.57918 15.3335 4.48713 15.3686C4.39508 15.4038 4.29689 15.4201 4.19842 15.4164Z" fill="#3D444F"/>
</svg>
