<svg width="24" height="25" viewBox="0 0 24 25" fill="none" xmlns="http://www.w3.org/2000/svg">
<path d="M15.4185 11.9997H8.58149C8.38868 11.9997 8.20376 11.9231 8.06743 11.7867C7.93109 11.6504 7.85449 11.4655 7.85449 11.2727C7.85449 11.0798 7.93109 10.8949 8.06743 10.7586C8.20376 10.6222 8.38868 10.5457 8.58149 10.5457H15.4185C15.6113 10.5457 15.7962 10.6222 15.9326 10.7586C16.0689 10.8949 16.1455 11.0798 16.1455 11.2727C16.1455 11.4655 16.0689 11.6504 15.9326 11.7867C15.7962 11.9231 15.6113 11.9997 15.4185 11.9997Z" fill="#3D444F"/>
<path d="M15.9068 22.7355C15.5707 22.735 15.2419 22.6375 14.9599 22.4545L10.7989 19.7015H7.11585C6.36997 19.7472 5.62287 19.6346 4.92358 19.3711C4.22429 19.1076 3.58861 18.6993 3.05828 18.1728C2.52794 17.6463 2.11493 17.0137 1.84635 16.3163C1.57776 15.619 1.45968 14.8727 1.49985 14.1265V8.30954C1.45983 7.56342 1.57802 6.81728 1.84667 6.12006C2.11531 5.42283 2.52835 4.7903 3.05867 4.26394C3.58899 3.73759 4.22461 3.32931 4.92383 3.06591C5.62305 2.8025 6.37006 2.68991 7.11585 2.73554H16.8828C17.6287 2.68977 18.3758 2.80224 19.0752 3.06559C19.7745 3.32893 20.4103 3.73718 20.9407 4.26355C21.4711 4.78992 21.8843 5.42251 22.153 6.1198C22.4217 6.8171 22.5399 7.56333 22.4999 8.30954V14.1265C22.5807 15.507 22.1128 16.8634 21.198 17.9004C20.2832 18.9373 18.9956 19.5707 17.6159 19.6625V21.0395C17.6173 21.347 17.5341 21.649 17.3754 21.9123C17.2166 22.1757 16.9885 22.3903 16.7158 22.5325C16.4667 22.6651 16.189 22.7347 15.9068 22.7355ZM7.11585 4.17954C6.56305 4.13918 6.00802 4.21782 5.48818 4.41017C4.96835 4.60251 4.49581 4.90408 4.10241 5.29454C3.70901 5.685 3.40391 6.15527 3.20768 6.67365C3.01144 7.19202 2.92864 7.74645 2.96485 8.29954V14.1165C2.92864 14.6696 3.01144 15.2241 3.20768 15.7424C3.40391 16.2608 3.70901 16.7311 4.10241 17.1215C4.49581 17.512 4.96835 17.8136 5.48818 18.0059C6.00802 18.1982 6.56305 18.2769 7.11585 18.2365H11.0229C11.1693 18.2349 11.3126 18.279 11.4328 18.3625L15.7799 21.2325C15.817 21.2579 15.8605 21.2723 15.9054 21.2741C15.9503 21.2759 15.9949 21.2649 16.0339 21.2425C16.0727 21.2223 16.1052 21.1917 16.1276 21.1541C16.15 21.1164 16.1615 21.0733 16.1609 21.0295V18.9645C16.163 18.7713 16.241 18.5867 16.3782 18.4507C16.5154 18.3146 16.7006 18.238 16.8938 18.2375C17.4467 18.2779 18.0017 18.1992 18.5215 18.0069C19.0413 17.8146 19.5139 17.513 19.9073 17.1225C20.3007 16.7321 20.6058 16.2618 20.802 15.7434C20.9983 15.2251 21.0811 14.6706 21.0449 14.1175V8.30054C21.0811 7.74745 20.9983 7.19302 20.802 6.67465C20.6058 6.15627 20.3007 5.686 19.9073 5.29554C19.5139 4.90508 19.0413 4.60351 18.5215 4.41117C18.0017 4.21882 17.4467 4.14018 16.8938 4.18054L7.11585 4.17954Z" fill="#3D444F"/>
</svg>
