<svg width="24" height="25" viewBox="0 0 24 25" fill="none" xmlns="http://www.w3.org/2000/svg">
<path d="M21.7812 23.2287H5.17717C4.20577 23.2285 3.27422 22.8425 2.58733 22.1556C1.90044 21.4687 1.51444 20.5371 1.51417 19.5657V2.96173C1.51053 2.86326 1.52679 2.76507 1.56196 2.67302C1.59713 2.58097 1.6505 2.49696 1.71888 2.42601C1.78726 2.35506 1.86924 2.29862 1.95992 2.26008C2.05061 2.22153 2.14813 2.20166 2.24667 2.20166C2.34521 2.20166 2.44274 2.22153 2.53342 2.26008C2.62411 2.29862 2.70609 2.35506 2.77446 2.42601C2.84284 2.49696 2.89621 2.58097 2.93139 2.67302C2.96656 2.76507 2.98281 2.86326 2.97917 2.96173V19.5617C2.97917 20.1452 3.21096 20.7048 3.62354 21.1174C4.03612 21.5299 4.5957 21.7617 5.17917 21.7617H21.7792C21.9688 21.7687 22.1482 21.849 22.2799 21.9856C22.4115 22.1222 22.4851 22.3045 22.4851 22.4942C22.4851 22.6839 22.4115 22.8663 22.2799 23.0029C22.1482 23.1395 21.9688 23.2197 21.7792 23.2267L21.7812 23.2287Z" fill="#3D444F"/>
<path d="M5.24217 18.2287C5.06833 18.2285 4.89999 18.1677 4.76617 18.0567C4.69411 17.9955 4.63489 17.9206 4.59193 17.8364C4.54897 17.7522 4.52312 17.6603 4.51587 17.566C4.50861 17.4717 4.52011 17.3769 4.54968 17.2871C4.57925 17.1973 4.62632 17.1143 4.68817 17.0427L9.14717 11.9157C9.38866 11.6403 9.68369 11.4168 10.0143 11.259C10.3449 11.1012 10.7041 11.0123 11.0702 10.9977C11.4363 10.9856 11.8012 11.0471 12.1432 11.1785C12.4852 11.3099 12.7973 11.5085 13.0612 11.7627L13.9842 12.6717C14.2254 12.9044 14.5491 13.0317 14.8842 13.0257C15.0512 13.0206 15.2153 12.9805 15.3659 12.908C15.5164 12.8355 15.6501 12.7322 15.7582 12.6047L20.2222 7.47873C20.3503 7.33482 20.5294 7.24635 20.7216 7.23198C20.9138 7.21762 21.104 7.27848 21.2522 7.40173C21.3242 7.46295 21.3835 7.53784 21.4264 7.62207C21.4694 7.7063 21.4952 7.7982 21.5025 7.89248C21.5097 7.98675 21.4982 8.08153 21.4687 8.17134C21.4391 8.26115 21.392 8.34421 21.3302 8.41573L16.8712 13.5427C16.6297 13.8182 16.3347 14.0416 16.0041 14.1995C15.6735 14.3573 15.3142 14.4462 14.9482 14.4607C14.582 14.4729 14.2171 14.4114 13.8751 14.28C13.5332 14.1486 13.221 13.9499 12.9572 13.6957L12.0442 12.7867C11.926 12.6697 11.7853 12.578 11.6306 12.5172C11.4759 12.4563 11.3104 12.4276 11.1442 12.4327C10.9771 12.4378 10.813 12.4779 10.6625 12.5505C10.5119 12.623 10.3783 12.7263 10.2702 12.8537L5.80617 17.9787C5.73403 18.0565 5.64683 18.1187 5.54987 18.1617C5.45291 18.2047 5.34822 18.2275 5.24217 18.2287Z" fill="#3D444F"/>
</svg>
