<svg width="24" height="25" viewBox="0 0 24 25" fill="none" xmlns="http://www.w3.org/2000/svg">
<path d="M17.2518 21.2246H10.9298C10.7354 21.2246 10.5489 21.1474 10.4115 21.0099C10.274 20.8725 10.1968 20.686 10.1968 20.4916C10.1968 20.2972 10.274 20.1108 10.4115 19.9733C10.5489 19.8359 10.7354 19.7586 10.9298 19.7586H17.2518C20.2418 19.7586 20.9458 19.2696 21.0238 16.6126C20.3842 16.4421 19.8191 16.0648 19.4163 15.5396C19.0135 15.0144 18.7957 14.3707 18.7969 13.7088C18.798 13.0469 19.018 12.404 19.4226 11.8802C19.8272 11.3563 20.3937 10.981 21.0338 10.8126V10.5536C21.0338 7.33864 20.4668 6.77164 17.2518 6.77164H11.7518V12.6716C11.7518 12.866 11.6746 13.0525 11.5371 13.1899C11.3996 13.3274 11.2132 13.4046 11.0188 13.4046C10.8244 13.4046 10.6379 13.3274 10.5005 13.1899C10.363 13.0525 10.2858 12.866 10.2858 12.6716V6.03964C10.2871 5.84564 10.3647 5.65996 10.5019 5.52278C10.6391 5.3856 10.8248 5.30795 11.0188 5.30664H17.2528C21.2788 5.30664 22.4998 6.52764 22.4998 10.5536V11.4536C22.4985 11.6476 22.4208 11.8333 22.2836 11.9705C22.1465 12.1077 21.9608 12.1853 21.7668 12.1866C21.3611 12.1866 20.9721 12.3478 20.6853 12.6346C20.3984 12.9215 20.2373 13.3105 20.2373 13.7161C20.2373 14.1218 20.3984 14.5108 20.6853 14.7977C20.9721 15.0845 21.3611 15.2456 21.7668 15.2456C21.9608 15.247 22.1465 15.3246 22.2836 15.4618C22.4208 15.599 22.4985 15.7846 22.4998 15.9786C22.4988 20.0036 21.2778 21.2246 17.2518 21.2246Z" fill="#3D444F"/>
<path d="M11.0176 21.2245H8.31056C6.33656 21.2245 5.32056 19.7395 4.39256 17.5115L4.20656 17.0625C4.13646 16.8828 4.14006 16.6826 4.21656 16.5055C4.29423 16.3283 4.43762 16.1881 4.61656 16.1145C5.00296 15.9592 5.31214 15.6572 5.47656 15.2745C5.55882 15.0831 5.60125 14.8769 5.60125 14.6685C5.60125 14.4602 5.55882 14.254 5.47656 14.0625C5.39861 13.8685 5.28309 13.6917 5.13665 13.5424C4.9902 13.3931 4.8157 13.2742 4.62318 13.1926C4.43066 13.1109 4.2239 13.068 4.01477 13.0665C3.80565 13.0649 3.59828 13.1047 3.40456 13.1835C3.31453 13.2201 3.21798 13.2379 3.12083 13.2358C3.02367 13.2337 2.92797 13.2119 2.83956 13.1715C2.66234 13.0939 2.52217 12.9505 2.44856 12.7715L2.28256 12.3515C0.719563 8.55153 1.40356 6.91853 5.20456 5.34553L7.78456 4.29053C7.96472 4.21734 8.1665 4.21831 8.34594 4.29323C8.52539 4.36815 8.66795 4.51096 8.74256 4.69053L11.7036 11.8625C11.7427 11.9517 11.7628 12.0481 11.7626 12.1455V14.6275C11.7626 14.8219 11.6853 15.0084 11.5479 15.1458C11.4104 15.2833 11.224 15.3605 11.0296 15.3605C10.8352 15.3605 10.6487 15.2833 10.5113 15.1458C10.3738 15.0084 10.2966 14.8219 10.2966 14.6275V12.2835L7.65556 5.92253L5.75556 6.70453C2.74556 7.94553 2.38456 8.70453 3.56656 11.6395C4.24107 11.5386 4.92996 11.6665 5.52323 12.0029C6.1165 12.3394 6.57995 12.8649 6.83956 13.4955C7.09909 14.126 7.13901 14.8254 6.95291 15.4813C6.76682 16.1371 6.36551 16.7113 5.81356 17.1115C6.75156 19.3195 7.43556 19.7595 8.30556 19.7595H10.2796V17.5595C10.2796 17.3651 10.3568 17.1787 10.4943 17.0412C10.6317 16.9038 10.8182 16.8265 11.0126 16.8265C11.207 16.8265 11.3934 16.9038 11.5309 17.0412C11.6683 17.1787 11.7456 17.3651 11.7456 17.5595V20.4915C11.7468 20.5877 11.7288 20.6831 11.6927 20.7723C11.6566 20.8614 11.6031 20.9425 11.5353 21.0107C11.4675 21.079 11.3868 21.133 11.298 21.1697C11.2091 21.2064 11.1137 21.2251 11.0176 21.2245Z" fill="#3D444F"/>
<path d="M8.25154 21.2245H8.08554C7.89114 21.2245 7.70469 21.1473 7.56723 21.0099C7.42977 20.8724 7.35254 20.6859 7.35254 20.4915C7.35254 20.2971 7.42977 20.1107 7.56723 19.9732C7.70469 19.8358 7.89114 19.7585 8.08554 19.7585H8.25154C8.44594 19.7585 8.63238 19.8358 8.76985 19.9732C8.90731 20.1107 8.98454 20.2971 8.98454 20.4915C8.98454 20.6859 8.90731 20.8724 8.76985 21.0099C8.63238 21.1473 8.44594 21.2245 8.25154 21.2245Z" fill="#3D444F"/>
</svg>
