<svg width="24" height="24" viewBox="0 0 24 24" fill="none" xmlns="http://www.w3.org/2000/svg">
<path d="M8.05496 5.51995C7.66121 5.51995 7.33496 5.1937 7.33496 4.79995V1.91995C7.33496 1.5262 7.66121 1.19995 8.05496 1.19995C8.44871 1.19995 8.77496 1.5262 8.77496 1.91995V4.79995C8.77496 5.1937 8.44871 5.51995 8.05496 5.51995Z" fill="#3D444F"/>
<path d="M15.7351 5.51995C15.3414 5.51995 15.0151 5.1937 15.0151 4.79995V1.91995C15.0151 1.5262 15.3414 1.19995 15.7351 1.19995C16.1289 1.19995 16.4551 1.5262 16.4551 1.91995V4.79995C16.4551 5.1937 16.1289 5.51995 15.7351 5.51995Z" fill="#3D444F"/>
<path d="M8.5352 13.9201C8.28545 13.9201 8.03569 13.8143 7.85344 13.6418C7.68094 13.4596 7.5752 13.2196 7.5752 12.9601C7.5752 12.8356 7.60369 12.7103 7.65169 12.5956C7.69969 12.4808 7.76719 12.3751 7.85344 12.2791C8.20894 11.9236 8.85169 11.9236 9.21694 12.2791C9.38944 12.4613 9.49519 12.7111 9.49519 12.9608C9.49519 13.0186 9.48544 13.0853 9.47569 13.1528C9.46594 13.2106 9.4472 13.2683 9.41795 13.3253C9.39845 13.3831 9.36995 13.4408 9.3317 13.4978C9.29345 13.5458 9.2552 13.5938 9.2162 13.6418C9.03395 13.8143 8.78419 13.9201 8.53444 13.9201H8.5352Z" fill="#3D444F"/>
<path d="M11.8948 13.9199C11.7703 13.9199 11.645 13.8914 11.5303 13.8434C11.4058 13.7954 11.3098 13.7279 11.2138 13.6416C11.0413 13.4594 10.9355 13.2194 10.9355 12.9599C10.9355 12.8354 10.964 12.7101 11.012 12.5954C11.06 12.4806 11.1275 12.3749 11.2138 12.2789C11.3098 12.1926 11.4058 12.1251 11.5303 12.0771C11.8858 11.9331 12.308 12.0096 12.5765 12.2789C12.749 12.4611 12.8548 12.7109 12.8548 12.9606C12.8548 13.0184 12.845 13.0851 12.8353 13.1526C12.8255 13.2104 12.8068 13.2681 12.7775 13.3251C12.758 13.3829 12.7295 13.4406 12.6913 13.4976C12.6628 13.5456 12.6148 13.5936 12.5758 13.6416C12.3935 13.8141 12.1445 13.9199 11.8948 13.9199Z" fill="#3D444F"/>
<path d="M8.53493 17.28C8.41043 17.28 8.28518 17.2515 8.17043 17.2035C8.04593 17.1555 7.94018 17.088 7.85393 17.0018C7.76768 16.9155 7.70018 16.8098 7.65218 16.6853C7.60418 16.5698 7.57568 16.4453 7.57568 16.3208C7.57568 16.1963 7.60418 16.071 7.65218 15.9563C7.70018 15.8318 7.76768 15.726 7.85393 15.6398C7.94018 15.5535 8.04593 15.486 8.17043 15.438C8.40068 15.342 8.66993 15.3323 8.90018 15.438C9.02468 15.486 9.13043 15.5535 9.21668 15.6398C9.30293 15.726 9.37043 15.8318 9.41843 15.9563C9.46643 16.0718 9.49493 16.1963 9.49493 16.3208C9.49493 16.4453 9.46643 16.5705 9.41843 16.6853C9.37043 16.8098 9.30293 16.9155 9.21668 17.0018C9.13043 17.088 9.02468 17.1555 8.90018 17.2035C8.78468 17.2515 8.65943 17.28 8.53493 17.28Z" fill="#3D444F"/>
<path d="M20.0551 9.44635H3.73514C3.34139 9.44635 3.01514 9.1201 3.01514 8.72635C3.01514 8.3326 3.34139 8.00635 3.73514 8.00635H20.0551C20.4489 8.00635 20.7751 8.3326 20.7751 8.72635C20.7751 9.1201 20.4489 9.44635 20.0551 9.44635Z" fill="#3D444F"/>
<path d="M17.655 22.7999C16.5315 22.7999 15.4665 22.3964 14.6505 21.6577C14.3047 21.3697 13.998 21.0052 13.7482 20.5822C13.326 19.8907 13.0957 19.0747 13.0957 18.2399C13.0957 15.7244 15.1402 13.6799 17.6557 13.6799C18.9615 13.6799 20.2095 14.2462 21.0735 15.2257C21.813 16.0702 22.2157 17.1359 22.2157 18.2399C22.2157 19.0754 21.9855 19.8914 21.5535 20.5919C20.7472 21.9554 19.2487 22.7999 17.655 22.7999ZM17.655 15.1199C15.9367 15.1199 14.535 16.5217 14.535 18.2399C14.535 18.8062 14.6887 19.3634 14.9865 19.8434C15.15 20.1314 15.3607 20.3714 15.591 20.5732C16.167 21.0914 16.887 21.3607 17.655 21.3607C18.759 21.3607 19.7572 20.7944 20.3235 19.8532C20.6212 19.3634 20.775 18.8167 20.775 18.2407C20.775 17.4922 20.4967 16.7624 19.9972 16.1767C19.4017 15.5047 18.5475 15.1199 17.655 15.1199Z" fill="#3D444F"/>
<path d="M17.1074 19.9102C16.9251 19.9102 16.7429 19.8427 16.5989 19.6987L15.6486 18.7484C15.3704 18.4702 15.3704 18.0089 15.6486 17.7307C15.9269 17.4524 16.3881 17.4524 16.6664 17.7307L17.1269 18.1912L18.6629 16.7707C18.9509 16.5022 19.4114 16.5209 19.6806 16.8089C19.9499 17.0969 19.9304 17.5574 19.6424 17.8267L17.5979 19.7182C17.4539 19.8427 17.2814 19.9102 17.1081 19.9102H17.1074Z" fill="#3D444F"/>
<path d="M15.1307 21.8399H8.05516C4.55116 21.8399 2.53516 19.8239 2.53516 16.3199V8.15989C2.53516 4.65589 4.55116 2.63989 8.05516 2.63989H15.7352C19.2392 2.63989 21.2552 4.65589 21.2552 8.15989V15.7056C21.2552 16.0034 21.0729 16.2719 20.7849 16.3776C20.5067 16.4834 20.1894 16.4061 19.9884 16.1759C19.3929 15.5039 18.5387 15.1199 17.6462 15.1199C15.9279 15.1199 14.5262 16.5216 14.5262 18.2399C14.5262 18.8061 14.6799 19.3634 14.9777 19.8434C15.1412 20.1314 15.3519 20.3714 15.5822 20.5731C15.8124 20.7651 15.8987 21.0816 15.7937 21.3696C15.7074 21.6479 15.4374 21.8399 15.1307 21.8399ZM8.05516 4.07989C5.30941 4.07989 3.97516 5.41414 3.97516 8.15989V16.3199C3.97516 19.0656 5.30941 20.3999 8.05516 20.3999H13.6427C13.2872 19.7474 13.0952 19.0079 13.0952 18.2399C13.0952 15.7244 15.1397 13.6799 17.6552 13.6799C18.4134 13.6799 19.1627 13.8719 19.8152 14.2274V8.15989C19.8152 5.41414 18.4809 4.07989 15.7352 4.07989H8.05516Z" fill="#3D444F"/>
<path d="M17.6548 12.7925C20.6636 12.7925 23.1019 15.2309 23.1021 18.2397C23.1021 21.2487 20.6637 23.687 17.6548 23.687C14.646 23.6869 12.2075 21.2486 12.2075 18.2397C12.2076 15.231 14.6461 12.7926 17.6548 12.7925Z" fill="white" stroke="#3D444F" stroke-width="0.625"/>
<path d="M17.655 22.56C15.2693 22.56 13.335 20.6257 13.335 18.24C13.335 15.8542 15.2693 13.92 17.655 13.92C20.0408 13.92 21.975 15.8542 21.975 18.24C21.975 20.6257 20.0408 22.56 17.655 22.56ZM17.655 24C20.8365 24 23.415 21.4215 23.415 18.24C23.415 15.0585 20.8365 12.48 17.655 12.48C14.4735 12.48 11.895 15.0585 11.895 18.24C11.895 21.4215 14.4735 24 17.655 24Z" fill="#3D444F"/>
<path d="M19.9252 20.3091C19.5922 20.3091 19.3155 20.0324 19.3155 19.6994V17.0571H16.6732C16.3402 17.0571 16.0635 16.7804 16.0635 16.4474C16.0635 16.1144 16.3402 15.8376 16.6732 15.8376H19.9252C20.2582 15.8376 20.535 16.1144 20.535 16.4474V19.6994C20.535 20.0324 20.2582 20.3091 19.9252 20.3091Z" fill="#3D444F"/>
<path d="M16.6732 17.0571C16.3402 17.0571 16.0635 16.7804 16.0635 16.4474C16.0635 16.1144 16.3402 15.8376 16.6732 15.8376H19.9252C20.2582 15.8376 20.535 16.1144 20.535 16.4474V19.6994C20.535 20.0324 20.2582 20.3091 19.9252 20.3091C19.5922 20.3091 19.3155 20.0324 19.3155 19.6994V17.0571H16.6732Z" fill="#3D444F"/>
<path d="M15.8603 21.1222C15.7058 21.1222 15.5513 21.0652 15.4291 20.9437C15.1936 20.7082 15.1936 20.3175 15.4291 20.082L19.4941 16.017C19.7296 15.7815 20.1203 15.7815 20.3558 16.017C20.5913 16.2525 20.5913 16.6432 20.3558 16.8787L16.2908 20.9437C16.1686 21.066 16.0141 21.1222 15.8603 21.1222Z" fill="#3D444F"/>
<path d="M15.4296 20.943C15.5518 21.0652 15.7063 21.1215 15.8608 21.1215C16.0153 21.1215 16.1698 21.0645 16.2913 20.943L20.3563 16.878C20.5918 16.6425 20.5918 16.2517 20.3563 16.0162C20.1208 15.7807 19.7301 15.7807 19.4946 16.0162L15.4296 20.0812C15.1941 20.3167 15.1941 20.7075 15.4296 20.943Z" fill="#3D444F"/>
</svg>
