<svg width="25" height="25" viewBox="0 0 25 25" fill="none" xmlns="http://www.w3.org/2000/svg">
<g clip-path="url(#clip0_15006_11479)">
<path d="M8.43973 6.25042C8.04598 6.25042 7.71973 5.92417 7.71973 5.53042V2.65042C7.71973 2.25667 8.04598 1.93042 8.43973 1.93042C8.83348 1.93042 9.15973 2.25667 9.15973 2.65042V5.53042C9.15973 5.92417 8.83348 6.25042 8.43973 6.25042Z" fill="#3D444F"/>
<path d="M16.1199 6.25042C15.7262 6.25042 15.3999 5.92417 15.3999 5.53042V2.65042C15.3999 2.25667 15.7262 1.93042 16.1199 1.93042C16.5137 1.93042 16.8399 2.25667 16.8399 2.65042V5.53042C16.8399 5.92417 16.5137 6.25042 16.1199 6.25042Z" fill="#3D444F"/>
<path d="M8.91996 14.6505C8.67021 14.6505 8.42046 14.5448 8.23821 14.3723C8.06571 14.19 7.95996 13.95 7.95996 13.6905C7.95996 13.566 7.98846 13.4408 8.03646 13.326C8.08446 13.2113 8.15196 13.1055 8.23821 13.0095C8.59371 12.654 9.23646 12.654 9.60171 13.0095C9.77421 13.1918 9.87996 13.4415 9.87996 13.6913C9.87996 13.749 9.87021 13.8158 9.86046 13.8833C9.85071 13.941 9.83196 13.9988 9.80271 14.0558C9.78321 14.1135 9.75471 14.1713 9.71646 14.2283C9.67821 14.2763 9.63996 14.3243 9.60096 14.3723C9.41871 14.5448 9.16896 14.6505 8.91921 14.6505H8.91996Z" fill="#3D444F"/>
<path d="M12.2796 14.6504C12.1551 14.6504 12.0298 14.6219 11.9151 14.5739C11.7906 14.5259 11.6946 14.4584 11.5986 14.3721C11.4261 14.1899 11.3203 13.9499 11.3203 13.6904C11.3203 13.5659 11.3488 13.4406 11.3968 13.3259C11.4448 13.2111 11.5123 13.1054 11.5986 13.0094C11.6946 12.9231 11.7906 12.8556 11.9151 12.8076C12.2706 12.6636 12.6928 12.7401 12.9613 13.0094C13.1338 13.1916 13.2396 13.4414 13.2396 13.6911C13.2396 13.7489 13.2298 13.8156 13.2201 13.8831C13.2103 13.9409 13.1916 13.9986 13.1623 14.0556C13.1428 14.1134 13.1143 14.1711 13.0761 14.2281C13.0476 14.2761 12.9996 14.3241 12.9606 14.3721C12.7783 14.5446 12.5293 14.6504 12.2796 14.6504Z" fill="#3D444F"/>
<path d="M8.9197 18.0105C8.7952 18.0105 8.66995 17.982 8.5552 17.934C8.4307 17.886 8.32495 17.8185 8.2387 17.7322C8.15245 17.646 8.08495 17.5402 8.03695 17.4157C7.98895 17.3002 7.96045 17.1757 7.96045 17.0512C7.96045 16.9267 7.98895 16.8015 8.03695 16.6867C8.08495 16.5622 8.15245 16.4565 8.2387 16.3702C8.32495 16.284 8.4307 16.2165 8.5552 16.1685C8.78545 16.0725 9.0547 16.0627 9.28495 16.1685C9.40945 16.2165 9.5152 16.284 9.60145 16.3702C9.6877 16.4565 9.7552 16.5622 9.8032 16.6867C9.8512 16.8022 9.8797 16.9267 9.8797 17.0512C9.8797 17.1757 9.8512 17.301 9.8032 17.4157C9.7552 17.5402 9.6877 17.646 9.60145 17.7322C9.5152 17.8185 9.40945 17.886 9.28495 17.934C9.16945 17.982 9.0442 18.0105 8.9197 18.0105Z" fill="#3D444F"/>
<path d="M20.4399 10.1768H4.1199C3.72615 10.1768 3.3999 9.85057 3.3999 9.45682C3.3999 9.06307 3.72615 8.73682 4.1199 8.73682H20.4399C20.8337 8.73682 21.1599 9.06307 21.1599 9.45682C21.1599 9.85057 20.8337 10.1768 20.4399 10.1768Z" fill="#3D444F"/>
<path d="M18.0397 23.5304C16.9162 23.5304 15.8512 23.1269 15.0352 22.3882C14.6895 22.1002 14.3827 21.7357 14.133 21.3127C13.7107 20.6212 13.4805 19.8052 13.4805 18.9704C13.4805 16.4549 15.525 14.4104 18.0405 14.4104C19.3462 14.4104 20.5942 14.9767 21.4582 15.9562C22.1977 16.8007 22.6005 17.8664 22.6005 18.9704C22.6005 19.8059 22.3702 20.6219 21.9382 21.3224C21.132 22.6859 19.6335 23.5304 18.0397 23.5304ZM18.0397 15.8504C16.3215 15.8504 14.9197 17.2522 14.9197 18.9704C14.9197 19.5367 15.0735 20.0939 15.3712 20.5739C15.5347 20.8619 15.7455 21.1019 15.9757 21.3037C16.5517 21.8219 17.2717 22.0912 18.0397 22.0912C19.1437 22.0912 20.142 21.5249 20.7082 20.5837C21.006 20.0939 21.1597 19.5472 21.1597 18.9711C21.1597 18.2226 20.8815 17.4929 20.382 16.9072C19.7865 16.2352 18.9322 15.8504 18.0397 15.8504Z" fill="#3D444F"/>
<path d="M17.4921 20.6406C17.3099 20.6406 17.1276 20.5731 16.9836 20.4291L16.0334 19.4789C15.7551 19.2006 15.7551 18.7394 16.0334 18.4611C16.3116 18.1829 16.7729 18.1829 17.0511 18.4611L17.5116 18.9216L19.0476 17.5011C19.3356 17.2326 19.7961 17.2514 20.0654 17.5394C20.3346 17.8274 20.3151 18.2879 20.0271 18.5571L17.9826 20.4486C17.8386 20.5731 17.6661 20.6406 17.4929 20.6406H17.4921Z" fill="#3D444F"/>
<path d="M15.5154 22.5704H8.43992C4.93592 22.5704 2.91992 20.5544 2.91992 17.0504V8.89036C2.91992 5.38636 4.93592 3.37036 8.43992 3.37036H16.1199C19.6239 3.37036 21.6399 5.38636 21.6399 8.89036V16.4361C21.6399 16.7339 21.4577 17.0024 21.1697 17.1081C20.8914 17.2139 20.5742 17.1366 20.3732 16.9064C19.7777 16.2344 18.9234 15.8504 18.0309 15.8504C16.3127 15.8504 14.9109 17.2521 14.9109 18.9704C14.9109 19.5366 15.0647 20.0939 15.3624 20.5739C15.5259 20.8619 15.7367 21.1019 15.9669 21.3036C16.1972 21.4956 16.2834 21.8121 16.1784 22.1001C16.0922 22.3784 15.8222 22.5704 15.5154 22.5704ZM8.43992 4.81036C5.69417 4.81036 4.35992 6.14461 4.35992 8.89036V17.0504C4.35992 19.7961 5.69417 21.1304 8.43992 21.1304H14.0274C13.6719 20.4779 13.4799 19.7384 13.4799 18.9704C13.4799 16.4549 15.5244 14.4104 18.0399 14.4104C18.7982 14.4104 19.5474 14.6024 20.1999 14.9579V8.89036C20.1999 6.14461 18.8657 4.81036 16.1199 4.81036H8.43992Z" fill="#3D444F"/>
<path d="M18.0396 13.5229C21.0484 13.5229 23.4867 15.9614 23.4868 18.9702C23.4868 21.9791 21.0485 24.4175 18.0396 24.4175C15.0307 24.4174 12.5923 21.979 12.5923 18.9702C12.5924 15.9615 15.0308 13.5231 18.0396 13.5229Z" fill="white" stroke="#3D444F" stroke-width="0.625"/>
<path d="M18.0398 23.2904C15.654 23.2904 13.7198 21.3562 13.7198 18.9704C13.7198 16.5847 15.654 14.6504 18.0398 14.6504C20.4255 14.6504 22.3598 16.5847 22.3598 18.9704C22.3598 21.3562 20.4255 23.2904 18.0398 23.2904ZM18.0398 24.7304C21.2213 24.7304 23.7998 22.1519 23.7998 18.9704C23.7998 15.7889 21.2213 13.2104 18.0398 13.2104C14.8583 13.2104 12.2798 15.7889 12.2798 18.9704C12.2798 22.1519 14.8583 24.7304 18.0398 24.7304Z" fill="#3D444F"/>
<path d="M20.31 21.0396C19.977 21.0396 19.7002 20.7629 19.7002 20.4299V17.7876H17.058C16.725 17.7876 16.4482 17.5109 16.4482 17.1779C16.4482 16.8449 16.725 16.5681 17.058 16.5681H20.31C20.643 16.5681 20.9197 16.8449 20.9197 17.1779V20.4299C20.9197 20.7629 20.643 21.0396 20.31 21.0396Z" fill="#3D444F"/>
<path d="M17.058 17.7876C16.725 17.7876 16.4482 17.5109 16.4482 17.1779C16.4482 16.8449 16.725 16.5681 17.058 16.5681H20.31C20.643 16.5681 20.9197 16.8449 20.9197 17.1779V20.4299C20.9197 20.7629 20.643 21.0396 20.31 21.0396C19.977 21.0396 19.7002 20.7629 19.7002 20.4299V17.7876H17.058Z" fill="#3D444F"/>
<path d="M16.2451 21.8527C16.0906 21.8527 15.9361 21.7957 15.8138 21.6742C15.5783 21.4387 15.5783 21.0479 15.8138 20.8124L19.8788 16.7474C20.1143 16.5119 20.5051 16.5119 20.7406 16.7474C20.9761 16.9829 20.9761 17.3737 20.7406 17.6092L16.6756 21.6742C16.5533 21.7964 16.3988 21.8527 16.2451 21.8527Z" fill="#3D444F"/>
<path d="M15.8143 21.6734C15.9366 21.7957 16.0911 21.8519 16.2456 21.8519C16.4001 21.8519 16.5546 21.7949 16.6761 21.6734L20.7411 17.6084C20.9766 17.3729 20.9766 16.9822 20.7411 16.7467C20.5056 16.5112 20.1148 16.5112 19.8793 16.7467L15.8143 20.8117C15.5788 21.0472 15.5788 21.4379 15.8143 21.6734Z" fill="#3D444F"/>
</g>
<defs>
<clipPath id="clip0_15006_11479">
<rect width="24" height="24" fill="white" transform="translate(0.384766 0.730469)"/>
</clipPath>
</defs>
</svg>
