<svg width="24" height="24" viewBox="0 0 24 24" fill="none" xmlns="http://www.w3.org/2000/svg">
<path d="M5.27991 18.6499L5.84991 16.1799C5.97991 15.5999 5.74991 14.7899 5.32991 14.3699L2.84991 11.8899C1.38991 10.4299 1.85991 8.94989 3.89991 8.60989L7.08991 8.07989C7.61991 7.98989 8.25991 7.51989 8.49991 7.02989L10.2599 3.50989C11.2099 1.59989 12.7699 1.59989 13.7299 3.50989L15.4899 7.02989C15.5999 7.25989 15.8099 7.47989 16.0399 7.66989" stroke="#3D444F" stroke-width="1.5" stroke-linecap="round" stroke-linejoin="round"/>
<path d="M20.0995 8.61011C22.1395 8.95011 22.6195 10.4301 21.1495 11.8901L18.6695 14.3701C18.2495 14.7901 18.0195 15.6001 18.1495 16.1801L18.8595 19.2501C19.4195 21.6801 18.1295 22.6201 15.9795 21.3501L12.9895 19.5801C12.4495 19.2601 11.5595 19.2601 11.0095 19.5801L8.01953 21.3501" stroke="#3D444F" stroke-width="1.5" stroke-linecap="round" stroke-linejoin="round"/>
<path d="M22 2L2 22" stroke="#3D444F" stroke-width="1.5" stroke-linecap="round" stroke-linejoin="round"/>
</svg>
