<svg width="24" height="25" viewBox="0 0 24 25" fill="none" xmlns="http://www.w3.org/2000/svg">
<path d="M5.74035 16.7305C5.85035 16.2405 5.65035 15.5405 5.30035 15.1905L2.87035 12.7605C2.11035 12.0005 1.81035 11.1905 2.03035 10.4905C2.26035 9.79047 2.97035 9.31047 4.03035 9.13047L7.15035 8.61047C7.60035 8.53047 8.15035 8.13047 8.36035 7.72047L10.0803 4.27047C10.5803 3.28047 11.2603 2.73047 12.0003 2.73047C12.7403 2.73047 13.4203 3.28047 13.9203 4.27047L15.6403 7.72047C15.7703 7.98047 16.0403 8.23047 16.3303 8.40047L5.56035 19.1705C5.42035 19.3105 5.18035 19.1805 5.22035 18.9805L5.74035 16.7305Z" fill="#3D444F"/>
<path d="M18.6998 15.1904C18.3398 15.5504 18.1398 16.2404 18.2598 16.7304L18.9498 19.7404C19.2398 20.9904 19.0598 21.9304 18.4398 22.3804C18.1898 22.5604 17.8898 22.6504 17.5398 22.6504C17.0298 22.6504 16.4298 22.4604 15.7698 22.0704L12.8398 20.3304C12.3798 20.0604 11.6198 20.0604 11.1598 20.3304L8.2298 22.0704C7.1198 22.7204 6.1698 22.8304 5.5598 22.3804C5.3298 22.2104 5.1598 21.9804 5.0498 21.6804L17.2098 9.52037C17.6698 9.06037 18.3198 8.85037 18.9498 8.96037L19.9598 9.13037C21.0198 9.31037 21.7298 9.79037 21.9598 10.4904C22.1798 11.1904 21.8798 12.0004 21.1198 12.7604L18.6998 15.1904Z" fill="#3D444F"/>
</svg>
