<svg width="25" height="25" viewBox="0 0 25 25" fill="none" xmlns="http://www.w3.org/2000/svg">
<path d="M13.3278 4.6773L15.1621 7.99453C15.4135 8.44987 16.0443 8.8824 16.5631 8.94087L19.6508 9.32901C21.6278 9.57324 22.1376 10.9763 20.7921 12.4459L18.4999 14.9356C18.1172 15.3528 17.9186 16.1488 18.0724 16.6951L18.8755 19.6262C19.5072 21.9404 18.3059 22.8996 16.1947 21.7629L13.2455 20.1747C12.7083 19.8844 11.8552 19.9266 11.3505 20.2526L8.54304 22.0698C6.53324 23.3687 5.25433 22.5136 5.69533 20.1575L6.26004 17.1756C6.36547 16.6182 6.1127 15.8404 5.69548 15.4578L3.20583 13.1655C1.74487 11.815 2.13786 10.3757 4.08464 9.96765L7.12443 9.33269C7.63744 9.22125 8.23194 8.75099 8.44067 8.27252L9.99804 4.80993C10.8356 2.9407 12.3374 2.88195 13.3278 4.6773Z" fill="#F8A754"/>
<path d="M13.8354 4.24036L15.5954 7.76036C15.8354 8.25036 16.4754 8.72036 17.0154 8.81036L20.2054 9.34036C22.2454 9.68036 22.7254 11.1604 21.2554 12.6204L18.7754 15.1004C18.3554 15.5204 18.1254 16.3304 18.2554 16.9104L18.9654 19.9804C19.5254 22.4104 18.2354 23.3504 16.0854 22.0804L13.0954 20.3104C12.5554 19.9904 11.6654 19.9904 11.1154 20.3104L8.12538 22.0804C5.98538 23.3504 4.68538 22.4004 5.24538 19.9804L5.95538 16.9104C6.08538 16.3304 5.85538 15.5204 5.43538 15.1004L2.95538 12.6204C1.49538 11.1604 1.96538 9.68036 4.00538 9.34036L7.19538 8.81036C7.72538 8.72036 8.36538 8.25036 8.60538 7.76036L10.3654 4.24036C11.3254 2.33036 12.8854 2.33036 13.8354 4.24036Z" stroke="#F8A754" stroke-width="1.5" stroke-linecap="round" stroke-linejoin="round"/>
</svg>
