<svg width="24" height="25" viewBox="0 0 24 25" fill="none" xmlns="http://www.w3.org/2000/svg">
<path d="M3.58887 4.23828L3.59473 4.23926C5.46365 4.38369 8.32884 5.33257 9.92773 6.33594L9.93555 6.34082L9.94238 6.34473L10.1553 6.46875L10.1592 6.4707C10.2967 6.54922 10.4435 6.5626 10.5225 6.56445C10.5977 6.5662 10.7429 6.56118 10.8789 6.49316L10.9004 6.48242L10.9199 6.46973L11.0615 6.38086H11.0625C12.6574 5.37977 15.5111 4.41637 17.3906 4.25H17.4971L17.5205 4.24707C18.0196 4.19921 18.5451 4.37724 18.9414 4.74512L18.9443 4.74805C19.342 5.11079 19.5615 5.61362 19.5615 6.17871V16.8799C19.5615 17.8164 18.7918 18.6836 17.874 18.7949L17.5811 18.8311H17.5762C15.687 19.0787 12.7018 20.0651 11.0254 20.9902L11.0146 20.9961C10.8984 21.0639 10.735 21.1054 10.5312 21.1055C10.3392 21.1055 10.1589 21.0604 10.0215 20.9834L10.0166 20.9805C8.3059 20.0474 5.32949 19.0699 3.44043 18.8223L3.1875 18.7871L3.17969 18.7861L3.01074 18.7568C2.17857 18.5659 1.5 17.7427 1.5 16.8711V6.16113C1.5 5.59598 1.71953 5.09324 2.11719 4.73047C2.51834 4.36456 3.03616 4.18868 3.58887 4.23828ZM17.5352 4.56152H17.4062L17.3848 4.56348C16.4847 4.64359 15.3375 4.92255 14.2363 5.29297C13.1348 5.66355 12.0396 6.13929 11.25 6.63281L11.2412 6.63867L11.2314 6.64453L11.1074 6.72949C10.7778 6.93178 10.2926 6.92774 9.98828 6.73828L9.98242 6.73438L9.97559 6.73145L9.77246 6.6123H9.77344C8.97143 6.11984 7.87003 5.6467 6.75879 5.2793C5.64821 4.91215 4.48981 4.63878 3.56738 4.56348L3.54688 4.56152H3.4209L3.27051 4.56836C2.92329 4.59906 2.60089 4.73732 2.33887 4.97656L2.33691 4.97754C2.00585 5.2822 1.83008 5.71141 1.83008 6.16113V16.8711C1.83008 17.2749 2.00169 17.646 2.24316 17.9209C2.48419 18.1952 2.82704 18.4109 3.21777 18.4658H3.22168L3.4873 18.502C5.42102 18.7598 8.42085 19.7424 10.1406 20.6797L10.1582 20.6895L10.1768 20.6973C10.2767 20.7417 10.3807 20.7632 10.4639 20.7715C10.5251 20.7776 10.6666 20.7871 10.8057 20.7314L10.835 20.7197L10.8623 20.7041C12.4726 19.8104 15.224 18.8835 17.1621 18.5586L17.5391 18.502L17.833 18.4668H17.835C18.2325 18.418 18.5785 18.1985 18.8193 17.9229C19.0606 17.6467 19.2324 17.274 19.2324 16.8711V6.16992C19.2324 5.70713 19.0533 5.29237 18.7324 4.98438L18.7256 4.97754L18.7178 4.9707L18.5879 4.86719C18.2826 4.64745 17.9186 4.54624 17.5352 4.56152Z" fill="#3D444F" stroke="#3D444F"/>
<path d="M10.5312 6.73193C10.6186 6.73199 10.6963 6.80964 10.6963 6.89697V20.1958C10.6963 20.2877 10.6229 20.3608 10.5312 20.3608C10.4439 20.3608 10.3662 20.2832 10.3662 20.1958V6.89697L10.3799 6.83447C10.4058 6.77574 10.4657 6.73193 10.5312 6.73193Z" fill="#3D444F" stroke="#3D444F"/>
<path d="M4.76807 9.39185H6.76318C6.8504 9.39206 6.92822 9.46964 6.92822 9.55688C6.92817 9.64409 6.85037 9.72171 6.76318 9.72192H4.76807C4.68073 9.72192 4.60308 9.64421 4.60303 9.55688C4.60303 9.46952 4.6807 9.39185 4.76807 9.39185Z" fill="#3D444F" stroke="#3D444F"/>
<path d="M7.42777 12.8814H4.76798C4.40447 12.8814 4.10303 12.58 4.10303 12.2165C4.10303 11.853 4.40447 11.5515 4.76798 11.5515H7.42777C7.79127 11.5515 8.09272 11.853 8.09272 12.2165C8.09272 12.58 7.79127 12.8814 7.42777 12.8814Z" fill="#3D444F"/>
<path d="M22.0567 17.9883C22.0567 19.9469 20.4688 21.5347 18.5103 21.5347C16.5517 21.5347 14.9639 19.9469 14.9639 17.9883C14.9639 16.0297 16.5517 14.4419 18.5103 14.4419C20.4688 14.4419 22.0567 16.0297 22.0567 17.9883Z" fill="white"/>
<path d="M18.2885 21.9781C16.8167 21.9781 15.4336 21.1979 14.6889 19.9301C14.2899 19.2917 14.0771 18.5381 14.0771 17.7668C14.0771 16.7472 14.4495 15.763 15.1322 14.9917C15.9301 14.0785 17.0827 13.5554 18.2885 13.5554C20.6114 13.5554 22.4998 15.4439 22.4998 17.7668C22.4998 18.5381 22.287 19.2917 21.8881 19.9389C21.6664 20.3113 21.3827 20.6482 21.0458 20.9319C20.3099 21.6057 19.3258 21.9781 18.2885 21.9781ZM18.2885 14.8853C17.464 14.8853 16.6749 15.24 16.1252 15.8694C15.6642 16.4014 15.407 17.0752 15.407 17.7668C15.407 18.2899 15.5489 18.8041 15.8237 19.2474C16.338 20.1162 17.2866 20.6482 18.2885 20.6482C18.9889 20.6482 19.6627 20.3911 20.1769 19.9301C20.4075 19.735 20.6025 19.5045 20.7444 19.2562C21.0281 18.8041 21.1699 18.2899 21.1699 17.7668C21.1699 16.1797 19.8755 14.8853 18.2885 14.8853Z" fill="#3D444F"/>
<path d="M19.2371 19.3536C19.0686 19.3536 18.9002 19.2916 18.7672 19.1586L16.8964 17.2879C16.6393 17.0308 16.6393 16.6052 16.8964 16.3481C17.1536 16.091 17.5791 16.091 17.8362 16.3481L19.707 18.2188C19.9641 18.4759 19.9641 18.9015 19.707 19.1586C19.574 19.2916 19.4055 19.3536 19.2371 19.3536Z" fill="#3D444F"/>
<path d="M17.34 19.3803C17.1715 19.3803 17.0031 19.3182 16.8701 19.1852C16.613 18.9281 16.613 18.5026 16.8701 18.2454L18.7408 16.3747C18.9979 16.1176 19.4235 16.1176 19.6806 16.3747C19.9377 16.6318 19.9377 17.0574 19.6806 17.3145L17.8099 19.1852C17.6769 19.3182 17.5084 19.3803 17.34 19.3803Z" fill="#3D444F"/>
</svg>
