<svg width="25" height="24" viewBox="0 0 25 24" fill="none" xmlns="http://www.w3.org/2000/svg">
<path fill-rule="evenodd" clip-rule="evenodd" d="M1.90137 12C1.90137 6.08579 6.73715 1.25 12.6514 1.25C18.5656 1.25 23.4014 6.08579 23.4014 12C23.4014 17.9142 18.5656 22.75 12.6514 22.75C6.73715 22.75 1.90137 17.9142 1.90137 12ZM12.6514 2.75C7.56558 2.75 3.40137 6.91421 3.40137 12C3.40137 17.0858 7.56558 21.25 12.6514 21.25C17.7372 21.25 21.9014 17.0858 21.9014 12C21.9014 6.91421 17.7372 2.75 12.6514 2.75Z" fill="#6FB44B"/>
<path fill-rule="evenodd" clip-rule="evenodd" d="M17.4322 8.64014C17.7248 8.93329 17.7244 9.40816 17.4312 9.7008L11.7612 15.3608C11.4683 15.6532 10.9937 15.653 10.701 15.3603L7.87104 12.5303C7.57814 12.2374 7.57814 11.7626 7.87104 11.4697C8.16393 11.1768 8.6388 11.1768 8.9317 11.4697L11.2318 13.7698L16.3715 8.6392C16.6647 8.34657 17.1395 8.34699 17.4322 8.64014Z" fill="#6FB44B"/>
</svg>
