<svg width="25" height="24" viewBox="0 0 25 24" fill="none" xmlns="http://www.w3.org/2000/svg">
<path d="M12.3516 2C6.83156 2 2.35156 6.48 2.35156 12C2.35156 17.52 6.83156 22 12.3516 22C17.8716 22 22.3516 17.52 22.3516 12C22.3516 6.48 17.8716 2 12.3516 2ZM9.64156 16.29L6.05156 12.7C5.66156 12.31 5.66156 11.68 6.05156 11.29C6.44156 10.9 7.07156 10.9 7.46156 11.29L10.3516 14.17L17.2316 7.29C17.6216 6.9 18.2516 6.9 18.6416 7.29C19.0316 7.68 19.0316 8.31 18.6416 8.7L11.0516 16.29C10.6716 16.68 10.0316 16.68 9.64156 16.29Z" fill="#6FB44B"/>
</svg>
