<svg width="24" height="25" viewBox="0 0 24 25" fill="none" xmlns="http://www.w3.org/2000/svg">
<path d="M12.0702 23.2318C10.5331 23.2327 9.05843 22.6234 7.97024 21.5378L3.20024 16.7698C2.62897 16.1956 2.18336 15.509 1.89173 14.7534C1.6001 13.9978 1.46882 13.1898 1.50624 12.3808L1.75924 7.11875C1.81232 5.90776 2.31713 4.76059 3.17416 3.90337C4.03119 3.04616 5.17825 2.5411 6.38924 2.48775L11.6502 2.23475C12.4589 2.19973 13.266 2.33212 14.0211 2.62362C14.7762 2.91512 15.4629 3.35945 16.0382 3.92875L20.8042 8.69575C21.8909 9.78738 22.501 11.265 22.501 12.8053C22.501 14.3455 21.8909 15.8231 20.8042 16.9148L16.1852 21.5348C15.0924 22.623 13.6125 23.2332 12.0702 23.2318ZM4.31624 15.6438L9.08223 20.4108C9.47399 20.8044 9.93968 21.1169 10.4525 21.33C10.9654 21.5432 11.5153 21.6529 12.0707 21.6529C12.6261 21.6529 13.1761 21.5432 13.6889 21.33C14.2018 21.1169 14.6675 20.8044 15.0592 20.4108L19.6782 15.7908C20.0718 15.3988 20.3842 14.933 20.5973 14.4201C20.8104 13.9072 20.9201 13.3572 20.9201 12.8018C20.9201 12.2463 20.8104 11.6963 20.5973 11.1834C20.3842 10.6705 20.0718 10.2047 19.6782 9.81275L14.9112 5.04575C14.4953 4.62925 13.9968 4.30452 13.4477 4.09249C12.8986 3.88047 12.3111 3.78585 11.7232 3.81475L6.46223 4.06775C5.64366 4.09745 4.86636 4.43458 4.28531 5.01192C3.70426 5.58926 3.36217 6.36439 3.32724 7.18275L3.07624 12.4448C3.0506 13.0347 3.14755 13.6236 3.36098 14.1742C3.57441 14.7248 3.89967 15.2252 4.31624 15.6438Z" fill="#3D444F"/>
<path d="M9.36727 13.5177C8.69086 13.5177 8.02963 13.3172 7.46722 12.9414C6.9048 12.5656 6.46645 12.0314 6.2076 11.4065C5.94875 10.7816 5.88102 10.0939 6.01298 9.43053C6.14494 8.76711 6.47067 8.15773 6.94896 7.67943C7.42726 7.20114 8.03664 6.87541 8.70006 6.74345C9.36347 6.61149 10.0511 6.67922 10.676 6.93807C11.301 7.19692 11.8351 7.63527 12.2109 8.19769C12.5867 8.7601 12.7873 9.42132 12.7873 10.0977C12.7854 11.0042 12.4245 11.873 11.7835 12.514C11.1426 13.155 10.2737 13.5159 9.36727 13.5177ZM9.36727 8.25574C9.00287 8.25554 8.6466 8.36343 8.34353 8.56575C8.04046 8.76808 7.80421 9.05575 7.66467 9.39237C7.52513 9.72899 7.48857 10.0994 7.55961 10.4568C7.63065 10.8143 7.80611 11.1426 8.06378 11.4002C8.32144 11.6579 8.64975 11.8333 9.00716 11.9044C9.36456 11.9754 9.73501 11.9389 10.0716 11.7993C10.4083 11.6598 10.6959 11.4235 10.8983 11.1205C11.1006 10.8174 11.2085 10.4611 11.2083 10.0967C11.2059 9.6092 11.0112 9.14231 10.6664 8.79757C10.3217 8.45282 9.8548 8.2581 9.36727 8.25574Z" fill="#3D444F"/>
</svg>
