<svg width="24" height="25" viewBox="0 0 24 25" fill="none" xmlns="http://www.w3.org/2000/svg">
<path d="M21.7668 22.9694H2.23279C2.0432 22.9624 1.86371 22.8821 1.73206 22.7455C1.60041 22.6089 1.52686 22.4266 1.52686 22.2369C1.52686 22.0472 1.60041 21.8649 1.73206 21.7282C1.86371 21.5916 2.0432 21.5114 2.23279 21.5044H21.7668C21.9564 21.5114 22.1359 21.5916 22.2675 21.7282C22.3992 21.8649 22.4727 22.0472 22.4727 22.2369C22.4727 22.4266 22.3992 22.6089 22.2675 22.7455C22.1359 22.8821 21.9564 22.9624 21.7668 22.9694Z" fill="#3D444F"/>
<path d="M3.89273 22.2373H2.42773L2.47673 10.4873C2.47611 10.0798 2.56912 9.67762 2.74857 9.31178C2.92802 8.94594 3.18913 8.62622 3.51173 8.37728L10.3487 3.05428C10.8214 2.68939 11.4016 2.49146 11.9987 2.49146C12.5958 2.49146 13.1761 2.68939 13.6487 3.05428L20.4877 8.36728C20.8091 8.61993 21.0695 8.94168 21.2495 9.30869C21.4295 9.67569 21.5246 10.0785 21.5277 10.4873V22.2373H20.0577V10.4963C20.0563 10.3104 20.0135 10.1271 19.9324 9.95985C19.8512 9.79258 19.7338 9.64549 19.5887 9.52928L12.7517 4.21628C12.5366 4.05102 12.273 3.96143 12.0017 3.96143C11.7305 3.96143 11.4668 4.05102 11.2517 4.21628L4.41073 9.53928C4.26508 9.65277 4.14716 9.79791 4.06591 9.96372C3.98465 10.1295 3.94219 10.3116 3.94173 10.4963L3.89273 22.2373Z" fill="#3D444F"/>
<path d="M16.8838 22.9693H7.11679C6.92279 22.968 6.73711 22.8903 6.59993 22.7532C6.46275 22.616 6.3851 22.4303 6.38379 22.2363V12.9583C6.38379 12.3748 6.61557 11.8152 7.02815 11.4027C7.44073 10.9901 8.00031 10.7583 8.58379 10.7583H15.4208C16.0043 10.7583 16.5638 10.9901 16.9764 11.4027C17.389 11.8152 17.6208 12.3748 17.6208 12.9583V22.2373C17.6192 22.4318 17.5409 22.6178 17.4029 22.7549C17.2649 22.892 17.0783 22.969 16.8838 22.9693ZM7.84879 21.5043H16.1488V12.9583C16.1475 12.7643 16.0698 12.5786 15.9327 12.4414C15.7955 12.3043 15.6098 12.2266 15.4158 12.2253H8.58179C8.38779 12.2266 8.20211 12.3043 8.06493 12.4414C7.92775 12.5786 7.8501 12.7643 7.84879 12.9583V21.5043Z" fill="#3D444F"/>
<path d="M10.047 18.8184C9.85349 18.8171 9.66826 18.7399 9.53116 18.6033C9.39406 18.4668 9.31607 18.2819 9.31398 18.0884V16.6214C9.31034 16.5229 9.32659 16.4247 9.36176 16.3327C9.39693 16.2406 9.45031 16.1566 9.51868 16.0857C9.58706 16.0147 9.66904 15.9583 9.75973 15.9197C9.85041 15.8812 9.94794 15.8613 10.0465 15.8613C10.145 15.8613 10.2425 15.8812 10.3332 15.9197C10.4239 15.9583 10.5059 16.0147 10.5743 16.0857C10.6426 16.1566 10.696 16.2406 10.7312 16.3327C10.7664 16.4247 10.7826 16.5229 10.779 16.6214V18.0884C10.7769 18.2817 10.699 18.4665 10.5622 18.603C10.4253 18.7395 10.2403 18.8168 10.047 18.8184Z" fill="#3D444F"/>
<path d="M13.4645 8.80632H10.5345C10.345 8.79931 10.1655 8.71907 10.0338 8.58247C9.90217 8.44586 9.82861 8.26354 9.82861 8.07382C9.82861 7.8841 9.90217 7.70178 10.0338 7.56517C10.1655 7.42857 10.345 7.34833 10.5345 7.34132H13.4645C13.563 7.33768 13.6612 7.35393 13.7533 7.38911C13.8453 7.42428 13.9293 7.47765 14.0003 7.54603C14.0712 7.61441 14.1276 7.69639 14.1662 7.78707C14.2047 7.87776 14.2246 7.97528 14.2246 8.07382C14.2246 8.17236 14.2047 8.26988 14.1662 8.36057C14.1276 8.45125 14.0712 8.53324 14.0003 8.60161C13.9293 8.66999 13.8453 8.72336 13.7533 8.75853C13.6612 8.79371 13.563 8.80996 13.4645 8.80632Z" fill="#3D444F"/>
</svg>
