<svg width="25" height="25" viewBox="0 0 25 25" fill="none" xmlns="http://www.w3.org/2000/svg">
<g clip-path="url(#clip0_9492_7245)">
<path d="M19.8048 12.4805H16.3848C15.9748 12.4805 15.6348 12.1405 15.6348 11.7305V4.74047C15.6348 4.00047 15.9248 3.31047 16.4448 2.79047C16.9648 2.27047 17.6548 1.98047 18.3948 1.98047H18.4048C19.6548 1.99047 20.8348 2.48047 21.7348 3.37047C22.6348 4.28047 23.1248 5.48047 23.1248 6.73047V9.15047C23.1348 11.1405 21.7948 12.4805 19.8048 12.4805ZM17.1348 10.9805H19.8048C20.9648 10.9805 21.6348 10.3105 21.6348 9.15047V6.73047C21.6348 5.87047 21.2948 5.05047 20.6848 4.43047C20.0748 3.83047 19.2548 3.49047 18.4048 3.48047C18.4048 3.48047 18.4048 3.48047 18.3948 3.48047C18.0648 3.48047 17.7448 3.61047 17.5048 3.85047C17.2648 4.09047 17.1348 4.40047 17.1348 4.74047V10.9805Z" fill="#3D444F"/>
<path d="M9.38453 24.0605C8.91453 24.0605 8.47453 23.8805 8.14453 23.5405L6.48453 21.8705C6.39453 21.7805 6.25453 21.7705 6.15453 21.8505L4.44453 23.1305C3.91453 23.5305 3.21453 23.6005 2.61453 23.3005C2.01453 23.0005 1.64453 22.4005 1.64453 21.7305V6.73047C1.64453 3.71047 3.37453 1.98047 6.39453 1.98047H18.3946C18.8046 1.98047 19.1446 2.32047 19.1446 2.73047C19.1446 3.14047 18.8046 3.48047 18.3946 3.48047C17.7046 3.48047 17.1446 4.04047 17.1446 4.73047V21.7305C17.1446 22.4005 16.7746 23.0005 16.1746 23.3005C15.5746 23.6005 14.8746 23.5405 14.3446 23.1405L12.6346 21.8605C12.5346 21.7805 12.3946 21.8005 12.3146 21.8805L10.6346 23.5605C10.2945 23.8805 9.85453 24.0605 9.38453 24.0605ZM6.29453 20.3005C6.75453 20.3005 7.20453 20.4705 7.54453 20.8205L9.20453 22.4905C9.26453 22.5505 9.34453 22.5605 9.38453 22.5605C9.42453 22.5605 9.50453 22.5505 9.56453 22.4905L11.2446 20.8105C11.8646 20.1905 12.8446 20.1305 13.5346 20.6605L15.2346 21.9305C15.3446 22.0105 15.4446 21.9805 15.4946 21.9505C15.5446 21.9205 15.6346 21.8605 15.6346 21.7305V4.73047C15.6346 4.28047 15.7446 3.85047 15.9346 3.48047H6.38453C4.16453 3.48047 3.13453 4.51047 3.13453 6.73047V21.7305C3.13453 21.8705 3.22453 21.9305 3.27453 21.9605C3.33453 21.9905 3.43453 22.0105 3.53453 21.9305L5.24453 20.6505C5.55453 20.4205 5.92453 20.3005 6.29453 20.3005Z" fill="#3D444F"/>
<path d="M11.8154 14.8105C11.2554 14.8105 10.8154 14.3605 10.8154 13.8105C10.8154 13.2605 11.2654 12.8105 11.8154 12.8105C12.3654 12.8105 12.8154 13.2605 12.8154 13.8105C12.8154 14.3605 12.3654 14.8105 11.8154 14.8105Z" fill="#3D444F"/>
<path d="M6.9541 10.7605C6.3941 10.7605 5.9541 10.3105 5.9541 9.7605C5.9541 9.2105 6.4041 8.7605 6.9541 8.7605C7.5041 8.7605 7.9541 9.2105 7.9541 9.7605C7.9541 10.3105 7.5041 10.7605 6.9541 10.7605Z" fill="#3D444F"/>
<path d="M6.65473 15.2105C6.46473 15.2105 6.27473 15.1405 6.12473 14.9905C5.83473 14.7005 5.83473 14.2205 6.12473 13.9305L11.5848 8.47043C11.8748 8.18043 12.3548 8.18043 12.6448 8.47043C12.9348 8.76043 12.9348 9.24043 12.6448 9.53043L7.18473 14.9905C7.04473 15.1305 6.84473 15.2105 6.65473 15.2105Z" fill="#3D444F"/>
</g>
<defs>
<clipPath id="clip0_9492_7245">
<rect width="24" height="24" fill="white" transform="translate(0.384766 0.730469)"/>
</clipPath>
</defs>
</svg>
