<svg width="24" height="25" viewBox="0 0 24 25" fill="none" xmlns="http://www.w3.org/2000/svg">
<path d="M17.8501 20.6806L13.4251 16.2556L15.5251 14.1556L19.9501 18.5806C20.2334 18.8639 20.3751 19.2139 20.3751 19.6306C20.3751 20.0472 20.2334 20.3972 19.9501 20.6806C19.6667 20.9639 19.3167 21.1056 18.9001 21.1056C18.4834 21.1056 18.1334 20.9639 17.8501 20.6806ZM4.05007 20.6806C3.76673 20.3972 3.62507 20.0472 3.62507 19.6306C3.62507 19.2139 3.76673 18.8639 4.05007 18.5806L9.90006 12.7306L8.20007 11.0306C8.01673 11.2139 7.7834 11.3056 7.50007 11.3056C7.21673 11.3056 6.9834 11.2139 6.80007 11.0306L6.22507 10.4556V12.7056C6.22507 12.9389 6.12507 13.0972 5.92507 13.1806C5.72507 13.2639 5.54173 13.2222 5.37507 13.0556L2.65007 10.3306C2.4834 10.1639 2.44173 9.98057 2.52507 9.78057C2.6084 9.58057 2.76673 9.48057 3.00007 9.48057H5.25007L4.70007 8.93057C4.50007 8.73057 4.40007 8.49723 4.40007 8.23057C4.40007 7.9639 4.50007 7.73057 4.70007 7.53057L7.55007 4.68057C7.8834 4.34723 8.24173 4.10557 8.62507 3.95557C9.0084 3.80557 9.40006 3.73057 9.80007 3.73057C10.1334 3.73057 10.4459 3.78057 10.7376 3.88057C11.0292 3.98057 11.3167 4.13057 11.6001 4.33057C11.7334 4.4139 11.8042 4.53057 11.8126 4.68057C11.8209 4.83057 11.7667 4.9639 11.6501 5.08057L9.75006 6.98057L10.3001 7.53057C10.4834 7.7139 10.5751 7.94723 10.5751 8.23057C10.5751 8.5139 10.4834 8.74723 10.3001 8.93057L12.0001 10.6306L14.2501 8.38057C14.1834 8.19723 14.1292 8.00557 14.0876 7.80557C14.0459 7.60557 14.0251 7.40557 14.0251 7.20557C14.0251 6.22223 14.3626 5.39307 15.0376 4.71807C15.7126 4.04307 16.5417 3.70557 17.5251 3.70557C17.6584 3.70557 17.7834 3.70973 17.9001 3.71807C18.0167 3.7264 18.1334 3.74723 18.2501 3.78057C18.4001 3.83057 18.4959 3.93473 18.5376 4.09307C18.5792 4.2514 18.5417 4.3889 18.4251 4.50557L16.8001 6.13057C16.7001 6.23057 16.6501 6.34723 16.6501 6.48057C16.6501 6.6139 16.7001 6.73057 16.8001 6.83057L17.9001 7.93057C18.0001 8.03057 18.1167 8.08057 18.2501 8.08057C18.3834 8.08057 18.5001 8.03057 18.6001 7.93057L20.2251 6.30557C20.3417 6.1889 20.4792 6.14723 20.6376 6.18057C20.7959 6.2139 20.9001 6.3139 20.9501 6.48057C20.9834 6.59723 21.0042 6.7139 21.0126 6.83057C21.0209 6.94723 21.0251 7.07223 21.0251 7.20557C21.0251 8.1889 20.6876 9.01807 20.0126 9.69307C19.3376 10.3681 18.5084 10.7056 17.5251 10.7056C17.3251 10.7056 17.1251 10.6889 16.9251 10.6556C16.7251 10.6222 16.5334 10.5639 16.3501 10.4806L6.15007 20.6806C5.86673 20.9639 5.51673 21.1056 5.10006 21.1056C4.6834 21.1056 4.3334 20.9639 4.05007 20.6806Z" fill="#3D444F"/>
</svg>
