<svg width="24" height="25" viewBox="0 0 24 25" fill="none" xmlns="http://www.w3.org/2000/svg">
<path d="M4.5 5.98047V19.4805C4.5 19.6794 4.42098 19.8702 4.28033 20.0108C4.13968 20.1514 3.94892 20.2305 3.75 20.2305C3.55108 20.2305 3.36032 20.1514 3.21967 20.0108C3.07902 19.8702 3 19.6794 3 19.4805V5.98047C3 5.78155 3.07902 5.59079 3.21967 5.45014C3.36032 5.30949 3.55108 5.23047 3.75 5.23047C3.94892 5.23047 4.13968 5.30949 4.28033 5.45014C4.42098 5.59079 4.5 5.78155 4.5 5.98047ZM12.375 11.0898L10.5 11.6992V9.73047C10.5 9.53157 10.4209 9.34077 10.2803 9.20014C10.1397 9.05952 9.9489 8.98047 9.75 8.98047C9.5511 8.98047 9.3603 9.05952 9.21968 9.20014C9.07905 9.34077 9 9.53157 9 9.73047V11.6992L7.125 11.0898C6.93578 11.0277 6.72963 11.0433 6.55188 11.133C6.37413 11.2229 6.23935 11.3797 6.17719 11.5689C6.11503 11.7581 6.13057 11.9643 6.22042 12.142C6.31026 12.3198 6.46703 12.4545 6.65625 12.5167L8.53125 13.1252L7.37438 14.7189C7.31324 14.7984 7.26865 14.8892 7.24323 14.9862C7.21782 15.0831 7.2121 15.1842 7.22641 15.2835C7.24073 15.3827 7.27479 15.478 7.32658 15.5638C7.37837 15.6496 7.44683 15.7242 7.5279 15.7831C7.60905 15.8421 7.70115 15.8841 7.79873 15.9068C7.89638 15.9295 7.99755 15.9324 8.09632 15.9154C8.1951 15.8983 8.28953 15.8616 8.37383 15.8075C8.4582 15.7533 8.53087 15.6828 8.5875 15.6002L9.74438 14.0064L10.9012 15.6002C10.9579 15.6828 11.0306 15.7533 11.1149 15.8075C11.1992 15.8616 11.2937 15.8983 11.3924 15.9154C11.4912 15.9324 11.5924 15.9295 11.69 15.9068C11.7876 15.8841 11.8797 15.8421 11.9608 15.7831C12.0419 15.7242 12.1104 15.6496 12.1621 15.5638C12.214 15.478 12.248 15.3827 12.2624 15.2835C12.2767 15.1842 12.2709 15.0831 12.2456 14.9862C12.2201 14.8892 12.1755 14.7984 12.1144 14.7189L10.9575 13.1252L12.8325 12.5167C13.0133 12.4494 13.1613 12.315 13.2457 12.1415C13.33 11.9679 13.3442 11.7685 13.2852 11.5848C13.2263 11.401 13.0988 11.247 12.9293 11.1549C12.7597 11.0627 12.5612 11.0394 12.375 11.0898ZM22.3125 11.5717C22.251 11.3842 22.1182 11.2285 21.9427 11.1383C21.7672 11.0481 21.5632 11.0307 21.375 11.0898L19.5 11.6992V9.73047C19.5 9.53157 19.4209 9.34077 19.2803 9.20014C19.1397 9.05952 18.9489 8.98047 18.75 8.98047C18.5511 8.98047 18.3603 9.05952 18.2197 9.20014C18.0791 9.34077 18 9.53157 18 9.73047V11.6992L16.125 11.0908C16.0313 11.0603 15.9326 11.0486 15.8343 11.0563C15.7361 11.064 15.6403 11.091 15.5526 11.1357C15.4648 11.1804 15.3866 11.2419 15.3227 11.3168C15.2586 11.3917 15.21 11.4785 15.1796 11.5722C15.149 11.6658 15.1373 11.7646 15.1451 11.8629C15.1528 11.9611 15.1797 12.0568 15.2244 12.1446C15.2691 12.2324 15.3307 12.3105 15.4056 12.3745C15.4804 12.4386 15.5672 12.4872 15.661 12.5177L17.536 13.1261L16.3791 14.7198C16.3179 14.7993 16.2734 14.8902 16.2479 14.9871C16.2225 15.0841 16.2168 15.1851 16.2311 15.2844C16.2455 15.3836 16.2795 15.4789 16.3312 15.5648C16.3831 15.6506 16.4516 15.7251 16.5326 15.7841C16.6137 15.843 16.7058 15.885 16.8034 15.9078C16.9011 15.9305 17.0023 15.9334 17.101 15.9163C17.1998 15.8993 17.2942 15.8626 17.3785 15.8085C17.4629 15.7543 17.5355 15.6838 17.5921 15.6011L18.7491 14.0073L19.906 15.6011C19.9626 15.6838 20.0352 15.7543 20.1196 15.8085C20.2039 15.8626 20.2983 15.8993 20.3971 15.9163C20.4958 15.9334 20.597 15.9305 20.6947 15.9078C20.7923 15.885 20.8844 15.843 20.9655 15.7841C21.0466 15.7251 21.115 15.6506 21.1669 15.5648C21.2186 15.4789 21.2527 15.3836 21.267 15.2844C21.2813 15.1851 21.2756 15.0841 21.2502 14.9871C21.2248 14.8902 21.1802 14.7993 21.1191 14.7198L19.9622 13.1261L21.8372 12.5177C22.0254 12.4549 22.1812 12.3201 22.2702 12.1428C22.3593 11.9655 22.3745 11.7602 22.3125 11.5717Z" fill="#3D444F"/>
</svg>
