<svg width="25" height="24" viewBox="0 0 25 24" fill="none" xmlns="http://www.w3.org/2000/svg">
<path d="M12.3481 22.5003C9.56337 22.5003 6.89266 21.394 4.92352 19.4249C2.95439 17.4557 1.84814 14.785 1.84814 12.0003C1.84814 9.21548 2.95439 6.54477 4.92352 4.57563C6.89266 2.6065 9.56337 1.50026 12.3481 1.50026C12.4466 1.49662 12.5448 1.51287 12.6369 1.54804C12.7289 1.58321 12.8129 1.63658 12.8839 1.70496C12.9548 1.77334 13.0113 1.85532 13.0498 1.94601C13.0883 2.03669 13.1082 2.13422 13.1082 2.23276C13.1082 2.33129 13.0883 2.42882 13.0498 2.5195C13.0113 2.61019 12.9548 2.69217 12.8839 2.76055C12.8129 2.82893 12.7289 2.8823 12.6369 2.91747C12.5448 2.95264 12.4466 2.96889 12.3481 2.96526C10.5612 2.96526 8.81437 3.49515 7.32857 4.48793C5.84277 5.48071 4.68473 6.89178 4.00089 8.54271C3.31706 10.1936 3.13813 12.0103 3.48675 13.7629C3.83537 15.5155 4.69587 17.1254 5.95943 18.389C7.223 19.6525 8.83289 20.513 10.5855 20.8617C12.3381 21.2103 14.1548 21.0313 15.8057 20.3475C17.4566 19.6637 18.8677 18.5056 19.8605 17.0198C20.8533 15.534 21.3831 13.7872 21.3831 12.0003C21.3795 11.9018 21.3958 11.8036 21.4309 11.7115C21.4661 11.6195 21.5195 11.5355 21.5879 11.4645C21.6562 11.3936 21.7382 11.3371 21.8289 11.2986C21.9196 11.2601 22.0171 11.2402 22.1156 11.2402C22.2142 11.2402 22.3117 11.2601 22.4024 11.2986C22.4931 11.3371 22.5751 11.3936 22.6434 11.4645C22.7118 11.5355 22.7652 11.6195 22.8004 11.7115C22.8355 11.8036 22.8518 11.9018 22.8481 12.0003C22.8458 14.7843 21.7388 17.4536 19.7701 19.4222C17.8015 21.3909 15.1322 22.4979 12.3481 22.5003Z" fill="#3D444F"/>
<path d="M22.0981 7.00026C21.8996 6.99895 21.7096 6.91951 21.5693 6.77914C21.4289 6.63877 21.3495 6.44876 21.3481 6.25026V3.00026H18.0981C17.8992 3.00026 17.7085 2.92124 17.5678 2.78059C17.4272 2.63993 17.3481 2.44917 17.3481 2.25026C17.3481 2.05134 17.4272 1.86058 17.5678 1.71993C17.7085 1.57927 17.8992 1.50026 18.0981 1.50026H22.0981C22.2967 1.50157 22.4867 1.581 22.627 1.72137C22.7674 1.86174 22.8468 2.05175 22.8481 2.25026V6.25026C22.8468 6.44876 22.7674 6.63877 22.627 6.77914C22.4867 6.91951 22.2967 6.99895 22.0981 7.00026Z" fill="#3D444F"/>
<path d="M17.0981 8.00026C16.9996 8.00061 16.902 7.98134 16.811 7.94357C16.72 7.90579 16.6375 7.85028 16.5681 7.78026C16.4287 7.63912 16.3504 7.44869 16.3504 7.25026C16.3504 7.05183 16.4287 6.86139 16.5681 6.72026L21.5681 1.72026C21.7103 1.58778 21.8984 1.51565 22.0927 1.51908C22.287 1.52251 22.4724 1.60122 22.6098 1.73863C22.7472 1.87605 22.8259 2.06143 22.8293 2.25573C22.8327 2.45003 22.7606 2.63808 22.6281 2.78026L17.6281 7.78026C17.5588 7.85028 17.4763 7.90579 17.3853 7.94357C17.2943 7.98134 17.1967 8.00061 17.0981 8.00026Z" fill="#3D444F"/>
<path d="M14.5571 17.6503C14.046 17.6493 13.5425 17.5256 13.0892 17.2894C12.6358 17.0533 12.2459 16.7116 11.9521 16.2933C11.8347 16.1268 11.7881 15.9206 11.8227 15.7198C11.8573 15.519 11.9702 15.3402 12.1366 15.2228C12.3031 15.1053 12.5093 15.0587 12.7101 15.0933C12.9109 15.1279 13.0897 15.2408 13.2071 15.4073C13.3459 15.6038 13.5259 15.7677 13.7345 15.8874C13.9431 16.0072 14.1754 16.08 14.415 16.1007C14.6547 16.1215 14.896 16.0897 15.1221 16.0075C15.3482 15.9253 15.5536 15.7948 15.7241 15.625C15.8945 15.4553 16.0259 15.2503 16.1089 15.0246C16.1919 14.7988 16.2247 14.5576 16.2049 14.3178C16.1851 14.0781 16.1132 13.8456 15.9943 13.6365C15.8753 13.4274 15.7121 13.2468 15.5161 13.1073C15.4335 13.049 15.3635 12.9747 15.3102 12.8888C15.257 12.8029 15.2216 12.7072 15.2061 12.6073C15.1744 12.4078 15.2221 12.2039 15.3391 12.0393C15.4097 11.9397 15.5031 11.8585 15.6115 11.8024C15.7199 11.7464 15.8401 11.7172 15.9621 11.7173C16.1227 11.7172 16.2793 11.7672 16.4101 11.8603C16.9589 12.2538 17.3687 12.8111 17.5807 13.4523C17.7927 14.0934 17.7959 14.7852 17.5898 15.4283C17.3837 16.0713 16.9791 16.6325 16.434 17.031C15.8889 17.4296 15.2314 17.645 14.5561 17.6463L14.5571 17.6503Z" fill="#3D444F"/>
<path d="M11.1201 15.6953C10.1961 15.6953 9.29283 15.4212 8.52452 14.9079C7.75621 14.3945 7.15739 13.6649 6.80378 12.8112C6.45017 11.9575 6.35765 11.0181 6.53792 10.1118C6.71819 9.20552 7.16315 8.37304 7.81654 7.71965C8.46993 7.06626 9.3024 6.6213 10.2087 6.44103C11.115 6.26076 12.0543 6.35328 12.908 6.70689C13.7617 7.0605 14.4914 7.65933 15.0048 8.42763C15.5181 9.19594 15.7921 10.0992 15.7921 11.0233C15.7906 12.2619 15.2978 13.4493 14.422 14.3251C13.5462 15.2009 12.3587 15.6937 11.1201 15.6953ZM11.1201 7.88826C10.4997 7.88865 9.89323 8.07305 9.37755 8.41812C8.86188 8.76319 8.46011 9.25344 8.22308 9.82686C7.98604 10.4003 7.92438 11.0311 8.04589 11.6396C8.1674 12.2481 8.46662 12.8068 8.90572 13.2452C9.34482 13.6836 9.90406 13.9819 10.5127 14.1025C11.1214 14.223 11.7521 14.1604 12.3252 13.9224C12.8982 13.6845 13.3878 13.2819 13.7321 12.7657C14.0763 12.2495 14.2597 11.6427 14.2591 11.0223C14.2568 10.1909 13.9251 9.39441 13.3368 8.80705C12.7485 8.21968 11.9515 7.88931 11.1201 7.88826Z" fill="#3D444F"/>
</svg>
