<svg width="24" height="24" viewBox="0 0 24 24" fill="none" xmlns="http://www.w3.org/2000/svg">
<path d="M18.9996 9.9V16.8C18.9996 17.6 18.5996 18.3 17.8996 18.6L11.3996 21.7C10.8996 21.9 10.1996 21.9 9.69961 21.7L3.19961 18.6C2.49961 18.3 2.09961 17.6 2.09961 16.8V9.3C2.09961 8.5 2.49961 7.8 3.19961 7.5L9.69961 4.4C10.1996 4.2 10.8996 4.2 11.3996 4.4L13.9996 5.7C13.9996 5.8 13.9996 5.9 13.9996 6C13.9996 8.2 15.7996 10 17.9996 10C18.3996 10 18.6996 10 18.9996 9.9Z" stroke="#3D444F" stroke-width="1.5" stroke-miterlimit="10" stroke-linejoin="round"/>
<path d="M7 10.5V13.5C7 14.6 7.9 15.5 9 15.5C10.1 15.5 11 14.6 11 13.5V10.5" stroke="#3D444F" stroke-width="1.5" stroke-miterlimit="10" stroke-linecap="round"/>
<path d="M14 10.5V15.4" stroke="#3D444F" stroke-width="1.5" stroke-miterlimit="10" stroke-linecap="round"/>
<path d="M22 6C22 7.9 20.7 9.4 19 9.9C18.7 10 18.4 10 18 10C15.8 10 14 8.2 14 6C14 5.9 14 5.8 14 5.7C14.2 3.7 15.9 2 18 2C20.2 2 22 3.8 22 6Z" stroke="#3D444F" stroke-width="1.5" stroke-miterlimit="10"/>
<path d="M16.9033 6.84961C16.913 7.06939 16.9856 7.29054 17.1484 7.46777C17.1463 7.46608 17.1437 7.46459 17.1416 7.46289C16.9933 7.3415 16.9004 7.16351 16.9004 6.89941C16.9004 6.88268 16.9022 6.86613 16.9033 6.84961ZM19.1006 6.89941C19.1006 7.16364 19.0068 7.34149 18.8584 7.46289C18.856 7.46481 18.853 7.46586 18.8506 7.46777C19.014 7.29039 19.088 7.06976 19.0977 6.84961C19.0988 6.86612 19.1006 6.88269 19.1006 6.89941ZM17.3623 4.44238C17.1834 4.6141 17.1006 4.84889 17.1006 5.09961C17.1006 5.19867 17.1085 5.32868 17.1514 5.46094C17.0485 5.38028 17 5.26949 17 5.09961C17 4.83404 17.0952 4.65196 17.2383 4.5293C17.2741 4.49856 17.3152 4.46884 17.3623 4.44238ZM18.6396 4.44434C18.6861 4.47055 18.7273 4.49892 18.7627 4.5293C18.9058 4.65196 19 4.83407 19 5.09961C19 5.17277 18.9537 5.28668 18.8643 5.4082C18.8936 5.2945 18.9004 5.18547 18.9004 5.09961C18.9003 4.84963 18.8174 4.61592 18.6396 4.44434Z" fill="#3D444F" stroke="#3D444F"/>
</svg>
