<svg width="24" height="25" viewBox="0 0 24 25" fill="none" xmlns="http://www.w3.org/2000/svg">
<path d="M10.2819 23.2305C10.1653 23.2316 10.0501 23.205 9.94576 23.1528C9.84145 23.1006 9.75102 23.0244 9.68193 22.9305L8.67093 21.5605C8.58157 21.4292 8.46434 21.3193 8.32761 21.2386C8.19088 21.1579 8.03802 21.1083 7.87993 21.0935C7.72054 21.0892 7.56223 21.1208 7.41667 21.1858C7.27111 21.2509 7.14202 21.3478 7.03893 21.4695C5.58693 23.0425 4.48593 22.9105 3.95593 22.7075C3.42593 22.5045 2.50293 21.7895 2.50293 19.5355V8.10747C2.50293 3.60047 3.78393 2.23047 7.97893 2.23047H15.5329C19.7279 2.23047 21.0089 3.60047 21.0089 8.10747V12.4315C21.0142 12.5332 20.9987 12.635 20.9634 12.7305C20.928 12.8261 20.8737 12.9135 20.8035 12.9874C20.7333 13.0612 20.6489 13.1201 20.5553 13.1603C20.4616 13.2005 20.3608 13.2212 20.2589 13.2212C20.157 13.2212 20.0562 13.2005 19.9626 13.1603C19.869 13.1201 19.7845 13.0612 19.7144 12.9874C19.6442 12.9135 19.5898 12.8261 19.5545 12.7305C19.5192 12.635 19.5037 12.5332 19.5089 12.4315V8.10747C19.5089 4.44347 18.8779 3.75347 15.5339 3.75347H7.97893C4.63493 3.75347 4.00393 4.44347 4.00393 8.10747V19.5355C4.00393 20.6015 4.26393 21.1895 4.50393 21.2815C4.68393 21.3525 5.17493 21.2515 5.93593 20.4285C6.18829 20.1442 6.5005 19.9194 6.85012 19.7701C7.19974 19.6209 7.57807 19.551 7.95793 19.5655C8.33622 19.5929 8.70378 19.7035 9.03431 19.8896C9.36485 20.0756 9.65019 20.3323 9.86993 20.6415L10.8909 22.0115C11.0107 22.1733 11.062 22.3758 11.034 22.5751C11.0059 22.7745 10.9007 22.9549 10.7409 23.0775C10.6088 23.1772 10.4475 23.231 10.2819 23.2305Z" fill="#3D444F"/>
<path d="M15.7476 8.82742H7.73756C7.53573 8.82742 7.34217 8.74724 7.19945 8.60453C7.05674 8.46181 6.97656 8.26825 6.97656 8.06642C6.97656 7.86459 7.05674 7.67103 7.19945 7.52831C7.34217 7.3856 7.53573 7.30542 7.73756 7.30542H15.7476C15.9494 7.30542 16.143 7.3856 16.2857 7.52831C16.4284 7.67103 16.5086 7.86459 16.5086 8.06642C16.5086 8.26825 16.4284 8.46181 16.2857 8.60453C16.143 8.74724 15.9494 8.82742 15.7476 8.82742Z" fill="#3D444F"/>
<path d="M14.7465 12.8875H8.73854C8.53671 12.8875 8.34315 12.8073 8.20043 12.6646C8.05772 12.5219 7.97754 12.3283 7.97754 12.1265C7.97754 11.9246 8.05772 11.7311 8.20043 11.5884C8.34315 11.4457 8.53671 11.3655 8.73854 11.3655H14.7455C14.9474 11.3655 15.1409 11.4457 15.2836 11.5884C15.4264 11.7311 15.5065 11.9246 15.5065 12.1265C15.5065 12.3283 15.4264 12.5219 15.2836 12.6646C15.1409 12.8073 14.9474 12.8875 14.7455 12.8875H14.7465Z" fill="#3D444F"/>
<path d="M14.5667 23.0634C14.3814 23.0653 14.1976 23.0304 14.026 22.9607C13.8543 22.891 13.6982 22.7879 13.5667 22.6574C13.4107 22.4932 13.2952 22.295 13.2292 22.0783C13.1632 21.8617 13.1487 21.6327 13.1867 21.4094L13.3767 20.0394C13.4428 19.6521 13.6203 19.2924 13.8877 19.0044L17.4317 15.4114C17.8076 14.9798 18.3268 14.6986 18.8937 14.6194C19.2377 14.6032 19.5809 14.6662 19.8968 14.8035C20.2127 14.9409 20.4928 15.1488 20.7157 15.4114C20.9769 15.6403 21.1828 15.9254 21.3181 16.2453C21.4533 16.5652 21.5144 16.9116 21.4967 17.2584C21.4138 17.8273 21.1381 18.3505 20.7157 18.7404L17.1717 22.3334C16.89 22.6032 16.5347 22.7835 16.1507 22.8514L14.7987 23.0444C14.7218 23.0559 14.6443 23.0622 14.5667 23.0634ZM19.0667 16.1314H19.0367C18.8234 16.1898 18.6341 16.314 18.4957 16.4864L14.9447 20.0844C14.9041 20.1346 14.8766 20.194 14.8647 20.2574L14.6847 21.5264L15.9357 21.3434C15.9972 21.3233 16.0548 21.2925 16.1057 21.2524L19.6497 17.6594C19.8185 17.5159 19.9404 17.325 19.9997 17.1114C20.0197 16.9114 19.8197 16.6644 19.6497 16.4924C19.501 16.3088 19.2932 16.1826 19.0617 16.1354L19.0667 16.1314Z" fill="#3D444F"/>
<path d="M19.6719 19.4854C19.6041 19.4861 19.5365 19.4759 19.4719 19.4554C18.8155 19.2641 18.219 18.9082 17.7389 18.4214C17.2588 17.9347 16.9111 17.3333 16.7289 16.6744C16.6754 16.4801 16.6999 16.2727 16.7973 16.0963C16.8946 15.92 17.057 15.7886 17.2499 15.7304C17.345 15.7036 17.4446 15.6961 17.5426 15.7083C17.6407 15.7204 17.7354 15.752 17.8211 15.8012C17.9069 15.8503 17.982 15.9161 18.042 15.9946C18.1021 16.0731 18.1459 16.1627 18.1709 16.2584C18.2837 16.667 18.4991 17.04 18.7966 17.3419C19.0942 17.6438 19.464 17.8646 19.8709 17.9834C20.0643 18.0407 20.2274 18.1719 20.3249 18.3486C20.4224 18.5252 20.4465 18.7331 20.3919 18.9274C20.3497 19.0865 20.2564 19.2273 20.1263 19.3282C19.9962 19.429 19.8365 19.4843 19.6719 19.4854Z" fill="#3D444F"/>
</svg>
