<svg width="24" height="25" viewBox="0 0 24 25" fill="none" xmlns="http://www.w3.org/2000/svg">
<path d="M16.885 22.2289H7.11698C2.80998 22.2289 1.50098 20.9229 1.50098 16.6289V8.83193C1.50098 4.53193 2.80998 3.23193 7.11698 3.23193H16.884C21.191 3.23193 22.5 4.53793 22.5 8.83193V16.6269C22.501 20.9229 21.192 22.2289 16.885 22.2289ZM7.11698 4.69093C3.61698 4.69093 2.96598 5.35393 2.96598 8.83193V16.6269C2.96598 20.1049 3.61998 20.7679 7.11698 20.7679H16.884C20.384 20.7679 21.035 20.1049 21.035 16.6269V8.83193C21.035 5.35393 20.381 4.69093 16.884 4.69093H7.11698Z" fill="#3D444F"/>
<path d="M18.8376 9.56283H13.9546C13.7608 9.56283 13.5748 9.48581 13.4377 9.34873C13.3006 9.21164 13.2236 9.0257 13.2236 8.83183C13.2236 8.63796 13.3006 8.45202 13.4377 8.31494C13.5748 8.17785 13.7608 8.10083 13.9546 8.10083H18.8386C19.0325 8.10083 19.2184 8.17785 19.3555 8.31494C19.4926 8.45202 19.5696 8.63796 19.5696 8.83183C19.5696 9.0257 19.4926 9.21164 19.3555 9.34873C19.2184 9.48581 19.0325 9.56283 18.8386 9.56283H18.8376Z" fill="#3D444F"/>
<path d="M18.8392 13.46H14.9322C14.7383 13.46 14.5524 13.383 14.4153 13.2459C14.2782 13.1089 14.2012 12.9229 14.2012 12.729C14.2012 12.5352 14.2782 12.3492 14.4153 12.2122C14.5524 12.0751 14.7383 11.998 14.9322 11.998H18.8392C19.033 11.998 19.219 12.0751 19.3561 12.2122C19.4932 12.3492 19.5702 12.5352 19.5702 12.729C19.5702 12.9229 19.4932 13.1089 19.3561 13.2459C19.219 13.383 19.033 13.46 18.8392 13.46Z" fill="#3D444F"/>
<path d="M18.8383 17.358H16.8853C16.6914 17.358 16.5055 17.281 16.3684 17.1439C16.2313 17.0068 16.1543 16.8209 16.1543 16.627C16.1543 16.4331 16.2313 16.2472 16.3684 16.1101C16.5055 15.973 16.6914 15.896 16.8853 15.896H18.8383C19.0322 15.896 19.2181 15.973 19.3552 16.1101C19.4923 16.2472 19.5693 16.4331 19.5693 16.627C19.5693 16.8209 19.4923 17.0068 19.3552 17.1439C19.2181 17.281 19.0322 17.358 18.8383 17.358Z" fill="#3D444F"/>
<path d="M8.58175 12.768C8.08874 12.7668 7.60714 12.6196 7.1978 12.3448C6.78845 12.07 6.46972 11.6801 6.28188 11.2243C6.09403 10.7685 6.0455 10.2672 6.14241 9.7838C6.23931 9.30041 6.47732 8.85658 6.82635 8.50839C7.17538 8.1602 7.61977 7.92326 8.1034 7.82751C8.58702 7.73177 9.08818 7.78151 9.54354 7.97045C9.99891 8.15939 10.3881 8.47905 10.6618 8.88906C10.9356 9.29906 11.0817 9.78101 11.0818 10.274C11.0802 10.936 10.8161 11.5704 10.3474 12.0379C9.87873 12.5055 9.24375 12.768 8.58175 12.768ZM8.58175 9.24102C8.37753 9.24162 8.17807 9.30273 8.00856 9.41664C7.83906 9.53055 7.70713 9.69215 7.62943 9.88102C7.55173 10.0699 7.53176 10.2775 7.57204 10.4778C7.61232 10.678 7.71104 10.8617 7.85572 11.0059C8.00041 11.15 8.18457 11.248 8.38494 11.2875C8.5853 11.327 8.79288 11.3062 8.98145 11.2278C9.17001 11.1494 9.3311 11.0168 9.44435 10.8469C9.55761 10.6769 9.61795 10.4772 9.61775 10.273C9.61565 9.99918 9.50573 9.7372 9.31181 9.54385C9.11789 9.35049 8.85559 9.24133 8.58175 9.24002V9.24102Z" fill="#3D444F"/>
<path d="M12.0006 17.679C11.8182 17.6785 11.6423 17.6104 11.507 17.488C11.3717 17.3656 11.2864 17.1975 11.2676 17.016C11.2134 16.5004 10.9823 16.0195 10.6137 15.6549C10.2452 15.2904 9.76178 15.0646 9.24565 15.016C8.79716 14.977 8.34614 14.977 7.89765 15.016C7.38091 15.0629 6.89659 15.2882 6.5277 15.6531C6.1588 16.018 5.92828 16.4998 5.87565 17.016C5.85629 17.2089 5.76107 17.3863 5.61095 17.509C5.46083 17.6317 5.26809 17.6898 5.07515 17.6705C4.8822 17.6511 4.70485 17.5559 4.58211 17.4058C4.45937 17.2556 4.40129 17.0629 4.42065 16.87C4.50663 16.0173 4.88719 15.2213 5.49682 14.6189C6.10645 14.0166 6.907 13.6457 7.76065 13.57C8.29988 13.5213 8.84241 13.5213 9.38165 13.57C10.2335 13.6507 11.0312 14.0232 11.6399 14.6246C12.2485 15.226 12.6307 16.0192 12.7216 16.87C12.7406 17.0627 12.6825 17.2551 12.5599 17.4051C12.4373 17.555 12.2603 17.6503 12.0676 17.67C12.0462 17.6775 12.0234 17.6806 12.0006 17.679Z" fill="#3D444F"/>
</svg>
