<svg width="24" height="25" viewBox="0 0 24 25" fill="none" xmlns="http://www.w3.org/2000/svg">
<path d="M15.8015 12.7292C15.8018 13.0625 15.7188 13.3905 15.56 13.6836C15.4013 13.9766 15.1718 14.2254 14.8925 14.4072L5.92347 22.9142C5.62325 23.1076 5.27649 23.2168 4.91957 23.2301C4.56265 23.2434 4.20873 23.1604 3.89494 22.9898C3.58116 22.8192 3.31906 22.5673 3.13617 22.2605C2.95327 21.9537 2.85632 21.6033 2.85547 21.2462L4.99347 4.21617C4.9945 3.85909 5.09158 3.50886 5.27455 3.20222C5.45752 2.89558 5.71962 2.64381 6.03338 2.47333C6.34714 2.30285 6.70099 2.21994 7.05782 2.23328C7.41465 2.24662 7.76132 2.35573 8.06147 2.54917L14.8925 11.0592C15.1501 11.2606 15.3636 11.5128 15.5199 11.8C15.6763 12.0872 15.7721 12.4035 15.8015 12.7292ZM4.45547 21.2352C4.45435 21.305 4.4724 21.3738 4.50767 21.4341C4.54293 21.4944 4.59405 21.5439 4.65547 21.5772C4.71705 21.6112 4.78663 21.6282 4.85697 21.6262C4.92731 21.6243 4.99585 21.6036 5.05547 21.5662L14.0245 13.0562C14.1945 12.8862 14.2065 12.8102 14.2065 12.7352C14.2065 12.6602 14.1775 12.5672 14.0245 12.4142L7.19347 3.90417C7.13385 3.86678 7.06531 3.84604 6.99497 3.84411C6.92463 3.84217 6.85505 3.85911 6.79347 3.89317C6.73098 3.92516 6.67895 3.97436 6.64352 4.03496C6.60808 4.09555 6.59071 4.16502 6.59347 4.23517L4.45547 21.2352Z" fill="#3D444F"/>
<path d="M10.2002 23.2292C9.86571 23.2288 9.53642 23.1464 9.2412 22.9892C8.92727 22.8185 8.66501 22.5666 8.48187 22.2598C8.29872 21.9529 8.20144 21.6025 8.2002 21.2452L8.4902 18.9372L10.2592 17.6212L9.8002 21.2352C9.79878 21.3052 9.8167 21.3743 9.85198 21.4348C9.88727 21.4953 9.93855 21.5449 10.0002 21.5782C10.0618 21.6111 10.1304 21.6286 10.2002 21.6292C10.2711 21.6288 10.3404 21.6084 10.4002 21.5702L19.3692 13.0602C19.5372 12.8932 19.5512 12.8162 19.5512 12.7402C19.5512 12.6642 19.5292 12.5802 19.3692 12.4202L12.5402 3.90619C12.4804 3.86802 12.4111 3.84756 12.3402 3.84719C12.2724 3.84795 12.2056 3.86438 12.1452 3.89519C12.0823 3.92697 12.03 3.97626 11.9945 4.03712C11.959 4.09798 11.9419 4.16782 11.9452 4.23819L11.4852 7.86919L10.0742 6.31519L10.3382 4.21519C10.3386 3.85785 10.4352 3.50721 10.6181 3.20018C10.8009 2.89314 11.0631 2.64105 11.3771 2.47045C11.6911 2.29984 12.0452 2.21702 12.4023 2.23071C12.7594 2.24439 13.1062 2.35406 13.4062 2.54819L20.2372 11.0582C20.4951 11.2587 20.7089 11.5102 20.8653 11.797C21.0217 12.0838 21.1173 12.3998 21.1462 12.7252C21.1457 13.0583 21.0623 13.3861 20.9037 13.679C20.745 13.9719 20.516 14.2208 20.2372 14.4032L11.2682 22.9132C10.9501 23.1194 10.5792 23.2291 10.2002 23.2292Z" fill="#3D444F"/>
</svg>
