<svg width="24" height="25" viewBox="0 0 24 25" fill="none" xmlns="http://www.w3.org/2000/svg">
<path d="M11.9995 23.2303C11.3378 23.2319 10.6877 23.0565 10.1165 22.7223L4.38251 19.3733C3.80951 19.0337 3.33465 18.5509 3.00454 17.9724C2.67442 17.3938 2.50039 16.7394 2.49951 16.0733V9.39331C2.50039 8.72722 2.67442 8.07279 3.00454 7.49426C3.33465 6.91572 3.80951 6.43295 4.38251 6.09331L10.1175 2.74331C10.6881 2.40769 11.338 2.23071 12 2.23071C12.662 2.23071 13.3119 2.40769 13.8825 2.74331L19.6175 6.09231C20.1905 6.43195 20.6654 6.91472 20.9955 7.49326C21.3256 8.07179 21.4996 8.72622 21.5005 9.39231V16.0713C21.4996 16.7374 21.3256 17.3918 20.9955 17.9704C20.6654 18.5489 20.1905 19.0317 19.6175 19.3713L13.8825 22.7203C13.3116 23.0552 12.6614 23.2313 11.9995 23.2303ZM11.9995 3.70031C11.5927 3.70205 11.1933 3.80957 10.8405 4.01231L5.10651 7.36231C4.75319 7.57061 4.4604 7.86757 4.25712 8.2238C4.05383 8.58002 3.94711 8.98316 3.94751 9.39331V16.0723C3.9483 16.4822 4.05552 16.8849 4.25869 17.2409C4.46186 17.597 4.754 17.8941 5.10651 18.1033L10.8395 21.4533C11.1908 21.6596 11.5907 21.7683 11.998 21.7683C12.4053 21.7683 12.8053 21.6596 13.1565 21.4533L18.8915 18.1043C19.2448 17.896 19.5376 17.5991 19.7409 17.2428C19.9442 16.8866 20.0509 16.4835 20.0505 16.0733V9.39331C20.0497 8.9834 19.9425 8.58072 19.7393 8.22469C19.5362 7.86867 19.244 7.57151 18.8915 7.36231L13.1585 4.01231C12.8058 3.80957 12.4064 3.70205 11.9995 3.70031Z" fill="#3D444F"/>
<path d="M11.9985 12.4882C11.4021 12.495 10.8171 12.3242 10.3179 11.9977C9.81873 11.6712 9.4279 11.2036 9.1951 10.6544C8.9623 10.1052 8.89803 9.4992 9.01047 8.9134C9.12291 8.3276 9.40698 7.78846 9.82657 7.36449C10.2462 6.94053 10.7823 6.65088 11.3669 6.53238C11.9515 6.41387 12.5582 6.47185 13.1097 6.69894C13.6613 6.92604 14.1329 7.312 14.4646 7.80777C14.7963 8.30354 14.9731 8.88673 14.9725 9.48322C14.976 10.2759 14.6648 11.0375 14.1072 11.6009C13.5496 12.1643 12.7912 12.4835 11.9985 12.4882ZM11.9985 7.93722C11.6928 7.93385 11.3929 8.0214 11.137 8.18876C10.8811 8.35611 10.6807 8.59572 10.5612 8.87718C10.4417 9.15864 10.4086 9.46925 10.4659 9.76959C10.5233 10.0699 10.6686 10.3465 10.8834 10.5641C11.0982 10.7817 11.3728 10.9306 11.6724 10.9918C11.9719 11.0531 12.283 11.024 12.566 10.9082C12.8489 10.7924 13.0911 10.5951 13.2618 10.3414C13.4325 10.0877 13.5239 9.78899 13.5245 9.48322C13.5267 9.0761 13.3672 8.68476 13.0811 8.3951C12.795 8.10544 12.4057 7.94013 11.9985 7.93722Z" fill="#3D444F"/>
<path d="M15.8635 18.0174C15.6709 18.0148 15.4871 17.9366 15.3517 17.7997C15.2162 17.6627 15.14 17.478 15.1395 17.2854C15.1395 15.9374 13.7295 14.8344 12.0015 14.8344C10.2735 14.8344 8.86353 15.9354 8.86353 17.2834C8.86353 17.4754 8.78725 17.6596 8.65147 17.7954C8.5157 17.9312 8.33154 18.0074 8.13953 18.0074C7.94751 18.0074 7.76336 17.9312 7.62758 17.7954C7.49181 17.6596 7.41553 17.4754 7.41553 17.2834C7.41553 15.1254 9.47153 13.3674 12.0015 13.3674C14.5315 13.3674 16.5875 15.1254 16.5875 17.2834C16.5875 17.4764 16.5116 17.6616 16.3761 17.7989C16.2406 17.9363 16.0565 18.0148 15.8635 18.0174Z" fill="#3D444F"/>
</svg>
