<svg width="25" height="25" viewBox="0 0 25 25" fill="none" xmlns="http://www.w3.org/2000/svg">
<path d="M18.2458 22.3505C17.3658 22.6105 16.3258 22.7305 15.1058 22.7305H9.10582C7.88582 22.7305 6.84582 22.6105 5.96582 22.3505C6.18582 19.7505 8.85582 17.7004 12.1058 17.7004C15.3558 17.7004 18.0258 19.7505 18.2458 22.3505Z" stroke="#3D444F" stroke-width="1.5" stroke-linecap="round" stroke-linejoin="round"/>
<path d="M15.1055 2.73047H9.10547C4.10547 2.73047 2.10547 4.73047 2.10547 9.73047V15.7305C2.10547 19.5105 3.24547 21.5805 5.96547 22.3505C6.18547 19.7505 8.85547 17.7004 12.1055 17.7004C15.3555 17.7004 18.0255 19.7505 18.2455 22.3505C20.9655 21.5805 22.1055 19.5105 22.1055 15.7305V9.73047C22.1055 4.73047 20.1055 2.73047 15.1055 2.73047ZM12.1055 14.9005C10.1255 14.9005 8.52547 13.2905 8.52547 11.3105C8.52547 9.33049 10.1255 7.73047 12.1055 7.73047C14.0855 7.73047 15.6855 9.33049 15.6855 11.3105C15.6855 13.2905 14.0855 14.9005 12.1055 14.9005Z" stroke="#3D444F" stroke-width="1.5" stroke-linecap="round" stroke-linejoin="round"/>
<path d="M15.6854 11.3105C15.6854 13.2905 14.0854 14.9005 12.1054 14.9005C10.1254 14.9005 8.52539 13.2905 8.52539 11.3105C8.52539 9.33049 10.1254 7.73047 12.1054 7.73047C14.0854 7.73047 15.6854 9.33049 15.6854 11.3105Z" stroke="#3D444F" stroke-width="1.5" stroke-linecap="round" stroke-linejoin="round"/>
</svg>
