<svg width="75" height="25" viewBox="0 0 75 25" fill="none" xmlns="http://www.w3.org/2000/svg">
<path d="M12 2.73047C6.48 2.73047 2 7.21047 2 12.7305C2 18.2505 6.48 22.7305 12 22.7305C17.52 22.7305 22 18.2505 22 12.7305C22 7.21047 17.52 2.73047 12 2.73047ZM9.29 17.0205L5.7 13.4305C5.31 13.0405 5.31 12.4105 5.7 12.0205C6.09 11.6305 6.72 11.6305 7.11 12.0205L10 14.9005L16.88 8.02047C17.27 7.63047 17.9 7.63047 18.29 8.02047C18.68 8.41047 18.68 9.04047 18.29 9.43047L10.7 17.0205C10.32 17.4105 9.68 17.4105 9.29 17.0205Z" fill="#6FB44B"/>
<path d="M31.861 17.7305L28.26 8.59147H30.171L32.953 15.9885H32.212L35.02 8.59147H36.905L33.265 17.7305H31.861ZM39.7043 17.8605C39.0456 17.8605 38.4606 17.7218 37.9493 17.4445C37.4379 17.1585 37.0306 16.7685 36.7273 16.2745C36.4326 15.7805 36.2853 15.2171 36.2853 14.5845C36.2853 13.9605 36.4283 13.4058 36.7143 12.9205C37.0089 12.4265 37.4076 12.0365 37.9103 11.7505C38.4129 11.4558 38.9719 11.3085 39.5873 11.3085C40.1939 11.3085 40.7269 11.4471 41.1863 11.7245C41.6543 11.9931 42.0183 12.3658 42.2783 12.8425C42.5469 13.3105 42.6813 13.8435 42.6813 14.4415C42.6813 14.5541 42.6726 14.6711 42.6553 14.7925C42.6466 14.9051 42.6249 15.0351 42.5903 15.1825L37.3123 15.1955V13.9215L41.7973 13.9085L41.1083 14.4415C41.0909 14.0688 41.0216 13.7568 40.9003 13.5055C40.7876 13.2541 40.6186 13.0635 40.3933 12.9335C40.1766 12.7948 39.9079 12.7255 39.5873 12.7255C39.2493 12.7255 38.9546 12.8035 38.7033 12.9595C38.4519 13.1068 38.2569 13.3191 38.1183 13.5965C37.9883 13.8651 37.9233 14.1858 37.9233 14.5585C37.9233 14.9398 37.9926 15.2735 38.1313 15.5595C38.2786 15.8368 38.4866 16.0535 38.7553 16.2095C39.0239 16.3568 39.3359 16.4305 39.6913 16.4305C40.0119 16.4305 40.3023 16.3785 40.5623 16.2745C40.8223 16.1618 41.0476 15.9971 41.2383 15.7805L42.2393 16.7815C41.9359 17.1368 41.5633 17.4055 41.1213 17.5875C40.6879 17.7695 40.2156 17.8605 39.7043 17.8605ZM43.7345 17.7305V11.4515H45.4375V17.7305H43.7345ZM45.4375 14.2595L44.7745 13.8175C44.8525 13.0461 45.0778 12.4395 45.4505 11.9975C45.8231 11.5468 46.3605 11.3215 47.0625 11.3215C47.3658 11.3215 47.6388 11.3735 47.8815 11.4775C48.1241 11.5728 48.3451 11.7331 48.5445 11.9585L47.4785 13.1805C47.3831 13.0765 47.2661 12.9985 47.1275 12.9465C46.9975 12.8945 46.8458 12.8685 46.6725 12.8685C46.3085 12.8685 46.0095 12.9855 45.7755 13.2195C45.5501 13.4448 45.4375 13.7915 45.4375 14.2595ZM49.1427 17.7305V11.4515H50.8587V17.7305H49.1427ZM50.0007 10.4375C49.7233 10.4375 49.4937 10.3465 49.3117 10.1645C49.1297 9.9738 49.0387 9.7398 49.0387 9.46247C49.0387 9.1938 49.1297 8.96413 49.3117 8.77347C49.4937 8.5828 49.7233 8.48747 50.0007 8.48747C50.2867 8.48747 50.5163 8.5828 50.6897 8.77347C50.8717 8.96413 50.9627 9.1938 50.9627 9.46247C50.9627 9.7398 50.8717 9.9738 50.6897 10.1645C50.5163 10.3465 50.2867 10.4375 50.0007 10.4375ZM53.1993 17.7305V10.5805C53.1993 10.1298 53.2989 9.7268 53.4983 9.37147C53.6976 9.00747 53.9749 8.72147 54.3303 8.51347C54.6943 8.2968 55.1233 8.18847 55.6173 8.18847C55.9293 8.18847 56.2066 8.23613 56.4493 8.33147C56.7006 8.4268 56.9389 8.56547 57.1643 8.74747L56.1893 9.94347C56.1113 9.8828 56.0246 9.83947 55.9293 9.81347C55.8426 9.7788 55.7386 9.76147 55.6173 9.76147C55.3919 9.76147 55.2143 9.8308 55.0843 9.96947C54.9629 10.0995 54.9023 10.2815 54.9023 10.5155V17.7305H53.1993ZM51.7433 12.9465V11.4515H57.9703V12.9465H51.7433ZM57.1513 17.7305V11.4515H58.8543V17.7305H57.1513ZM57.9963 10.9445C57.7276 10.9445 57.5023 10.8535 57.3203 10.6715C57.1469 10.4895 57.0603 10.2641 57.0603 9.99547C57.0603 9.7268 57.1469 9.50147 57.3203 9.31947C57.5023 9.13747 57.7276 9.04647 57.9963 9.04647C58.2736 9.04647 58.4989 9.13747 58.6723 9.31947C58.8456 9.50147 58.9323 9.7268 58.9323 9.99547C58.9323 10.2641 58.8456 10.4895 58.6723 10.6715C58.4989 10.8535 58.2736 10.9445 57.9963 10.9445ZM63.3683 17.8605C62.7097 17.8605 62.1247 17.7218 61.6133 17.4445C61.102 17.1585 60.6947 16.7685 60.3913 16.2745C60.0967 15.7805 59.9493 15.2171 59.9493 14.5845C59.9493 13.9605 60.0923 13.4058 60.3783 12.9205C60.673 12.4265 61.0717 12.0365 61.5743 11.7505C62.077 11.4558 62.636 11.3085 63.2513 11.3085C63.858 11.3085 64.391 11.4471 64.8503 11.7245C65.3183 11.9931 65.6823 12.3658 65.9423 12.8425C66.211 13.3105 66.3453 13.8435 66.3453 14.4415C66.3453 14.5541 66.3367 14.6711 66.3193 14.7925C66.3107 14.9051 66.289 15.0351 66.2543 15.1825L60.9763 15.1955V13.9215L65.4613 13.9085L64.7723 14.4415C64.755 14.0688 64.6857 13.7568 64.5643 13.5055C64.4517 13.2541 64.2827 13.0635 64.0573 12.9335C63.8407 12.7948 63.572 12.7255 63.2513 12.7255C62.9133 12.7255 62.6187 12.8035 62.3673 12.9595C62.116 13.1068 61.921 13.3191 61.7823 13.5965C61.6523 13.8651 61.5873 14.1858 61.5873 14.5585C61.5873 14.9398 61.6567 15.2735 61.7953 15.5595C61.9427 15.8368 62.1507 16.0535 62.4193 16.2095C62.688 16.3568 63 16.4305 63.3553 16.4305C63.676 16.4305 63.9663 16.3785 64.2263 16.2745C64.4863 16.1618 64.7117 15.9971 64.9023 15.7805L65.9033 16.7815C65.6 17.1368 65.2273 17.4055 64.7853 17.5875C64.352 17.7695 63.8797 17.8605 63.3683 17.8605ZM70.0505 17.8605C69.4699 17.8605 68.9499 17.7175 68.4905 17.4315C68.0312 17.1455 67.6672 16.7555 67.3985 16.2615C67.1385 15.7675 67.0085 15.2128 67.0085 14.5975C67.0085 13.9735 67.1385 13.4145 67.3985 12.9205C67.6672 12.4265 68.0269 12.0365 68.4775 11.7505C68.9369 11.4645 69.4612 11.3215 70.0505 11.3215C70.5012 11.3215 70.9042 11.4125 71.2595 11.5945C71.6235 11.7765 71.9139 12.0321 72.1305 12.3615C72.3559 12.6821 72.4772 13.0461 72.4945 13.4535V15.6895C72.4772 16.0968 72.3602 16.4651 72.1435 16.7945C71.9269 17.1238 71.6365 17.3838 71.2725 17.5745C70.9085 17.7651 70.5012 17.8605 70.0505 17.8605ZM70.3365 16.2875C70.6572 16.2875 70.9345 16.2181 71.1685 16.0795C71.4112 15.9321 71.5975 15.7328 71.7275 15.4815C71.8662 15.2215 71.9355 14.9225 71.9355 14.5845C71.9355 14.2551 71.8662 13.9648 71.7275 13.7135C71.5975 13.4535 71.4112 13.2541 71.1685 13.1155C70.9345 12.9681 70.6615 12.8945 70.3495 12.8945C70.0289 12.8945 69.7472 12.9681 69.5045 13.1155C69.2705 13.2628 69.0842 13.4621 68.9455 13.7135C68.8155 13.9648 68.7505 14.2551 68.7505 14.5845C68.7505 14.9225 68.8155 15.2215 68.9455 15.4815C69.0842 15.7328 69.2749 15.9321 69.5175 16.0795C69.7602 16.2181 70.0332 16.2875 70.3365 16.2875ZM73.5345 17.7305H71.8445V16.0405L72.1175 14.5065L71.8315 12.9985V8.33147H73.5345V17.7305Z" fill="#6FB44B"/>
</svg>
