<svg width="24" height="25" viewBox="0 0 24 25" fill="none" xmlns="http://www.w3.org/2000/svg">
<path d="M19.0539 12.2165H15.8009C15.6123 12.2149 15.4318 12.1393 15.2985 12.0059C15.1651 11.8725 15.0895 11.6921 15.0879 11.5035V4.85547C15.0892 4.15968 15.3662 3.49277 15.8582 3.00077C16.3502 2.50878 17.0171 2.23179 17.7129 2.23047H17.7229C18.9164 2.23708 20.0588 2.71612 20.9 3.56281C21.7413 4.4095 22.213 5.55491 22.2119 6.74847V9.04847C22.2381 9.47046 22.1744 9.8932 22.0251 10.2888C21.8758 10.6843 21.6443 11.0437 21.3458 11.3431C21.0473 11.6426 20.6887 11.8753 20.2936 12.0258C19.8985 12.1763 19.476 12.2413 19.0539 12.2165ZM16.5149 10.7905H19.0539C19.2883 10.8144 19.5251 10.7858 19.7471 10.7069C19.9691 10.6279 20.1707 10.5005 20.3373 10.3339C20.5039 10.1672 20.6313 9.96563 20.7103 9.74365C20.7893 9.52166 20.8178 9.28487 20.7939 9.05047V6.75047C20.7955 5.93348 20.4729 5.14923 19.897 4.56975C19.3211 3.99028 18.5389 3.66291 17.7219 3.65947H17.7119C17.3944 3.66028 17.0902 3.78685 16.8659 4.01147C16.7537 4.12185 16.6648 4.25358 16.6043 4.39887C16.5439 4.54417 16.5131 4.7001 16.5139 4.85747L16.5149 10.7905Z" fill="#3D444F"/>
<path d="M9.14323 23.2305C8.92344 23.232 8.70562 23.189 8.50296 23.1039C8.3003 23.0188 8.11703 22.8935 7.96423 22.7355L6.38523 21.1475C6.34461 21.1058 6.28995 21.0808 6.2319 21.0773C6.17385 21.0738 6.11657 21.0921 6.07123 21.1285L4.44523 22.3455C4.19823 22.5318 3.90411 22.6455 3.59598 22.6738C3.28785 22.702 2.97796 22.6437 2.70118 22.5054C2.42441 22.367 2.19174 22.1542 2.02939 21.8908C1.86704 21.6274 1.78144 21.3239 1.78223 21.0145V6.74847C1.78223 3.88047 3.42723 2.23047 6.29923 2.23047H17.7132C17.8069 2.23047 17.8997 2.24892 17.9863 2.28478C18.0728 2.32064 18.1515 2.37319 18.2178 2.43945C18.284 2.5057 18.3366 2.58436 18.3724 2.67092C18.4083 2.75749 18.4267 2.85027 18.4267 2.94397C18.4267 3.03767 18.4083 3.13045 18.3724 3.21701C18.3366 3.30358 18.284 3.38223 18.2178 3.44849C18.1515 3.51474 18.0728 3.5673 17.9863 3.60316C17.8997 3.63901 17.8069 3.65747 17.7132 3.65747C17.557 3.65721 17.4023 3.68773 17.2578 3.74731C17.1134 3.80688 16.9822 3.89433 16.8715 4.00466C16.7609 4.11499 16.6732 4.24603 16.6132 4.3903C16.5533 4.53457 16.5224 4.68924 16.5222 4.84547V21.0145C16.5232 21.324 16.4377 21.6276 16.2755 21.8912C16.1132 22.1547 15.8805 22.3677 15.6037 22.5062C15.3269 22.6446 15.017 22.703 14.7087 22.6748C14.4005 22.6466 14.1063 22.5329 13.8592 22.3465L12.2332 21.1295C12.1892 21.0963 12.1347 21.08 12.0797 21.0835C12.0247 21.087 11.9727 21.11 11.9332 21.1485L10.3332 22.7485C10.0152 23.0591 9.5878 23.2323 9.14323 23.2305ZM6.20423 19.6545C6.42557 19.6524 6.64504 19.6952 6.84939 19.7803C7.05374 19.8654 7.23874 19.9909 7.39323 20.1495L8.97223 21.7375C9.0189 21.7803 9.07991 21.804 9.14323 21.804C9.20655 21.804 9.26757 21.7803 9.31423 21.7375L10.9142 20.1375C11.1981 19.8535 11.5756 19.6823 11.9763 19.656C12.377 19.6297 12.7736 19.75 13.0922 19.9945L14.7092 21.2025C14.7435 21.2305 14.7856 21.2473 14.8298 21.2507C14.8739 21.2541 14.918 21.2439 14.9562 21.2215C14.9955 21.2023 15.0287 21.1726 15.0522 21.1357C15.0757 21.0988 15.0885 21.0562 15.0892 21.0125V4.84547C15.0888 4.43216 15.1865 4.02466 15.3742 3.65647H6.29023C4.17923 3.65647 3.19923 4.63647 3.19923 6.74747V21.0145C3.19857 21.0598 3.21069 21.1044 3.23422 21.1431C3.25774 21.1818 3.29171 21.2132 3.33223 21.2335C3.37159 21.2538 3.41615 21.262 3.46017 21.2568C3.50419 21.2516 3.54566 21.2334 3.57923 21.2045L5.20523 19.9875C5.49394 19.7723 5.84415 19.6555 6.20423 19.6545Z" fill="#3D444F"/>
<path d="M11.9976 10.3154H6.29065C6.10142 10.3154 5.91994 10.2403 5.78613 10.1064C5.65232 9.97264 5.57715 9.79116 5.57715 9.60193C5.57715 9.4127 5.65232 9.23121 5.78613 9.09741C5.91994 8.9636 6.10142 8.88843 6.29065 8.88843H11.9976C12.1869 8.88843 12.3684 8.9636 12.5022 9.09741C12.636 9.23121 12.7111 9.4127 12.7111 9.60193C12.7111 9.79116 12.636 9.97264 12.5022 10.1064C12.3684 10.2403 12.1869 10.3154 11.9976 10.3154Z" fill="#3D444F"/>
<path d="M11.2835 14.1194H7.00354C6.81431 14.1194 6.63283 14.0442 6.49902 13.9104C6.36521 13.7766 6.29004 13.5951 6.29004 13.4059C6.29004 13.2167 6.36521 13.0352 6.49902 12.9014C6.63283 12.7676 6.81431 12.6924 7.00354 12.6924H11.2835C11.4728 12.6924 11.6543 12.7676 11.7881 12.9014C11.9219 13.0352 11.997 13.2167 11.997 13.4059C11.997 13.5951 11.9219 13.7766 11.7881 13.9104C11.6543 14.0442 11.4728 14.1194 11.2835 14.1194Z" fill="#3D444F"/>
</svg>
