<svg width="25" height="25" viewBox="0 0 25 25" fill="none" xmlns="http://www.w3.org/2000/svg">
<g clip-path="url(#clip0_9497_8154)">
<path d="M10.9253 22.6705C10.6953 22.6705 10.4753 22.5705 10.3253 22.3705L9.31527 21.0205C9.10527 20.7405 8.8253 20.5805 8.5253 20.5605C8.2153 20.5405 7.92527 20.6805 7.68527 20.9305C6.23527 22.4805 5.13528 22.3505 4.60528 22.1505C4.06528 21.9405 3.15527 21.2505 3.15527 19.0305V7.77048C3.15527 3.33048 4.43527 1.98047 8.62527 1.98047H16.1753C20.3653 1.98047 21.6453 3.33048 21.6453 7.77048V12.0305C21.6453 12.4405 21.3053 12.7805 20.8953 12.7805C20.4853 12.7805 20.1453 12.4405 20.1453 12.0305V7.77048C20.1453 4.16048 19.5153 3.48047 16.1753 3.48047H8.62527C5.28527 3.48047 4.65527 4.16048 4.65527 7.77048V19.0305C4.65527 20.0805 4.91527 20.6605 5.15527 20.7505C5.33527 20.8205 5.82529 20.7205 6.58529 19.9105C7.13529 19.3305 7.85528 19.0205 8.60528 19.0605C9.34528 19.1005 10.0453 19.4905 10.5153 20.1205L11.5353 21.4705C11.7853 21.8005 11.7153 22.2705 11.3853 22.5205C11.2353 22.6305 11.0753 22.6705 10.9253 22.6705Z" fill="#3D444F"/>
<path d="M16.3848 8.48047H8.38477C7.97477 8.48047 7.63477 8.14047 7.63477 7.73047C7.63477 7.32047 7.97477 6.98047 8.38477 6.98047H16.3848C16.7948 6.98047 17.1348 7.32047 17.1348 7.73047C17.1348 8.14047 16.7948 8.48047 16.3848 8.48047Z" fill="#3D444F"/>
<path d="M15.3848 12.4805H9.38477C8.97477 12.4805 8.63477 12.1405 8.63477 11.7305C8.63477 11.3205 8.97477 10.9805 9.38477 10.9805H15.3848C15.7948 10.9805 16.1348 11.3205 16.1348 11.7305C16.1348 12.1405 15.7948 12.4805 15.3848 12.4805Z" fill="#3D444F"/>
<path d="M23.9674 19.0479C22.8494 16.9812 20.8888 15.7305 18.7192 15.7305C16.5496 15.7305 14.5857 16.9812 13.4777 19.0479L13.3848 19.2038L13.4711 19.3631C14.589 21.4298 16.5496 22.6805 18.7192 22.6805C20.8888 22.6805 22.8527 21.4464 23.9674 19.3631L24.0536 19.2038L23.9674 19.0479ZM18.7192 22.0004C16.8515 22.0004 15.1364 20.9588 14.1412 19.2038C15.1364 17.4489 16.8515 16.4073 18.7192 16.4073C20.5869 16.4073 22.2821 17.4522 23.2939 19.2038C22.2821 20.9588 20.5836 22.0004 18.7192 22.0004Z" fill="#3D444F"/>
<path fill-rule="evenodd" clip-rule="evenodd" d="M13.3031 18.9494C14.4425 16.8273 16.469 15.5305 18.7187 15.5305C20.9698 15.5305 22.9935 16.8287 24.1424 18.9519C24.1422 18.9516 24.1425 18.9522 24.1424 18.9519L24.2812 19.2028L24.1432 19.4574C24.1432 19.4576 24.1433 19.4572 24.1432 19.4574C22.9972 21.599 20.969 22.8805 18.7187 22.8805C16.4674 22.8805 14.4435 21.582 13.2947 19.4583L13.1543 19.1991L13.3031 18.9494ZM18.7187 15.9305C16.6307 15.9305 14.7305 17.1334 13.6535 19.1424L13.6492 19.1504L13.6143 19.2085L13.6464 19.2678C14.7336 21.2776 16.6309 22.4805 18.7187 22.4805C20.8075 22.4805 22.7072 21.2935 23.7906 19.2687L23.8251 19.2048L23.791 19.1431C22.7038 17.1333 20.8066 15.9305 18.7187 15.9305ZM14.3719 19.2038C15.3421 20.8415 16.9641 21.8004 18.7187 21.8004C20.4687 21.8004 22.0754 20.8428 23.0613 19.2039C22.0754 17.5678 20.4717 16.6072 18.7187 16.6072C16.9641 16.6072 15.3421 17.5661 14.3719 19.2038ZM13.9667 19.1052C14.9943 17.2931 16.7729 16.2072 18.7187 16.2072C20.6658 16.2072 22.4232 17.2975 23.4666 19.1038L23.5244 19.2037L23.4667 19.3037C22.4232 21.1137 20.6622 22.2004 18.7187 22.2004C16.7729 22.2004 14.9943 21.1145 13.9667 19.3025L13.9108 19.2038L13.9667 19.1052Z" fill="#3D444F"/>
<path d="M18.8148 16.938C18.365 16.9413 17.9263 17.0778 17.554 17.3303C17.1818 17.5828 16.8927 17.9399 16.7233 18.3566C16.5538 18.7733 16.5117 19.2309 16.6022 19.6715C16.6927 20.1121 16.9117 20.5161 17.2316 20.8324C17.5516 21.1486 17.958 21.3628 18.3996 21.4481C18.8413 21.5335 19.2983 21.4861 19.713 21.3119C20.1277 21.1375 20.4815 20.8443 20.7296 20.4691C20.9777 20.0939 21.1091 19.6537 21.1072 19.2039C21.1059 18.9045 21.0455 18.6082 20.9295 18.3321C20.8135 18.0561 20.6442 17.8057 20.4312 17.5952C20.2183 17.3847 19.9659 17.2183 19.6885 17.1055C19.4111 16.9928 19.1142 16.9358 18.8148 16.938ZM18.8148 20.8261C18.4971 20.8228 18.1874 20.7257 17.9247 20.547C17.662 20.3683 17.4579 20.1159 17.3381 19.8216C17.2183 19.5273 17.1882 19.2042 17.2515 18.8928C17.3147 18.5814 17.4686 18.2957 17.6937 18.0715C17.9189 17.8473 18.2052 17.6946 18.5169 17.6326C18.8285 17.5706 19.1515 17.602 19.4453 17.723C19.7391 17.844 19.9906 18.0491 20.1683 18.3126C20.3459 18.576 20.4417 18.8862 20.4437 19.2039C20.4446 19.4178 20.403 19.6295 20.3214 19.8272C20.2397 20.0248 20.1197 20.2043 19.9682 20.3552C19.8167 20.5061 19.6367 20.6254 19.4387 20.7063C19.2407 20.7871 19.0287 20.8279 18.8148 20.8261Z" fill="#3D444F"/>
<path fill-rule="evenodd" clip-rule="evenodd" d="M18.8141 16.7379C19.1398 16.7356 19.4628 16.7975 19.7645 16.9202C20.0663 17.0428 20.3409 17.2239 20.5725 17.4528C20.8042 17.6818 20.9884 17.9543 21.1146 18.2546C21.2408 18.5549 21.3065 18.8771 21.3079 19.2029C21.31 19.6922 21.1671 20.1712 20.8971 20.5794C20.6272 20.9875 20.2423 21.3065 19.7912 21.4961C19.3401 21.6856 18.8429 21.7373 18.3624 21.6444C17.8819 21.5516 17.4398 21.3184 17.0917 20.9744C16.7437 20.6304 16.5054 20.191 16.407 19.7116C16.3086 19.2323 16.3544 18.7345 16.5387 18.2812C16.723 17.8279 17.0375 17.4394 17.4425 17.1647C17.8474 16.89 18.3247 16.7415 18.8141 16.7379ZM19.6139 17.2907C19.3609 17.1879 19.0901 17.1359 18.817 17.1379C18.4067 17.1409 18.0065 17.2654 17.667 17.4957C17.3274 17.726 17.0637 18.0518 16.9092 18.4319C16.7547 18.8119 16.7163 19.2293 16.7988 19.6312C16.8814 20.0331 17.0811 20.4015 17.3729 20.6899C17.6647 20.9783 18.0355 21.1738 18.4383 21.2517C18.8411 21.3295 19.258 21.2862 19.6362 21.1273C20.0145 20.9684 20.3372 20.7009 20.5635 20.3587C20.7898 20.0165 20.9097 19.6149 20.9079 19.2046C20.9067 18.9315 20.8516 18.6613 20.7458 18.4095C20.64 18.1577 20.4856 17.9293 20.2914 17.7373C20.0971 17.5453 19.8669 17.3936 19.6139 17.2907ZM19.3699 17.9079C19.1125 17.8019 18.8296 17.7743 18.5566 17.8287C18.2836 17.883 18.0328 18.0167 17.8356 18.2131C17.6384 18.4095 17.5036 18.6598 17.4482 18.9326C17.3927 19.2053 17.4192 19.4884 17.5241 19.7462C17.629 20.004 17.8078 20.225 18.0379 20.3815C18.268 20.538 18.5392 20.6231 18.8174 20.626C19.0047 20.6275 19.1904 20.5918 19.3638 20.521C19.5373 20.4502 19.695 20.3457 19.8277 20.2134C19.9605 20.0812 20.0657 19.924 20.1372 19.7508C20.2087 19.5777 20.2451 19.3921 20.2444 19.2048C20.2426 18.9265 20.1587 18.655 20.0031 18.4243C19.8475 18.1935 19.6272 18.0139 19.3699 17.9079ZM18.8139 21.0259C19.0542 21.0279 19.2925 20.9822 19.515 20.8914C19.7375 20.8005 19.9397 20.6664 20.11 20.4969C20.2803 20.3273 20.4152 20.1256 20.5069 19.9035C20.5987 19.6813 20.6454 19.4432 20.6444 19.2029C20.6422 18.8457 20.5345 18.4968 20.3348 18.2007C20.1351 17.9045 19.8524 17.674 19.5222 17.538C19.1919 17.402 18.8288 17.3667 18.4786 17.4363C18.1283 17.506 17.8064 17.6777 17.5533 17.9297C17.3002 18.1817 17.1273 18.5029 17.0562 18.8529C16.9851 19.2029 17.0189 19.5661 17.1536 19.8969C17.2882 20.2278 17.5176 20.5114 17.8129 20.7123C18.1082 20.9131 18.4567 21.0223 18.8139 21.0259Z" fill="#3D444F"/>
</g>
<defs>
<clipPath id="clip0_9497_8154">
<rect width="24" height="24" fill="white" transform="translate(0.384766 0.730469)"/>
</clipPath>
</defs>
</svg>
