<svg width="25" height="25" viewBox="0 0 25 25" fill="none" xmlns="http://www.w3.org/2000/svg">
<path d="M15.3848 23.4805H9.38477C3.95477 23.4805 1.63477 21.1605 1.63477 15.7305V9.73047C1.63477 4.30047 3.95477 1.98047 9.38477 1.98047H15.3848C20.8148 1.98047 23.1348 4.30047 23.1348 9.73047V15.7305C23.1348 21.1605 20.8148 23.4805 15.3848 23.4805ZM9.38477 3.48047C4.77477 3.48047 3.13477 5.12047 3.13477 9.73047V15.7305C3.13477 20.3405 4.77477 21.9805 9.38477 21.9805H15.3848C19.9948 21.9805 21.6348 20.3405 21.6348 15.7305V9.73047C21.6348 5.12047 19.9948 3.48047 15.3848 3.48047H9.38477Z" fill="#3D444F"/>
<path fill-rule="evenodd" clip-rule="evenodd" d="M10.2456 7.05866C9.74817 7.42444 9.34177 7.91263 9.06122 8.4814C8.78068 9.05017 8.63435 9.68258 8.63477 10.3244C8.63477 11.7365 9.3281 12.977 10.3764 13.6839C10.8081 13.9737 11.1506 14.4995 11.1281 15.133V15.1401L10.9915 18.0887C10.9889 18.1766 10.9698 18.2631 10.9353 18.3431C10.9008 18.4232 10.8516 18.4951 10.7907 18.5548C10.7297 18.6145 10.6581 18.6607 10.5801 18.6907C10.5021 18.7207 10.4192 18.734 10.3363 18.7297C10.2534 18.7254 10.1722 18.7037 10.0973 18.6658C10.0224 18.6278 9.95544 18.5745 9.90022 18.5088C9.845 18.4431 9.80267 18.3664 9.77569 18.2832C9.74872 18.2 9.73764 18.1119 9.7431 18.0242L9.87894 15.0818C9.8806 15.0067 9.83727 14.8909 9.70644 14.8026C8.99474 14.3242 8.40868 13.6629 8.00277 12.8799C7.59685 12.097 7.38426 11.2179 7.38477 10.3244C7.38446 9.47065 7.57882 8.62944 7.9513 7.87249C8.32377 7.11553 8.86331 6.46528 9.52394 5.97714C9.72591 5.823 9.96709 5.73715 10.2159 5.73084C10.4647 5.72454 10.7094 5.79807 10.9181 5.94179C11.3031 6.20334 11.5515 6.67253 11.5515 7.19915V9.6909C11.5515 9.76336 11.5856 9.83228 11.6431 9.87292L12.2681 10.3236C12.3026 10.3483 12.3432 10.3614 12.3848 10.3614C12.4264 10.3614 12.467 10.3483 12.5015 10.3236L13.1265 9.87292C13.1547 9.8527 13.1778 9.82546 13.1938 9.79357C13.2098 9.76168 13.2181 9.72613 13.2181 9.69002V7.19915C13.2181 6.67253 13.4665 6.20334 13.8515 5.94179C14.0602 5.79807 14.3049 5.72454 14.5537 5.73084C14.8025 5.73715 15.0437 5.823 15.2456 5.97714C15.9063 6.46528 16.4458 7.11553 16.8183 7.87249C17.1907 8.62944 17.3851 9.47065 17.3848 10.3244C17.3853 11.2179 17.1727 12.097 16.7668 12.8799C16.3609 13.6629 15.7748 14.3242 15.0631 14.8026C14.9323 14.8909 14.889 15.0058 14.8906 15.0809L15.0265 18.0233C15.0318 18.111 15.0207 18.1989 14.9937 18.282C14.9666 18.3651 14.9243 18.4416 14.8692 18.5072C14.814 18.5728 14.7471 18.626 14.6723 18.6639C14.5975 18.7018 14.5164 18.7236 14.4336 18.7279C14.3508 18.7323 14.2681 18.7191 14.1901 18.6892C14.1122 18.6593 14.0407 18.6133 13.9797 18.5538C13.9187 18.4943 13.8694 18.4225 13.8348 18.3427C13.8002 18.2628 13.781 18.1765 13.7781 18.0887L13.6415 15.133C13.619 14.4995 13.9615 13.9737 14.3931 13.6839C14.9272 13.3252 15.3669 12.8291 15.6714 12.2417C15.9759 11.6543 16.1354 10.9948 16.1348 10.3244C16.1352 9.68258 15.9889 9.05017 15.7083 8.4814C15.4278 7.91263 15.0214 7.42444 14.524 7.05866C14.504 7.07368 14.4681 7.11786 14.4681 7.20004V9.69002C14.4682 9.9424 14.4099 10.1909 14.2985 10.414C14.1871 10.637 14.0259 10.8277 13.829 10.9695L13.204 11.4201C12.9623 11.5941 12.6769 11.6871 12.3848 11.6871C12.0927 11.6871 11.8073 11.5941 11.5656 11.4201L10.9406 10.9695C10.7437 10.8277 10.5825 10.637 10.4711 10.414C10.3596 10.1909 10.3014 9.9424 10.3014 9.69002V7.19915C10.3014 7.11786 10.2656 7.07368 10.2456 7.05866Z" fill="#3D444F"/>
</svg>
