<svg width="25" height="24" viewBox="0 0 25 24" fill="none" xmlns="http://www.w3.org/2000/svg">
<path fill-rule="evenodd" clip-rule="evenodd" d="M22.6514 12C22.6514 17.5228 18.1742 22 12.6514 22C7.12852 22 2.65137 17.5228 2.65137 12C2.65137 6.47715 7.12852 2 12.6514 2C18.1742 2 22.6514 6.47715 22.6514 12ZM17.5221 15.7065L12.6519 7.29193L7.78174 15.7065H17.5221ZM7.78174 17C6.78571 17 6.1648 15.9199 6.66282 15.0597L11.533 6.64516C12.031 5.78495 13.2728 5.78495 13.7709 6.64516L18.6411 15.0597C19.1391 15.9199 18.5182 17 17.5221 17H7.78174ZM12.0052 11.8258V10.5323C12.0052 10.1765 12.2962 9.88549 12.6519 9.88549C13.0077 9.88549 13.2987 10.1765 13.2987 10.5323V11.8258C13.2987 12.1815 13.0077 12.4726 12.6519 12.4726C12.2962 12.4726 12.0052 12.1815 12.0052 11.8258ZM13.2987 15.0597V13.7661H12.0052V15.0597H13.2987Z" fill="#F57C00"/>
</svg>
