<svg width="48" height="47" viewBox="0 0 48 47" fill="none" xmlns="http://www.w3.org/2000/svg">
<path fill-rule="evenodd" clip-rule="evenodd" d="M43.4596 23.3499C43.4596 34.0965 34.7478 42.8083 24.0013 42.8083C13.2548 42.8083 4.54297 34.0965 4.54297 23.3499C4.54297 12.6034 13.2548 3.8916 24.0013 3.8916C34.7478 3.8916 43.4596 12.6034 43.4596 23.3499ZM33.479 30.5621L24.0024 14.1888L14.5258 30.5621H33.479ZM14.5258 33.0791C12.5877 33.0791 11.3795 30.9774 12.3486 29.3036L21.8252 12.9303C22.7943 11.2565 25.2106 11.2565 26.1797 12.9303L35.6563 29.3036C36.6253 30.9774 35.4171 33.0791 33.479 33.0791H14.5258ZM22.7439 23.011V20.494C22.7439 19.8018 23.3102 19.2355 24.0024 19.2355C24.6946 19.2355 25.2609 19.8018 25.2609 20.494V23.011C25.2609 23.7032 24.6946 24.2695 24.0024 24.2695C23.3102 24.2695 22.7439 23.7032 22.7439 23.011ZM25.2609 29.3036V26.7865H22.7439V29.3036H25.2609Z" fill="#F57C00"/>
</svg>
