<svg width="25" height="24" viewBox="0 0 25 24" fill="none" xmlns="http://www.w3.org/2000/svg">
<g clip-path="url(#clip0_9010_14001)">
<path fill-rule="evenodd" clip-rule="evenodd" d="M1.90137 12C1.90137 6.08579 6.73715 1.25 12.6514 1.25C18.5656 1.25 23.4014 6.08579 23.4014 12C23.4014 17.9142 18.5656 22.75 12.6514 22.75C6.73715 22.75 1.90137 17.9142 1.90137 12ZM12.6514 2.75C7.56558 2.75 3.40137 6.91421 3.40137 12C3.40137 17.0858 7.56558 21.25 12.6514 21.25C17.7372 21.25 21.9014 17.0858 21.9014 12C21.9014 6.91421 17.7372 2.75 12.6514 2.75Z" fill="#F57C00"/>
<path fill-rule="evenodd" clip-rule="evenodd" d="M12.6514 7.25C13.0656 7.25 13.4014 7.58579 13.4014 8V13C13.4014 13.4142 13.0656 13.75 12.6514 13.75C12.2372 13.75 11.9014 13.4142 11.9014 13V8C11.9014 7.58579 12.2372 7.25 12.6514 7.25Z" fill="#F57C00"/>
<path fill-rule="evenodd" clip-rule="evenodd" d="M11.6455 16C11.6455 15.4477 12.0932 15 12.6455 15H12.6545C13.2068 15 13.6545 15.4477 13.6545 16C13.6545 16.5523 13.2068 17 12.6545 17H12.6455C12.0932 17 11.6455 16.5523 11.6455 16Z" fill="#F57C00"/>
</g>
<defs>
<clipPath id="clip0_9010_14001">
<rect width="24" height="24" fill="white" transform="translate(0.651367)"/>
</clipPath>
</defs>
</svg>
