<svg width="24" height="25" viewBox="0 0 24 25" fill="none" xmlns="http://www.w3.org/2000/svg">
<path d="M11.9996 23.2282C9.70787 23.2256 7.51077 22.314 5.89028 20.6935C4.26979 19.073 3.35823 16.8759 3.35559 14.5842C3.32659 8.9842 8.65559 4.3282 10.9556 2.5842C11.2562 2.35612 11.6232 2.23267 12.0006 2.23267C12.3779 2.23267 12.7449 2.35612 13.0456 2.5842C15.3456 4.3622 20.6736 9.0842 20.6456 14.5982C20.6398 16.888 19.7265 19.0821 18.1058 20.6998C16.4852 22.3174 14.2894 23.2266 11.9996 23.2282ZM11.9996 3.6932C11.9425 3.6952 11.8877 3.71593 11.8436 3.7522C10.1926 5.0122 4.80559 9.5152 4.83059 14.5842C4.82993 15.527 5.01497 16.4606 5.37514 17.3319C5.73531 18.2031 6.26356 18.9949 6.92973 19.662C8.27512 21.0092 10.1006 21.7669 12.0046 21.7682C13.9086 21.7695 15.7351 21.0144 17.0824 19.6691C18.4296 18.3237 19.1873 16.4982 19.1886 14.5942C19.2176 9.5942 13.8166 5.0322 12.1556 3.7522C12.1107 3.71731 12.0563 3.69675 11.9996 3.6932Z" fill="#3D444F"/>
</svg>
