<svg width="25" height="25" viewBox="0 0 25 25" fill="none" xmlns="http://www.w3.org/2000/svg">
<path d="M7.00547 21.3305C8.50547 22.2305 10.3055 22.7305 12.1055 22.7305C17.6055 22.7305 22.1055 18.2305 22.1055 12.7305C22.1055 7.23047 17.6055 2.73047 12.1055 2.73047C6.60547 2.73047 2.10547 7.23047 2.10547 12.7305C2.10547 14.5305 2.60547 16.2305 3.40547 17.7305L2.54591 21.0365C2.35119 21.7854 3.04439 22.4622 3.78846 22.2496L7.00547 21.3305Z" stroke="#3D444F" stroke-width="1.5" stroke-miterlimit="10" stroke-linecap="round" stroke-linejoin="round"/>
<path d="M16.6055 15.579C16.6055 15.741 16.5694 15.9075 16.4928 16.0695C16.4162 16.2315 16.317 16.3845 16.1863 16.5285C15.9655 16.7715 15.7221 16.947 15.4472 17.0595C15.1768 17.172 14.8839 17.2305 14.5684 17.2305C14.1087 17.2305 13.6175 17.1225 13.0992 16.902C12.5809 16.6815 12.0627 16.3845 11.5489 16.011C11.0306 15.633 10.5394 15.2145 10.0707 14.751C9.60647 14.283 9.18734 13.7925 8.81328 13.2795C8.44373 12.7665 8.14628 12.2535 7.92996 11.745C7.71363 11.232 7.60547 10.7415 7.60547 10.2735C7.60547 9.96747 7.65955 9.67497 7.76771 9.40497C7.87587 9.13047 8.04713 8.87847 8.28599 8.65347C8.57442 8.36997 8.8899 8.23047 9.2234 8.23047C9.34959 8.23047 9.47577 8.25747 9.58844 8.31147C9.70562 8.36547 9.80927 8.44647 9.8904 8.56347L10.936 10.035C11.0171 10.1475 11.0757 10.251 11.1162 10.35C11.1568 10.4445 11.1793 10.539 11.1793 10.6245C11.1793 10.7325 11.1478 10.8405 11.0847 10.944C11.0261 11.0475 10.9405 11.1555 10.8323 11.2635L10.4898 11.619C10.4402 11.6685 10.4177 11.727 10.4177 11.799C10.4177 11.835 10.4222 11.8665 10.4312 11.9025C10.4447 11.9385 10.4582 11.9655 10.4673 11.9925C10.5484 12.141 10.6881 12.3345 10.8864 12.5685C11.0892 12.8025 11.3055 13.041 11.5399 13.2795C11.7832 13.518 12.0176 13.7385 12.2564 13.941C12.4908 14.139 12.6846 14.274 12.8378 14.355C12.8604 14.364 12.8874 14.3775 12.9189 14.391C12.955 14.4045 12.991 14.409 13.0316 14.409C13.1082 14.409 13.1668 14.382 13.2164 14.3325L13.5589 13.995C13.6716 13.8825 13.7797 13.797 13.8834 13.743C13.987 13.68 14.0907 13.6485 14.2034 13.6485C14.289 13.6485 14.3791 13.6665 14.4783 13.707C14.5774 13.7475 14.6811 13.806 14.7938 13.8825L16.2855 14.94C16.4027 15.021 16.4838 15.1155 16.5334 15.228C16.5784 15.3405 16.6055 15.453 16.6055 15.579Z" stroke="#3D444F" stroke-width="1.5" stroke-miterlimit="10"/>
</svg>
